#N canvas 953 0 958 980 12;
#X obj 231 431 lyra-delay~;
#X obj 596 132 metro 3000;
#X obj 600 100 tgl 16 0 empty empty empty 0 -8 0 10 #fcfcfc #000000 #000000 0 1;
#X obj 231 363 *~;
#X obj 596 184 line~;
#X obj 146 192 +~;
#X floatatom 148 153 5 0 0 0 - - - 12;
#X floatatom 246 61 5 0 0 0 - - - 12;
#X obj 244 132 *~ 500;
#X obj 597 214 slide~ 20 20;
#X floatatom 305 132 5 0 0 0 - - - 0;
#X obj 231 262 osc~ 66;
#X obj 231 192 +~;
#X floatatom 272 192 5 0 0 0 - - - 0;
#X obj 231 297 *~ 0.5;
#X obj 231 229 +~, f 31;
#X obj 493 187 line~;
#X obj 422 192 *~;
#X obj 231 478 dac~;
#X obj 146 229 osc~ 40;
#X obj 244 95 osc~ 80;
#X msg 493 162 500 \, 0 100;
#X obj 422 132 osc~ 4000;
#X obj 270 173 loadmess 200;
#X msg 596 162 1 \, 0 10;
#X connect 0 0 18 0;
#X connect 0 0 18 1;
#X connect 1 0 24 0;
#X connect 1 0 21 0;
#X connect 2 0 1 0;
#X connect 3 0 0 0;
#X connect 4 0 9 0;
#X connect 5 0 19 0;
#X connect 6 0 5 0;
#X connect 7 0 20 0;
#X connect 8 0 5 1;
#X connect 8 0 12 1;
#X connect 9 0 3 1;
#X connect 10 0 8 1;
#X connect 11 0 14 0;
#X connect 12 0 15 0;
#X connect 13 0 12 0;
#X connect 14 0 3 0;
#X connect 15 0 11 0;
#X connect 16 0 17 1;
#X connect 17 0 15 1;
#X connect 19 0 3 0;
#X connect 20 0 8 0;
#X connect 21 0 16 0;
#X connect 22 0 17 0;
#X connect 23 0 13 0;
#X connect 24 0 4 0;
