#N canvas -7 0 958 980 12;
#X obj 596 132 metro 3000;
#X obj 600 100 tgl 16 0 empty empty empty 0 -8 0 10 #fcfcfc #000000 #000000 0 1;
#X obj 231 363 *~;
#X obj 596 184 line~;
#X floatatom 148 153 5 0 0 0 - - - 12;
#X floatatom 246 61 5 0 0 0 - - - 12;
#X obj 244 132 *~ 500;
#X obj 597 214 slide~ 20 20;
#X floatatom 305 132 5 0 0 0 - - - 0;
#X obj 231 262 osc~ 66;
#X obj 231 192 +~;
#X floatatom 272 192 5 0 0 0 - - - 0;
#X obj 231 297 *~ 0.5;
#X obj 231 229 +~, f 31;
#X obj 493 187 line~;
#X obj 422 192 *~;
#X obj 177 661 dac~;
#X obj 146 229 osc~ 40;
#X obj 244 95 osc~ 80;
#X msg 493 162 500 \, 0 100;
#X obj 422 132 osc~ 4000;
#X obj 270 173 loadmess 200;
#X obj 13 153 lyra-delay~;
#X obj 281 424 oglyra-delay~;
#X obj 506 400 hsl 162 19 0 127 0 0 empty empty empty -2 -10 0 12 #fcfcfc #000000 #000000 0 1;
#X obj 503 424 / 127;
#X obj 704 400 hsl 162 19 0 127 0 0 empty empty empty -2 -10 0 12 #fcfcfc #000000 #000000 0 1;
#X obj 701 424 / 127;
#X obj 579 495 hsl 162 19 0 127 0 0 empty empty empty -2 -10 0 12 #fcfcfc #000000 #000000 0 1;
#X obj 576 519 / 127;
#X obj 506 353 hsl 162 19 0 127 0 0 empty empty empty -2 -10 0 12 #fcfcfc #000000 #000000 0 1;
#X obj 177 562 *~ 0.5;
#X obj 256 571 *~ 0.5;
#X floatatom 281 503 5 0 0 0 - - - 0;
#X obj 256 595 cyclone/snapshot~ 20;
#X obj -44 200 vu 32 240 empty empty -1 -8 0 10 #e4e4e4 #373737 1 0;
#N canvas 329 161 625 417 vu 0;
#X obj 59 129 env~ 1024;
#X obj 161 111 abs~;
#X obj 161 213 snapshot~;
#X obj 161 256 rmstodb;
#X obj 161 21 inlet~;
#X obj 161 288 - 100;
#X obj 59 287 - 100;
#X obj 59 361 outlet;
#X obj 161 361 outlet;
#X text 344 307 Check the help file of env~ and slop~ for more details., f 31;
#X floatatom 239 117 5 0 0 0 - - - 0;
#X obj 161 146 slop~ 0 0 0 0 1e+09;
#X text 359 89 convert to hz;
#X text 282 118 hz;
#X obj 59 171 t f b;
#X text 345 132 The env~ object is dedicated to RMS analysis. Its output is in dB (0-100 range \, pd style) but needs to be converted to dBFS (and we do that by simply subtracting 100)., f 31;
#X text 345 225 The slop~ object is used here for peak detection. We need to convert the output to dB with rmstodb and also subtract by 100 to convert it to dBFS., f 31;
#X obj 239 89 expr 1000 / 500;
#X connect 0 0 14 0;
#X connect 1 0 11 0;
#X connect 2 0 3 0;
#X connect 3 0 5 0;
#X connect 4 0 0 0;
#X connect 4 0 1 0;
#X connect 5 0 8 0;
#X connect 6 0 7 0;
#X connect 10 0 11 3;
#X connect 11 0 2 0;
#X connect 14 0 6 0;
#X connect 14 1 2 0;
#X connect 17 0 10 0;
#X restore -47 153 pd vu;
#X f 6;
#X msg 596 162 1 \, 0 200;
#X obj 701 338 knob 50 0 127 0 0 empty empty #191919 #696969 #E1E1E1 1 0 0 0 1 270 0 0 0;
#X obj 782 247 knob 50 0 127 0 0 empty empty #191919 #696969 #E1E1E1 1 0 0 0 1 270 0 0 0;
#X connect 0 0 37 0;
#X connect 0 0 19 0;
#X connect 1 0 0 0;
#X connect 2 0 23 0;
#X connect 2 0 31 0;
#X connect 2 0 32 0;
#X connect 3 0 7 0;
#X connect 4 0 17 0;
#X connect 5 0 18 0;
#X connect 6 0 10 1;
#X connect 7 0 2 1;
#X connect 8 0 6 1;
#X connect 9 0 12 0;
#X connect 10 0 13 0;
#X connect 11 0 10 0;
#X connect 13 0 9 0;
#X connect 14 0 15 1;
#X connect 15 0 13 1;
#X connect 17 0 2 0;
#X connect 18 0 6 0;
#X connect 19 0 14 0;
#X connect 20 0 15 0;
#X connect 21 0 11 0;
#X connect 23 1 31 0;
#X connect 23 2 32 0;
#X connect 24 0 25 0;
#X connect 25 0 23 1;
#X connect 26 0 27 0;
#X connect 27 0 23 2;
#X connect 28 0 29 0;
#X connect 29 0 23 3;
#X connect 30 0 24 0;
#X connect 30 0 28 0;
#X connect 31 0 16 0;
#X connect 32 0 16 1;
#X connect 32 0 34 0;
#X connect 33 0 32 1;
#X connect 33 0 31 1;
#X connect 36 0 35 0;
#X connect 36 1 35 1;
#X connect 37 0 3 0;
#X connect 38 0 26 0;
