#N canvas 0 28 729 1050 12;
#X obj 12 492 inlet~;
#X obj 12 739 outlet~;
#X obj 167 95 / 127;
#X msg 167 137 2 \$1;
#X obj 167 158 pow;
#X obj 177 189 * 1.45125;
#X obj 177 231 line~;
#X msg 177 210 \$1 23.22;
#X obj 162 534 +~;
#X obj 167 75 r \$0-s-time-1;
#X obj 167 116 * 12;
#X obj 162 555 delwrite~ \$0-mod-delay-1 5944;
#X obj 177 273 vd~ \$0-mod-delay-1;
#X obj 192 336 loadbang;
#X obj 192 378 unpack f f f f;
#X obj 203 424 loadbang;
#X obj 202 467 unpack f f;
#X obj 92 518 +~;
#X obj 107 476 noise~;
#X obj 290 330 r \$0-s-feedback;
#X obj 290 351 / 127;
#X obj 290 372 t f f;
#X obj 290 393 * 2;
#X msg 290 414 2 \$1;
#X obj 290 435 pow;
#X obj 290 456 *;
#X msg 290 477 \$1 23.22;
#X obj 290 498 line~;
#X obj 177 514 *~;
#X obj 177 294 hip~ 1;
#X obj 177 315 lop~ 4000;
#X obj 269 -8 vd~ \$0-mod-delay-1;
#X obj 337 90 r \$0-s-lfo-wav;
#X obj 322 132 *~;
#X obj 337 111 == 0;
#X obj 387 131 r \$0-s-lfo-wav;
#X obj 372 152 *~;
#X obj 269 85 *~;
#X obj 322 199 *~;
#X obj 412 162 r \$0-s-del-mod;
#X obj 412 183 == 2;
#X obj 284 43 r \$0-s-del-mod;
#X obj 284 64 == 0;
#X obj 269 215 +~;
#X obj 269 236 *~;
#X obj 530 115 r \$0-s-mod-1;
#X obj 530 136 / 127;
#X obj 530 157 pow 2;
#X obj 530 178 * 10;
#X msg 530 199 \$1 23.22;
#X obj 530 220 line~;
#X obj 177 252 +~;
#X obj 844 115 / 127;
#X msg 844 157 2 \$1;
#X obj 844 178 pow;
#X obj 844 199 * 1.45125;
#X obj 844 241 line~;
#X msg 844 220 \$1 23.22;
#X obj 541 534 +~;
#X obj 844 136 * 12;
#X obj 616 341 loadbang;
#X obj 616 383 unpack f f f f;
#X obj 626 430 loadbang;
#X obj 626 472 unpack f f;
#X obj 556 514 *~;
#X obj 601 299 hip~ 1;
#X obj 601 320 lop~ 4000;
#X obj 616 194 *~;
#X obj 631 152 r \$0-s-del-mod;
#X obj 631 173 == 0;
#X obj 601 215 +~;
#X obj 601 236 *~;
#X obj 748 136 / 127;
#X obj 748 157 pow 2;
#X obj 748 178 * 10;
#X msg 748 199 \$1 23.22;
#X obj 748 220 line~;
#X obj 601 257 +~;
#X obj 616 80 vd~ \$0-mod-delay-2;
#X obj 541 555 delwrite~ \$0-mod-delay-2 5944;
#X obj 601 278 vd~ \$0-mod-delay-2;
#X obj 748 115 r \$0-s-mod-2;
#X obj 844 95 r \$0-s-time-2;
#X obj 400 563 +~;
#X obj 27 655 sig~ 1;
#X obj 27 676 -~;
#X obj 12 697 *~;
#X obj 77 576 r \$0-s-del-mix;
#X obj 77 597 / 127;
#X msg 77 639 \$1 23.22;
#X obj 77 660 line~;
#X obj 385 676 *~;
#X obj 12 718 +~;
#X obj 616 101 /~ 2;
#X obj 269 13 /~ 2;
#X obj 616 122 lop~ 689;
#X obj 269 106 lop~ 689;
#X obj 400 584 /~ 2;
#X obj 322 69 r~ \$0-del-tri;
#X obj 372 110 r~ \$0-del-sqr;
#X obj 107 497 *~ 0.001;
#X msg 202 445 -60 5;
#X msg 626 450 -60 5;
#X obj 322 168 +~;
#X msg 192 357 2.5 2.5 -12 5;
#X msg 616 362 2.5 2.5 -12 5;
#X obj 438 568 sig~ 1;
#X obj 438 589 /~;
#X obj 400 605 *~;
#X obj 453 544 max~ 1.5;
#X obj 575 648 clip~ -3 3;
#X obj 590 674 *~;
#X obj 590 750 /~;
#X obj 575 776 *~;
#X obj 630 700 *~ 9;
#X obj 590 700 +~ 27;
#X obj 630 726 +~ 27;
#N canvas 969 28 949 638 hyper-lfo 0;
#X obj 12 179 phasor~;
#X obj 292 418 phasor~;
#X obj 197 339 *~;
#X obj 197 402 *~;
#X obj 212 381 r \$0-s-link;
#N canvas 0 28 960 1050 triangle-lfo 0;
#X obj 12 211 /~ 2;
#X obj 12 12 inlet~;
#X obj 33 38 loadbang;
#X msg 33 59 1;
#X obj 33 80 -~;
#X obj 12 101 min~;
#X obj 12 122 *~ 4;
#X obj 12 143 -~ 1;
#X obj 179 38 inlet~;
#X obj 200 64 loadbang;
#X msg 200 85 1;
#X obj 200 106 -~;
#X obj 179 127 min~;
#X obj 179 148 *~ 4;
#X obj 179 169 -~ 1;
#X obj 12 232 s~ \$0-del-tri 0;
#X connect 0 0 15 0;
#X connect 1 0 4 1;
#X connect 1 0 5 0;
#X connect 2 0 3 0;
#X connect 3 0 4 0;
#X connect 4 0 5 1;
#X connect 5 0 6 0;
#X connect 6 0 7 0;
#X connect 7 0 0 0;
#X connect 8 0 11 1;
#X connect 8 0 12 0;
#X connect 9 0 10 0;
#X connect 10 0 11 0;
#X connect 11 0 12 1;
#X connect 12 0 13 0;
#X connect 13 0 14 0;
#X connect 14 0 0 0;
#X restore 12 474 pd triangle-lfo;
#N canvas 994 28 924 540 square-lfo 0;
#X obj 179 74 *~ 1000;
#X obj 179 95 clip~ -1 1;
#X obj 12 111 *~;
#X obj 12 174 *~;
#X obj 27 132 r \$0-s-andor;
#X obj 27 153 == 0;
#X obj 179 179 *~;
#X obj 194 158 r \$0-s-andor;
#X obj 211 211 snapshot~;
#X obj 179 127 /~ 2;
#X obj 211 232 change;
#X obj 211 274 s \$0-r-led;
#X obj 12 195 +~;
#X obj 12 12 inlet~;
#X obj 179 32 inlet~;
#X obj 12 221 s~ \$0-sqr-lfo 0;
#X obj 280 143 s~ \$0-del-sqr 0;
#X obj 211 191 bang~;
#X obj 211 253 sel 1 -1;
#X obj 179 53 cos~;
#X connect 0 0 1 0;
#X connect 1 0 2 1;
#X connect 1 0 9 0;
#X connect 2 0 3 0;
#X connect 3 0 12 0;
#X connect 4 0 5 0;
#X connect 5 0 3 1;
#X connect 6 0 12 1;
#X connect 7 0 6 1;
#X connect 8 0 10 0;
#X connect 9 0 6 0;
#X connect 9 0 16 0;
#X connect 10 0 18 0;
#X connect 12 0 8 0;
#X connect 12 0 15 0;
#X connect 13 0 2 0;
#X connect 13 0 9 0;
#X connect 14 0 19 0;
#X connect 17 0 8 0;
#X connect 18 0 11 0;
#X connect 18 1 11 0;
#X connect 19 0 0 0;
#X restore 72 434 pd square-lfo;
#X obj 72 226 *~ 1000;
#X obj 72 247 clip~ -1 1;
#X obj 12 12 r \$0-s-f-a;
#X obj 12 33 / 127;
#X obj 12 95 - 75;
#X obj 12 116 mtof;
#X obj 12 158 line~;
#X obj 292 198 / 127;
#X obj 292 260 - 75;
#X obj 292 281 mtof;
#X obj 292 323 line~;
#X obj 292 177 r \$0-s-f-b;
#X obj 292 219 pow 2;
#X obj 292 239 * 127;
#X obj 12 54 pow 2;
#X obj 12 74 * 127;
#X obj 197 360 /~ 2;
#X obj 72 205 cos~;
#X msg 12 137 \$1 23.22;
#X msg 292 302 \$1 23.22;
#X connect 0 0 5 0;
#X connect 0 0 24 0;
#X connect 1 0 5 1;
#X connect 1 0 6 1;
#X connect 2 0 23 0;
#X connect 3 0 1 0;
#X connect 4 0 3 1;
#X connect 7 0 8 0;
#X connect 8 0 2 0;
#X connect 8 0 6 0;
#X connect 9 0 10 0;
#X connect 10 0 21 0;
#X connect 11 0 12 0;
#X connect 12 0 25 0;
#X connect 13 0 0 0;
#X connect 14 0 19 0;
#X connect 15 0 16 0;
#X connect 16 0 26 0;
#X connect 17 0 2 1;
#X connect 17 0 1 0;
#X connect 18 0 14 0;
#X connect 19 0 20 0;
#X connect 20 0 15 0;
#X connect 21 0 22 0;
#X connect 22 0 11 0;
#X connect 23 0 3 0;
#X connect 24 0 7 0;
#X connect 25 0 13 0;
#X connect 26 0 17 0;
#X restore 6 -4 pd hyper-lfo;
#X obj 179 491 expander~;
#X obj 604 496 expander~;
#X obj 601 409 compressor~;
#X obj 178 402 compressor~;
#X obj 251 987 cnv 19 95 20 empty empty MOD-DELAY 12 11 0 14 -1 -262144
0;
#X obj 216 962 hradio 19 1 0 2 \$0-s-lfo-wav \$0-r-lfo-wav TRI 0 -8
0 14 -1 -262144 -1 1;
#X obj 216 926 hradio 19 1 0 3 \$0-s-del-mod \$0-r-del-mod SELF 0 -7
0 14 -1 -262144 -1 0;
#X obj 284 888 hsl 95 19 0 127 0 0 \$0-s-time-2 \$0-r-time-2 TIME-2
23 -7 0 14 -1 -262144 -1 0 1;
#X obj 219 888 hsl 54 19 0 127 0 0 \$0-s-mod-2 \$0-r-mod-2 MOD-2 6
-7 0 14 -1 -262144 -1 0 1;
#X obj 284 852 hsl 95 19 0 127 0 0 \$0-s-time-1 \$0-r-time-1 TIME-1
23 -8 0 14 -1 -262144 -1 0 1;
#X obj 219 852 hsl 54 19 0 127 0 0 \$0-s-mod-1 \$0-r-mod-1 MOD-1 6
-7 0 14 -1 -262144 -1 0 1;
#X obj 263 946 cnv 3 3 24 empty empty empty 20 12 0 14 -1 -66577 0
;
#X obj 255 970 cnv 3 11 3 empty empty empty 20 12 0 14 -1 -66577 0
;
#X obj 284 962 hsl 95 19 0 127 0 0 \$0-s-del-mix \$0-r-del-mix MIX
35 -7 0 14 -1 -262144 -1 0 1;
#X obj 284 926 hsl 95 19 0 127 0 0 \$0-s-feedback \$0-r-feedback FEEDBACK
16 -7 0 14 -1 -262144 -1 0 1;
#X text 146 865 use:;
#X connect 0 0 17 0;
#X connect 0 0 86 0;
#X connect 2 0 10 0;
#X connect 3 0 4 0;
#X connect 4 0 5 0;
#X connect 5 0 7 0;
#X connect 6 0 51 0;
#X connect 7 0 6 0;
#X connect 8 0 11 0;
#X connect 9 0 2 0;
#X connect 10 0 3 0;
#X connect 12 0 29 0;
#X connect 13 0 104 0;
#X connect 14 0 121 1;
#X connect 14 1 121 2;
#X connect 14 2 121 3;
#X connect 14 3 121 4;
#X connect 15 0 101 0;
#X connect 16 0 118 1;
#X connect 16 1 118 2;
#X connect 17 0 8 0;
#X connect 17 0 58 0;
#X connect 18 0 100 0;
#X connect 19 0 20 0;
#X connect 20 0 21 0;
#X connect 21 0 22 0;
#X connect 21 1 25 1;
#X connect 22 0 23 0;
#X connect 23 0 24 0;
#X connect 24 0 25 0;
#X connect 25 0 26 0;
#X connect 26 0 27 0;
#X connect 27 0 28 1;
#X connect 27 0 64 0;
#X connect 27 0 109 0;
#X connect 28 0 8 1;
#X connect 29 0 30 0;
#X connect 30 0 121 0;
#X connect 31 0 94 0;
#X connect 32 0 34 0;
#X connect 33 0 103 0;
#X connect 34 0 33 1;
#X connect 35 0 36 1;
#X connect 36 0 103 1;
#X connect 37 0 96 0;
#X connect 38 0 43 1;
#X connect 38 0 70 0;
#X connect 39 0 40 0;
#X connect 40 0 38 1;
#X connect 41 0 42 0;
#X connect 42 0 37 1;
#X connect 43 0 44 0;
#X connect 44 0 51 1;
#X connect 45 0 46 0;
#X connect 46 0 47 0;
#X connect 47 0 48 0;
#X connect 48 0 49 0;
#X connect 49 0 50 0;
#X connect 50 0 44 1;
#X connect 51 0 12 0;
#X connect 52 0 59 0;
#X connect 53 0 54 0;
#X connect 54 0 55 0;
#X connect 55 0 57 0;
#X connect 56 0 77 1;
#X connect 57 0 56 0;
#X connect 58 0 79 0;
#X connect 59 0 53 0;
#X connect 60 0 105 0;
#X connect 61 0 120 1;
#X connect 61 1 120 2;
#X connect 61 2 120 3;
#X connect 61 3 120 4;
#X connect 62 0 102 0;
#X connect 63 0 119 1;
#X connect 63 1 119 2;
#X connect 64 0 58 1;
#X connect 65 0 66 0;
#X connect 66 0 120 0;
#X connect 67 0 70 1;
#X connect 68 0 69 0;
#X connect 69 0 67 1;
#X connect 70 0 71 0;
#X connect 71 0 77 0;
#X connect 72 0 73 0;
#X connect 73 0 74 0;
#X connect 74 0 75 0;
#X connect 75 0 76 0;
#X connect 76 0 71 1;
#X connect 77 0 80 0;
#X connect 78 0 93 0;
#X connect 80 0 65 0;
#X connect 81 0 72 0;
#X connect 82 0 52 0;
#X connect 83 0 97 0;
#X connect 84 0 85 0;
#X connect 85 0 86 1;
#X connect 86 0 92 0;
#X connect 87 0 88 0;
#X connect 88 0 89 0;
#X connect 89 0 90 0;
#X connect 90 0 91 0;
#X connect 90 0 85 1;
#X connect 91 0 92 1;
#X connect 92 0 1 0;
#X connect 93 0 95 0;
#X connect 94 0 37 0;
#X connect 95 0 67 0;
#X connect 96 0 43 0;
#X connect 97 0 108 0;
#X connect 98 0 33 0;
#X connect 99 0 36 0;
#X connect 100 0 17 1;
#X connect 101 0 16 0;
#X connect 102 0 63 0;
#X connect 103 0 38 0;
#X connect 104 0 14 0;
#X connect 105 0 61 0;
#X connect 106 0 107 0;
#X connect 107 0 108 1;
#X connect 108 0 110 0;
#X connect 109 0 107 1;
#X connect 110 0 111 0;
#X connect 110 0 111 1;
#X connect 110 0 113 0;
#X connect 111 0 115 0;
#X connect 111 0 114 0;
#X connect 112 0 113 1;
#X connect 113 0 91 1;
#X connect 114 0 116 0;
#X connect 115 0 112 0;
#X connect 116 0 112 1;
#X connect 118 0 28 0;
#X connect 118 0 83 0;
#X connect 119 0 64 1;
#X connect 119 0 83 1;
#X connect 120 0 119 0;
#X connect 121 0 118 0;
