#N canvas 953 0 1920 989 10;
#X obj 135 8 inlet~;
#X obj 138 1012 outlet~;
#X msg 303 171 2 \$1;
#X obj 303 192 pow;
#X obj 303 213 * 1.45125;
#X obj 303 255 line~;
#X msg 303 234 \$1 23.22;
#X obj 288 558 +~;
#X obj 303 150 * 12;
#X obj 288 579 delwrite~ \$0-mod-delay-1 5944;
#X obj 318 360 loadbang;
#X obj 303 428 compressor~;
#X obj 318 402 unpack f f f f;
#X obj 328 449 loadbang;
#X obj 303 512 expander~;
#X obj 328 491 unpack f f;
#X obj 218 542 +~;
#X obj 233 500 noise~;
#X obj 416 396 t f f;
#X obj 416 417 * 2;
#X msg 416 438 2 \$1;
#X obj 416 459 pow;
#X obj 416 480 *;
#X msg 416 501 \$1 23.22;
#X obj 416 522 line~;
#X obj 303 538 *~;
#X obj 303 318 hip~ 1;
#X obj 303 339 lop~ 4000;
#X obj 543 127 r \$0-s-lfo-wav;
#X obj 528 169 *~;
#X obj 543 148 == 0;
#X obj 593 168 r \$0-s-lfo-wav;
#X obj 578 189 *~;
#X obj 475 122 *~;
#X obj 528 226 *~;
#X obj 608 189 r \$0-s-del-mod;
#X obj 608 210 == 2;
#X obj 490 80 r \$0-s-del-mod;
#X obj 490 101 == 0;
#X obj 475 242 +~;
#X obj 475 263 *~;
#X obj 706 142 r \$0-s-mod-1;
#X obj 706 163 / 127;
#X obj 706 184 pow 2;
#X obj 706 205 * 10;
#X msg 706 226 \$1 23.22;
#X obj 706 247 line~;
#X obj 303 276 +~;
#X msg 1050 181 2 \$1;
#X obj 1050 202 pow;
#X obj 1050 223 * 1.45125;
#X obj 1050 265 line~;
#X msg 1050 244 \$1 23.22;
#X obj 1034 592 +~;
#X obj 1050 160 * 12;
#X obj 1079 399 loadbang;
#X obj 1064 467 compressor~;
#X obj 1079 441 unpack f f f f;
#X obj 1089 488 loadbang;
#X obj 1064 551 expander~;
#X obj 1089 530 unpack f f;
#X obj 1049 572 *~;
#X obj 1050 364 hip~ 1;
#X obj 1050 385 lop~ 4000;
#X obj 792 221 *~;
#X obj 807 179 r \$0-s-del-mod;
#X obj 807 200 == 0;
#X obj 777 242 +~;
#X obj 777 263 *~;
#X obj 914 163 / 127;
#X obj 914 184 pow 2;
#X obj 914 205 * 10;
#X msg 914 226 \$1 23.22;
#X obj 914 247 line~;
#X obj 777 284 +~;
#X obj 1034 613 delwrite~ \$0-mod-delay-2 5944;
#X obj 914 142 r \$0-s-mod-2;
#X obj 526 587 +~;
#X obj 153 679 sig~ 1;
#X obj 153 700 -~;
#X obj 138 721 *~;
#X obj 230 636 r \$0-s-del-mix;
#X obj 230 657 / 127;
#X obj 230 704 line~;
#X obj 511 700 *~;
#X obj 138 742 +~;
#X obj 792 128 /~ 2;
#X obj 475 60 /~ 2;
#X obj 792 149 lop~ 689;
#X obj 475 143 lop~ 689;
#X obj 526 623 /~ 2;
#X obj 528 106 r~ \$0-del-tri;
#X obj 578 147 r~ \$0-del-sqr;
#X obj 233 521 *~ 0.001;
#X msg 328 469 -60 5;
#X msg 1089 508 -60 5;
#X obj 528 205 +~;
#X msg 318 381 2.5 2.5 -12 5;
#X msg 1079 420 2.5 2.5 -12 5;
#X obj 564 587 sig~ 1;
#X obj 564 623 /~, f 13;
#X obj 526 644 *~;
#X obj 616 587 max~ 1.5;
#X obj 475 39 delread4~ \$0-mod-delay-1;
#X obj 792 107 delread4~ \$0-mod-delay-2;
#X obj 303 297 delread4~ \$0-mod-delay-1;
#X obj 1050 343 delread4~ \$0-mod-delay-2;
#X floatatom 1260 326 5 0 0 0 - - - 0;
#X obj 1260 303 loadmess 20000;
#X obj 303 9 inlet deltime1;
#X obj 1050 101 inlet deltime2;
#X obj 416 9 inlet fb;
#X msg 230 683 1 23.22;
#X obj 161 367 tgl 25 0 empty empty empty 17 7 0 10 #191919 #e1e1e1 #e1e1e1 0 1;
#X text 160 435 noise on/off;
#X obj 161 395 sel 0 1, f 9;
#X msg 161 415 0;
#X msg 186 415 0.001;
#X obj 138 913 *~ 0.125;
#X obj 138 938 rzero~ -1;
#X obj 138 963 rzero~ -1;
#X obj 138 988 rzero~ -1;
#X obj 218 982 tgl 19 0 empty empty empty 0 -6 0 8 #dfdfdf #000000 #000000 0 1;
#X obj 138 846 cpole~ 0.912445 0.130435;
#X obj 138 882 cpole~ 0.912445 -0.130435;
#X obj 138 793 rpole~ 0.848508;
#X obj 138 819 *~ 0.024679;
#X obj 138 767 *~ 0.151492;
#X obj 218 950 loadmess 1;
#X obj 218 1010 switch~ 512 1 8;
#X obj 403 846 outlet~;
#X obj 914 835 outlet~;
#X floatatom 704 74 5 0 0 0 - - - 0;
#X text 600 17 MODULATION;
#X obj 986 671 abs~;
#X obj 986 785 rmstodb;
#X obj 986 817 - 100;
#X obj 986 706 slop~ 0 0 0 0 1e+09;
#X floatatom 1052 671 5 0 0 0 - - - 0;
#X floatatom 986 838 5 0 0 0 - - - 0;
#X obj 986 742 cyclone/snapshot~ 100;
#X obj 654 414 osc~;
#X obj 654 440 *~ 1;
#X connect 0 0 16 0;
#X connect 0 0 80 0;
#X connect 2 0 3 0;
#X connect 3 0 4 0;
#X connect 4 0 6 0;
#X connect 5 0 47 0;
#X connect 6 0 5 0;
#X connect 7 0 9 0;
#X connect 8 0 2 0;
#X connect 10 0 97 0;
#X connect 11 0 14 0;
#X connect 12 0 11 1;
#X connect 12 1 11 2;
#X connect 12 2 11 3;
#X connect 12 3 11 4;
#X connect 13 0 94 0;
#X connect 14 0 25 0;
#X connect 14 0 77 0;
#X connect 14 0 130 0 32.................GB...vJ...vg....rB...rS....;
#X connect 15 0 14 1;
#X connect 15 1 14 2;
#X connect 16 0 7 0;
#X connect 16 0 53 0;
#X connect 17 0 93 0;
#X connect 18 0 19 0;
#X connect 18 1 22 1;
#X connect 19 0 20 0;
#X connect 20 0 21 0;
#X connect 21 0 22 0;
#X connect 22 0 23 0;
#X connect 23 0 24 0;
#X connect 24 0 25 1;
#X connect 24 0 61 0;
#X connect 24 0 102 0;
#X connect 25 0 7 1;
#X connect 26 0 27 0;
#X connect 27 0 11 0;
#X connect 28 0 30 0;
#X connect 29 0 96 0;
#X connect 30 0 29 1;
#X connect 31 0 32 1;
#X connect 32 0 96 1;
#X connect 33 0 89 0;
#X connect 34 0 39 1;
#X connect 34 0 67 0;
#X connect 35 0 36 0;
#X connect 36 0 34 1;
#X connect 37 0 38 0;
#X connect 38 0 33 1;
#X connect 39 0 40 0;
#X connect 41 0 42 0;
#X connect 42 0 43 0;
#X connect 43 0 44 0;
#X connect 44 0 45 0;
#X connect 45 0 46 0;
#X connect 46 0 40 1;
#X connect 47 0 105 0;
#X connect 48 0 49 0;
#X connect 49 0 50 0;
#X connect 50 0 52 0;
#X connect 51 0 106 0;
#X connect 52 0 51 0;
#X connect 53 0 75 0;
#X connect 53 0 134 0;
#X connect 54 0 48 0;
#X connect 55 0 98 0;
#X connect 56 0 59 0;
#X connect 57 0 56 1;
#X connect 57 1 56 2;
#X connect 57 2 56 3;
#X connect 57 3 56 4;
#X connect 58 0 95 0;
#X connect 59 0 61 1;
#X connect 59 0 77 1;
#X connect 59 0 131 0 48.................yA...P3++++b....D9+++OG...f29+++yA...3s+++OCA...;
#X connect 60 0 59 1;
#X connect 60 1 59 2;
#X connect 61 0 53 1;
#X connect 62 0 63 0;
#X connect 63 0 56 0;
#X connect 64 0 67 1;
#X connect 65 0 66 0;
#X connect 66 0 64 1;
#X connect 67 0 68 0;
#X connect 68 0 74 0;
#X connect 69 0 70 0;
#X connect 70 0 71 0;
#X connect 71 0 72 0;
#X connect 72 0 73 0;
#X connect 73 0 68 1;
#X connect 76 0 69 0;
#X connect 77 0 90 0;
#X connect 78 0 79 0;
#X connect 79 0 80 1;
#X connect 80 0 85 0;
#X connect 81 0 82 0;
#X connect 82 0 112 0;
#X connect 83 0 84 0;
#X connect 83 0 79 1;
#X connect 84 0 85 1;
#X connect 85 0 127 0;
#X connect 86 0 88 0;
#X connect 87 0 33 0;
#X connect 90 0 101 0;
#X connect 91 0 29 0;
#X connect 92 0 32 0;
#X connect 93 0 16 1;
#X connect 94 0 15 0;
#X connect 95 0 60 0;
#X connect 96 0 34 0;
#X connect 97 0 12 0;
#X connect 98 0 57 0;
#X connect 99 0 100 0;
#X connect 100 0 101 1;
#X connect 101 0 84 1;
#X connect 102 0 100 1;
#X connect 103 0 87 0;
#X connect 104 0 86 0;
#X connect 105 0 26 0;
#X connect 106 0 62 0;
#X connect 107 0 27 1;
#X connect 107 0 63 1;
#X connect 108 0 107 0;
#X connect 109 0 8 0;
#X connect 110 0 54 0;
#X connect 111 0 18 0;
#X connect 112 0 83 0;
#X connect 113 0 115 0;
#X connect 115 0 116 0;
#X connect 115 1 117 0;
#X connect 116 0 93 1;
#X connect 117 0 93 1;
#X connect 118 0 119 0;
#X connect 119 0 120 0;
#X connect 120 0 121 0;
#X connect 121 0 1 0;
#X connect 122 0 129 0;
#X connect 123 0 124 0;
#X connect 123 1 124 1;
#X connect 124 0 118 0;
#X connect 125 0 126 0;
#X connect 126 0 123 0;
#X connect 127 0 125 0;
#X connect 128 0 122 0;
#X connect 132 0 89 1;
#X connect 132 0 88 1;
#X connect 134 0 137 0;
#X connect 135 0 136 0;
#X connect 136 0 139 0;
#X connect 137 0 140 0;
#X connect 138 0 137 3;
#X connect 140 0 135 0;
#X connect 141 0 142 0;
