#N canvas 0 0 958 1050 10;
#X obj 159 177 inlet~;
#X obj 293 142 inlet~;
#X obj 292 227 +~;
#X obj 162 229 +~;
#X obj 428 54 inlet;
#X text 430 33 fb 0 - 100;
#X obj 428 98 * 0.01;
#X obj 427 122 lop~ 3;
#X obj 308 199 *~;
#X obj 177 205 *~;
#X obj 414 209 *~;
#X obj 548 198 *~;
#X obj 68 227 cos;
#X obj 100 224 sin;
#X obj 68 177 wrap;
#X floatatom 101 242 5 0 0 0 - - - 0;
#X floatatom 69 249 5 0 0 0 - - - 0;
#X floatatom 73 128 5 0 0 0 - - - 0;
#X obj 70 201 * 6.28319;
#X obj 170 361 *~;
#X obj 197 362 *~;
#X obj 170 384 -~;
#X obj 283 365 *~;
#X obj 309 366 *~;
#X obj 292 385 +~;
#X obj 415 364 *~;
#X obj 441 366 *~;
#X obj 417 386 -~;
#X obj 526 369 *~;
#X obj 555 369 *~;
#X obj 528 389 +~;
#X obj 165 430 *~;
#X obj 190 431 *~;
#X obj 173 458 -~;
#X obj 290 430 *~;
#X obj 316 430 *~;
#X obj 291 456 +~;
#X obj 420 436 *~;
#X obj 447 437 *~;
#X obj 423 464 -~;
#X obj 548 435 *~;
#X obj 572 436 *~;
#X obj 547 462 +~;
#X obj 45 339 wrap;
#X floatatom 67 414 5 0 0 0 - - - 0;
#X floatatom 33 414 5 0 0 0 - - - 0;
#X floatatom 45 288 5 0 0 0 - - - 0;
#X obj 47 363 * 6.28319;
#X obj 227 527 outlet~;
#X obj 483 523 outlet~;
#X obj 545 251 rpole~;
#X obj 547 232 *~;
#X obj 415 257 rpole~;
#X obj 416 234 *~;
#X obj 592 34 inlet;
#X obj 592 55 clip 0 1;
#X obj 592 76 - 1;
#X obj 592 98 * -1;
#X obj 70 151 / 360;
#X obj 46 313 / 360;
#X obj 45 390 cos;
#X obj 75 390 sin;
#X obj 227 495 *~ 1;
#X obj 483 499 *~ 1;
#X msg 46 112 45;
#X obj 46 89 loadbang;
#X text 42 43 4 prime number delay lines with ratios between 0.5 and 1 47 \, 67 \, 101 \, 137;
#X obj 693 74 inlet;
#X obj 693 96 clip 20 70;
#X obj 171 301 delread~ \$0-a 40.635;
#X obj 296 304 delread~ \$0-b 62.346;
#X obj 424 305 delread~ \$0-c 99.203;
#X obj 588 310 delread~ \$0-d 135;
#X floatatom 438 76 5 0 0 0 - - - 0;
#X floatatom 558 45 5 0 0 0 - - - 0;
#X floatatom 741 157 5 0 0 0 - - - 0;
#X obj 654 475 vstplugin~;
#X msg 666 387 open -e -b CHOWTapeModel.vst3;
#X text 76 6;
#X obj 623 214 * 40.635;
#X obj 695 212 * 62.346;
#X obj 759 211 * 99.203;
#X obj 825 205 * 135;
#X obj 696 139 * 0.01;
#X obj 162 253 delwrite~ \$0-a 50000;
#X obj 293 252 delwrite~ \$0-b 50000;
#X obj 415 281 delwrite~ \$0-c 50000;
#X obj 535 281 delwrite~ \$0-d 50000;
#X connect 0 0 3 0;
#X connect 1 0 2 0;
#X connect 2 0 85 0;
#X connect 3 0 84 0;
#X connect 6 0 7 0;
#X connect 7 0 8 1;
#X connect 7 0 9 1;
#X connect 7 0 10 0;
#X connect 7 0 11 0;
#X connect 8 0 2 1;
#X connect 9 0 3 1;
#X connect 10 0 53 0;
#X connect 11 0 51 0;
#X connect 12 0 16 0;
#X connect 13 0 15 0;
#X connect 14 0 18 0;
#X connect 15 0 20 1;
#X connect 15 0 22 1;
#X connect 15 0 26 1;
#X connect 15 0 28 1;
#X connect 16 0 19 1;
#X connect 16 0 23 1;
#X connect 16 0 25 1;
#X connect 16 0 29 1;
#X connect 17 0 58 0;
#X connect 18 0 12 0;
#X connect 18 0 13 0;
#X connect 19 0 21 0;
#X connect 20 0 21 1;
#X connect 21 0 31 0;
#X connect 21 0 34 0;
#X connect 22 0 24 0;
#X connect 23 0 24 1;
#X connect 24 0 37 0;
#X connect 24 0 40 0;
#X connect 25 0 27 0;
#X connect 26 0 27 1;
#X connect 27 0 32 0;
#X connect 27 0 35 0;
#X connect 28 0 30 0;
#X connect 29 0 30 1;
#X connect 30 0 41 0;
#X connect 30 0 38 0;
#X connect 31 0 33 0;
#X connect 32 0 33 1;
#X connect 33 0 9 0;
#X connect 33 0 62 0;
#X connect 33 0 76 0;
#X connect 33 0 76 1;
#X connect 34 0 36 0;
#X connect 35 0 36 1;
#X connect 36 0 10 1;
#X connect 36 0 62 0;
#X connect 36 0 76 0;
#X connect 36 0 76 1;
#X connect 37 0 39 0;
#X connect 38 0 39 1;
#X connect 39 0 8 0;
#X connect 39 0 63 0;
#X connect 39 0 76 0;
#X connect 39 0 76 1;
#X connect 40 0 42 0;
#X connect 41 0 42 1;
#X connect 42 0 11 1;
#X connect 42 0 63 0;
#X connect 42 0 76 0;
#X connect 42 0 76 1;
#X connect 43 0 47 0;
#X connect 44 0 32 1;
#X connect 44 0 34 1;
#X connect 44 0 38 1;
#X connect 44 0 40 1;
#X connect 45 0 31 1;
#X connect 45 0 35 1;
#X connect 45 0 37 1;
#X connect 45 0 41 1;
#X connect 46 0 59 0;
#X connect 47 0 60 0;
#X connect 47 0 61 0;
#X connect 50 0 87 0;
#X connect 51 0 50 0;
#X connect 52 0 86 0;
#X connect 53 0 52 0;
#X connect 54 0 55 0;
#X connect 55 0 56 0;
#X connect 55 0 50 1;
#X connect 55 0 52 1;
#X connect 56 0 57 0;
#X connect 57 0 53 1;
#X connect 57 0 51 1;
#X connect 58 0 14 0;
#X connect 59 0 43 0;
#X connect 60 0 45 0;
#X connect 61 0 44 0;
#X connect 62 0 48 0;
#X connect 63 0 49 0;
#X connect 64 0 17 0;
#X connect 64 0 46 0;
#X connect 65 0 64 0;
#X connect 67 0 68 0;
#X connect 68 0 46 0;
#X connect 69 0 19 0;
#X connect 69 0 22 0;
#X connect 70 0 20 0;
#X connect 70 0 23 0;
#X connect 71 0 25 0;
#X connect 71 0 28 0;
#X connect 72 0 26 0;
#X connect 72 0 29 0;
#X connect 73 0 6 0;
#X connect 74 0 55 0;
#X connect 75 0 83 0;
#X connect 76 0 9 0;
#X connect 76 0 8 0;
#X connect 76 0 10 1;
#X connect 76 0 11 1;
#X connect 77 0 76 0;
#X connect 79 0 69 0;
#X connect 80 0 70 0;
#X connect 81 0 71 0;
#X connect 82 0 87 0;
#X connect 83 0 79 0;
#X connect 83 0 80 0;
#X connect 83 0 81 0;
#X connect 83 0 82 0;
