#N canvas 0 0 1920 1052 12;
#X obj 52 679 outlet~;
#X obj 762 50 hsl 95 19 0 127 0 0 \$0-s-time-1 \$0-r-time-1 TIME-1 23 -8 0 14 #000000 #fcfcfc #000000 0 1;
#X obj 762 130 hsl 95 19 0 127 0 0 \$0-s-del-mix \$0-r-del-mix MIX 35 -7 0 14 #000000 #fcfcfc #000000 0 1;
#X obj 762 94 hsl 95 19 0 127 0 0 \$0-s-feedback \$0-r-feedback FEEDBACK 16 -7 0 14 #000000 #fcfcfc #000000 0 1;
#X obj 37 393 inlet~;
#X obj 217 28 / 127;
#X msg 217 70 2 \$1;
#X obj 217 91 pow;
#X obj 217 112 * 1.45125;
#X obj 217 154 line~;
#X msg 217 133 \$1 23.22;
#X obj 202 477 +~;
#X obj 217 6 r \$0-s-time-1;
#X obj 217 49 * 12;
#X obj 202 498 delwrite~ \$0-mod-delay-1 5944;
#X obj 235 279 loadbang;
#X obj 217 347 compressor~;
#X obj 235 321 unpack f f f f;
#X obj 242 368 loadbang;
#X obj 217 431 expander~;
#X obj 242 410 unpack f f;
#X obj 117 450 +~;
#X obj 150 419 noise~;
#X obj 408 217 r \$0-s-feedback;
#X obj 408 238 / 127;
#X obj 408 259 t f f;
#X obj 408 280 * 2;
#X msg 408 301 2 \$1;
#X obj 408 322 pow;
#X obj 408 343 *;
#X msg 408 364 \$1 23.22;
#X obj 408 385 line~;
#X obj 217 457 *~;
#X obj 217 237 hip~ 1;
#X obj 217 258 lop~ 4000;
#X obj 217 175 +~;
#X obj 581 477 +~;
#X obj 629 284 loadbang;
#X obj 611 352 compressor~;
#X obj 629 326 unpack f f f f;
#X obj 636 373 loadbang;
#X obj 611 436 expander~;
#X obj 636 415 unpack f f;
#X obj 596 457 *~;
#X obj 611 242 hip~ 1;
#X obj 611 263 lop~ 4000;
#X obj 581 498 delwrite~ \$0-mod-delay-2 5944;
#X obj 450 546 +~;
#X obj 70 598 sig~ 1;
#X obj 70 619 -~;
#X obj 52 640 *~;
#X obj 120 529 r \$0-s-del-mix;
#X obj 120 560 / 127;
#X msg 120 582 \$1 23.22;
#X obj 120 603 line~;
#X obj 120 632 *~;
#X obj 52 661 +~;
#X obj 150 440 *~ 0.001;
#X msg 242 388 -60 5;
#X msg 636 393 -60 5;
#X msg 235 300 2.5 2.5 -12 5;
#X msg 629 305 2.5 2.5 -12 5;
#X obj 498 591 sig~ 1;
#X obj 498 612 /~;
#X obj 450 618 *~;
#X obj 548 591 max~ 1.5;
#X obj 217 217 delread4~ \$0-mod-delay-1;
#X obj 611 221 delread4~ \$0-mod-delay-2;
#X obj 98 327 tgl 25 0 empty empty empty 17 7 0 10 #191919 #e1e1e1 #e1e1e1 0 1;
#X text 141 326 noise on/off;
#X obj 98 363 sel 0 1;
#X msg 98 386 0;
#X msg 129 385 0.001;
#X obj 204 549 loadbang;
#X msg 204 569 127;
#X msg 527 656 open -e CHOWTapeModel.vst3;
#X obj 450 656 vstplugin~;
#X obj 830 476 +~;
#X obj 878 283 loadbang;
#X obj 860 351 compressor~;
#X obj 878 325 unpack f f f f;
#X obj 885 372 loadbang;
#X obj 860 435 expander~;
#X obj 885 414 unpack f f;
#X obj 845 456 *~;
#X obj 860 241 hip~ 1;
#X obj 860 262 lop~ 4000;
#X msg 885 392 -60 5;
#X msg 878 304 2.5 2.5 -12 5;
#X obj 860 220 delread4~ \$0-mod-delay-3;
#X obj 830 498 delwrite~ \$0-mod-delay-3 5944;
#X obj 450 567 +~;
#X obj 450 597 /~ 3;
#X obj 611 173 *~ 1.6;
#X obj 860 197 *~ 3.2;
#N canvas 0 0 1920 1052 test 0;
#X obj 75 174 vstplugin~;
#X msg 143 102 midi_note 1 60 127;
#X msg 147 134 midi_note 1 63 127;
#X obj 178 64 bng 13 250 50 0 empty empty empty 0 -6 0 12 #fcfcfc #000000 #000000;
#X msg 158 153 midi_note 1 67 127;
#X obj 178 45 metro 2000;
#X obj 178 26 tgl 13 0 empty empty empty 0 -6 0 12 #fcfcfc #000000 #000000 0 1;
#X msg 21 104 open -e TyrellN6;
#X msg 170 173 midi_note 1 70 127;
#X obj 75 205 outlet~;
#X connect 0 0 9 0;
#X connect 1 0 0 0;
#X connect 2 0 0 0;
#X connect 3 0 1 0;
#X connect 3 0 2 0;
#X connect 3 0 4 0;
#X connect 3 0 8 0;
#X connect 4 0 0 0;
#X connect 5 0 3 0;
#X connect 6 0 5 0;
#X connect 7 0 0 0;
#X connect 8 0 0 0;
#X restore 78 256 pd test;
#X obj 92 724 dac~;
#X obj 527 633 loadbang;
#X connect 4 0 21 0;
#X connect 4 0 50 0;
#X connect 5 0 13 0;
#X connect 6 0 7 0;
#X connect 7 0 8 0;
#X connect 8 0 10 0;
#X connect 9 0 35 0;
#X connect 10 0 9 0;
#X connect 11 0 14 0;
#X connect 12 0 5 0;
#X connect 13 0 6 0;
#X connect 15 0 60 0;
#X connect 16 0 19 0;
#X connect 17 0 16 1;
#X connect 17 1 16 2;
#X connect 17 2 16 3;
#X connect 17 3 16 4;
#X connect 18 0 58 0;
#X connect 19 0 32 0;
#X connect 19 0 47 0;
#X connect 20 0 19 1;
#X connect 20 1 19 2;
#X connect 21 0 11 0;
#X connect 21 0 36 0;
#X connect 21 0 77 0;
#X connect 22 0 57 0;
#X connect 23 0 24 0;
#X connect 24 0 25 0;
#X connect 25 0 26 0;
#X connect 25 1 29 1;
#X connect 26 0 27 0;
#X connect 27 0 28 0;
#X connect 28 0 29 0;
#X connect 29 0 30 0;
#X connect 30 0 31 0;
#X connect 31 0 32 1;
#X connect 31 0 43 0;
#X connect 31 0 65 0;
#X connect 31 0 84 0;
#X connect 32 0 11 1;
#X connect 33 0 34 0;
#X connect 34 0 16 0;
#X connect 35 0 66 0;
#X connect 35 0 93 0;
#X connect 35 0 94 0;
#X connect 36 0 46 0;
#X connect 37 0 61 0;
#X connect 38 0 41 0;
#X connect 39 0 38 1;
#X connect 39 1 38 2;
#X connect 39 2 38 3;
#X connect 39 3 38 4;
#X connect 40 0 59 0;
#X connect 41 0 43 1;
#X connect 41 0 47 1;
#X connect 42 0 41 1;
#X connect 42 1 41 2;
#X connect 43 0 36 1;
#X connect 44 0 45 0;
#X connect 45 0 38 0;
#X connect 47 0 91 0;
#X connect 48 0 49 0;
#X connect 49 0 50 1;
#X connect 50 0 56 0;
#X connect 51 0 52 0;
#X connect 52 0 53 0;
#X connect 53 0 54 0;
#X connect 54 0 55 0;
#X connect 54 0 49 1;
#X connect 55 0 56 1;
#X connect 56 0 0 0;
#X connect 56 0 96 0;
#X connect 56 0 96 1;
#X connect 57 0 21 1;
#X connect 58 0 20 0;
#X connect 59 0 42 0;
#X connect 60 0 17 0;
#X connect 61 0 39 0;
#X connect 62 0 63 0;
#X connect 63 0 64 1;
#X connect 64 0 76 0;
#X connect 64 0 76 1;
#X connect 65 0 63 1;
#X connect 66 0 33 0;
#X connect 67 0 44 0;
#X connect 68 0 70 0;
#X connect 70 0 71 0;
#X connect 70 1 72 0;
#X connect 71 0 57 1;
#X connect 72 0 57 1;
#X connect 73 0 74 0;
#X connect 74 0 52 0;
#X connect 75 0 76 0;
#X connect 76 0 55 1;
#X connect 76 1 55 1;
#X connect 77 0 90 0;
#X connect 78 0 88 0;
#X connect 79 0 82 0;
#X connect 80 0 79 1;
#X connect 80 1 79 2;
#X connect 80 2 79 3;
#X connect 80 3 79 4;
#X connect 81 0 87 0;
#X connect 82 0 84 1;
#X connect 82 0 91 1;
#X connect 83 0 82 1;
#X connect 83 1 82 2;
#X connect 84 0 77 1;
#X connect 85 0 86 0;
#X connect 86 0 79 0;
#X connect 87 0 83 0;
#X connect 88 0 80 0;
#X connect 89 0 85 0;
#X connect 91 0 92 0;
#X connect 92 0 64 0;
#X connect 93 0 67 0;
#X connect 94 0 89 0;
#X connect 95 0 21 0;
#X connect 95 0 50 0;
#X connect 97 0 75 0;
