#N canvas 0 0 1304 1050 12;
#X obj 157 673 outlet~;
#X obj 772 -10 hsl 95 19 0 127 0 0 \$0-s-time-1 \$0-r-time-1 TIME-1 23 -8 0 14 #000000 #fcfcfc #000000 0 1;
#X obj 772 34 hsl 95 19 0 127 0 0 \$0-s-feedback \$0-r-feedback FEEDBACK 16 -7 0 14 #000000 #fcfcfc #000000 0 1;
#X obj 65 262 inlet~;
#X obj 227 -32 / 127;
#X msg 227 10 2 \$1;
#X obj 227 31 pow;
#X obj 227 52 * 1.45125;
#X obj 227 94 line~;
#X msg 227 73 \$1 23.22;
#X obj 227 -54 r \$0-s-time-1;
#X obj 227 -11 * 12;
#X obj 369 541 delwrite~ \$0-mod-delay-1 5944;
#X obj 269 210 loadbang;
#X obj 251 278 compressor~;
#X obj 269 252 unpack f f f f;
#X obj 276 299 loadbang;
#X obj 251 362 expander~;
#X obj 276 341 unpack f f;
#X obj 418 157 r \$0-s-feedback;
#X obj 418 178 / 127;
#X obj 418 199 t f f;
#X obj 418 220 * 2;
#X msg 418 241 2 \$1;
#X obj 418 262 pow;
#X obj 418 283 *;
#X msg 418 304 \$1 23.22;
#X obj 418 325 line~;
#X obj 227 177 hip~ 1;
#X obj 227 115 +~;
#X obj 639 224 loadbang;
#X obj 621 292 compressor~;
#X obj 639 266 unpack f f f f;
#X obj 646 313 loadbang;
#X obj 621 376 expander~;
#X obj 646 355 unpack f f;
#X obj 603 396 *~;
#X obj 368 583 delwrite~ \$0-mod-delay-2 5944;
#X msg 276 319 -60 5;
#X msg 646 333 -60 5;
#X msg 639 245 2.5 2.5 -12 5;
#X obj 227 157 delread4~ \$0-mod-delay-1;
#X obj 621 161 delread4~ \$0-mod-delay-2;
#X obj 236 480 vstplugin~;
#X obj 888 223 loadbang;
#X obj 870 291 compressor~;
#X obj 888 265 unpack f f f f;
#X obj 895 312 loadbang;
#X obj 870 375 expander~;
#X obj 895 354 unpack f f;
#X obj 855 396 *~;
#X obj 870 181 hip~ 1;
#X msg 895 332 -60 5;
#X msg 888 244 2.5 2.5 -12 5;
#X obj 870 160 delread4~ \$0-mod-delay-3;
#X obj 367 623 delwrite~ \$0-mod-delay-3 5944;
#X obj 621 113 *~ 1.6;
#X obj 870 137 *~ 3.2;
#X obj 6 415 loadbang;
#X obj 368 603 *~;
#X obj 398 604 tgl 15 0 empty empty empty 0 -8 0 12 #fcfcfc #000000 #000000 0 1;
#X obj 368 562 *~;
#X obj 396 562 tgl 15 0 empty empty empty 0 -8 0 12 #fcfcfc #000000 #000000 0 1;
#X obj 251 389 *~;
#X msg 269 231 2.5 2.5 -12 5;
#X obj 369 519 *~;
#X obj 403 520 tgl 15 0 empty empty empty 0 -8 0 12 #fcfcfc #000000 #000000 0 1;
#X msg 6 438 open -p -e CHOWTapeModel.vst3;
#X obj 201 748 route latency;
#X floatatom 201 768 5 0 0 0 - - - 0;
#X obj 201 822 sampstoms~;
#X obj 201 803 +;
#X obj 268 850 outlet;
#X floatatom 316 850 5 0 0 0 - - - 0;
#X text 431 512 tape heads on/off;
#X msg 179 480 vis 0;
#X connect 3 0 43 0;
#X connect 4 0 11 0;
#X connect 5 0 6 0;
#X connect 6 0 7 0;
#X connect 7 0 9 0;
#X connect 8 0 29 0;
#X connect 9 0 8 0;
#X connect 10 0 4 0;
#X connect 11 0 5 0;
#X connect 13 0 64 0;
#X connect 14 0 17 0;
#X connect 15 0 14 1;
#X connect 15 1 14 2;
#X connect 15 2 14 3;
#X connect 15 3 14 4;
#X connect 16 0 38 0;
#X connect 17 0 63 0;
#X connect 18 0 17 1;
#X connect 18 1 17 2;
#X connect 19 0 20 0;
#X connect 20 0 21 0;
#X connect 21 0 22 0;
#X connect 21 1 25 1;
#X connect 22 0 23 0;
#X connect 23 0 24 0;
#X connect 24 0 25 0;
#X connect 25 0 26 0;
#X connect 26 0 27 0;
#X connect 27 0 36 0;
#X connect 27 0 50 0;
#X connect 27 0 63 1;
#X connect 28 0 14 0;
#X connect 29 0 56 0;
#X connect 29 0 57 0;
#X connect 29 0 41 0;
#X connect 30 0 40 0;
#X connect 31 0 34 0;
#X connect 32 0 31 1;
#X connect 32 1 31 2;
#X connect 32 2 31 3;
#X connect 32 3 31 4;
#X connect 33 0 39 0;
#X connect 34 0 36 1;
#X connect 35 0 34 1;
#X connect 35 1 34 2;
#X connect 36 0 43 1;
#X connect 38 0 18 0;
#X connect 39 0 35 0;
#X connect 40 0 32 0;
#X connect 41 0 28 0;
#X connect 42 0 31 0;
#X connect 43 0 65 0;
#X connect 43 0 61 0;
#X connect 43 0 59 0;
#X connect 43 1 0 0;
#X connect 43 1 12 0;
#X connect 43 1 37 0;
#X connect 43 1 55 0;
#X connect 43 2 68 0;
#X connect 44 0 53 0;
#X connect 45 0 48 0;
#X connect 46 0 45 1;
#X connect 46 1 45 2;
#X connect 46 2 45 3;
#X connect 46 3 45 4;
#X connect 47 0 52 0;
#X connect 48 0 50 1;
#X connect 49 0 48 1;
#X connect 49 1 48 2;
#X connect 50 0 43 1;
#X connect 51 0 45 0;
#X connect 52 0 49 0;
#X connect 53 0 46 0;
#X connect 54 0 51 0;
#X connect 56 0 42 0;
#X connect 57 0 54 0;
#X connect 58 0 67 0;
#X connect 59 0 55 0;
#X connect 60 0 59 1;
#X connect 61 0 37 0;
#X connect 62 0 61 1;
#X connect 63 0 43 1;
#X connect 64 0 15 0;
#X connect 65 0 12 0;
#X connect 66 0 65 1;
#X connect 67 0 43 0;
#X connect 68 0 69 0;
#X connect 69 0 71 0;
#X connect 70 1 73 0;
#X connect 70 1 72 0;
#X connect 71 0 70 0;
#X connect 75 0 43 0;
