#N canvas 0 45 958 1033 12;
#X obj 421 20 cnv 15 100 60 empty empty empty 20 12 0 14 -233017 -66577
0;
#X text 107 124 azimut;
#X obj 185 124 hsl 128 15 0 360 0 0 empty empty empty -2 -8 0 10 -262144
-1 -1 0 1;
#X floatatom 323 123 5 0 0 0 - - -;
#X obj 185 144 hsl 128 15 -30 30 0 0 empty empty empty -2 -8 0 10 -262144
-1 -1 0 1;
#X floatatom 323 143 5 0 0 0 - - -;
#X obj 185 163 hsl 128 15 0 100 0 0 empty empty empty -2 -8 0 10 -262144
-1 -1 0 1;
#X floatatom 323 162 5 0 0 0 - - -;
#X obj 185 183 hsl 128 15 0 1 0 0 empty empty empty -2 -8 0 10 -262144
-1 -1 0 1;
#X floatatom 323 182 5 0 0 0 - - -;
#X text 107 144 elevation;
#X text 107 163 spread;
#X text 107 183 volume;
#X obj -585 447 inlet~;
#X obj -584 536 pan9~ \$1, f 20;
#X obj 589 921 outlet~;
#X obj 646 921 outlet~;
#X obj 703 921 outlet~;
#X obj 760 921 outlet~;
#X obj 817 921 outlet~;
#X obj 874 921 outlet~;
#X obj 931 921 outlet~;
#X obj 988 921 outlet~;
#X obj 1045 921 outlet~;
#X text 387 125 azimut;
#X obj 465 125 hsl 128 15 0 360 0 0 empty empty empty -2 -8 0 10 -262144
-1 -1 0 1;
#X floatatom 603 124 5 0 0 0 - - -;
#X obj 465 145 hsl 128 15 -30 30 0 0 empty empty empty -2 -8 0 10 -262144
-1 -1 0 1;
#X floatatom 603 144 5 0 0 0 - - -;
#X obj 465 164 hsl 128 15 0 100 0 0 empty empty empty -2 -8 0 10 -262144
-1 -1 0 1;
#X floatatom 603 163 5 0 0 0 - - -;
#X obj 465 184 hsl 128 15 0 1 0 0 empty empty empty -2 -8 0 10 -262144
-1 -1 0 1;
#X floatatom 603 183 5 0 0 0 - - -;
#X text 387 145 elevation;
#X text 387 164 spread;
#X text 387 184 volume;
#X text 107 225 azimut;
#X obj 185 225 hsl 128 15 0 360 0 0 empty empty empty -2 -8 0 10 -262144
-1 -1 0 1;
#X floatatom 323 224 5 0 0 0 - - -;
#X obj 185 245 hsl 128 15 -30 30 0 0 empty empty empty -2 -8 0 10 -262144
-1 -1 0 1;
#X floatatom 323 244 5 0 0 0 - - -;
#X obj 185 264 hsl 128 15 0 100 0 0 empty empty empty -2 -8 0 10 -262144
-1 -1 0 1;
#X floatatom 323 263 5 0 0 0 - - -;
#X obj 185 284 hsl 128 15 0 1 0 0 empty empty empty -2 -8 0 10 -262144
-1 -1 0 1;
#X floatatom 323 283 5 0 0 0 - - -;
#X text 107 245 elevation;
#X text 107 264 spread;
#X text 107 284 volume;
#X text 387 226 azimut;
#X obj 465 226 hsl 128 15 0 360 0 0 empty empty empty -2 -8 0 10 -262144
-1 -1 0 1;
#X floatatom 603 225 5 0 0 0 - - -;
#X obj 465 246 hsl 128 15 -30 30 0 0 empty empty empty -2 -8 0 10 -262144
-1 -1 0 1;
#X floatatom 603 245 5 0 0 0 - - -;
#X obj 465 265 hsl 128 15 0 100 0 0 empty empty empty -2 -8 0 10 -262144
-1 -1 0 1;
#X floatatom 603 264 5 0 0 0 - - -;
#X obj 465 285 hsl 128 15 0 1 0 0 empty empty empty -2 -8 0 10 -262144
-1 -1 0 1;
#X floatatom 603 284 5 0 0 0 - - -;
#X text 387 246 elevation;
#X text 387 265 spread;
#X text 387 285 volume;
#X obj -310 537 pan9~ \$2, f 34;
#X obj -38 537 pan9~ \$3, f 34;
#X obj 235 537 pan9~ \$4, f 34;
#X obj -310 438 inlet~;
#X obj -39 434 inlet~;
#X obj 235 429 inlet~;
#X text 682 127 azimut;
#X obj 760 127 hsl 128 15 0 360 0 0 empty empty empty -2 -8 0 10 -262144
-1 -1 0 1;
#X floatatom 898 126 5 0 0 0 - - -;
#X obj 760 147 hsl 128 15 -30 30 0 0 empty empty empty -2 -8 0 10 -262144
-1 -1 0 1;
#X floatatom 898 146 5 0 0 0 - - -;
#X obj 760 166 hsl 128 15 0 100 0 0 empty empty empty -2 -8 0 10 -262144
-1 -1 0 1;
#X floatatom 898 165 5 0 0 0 - - -;
#X obj 760 186 hsl 128 15 0 1 0 0 empty empty empty -2 -8 0 10 -262144
-1 -1 0 1;
#X floatatom 898 185 5 0 0 0 - - -;
#X text 682 147 elevation;
#X text 682 166 spread;
#X text 682 186 volume;
#X text 962 128 azimut;
#X obj 1040 128 hsl 128 15 0 360 0 0 empty empty empty -2 -8 0 10 -262144
-1 -1 0 1;
#X floatatom 1178 127 5 0 0 0 - - -;
#X obj 1040 148 hsl 128 15 -30 30 0 0 empty empty empty -2 -8 0 10
-262144 -1 -1 0 1;
#X floatatom 1178 147 5 0 0 0 - - -;
#X obj 1040 167 hsl 128 15 0 100 0 0 empty empty empty -2 -8 0 10 -262144
-1 -1 0 1;
#X floatatom 1178 166 5 0 0 0 - - -;
#X obj 1040 187 hsl 128 15 0 1 0 0 empty empty empty -2 -8 0 10 -262144
-1 -1 0 1;
#X floatatom 1178 186 5 0 0 0 - - -;
#X text 962 148 elevation;
#X text 962 167 spread;
#X text 962 187 volume;
#X text 682 228 azimut;
#X obj 760 228 hsl 128 15 0 360 0 0 empty empty empty -2 -8 0 10 -262144
-1 -1 0 1;
#X floatatom 898 227 5 0 0 0 - - -;
#X obj 760 248 hsl 128 15 -30 30 0 0 empty empty empty -2 -8 0 10 -262144
-1 -1 0 1;
#X floatatom 898 247 5 0 0 0 - - -;
#X obj 760 267 hsl 128 15 0 100 0 0 empty empty empty -2 -8 0 10 -262144
-1 -1 0 1;
#X floatatom 898 266 5 0 0 0 - - -;
#X obj 760 287 hsl 128 15 0 1 0 0 empty empty empty -2 -8 0 10 -262144
-1 -1 0 1;
#X floatatom 898 286 5 0 0 0 - - -;
#X text 682 248 elevation;
#X text 682 267 spread;
#X text 682 287 volume;
#X text 962 229 azimut;
#X obj 1040 229 hsl 128 15 0 360 0 0 empty empty empty -2 -8 0 10 -262144
-1 -1 0 1;
#X floatatom 1178 228 5 0 0 0 - - -;
#X obj 1040 249 hsl 128 15 -30 30 0 0 empty empty empty -2 -8 0 10
-262144 -1 -1 0 1;
#X floatatom 1178 248 5 0 0 0 - - -;
#X obj 1040 268 hsl 128 15 0 100 0 0 empty empty empty -2 -8 0 10 -262144
-1 -1 0 1;
#X floatatom 1178 267 5 0 0 0 - - -;
#X obj 1040 288 hsl 128 15 0 1 0 0 empty empty empty -2 -8 0 10 -262144
-1 -1 0 1;
#X floatatom 1178 287 5 0 0 0 - - -;
#X text 962 249 elevation;
#X text 962 268 spread;
#X text 962 288 volume;
#X obj 121 404 inlet~;
#X obj 261 411 inlet~;
#X obj 414 418 inlet~;
#X obj 533 422 inlet~;
#X text 107 106 1;
#X text 387 107 2;
#X connect 2 0 3 0;
#X connect 3 0 14 1;
#X connect 4 0 5 0;
#X connect 5 0 14 2;
#X connect 6 0 7 0;
#X connect 7 0 14 3;
#X connect 8 0 9 0;
#X connect 9 0 14 4;
#X connect 13 0 14 0;
#X connect 14 0 15 0;
#X connect 14 1 16 0;
#X connect 14 2 17 0;
#X connect 14 3 18 0;
#X connect 14 4 19 0;
#X connect 14 5 20 0;
#X connect 14 6 21 0;
#X connect 14 7 22 0;
#X connect 14 8 23 0;
#X connect 25 0 26 0;
#X connect 26 0 61 1;
#X connect 27 0 28 0;
#X connect 28 0 61 2;
#X connect 29 0 30 0;
#X connect 30 0 61 3;
#X connect 31 0 32 0;
#X connect 32 0 61 4;
#X connect 37 0 38 0;
#X connect 38 0 60 1;
#X connect 39 0 40 0;
#X connect 40 0 60 2;
#X connect 41 0 42 0;
#X connect 42 0 60 3;
#X connect 43 0 44 0;
#X connect 44 0 60 4;
#X connect 49 0 50 0;
#X connect 50 0 62 1;
#X connect 51 0 52 0;
#X connect 52 0 62 2;
#X connect 53 0 54 0;
#X connect 54 0 62 3;
#X connect 55 0 56 0;
#X connect 56 0 62 4;
#X connect 60 0 15 0;
#X connect 60 1 16 0;
#X connect 60 2 17 0;
#X connect 60 3 18 0;
#X connect 60 4 19 0;
#X connect 60 5 20 0;
#X connect 60 6 21 0;
#X connect 60 7 22 0;
#X connect 60 8 23 0;
#X connect 63 0 60 0;
#X connect 64 0 61 0;
#X connect 65 0 62 0;
#X connect 67 0 68 0;
#X connect 69 0 70 0;
#X connect 71 0 72 0;
#X connect 73 0 74 0;
#X connect 79 0 80 0;
#X connect 81 0 82 0;
#X connect 83 0 84 0;
#X connect 85 0 86 0;
#X connect 91 0 92 0;
#X connect 93 0 94 0;
#X connect 95 0 96 0;
#X connect 97 0 98 0;
#X connect 103 0 104 0;
#X connect 105 0 106 0;
#X connect 107 0 108 0;
#X connect 109 0 110 0;
#X coords 0 -1 1 1 1200 240 1 100 100;
