#N canvas 10 55 1229 1013 12;
#X obj 69 115 bpan 1;
#X obj 419 413 correction~, f 57;
#X obj 420 110 apan_quad 1;
#X obj 1089 111 apan_quad 2;
#X obj 70 254 bpan2 1;
#X text 333 41 all in one;
#X connect 2 0 1 0;
#X connect 2 1 1 1;
#X connect 2 2 1 2;
#X connect 2 3 1 3;
#X connect 2 4 1 4;
#X connect 2 5 1 5;
#X connect 2 6 1 6;
#X connect 2 7 1 7;
#X connect 2 8 1 8;
#X connect 3 0 1 0;
#X connect 3 1 1 1;
#X connect 3 2 1 2;
#X connect 3 3 1 3;
#X connect 3 4 1 4;
#X connect 3 5 1 5;
#X connect 3 6 1 6;
#X connect 3 7 1 7;
#X connect 3 8 1 8;
