#N canvas 274 170 627 768 12;
#X obj 145 336 *~;
#X obj 145 360 dac~;
#X obj 343 270 hsl 162 19 0 127 0 0 empty empty empty -2 -10 0 12 #fcfcfc #000000 #000000 0 1;
#X obj 339 297 / 127;
#X floatatom 339 321 5 0 0 0 - - - 0;
#X obj 193 150 osc~ 440;
#X floatatom 144 191 5 0 0 0 - - - 0;
#X obj 144 230 +~;
#X obj 193 190 *~;
#X floatatom 260 151 5 0 0 0 - - - 0;
#X obj 144 270 osc~;
#X obj 197 99 * 7;
#X floatatom 201 68 5 0 0 0 - - - 0;
#X floatatom 197 123 5 0 0 0 - - - 0;
#X floatatom 251 72 5 0 0 0 - - - 0;
#X obj 145 302 cyclone/overdrive~ 20;
#X obj 53 148 cyclone/pink~;
#X obj 72 273 *~ 0.4;
#X obj 262 110 * 7.7;
#X connect 0 0 1 0;
#X connect 0 0 1 1;
#X connect 2 0 3 0;
#X connect 3 0 0 1;
#X connect 3 0 4 0;
#X connect 5 0 8 0;
#X connect 6 0 7 0;
#X connect 7 0 10 0;
#X connect 8 0 7 1;
#X connect 9 0 8 1;
#X connect 10 0 15 0;
#X connect 11 0 13 0;
#X connect 12 0 11 0;
#X connect 12 0 6 0;
#X connect 12 0 18 0;
#X connect 13 0 5 0;
#X connect 14 0 18 0;
#X connect 15 0 0 0;
#X connect 16 0 17 0;
#X connect 17 0 15 0;
#X connect 18 0 9 0;
