#N canvas 0 0 1920 1052 12;
#X obj 333 492 osc~ 44;
#X obj 396 517 expr~ $v1 > $v2;
#X obj 498 495 / 100;
#X obj 333 577 *~ 0.5;
#X obj 396 492 phasor~ 44;
#X floatatom 498 446 5 0 0 0 - - - 0;
#X floatatom 333 359 5 0 0 0 - - - 0;
#X msg 463 464 1;
#X obj 498 470 f 95;
#X obj 333 792 outlet~;
#X obj 333 328 inlet;
#X obj 333 610 *~, f 8;
#X obj 629 418 cyclone/snapshot~ 10;
#X obj 629 393 inlet~;
#X obj 333 670 overdrive~ 3.5;
#X obj 334 724 hip~ 60;
#X obj 332 641 svf~ 500 0;
#X obj 334 699 svf~ 200 0;
#X text 456 303 0 freq \; 1 gate \;;
#X connect 0 0 3 0;
#X connect 1 0 3 0;
#X connect 2 0 1 1;
#X connect 3 0 11 0;
#X connect 4 0 1 0;
#X connect 5 0 8 0;
#X connect 6 0 4 0;
#X connect 6 0 0 0;
#X connect 7 0 0 1;
#X connect 7 0 4 1;
#X connect 8 0 2 0;
#X connect 10 0 6 0;
#X connect 11 0 16 0;
#X connect 12 0 11 1;
#X connect 13 0 12 0;
#X connect 14 0 17 0;
#X connect 15 0 9 0;
#X connect 16 0 14 0;
#X connect 17 0 15 0;
