#N canvas 0 0 1920 1052 12;
#X obj 248 54 inlet;
#X obj 248 87 mtof;
#X obj 415 615 outlet~;
#X obj 816 107 bng 15 250 50 0 empty empty empty 17 7 0 10 #fcfcfc
#000000 #000000;
#X obj 416 378 +~;
#X obj 433 330 osc~;
#X obj 416 403 osc~;
#X obj 327 403 phasor~;
#X obj 468 403 noise~;
#X obj 327 428 lop~ 5000;
#X obj 415 588 overdrive~ 3;
#X obj 415 538 *~;
#X obj 468 428 *~ 0.05;
#X obj 248 380 * 1.01;
#X obj 248 404 phasor~;
#X obj 248 429 lop~ 5000;
#X obj 816 152 curve~;
#X obj 132 355 phasor~;
#X obj 132 380 expr~ $v1 > 0.5;
#X obj 132 405 lop~ 8000;
#X obj 373 143 random 3;
#X obj 373 168 sel 0 1 2;
#X obj 373 193 2;
#X obj 403 193 4;
#X obj 433 193 8;
#X obj 433 307 *;
#X obj 373 123 bng 15 250 50 0 empty empty empty 17 7 0 10 #fcfcfc
#000000 #000000;
#X floatatom 473 332 5 0 0 0 - - - 0;
#X msg 433 220 \$1;
#X obj 433 245 t b f, f 11;
#X floatatom 433 272 5 0 0 0 - - - 0;
#X obj 416 428 *~ 0.5;
#X obj 415 491 *~ 0.25;
#X obj 433 354 *~ 2000;
#X obj 132 330 * 0.5;
#X obj 132 430 *~ 0.2;
#X obj 415 563 *~ 1;
#X msg 816 126 1 1000 -0.5 0 3000 -0.5;
#X connect 0 0 1 0;
#X connect 1 0 3 0;
#X connect 1 0 4 0;
#X connect 1 0 7 0;
#X connect 1 0 13 0;
#X connect 1 0 26 0;
#X connect 1 0 30 0;
#X connect 1 0 34 0;
#X connect 3 0 37 0;
#X connect 4 0 6 0;
#X connect 5 0 33 0;
#X connect 6 0 31 0;
#X connect 7 0 9 0;
#X connect 8 0 12 0;
#X connect 9 0 32 0;
#X connect 10 0 2 0;
#X connect 11 0 36 0;
#X connect 12 0 32 0;
#X connect 13 0 14 0;
#X connect 14 0 15 0;
#X connect 15 0 32 0;
#X connect 16 0 11 1;
#X connect 17 0 18 0;
#X connect 18 0 19 0;
#X connect 19 0 35 0;
#X connect 20 0 21 0;
#X connect 21 0 22 0;
#X connect 21 1 23 0;
#X connect 21 2 24 0;
#X connect 22 0 28 0;
#X connect 23 0 28 0;
#X connect 24 0 28 0;
#X connect 25 0 5 0;
#X connect 25 0 27 0;
#X connect 26 0 20 0;
#X connect 28 0 29 0;
#X connect 29 0 30 0;
#X connect 29 1 25 1;
#X connect 30 0 25 0;
#X connect 31 0 32 0;
#X connect 32 0 11 0;
#X connect 33 0 4 1;
#X connect 34 0 17 0;
#X connect 35 0 32 0;
#X connect 36 0 10 0;
#X connect 37 0 16 0;
