#N canvas 0 28 1188 1050 12;
#X obj 155 170 +~;
#X obj 155 194 osc~;
#X obj 175 145 r~ fm;
#X text 80 196 carrier;
#X obj 156 110 +~;
#X floatatom 177 85 5 0 0 0 - - -;
#X obj 154 239 *~;
#X obj 217 194 r~ amVCA;
#X obj 223 84 loadmess 55;
#X obj 153 370 shaper~;
#X obj 610 109 s fm;
#X obj 673 109 s shaper;
#X obj 855 110 s index;
#X obj 484 158 r~ am;
#X obj 483 182 mux~ . .;
#X msg 545 158 1;
#X obj 483 206 s~ amVCA;
#X obj 545 108 - 1;
#X obj 545 133 abs;
#X text 545 49 AM, f 3;
#X obj 545 83 inlet;
#X obj 610 83 inlet;
#X obj 673 82 inlet;
#X obj 855 84 inlet;
#X text 612 49 FM;
#X text 672 49 waveshape;
#X text 853 50 amount;
#X obj 499 108 s am;
#X obj 760 82 inlet;
#X text 759 49 waveshape;
#X obj 760 109 s filter;
#X floatatom 1068 290 5 0 0 0 - - -;
#X obj 963 406 osc~;
#X obj 1303 238 tgl 15 0 empty empty empty 17 7 0 10 -262144 -1 -1
1 1;
#X obj 1303 356 metro;
#X obj 1303 380 random 1000;
#X obj 1303 404 / 1000;
#X obj 1303 452 line~;
#X obj 1340 331 random 200;
#X msg 1303 428 \$1 50;
#X floatatom 1362 404 5 0 0 0 - - -;
#X obj 650 704 s~ fm;
#X obj 963 490 mux~ . . . .;
#X obj 650 678 *~;
#X obj 650 629 *~;
#X text 852 491 cycle forms:;
#X text 609 677 FM:;
#X obj 1303 212 loadmess 1;
#X text 1300 191 noise:;
#X obj 1001 406 phasor~;
#X text 941 291 freq modulator;
#X obj 1068 406 expr~ $v1 > $v2;
#X floatatom 1185 360 5 0 0 0 - - -;
#X obj 1185 382 / 100;
#X obj 1068 381 phasor~;
#X text 1148 359 pwm;
#X obj 671 652 r fm;
#X obj 671 606 r index;
#X obj 57 767 r shaper;
#X obj 36 909 s od;
#X obj 36 791 *;
#X obj 84 811 r index;
#X obj 36 884 *;
#X obj 1068 263 inlet;
#X obj 859 406 inlet;
#X text 1020 155 waveforms: 0 = sine 1 = saw 2 = square 3 = noise;
#X obj 1185 305 inlet;
#X text 1184 279 2;
#X text 1065 230 1;
#X text 862 380 0;
#X obj 1051 939 s ws;
#X obj 1051 818 cyclone/snapshot~ 10;
#X obj 1051 916 *;
#X text 987 819 shaper:;
#X obj 1072 892 r shaper;
#X floatatom 84 859 5 0 0 0 - - -;
#X obj 36 623 + 1;
#X floatatom 36 647 5 0 0 0 - - -;
#X obj 36 670 / 2;
#X floatatom 36 694 5 0 0 0 - - -;
#X obj 84 835 / 100;
#X obj 36 741 line;
#X floatatom 160 780 5 0 0 0 - - -;
#X obj 36 595 cyclone/snapshot~ 697;
#X msg 36 718 \$1 20;
#X text 31 568 overdrive shaper (wip);
#X obj 245 598 +~ 1;
#X obj 245 622 *~ 0.5;
#X obj 781 842 s~ am;
#X obj 781 780 *~;
#X obj 835 666 r am;
#X obj 834 726 r index;
#X obj 246 653 *~;
#X obj 1139 723 s~ filter;
#X obj 1137 640 *~;
#X obj 1138 692 *~;
#X obj 1159 664 r filter;
#X obj 1158 611 r index;
#X obj 206 279 r ws;
#X obj 153 424 outlet~;
#X obj 253 53 inlet;
#X text 271 575 AM;
#X text 1066 660 Filter;
#X obj 780 696 *~;
#X floatatom 835 690 5 0 0 0 - - -;
#X obj 834 748 / 200;
#X obj 248 283 hsl 128 15 0 1 0 0 empty empty empty -2 -8 0 10 -262144
-1 -1 0 1;
#X floatatom 1051 842 5 0 0 0 - - -;
#X obj 206 315 +;
#X obj 206 339 clip 0 1;
#X text 31 532 MISC:;
#X obj 154 263 *~ 0.5;
#X obj 57 374 env~;
#X floatatom 57 398 5 0 0 0 - - -;
#X connect 0 0 1 0;
#X connect 1 0 6 0;
#X connect 2 0 0 1;
#X connect 4 0 0 0;
#X connect 5 0 4 1;
#X connect 6 0 111 0;
#X connect 7 0 6 1;
#X connect 8 0 5 0;
#X connect 9 0 99 0;
#X connect 13 0 14 0;
#X connect 14 0 16 0;
#X connect 15 0 14 1;
#X connect 17 0 18 0;
#X connect 18 0 15 0;
#X connect 18 0 14 0;
#X connect 20 0 17 0;
#X connect 20 0 27 0;
#X connect 21 0 10 0;
#X connect 22 0 11 0;
#X connect 23 0 12 0;
#X connect 28 0 30 0;
#X connect 31 0 32 0;
#X connect 31 0 38 1;
#X connect 31 0 49 0;
#X connect 31 0 54 0;
#X connect 32 0 42 0;
#X connect 33 0 34 0;
#X connect 34 0 35 0;
#X connect 34 0 38 0;
#X connect 35 0 36 0;
#X connect 36 0 39 0;
#X connect 37 0 42 3;
#X connect 38 0 34 1;
#X connect 39 0 37 0;
#X connect 40 0 36 1;
#X connect 42 0 44 0;
#X connect 42 0 94 0;
#X connect 42 0 71 0;
#X connect 42 0 103 0;
#X connect 43 0 41 0;
#X connect 44 0 43 0;
#X connect 47 0 33 0;
#X connect 49 0 42 1;
#X connect 51 0 42 2;
#X connect 52 0 53 0;
#X connect 53 0 51 1;
#X connect 54 0 51 0;
#X connect 56 0 43 1;
#X connect 57 0 44 1;
#X connect 58 0 60 1;
#X connect 60 0 62 0;
#X connect 61 0 80 0;
#X connect 62 0 59 0;
#X connect 63 0 31 0;
#X connect 64 0 42 0;
#X connect 66 0 52 0;
#X connect 71 0 72 0;
#X connect 71 0 107 0;
#X connect 72 0 70 0;
#X connect 74 0 72 1;
#X connect 76 0 77 0;
#X connect 77 0 78 0;
#X connect 78 0 79 0;
#X connect 79 0 84 0;
#X connect 80 0 62 1;
#X connect 80 0 75 0;
#X connect 81 0 60 0;
#X connect 82 0 60 0;
#X connect 83 0 76 0;
#X connect 84 0 81 0;
#X connect 86 0 87 0;
#X connect 87 0 92 0;
#X connect 89 0 88 0;
#X connect 90 0 103 1;
#X connect 90 0 104 0;
#X connect 91 0 105 0;
#X connect 94 0 95 0;
#X connect 95 0 93 0;
#X connect 96 0 95 1;
#X connect 97 0 94 1;
#X connect 98 0 108 0;
#X connect 100 0 5 0;
#X connect 103 0 89 0;
#X connect 105 0 89 1;
#X connect 106 0 108 1;
#X connect 108 0 109 0;
#X connect 109 0 9 1;
#X connect 111 0 9 0;
#X connect 112 0 113 0;
