#N canvas 0 28 900 1050 12;
#X obj 101 302 +~;
#X obj 101 326 osc~;
#X text 37 247 carrier;
#X obj 100 359 *~;
#X obj 654 47 inlet;
#X obj 516 47 inlet;
#X obj 585 47 inlet;
#X obj 447 47 inlet;
#X obj 313 47 inlet;
#X obj 248 47 inlet;
#X obj 378 47 inlet;
#X obj 99 422 outlet~;
#X obj 101 246 inlet;
#X obj 99 392 ../fx/shaper~;
#N canvas 0 28 900 1050 modulator 0;
#X obj 208 71 inlet;
#X obj 610 299 metro;
#X obj 610 323 random 1000;
#X obj 610 347 / 1000;
#X obj 610 395 line~;
#X obj 642 272 random 200;
#X msg 610 371 \$1 50;
#X obj 528 449 mux~ . . . .;
#X obj 528 474 outlet~;
#X obj 373 296 expr~ $v1 > $v2;
#X obj 475 272 / 100;
#X obj 373 271 phasor~;
#X obj 475 247 inlet;
#X obj 280 270 phasor~;
#X obj 208 270 osc~;
#X obj 139 270 inlet;
#X obj 610 248 loadmess 1;
#X connect 0 0 11 0;
#X connect 0 0 13 0;
#X connect 0 0 14 0;
#X connect 0 0 5 1;
#X connect 1 0 2 0;
#X connect 1 0 5 0;
#X connect 2 0 3 0;
#X connect 3 0 6 0;
#X connect 4 0 7 3;
#X connect 5 0 1 1;
#X connect 6 0 4 0;
#X connect 7 0 8 0;
#X connect 9 0 7 2;
#X connect 10 0 9 1;
#X connect 11 0 9 0;
#X connect 12 0 10 0;
#X connect 13 0 7 1;
#X connect 14 0 7 0;
#X connect 15 0 7 0;
#X connect 16 0 1 0;
#X restore 248 77 pd modulator;
#X f 19;
#N canvas 0 28 900 1050 modbus 0;
#X obj 186 244 inlet~;
#X obj 311 616 outlet;
#X obj 242 244 inlet;
#X obj 186 329 *~;
#X text 241 224 index;
#X obj 186 454 *~;
#X obj 185 616 outlet~;
#X obj 291 244 inlet;
#X obj 340 244 inlet;
#X obj 389 244 inlet;
#X obj 249 616 outlet~;
#X text 290 224 fm;
#X text 337 224 am;
#X text 387 224 shaper;
#X obj 438 244 inlet;
#X text 444 224 shaper-index;
#N canvas 0 28 900 1050 am 0;
#X obj 125 99 inlet~;
#X obj 191 99 inlet;
#X obj 126 148 *~;
#X obj 127 174 /~ 200;
#X obj 128 247 mux~ . .;
#X msg 191 197 1;
#X obj 191 147 - 1;
#X obj 191 172 abs;
#X obj 127 293 outlet~;
#X connect 0 0 2 0;
#X connect 1 0 6 0;
#X connect 1 0 2 1;
#X connect 2 0 3 0;
#X connect 3 0 4 0;
#X connect 4 0 8 0;
#X connect 5 0 4 1;
#X connect 6 0 7 0;
#X connect 7 0 5 0;
#X connect 7 0 4 0;
#X restore 250 454 pd am;
#N canvas 0 28 900 1050 shaper 0;
#X obj 313 428 inlet~;
#X obj 381 428 inlet;
#X obj 509 428 inlet;
#X obj 313 536 cyclone/snapshot~ 1;
#X obj 509 456 t b f;
#X obj 313 677 +;
#X obj 313 732 outlet;
#X obj 313 708 clip 0 1;
#X obj 314 453 /~ 400;
#X obj 313 585 *;
#X obj 313 561 scale -1 1 0 1;
#X connect 0 0 8 0;
#X connect 1 0 9 1;
#X connect 2 0 4 0;
#X connect 3 0 10 0;
#X connect 4 0 3 0;
#X connect 4 1 5 1;
#X connect 5 0 7 0;
#X connect 7 0 6 0;
#X connect 8 0 3 0;
#X connect 9 0 5 0;
#X connect 10 0 9 0;
#X restore 311 453 pd shaper;
#X connect 0 0 3 0;
#X connect 2 0 3 1;
#X connect 3 0 5 0;
#X connect 3 0 16 0;
#X connect 3 0 17 0;
#X connect 5 0 6 0;
#X connect 7 0 5 1;
#X connect 8 0 16 1;
#X connect 9 0 17 1;
#X connect 14 0 17 2;
#X connect 16 0 10 0;
#X connect 17 0 1 0;
#X restore 248 214 pd modbus;
#X f 10;
#X obj 101 273 f 55;
#X text 235 27 waveform;
#X text 320 27 freq;
#X text 392 27 pwm;
#X text 447 28 index;
#X obj 723 47 inlet;
#X text 515 27 FM AM Shape;
#X text 722 28 shape-index;
#X connect 0 0 1 0;
#X connect 1 0 3 0;
#X connect 3 0 13 0;
#X connect 4 0 15 4;
#X connect 5 0 15 2;
#X connect 6 0 15 3;
#X connect 7 0 15 1;
#X connect 8 0 14 1;
#X connect 9 0 14 0;
#X connect 10 0 14 2;
#X connect 12 0 16 0;
#X connect 13 0 11 0;
#X connect 14 0 15 0;
#X connect 15 0 0 1;
#X connect 15 1 3 1;
#X connect 15 2 13 1;
#X connect 16 0 0 0;
#X connect 21 0 15 5;
