#N canvas 0 28 1918 801 12;
#X msg 377 51 read -resize junopad.wav array1;
#X obj 377 74 soundfiler;
#X floatatom 377 97 5 0 0 0 - - -;
#X obj 377 119 expr 44100 / $f1;
#X obj 377 142 phasor~;
#X obj 377 165 *~;
#X obj 377 240 tabread4~ array1;
#X obj 377 187 samphold~;
#X obj 377 215 +~;
#X floatatom 206 128 5 0 0 0 - - -;
#X obj 206 149 phasor~;
#X obj 206 197 *~;
#X floatatom 240 171 5 0 0 0 - - -;
#X obj 377 303 dac~;
#N canvas 0 50 450 250 (subpatch) 0;
#X array array1 171037 float 2;
#X coords 0 1 171037 -1 200 140 1;
#X restore 500 142 graph;
#X obj 206 60 tgl 15 0 empty empty empty 17 7 0 10 -262144 -1 -1 0
1;
#X obj 207 81 metro;
#X obj 206 106 random 100;
#X obj 266 143 random 2048;
#X msg 284 170 0;
#X obj 377 269 *~ 0.1;
#X connect 0 0 1 0;
#X connect 1 0 2 0;
#X connect 2 0 3 0;
#X connect 3 0 4 0;
#X connect 4 0 5 0;
#X connect 5 0 7 0;
#X connect 6 0 20 0;
#X connect 7 0 8 0;
#X connect 8 0 6 0;
#X connect 9 0 10 0;
#X connect 10 0 11 0;
#X connect 11 0 8 0;
#X connect 12 0 11 1;
#X connect 15 0 16 0;
#X connect 16 0 17 0;
#X connect 16 0 18 0;
#X connect 17 0 9 0;
#X connect 17 0 16 1;
#X connect 18 0 12 0;
#X connect 19 0 11 1;
#X connect 20 0 13 0;
#X connect 20 0 13 1;
