#N canvas 0 0 958 1050 12;
#X obj 421 394 vcf~, f 21;
#X obj 493 339 inlet;
#X obj 565 364 inlet;
#X obj 422 580 outlet~;
#X obj 493 364 sig~;
#X obj 299 251 inlet;
#X obj 299 359 line~;
#X text 233 333 Amp Env;
#X msg 299 333 1 \, 0 \$2;
#X obj 352 250 inlet;
#X obj 421 472 *~;
#X obj 421 522 hip~ 8000;
#X obj 422 552 hip~ 8000;
#X obj 422 264 +~;
#X floatatom 422 188 5 0 0 0 - - - 0;
#X obj 513 174 *~;
#X floatatom 576 99 5 0 0 0 - - - 0;
#X obj 422 295 phasor~;
#X obj 513 99 phasor~;
#X floatatom 513 70 5 0 0 0 - - - 0;
#X obj 533 214 noise~;
#X obj 533 239 *~ 0.4;
#X obj 421 497 degrade~;
#X obj 614 364 inlet;
#X obj 664 364 inlet;
#X text 220 78 0 trig \; 1 decay \; 2 cutoff \; 3 q \;;
#X obj 299 281 pack s f;
#X connect 0 0 10 0;
#X connect 1 0 4 0;
#X connect 2 0 0 2;
#X connect 4 0 0 1;
#X connect 5 0 26 0;
#X connect 6 0 10 1;
#X connect 8 0 6 0;
#X connect 9 0 26 1;
#X connect 10 0 22 0;
#X connect 11 0 12 0;
#X connect 12 0 3 0;
#X connect 13 0 17 0;
#X connect 14 0 13 0;
#X connect 15 0 13 1;
#X connect 16 0 15 1;
#X connect 17 0 0 0;
#X connect 18 0 15 0;
#X connect 19 0 18 0;
#X connect 20 0 21 0;
#X connect 21 0 0 0;
#X connect 22 0 11 0;
#X connect 23 0 22 1;
#X connect 24 0 22 2;
#X connect 26 0 8 0;
