#N canvas 0 28 1920 1052 12;
#X obj 260 147 noise~;
#X obj 260 200 vcf~, f 21;
#X obj 332 132 inlet;
#X obj 404 172 inlet;
#X obj 260 370 outlet~;
#X obj 332 157 sig~;
#X obj 178 141 inlet;
#X obj 178 275 line~;
#X text 200 224 Amp Env;
#X obj 178 197 pack b f;
#X msg 178 249 1 \, 0 \$2;
#X obj 231 118 inlet;
#X obj 260 328 *~;
#X connect 0 0 1 0;
#X connect 1 0 12 0;
#X connect 2 0 5 0;
#X connect 3 0 1 2;
#X connect 5 0 1 1;
#X connect 6 0 9 0;
#X connect 7 0 12 1;
#X connect 9 0 10 0;
#X connect 10 0 7 0;
#X connect 11 0 9 1;
#X connect 12 0 4 0;
