#N canvas 0 0 1920 1052 12;
#X obj 75 188 pack f f f;
#X obj 255 404 dac~;
#X obj 75 56 bng 15 250 50 0 empty empty empty 0 -8 0 12 #202020 #00ff04 #000000;
#X msg 150 83 57;
#X msg 110 84 53;
#X msg 75 83 50;
#X obj 75 116 makenote 55 100;
#X floatatom 238 46 5 0 0 0 - - - 0;
#X obj 75 35 metro 2000;
#X obj 75 15 tgl 15 0 empty empty empty 0 -8 0 12 #202020 #00ff04 #000000 0 1;
#X obj 75 164 poly 5 1;
#X floatatom 364 118 5 0 0 0 - - - 0;
#X obj 255 370 *~ 0.25;
#X msg 489 139 all \$1;
#X msg 422 138 all \$1;
#X floatatom 423 116 5 0 0 0 - - - 0;
#X floatatom 489 120 5 0 0 0 - - - 0;
#X msg 570 123 all \$1;
#X floatatom 567 101 5 0 0 0 - - - 0;
#X obj 256 332 clone -x -s 1 juju~ 5;
#X msg 186 85 60;
#X obj 290 45 hsl 128 15 0 0.9 0 0 empty empty empty -2 -8 0 12 #202020 #00ff04 #000000 0 1;
#X obj 655 22 bng 15 250 50 0 empty empty empty 0 -8 0 12 #404040 #00ff04 #000000;
#X obj 542 263 sig~;
#X floatatom 542 246 5 0 0 0 - - - 0;
#X obj 599 262 sig~;
#X floatatom 599 243 5 0 0 0 - - - 0;
#X obj 599 225 tgl 15 0 empty empty empty 0 -8 0 12 #404040 #00ff04 #000000 0 1;
#X obj 542 224 tgl 15 0 empty empty empty 0 -8 0 12 #202020 #00ff04 #000000 0 1;
#X obj 655 261 sig~;
#X floatatom 655 242 5 0 0 0 - - - 0;
#X obj 655 223 tgl 15 0 empty empty empty 0 -8 0 12 #404040 #00ff04 #000000 0 1;
#X text 564 85 fliter env;
#X text 231 13 cutoff;
#X text 290 13 q;
#X text 415 92 attack;
#X text 490 103 decay;
#X text 511 23 filter env;
#X text 530 202 saw;
#X text 587 205 pulse;
#X text 648 205 sub;
#X connect 0 0 19 0;
#X connect 2 0 5 0;
#X connect 2 0 4 0;
#X connect 2 0 3 0;
#X connect 2 0 20 0;
#X connect 3 0 6 0;
#X connect 4 0 6 0;
#X connect 5 0 6 0;
#X connect 6 0 10 0;
#X connect 6 1 10 1;
#X connect 7 0 19 1;
#X connect 8 0 2 0;
#X connect 9 0 8 0;
#X connect 10 0 0 0;
#X connect 10 1 0 1;
#X connect 10 2 0 2;
#X connect 11 0 19 2;
#X connect 12 0 1 0;
#X connect 12 0 1 1;
#X connect 13 0 19 4;
#X connect 14 0 19 3;
#X connect 15 0 14 0;
#X connect 16 0 13 0;
#X connect 17 0 19 5;
#X connect 18 0 17 0;
#X connect 19 0 12 0;
#X connect 20 0 6 0;
#X connect 21 0 11 0;
#X connect 22 0 7 0;
#X connect 22 0 21 0;
#X connect 22 0 15 0;
#X connect 22 0 16 0;
#X connect 22 0 18 0;
#X connect 23 0 19 6;
#X connect 24 0 23 0;
#X connect 25 0 19 7;
#X connect 26 0 25 0;
#X connect 27 0 26 0;
#X connect 28 0 24 0;
#X connect 29 0 19 8;
#X connect 30 0 29 0;
#X connect 31 0 30 0;
