#N canvas 0 0 1920 1050 12;
#X obj 798 417 *~;
#X obj 797 370 svf~ 500 0.2;
#X obj 1370 323 delread4~ dl 4000;
#X obj 1052 414 delwrite~ dl 1000;
#X obj 956 114 tgl 15 0 empty empty empty 17 7 0 10 #fcfcfc #000000 #000000 0 1;
#X obj 956 133 metro 3200;
#X msg 882 255 1;
#X obj 1122 326 svf~ 500 0.5;
#X obj 1221 256 random 400;
#X obj 1221 280 + 100;
#X floatatom 1244 329 5 0 0 0 - - - 0;
#X obj 1099 287 vline~;
#X obj 838 341 +~ 500;
#X obj 956 281 vline~;
#X text 976 236 pitch env;
#X text 1096 235 amp env;
#X text 1229 235 random freq;
#X text 1362 294 stereo delay;
#X text 796 232 source;
#X floatatom 1071 199 5 0 0 0 - - - 0;
#X obj 956 192 random 4000;
#X obj 956 216 + 500;
#X obj 1566 295 f 200;
#X obj 1566 272 loadbang;
#X obj 372 212 noise~;
#X obj 372 326 *~;
#X obj 430 277 vline~;
#X text 426 229 amp env;
#X obj 466 350 hsl 128 15 0 1 0 0 empty empty empty -2 -8 0 10 #fcfcfc #000000 #000000 0 1;
#X floatatom 590 237 5 0 0 0 - - - 0;
#X obj 590 261 delread4~ karp 200;
#X obj 371 374 delwrite~ karp 200;
#X text 382 177 karp;
#X text 632 234 dly;
#X text 461 330 feedback;
#X obj 590 287 svf~ 1500 0.2;
#X msg 956 256 \$1 0 \, 0 200 5;
#X text 971 174 filter random;
#X text 588 102 time mod;
#X obj 798 518 dac~;
#X obj 798 444 *~ 0.5;
#X obj 1370 376 *~ 0.2;
#X obj 1565 375 *~ 0.2;
#X obj 590 315 *~ 0.1;
#X obj 797 256 osc~ 49;
#X obj 797 280 overdrive~ 40;
#X floatatom 1021 97 5 0 0 0 - - - 0;
#X obj 409 347 *~ 0.98;
#X obj 591 128 random 20;
#X obj 593 175 * 0.1;
#X obj 1241 306 * 0.01;
#X msg 430 249 1 1 \, 0 5 5;
#X msg 1099 259 1 1 \, 0 100 5;
#X obj 1123 378 *~ 0.95;
#X obj 1566 320 delread4~ dl 3;
#X connect 0 0 7 0;
#X connect 0 0 40 0;
#X connect 1 0 0 0;
#X connect 2 0 41 0;
#X connect 4 0 5 0;
#X connect 5 0 6 0;
#X connect 5 0 8 0;
#X connect 5 0 52 0;
#X connect 5 0 20 0;
#X connect 5 0 51 0;
#X connect 5 0 48 0;
#X connect 6 0 44 1;
#X connect 7 1 3 0;
#X connect 8 0 9 0;
#X connect 9 0 7 1;
#X connect 9 0 50 0;
#X connect 10 0 2 0;
#X connect 11 0 0 1;
#X connect 12 0 1 1;
#X connect 13 0 12 0;
#X connect 20 0 21 0;
#X connect 21 0 36 0;
#X connect 21 0 19 0;
#X connect 22 0 54 0;
#X connect 23 0 22 0;
#X connect 24 0 25 0;
#X connect 25 0 31 0;
#X connect 26 0 25 1;
#X connect 28 0 47 1;
#X connect 29 0 30 0;
#X connect 30 0 35 0;
#X connect 30 0 47 0;
#X connect 35 0 43 0;
#X connect 36 0 13 0;
#X connect 40 0 39 0;
#X connect 40 0 39 1;
#X connect 41 0 39 0;
#X connect 41 0 53 0;
#X connect 42 0 39 1;
#X connect 42 0 53 0;
#X connect 43 0 3 0;
#X connect 43 0 39 1;
#X connect 43 0 39 0;
#X connect 44 0 45 0;
#X connect 45 0 1 0;
#X connect 46 0 5 1;
#X connect 47 0 31 0;
#X connect 48 0 49 0;
#X connect 49 0 29 0;
#X connect 50 0 10 0;
#X connect 51 0 26 0;
#X connect 52 0 11 0;
#X connect 53 0 3 0;
#X connect 54 0 42 0;
