#N canvas 0 0 1477 1050 12;
#X obj 523 485 line~;
#X obj 504 565 *~;
#X text 545 434 Amp Env;
#X obj 620 612 hsl 128 15 1 25 0 0 empty empty empty -2 -8 0 10 #fcfcfc
#000000 #000000 0 1;
#X obj 587 552 hsl 128 15 1 100 0 0 empty empty empty -2 -8 0 10 #fcfcfc
#000000 #000000 0 1;
#X text 727 551 1 - 100;
#X obj 182 408 phasor~;
#X obj 182 437 cos~;
#X msg 235 385 1, f 4;
#X obj 503 626 clip~ -1 1;
#X text 410 601 distortion;
#X obj 504 600 *~ 8;
#X obj 503 653 overdrive~ 1;
#X text 759 613 1 - 25;
#X obj 181 331 line~;
#X text 269 271 Pitch Env;
#X obj 182 363 +~;
#X text 241 410 Phase Synced;
#X obj 151 210 bng 15 250 50 0 empty empty empty 17 7 0 10 #fcfcfc
#000000 #000000;
#X obj 200 144 inlet;
#X obj 256 144 inlet;
#X obj 310 144 inlet;
#X obj 364 144 inlet;
#X obj 790 144 inlet;
#X obj 844 144 inlet;
#X msg 181 303 \$2 \, 0 \$3;
#X msg 523 459 1 \, 0 \$2;
#X obj 151 144 inlet;
#X obj 903 144 inlet;
#X obj 955 143 inlet;
#X obj 503 678 svf~ 5000 0;
#X obj 181 276 pack f f f;
#X obj 523 407 pack f f;
#X obj 503 728 outlet~;
#X obj 503 703 hip~ 20;
#X text 20 24 0 trig \; 1 base freq \; 2 decay \; 3 pitch amnt \; 4
pitch env decay \; 5 distoriton \; 6 overdrive, f 19;
#X connect 0 0 1 1;
#X connect 1 0 11 0;
#X connect 3 0 12 1;
#X connect 4 0 11 1;
#X connect 6 0 7 0;
#X connect 7 0 1 0;
#X connect 8 0 6 1;
#X connect 9 0 12 0;
#X connect 11 0 9 0;
#X connect 12 0 30 0;
#X connect 14 0 16 0;
#X connect 16 0 6 0;
#X connect 18 0 8 0;
#X connect 18 0 31 0;
#X connect 18 0 32 0;
#X connect 19 0 16 1;
#X connect 20 0 32 1;
#X connect 21 0 31 1;
#X connect 22 0 31 2;
#X connect 23 0 4 0;
#X connect 24 0 3 0;
#X connect 25 0 14 0;
#X connect 26 0 0 0;
#X connect 27 0 18 0;
#X connect 28 0 30 1;
#X connect 29 0 30 2;
#X connect 30 0 34 0;
#X connect 31 0 25 0;
#X connect 32 0 26 0;
#X connect 34 0 33 0;
