#N canvas 0 45 1920 1035 12;
#X obj 300 216 osc~;
#X obj 318 117 osc~;
#X obj 300 190 +~;
#X obj 318 147 *~;
#X floatatom 318 90 5 0 0 0 - - -;
#X floatatom 356 148 5 0 0 0 - - -;
#X obj 300 329 *~;
#X obj 477 292 vline~;
#X obj 476 176 tgl 15 0 empty empty empty 17 7 0 10 -262144 -1 -1 1
1;
#X obj 476 197 metro 200;
#X obj 476 224 random 8;
#X obj 545 197 * 100;
#X obj 122 245 noise~;
#X obj 122 289 *~;
#X obj 143 269 hsl 128 15 0 1 0 0 empty empty empty -2 -8 0 10 -262144
-1 -1 500 1;
#X msg 477 264 1 0 \, 0 0 250;
#X obj 328 351 tgl 15 0 empty empty empty 17 7 0 10 -262144 -1 -1 1
1;
#X obj 300 373 dac~;
#X floatatom 590 271 5 0 0 0 - - -;
#X obj 681 249 vline~;
#X obj 645 311 +~;
#X msg 681 222 100 0 \, 0 0 20;
#X obj 318 60 loadmess 110;
#X obj 356 120 loadmess 50;
#X obj 590 249 loadmess 44;
#X obj 681 271 *~ 1;
#X text 473 156 start;
#X text 681 204 pitch env;
#X text 318 46 fm modulator;
#X text 244 217 carrier;
#X text 117 227 noise addon;
#X text 330 328 mix;
#X text 444 276 env;
#X obj 300 350 *~;
#X connect 0 0 6 0;
#X connect 1 0 3 0;
#X connect 2 0 0 0;
#X connect 3 0 2 1;
#X connect 4 0 1 0;
#X connect 5 0 3 1;
#X connect 6 0 33 0;
#X connect 7 0 6 1;
#X connect 8 0 9 0;
#X connect 9 0 10 0;
#X connect 9 0 15 0;
#X connect 10 0 11 0;
#X connect 10 0 21 0;
#X connect 11 0 9 1;
#X connect 12 0 13 0;
#X connect 13 0 6 0;
#X connect 14 0 13 1;
#X connect 15 0 7 0;
#X connect 16 0 33 1;
#X connect 18 0 20 0;
#X connect 19 0 25 0;
#X connect 20 0 2 0;
#X connect 21 0 19 0;
#X connect 22 0 4 0;
#X connect 23 0 5 0;
#X connect 24 0 18 0;
#X connect 25 0 20 1;
#X connect 33 0 17 0;
#X connect 33 0 17 1;
