#N canvas 0 0 958 1050 12;
#X obj 525 275 line~;
#X obj 504 565 *~;
#X text 547 224 Amp Env;
#X obj 620 612 hsl 128 15 1 25 0 0 empty empty empty -2 -8 0 10 #fcfcfc
#000000 #000000 0 1;
#X obj 587 552 hsl 128 15 1 100 0 0 empty empty empty -2 -8 0 10 #fcfcfc
#000000 #000000 0 1;
#X text 727 551 1 - 100;
#X obj 184 408 phasor~;
#X obj 184 437 cos~;
#X msg 237 385 1, f 4;
#X obj 503 626 clip~ -1 1;
#X text 234 436 Saw to Sine;
#X text 377 626 signal between;
#X text 410 601 distortion;
#X obj 504 600 *~ 8;
#X obj 503 653 overdrive~ 1;
#X text 759 613 1 - 25;
#X obj 181 331 line~;
#X text 269 271 Pitch Env;
#X obj 184 363 +~;
#X text 252 408 Phase Synced;
#X text 24 32 inputs:;
#X text 102 32 0 trig \, 1 base freq \, 2 decay \, 3 pitch amnt \,
4 pitch env decay, f 64;
#X text 102 52 5 distortion \, 6 overdrive, f 64;
#X obj 136 179 bng 15 250 50 0 empty empty empty 17 7 0 10 #fcfcfc
#000000 #000000;
#X obj 190 144 inlet;
#X obj 244 144 inlet;
#X obj 298 144 inlet;
#X obj 352 144 inlet;
#X obj 790 144 inlet;
#X obj 844 144 inlet;
#X msg 181 303 \$2 \, 0 \$3;
#X obj 525 197 pack b f;
#X msg 525 249 1 \, 0 \$2;
#X obj 181 276 pack b f f;
#X obj 503 703 outlet~;
#X obj 136 144 inlet;
#X obj 903 144 inlet;
#X obj 955 143 inlet;
#X obj 503 678 svf~ 5000 0;
#X connect 0 0 1 1;
#X connect 1 0 13 0;
#X connect 3 0 14 1;
#X connect 4 0 13 1;
#X connect 6 0 7 0;
#X connect 7 0 1 0;
#X connect 8 0 6 1;
#X connect 9 0 14 0;
#X connect 13 0 9 0;
#X connect 14 0 38 0;
#X connect 16 0 18 0;
#X connect 18 0 6 0;
#X connect 23 0 8 0;
#X connect 23 0 31 0;
#X connect 23 0 33 0;
#X connect 24 0 18 1;
#X connect 25 0 31 1;
#X connect 26 0 33 1;
#X connect 27 0 33 2;
#X connect 28 0 4 0;
#X connect 29 0 3 0;
#X connect 30 0 16 0;
#X connect 31 0 32 0;
#X connect 32 0 0 0;
#X connect 33 0 30 0;
#X connect 35 0 23 0;
#X connect 36 0 38 1;
#X connect 37 0 38 2;
#X connect 38 0 34 0;
