#N canvas 960 0 478 1050 12;
#X obj 427 31 inlet;
#X obj 427 64 mtof;
#X obj 389 615 outlet~;
#X obj 855 160 bng 15 250 50 0 empty empty empty 17 7 0 10 #fcfcfc
#000000 #000000;
#X obj 429 228 +~;
#X obj 484 181 osc~;
#X obj 429 283 osc~;
#X obj 604 171 osc~;
#X obj 605 141 * 16;
#X obj 485 151 * 2;
#X obj 484 205 *~ 2000;
#X obj 624 254 +~;
#X obj 624 309 osc~;
#X obj 604 195 *~ 1000;
#X obj 220 239 phasor~;
#X obj 134 386 noise~;
#X obj 678 176 osc~;
#X obj 698 259 +~;
#X obj 698 314 osc~;
#X obj 678 200 *~ 1000;
#X obj 747 174 osc~;
#X obj 767 257 +~;
#X obj 767 312 osc~;
#X obj 747 198 *~ 1000;
#X obj 679 146 * 8;
#X obj 748 144 * 4;
#X obj 415 332 *~ 0.2;
#X msg 873 281 1 1000 \, 0 0 1000;
#X obj 941 322 vline~;
#X obj 205 314 lop~ 5000;
#X obj 388 550 *~ 0.7;
#X obj 388 575 overdrive~ 3;
#X obj 483 294 osc~;
#X obj 485 260 * 0.25;
#X obj 542 314 osc~;
#X obj 544 280 * 0.5;
#X obj 415 518 *~;
#X obj 302 521 env~;
#X floatatom 302 546 5 0 0 0 - - - 0;
#X obj 483 319 *~ 0.1;
#X obj 137 405 *~ 0.05;
#X obj 542 339 *~ 0.2;
#X floatatom 342 250 5 0 0 0 - - - 0;
#X obj 342 225 * 1.01;
#X obj 327 296 phasor~;
#X obj 312 371 lop~ 5000;
#X obj 388 482 *~ 0.3;
#X msg 1011 282 1 0 \, 0 100 50;
#X connect 0 0 1 0;
#X connect 1 0 3 0;
#X connect 1 0 4 0;
#X connect 1 0 8 0;
#X connect 1 0 9 0;
#X connect 1 0 11 0;
#X connect 1 0 14 0;
#X connect 1 0 17 0;
#X connect 1 0 21 0;
#X connect 1 0 24 0;
#X connect 1 0 25 0;
#X connect 1 0 33 0;
#X connect 1 0 35 0;
#X connect 1 0 43 0;
#X connect 3 0 27 0;
#X connect 3 0 47 0;
#X connect 4 0 6 0;
#X connect 5 0 10 0;
#X connect 6 0 26 0;
#X connect 7 0 13 0;
#X connect 8 0 7 0;
#X connect 9 0 5 0;
#X connect 10 0 4 1;
#X connect 11 0 12 0;
#X connect 13 0 11 1;
#X connect 14 0 29 0;
#X connect 15 0 40 0;
#X connect 16 0 19 0;
#X connect 17 0 18 0;
#X connect 19 0 17 1;
#X connect 20 0 23 0;
#X connect 21 0 22 0;
#X connect 23 0 21 1;
#X connect 24 0 16 0;
#X connect 25 0 20 0;
#X connect 26 0 46 0;
#X connect 28 0 36 1;
#X connect 29 0 46 0;
#X connect 30 0 31 0;
#X connect 31 0 2 0;
#X connect 32 0 39 0;
#X connect 33 0 32 0;
#X connect 34 0 41 0;
#X connect 35 0 34 0;
#X connect 36 0 30 0;
#X connect 37 0 38 0;
#X connect 40 0 46 0;
#X connect 41 0 46 0;
#X connect 42 0 44 0;
#X connect 43 0 42 0;
#X connect 44 0 45 0;
#X connect 45 0 46 0;
#X connect 46 0 36 0;
#X connect 46 0 37 0;
#X connect 47 0 28 0;
