#N canvas -8 -8 1920 1007 12;
#X obj 688 72 tgl 20 0 empty empty empty 17 7 0 10 -262144 -1 -1 1
1;
#X obj 425 425 dac~;
#X obj 393 191 noise~;
#X obj 217 216 *~ 0.3;
#X floatatom 440 240 10 0 0 0 - - -;
#X floatatom 499 264 5 0 0 0 - - -;
#X obj 688 151 line~;
#X obj 425 316 overdrive~ 10;
#X obj 425 340 clip~ -1 1;
#X obj 425 390 *~;
#X obj 838 517 dac~;
#X obj 838 359 noise~;
#X obj 696 335 phasor~ 400;
#X obj 696 359 *~ 0.3;
#X floatatom 889 358 5 0 0 0 - - -;
#X floatatom 932 359 5 0 0 0 - - -;
#X obj 838 393 vcf~ 1, f 13;
#X obj 838 417 overdrive~ 10;
#X obj 838 441 clip~ -1 1;
#X obj 838 485 *~;
#X obj 771 359 osc~ 250;
#X obj 217 191 phasor~ 8000;
#X obj 393 214 *~ 0.2;
#X obj 1007 411 line~;
#X msg 1007 387 1 \, 0 50;
#X obj 688 100 metro 300;
#X obj 1007 360 del 600;
#X obj 1007 336 metro 1200;
#X obj 425 364 hip~ 7000;
#X obj 313 191 osc~ 14000;
#X obj 313 215 *~ 0.2;
#X text 710 310 clap;
#X text 274 152 hihat;
#X obj 393 288 svf~ 12000 0.4;
#X obj 889 331 1000;
#X obj 889 301 loadbang;
#X obj 932 332 6;
#X msg 688 124 1 \, 0 35;
#X connect 0 0 25 0;
#X connect 0 0 27 0;
#X connect 2 0 22 0;
#X connect 3 0 33 0;
#X connect 4 0 33 1;
#X connect 5 0 33 2;
#X connect 6 0 9 1;
#X connect 7 0 8 0;
#X connect 8 0 28 0;
#X connect 9 0 1 0;
#X connect 9 0 1 1;
#X connect 11 0 16 0;
#X connect 12 0 13 0;
#X connect 13 0 16 0;
#X connect 14 0 16 1;
#X connect 15 0 16 2;
#X connect 16 0 17 0;
#X connect 17 0 18 0;
#X connect 18 0 19 0;
#X connect 19 0 10 0;
#X connect 19 0 10 1;
#X connect 20 0 16 0;
#X connect 21 0 3 0;
#X connect 22 0 33 0;
#X connect 23 0 19 1;
#X connect 24 0 23 0;
#X connect 25 0 37 0;
#X connect 26 0 24 0;
#X connect 27 0 26 0;
#X connect 28 0 9 0;
#X connect 29 0 30 0;
#X connect 30 0 33 0;
#X connect 33 1 7 0;
#X connect 34 0 14 0;
#X connect 35 0 34 0;
#X connect 35 0 36 0;
#X connect 36 0 15 0;
#X connect 37 0 6 0;
