#N canvas 0 0 1920 1052 10;
#X obj 712 203 inlet;
#X obj 712 512 vcf~ 3;
#X obj 808 340 noise~;
#X obj 794 390 *~;
#X floatatom 761 226 5 0 0 1 Decay - - 0;
#X obj 896 426 +~ 100;
#X obj 895 399 *~ 8000;
#X obj 774 513 vcf~ 5;
#X obj 953 400 *~ 5000;
#X obj 952 424 +~ 200;
#X obj 761 203 inlet;
#X obj 711 634 outlet~;
#X obj 1125 180 inlet;
#X obj 1125 223 * 0.6;
#N canvas 381 209 450 300 vol_env 0;
#X obj 37 37 inlet;
#X obj 29 204 *~;
#X obj 29 225 outlet~;
#X obj 38 155 vline~;
#X msg 37 58 1 0.5 \, 0 \$1 0.5;
#X connect 0 0 4 0;
#X connect 1 0 2 0;
#X connect 3 0 1 0;
#X connect 3 0 1 1;
#X connect 4 0 3 0;
#X restore 712 302 pd vol_env;
#X obj 712 245 f 250;
#N canvas 381 209 450 300 cutoff_env 0;
#X obj 37 37 inlet;
#X obj 29 204 *~;
#X obj 29 225 outlet~;
#X obj 38 155 vline~;
#X msg 37 58 1 0.5 \, 0 \$1 0.5;
#X connect 0 0 4 0;
#X connect 1 0 2 0;
#X connect 3 0 1 0;
#X connect 3 0 1 1;
#X connect 4 0 3 0;
#X restore 896 338 pd cutoff_env;
#X obj 896 315 * 2;
#X text 1162 205 Noise;
#N canvas 0 0 1920 1052 FM_osc 0;
#X obj 67 166 osc~ 150;
#X obj 68 135 +~;
#X obj 300 68 osc~ 50;
#X obj 300 89 *~ 30;
#X obj 68 215 *~;
#X obj 183 178 *~;
#X obj 184 154 inlet~;
#X obj 68 236 outlet~;
#X obj 300 39 inlet;
#X obj 211 66 * 2;
#X obj 211 88 sig~;
#X connect 0 0 4 0;
#X connect 1 0 0 0;
#X connect 2 0 3 0;
#X connect 3 0 1 1;
#X connect 4 0 7 0;
#X connect 5 0 4 1;
#X connect 6 0 5 0;
#X connect 6 0 5 1;
#X connect 8 0 2 0;
#X connect 8 0 9 0;
#X connect 9 0 10 0;
#X connect 10 0 1 0;
#X restore 711 389 pd FM_osc;
#X obj 808 364 hip~ 100;
#X obj 712 224 bng 15 250 50 0 empty empty empty 17 7 0 10 #fcfcfc
#000000 #000000;
#X floatatom 1125 203 5 0 0 0 - - - 0;
#X floatatom 865 228 5 0 0 0 - - - 0;
#X obj 865 206 inlet;
#X obj 711 613 hip~ 120;
#X text 510 168 0 trig \; 1 decay \; 2 fm freq/amount \; 3 noise vol
\;;
#X connect 0 0 21 0;
#X connect 1 0 25 0;
#X connect 2 0 20 0;
#X connect 3 0 1 0;
#X connect 4 0 15 1;
#X connect 5 0 1 1;
#X connect 6 0 5 0;
#X connect 7 0 25 0;
#X connect 8 0 9 0;
#X connect 9 0 7 1;
#X connect 10 0 4 0;
#X connect 12 0 6 1;
#X connect 12 0 22 0;
#X connect 13 0 8 1;
#X connect 14 0 3 0;
#X connect 14 0 19 0;
#X connect 15 0 14 0;
#X connect 15 0 17 0;
#X connect 16 0 6 0;
#X connect 16 0 8 0;
#X connect 17 0 16 0;
#X connect 19 0 1 0;
#X connect 19 0 7 0;
#X connect 20 0 3 1;
#X connect 21 0 15 0;
#X connect 22 0 13 0;
#X connect 23 0 19 1;
#X connect 24 0 23 0;
#X connect 25 0 11 0;
