#N canvas 0 0 1920 1052 24;
#X obj 293 130 click~;
#X obj 293 104 bng 20 250 50 0 empty empty empty 0 -8 0 12 #00ff04 #000000 #000000;
#X obj 120 513 poly 5 1, f 10;
#X obj 120 544 pack f f f;
#X floatatom 391 135 5 0 0 0 - - - 0;
#X obj 219 41 ~/repositories/pdfiles/src/Projects/tidalRoute;
#X obj 120 483 + 72;
#X obj 255 484 * 127;
#X obj 619 130 click~;
#X obj 619 104 bng 20 250 50 0 empty empty empty 0 -8 0 12 #00ff04 #000000 #000000;
#X floatatom 717 135 5 0 0 0 - - - 0;
#X obj 219 71 unpack f f;
#X obj 539 71 unpack f f;
#X obj 860 71 unpack f f;
#X text 614 233 FURTHRRRR;
#X text 245 244 PISTON HONDA;
#X obj 218 312 dac~ 3;
#X obj 293 162 dac~ 4;
#X obj 391 162 dac~ 5;
#X obj 619 162 dac~ 7;
#X obj 717 162 dac~ 8;
#X obj 609 308 dac~ 6;
#X obj 609 262 ~/repositories/pdfiles/src/utility/vcocal, f 26;
#X obj 219 265 ~/repositories/pdfiles/src/utility/vcocal, f 26;
#X obj 219 104 + 60;
#X floatatom 432 516 5 0 0 1 q - - 16;
#X msg 640 549 all \$1;
#X msg 536 550 all \$1;
#X floatatom 536 516 5 0 0 1 att - - 16;
#X floatatom 640 516 5 0 0 1 dec - - 16;
#X msg 744 548 all \$1;
#X floatatom 744 516 5 0 0 1 fenv - - 16;
#X obj 848 548 sig~;
#X obj 951 549 sig~;
#X obj 951 517 tgl 15 0 empty empty sq 0 -8 0 12 #404040 #00ff04 #000000 0 1;
#X obj 848 517 tgl 15 0 empty empty saw 0 -8 0 12 #202020 #00ff04 #000000 0 1;
#X obj 1055 549 sig~;
#X obj 1055 517 tgl 15 0 empty empty sub 0 -8 0 12 #404040 #00ff04 #000000 0 1;
#X obj 225 578 clone -x -s 1 /home/sss/repositories/pdfiles/src/synth/juju~ 5, f 67;
#X floatatom 328 517 5 0 0 1 frq - - 16;
#X floatatom 1160 553 5 0 0 1 hpf - - 16;
#X obj 317 658 env~;
#X floatatom 317 689 5 0 0 0 - - - 0;
#N canvas 0 0 1920 1052 jujucontrol 0;
#X floatatom 357 134 5 0 0 0 - - - 0;
#X obj 357 171 scale 0 127 0 1;
#X obj 357 106 ctlin 1;
#X floatatom 589 138 5 0 0 0 - - - 0;
#X obj 589 170 scale 0 127 0 500;
#X obj 589 110 ctlin 2;
#X floatatom 852 137 5 0 0 0 - - - 0;
#X obj 852 109 ctlin 3;
#X floatatom 1133 135 5 0 0 0 - - - 0;
#X obj 1133 168 scale 0 127 0 4000;
#X obj 1133 107 ctlin 4;
#X floatatom 65 134 5 0 0 0 - - - 0;
#X obj 65 106 ctlin 0;
#X obj 65 368 outlet;
#X obj 357 289 outlet;
#X obj 589 211 outlet;
#X obj 852 211 outlet;
#X obj 1431 214 outlet;
#X obj 1888 199 outlet;
#X obj 1760 197 outlet;
#X obj 2014 202 outlet;
#X floatatom 1431 147 5 0 0 0 - - - 0;
#X obj 1431 180 scale 0 127 0 4000;
#X obj 1431 117 ctlin 5;
#X obj 1760 142 ctlin 43;
#X obj 1888 142 ctlin 44;
#X obj 2014 141 ctlin 42;
#X obj 1760 170 / 127;
#X obj 1888 172 / 127;
#X obj 2014 172 / 127;
#X obj 852 170 scale 0 127 0 1500;
#X obj 65 284 pow;
#X obj 65 254 / 20;
#X obj 65 314 * 20;
#X floatatom 65 342 5 0 0 0 - - - 0;
#X msg 65 223 20000;
#X obj 65 161 scale 0 127 0 1;
#X msg 349 406 0;
#X obj 346 446 +;
#X obj 437 440 log;
#X msg 388 361 2.71828;
#X text 496 359 e;
#X obj 357 260 expr 0.1 + log(1 + $f1 * (2.71828 - 1)) * (1 - 0.1) \;, f 57;
#X obj 2190 379 outlet;
#X floatatom 2190 138 5 0 0 0 - - - 0;
#X text 2197 87 hpf:;
#X obj 2190 108 ctlin 7;
#X text 93 73 freq;
#X text 354 83 rres;
#X text 583 88 att;
#X text 845 86 decay;
#X text 1139 79 nothing;
#X text 1432 86 filter env;
#X text 1740 109 saw;
#X text 1891 111 square;
#X text 2009 107 sub;
#X obj 2190 294 pow;
#X obj 2190 264 / 20;
#X obj 2190 324 * 20;
#X floatatom 2190 352 5 0 0 0 - - - 0;
#X msg 2190 233 20000;
#X obj 65 197 t b f;
#X obj 2190 203 t b f;
#X obj 2190 165 scale 0 127 0 1;
#X connect 0 0 1 0;
#X connect 1 0 42 0;
#X connect 2 0 0 0;
#X connect 3 0 4 0;
#X connect 4 0 15 0;
#X connect 5 0 3 0;
#X connect 6 0 30 0;
#X connect 7 0 6 0;
#X connect 8 0 9 0;
#X connect 10 0 8 0;
#X connect 11 0 36 0;
#X connect 12 0 11 0;
#X connect 21 0 22 0;
#X connect 22 0 17 0;
#X connect 23 0 21 0;
#X connect 24 0 27 0;
#X connect 25 0 28 0;
#X connect 26 0 29 0;
#X connect 27 0 19 0;
#X connect 28 0 18 0;
#X connect 29 0 20 0;
#X connect 30 0 16 0;
#X connect 31 0 33 0;
#X connect 32 0 31 0;
#X connect 33 0 34 0;
#X connect 34 0 13 0;
#X connect 35 0 32 0;
#X connect 36 0 61 0;
#X connect 42 0 14 0;
#X connect 44 0 63 0;
#X connect 46 0 44 0;
#X connect 56 0 58 0;
#X connect 57 0 56 0;
#X connect 58 0 59 0;
#X connect 59 0 43 0;
#X connect 60 0 57 0;
#X connect 61 0 35 0;
#X connect 61 1 31 1;
#X connect 62 0 60 0;
#X connect 62 1 56 1;
#X connect 63 0 62 0;
#X restore 328 484 pd jujucontrol;
#X f 59;
#X obj 539 104 + 60;
#X obj 967 173 adc~ 1 2;
#X text 963 150 tuning inputs;
#X obj 16 29 bng 60 250 50 0 empty empty PH\ Cal 0 -8 0 12 #ffffff #00ff04 #ff8300;
#X obj 86 41 hradio 30 1 0 4 empty empty \ o--s--c--p 0 -12 0 24 #fcfcfc #000000 #000000 0;
#X obj 16 118 bng 60 250 50 0 empty empty Furthr\ cal 0 -8 0 12 #ffffff #00ff04 #000000;
#X obj 86 130 hradio 30 1 0 4 empty empty empty 0 -12 0 24 #fcfcfc #000000 #000000 0;
#X text 84 105 Furthrrrr;
#X obj 226 658 dac~ 1;
#X text 12 195 SOEREN *LIVE \; Outputs \; 1 \, Poly \; 2 \, - \; 3 \, CV1 Out \; 4 \, Gate 1 Out \; 5 \, CV1.2 Out \; 6 \, CV2 Out \; 7 \, Gate 2 Out \; 8 \, CV2.2 Out \;;
#X obj 1075 213 *~;
#X obj 1114 83 tgl 50 0 empty empty empty 0 -12 0 24 #fcfcfc #000000 #000000 0 1;
#X obj 967 215 *~;
#X obj 225 618 *~ 0.1;
#X connect 0 0 17 0;
#X connect 1 0 0 0;
#X connect 2 0 3 0;
#X connect 2 1 3 1;
#X connect 2 2 3 2;
#X connect 3 0 38 0;
#X connect 4 0 18 0;
#X connect 5 0 11 0;
#X connect 5 1 12 0;
#X connect 5 2 13 0;
#X connect 6 0 2 0;
#X connect 7 0 2 1;
#X connect 8 0 19 0;
#X connect 9 0 8 0;
#X connect 10 0 20 0;
#X connect 11 0 24 0;
#X connect 11 1 1 0;
#X connect 11 1 4 0;
#X connect 12 0 44 0;
#X connect 12 1 9 0;
#X connect 12 1 10 0;
#X connect 13 0 6 0;
#X connect 13 1 7 0;
#X connect 22 0 21 0;
#X connect 23 0 16 0;
#X connect 24 0 23 0;
#X connect 25 0 38 2;
#X connect 26 0 38 4;
#X connect 27 0 38 3;
#X connect 28 0 27 0;
#X connect 29 0 26 0;
#X connect 30 0 38 5;
#X connect 31 0 30 0;
#X connect 32 0 38 6;
#X connect 33 0 38 7;
#X connect 34 0 33 0;
#X connect 35 0 32 0;
#X connect 36 0 38 8;
#X connect 37 0 36 0;
#X connect 38 0 57 0;
#X connect 39 0 38 1;
#X connect 40 0 38 9;
#X connect 41 0 42 0;
#X connect 43 0 39 0;
#X connect 43 1 25 0;
#X connect 43 2 28 0;
#X connect 43 3 29 0;
#X connect 43 4 31 0;
#X connect 43 5 35 0;
#X connect 43 6 34 0;
#X connect 43 7 37 0;
#X connect 43 8 40 0;
#X connect 44 0 22 0;
#X connect 45 0 56 0;
#X connect 45 1 54 0;
#X connect 47 0 23 2;
#X connect 48 0 23 1;
#X connect 49 0 22 2;
#X connect 50 0 22 1;
#X connect 54 0 22 3;
#X connect 55 0 54 1;
#X connect 55 0 56 1;
#X connect 56 0 23 3;
#X connect 57 0 41 0;
#X connect 57 0 52 0;
