#N canvas 0 0 1920 1052 24;
#X obj 293 130 click~;
#X obj 293 104 bng 20 250 50 0 empty empty empty 0 -8 0 12 #00ff04 #000000 #000000;
#X obj 859 133 poly 5 1, f 10;
#X obj 859 164 pack f f f;
#X floatatom 391 135 5 0 0 0 - - - 0;
#X obj 219 41 ~/repositories/pdfiles/src/Projects/tidalRoute;
#X obj 859 103 + 72;
#X obj 997 104 * 127;
#X obj 619 130 click~;
#X obj 619 104 bng 20 250 50 0 empty empty empty 0 -8 0 12 #00ff04 #000000 #000000;
#X floatatom 717 135 5 0 0 0 - - - 0;
#X obj 219 71 unpack f f;
#X obj 539 71 unpack f f;
#X obj 860 71 unpack f f;
#X text 544 418 FURTHRRRR;
#X obj 218 255 dac~ 3;
#X obj 293 162 dac~ 4;
#X obj 391 162 dac~ 5;
#X obj 619 162 dac~ 7;
#X obj 717 162 dac~ 8;
#X obj 539 493 dac~ 6;
#X obj 539 447 ~/repositories/pdfiles/src/utility/vcocal, f 26;
#X floatatom 1171 136 5 0 0 1 q - - 16;
#X msg 1379 169 all \$1;
#X msg 1275 170 all \$1;
#X floatatom 1275 136 5 0 0 1 att - - 16;
#X floatatom 1379 136 5 0 0 1 dec - - 16;
#X msg 1483 168 all \$1;
#X floatatom 1483 136 5 0 0 1 fenv - - 16;
#X obj 1587 168 sig~;
#X obj 1690 169 sig~;
#X obj 1690 137 tgl 15 0 empty empty sq 0 -8 0 12 #404040 #00ff04 #000000 0 1;
#X obj 1587 137 tgl 15 0 empty empty saw 0 -8 0 12 #202020 #00ff04 #000000 0 1;
#X obj 1794 169 sig~;
#X obj 1794 137 tgl 15 0 empty empty sub 0 -8 0 12 #404040 #00ff04 #000000 0 1;
#X obj 964 198 clone -x -s 1 /home/sss/repositories/pdfiles/src/synth/juju~ 5, f 67;
#X floatatom 1067 137 5 0 0 1 frq - - 16;
#X floatatom 1899 173 5 0 0 1 hpf - - 16;
#X obj 1056 278 env~;
#X floatatom 1056 309 5 0 0 0 - - - 0;
#N canvas 0 0 1920 1052 jujucontrol 0;
#X floatatom 357 134 5 0 0 0 - - - 0;
#X obj 357 171 scale 0 127 0 1;
#X obj 357 106 ctlin 1;
#X floatatom 589 138 5 0 0 0 - - - 0;
#X obj 589 170 scale 0 127 0 500;
#X obj 589 110 ctlin 2;
#X floatatom 852 137 5 0 0 0 - - - 0;
#X obj 852 109 ctlin 3;
#X floatatom 1133 135 5 0 0 0 - - - 0;
#X obj 1133 168 scale 0 127 0 4000;
#X obj 1133 107 ctlin 4;
#X floatatom 65 134 5 0 0 0 - - - 0;
#X obj 65 106 ctlin 0;
#X obj 65 368 outlet;
#X obj 357 289 outlet;
#X obj 589 211 outlet;
#X obj 852 211 outlet;
#X obj 1431 214 outlet;
#X obj 1888 199 outlet;
#X obj 1760 197 outlet;
#X obj 2014 202 outlet;
#X floatatom 1431 147 5 0 0 0 - - - 0;
#X obj 1431 180 scale 0 127 0 4000;
#X obj 1431 117 ctlin 5;
#X obj 1760 142 ctlin 43;
#X obj 1888 142 ctlin 44;
#X obj 2014 141 ctlin 42;
#X obj 1760 170 / 127;
#X obj 1888 172 / 127;
#X obj 2014 172 / 127;
#X obj 852 170 scale 0 127 0 1500;
#X obj 65 284 pow;
#X obj 65 254 / 20;
#X obj 65 314 * 20;
#X floatatom 65 342 5 0 0 0 - - - 0;
#X msg 65 223 20000;
#X obj 65 161 scale 0 127 0 1;
#X msg 349 406 0;
#X obj 346 446 +;
#X obj 437 440 log;
#X msg 388 361 2.71828;
#X text 496 359 e;
#X obj 357 260 expr 0.1 + log(1 + $f1 * (2.71828 - 1)) * (1 - 0.1) \;, f 57;
#X obj 2190 379 outlet;
#X floatatom 2190 138 5 0 0 0 - - - 0;
#X text 2197 87 hpf:;
#X obj 2190 108 ctlin 7;
#X text 93 73 freq;
#X text 354 83 rres;
#X text 583 88 att;
#X text 845 86 decay;
#X text 1139 79 nothing;
#X text 1432 86 filter env;
#X text 1740 109 saw;
#X text 1891 111 square;
#X text 2009 107 sub;
#X obj 2190 294 pow;
#X obj 2190 264 / 20;
#X obj 2190 324 * 20;
#X floatatom 2190 352 5 0 0 0 - - - 0;
#X msg 2190 233 20000;
#X obj 65 197 t b f;
#X obj 2190 203 t b f;
#X obj 2190 165 scale 0 127 0 1;
#X connect 0 0 1 0;
#X connect 1 0 42 0;
#X connect 2 0 0 0;
#X connect 3 0 4 0;
#X connect 4 0 15 0;
#X connect 5 0 3 0;
#X connect 6 0 30 0;
#X connect 7 0 6 0;
#X connect 8 0 9 0;
#X connect 10 0 8 0;
#X connect 11 0 36 0;
#X connect 12 0 11 0;
#X connect 21 0 22 0;
#X connect 22 0 17 0;
#X connect 23 0 21 0;
#X connect 24 0 27 0;
#X connect 25 0 28 0;
#X connect 26 0 29 0;
#X connect 27 0 19 0;
#X connect 28 0 18 0;
#X connect 29 0 20 0;
#X connect 30 0 16 0;
#X connect 31 0 33 0;
#X connect 32 0 31 0;
#X connect 33 0 34 0;
#X connect 34 0 13 0;
#X connect 35 0 32 0;
#X connect 36 0 61 0;
#X connect 42 0 14 0;
#X connect 44 0 63 0;
#X connect 46 0 44 0;
#X connect 56 0 58 0;
#X connect 57 0 56 0;
#X connect 58 0 59 0;
#X connect 59 0 43 0;
#X connect 60 0 57 0;
#X connect 61 0 35 0;
#X connect 61 1 31 1;
#X connect 62 0 60 0;
#X connect 62 1 56 1;
#X connect 63 0 62 0;
#X restore 1075 104 pd jujucontrol;
#X f 59;
#X text 895 354 tuning inputs;
#X obj 16 118 bng 60 250 50 0 empty empty Furthr\ cal 0 -8 0 12 #ffffff #00ff04 #000000;
#X obj 86 130 hradio 30 1 0 4 empty empty empty 0 -12 0 24 #fcfcfc #000000 #000000 0;
#X text 84 105 Furthrrrr;
#X obj 965 278 dac~ 1;
#X text 12 195 SOEREN *LIVE \; Outputs \; 1 \, Poly \; 2 \, - \; 3 \, CV1 Out \; 4 \, Gate 1 Out \; 5 \, CV1.2 Out \; 6 \, CV2 Out \; 7 \, Gate 2 Out \; 8 \, CV2.2 Out \;;
#X obj 1007 347 tgl 50 0 empty empty empty 0 -12 0 24 #fcfcfc #000000 #000000 0 1;
#X obj 899 419 *~;
#X obj 964 238 *~ 0.1;
#N canvas 1718 -22 148 499 gr 0;
#X obj 618 149 hsl 196 23 -60 0 0 0 empty empty empty -2 -12 0 24 #606060 #00faff #00faff 0 1;
#X obj 487 128 bng 50 250 50 0 empty empty ++ 0 -12 0 24 #606060 #00faff #00faff;
#X obj 429 129 bng 50 250 50 0 empty empty -- 0 -12 0 24 #606060 #00faff #00faff;
#X floatatom 429 251 5 0 0 0 - - - 0;
#X obj 429 220 +;
#X msg 429 184 -3;
#X msg 487 183 3;
#X obj 615 177 i;
#X obj 429 56 ctlin 58;
#X obj 429 84 change;
#X obj 549 84 change;
#X obj 549 56 ctlin 59;
#X floatatom 429 288 5 0 0 0 - - - 36;
#X obj 850 387 list prepend send;
#X obj 850 414 list trim;
#X obj 850 443 netsend -u -b;
#X text 850 327 OSC Send;
#X obj 850 358 oscformat /soeren/threshold;
#X obj 913 145 ctlin 16;
#X obj 913 173 scale 0 127 -60 0;
#X obj 14 -79 oscparse;
#X obj 14 -104 netreceive -u -b;
#X obj 14 -146 loadbang;
#X msg 14 -124 listen 9002;
#X msg 769 298 connect 192.168.0.229 9002;
#X msg 1121 253 disconnect;
#X obj 547 324 scale -60 0 0 1;
#X obj 14 -52 list trim;
#X obj 14 -24 route gr;
#X floatatom 14 4 5 0 0 0 - - - 0;
#X obj 14 48 vsl 50 400 -20 0 0 0 empty empty empty 0 -9 0 24 #606060 #00faff #000000 0 1;
#X obj 785 255 loadbang;
#X connect 0 0 7 0;
#X connect 1 0 6 0;
#X connect 2 0 5 0;
#X connect 3 0 4 1;
#X connect 3 0 12 0;
#X connect 4 0 3 0;
#X connect 5 0 4 0;
#X connect 6 0 4 0;
#X connect 7 0 3 0;
#X connect 8 0 9 0;
#X connect 9 0 2 0;
#X connect 10 0 1 0;
#X connect 11 0 10 0;
#X connect 12 0 26 0;
#X connect 13 0 14 0;
#X connect 14 0 15 0;
#X connect 17 0 13 0;
#X connect 18 0 19 0;
#X connect 19 0 0 0;
#X connect 20 0 27 0;
#X connect 21 0 20 0;
#X connect 22 0 23 0;
#X connect 23 0 21 0;
#X connect 24 0 15 0;
#X connect 25 0 15 0;
#X connect 26 0 17 0;
#X connect 27 0 28 0;
#X connect 28 0 29 0;
#X connect 29 0 30 0;
#X connect 31 0 24 0;
#X restore 27 613 pd gr;
#N canvas 0 50 450 250 (subpatch) 0;
#X array ph-cal 127 float 3;
#A 0 0 0 0 0 0 0 0 0 0 0 0 0 0 0 0 0 0 0 0 0 0 0.1114 0.1195 0.1282 0.1366 0.145 0.1537 0.1621 0.1702 0.1789 0.187 0.1954 0.2044 0.2128 0.2209 0.2296 0.238 0.2464 0.2548 0.2632 0.2716 0.2803 0.2884 0.2968 0.3055 0.3139 0.322 0.3307 0.3391 0.3475 0.3559 0.3643 0.3727 0.3814 0.3895 0.3979 0.4063 0.415 0.4231 0.4318 0.4399 0.4486 0.457 0.4654 0.4738 0.4822 0.4906 0.4993 0.5074 0.5158 0.5242 0.5329 0.541 0.5497 0.5581 0.5665 0.5749 0.5833 0.5914 0.6004 0.6088 0.6169 0.6256 0.634 0.6424 0.6508 0.6592 0.6673 0.676 0.6844 0.6928 0.7012 0.7096 0.718 0.7267 0.7348 0.7432 0.7516 0.76 0.7684 0.7771 0.7852 0.7939 0.9325 0 0 0 0 0 0 0 0 0 0 0 0 0 0 0 0 0 0 0 0 0 0 0;
#X coords 0 1 127 -1 200 140 1 0 0;
#X restore 28 433 graph;
#X obj 219 200 tabread ph-cal;
#X obj 219 227 sig~;
#X obj 219 104 + 72;
#X obj 899 377 adc~ 1;
#X obj 539 104 + 72;
#X connect 0 0 16 0;
#X connect 1 0 0 0;
#X connect 2 0 3 0;
#X connect 2 1 3 1;
#X connect 2 2 3 2;
#X connect 3 0 35 0;
#X connect 4 0 17 0;
#X connect 5 0 11 0;
#X connect 5 1 12 0;
#X connect 5 2 13 0;
#X connect 6 0 2 0;
#X connect 7 0 2 1;
#X connect 8 0 18 0;
#X connect 9 0 8 0;
#X connect 10 0 19 0;
#X connect 11 0 54 0;
#X connect 11 1 1 0;
#X connect 11 1 4 0;
#X connect 12 0 56 0;
#X connect 12 1 9 0;
#X connect 12 1 10 0;
#X connect 13 0 6 0;
#X connect 13 1 7 0;
#X connect 21 0 20 0;
#X connect 22 0 35 2;
#X connect 23 0 35 4;
#X connect 24 0 35 3;
#X connect 25 0 24 0;
#X connect 26 0 23 0;
#X connect 27 0 35 5;
#X connect 28 0 27 0;
#X connect 29 0 35 6;
#X connect 30 0 35 7;
#X connect 31 0 30 0;
#X connect 32 0 29 0;
#X connect 33 0 35 8;
#X connect 34 0 33 0;
#X connect 35 0 49 0;
#X connect 36 0 35 1;
#X connect 37 0 35 9;
#X connect 38 0 39 0;
#X connect 40 0 36 0;
#X connect 40 1 22 0;
#X connect 40 2 25 0;
#X connect 40 3 26 0;
#X connect 40 4 28 0;
#X connect 40 5 32 0;
#X connect 40 6 31 0;
#X connect 40 7 34 0;
#X connect 40 8 37 0;
#X connect 42 0 21 2;
#X connect 43 0 21 1;
#X connect 47 0 48 1;
#X connect 48 0 21 3;
#X connect 49 0 38 0;
#X connect 49 0 45 0;
#X connect 52 0 53 0;
#X connect 53 0 15 0;
#X connect 54 0 52 0;
#X connect 55 0 48 0;
#X connect 56 0 21 0;
