#N canvas 698 54 1920 989 12;
#X obj 84 275 noise~;
#X obj 455 279 del 20;
#X obj 361 264 bng 15 250 50 0 empty empty empty 17 7 0 10 #fcfcfc #000000 #000000;
#X obj 539 299 del 20;
#X obj 84 366 *~;
#X floatatom 703 327 5 0 0 0 - - - 0;
#X floatatom 494 229 5 0 0 0 - - - 0;
#X obj 623 318 del 20;
#X obj 703 366 * 2;
#N canvas 0 0 1920 1052 env 0;
#X obj 230 118 f 250;
#X msg 230 143 1 0.2 \, 0 \$1 0.2;
#X obj 230 168 vline~;
#X obj 230 193 *~;
#X obj 230 218 *~;
#X obj 230 88 inlet;
#X obj 277 88 inlet;
#X obj 230 243 outlet~;
#X connect 0 0 1 0;
#X connect 1 0 2 0;
#X connect 2 0 3 0;
#X connect 2 0 3 1;
#X connect 3 0 4 0;
#X connect 3 0 4 1;
#X connect 4 0 7 0;
#X connect 5 0 0 0;
#X connect 6 0 0 1;
#X restore 361 345 pd env;
#N canvas 0 0 1920 1052 env 0;
#X obj 230 118 f 250;
#X msg 230 143 1 0.2 \, 0 \$1 0.2;
#X obj 230 168 vline~;
#X obj 230 193 *~;
#X obj 230 218 *~;
#X obj 230 88 inlet;
#X obj 277 88 inlet;
#X obj 230 243 outlet~;
#X connect 0 0 1 0;
#X connect 1 0 2 0;
#X connect 2 0 3 0;
#X connect 2 0 3 1;
#X connect 3 0 4 0;
#X connect 3 0 4 1;
#X connect 4 0 7 0;
#X connect 5 0 0 0;
#X connect 6 0 0 1;
#X restore 455 346 pd env;
#N canvas 0 0 1920 1052 env 0;
#X obj 230 118 f 250;
#X msg 230 143 1 0.2 \, 0 \$1 0.2;
#X obj 230 168 vline~;
#X obj 230 193 *~;
#X obj 230 218 *~;
#X obj 230 88 inlet;
#X obj 277 88 inlet;
#X obj 230 243 outlet~;
#X connect 0 0 1 0;
#X connect 1 0 2 0;
#X connect 2 0 3 0;
#X connect 2 0 3 1;
#X connect 3 0 4 0;
#X connect 3 0 4 1;
#X connect 4 0 7 0;
#X connect 5 0 0 0;
#X connect 6 0 0 1;
#X restore 539 346 pd env;
#N canvas 0 0 1920 1052 env 0;
#X obj 230 118 f 250;
#X msg 230 143 1 0.2 \, 0 \$1 0.2;
#X obj 230 168 vline~;
#X obj 230 193 *~;
#X obj 230 218 *~;
#X obj 230 88 inlet;
#X obj 277 88 inlet;
#X obj 230 243 outlet~;
#X connect 0 0 1 0;
#X connect 1 0 2 0;
#X connect 2 0 3 0;
#X connect 2 0 3 1;
#X connect 3 0 4 0;
#X connect 3 0 4 1;
#X connect 4 0 7 0;
#X connect 5 0 0 0;
#X connect 6 0 0 1;
#X restore 623 346 pd env;
#X text 444 230 delay;
#X text 738 279 decay;
#X obj 744 326 t b f;
#X text 307 263 bang, f 6;
#X obj 361 235 inlet;
#X obj 432 26 inlet;
#X obj 84 486 outlet~;
#X floatatom 744 296 5 0 0 0 - - - 0;
#X obj 84 328 svf~ 1500 0.3;
#X obj 431 163 pack f f f f, f 39;
#X obj 431 187 unpack f f f f;
#X obj 432 74 bng 15 250 50 0 empty empty empty 17 7 0 10 #fcfcfc #000000 #000000;
#X obj 521 108 random 50;
#X obj 521 132 * 0.01;
#X obj 684 221 > 22;
#X obj 684 245 sel 1;
#X msg 684 269 12;
#X obj 701 132 + 5;
#X obj 431 133 + 1500;
#X obj 432 109 random 3000;
#X obj 611 132 + 5;
#X obj 701 108 random 10;
#X obj 611 108 random 10;
#X obj 84 394 overdrive~ 2;
#X obj 84 421 hip~ 200;
#X obj 84 450 hip~ 200;
#X obj 846 144 inlet;
#X obj 846 192 *;
#X floatatom 846 216 5 0 0 0 - - - 0;
#X obj 846 239 + 500;
#X obj 846 168 * 70;
#X obj 906 144 inlet;
#X connect 0 0 21 0;
#X connect 1 0 3 0;
#X connect 1 0 10 0;
#X connect 2 0 1 0;
#X connect 2 0 9 0;
#X connect 3 0 7 0;
#X connect 3 0 11 0;
#X connect 4 0 36 0;
#X connect 5 0 8 0;
#X connect 5 0 9 1;
#X connect 5 0 10 1;
#X connect 5 0 11 1;
#X connect 6 0 1 1;
#X connect 6 0 3 1;
#X connect 6 0 7 1;
#X connect 6 0 5 0;
#X connect 7 0 12 0;
#X connect 8 0 12 1;
#X connect 9 0 4 1;
#X connect 10 0 4 1;
#X connect 11 0 4 1;
#X connect 12 0 4 1;
#X connect 15 0 8 0;
#X connect 15 1 8 1;
#X connect 17 0 2 0;
#X connect 18 0 24 0;
#X connect 20 0 15 0;
#X connect 21 0 4 0;
#X connect 22 0 23 0;
#X connect 23 0 21 1;
#X connect 23 1 21 2;
#X connect 23 2 6 0;
#X connect 23 2 27 0;
#X connect 23 3 20 0;
#X connect 24 0 25 0;
#X connect 24 0 32 0;
#X connect 24 0 34 0;
#X connect 24 0 35 0;
#X connect 25 0 26 0;
#X connect 26 0 22 1;
#X connect 27 0 28 0;
#X connect 28 0 29 0;
#X connect 29 0 20 0;
#X connect 30 0 22 3;
#X connect 31 0 22 0;
#X connect 32 0 31 0;
#X connect 33 0 22 2;
#X connect 34 0 30 0;
#X connect 35 0 33 0;
#X connect 36 0 37 0;
#X connect 37 0 38 0;
#X connect 38 0 19 0;
#X connect 39 0 43 0;
#X connect 40 0 41 0;
#X connect 41 0 42 0;
#X connect 42 0 21 1;
#X connect 43 0 40 0;
#X connect 43 0 40 1;
#X connect 44 0 21 2;
