#N canvas 1917 0 1920 989 12;
#X obj 259 168 tgl 15 0 empty empty empty 17 7 0 10 #fcfcfc #000000 #000000 0 1;
#X obj 656 605 cybersynth;
#X obj 260 601 svf~ 15000 0.3;
#X msg 726 573 velocity \$1;
#X msg 816 573 cutoff \$1;
#X msg 896 573 q \$1;
#X msg 944 573 filterenv \$1;
#X msg 1044 573 decay \$1;
#N canvas 341 151 1920 989 euclid 0;
#X obj 338 301 loadbang;
#X obj 279 545 sel 1;
#X obj 279 302 f;
#X obj 279 421 *;
#X floatatom 350 497 5 0 16 0 - - - 0;
#X obj 307 302 + 1;
#X obj 279 516 <;
#X floatatom 350 357 5 0 0 0 - - - 0;
#X obj 279 332 % 16;
#X obj 279 466 % 16;
#X obj 350 441 bng 15 250 50 0 empty empty empty 17 7 0 10 #fcfcfc #000000 #000000;
#X obj 279 376 + 0;
#X obj 375 412 del 1;
#X text 394 357 offset;
#X text 395 497 pulses no;
#X msg 338 325 32;
#X obj 279 253 inlet;
#X obj 279 570 outlet;
#X obj 507 253 inlet;
#X obj 557 253 inlet;
#X connect 0 0 15 0;
#X connect 1 0 17 0;
#X connect 2 0 5 0;
#X connect 2 0 8 0;
#X connect 3 0 9 0;
#X connect 4 0 3 1;
#X connect 4 0 6 1;
#X connect 5 0 2 1;
#X connect 6 0 1 0;
#X connect 7 0 10 0;
#X connect 7 0 11 1;
#X connect 7 0 12 0;
#X connect 8 0 11 0;
#X connect 9 0 6 0;
#X connect 10 0 4 0;
#X connect 11 0 3 0;
#X connect 12 0 10 0;
#X connect 15 0 8 1;
#X connect 15 0 9 1;
#X connect 16 0 2 0;
#X connect 18 0 4 0;
#X connect 19 0 7 0;
#X restore 726 484 pd euclid;
#X msg 726 548 127;
#X msg 259 144 1;
#X text 565 107 new pattern \;;
#X obj 372 388 *~ 0.9;
#X obj 261 497 overdrive~ 4;
#X obj 409 553 scale 0 1 0 0.8;
#X obj 655 661 clip~ -1 1;
#X obj 736 661 clip~ -1 1;
#X obj 926 48 > 0.5;
#X obj 585 157 bng 19 250 50 0 empty empty empty 0 -10 0 12 #fcfcfc #000000 #000000;
#X obj 659 45 > 0.5;
#X obj 546 256 r kickVolume;
#X floatatom 546 356 5 0 0 0 - - - 0;
#X obj 1302 487 notein 2;
#X msg 1332 572 rootNote \$1;
#X msg 1221 572 randomDelay \$1;
#N canvas 254 169 450 300 quantize 0;
#X obj 79 131 == 0;
#X obj 79 175 spigot;
#X obj 79 199 sel 1;
#X obj 79 243 outlet;
#X obj 130 243 bng 19 250 50 0 empty empty empty 0 -10 0 12 #fcfcfc #000000 #000000;
#X msg 153 244 0;
#X obj 128 83 inlet;
#X obj 128 107 sel 1;
#X msg 128 131 1;
#X obj 79 21 f;
#X obj 107 21 + 1;
#X obj 79 -8 inlet;
#X floatatom 79 79 5 0 0 0 - - - 0;
#X obj 79 51 % 32;
#X obj 79 107 % 4;
#X connect 0 0 1 0;
#X connect 1 0 2 0;
#X connect 2 0 3 0;
#X connect 2 0 4 0;
#X connect 4 0 5 0;
#X connect 5 0 1 1;
#X connect 6 0 7 0;
#X connect 7 0 8 0;
#X connect 8 0 1 1;
#X connect 9 0 10 0;
#X connect 9 0 13 0;
#X connect 10 0 9 1;
#X connect 11 0 9 0;
#X connect 12 0 14 0;
#X connect 13 0 12 0;
#X connect 14 0 0 0;
#X restore 585 132 pd quantize;
#X obj 333 147 expr 60000/$f1;
#X obj 333 170 * 0.25;
#X obj 333 123 r bpm;
#X msg 1422 572 bassLevel \$1;
#X obj 259 90 loadbang;
#N canvas 0 25 958 980 bass 0;
#N canvas 0 45 1920 996 euclid 0;
#X obj 338 301 loadbang;
#X obj 279 545 sel 1;
#X obj 279 302 f;
#X obj 279 421 *;
#X floatatom 350 497 5 0 16 0 - - - 0;
#X obj 307 302 + 1;
#X obj 279 516 <;
#X floatatom 350 357 5 0 0 0 - - - 0;
#X obj 279 332 % 16;
#X obj 279 466 % 16;
#X obj 350 441 bng 15 250 50 0 empty empty empty 17 7 0 10 #fcfcfc #000000 #000000;
#X obj 279 376 + 0;
#X obj 375 412 del 1;
#X text 394 357 offset;
#X text 395 497 pulses no;
#X msg 338 325 32;
#X obj 279 253 inlet;
#X obj 279 570 outlet;
#X obj 507 253 inlet;
#X obj 557 253 inlet;
#X floatatom 502 418 5 0 0 0 - - - 0;
#X obj 502 441 outlet;
#X connect 0 0 15 0;
#X connect 1 0 17 0;
#X connect 2 0 5 0;
#X connect 2 0 8 0;
#X connect 3 0 9 0;
#X connect 4 0 3 1;
#X connect 4 0 6 1;
#X connect 5 0 2 1;
#X connect 6 0 1 0;
#X connect 7 0 10 0;
#X connect 7 0 11 1;
#X connect 7 0 12 0;
#X connect 8 0 11 0;
#X connect 8 0 20 0;
#X connect 9 0 6 0;
#X connect 10 0 4 0;
#X connect 11 0 3 0;
#X connect 12 0 10 0;
#X connect 15 0 8 1;
#X connect 15 0 9 1;
#X connect 16 0 2 0;
#X connect 18 0 4 0;
#X connect 19 0 7 0;
#X connect 20 0 21 0;
#X restore 140 300 pd euclid;
#X f 15;
#X obj 333 399 phasor~;
#X floatatom 333 327 5 0 0 0 - - - 0;
#X obj 331 541 *~ 0.5;
#X msg 140 429 1 \, 0 \$1;
#X obj 411 774 outlet~;
#X obj 331 684 *~;
#X obj 333 350 mtof;
#X obj 333 300 mscale;
#X obj 352 195 inlet;
#X obj 140 268 inlet;
#X floatatom 191 269 5 0 0 0 - - - 0;
#X obj 140 330 bng 19 250 50 0 empty empty empty 0 -10 0 12 #fcfcfc #000000 #000000;
#X floatatom 402 196 5 0 0 0 - - - 0;
#X msg 453 269 2 4 5 7 9 11 12;
#X text 520 221 scales \;;
#X obj 574 268 sel 0 1;
#X obj 609 229 r scala;
#X obj 140 453 line~;
#X obj 140 373 random 500;
#X msg 453 241 0 1 2 3 5 7 8 10;
#X floatatom 468 551 5 0 0 0 - - - 0;
#X obj 437 376 hsl 162 19 0 127 0 0 empty empty empty -2 -10 0 12 #fcfcfc #000000 #000000 0 1;
#X obj 434 399 / 127;
#X obj 332 463 expr~ $v1 > $v2;
#X obj 219 397 + 24;
#X obj 411 748 hip~ 30;
#X obj 219 373 random 8;
#X obj 140 397 + 100;
#X floatatom 242 269 5 0 0 0 - - - 0;
#X obj 293 85 loadbang;
#X msg 379 370 1;
#X obj 402 134 loadmess 48;
#X obj 478 399 loadmess 0.5;
#X obj 201 165 inlet;
#X obj 191 219 random 13;
#X obj 191 243 + 1;
#X obj 261 219 random 4;
#X obj 331 565 overdrive~ 2;
#X obj 331 615 svf~ 100 0.3;
#X obj 331 639 svf~ 100 0.3;
#X obj 331 719 svf~ 130 0.2;
#X obj 459 463 cos~;
#X obj 683 186 inlet;
#X obj 683 234 *;
#X obj 683 210 * 25;
#X obj 762 202 inlet;
#X obj 183 62 r pdOnlyNewPattern;
#X obj 172 18 r pdOnlyNewPatternAndSound;
#X obj 762 226 scale 0 1 1 50;
#X connect 0 0 12 0;
#X connect 1 0 24 0;
#X connect 1 0 42 0;
#X connect 2 0 7 0;
#X connect 3 0 38 0;
#X connect 4 0 18 0;
#X connect 6 0 41 0;
#X connect 7 0 1 0;
#X connect 7 0 31 0;
#X connect 8 0 2 0;
#X connect 9 0 8 1;
#X connect 10 0 0 0;
#X connect 11 0 0 1;
#X connect 12 0 19 0;
#X connect 12 0 27 0;
#X connect 13 0 8 1;
#X connect 14 0 8 2;
#X connect 16 0 20 0;
#X connect 16 1 14 0;
#X connect 17 0 16 0;
#X connect 18 0 6 1;
#X connect 19 0 28 0;
#X connect 20 0 8 2;
#X connect 21 0 39 1;
#X connect 21 0 40 1;
#X connect 22 0 23 0;
#X connect 23 0 24 1;
#X connect 24 0 3 0;
#X connect 25 0 8 0;
#X connect 26 0 5 0;
#X connect 27 0 25 0;
#X connect 28 0 4 0;
#X connect 29 0 0 2;
#X connect 30 0 20 0;
#X connect 30 0 37 0;
#X connect 30 0 35 0;
#X connect 31 0 1 1;
#X connect 32 0 13 0;
#X connect 33 0 24 1;
#X connect 34 0 35 0;
#X connect 34 0 37 0;
#X connect 35 0 36 0;
#X connect 36 0 11 0;
#X connect 37 0 29 0;
#X connect 38 0 39 0;
#X connect 39 0 40 0;
#X connect 40 0 6 0;
#X connect 41 3 26 0;
#X connect 42 0 3 0;
#X connect 43 0 45 0;
#X connect 44 0 21 0;
#X connect 45 0 44 0;
#X connect 45 0 44 1;
#X connect 46 0 49 0;
#X connect 47 0 37 0;
#X connect 47 0 35 0;
#X connect 48 0 37 0;
#X connect 48 0 35 0;
#X connect 49 0 38 1;
#X restore 942 736 pd bass;
#X f 17;
#X obj 260 388 *~ 0.6;
#X obj 261 422 *~ 1;
#X obj 941 767 *~ 0.6;
#X obj 261 654 *~ 0.6;
#X obj 315 388 *~ 0.4;
#X obj 659 73 change;
#X obj 926 72 change;
#X obj 546 303 change;
#X obj 546 327 sel 1;
#X msg 1518 571 scala \$1;
#X obj 307 552 * 120;
#X obj 307 576 *;
#X obj 655 637 *~ 0.3;
#X obj 736 634 *~ 0.3;
#X msg 1118 573 delFiltLfo \$1;
#X obj 546 280 * 0.6;
#X obj 659 23 r globalnewPattern;
#X obj 926 24 r globalNewSoundAndPattern;
#N canvas 182 182 450 300 changeOnce 0;
#X obj 78 117 > 0.5;
#X obj 78 164 sel 1;
#X obj 78 141 change;
#X obj 78 86 inlet;
#X obj 78 188 outlet;
#X connect 0 0 2 0;
#X connect 1 0 4 0;
#X connect 2 0 1 0;
#X connect 3 0 0 0;
#X restore 1195 719 pd changeOnce;
#N canvas 1917 0 954 980 kick 0;
#X obj 115 299 kick, f 14;
#N canvas 949 0 962 980 euclid 0;
#X obj 338 301 loadbang;
#X obj 279 545 sel 1;
#X obj 279 302 f;
#X obj 279 421 *;
#X floatatom 350 497 5 0 16 0 - - - 0;
#X obj 307 302 + 1;
#X obj 279 516 <;
#X floatatom 350 357 5 0 0 0 - - - 0;
#X obj 279 332 % 16;
#X obj 279 466 % 16;
#X obj 350 441 bng 15 250 50 0 empty empty empty 17 7 0 10 #fcfcfc #000000 #000000;
#X obj 279 376 + 0;
#X obj 375 412 del 1;
#X text 394 357 offset;
#X text 395 497 pulses no;
#X msg 338 325 32;
#X obj 279 253 inlet;
#X obj 279 570 outlet;
#X obj 507 253 inlet;
#X obj 557 253 inlet;
#X floatatom 502 418 5 0 0 0 - - - 0;
#X obj 502 441 outlet;
#X floatatom 600 539 5 0 0 0 - - - 0;
#X obj 600 562 outlet;
#X connect 0 0 15 0;
#X connect 1 0 17 0;
#X connect 2 0 5 0;
#X connect 2 0 8 0;
#X connect 3 0 9 0;
#X connect 4 0 3 1;
#X connect 4 0 6 1;
#X connect 5 0 2 1;
#X connect 6 0 1 0;
#X connect 6 0 22 0;
#X connect 7 0 10 0;
#X connect 7 0 11 1;
#X connect 7 0 12 0;
#X connect 8 0 11 0;
#X connect 8 0 20 0;
#X connect 9 0 6 0;
#X connect 10 0 4 0;
#X connect 11 0 3 0;
#X connect 12 0 10 0;
#X connect 15 0 8 1;
#X connect 15 0 9 1;
#X connect 16 0 2 0;
#X connect 18 0 4 0;
#X connect 19 0 7 0;
#X connect 20 0 21 0;
#X connect 22 0 23 0;
#X restore 115 199 pd euclid;
#N canvas 182 182 450 300 changeOnce 0;
#X obj 78 117 > 0.5;
#X obj 78 164 sel 1;
#X obj 78 141 change;
#X obj 78 86 inlet;
#X obj 78 188 outlet;
#X connect 0 0 2 0;
#X connect 1 0 4 0;
#X connect 2 0 1 0;
#X connect 3 0 0 0;
#X restore 281 124 pd changeOnce;
#N canvas 182 182 450 300 changeOnce 0;
#X obj 78 117 > 0.5;
#X obj 78 164 sel 1;
#X obj 78 141 change;
#X obj 78 86 inlet;
#X obj 78 188 outlet;
#X connect 0 0 2 0;
#X connect 1 0 4 0;
#X connect 2 0 1 0;
#X connect 3 0 0 0;
#X restore 161 124 pd changeOnce;
#N canvas 208 208 450 300 randomizer 0;
#X obj 101 148 random 16;
#X obj 182 149 random 4;
#X obj 101 219 outlet;
#X obj 182 219 outlet;
#X obj 115 36 inlet;
#X connect 0 0 2 0;
#X connect 1 0 3 0;
#X connect 4 0 0 0;
#X connect 4 0 1 0;
#X restore 161 148 pd randomizer;
#X obj 115 7 inlet;
#X obj 138 367 outlet~;
#X obj 115 323 svf~ 30 0.3;
#X obj 423 155 *;
#X obj 423 7 r kickFilter;
#X obj 520 7 r pdOnlyNewPattern;
#X obj 520 37 r pdOnlyNewPatternAndSound;
#X obj 722 9 r kickOverdrive;
#X obj 423 131 * 30;
#X obj 423 179 + 30;
#X obj 722 33 scale 0 1 1 5;
#X obj 161 7 r kickPattern;
#X obj 281 7 r kickSound;
#X obj 197 367 s c_kick_trig;
#X obj 294 367 s club_kick;
#X connect 0 0 7 0;
#X connect 1 0 0 0;
#X connect 1 0 18 0;
#X connect 1 2 19 0;
#X connect 2 0 0 1;
#X connect 3 0 4 0;
#X connect 4 0 1 1;
#X connect 5 0 1 0;
#X connect 7 1 6 0;
#X connect 8 0 14 0;
#X connect 9 0 13 0;
#X connect 10 0 4 0;
#X connect 11 0 4 0;
#X connect 12 0 15 0;
#X connect 13 0 8 0;
#X connect 13 0 8 1;
#X connect 14 0 7 1;
#X connect 15 0 0 2;
#X connect 16 0 3 0;
#X connect 17 0 2 0;
#X restore 259 321 pd kick;
#N canvas 10 359 450 300 quantize 0;
#X obj 79 131 == 0;
#X obj 79 175 spigot;
#X obj 79 199 sel 1;
#X obj 79 243 outlet;
#X obj 130 243 bng 19 250 50 0 empty empty empty 0 -10 0 12 #fcfcfc #000000 #000000;
#X msg 153 244 0;
#X obj 128 83 inlet;
#X obj 79 21 f;
#X obj 107 21 + 1;
#X obj 79 -8 inlet;
#X floatatom 79 79 5 0 0 0 - - - 0;
#X obj 79 51 % 32;
#X obj 267 144 spigot;
#X obj 79 107 % 4;
#X obj 139 117 tgl 19 0 empty empty empty 0 -10 0 12 #fcfcfc #000000 #000000 0 1;
#X connect 0 0 1 0;
#X connect 1 0 2 0;
#X connect 2 0 3 0;
#X connect 2 0 4 0;
#X connect 4 0 5 0;
#X connect 5 0 1 1;
#X connect 6 0 14 0;
#X connect 7 0 8 0;
#X connect 7 0 11 0;
#X connect 8 0 7 1;
#X connect 9 0 7 0;
#X connect 10 0 13 0;
#X connect 11 0 10 0;
#X connect 13 0 0 0;
#X connect 14 0 1 1;
#X restore 852 132 pd quantize;
#X obj 852 156 bng 19 250 50 0 empty empty empty 0 -10 0 12 #fcfcfc #000000 #000000;
#X text 765 98 new sound and pattern \;;
#N canvas 651 42 958 980 clap 0;
#X obj 62 220 clap, f 17;
#N canvas 0 0 1920 1041 euclid 0;
#X obj 338 301 loadbang;
#X obj 279 545 sel 1;
#X obj 279 302 f;
#X obj 279 421 *;
#X floatatom 350 497 5 0 16 0 - - - 0;
#X obj 307 302 + 1;
#X obj 279 516 <;
#X floatatom 350 357 5 0 0 0 - - - 0;
#X obj 279 332 % 16;
#X obj 279 466 % 16;
#X obj 350 441 bng 15 250 50 0 empty empty empty 17 7 0 10 #fcfcfc #000000 #000000;
#X obj 279 376 + 0;
#X obj 375 412 del 1;
#X text 394 357 offset;
#X text 395 497 pulses no;
#X msg 338 325 32;
#X obj 279 253 inlet;
#X obj 279 570 outlet;
#X obj 507 253 inlet;
#X obj 557 253 inlet;
#X obj 330 571 outlet;
#X connect 0 0 15 0;
#X connect 1 0 17 0;
#X connect 2 0 5 0;
#X connect 2 0 8 0;
#X connect 3 0 9 0;
#X connect 4 0 3 1;
#X connect 4 0 6 1;
#X connect 5 0 2 1;
#X connect 6 0 1 0;
#X connect 6 0 20 0;
#X connect 7 0 10 0;
#X connect 7 0 11 1;
#X connect 7 0 12 0;
#X connect 8 0 11 0;
#X connect 9 0 6 0;
#X connect 10 0 4 0;
#X connect 11 0 3 0;
#X connect 12 0 10 0;
#X connect 15 0 8 1;
#X connect 15 0 9 1;
#X connect 16 0 2 0;
#X connect 18 0 4 0;
#X connect 19 0 7 0;
#X restore 62 190 pd euclid;
#N canvas 182 182 450 300 changeOnce 0;
#X obj 78 117 > 0.5;
#X obj 78 164 sel 1;
#X obj 78 141 change;
#X obj 78 86 inlet;
#X obj 78 188 outlet;
#X connect 0 0 2 0;
#X connect 1 0 4 0;
#X connect 2 0 1 0;
#X connect 3 0 0 0;
#X restore 122 80 pd changeOnce;
#N canvas 208 208 450 300 randomizer 0;
#X obj 101 148 random 16;
#X obj 182 149 random 4;
#X obj 101 219 outlet;
#X obj 182 219 outlet;
#X obj 115 36 inlet;
#X connect 0 0 2 0;
#X connect 1 0 3 0;
#X connect 4 0 0 0;
#X connect 4 0 1 0;
#X restore 122 157 pd randomizer;
#N canvas 182 182 450 300 changeOnce 0;
#X obj 78 117 > 0.5;
#X obj 78 164 sel 1;
#X obj 78 141 change;
#X obj 78 86 inlet;
#X obj 78 188 outlet;
#X connect 0 0 2 0;
#X connect 1 0 4 0;
#X connect 2 0 1 0;
#X connect 3 0 0 0;
#X restore 241 80 pd changeOnce;
#X obj 62 100 inlet;
#X obj 62 288 outlet~;
#X obj 499 75 scale 0 1 0 0.8;
#X obj 405 46 r clapFilter;
#X obj 499 46 r clapQ;
#X obj 618 76 r pdOnlyNewPattern;
#X obj 618 106 r pdOnlyNewPatternAndSound;
#X obj 122 46 r clapPattern;
#X obj 241 46 r clapSound;
#X obj 122 288 s club_clap;
#X connect 0 0 6 0;
#X connect 1 0 0 0;
#X connect 1 1 14 0;
#X connect 2 0 3 0;
#X connect 3 0 1 1;
#X connect 3 1 1 2;
#X connect 4 0 0 1;
#X connect 5 0 1 0;
#X connect 7 0 0 3;
#X connect 8 0 0 2;
#X connect 9 0 7 0;
#X connect 10 0 3 0;
#X connect 11 0 0 1;
#X connect 11 0 3 0;
#X connect 12 0 2 0;
#X connect 13 0 4 0;
#X restore 315 321 pd clap;
#N canvas 0 25 1680 989 hatA 0;
#N canvas 0 0 1920 1041 euclid 0;
#X obj 338 301 loadbang;
#X obj 279 545 sel 1;
#X obj 279 302 f;
#X obj 279 421 *;
#X floatatom 350 497 5 0 16 0 - - - 0;
#X obj 307 302 + 1;
#X obj 279 516 <;
#X floatatom 350 357 5 0 0 0 - - - 0;
#X obj 279 332 % 16;
#X obj 279 466 % 16;
#X obj 350 441 bng 15 250 50 0 empty empty empty 17 7 0 10 #fcfcfc #000000 #000000;
#X obj 279 376 + 0;
#X obj 375 412 del 1;
#X text 394 357 offset;
#X text 395 497 pulses no;
#X msg 338 325 32;
#X obj 279 253 inlet;
#X obj 279 570 outlet;
#X obj 507 253 inlet;
#X obj 557 253 inlet;
#X obj 330 570 outlet;
#X connect 0 0 15 0;
#X connect 1 0 17 0;
#X connect 2 0 5 0;
#X connect 2 0 8 0;
#X connect 3 0 9 0;
#X connect 4 0 3 1;
#X connect 4 0 6 1;
#X connect 5 0 2 1;
#X connect 6 0 1 0;
#X connect 6 0 20 0;
#X connect 7 0 10 0;
#X connect 7 0 11 1;
#X connect 7 0 12 0;
#X connect 8 0 11 0;
#X connect 9 0 6 0;
#X connect 10 0 4 0;
#X connect 11 0 3 0;
#X connect 12 0 10 0;
#X connect 15 0 8 1;
#X connect 15 0 9 1;
#X connect 16 0 2 0;
#X connect 18 0 4 0;
#X connect 19 0 7 0;
#X restore 154 272 pd euclid;
#N canvas 182 182 450 300 changeOnce 0;
#X obj 78 117 > 0.5;
#X obj 78 164 sel 1;
#X obj 78 141 change;
#X obj 78 86 inlet;
#X obj 78 188 outlet;
#X connect 0 0 2 0;
#X connect 1 0 4 0;
#X connect 2 0 1 0;
#X connect 3 0 0 0;
#X restore 341 209 pd changeOnce;
#N canvas 182 182 450 300 changeOnce 0;
#X obj 78 117 > 0.5;
#X obj 78 164 sel 1;
#X obj 78 141 change;
#X obj 78 86 inlet;
#X obj 78 188 outlet;
#X connect 0 0 2 0;
#X connect 1 0 4 0;
#X connect 2 0 1 0;
#X connect 3 0 0 0;
#X restore 207 207 pd changeOnce;
#N canvas 208 208 450 300 randomizer 0;
#X obj 101 148 random 16;
#X obj 182 149 random 4;
#X obj 101 219 outlet;
#X obj 182 219 outlet;
#X obj 115 36 inlet;
#X connect 0 0 2 0;
#X connect 1 0 3 0;
#X connect 4 0 0 0;
#X connect 4 0 1 0;
#X restore 207 231 pd randomizer;
#X obj 154 162 inlet;
#X obj 520 7 r pdOnlyNewPattern;
#X obj 520 37 r pdOnlyNewPatternAndSound;
#X obj 235 738 outlet~;
#X obj 350 560 line~;
#X text 413 534 Amp Env;
#X obj 234 580 *~;
#X obj 234 680 hip~ 8000;
#X obj 235 710 hip~ 8000;
#X obj 189 472 +~;
#X obj 189 503 phasor~;
#X obj 136 478 noise~;
#X obj 136 503 *~ 0.4;
#X obj 234 645 degrade~;
#X obj 350 501 pack s f;
#X obj 207 417 phasor~ 12000;
#X obj 207 442 *~ 2000;
#X obj 350 476 bng 15 250 50 0 empty empty empty 17 7 0 10 #fcfcfc #000000 #000000;
#X obj 137 542 svf~ 10000 0.5, f 21;
#X obj 492 364 unpack f f f f f f f, f 22;
#X obj 492 334 pack f f f f f f f, f 106;
#X obj 1107 310 + 20;
#X obj 1231 286 random 100;
#X obj 1231 310 + 20;
#X msg 350 534 1 \, 0 \$2;
#X obj 492 247 bng 15 250 50 0 empty empty empty 17 7 0 10 #fcfcfc #000000 #000000;
#X obj 615 286 random 80;
#X obj 615 310 * 0.01;
#X obj 984 286 random 3000;
#X obj 984 310 + 500;
#X obj 492 310 + 4000;
#X obj 738 310 + 400;
#X obj 861 310 + 200;
#X floatatom 707 392 5 0 0 0 - - - 0;
#X obj 492 286 random 4000;
#X obj 861 286 random 1000;
#X obj 738 286 random 1000;
#X obj 1107 286 random 100;
#X obj 782 91 * 20;
#X obj 782 115 *;
#X obj 621 120 hsl 162 19 0 127 0 0 empty empty empty -2 -10 0 12 #fcfcfc #000000 #000000 0 1;
#X obj 618 144 / 127;
#X obj 782 67 r hatADecay;
#X obj 207 162 r hatAPattern;
#X obj 341 162 r hatASound;
#X obj 214 306 s club_hatA;
#X connect 0 0 21 0;
#X connect 0 1 49 0;
#X connect 1 0 29 0;
#X connect 2 0 3 0;
#X connect 3 0 0 1;
#X connect 3 1 0 2;
#X connect 4 0 0 0;
#X connect 5 0 3 0;
#X connect 6 0 3 0;
#X connect 6 0 29 0;
#X connect 8 0 10 1;
#X connect 10 0 17 0;
#X connect 11 0 12 0;
#X connect 12 0 7 0;
#X connect 13 0 14 0;
#X connect 14 0 22 0;
#X connect 15 0 16 0;
#X connect 16 0 22 0;
#X connect 17 0 11 0;
#X connect 18 0 28 0;
#X connect 19 0 20 0;
#X connect 20 0 13 1;
#X connect 21 0 18 0;
#X connect 22 2 10 0;
#X connect 23 0 22 1;
#X connect 23 1 22 2;
#X connect 23 2 13 0;
#X connect 23 3 19 0;
#X connect 23 4 20 1;
#X connect 23 5 18 1;
#X connect 23 6 17 1;
#X connect 24 0 23 0;
#X connect 25 0 24 5;
#X connect 26 0 27 0;
#X connect 27 0 24 6;
#X connect 28 0 8 0;
#X connect 29 0 26 0;
#X connect 29 0 30 0;
#X connect 29 0 32 0;
#X connect 29 0 38 0;
#X connect 29 0 39 0;
#X connect 29 0 40 0;
#X connect 29 0 41 0;
#X connect 30 0 31 0;
#X connect 31 0 24 1;
#X connect 32 0 33 0;
#X connect 33 0 24 4;
#X connect 34 0 24 0;
#X connect 35 0 24 2;
#X connect 36 0 24 3;
#X connect 37 0 13 0;
#X connect 37 0 19 0;
#X connect 38 0 34 0;
#X connect 39 0 36 0;
#X connect 40 0 35 0;
#X connect 41 0 25 0;
#X connect 42 0 43 0;
#X connect 42 0 43 1;
#X connect 43 0 18 1;
#X connect 44 0 45 0;
#X connect 45 0 42 0;
#X connect 46 0 42 0;
#X connect 47 0 2 0;
#X connect 48 0 1 0;
#X restore 371 321 pd hatA;
#X obj 430 388 *~ 0.9;
#X text 38 322 receives are inside subpatches;
#N canvas 0 25 1680 989 hatB 0;
#N canvas 0 0 1920 1041 euclid 0;
#X obj 338 301 loadbang;
#X obj 279 545 sel 1;
#X obj 279 302 f;
#X obj 279 421 *;
#X floatatom 350 497 5 0 16 0 - - - 0;
#X obj 307 302 + 1;
#X obj 279 516 <;
#X floatatom 350 357 5 0 0 0 - - - 0;
#X obj 279 332 % 16;
#X obj 279 466 % 16;
#X obj 350 441 bng 15 250 50 0 empty empty empty 17 7 0 10 #fcfcfc #000000 #000000;
#X obj 279 376 + 0;
#X obj 375 412 del 1;
#X text 394 357 offset;
#X text 395 497 pulses no;
#X msg 338 325 32;
#X obj 279 253 inlet;
#X obj 279 570 outlet;
#X obj 507 253 inlet;
#X obj 557 253 inlet;
#X obj 328 570 outlet;
#X connect 0 0 15 0;
#X connect 1 0 17 0;
#X connect 2 0 5 0;
#X connect 2 0 8 0;
#X connect 3 0 9 0;
#X connect 4 0 3 1;
#X connect 4 0 6 1;
#X connect 5 0 2 1;
#X connect 6 0 1 0;
#X connect 6 0 20 0;
#X connect 7 0 10 0;
#X connect 7 0 11 1;
#X connect 7 0 12 0;
#X connect 8 0 11 0;
#X connect 9 0 6 0;
#X connect 10 0 4 0;
#X connect 11 0 3 0;
#X connect 12 0 10 0;
#X connect 15 0 8 1;
#X connect 15 0 9 1;
#X connect 16 0 2 0;
#X connect 18 0 4 0;
#X connect 19 0 7 0;
#X restore 154 272 pd euclid;
#N canvas 182 182 450 300 changeOnce 0;
#X obj 78 117 > 0.5;
#X obj 78 164 sel 1;
#X obj 78 141 change;
#X obj 78 86 inlet;
#X obj 78 188 outlet;
#X connect 0 0 2 0;
#X connect 1 0 4 0;
#X connect 2 0 1 0;
#X connect 3 0 0 0;
#X restore 341 209 pd changeOnce;
#N canvas 182 182 450 300 changeOnce 0;
#X obj 78 117 > 0.5;
#X obj 78 164 sel 1;
#X obj 78 141 change;
#X obj 78 86 inlet;
#X obj 78 188 outlet;
#X connect 0 0 2 0;
#X connect 1 0 4 0;
#X connect 2 0 1 0;
#X connect 3 0 0 0;
#X restore 207 207 pd changeOnce;
#N canvas 208 208 450 300 randomizer 0;
#X obj 101 148 random 16;
#X obj 182 149 random 4;
#X obj 101 219 outlet;
#X obj 182 219 outlet;
#X obj 115 36 inlet;
#X connect 0 0 2 0;
#X connect 1 0 3 0;
#X connect 4 0 0 0;
#X connect 4 0 1 0;
#X restore 207 231 pd randomizer;
#X obj 154 162 inlet;
#X obj 472 162 r pdOnlyNewPattern;
#X obj 472 192 r pdOnlyNewPatternAndSound;
#X obj 258 777 outlet~;
#X obj 373 599 line~;
#X text 436 573 Amp Env;
#X obj 257 619 *~;
#X obj 257 719 hip~ 8000;
#X obj 258 749 hip~ 8000;
#X obj 212 511 +~;
#X obj 212 542 phasor~;
#X obj 159 517 noise~;
#X obj 159 542 *~ 0.4;
#X obj 257 684 degrade~;
#X obj 373 540 pack s f;
#X obj 230 456 phasor~ 12000;
#X obj 230 481 *~ 2000;
#X obj 373 515 bng 15 250 50 0 empty empty empty 17 7 0 10 #fcfcfc #000000 #000000;
#X obj 160 581 svf~ 10000 0.5, f 21;
#X obj 515 403 unpack f f f f f f f, f 22;
#X obj 515 373 pack f f f f f f f, f 106;
#X obj 1130 349 + 20;
#X obj 1254 325 random 100;
#X obj 1254 349 + 20;
#X msg 373 573 1 \, 0 \$2;
#X obj 515 286 bng 15 250 50 0 empty empty empty 17 7 0 10 #fcfcfc #000000 #000000;
#X obj 638 325 random 80;
#X obj 638 349 * 0.01;
#X obj 1007 325 random 3000;
#X obj 1007 349 + 500;
#X obj 515 349 + 4000;
#X obj 761 349 + 400;
#X obj 884 349 + 200;
#X floatatom 730 431 5 0 0 0 - - - 0;
#X obj 515 325 random 4000;
#X obj 884 325 random 1000;
#X obj 761 325 random 1000;
#X obj 1130 325 random 100;
#X obj 693 210 *;
#X obj 693 186 * 30;
#X obj 207 162 r hatBPattern;
#X obj 341 162 r hatBSound;
#X obj 693 162 r hatBDecay;
#X obj 214 300 s club_hatB;
#X connect 0 0 21 0;
#X connect 0 1 47 0;
#X connect 1 0 29 0;
#X connect 2 0 3 0;
#X connect 3 0 0 1;
#X connect 3 1 0 2;
#X connect 4 0 0 0;
#X connect 5 0 3 0;
#X connect 6 0 3 0;
#X connect 6 0 29 0;
#X connect 8 0 10 1;
#X connect 10 0 17 0;
#X connect 11 0 12 0;
#X connect 12 0 7 0;
#X connect 13 0 14 0;
#X connect 14 0 22 0;
#X connect 15 0 16 0;
#X connect 16 0 22 0;
#X connect 17 0 11 0;
#X connect 18 0 28 0;
#X connect 19 0 20 0;
#X connect 20 0 13 1;
#X connect 21 0 18 0;
#X connect 22 2 10 0;
#X connect 23 0 22 1;
#X connect 23 1 22 2;
#X connect 23 2 13 0;
#X connect 23 3 19 0;
#X connect 23 4 20 1;
#X connect 23 5 18 1;
#X connect 23 6 17 1;
#X connect 24 0 23 0;
#X connect 25 0 24 5;
#X connect 26 0 27 0;
#X connect 27 0 24 6;
#X connect 28 0 8 0;
#X connect 29 0 26 0;
#X connect 29 0 30 0;
#X connect 29 0 32 0;
#X connect 29 0 38 0;
#X connect 29 0 39 0;
#X connect 29 0 40 0;
#X connect 29 0 41 0;
#X connect 30 0 31 0;
#X connect 31 0 24 1;
#X connect 32 0 33 0;
#X connect 33 0 24 4;
#X connect 34 0 24 0;
#X connect 35 0 24 2;
#X connect 36 0 24 3;
#X connect 37 0 13 0;
#X connect 37 0 19 0;
#X connect 38 0 34 0;
#X connect 39 0 36 0;
#X connect 40 0 35 0;
#X connect 41 0 25 0;
#X connect 42 0 18 1;
#X connect 43 0 42 0;
#X connect 43 0 42 1;
#X connect 44 0 2 0;
#X connect 45 0 1 0;
#X connect 46 0 43 0;
#X restore 429 321 pd hatB;
#X obj 585 181 s pdOnlyNewPattern;
#X obj 852 179 s pdOnlyNewPatternAndSound;
#X obj 342 469 scale 0 1 1 10;
#N canvas 182 182 450 300 changeOnce 0;
#X obj 78 117 > 0.5;
#X obj 78 164 sel 1;
#X obj 78 141 change;
#X obj 78 86 inlet;
#X obj 78 188 outlet;
#X connect 0 0 2 0;
#X connect 1 0 4 0;
#X connect 2 0 1 0;
#X connect 3 0 0 0;
#X restore 768 358 pd changeOnce;
#N canvas 208 208 450 300 randomizer 0;
#X obj 101 148 random 16;
#X obj 182 149 random 4;
#X obj 101 219 outlet;
#X obj 182 219 outlet;
#X obj 115 36 inlet;
#X connect 0 0 2 0;
#X connect 1 0 3 0;
#X connect 4 0 0 0;
#X connect 4 0 1 0;
#X restore 768 382 pd randomizer;
#X obj 384 170 s pdOnlyBpm;
#X obj 259 193 metro;
#X obj 402 91 loadmess 128;
#X obj 1195 693 r synthBassPattern;
#X obj 1335 693 r synthBassFilter;
#X obj 1469 693 r synthBassDrive;
#X obj 768 322 r synthLeadPattern;
#X obj 1044 496 r synthLeadDecay;
#X obj 1118 521 r synthLeadDelFiltLfo;
#X obj 1221 546 r synthLeadRandomDelay;
#X obj 1422 520 r synthLeadBassLevel;
#X obj 944 471 r synthLeadFilterEnv;
#X obj 1518 547 r synthLeadScala;
#X obj 342 444 r drumsOverdrive;
#X obj 307 528 r drumsFilter;
#X obj 409 528 r drumsQ;
#X obj 300 628 r drumsVolume;
#X obj 260 830 outlet~;
#X obj 330 830 outlet~;
#X obj 396 54 bng 19 250 50 0 empty empty empty 0 -10 0 12 #fcfcfc #000000 #000000;
#X obj 180 522 / 127;
#X obj 816 420 r c_synthLeadFilter;
#X obj 896 446 r c_synthLeadQ;
#X floatatom 200 550 5 0 0 0 - - - 0;
#X obj 975 99 bng 19 250 50 0 empty empty empty 0 -10 0 12 #fcfcfc #000000 #000000;
#X obj 561 451 r c_synthNote;
#X msg 582 618 note \$1;
#X obj 561 477 scale 0 127 0 64;
#X obj 561 554 +;
#X obj 561 501 t b f;
#X msg 561 529 48;
#X obj 510 595 hradio 19 1 0 2 empty empty empty 0 -10 0 12 #fcfcfc #000000 #000000 0;
#X obj 510 619 + 1;
#X obj 576 586 switch 2 1;
#X obj 595 542 scale 0 127 24 127;
#X obj 180 495 ctlin 18 23;
#X obj 510 572 ctlin 45 23;
#X obj 396 26 ctlin 46 23;
#X connect 0 0 66 0;
#X connect 1 0 44 0;
#X connect 1 0 45 0;
#X connect 1 1 44 0;
#X connect 1 2 45 0;
#X connect 2 0 35 0;
#X connect 3 0 1 0;
#X connect 4 0 1 0;
#X connect 5 0 1 0;
#X connect 6 0 1 0;
#X connect 7 0 1 0;
#X connect 8 0 9 0;
#X connect 9 0 3 0;
#X connect 10 0 0 0;
#X connect 12 0 33 0;
#X connect 13 0 2 0;
#X connect 14 0 2 2;
#X connect 15 0 82 0;
#X connect 16 0 83 0;
#X connect 17 0 38 0;
#X connect 18 0 60 0;
#X connect 18 0 64 0;
#X connect 19 0 37 0;
#X connect 20 0 47 0;
#X connect 21 0 32 1;
#X connect 22 0 23 0;
#X connect 22 0 31 2;
#X connect 23 0 1 0;
#X connect 24 0 1 0;
#X connect 25 0 18 0;
#X connect 26 0 27 0;
#X connect 26 0 65 0;
#X connect 27 0 66 1;
#X connect 28 0 26 0;
#X connect 29 0 1 0;
#X connect 30 0 10 0;
#X connect 30 0 53 0;
#X connect 31 0 34 0;
#X connect 32 0 33 0;
#X connect 33 0 13 0;
#X connect 34 0 83 0;
#X connect 34 0 82 0;
#X connect 35 0 82 0;
#X connect 35 0 83 0;
#X connect 36 0 33 0;
#X connect 37 0 25 1;
#X connect 38 0 52 1;
#X connect 39 0 40 0;
#X connect 40 0 21 0;
#X connect 41 0 1 0;
#X connect 42 0 43 0;
#X connect 42 0 43 1;
#X connect 43 0 2 1;
#X connect 44 0 15 0;
#X connect 45 0 16 0;
#X connect 46 0 1 0;
#X connect 47 0 39 0;
#X connect 48 0 19 0;
#X connect 49 0 17 0;
#X connect 50 0 31 1;
#X connect 51 0 32 0;
#X connect 52 0 53 0;
#X connect 53 0 61 0;
#X connect 53 0 64 0;
#X connect 55 0 36 0;
#X connect 56 0 12 0;
#X connect 57 0 33 0;
#X connect 59 0 57 0;
#X connect 62 0 13 1;
#X connect 63 0 64 0;
#X connect 64 0 8 1;
#X connect 64 1 8 2;
#X connect 66 0 25 0;
#X connect 66 0 52 0;
#X connect 66 0 51 0;
#X connect 66 0 55 0;
#X connect 66 0 56 0;
#X connect 66 0 59 0;
#X connect 66 0 8 0;
#X connect 66 0 31 0;
#X connect 67 0 26 0;
#X connect 68 0 50 0;
#X connect 69 0 31 3;
#X connect 70 0 31 4;
#X connect 71 0 63 0;
#X connect 72 0 7 0;
#X connect 73 0 46 0;
#X connect 74 0 24 0;
#X connect 75 0 29 0;
#X connect 76 0 6 0;
#X connect 77 0 41 0;
#X connect 78 0 62 0;
#X connect 79 0 42 0;
#X connect 80 0 14 0;
#X connect 81 0 35 1;
#X connect 84 0 89 0;
#X connect 85 0 88 0;
#X connect 86 0 4 0;
#X connect 87 0 5 0;
#X connect 88 0 42 0;
#X connect 89 0 52 1;
#X connect 90 0 92 0;
#X connect 90 0 99 0;
#X connect 91 0 1 0;
#X connect 92 0 94 0;
#X connect 93 0 98 1;
#X connect 94 0 95 0;
#X connect 94 1 93 1;
#X connect 95 0 93 0;
#X connect 96 0 97 0;
#X connect 97 0 98 0;
#X connect 98 0 91 0;
#X connect 99 0 98 2;
#X connect 100 0 85 0;
#X connect 101 0 96 0;
#X connect 102 0 84 0;
