#N canvas 2 0 958 980 12;
#X obj 24 26 inlet~;
#N canvas 0 0 958 1041 peak 0;
#X obj 96 89 inlet~;
#X obj 96 113 abs~;
#X obj 96 209 -~;
#X obj 96 264 *~;
#X obj 96 342 /~;
#X obj 96 366 outlet~;
#X obj 245 187 +~ 0;
#X obj 96 318 +~;
#X obj 134 187 r thresh;
#X obj 113 242 r ratio;
#X connect 0 0 1 0;
#X connect 1 0 2 0;
#X connect 1 0 6 0;
#X connect 2 0 3 0;
#X connect 3 0 7 0;
#X connect 4 0 5 0;
#X connect 6 0 4 1;
#X connect 7 0 4 0;
#X connect 8 0 2 1;
#X connect 8 0 7 1;
#X connect 9 0 3 1;
#X restore 183 171 pd peak;
#N canvas 727 28 1191 440 delWrite 0;
#X obj 226 563 inlet~;
#X obj 227 616 outlet~;
#X obj 227 591 delwrite~ compL 500;
#X connect 0 0 2 0;
#X restore 23 170 pd delWrite;
#N canvas 0 0 837 1041 delRead 0;
#X obj 413 488 inlet~;
#X obj 474 488 inlet;
#X obj 474 546 outlet~;
#X obj 474 521 delread~ compL 0;
#X connect 1 0 3 0;
#X connect 3 0 2 0;
#X restore 23 246 pd delRead;
#X obj 183 196 clip~ 0 1;
#X obj 166 332 *~;
#X obj 184 471 pack f 5;
#X obj 184 496 line~;
#X obj 781 244 + 100;
#X obj 781 269 dbtorms;
#X obj 938 244 swap 1;
#X obj 938 269 /;
#X obj 184 420 + 100;
#X obj 184 445 dbtorms;
#X obj 166 552 outlet~;
#X obj 166 527 *~;
#X obj 183 251 rampsmooth~;
#X obj 784 223 hsl 128 15 -60 0 0 0 empty empty empty -2 -8 0 10 #fcfcfc #000000 #000000 0 1;
#X text 832 117 https://designingsound.org/2013/06/28/tutorial-a-compressor-in-pure-data/#;
#X obj 241 280 env~;
#X obj 241 305 - 100;
#X text 217 330 GR;
#X text 779 203 threshold;
#X floatatom 184 394 5 0 0 0 - - - 0;
#X floatatom 938 221 5 0 0 0 - - - 0;
#X floatatom 1008 270 5 0 0 0 - - - 0;
#X floatatom 241 329 5 0 0 0 - - - 0;
#X obj 90 220 r lookahead;
#X obj 1008 293 s lookahead;
#X obj 938 293 s ratio;
#X obj 781 294 s thresh;
#N canvas 0 0 958 1041 peak 0;
#X obj 96 89 inlet~;
#X obj 96 113 abs~;
#X obj 96 209 -~;
#X obj 96 264 *~;
#X obj 96 342 /~;
#X obj 96 366 outlet~;
#X obj 245 187 +~ 0;
#X obj 96 318 +~;
#X obj 134 187 r thresh;
#X obj 113 242 r ratio;
#X connect 0 0 1 0;
#X connect 1 0 2 0;
#X connect 1 0 6 0;
#X connect 2 0 3 0;
#X connect 3 0 7 0;
#X connect 4 0 5 0;
#X connect 6 0 4 1;
#X connect 7 0 4 0;
#X connect 8 0 2 1;
#X connect 8 0 7 1;
#X connect 9 0 3 1;
#X restore 556 324 pd peak;
#N canvas 727 28 1191 440 delWrite 0;
#X obj 76 73 inlet~;
#X obj 77 126 outlet~;
#X obj 77 101 delwrite~ compR 500;
#X connect 0 0 2 0;
#X restore 396 323 pd delWrite;
#N canvas 0 0 837 1041 delRead 0;
#X obj 413 488 inlet~;
#X obj 474 488 inlet;
#X obj 474 546 outlet~;
#X obj 474 521 delread~ compR 0;
#X connect 1 0 3 0;
#X connect 3 0 2 0;
#X restore 396 399 pd delRead;
#X obj 556 349 clip~ 0 1;
#X obj 539 485 *~;
#X obj 557 624 pack f 5;
#X obj 557 649 line~;
#X obj 557 573 + 100;
#X obj 557 598 dbtorms;
#X obj 539 705 outlet~;
#X obj 539 680 *~;
#X obj 556 404 rampsmooth~;
#X obj 614 433 env~;
#X obj 614 458 - 100;
#X text 590 483 GR;
#X floatatom 557 547 5 0 0 0 - - - 0;
#X floatatom 614 482 5 0 0 0 - - - 0;
#X obj 463 373 r lookahead;
#X obj 248 41 inlet~;
#X floatatom 833 244 5 0 0 0 - - - 0;
#X obj 682 112 unpack f f f f f f;
#X text 890 86 threshold \, gain \, attack \, release \, ratio \, lookahead \;;
#X obj 682 61 loadbang;
#X obj 787 485 abs~;
#X obj 787 630 rmstodb;
#X obj 787 662 - 100;
#X obj 865 463 expr 1000 / $f1;
#X floatatom 865 491 5 0 0 0 - - - 0;
#X obj 787 520 slop~ 0 0 0 0 1e+09;
#X floatatom 865 431 5 0 0 0 - - - 0;
#X obj 787 587 cyclone/snapshot~ 50;
#X floatatom 787 686 5 0 0 0 - - - 0;
#X msg 735 176 4.8;
#X msg 769 177 100;
#N canvas 708 107 755 674 rms 0;
#X obj 487 295 inlet~;
#X obj 487 319 env~;
#X obj 487 343 dbtorms~;
#X obj 487 367 -~;
#X obj 487 391 *~;
#X obj 487 415 +~;
#X obj 487 439 /~;
#X obj 487 463 outlet~;
#X obj 626 378 +~ 0;
#X obj 586 305 r thresh;
#X obj 586 329 r ratio;
#X connect 0 0 1 0;
#X connect 1 0 2 0;
#X connect 2 0 3 0;
#X connect 2 0 8 0;
#X connect 3 0 4 0;
#X connect 4 0 5 0;
#X connect 5 0 6 0;
#X connect 6 0 7 0;
#X connect 8 0 6 1;
#X connect 9 0 3 1;
#X connect 9 0 5 1;
#X connect 10 0 4 1;
#X restore 204 142 pd rms;
#N canvas 708 107 755 674 rms 0;
#X obj 487 295 inlet~;
#X obj 487 319 env~;
#X obj 487 343 dbtorms~;
#X obj 487 367 -~;
#X obj 487 391 *~;
#X obj 487 415 +~;
#X obj 487 439 /~;
#X obj 487 463 outlet~;
#X obj 626 378 +~ 0;
#X obj 586 305 r thresh;
#X obj 586 329 r ratio;
#X connect 0 0 1 0;
#X connect 1 0 2 0;
#X connect 2 0 3 0;
#X connect 2 0 8 0;
#X connect 3 0 4 0;
#X connect 4 0 5 0;
#X connect 5 0 6 0;
#X connect 6 0 7 0;
#X connect 8 0 6 1;
#X connect 9 0 3 1;
#X connect 9 0 5 1;
#X connect 10 0 4 1;
#X restore 567 289 pd rms;
#X msg 682 88 -6 -3 4.8 100 4 2;
#X connect 0 0 2 0;
#X connect 0 0 1 0;
#X connect 0 0 65 0;
#X connect 1 0 4 0;
#X connect 2 0 3 0;
#X connect 3 0 5 0;
#X connect 4 0 16 0;
#X connect 5 0 15 0;
#X connect 6 0 7 0;
#X connect 7 0 15 1;
#X connect 8 0 9 0;
#X connect 9 0 30 0;
#X connect 10 0 11 0;
#X connect 10 1 11 1;
#X connect 11 0 29 0;
#X connect 12 0 13 0;
#X connect 13 0 6 0;
#X connect 15 0 14 0;
#X connect 16 0 5 1;
#X connect 16 0 19 0;
#X connect 16 0 54 0;
#X connect 17 0 8 0;
#X connect 17 0 50 0;
#X connect 19 0 20 0;
#X connect 20 0 26 0;
#X connect 23 0 12 0;
#X connect 24 0 10 0;
#X connect 25 0 28 0;
#X connect 27 0 3 1;
#X connect 31 0 34 0;
#X connect 32 0 33 0;
#X connect 33 0 35 0;
#X connect 34 0 42 0;
#X connect 35 0 41 0;
#X connect 36 0 37 0;
#X connect 37 0 41 1;
#X connect 38 0 39 0;
#X connect 39 0 36 0;
#X connect 41 0 40 0;
#X connect 42 0 35 1;
#X connect 42 0 43 0;
#X connect 43 0 44 0;
#X connect 44 0 47 0;
#X connect 46 0 38 0;
#X connect 48 0 33 1;
#X connect 49 0 32 0;
#X connect 49 0 31 0;
#X connect 49 0 66 0;
#X connect 51 0 17 0;
#X connect 51 1 23 0;
#X connect 51 1 46 0;
#X connect 51 2 63 0;
#X connect 51 3 64 0;
#X connect 51 4 24 0;
#X connect 51 5 25 0;
#X connect 53 0 67 0;
#X connect 54 0 59 0;
#X connect 55 0 56 0;
#X connect 56 0 62 0;
#X connect 57 0 58 0;
#X connect 58 0 59 3;
#X connect 59 0 61 0;
#X connect 60 0 57 0;
#X connect 61 0 55 0;
#X connect 63 0 16 1;
#X connect 63 0 42 1;
#X connect 64 0 16 2;
#X connect 64 0 42 2;
#X connect 65 0 4 0;
#X connect 66 0 34 0;
#X connect 67 0 51 0;
