#N canvas -7 0 958 980 12;
#X obj 73 273 osc~;
#X obj 152 273 osc~;
#X obj 73 222 mtof;
#X obj 152 222 mtof;
#X floatatom 73 158 5 0 0 0 - - - 0;
#X obj 152 198 + 4;
#X obj 134 427 lop~;
#X obj 133 323 *~;
#X obj 74 427 lop~;
#X floatatom 212 347 5 0 0 0 - - - 0;
#X obj 212 323 cyclone/snapshot~ 10;
#X obj 213 273 curve~;
#X text 222 465 https://www.youtube.com/watch?v=UrZX-2enzIU \;;
#X obj 74 480 outlet~;
#X obj 73 117 inlet;
#X obj 213 163 inlet;
#X msg 414 128 150 9000;
#X floatatom 271 191 5 0 0 0 - - - 0;
#X floatatom 329 191 10 0 0 0 - - - 0;
#X obj 213 217 pack s f f, f 17;
#X msg 213 247 900 \$2 -0.5 0 \$3 -0.9;
#X obj 213 190 bng 19 250 50 0 empty empty empty 0 -10 0 12 #fcfcfc #000000 #000000;
#X obj 414 154 unpack f f;
#X obj 414 101 loadbang;
#X obj 271 111 inlet;
#X obj 313 111 inlet;
#X obj 271 161 *;
#X obj 271 135 * 50;
#X obj 313 159 *;
#X obj 313 135 * 150;
#X connect 0 0 7 0;
#X connect 0 0 8 0;
#X connect 1 0 7 1;
#X connect 2 0 0 0;
#X connect 3 0 1 0;
#X connect 4 0 5 0;
#X connect 4 0 2 0;
#X connect 5 0 3 0;
#X connect 6 0 13 0;
#X connect 7 0 6 0;
#X connect 8 0 13 0;
#X connect 10 0 8 1;
#X connect 10 0 6 1;
#X connect 10 0 9 0;
#X connect 11 0 10 0;
#X connect 14 0 4 0;
#X connect 15 0 21 0;
#X connect 16 0 22 0;
#X connect 17 0 19 1;
#X connect 18 0 19 2;
#X connect 19 0 20 0;
#X connect 20 0 11 0;
#X connect 21 0 19 0;
#X connect 22 0 17 0;
#X connect 22 1 18 0;
#X connect 23 0 16 0;
#X connect 24 0 27 0;
#X connect 25 0 29 0;
#X connect 26 0 17 0;
#X connect 27 0 26 0;
#X connect 27 0 26 1;
#X connect 28 0 18 0;
#X connect 29 0 28 0;
#X connect 29 0 28 1;
