#N canvas -7 0 1920 989 12;
#X obj 455 384 osc~;
#X obj 455 327 mtof;
#X obj 505 384 osc~;
#X obj 505 327 mtof;
#X obj 555 384 osc~;
#X obj 555 327 mtof;
#X obj 605 384 osc~;
#X obj 605 327 mtof;
#X obj 455 301 +;
#X obj 505 301 +;
#X obj 555 301 +;
#X obj 605 301 +;
#X obj 69 416 osc~;
#X obj 69 389 mtof;
#X obj 69 363 + 36;
#X obj 141 416 osc~;
#X obj 141 388 mtof;
#X obj 141 362 + 48;
#X floatatom 519 610 5 0 0 0 - - - 0;
#X msg 413 201 31 43 47 50 55 59;
#X msg 671 233 12;
#X floatatom 634 262 5 0 0 0 - - - 0;
#X obj 654 384 osc~;
#X obj 654 327 mtof;
#X obj 704 384 osc~;
#X obj 704 327 mtof;
#X obj 654 301 +;
#X obj 704 301 +;
#X obj 455 268 unpack f f f f f f;
#X floatatom 352 110 5 0 0 0 - - - 0;
#X obj 352 32 tgl 15 0 empty empty empty 17 7 0 10 #fcfcfc #000000 #000000 0 1;
#X obj 352 86 counter 2;
#X obj 352 143 sel 0 1 2;
#X msg 352 169 29 41 45 48 52 60;
#X obj 454 512 *~ 0.1;
#X obj 352 53 metro 6000;
#X obj 537 515 hsl 128 15 1 6 0 0 empty empty empty -2 -8 0 10 #fcfcfc #000000 #000000 0 1;
#X obj 452 560 svf~ 400 0.2;
#X obj 207 379 phasor~;
#X obj 205 451 *~ 2;
#X obj 294 285 osc~ 0.12;
#X obj 206 417 expr~ $v1>$f2;
#X obj 294 309 cyclone/snapshot~ 50;
#X floatatom 294 333 5 0 0 0 - - - 0;
#X floatatom 294 380 5 0 0 0 - - - 0;
#X obj 142 451 *~ 0.02;
#X obj 70 451 *~ 0.02;
#X text 195 192 chord generation \; root note \; flanger \; reverb parameter \;;
#X obj 634 107 r octave;
#X obj 994 247 r cutoff;
#X obj 634 131 scale 0 1 0 2;
#X obj 634 155 int;
#X floatatom 634 179 5 0 0 0 - - - 0;
#X obj 634 202 sel 0 1 2;
#X msg 634 233 0;
#X msg 711 216 24;
#X obj 485 109 loadbang;
#X obj 294 356 scale -1 1 0.1 0.9;
#X msg 455 234 21 45 48 52 57 57;
#X obj 352 6 loadmess 0;
#X obj 479 634 svf~ 100 0.2;
#X obj 1124 247 r q;
#X obj 1124 271 scale 0 1 0 0.8;
#X floatatom 1124 296 5 0 0 0 - - - 0;
#X obj 453 536 overdrive~ 2;
#X obj 704 185 loadbang;
#X obj 1276 444 gong, f 13;
#X floatatom 1276 418 5 0 0 0 - - - 0;
#X obj 1276 392 mtof;
#X floatatom 1276 366 5 0 0 0 - - - 0;
#X floatatom 1276 312 5 0 0 0 - - - 0;
#X obj 1276 335 min 48;
#X text 1201 72 "GONG" \;;
#X obj 1355 381 r gongAttack;
#X obj 1445 381 r gongRelease;
#X obj 994 303 *;
#X floatatom 1053 316 5 0 0 0 - - - 0;
#X obj 869 280 scale 0 1 1 4;
#X obj 1276 468 *~ 1;
#X obj 1274 124 random 3;
#X obj 1274 148 sel 0 1 2;
#X msg 1274 184 29;
#X msg 1309 184 31;
#X msg 1341 183 21;
#X obj 1274 99 bng 19 250 50 0 empty empty empty 0 -10 0 12 #fcfcfc #000000 #000000;
#X obj 1276 280 +;
#X obj 1274 226 t b f;
#X msg 1274 249 0;
#X obj 994 279 * 50;
#X obj 478 677 outlet~;
#X obj 1274 67 r m_gongTrig;
#X obj 868 256 r m_drive;
#X obj 768 55 r m_next;
#X obj 157 264 s m_noteIndex;
#X obj 790 136 sel 1;
#X obj 788 172 bng 19 250 50 0 empty empty empty 0 -10 0 12 #fcfcfc #000000 #000000;
#X connect 0 0 34 0;
#X connect 1 0 0 0;
#X connect 1 0 38 0;
#X connect 2 0 34 0;
#X connect 3 0 2 0;
#X connect 4 0 34 0;
#X connect 5 0 4 0;
#X connect 6 0 34 0;
#X connect 7 0 6 0;
#X connect 8 0 1 0;
#X connect 9 0 3 0;
#X connect 10 0 5 0;
#X connect 11 0 7 0;
#X connect 12 0 46 0;
#X connect 13 0 12 0;
#X connect 14 0 13 0;
#X connect 15 0 45 0;
#X connect 16 0 15 0;
#X connect 17 0 16 0;
#X connect 18 0 60 1;
#X connect 19 0 28 0;
#X connect 20 0 21 0;
#X connect 21 0 11 1;
#X connect 21 0 10 1;
#X connect 21 0 9 1;
#X connect 21 0 8 1;
#X connect 21 0 26 1;
#X connect 21 0 27 1;
#X connect 22 0 34 0;
#X connect 23 0 22 0;
#X connect 24 0 34 0;
#X connect 25 0 24 0;
#X connect 26 0 23 0;
#X connect 27 0 25 0;
#X connect 28 0 8 0;
#X connect 28 0 14 0;
#X connect 28 0 17 0;
#X connect 28 1 9 0;
#X connect 28 2 10 0;
#X connect 28 3 11 0;
#X connect 28 4 26 0;
#X connect 28 5 27 0;
#X connect 29 0 32 0;
#X connect 29 0 93 0;
#X connect 30 0 35 0;
#X connect 31 0 29 0;
#X connect 32 0 33 0;
#X connect 32 1 19 0;
#X connect 32 2 58 0;
#X connect 33 0 28 0;
#X connect 34 0 64 0;
#X connect 35 0 31 0;
#X connect 36 0 64 1;
#X connect 37 1 60 0;
#X connect 38 0 41 0;
#X connect 39 0 34 0;
#X connect 40 0 42 0;
#X connect 41 0 39 0;
#X connect 42 0 43 0;
#X connect 43 0 57 0;
#X connect 44 0 41 1;
#X connect 45 0 34 0;
#X connect 46 0 34 0;
#X connect 48 0 50 0;
#X connect 49 0 76 0;
#X connect 49 0 88 0;
#X connect 50 0 51 0;
#X connect 51 0 52 0;
#X connect 52 0 53 0;
#X connect 53 0 54 0;
#X connect 53 1 20 0;
#X connect 53 2 55 0;
#X connect 54 0 21 0;
#X connect 55 0 21 0;
#X connect 56 0 19 0;
#X connect 57 0 44 0;
#X connect 58 0 28 0;
#X connect 59 0 30 0;
#X connect 60 0 89 0;
#X connect 61 0 62 0;
#X connect 62 0 63 0;
#X connect 63 0 60 2;
#X connect 64 0 37 0;
#X connect 65 0 55 0;
#X connect 66 0 78 0;
#X connect 67 0 66 0;
#X connect 67 0 66 1;
#X connect 68 0 67 0;
#X connect 69 0 68 0;
#X connect 70 0 71 0;
#X connect 71 0 69 0;
#X connect 73 0 66 2;
#X connect 74 0 66 3;
#X connect 75 0 18 0;
#X connect 77 0 36 0;
#X connect 78 0 89 0;
#X connect 79 0 80 0;
#X connect 80 0 81 0;
#X connect 80 1 82 0;
#X connect 80 2 83 0;
#X connect 81 0 86 0;
#X connect 82 0 86 0;
#X connect 83 0 86 0;
#X connect 84 0 79 0;
#X connect 85 0 70 0;
#X connect 86 0 87 0;
#X connect 86 1 85 0;
#X connect 87 0 85 1;
#X connect 88 0 75 0;
#X connect 88 0 75 1;
#X connect 90 0 84 0;
#X connect 91 0 77 0;
#X connect 92 0 94 0;
#X connect 94 0 95 0;
#X connect 95 0 31 0;
