#N canvas -7 0 780 980 12;
#X obj 355 210 wind-generator;
#X obj 109 258 *~ 1;
#X obj 239 209 sampler, f 15;
#X obj 239 258 *~ 1;
#X obj 498 14 loadbang;
#X obj 109 209 sampler, f 15;
#X msg 498 37 read resources/samples.txt;
#N canvas 984 45 1920 989 rain 0;
#X msg 143 249 read -resize resources/soe_rain.wav rain;
#X obj 308 228 array define rain;
#X obj 143 273 soundfiler;
#X obj 189 303 / 48;
#X obj 143 479 tabread4~ rain;
#X obj 448 370 hsl 128 15 0 10 0 0 empty empty empty -2 -8 0 10 #fcfcfc #000000 #000000 0 1;
#X floatatom 189 327 20 0 0 0 - - - 0;
#X obj 143 435 cyclone/line~;
#X obj 231 459 bng 15 250 50 0 empty empty empty 17 7 0 10 #fcfcfc #000000 #000000;
#X obj 143 197 loadbang;
#X obj 143 533 *~;
#X obj 445 184 inlet;
#X obj 143 557 outlet~;
#X floatatom 143 327 5 0 0 0 - - - 0;
#X obj 143 387 pack s f f;
#X obj 65 282 del 1;
#X msg 143 411 0 \, \$2 \$3;
#X connect 0 0 2 0;
#X connect 2 0 3 0;
#X connect 2 0 13 0;
#X connect 3 0 6 0;
#X connect 4 0 10 0;
#X connect 5 0 10 1;
#X connect 6 0 14 2;
#X connect 7 0 4 0;
#X connect 7 1 8 0;
#X connect 8 0 13 0;
#X connect 8 0 6 0;
#X connect 9 0 0 0;
#X connect 9 0 15 0;
#X connect 10 0 12 0;
#X connect 11 0 5 0;
#X connect 13 0 14 1;
#X connect 14 0 16 0;
#X connect 15 0 14 0;
#X connect 16 0 7 0;
#X restore 773 200 pd rain;
#X floatatom 773 171 5 0 0 0 - - - 0;
#X obj 776 149 hsl 128 15 0 10 0 0 empty empty empty -2 -8 0 10 #fcfcfc #000000 #000000 0 1;
#X obj 773 61 r rainLoudness;
#X obj 773 85 * 10;
#X obj 354 258 *~ 0.3;
#X text 364 25 0-12 ice \; 13-26 snow \; 27-37 water \; 38-51 wood \;;
#X obj 109 175 scale 0 1 0 51;
#X obj 239 175 scale 0 1 0 51;
#X text 117 83 NATURE;
#X obj 109 360 outlet~;
#X obj 498 64 text define n_samples;
#X obj 386 142 r n_midWindFrequency;
#X obj 355 112 r n_baseWind;
#X obj 109 112 r n_changeSample0;
#X obj 119 141 r n_trigSample0;
#X obj 418 172 r n_midWindQ;
#X obj 509 172 r n_whistleLoudness;
#X obj 649 172 r n_windLoudness;
#X obj 239 110 r n_changeSample1;
#X obj 249 141 r n_trigSample1;
#X connect 0 0 12 0;
#X connect 1 0 17 0;
#X connect 2 0 3 0;
#X connect 3 0 17 0;
#X connect 4 0 6 0;
#X connect 5 0 1 0;
#X connect 6 0 18 0;
#X connect 7 0 17 0;
#X connect 8 0 7 0;
#X connect 9 0 8 0;
#X connect 10 0 11 0;
#X connect 11 0 9 0;
#X connect 12 0 17 0;
#X connect 14 0 5 0;
#X connect 15 0 2 0;
#X connect 19 0 0 1;
#X connect 20 0 0 0;
#X connect 21 0 14 0;
#X connect 22 0 5 1;
#X connect 23 0 0 2;
#X connect 24 0 0 3;
#X connect 25 0 12 1;
#X connect 26 0 15 0;
#X connect 27 0 2 1;
#X coords 0 980 1 979 460 300 0;
