#N canvas -7 0 958 980 12;
#X floatatom 98 222 5 0 0 0 - - - 0;
#X obj 112 413 soundfiler;
#X obj 98 245 int;
#X floatatom 112 437 10 0 0 0 - - - 0;
#X obj 330 87 > 0.5;
#X obj 330 111 change;
#X obj 330 135 sel 1;
#X obj 397 181 / 48;
#X obj 330 255 line~;
#X obj 330 207 pack s f f;
#X msg 330 231 0 \, \$2 \$3;
#X obj 45 279 pack s f;
#X obj 45 303 unpack s f;
#X obj 45 333 bng 19 250 50 0 empty empty empty 0 -10 0 12 #fcfcfc #000000 #000000;
#X obj 98 166 inlet;
#X obj 330 51 inlet;
#X obj 330 330 outlet~;
#X obj 112 363 pack s \$0;
#X obj 330 160 t b b;
#X obj 329 283 tabread4~ \$0-n_sample;
#X obj 546 231 array define \$0-n_sample;
#X msg 113 388 read -resize resources/\$1 \$2-n_sample;
#X obj 112 340 text get n_samples;
#X connect 0 0 2 0;
#X connect 1 0 3 0;
#X connect 2 0 11 1;
#X connect 3 0 7 0;
#X connect 3 0 9 1;
#X connect 4 0 5 0;
#X connect 5 0 6 0;
#X connect 6 0 18 0;
#X connect 7 0 9 2;
#X connect 8 0 19 0;
#X connect 9 0 10 0;
#X connect 10 0 8 0;
#X connect 11 0 12 0;
#X connect 12 0 13 0;
#X connect 12 1 22 0;
#X connect 14 0 0 0;
#X connect 15 0 4 0;
#X connect 17 0 21 0;
#X connect 18 0 9 0;
#X connect 18 1 0 0;
#X connect 18 1 11 0;
#X connect 19 0 16 0;
#X connect 21 0 1 0;
#X connect 22 0 17 0;
#X coords 0 980 1 979 460 300 0;
