#N canvas 928 80 900 880 12;
#X obj 297 303 hsl 128 15 20 6000 0 0 empty empty empty -2 -8 0 10 #fcfcfc #000000 #000000 0 1;
#X obj 352 333 hsl 128 15 0 0.7 0 0 empty empty empty -2 -8 0 10 #fcfcfc #000000 #000000 0 1;
#X floatatom 294 246 5 0 0 0 - - - 0;
#X obj 294 336 +;
#X obj 294 269 t b f;
#X obj 48 388 svf~, f 8;
#X obj 88 336 hsl 128 15 20 1000 0 0 empty empty empty -2 -8 0 10 #fcfcfc #000000 #000000 0 1;
#X obj 59 274 noise~;
#X obj 60 571 *~ 1;
#X obj 310 444 *~ 0.1;
#X obj 445 474 hsl 128 15 0 0.02 0 0 empty empty empty -2 -8 0 10 #fcfcfc #000000 #000000 0 1;
#X obj 356 504 *~;
#X obj 243 408 svf~ 500 0.7, f 15;
#X obj 60 599 overdrive~ 2;
#X text 461 421 wind whistle \;;
#X obj 442 449 scale 0 1 0 0.02;
#X obj 459 307 scale 0 1 0 0.7;
#N canvas 417 146 450 786 whistle 0;
#X obj 138 271 outlet~;
#X obj 146 229 osc~;
#X floatatom 146 171 5 0 0 0 - - - 0;
#X floatatom 184 204 5 0 0 0 - - - 0;
#X obj 216 144 t b f;
#X obj 184 229 osc~;
#X obj 216 119 drunk 200 20;
#X obj 216 90 metro 50;
#X obj 146 194 +;
#X floatatom 229 205 5 0 0 0 - - - 0;
#X obj 229 230 osc~;
#X obj 229 181 -;
#X obj 306 229 osc~;
#X floatatom 306 171 5 0 0 0 - - - 0;
#X floatatom 344 204 5 0 0 0 - - - 0;
#X obj 376 144 t b f;
#X obj 344 229 osc~;
#X obj 376 119 drunk 200 20;
#X obj 306 194 +;
#X floatatom 389 205 5 0 0 0 - - - 0;
#X obj 389 230 osc~;
#X obj 389 181 -;
#X obj 146 91 loadbang;
#X msg 146 135 604;
#X obj 216 67 tgl 15 0 empty empty empty 17 7 0 10 #fcfcfc #000000 #000000 0 1;
#X obj 216 41 loadmess 1;
#X connect 1 0 0 0;
#X connect 2 0 8 0;
#X connect 2 0 11 0;
#X connect 3 0 5 0;
#X connect 4 0 2 0;
#X connect 4 1 8 1;
#X connect 4 1 11 1;
#X connect 5 0 0 0;
#X connect 6 0 4 0;
#X connect 7 0 6 0;
#X connect 7 0 17 0;
#X connect 8 0 1 0;
#X connect 8 0 3 0;
#X connect 9 0 10 0;
#X connect 10 0 0 0;
#X connect 11 0 9 0;
#X connect 12 0 0 0;
#X connect 13 0 18 0;
#X connect 13 0 21 0;
#X connect 14 0 16 0;
#X connect 15 0 13 0;
#X connect 15 1 18 1;
#X connect 15 1 21 1;
#X connect 16 0 0 0;
#X connect 17 0 15 0;
#X connect 18 0 12 0;
#X connect 18 0 14 0;
#X connect 19 0 20 0;
#X connect 20 0 0 0;
#X connect 21 0 19 0;
#X connect 22 0 23 0;
#X connect 23 0 2 0;
#X connect 23 0 13 0;
#X connect 24 0 7 0;
#X connect 25 0 24 0;
#X restore 357 470 pd whistle;
#X floatatom 305 365 5 0 0 0 - - - 0;
#X obj 60 623 hip~ 30;
#X floatatom 442 494 5 0 0 0 - - - 0;
#N canvas 93 138 450 300 windModTest 0;
#X obj 196 154 drunk 800 75;
#X obj 196 123 metro 100;
#X obj 196 210 spigot;
#X obj 235 187 tgl 15 0 empty empty empty 17 7 0 10 #fcfcfc #000000 #000000 0 1;
#X text 21 185 for testing sound modulation \;;
#X obj 196 93 inlet, f 6;
#X obj 196 234 outlet;
#X connect 0 0 2 0;
#X connect 1 0 0 0;
#X connect 2 0 6 0;
#X connect 3 0 2 1;
#X connect 5 0 1 0;
#X connect 5 0 3 0;
#X restore 65 38 pd windModTest;
#X obj 61 669 outlet~;
#X obj 144 268 inlet;
#X obj 346 98 inlet;
#X obj 459 100 inlet;
#X obj 578 192 inlet;
#X obj 65 9 tgl 15 0 empty empty empty 17 7 0 10 #fcfcfc #000000 #000000 0 1;
#X obj 562 449 loadmess 0.007;
#X obj 79 185 * 1;
#X obj 85 311 scale 0 1 1000 20;
#X obj 347 266 scale 0 1 2000 20;
#X connect 0 0 3 0;
#X connect 1 0 12 2;
#X connect 2 0 4 0;
#X connect 3 0 12 1;
#X connect 3 0 18 0;
#X connect 4 0 0 0;
#X connect 4 1 3 1;
#X connect 5 0 8 0;
#X connect 6 0 5 1;
#X connect 7 0 5 0;
#X connect 7 0 12 0;
#X connect 8 0 13 0;
#X connect 9 0 8 0;
#X connect 10 0 11 1;
#X connect 10 0 20 0;
#X connect 11 0 8 0;
#X connect 12 2 9 0;
#X connect 13 0 19 0;
#X connect 15 0 10 0;
#X connect 16 0 1 0;
#X connect 17 0 11 0;
#X connect 19 0 22 0;
#X connect 21 0 2 0;
#X connect 21 0 29 0;
#X connect 23 0 30 0;
#X connect 24 0 31 0;
#X connect 25 0 16 0;
#X connect 26 0 15 0;
#X connect 27 0 21 0;
#X connect 28 0 10 0;
#X connect 29 0 5 1;
#X connect 30 0 6 0;
#X connect 31 0 0 0;
