#N canvas 1917 0 1920 989 12;
#X msg 1455 127 filter \$1;
#X obj 916 177 808_sample, f 16;
#X obj 1455 97 r filter0;
#X obj 60 64 loadbang;
#X msg 1542 127 bitcrush \$1;
#X msg 1643 127 decay \$1;
#X obj 1643 97 r decay0;
#X obj 60 120 s sample0;
#X obj 142 64 loadbang;
#X obj 224 64 loadbang;
#X obj 142 120 s sample1;
#X obj 224 120 s sample2;
#X text 253 92 OH;
#X text 178 92 CP;
#X text 97 92 BD;
#X msg 1261 127 sample \$1;
#X msg 1190 396 filter \$1;
#X obj 916 429 808_sample, f 16;
#X msg 1277 396 bitcrush \$1;
#X msg 1378 396 decay \$1;
#X msg 995 396 sample \$1;
#X obj 1378 366 r decay2;
#X obj 1277 366 r bitcrush2;
#X obj 1190 366 r filter2;
#X obj 1354 97 r overdrive0;
#X obj 1089 366 r overdrive2;
#X msg 1354 127 overdrive \$1;
#X obj 334 64 loadbang;
#X msg 334 88 read resources/808_samples.txt;
#X obj 334 120 text define samples;
#X msg 60 92 0;
#X msg 142 92 0.15;
#X msg 224 92 0.25;
#N canvas 722 25 958 980 delay 0;
#N canvas 1917 0 1920 989 delays 0;
#X floatatom 247 475 5 0 0 0 - - - 0;
#X obj 257 445 svf~ 4000 0.4;
#X obj 247 582 *~ 0.5;
#X obj 320 647 delwrite~ del-left 4000;
#X floatatom 573 475 5 0 0 0 - - - 0;
#X obj 583 441 svf~ 4000 0.4;
#X obj 573 578 *~ 0.5;
#X obj 573 602 svf~ 1000 0.3;
#X obj 653 644 delwrite~ del-right 4000;
#X obj 231 678 outlet~;
#X obj 163 371 inlet~;
#X obj 514 678 outlet~;
#X obj 247 370 inlet;
#X obj 573 370 inlet;
#X obj 663 370 inlet;
#X obj 247 558 delread~ del-left 200;
#X obj 573 554 delread~ del-right 300;
#X obj 247 606 svf~ 1200 0.3;
#X obj 232 647 *~ 0.4;
#X obj 513 647 *~ 0.4;
#X msg 573 496 \$1 20;
#X obj 573 520 line;
#X msg 247 503 \$1 20;
#X obj 247 527 line;
#X connect 0 0 22 0;
#X connect 1 2 3 0;
#X connect 2 0 17 0;
#X connect 4 0 20 0;
#X connect 5 2 8 0;
#X connect 6 0 7 0;
#X connect 7 2 8 0;
#X connect 10 0 1 0;
#X connect 10 0 5 0;
#X connect 12 0 0 0;
#X connect 13 0 4 0;
#X connect 14 0 6 1;
#X connect 14 0 2 1;
#X connect 15 0 2 0;
#X connect 15 0 18 0;
#X connect 16 0 6 0;
#X connect 16 0 19 0;
#X connect 17 2 3 0;
#X connect 18 0 9 0;
#X connect 19 0 11 0;
#X connect 20 0 21 0;
#X connect 21 0 16 0;
#X connect 22 0 23 0;
#X connect 23 0 15 0;
#X restore 277 541 pd delays;
#X obj 340 477 hsl 128 15 0 0.7 0 0 empty empty empty -2 -8 0 10 #fcfcfc #000000 #000000 0 1;
#X floatatom 337 497 5 0 0 0 - - - 0;
#X text 383 499 0-0.7 \;;
#X obj 275 614 outlet~;
#X obj 335 614 outlet~;
#X obj 283 387 inlet;
#X obj 183 387 inlet~;
#X obj 233 387 inlet;
#X obj 333 387 inlet;
#X obj 146 637 outlet~;
#X obj 277 565 *~;
#X obj 337 565 *~;
#X obj 498 455 inlet;
#X text 461 348 0 sound \; 1 delay time left \; 2 delay time right \; 3 feedback \; 4 wet level \;;
#X obj 421 565 loadmess 0;
#X obj 363 436 r x_delWet;
#X connect 0 0 11 0;
#X connect 0 1 12 0;
#X connect 1 0 2 0;
#X connect 2 0 0 3;
#X connect 6 0 0 2;
#X connect 7 0 0 0;
#X connect 7 0 10 0;
#X connect 8 0 0 1;
#X connect 9 0 1 0;
#X connect 11 0 4 0;
#X connect 12 0 5 0;
#X connect 13 0 12 1;
#X connect 13 0 11 1;
#X connect 15 0 12 1;
#X connect 15 0 11 1;
#X connect 16 0 12 1;
#X connect 16 0 11 1;
#X restore 504 575 pd delay;
#X f 18;
#X obj 641 326 r delTimeRight;
#X obj 534 326 r delTimeLeft;
#X obj 720 513 r feedback;
#X obj 720 537 scale 0 1 0 0.7;
#X obj 835 537 r wetLevel;
#X obj 505 613 *~ 1;
#X obj 534 404 *;
#X floatatom 534 468 5 0 0 0 - - - 0;
#X obj 641 406 *;
#X floatatom 641 470 5 0 0 0 - - - 0;
#X msg 1670 159 decay 2000;
#X obj 505 637 outlet~;
#X obj 1261 97 r x_sample0;
#X obj 1542 97 r x_bitcrush0;
#X obj 967 210 s x808_index;
#X obj 916 143 r x_trig0;
#X obj 995 366 r x_sample2;
#X obj 916 366 r x_trig1;
#X msg 1089 396 overdrive 1;
#X obj 534 380 * 30;
#X obj 355 323 ctlin 20 23;
#X obj 445 323 ctlin 21 23;
#X obj 445 347 / 127;
#X obj 355 347 / 127;
#X obj 641 382 * 50;
#X obj 534 428 + 100;
#X obj 641 430 + 100;
#X connect 0 0 1 1;
#X connect 1 0 33 0;
#X connect 1 1 48 0;
#X connect 2 0 0 0;
#X connect 3 0 30 0;
#X connect 4 0 1 1;
#X connect 5 0 1 1;
#X connect 6 0 5 0;
#X connect 8 0 31 0;
#X connect 9 0 32 0;
#X connect 15 0 1 1;
#X connect 17 0 33 0;
#X connect 20 0 17 1;
#X connect 21 0 19 0;
#X connect 22 0 18 0;
#X connect 23 0 16 0;
#X connect 24 0 26 0;
#X connect 25 0 52 0;
#X connect 26 0 1 1;
#X connect 27 0 28 0;
#X connect 28 0 29 0;
#X connect 30 0 7 0;
#X connect 31 0 10 0;
#X connect 32 0 11 0;
#X connect 33 0 39 0;
#X connect 33 1 39 0;
#X connect 33 2 39 0;
#X connect 36 0 37 0;
#X connect 37 0 33 3;
#X connect 38 0 33 4;
#X connect 39 0 45 0;
#X connect 40 0 59 0;
#X connect 41 0 33 1;
#X connect 42 0 60 0;
#X connect 43 0 33 2;
#X connect 44 0 1 1;
#X connect 46 0 15 0;
#X connect 47 0 4 0;
#X connect 49 0 1 0;
#X connect 50 0 20 0;
#X connect 51 0 17 0;
#X connect 52 0 17 0;
#X connect 53 0 40 0;
#X connect 53 0 40 1;
#X connect 54 0 57 0;
#X connect 55 0 56 0;
#X connect 56 0 58 0;
#X connect 57 0 53 0;
#X connect 58 0 42 0;
#X connect 58 0 42 1;
#X connect 59 0 41 0;
#X connect 60 0 43 0;
