#N canvas 0 0 967 1050 12;
#X obj 78 71 oscparse;
#X obj 78 90 list trim;
#X obj 78 109 route tidal;
#X floatatom 78 173 5 0 0 0 - - - 0;
#X floatatom 117 173 5 0 0 0 - - - 0;
#X floatatom 156 173 5 0 0 0 - - - 0;
#X floatatom 197 173 5 0 0 0 - - - 0;
#X floatatom 237 173 5 0 0 0 - - - 0;
#X obj 78 154 unpack f f f f f;
#X obj 78 128 route hi;
#X obj 173 104 symbol \$1;
#X obj 77 201 outlet;
#X obj 127 201 outlet;
#X obj 177 201 outlet;
#X obj 227 201 outlet;
#X obj 277 201 outlet;
#X listbox 173 123 20 0 0 0 - - - 0;
#X obj 167 80 loadbang;
#X obj 78 53 inlet;
#X connect 0 0 1 0;
#X connect 1 0 2 0;
#X connect 2 0 9 0;
#X connect 8 0 3 0;
#X connect 8 0 11 0;
#X connect 8 1 4 0;
#X connect 8 1 12 0;
#X connect 8 2 5 0;
#X connect 8 2 13 0;
#X connect 8 3 6 0;
#X connect 8 3 14 0;
#X connect 8 4 7 0;
#X connect 8 4 15 0;
#X connect 9 0 8 0;
#X connect 10 0 9 1;
#X connect 10 0 16 0;
#X connect 17 0 10 0;
#X connect 18 0 0 0;
