#N canvas 0 0 958 1050 12;
#X obj 251 138 - 100;
#X obj 137 161 - 100;
#X obj 136 117 env~ 16384 8192;
#X obj 251 117 env~ 16384 8192;
#X obj 137 198 -;
#X floatatom 137 231 5 0 0 0 - - - 0;
#X obj 251 87 *~ 0.5;
#X obj 418 20 vsl 15 128 0 127 0 0 empty empty empty 0 -9 0 12 #fcfcfc #000000 #000000 0 1;
#X obj 418 156 / 127;
#X floatatom 418 175 5 0 0 0 - - - 0;
#X obj 63 196 average~;
#X msg 69 80 rms;
#X obj 76 278 rmstodb~;
#X floatatom 76 316 5 0 0 0 - - - 0;
#X obj 76 334 - 100;
#X floatatom 76 353 5 0 0 0 - - - 0;
#X floatatom 129 355 5 0 0 0 - - - 0;
#X obj 76 297 cyclone/snapshot~ 100;
#X obj 136 50 sig~;
#X obj 283 177 vsl 15 128 0 127 0 0 empty empty empty 0 -9 0 12 #fcfcfc #000000 #000000 0 1;
#X obj 283 313 / 127;
#X floatatom 283 332 5 0 0 0 - - - 0;
#X connect 0 0 4 1;
#X connect 1 0 4 0;
#X connect 1 0 16 0;
#X connect 2 0 1 0;
#X connect 3 0 0 0;
#X connect 4 0 5 0;
#X connect 6 0 3 0;
#X connect 7 0 8 0;
#X connect 8 0 6 1;
#X connect 8 0 9 0;
#X connect 10 0 12 0;
#X connect 11 0 10 0;
#X connect 12 0 17 0;
#X connect 13 0 14 0;
#X connect 14 0 15 0;
#X connect 17 0 13 0;
#X connect 18 0 2 0;
#X connect 18 0 6 0;
#X connect 18 0 10 0;
#X connect 19 0 20 0;
#X connect 20 0 21 0;
#X connect 21 0 18 0;
