#N canvas 0 0 900 1050 12;
#X obj 163 148 metro;
#X floatatom 195 74 5 0 0 0 - - - 0;
#X obj 163 259 midiout;
#X obj 163 110 tgl 15 0 empty empty empty 17 7 0 10 #fcfcfc #000000
#000000 0 1;
#X msg 163 201 248;
#X obj 163 177 bng 15 250 50 0 empty empty empty 17 7 0 10 #fcfcfc
#000000 #000000;
#X msg 88 201 252;
#X msg 122 201 250;
#X obj 88 170 sel 0 1;
#X obj 195 105 expr (60000/$f1/24);
#X text 165 49 clock out;
#X text 356 49 beatstep midi channel 10 \;;
#X floatatom 341 266 5 0 0 0 - - - 0;
#X obj 341 153 metro;
#X obj 341 182 bng 15 250 50 0 empty empty empty 17 7 0 10 #fcfcfc
#000000 #000000;
#X obj 341 241 counter 0 15;
#X obj 342 104 expr (60000/$f1/4);
#X obj 79 489 route 44 45 46 47 48 49 50 51 36 37 38 39 40 41 42 43
;
#X obj 731 179 ctlin, f 29;
#X obj 685 294 pak f f;
#X text 727 150 pads input;
#X obj 144 738 bng 15 250 50 0 empty empty empty 17 7 0 10 #fcfcfc
#000000 #000000;
#X obj 18 555 zl lookup;
#X obj 28 791 overdrive~ 10;
#X obj 29 765 osc~ 44;
#X obj 29 866 dac~;
#X obj 28 816 *~;
#X obj 144 789 line;
#X obj 908 867 bng 15 250 50 0 empty empty empty 17 7 0 10 #fcfcfc
#000000 #000000;
#X obj 632 323 gate 4 1;
#X obj 632 189 ctlin 7;
#X floatatom 632 247 5 0 0 0 - - - 0;
#X obj 793 996 dac~;
#X obj 792 946 *~;
#X obj 908 919 line;
#X obj 793 895 osc~ 400;
#X obj 792 921 overdrive~ 1;
#N canvas 0 0 1920 1052 pad-control 0;
#X obj 148 288 ctlout 45;
#X obj 228 288 ctlout 46;
#X obj 308 288 ctlout 47;
#X obj 388 288 ctlout 48;
#X obj 468 288 ctlout 49;
#X obj 548 288 ctlout 50;
#X obj 628 288 ctlout 51;
#X obj 708 288 ctlout 36;
#X obj 788 288 ctlout 37;
#X obj 868 288 ctlout 38;
#X obj 948 288 ctlout 39;
#X obj 1028 288 ctlout 40;
#X obj 1108 288 ctlout 41;
#X obj 1188 288 ctlout 42;
#X obj 1269 288 ctlout 43;
#X obj 68 288 ctlout 44;
#X msg 1370 218 10;
#X obj 1370 192 loadbang;
#X obj 68 85 inlet;
#X obj 68 110 unpack f f f f f f f f f f f f f f f f, f 172;
#X text 1367 167 midi ch.;
#X connect 16 0 15 2;
#X connect 16 0 0 2;
#X connect 16 0 1 2;
#X connect 16 0 2 2;
#X connect 16 0 3 2;
#X connect 16 0 4 2;
#X connect 16 0 5 2;
#X connect 16 0 6 2;
#X connect 16 0 7 2;
#X connect 16 0 8 2;
#X connect 16 0 9 2;
#X connect 16 0 10 2;
#X connect 16 0 11 2;
#X connect 16 0 12 2;
#X connect 16 0 13 2;
#X connect 16 0 14 2;
#X connect 17 0 16 0;
#X connect 18 0 19 0;
#X connect 19 0 15 0;
#X connect 19 1 0 0;
#X connect 19 2 1 0;
#X connect 19 3 2 0;
#X connect 19 4 3 0;
#X connect 19 5 4 0;
#X connect 19 6 5 0;
#X connect 19 7 6 0;
#X connect 19 8 7 0;
#X connect 19 9 8 0;
#X connect 19 10 9 0;
#X connect 19 11 10 0;
#X connect 19 12 11 0;
#X connect 19 13 12 0;
#X connect 19 14 13 0;
#X connect 19 15 14 0;
#X restore 403 703 pd pad-control;
#X f 16;
#X obj 1047 988 dac~;
#X obj 1046 938 *~;
#X obj 1162 881 line;
#X msg 1162 856 1 \, 0 20;
#X obj 1047 857 noise~;
#X obj 1441 839 bng 15 250 50 0 empty empty empty 17 7 0 10 #fcfcfc
#000000 #000000;
#X obj 1326 968 dac~;
#X obj 1325 918 *~;
#X obj 1441 891 line;
#X msg 1441 866 1 \, 0 20;
#X obj 1325 893 overdrive~ 1;
#X obj 1326 867 osc~ 800;
#X obj 1046 883 svf~ 1200 0.4;
#X obj 79 524 pak f f f f f f f f f f f f f f f f, f 49;
#X obj 18 580 sel 127;
#X obj 628 516 route 44 45 46 47 48 49 50 51 36 37 38 39 40 41 42 43
;
#X obj 567 582 zl lookup;
#X obj 628 551 pak f f f f f f f f f f f f f f f f, f 49;
#X obj 567 607 sel 127;
#X obj 474 359 sel 0 1 2 3;
#X obj 632 271 + 1;
#X msg 144 764 0.4 \, 0 200;
#X msg 908 894 0.5 \, 0 100;
#X connect 0 0 5 0;
#X connect 1 0 9 0;
#X connect 1 0 16 0;
#X connect 3 0 0 0;
#X connect 3 0 8 0;
#X connect 3 0 13 0;
#X connect 4 0 2 0;
#X connect 5 0 4 0;
#X connect 6 0 2 0;
#X connect 7 0 2 0;
#X connect 8 0 6 0;
#X connect 8 0 15 2;
#X connect 8 1 7 0;
#X connect 9 0 0 1;
#X connect 12 0 22 0;
#X connect 12 0 54 0;
#X connect 13 0 14 0;
#X connect 14 0 15 0;
#X connect 15 0 12 0;
#X connect 16 0 13 1;
#X connect 17 0 51 0;
#X connect 17 1 51 1;
#X connect 17 2 51 2;
#X connect 17 3 51 3;
#X connect 17 4 51 4;
#X connect 17 5 51 5;
#X connect 17 6 51 6;
#X connect 17 7 51 7;
#X connect 17 8 51 8;
#X connect 17 9 51 9;
#X connect 17 10 51 10;
#X connect 17 11 51 11;
#X connect 17 12 51 12;
#X connect 17 13 51 13;
#X connect 17 14 51 14;
#X connect 17 15 51 15;
#X connect 18 0 19 1;
#X connect 18 1 19 0;
#X connect 19 0 29 1;
#X connect 21 0 59 0;
#X connect 22 0 52 0;
#X connect 23 0 26 0;
#X connect 24 0 23 0;
#X connect 26 0 25 0;
#X connect 26 0 25 1;
#X connect 27 0 26 1;
#X connect 28 0 60 0;
#X connect 29 0 17 0;
#X connect 29 1 53 0;
#X connect 30 0 57 0;
#X connect 30 0 31 0;
#X connect 31 0 58 0;
#X connect 33 0 32 0;
#X connect 33 0 32 1;
#X connect 34 0 33 1;
#X connect 35 0 36 0;
#X connect 36 0 33 0;
#X connect 39 0 38 0;
#X connect 39 0 38 1;
#X connect 40 0 39 1;
#X connect 41 0 40 0;
#X connect 42 0 50 0;
#X connect 43 0 47 0;
#X connect 45 0 44 0;
#X connect 45 0 44 1;
#X connect 46 0 45 1;
#X connect 47 0 46 0;
#X connect 48 0 45 0;
#X connect 49 0 48 0;
#X connect 50 2 39 0;
#X connect 51 0 22 1;
#X connect 51 0 37 0;
#X connect 52 0 21 0;
#X connect 53 0 55 0;
#X connect 53 1 55 1;
#X connect 53 2 55 2;
#X connect 53 3 55 3;
#X connect 53 4 55 4;
#X connect 53 5 55 5;
#X connect 53 6 55 6;
#X connect 53 7 55 7;
#X connect 53 8 55 8;
#X connect 53 9 55 9;
#X connect 53 10 55 10;
#X connect 53 11 55 11;
#X connect 53 12 55 12;
#X connect 53 13 55 13;
#X connect 53 14 55 14;
#X connect 53 15 55 15;
#X connect 54 0 56 0;
#X connect 55 0 54 1;
#X connect 55 0 37 0;
#X connect 56 0 28 0;
#X connect 57 0 51 0;
#X connect 57 1 55 0;
#X connect 58 0 29 0;
#X connect 59 0 27 0;
#X connect 60 0 34 0;
