#N canvas 0 0 1140 1050 12;
#X text 947 605 major I \, ii° \, iii \, IV \, V \, vi \, vii \; natural minor i \, ii° \, III \, iv \, v \, VI \, VII \;;
#X text 946 639 ° = diminished;
#X obj 945 570 text define -k degrees;
#A set 1 5 0 1 1 0 0 natural_minor \;;
#X obj 894 219 text get degrees;
#X floatatom 894 195 5 0 0 0 - - - 0;
#X floatatom 940 151 5 0 0 0 - - - 0;
#X obj 940 175 t b f;
#X obj 940 102 uzi 4 0;
#X obj 940 127 random 7;
#X obj 940 73 bng 15 250 50 0 empty empty empty 17 7 0 10 #fcfcfc #000000 #000000;
#X floatatom 736 348 5 0 0 0 - - - 0;
#X obj 834 273 zl lookup;
#X obj 781 376 +;
#X obj 767 320 t b f;
#X obj 767 54 tgl 15 0 empty empty empty 17 7 0 10 #fcfcfc #000000 #000000 0 1;
#X obj 767 128 counter 3;
#X floatatom 767 153 5 0 0 0 - - - 0;
#X floatatom 781 401 5 0 0 0 - - - 0;
#X text 666 349 root note;
#X obj 894 247 zl group 4;
#X obj 827 170 zl group 4;
#X obj 767 200 zl lookup;
#X floatatom 834 298 5 0 0 0 - - - 0;
#X floatatom 767 225 5 0 0 0 - - - 0;
#X obj 710 113 bng 15 250 50 0 empty empty empty 17 7 0 10 #fcfcfc #000000 #000000;
#X obj 1061 377 text get combinations;
#X obj 1061 402 unpack s f f f f f, f 32;
#X obj 1087 460 +;
#X obj 1131 460 +;
#X obj 1175 460 +;
#X obj 944 510 makenote, f 11;
#X obj 1219 460 +;
#X obj 1264 460 +;
#X msg 981 318 100;
#X text 673 265 random 4 chord progression, f 11;
#X obj 710 89 change;
#X obj 1598 549 text define -k g-minor-scale;
#A set 43 \; 45 \; 46 \; 48 \; 50 \; 51 \; 53 \;;
#X obj 1430 549 text get g-minor-scale;
#X floatatom 1087 515 5 0 0 0 - - - 0;
#X floatatom 1131 515 5 0 0 0 - - - 0;
#X floatatom 1175 515 5 0 0 0 - - - 0;
#X floatatom 1219 515 5 0 0 0 - - - 0;
#X floatatom 1264 515 5 0 0 0 - - - 0;
#X msg 1018 318 3000;
#X text 774 14 random progression based on music theory;
#X floatatom 850 554 5 0 0 0 - - - 0;
#X obj 896 520 bng 15 250 50 0 empty empty empty 17 7 0 10 #fcfcfc #000000 #000000;
#X obj 1323 9 tgl 30 0 empty empty empty 17 7 0 10 #00ff04 #000000 #000000 0 1;
#X floatatom 1376 33 5 0 0 0 - - - 0;
#X obj 1323 -26 bng 30 250 50 0 empty empty empty 17 7 0 10 #00ff04 #000000 #000000;
#N canvas 0 0 1920 1052 clock 0;
#X obj 32 161 i;
#X obj 63 161 + 1;
#X obj 32 33 tgl 15 0 empty empty empty 17 7 0 10 #fcfcfc #000000 #000000 0 1;
#X msg 131 132 0;
#X obj 92 266 + 1;
#X obj 131 107 sel 0;
#X text 174 108 reset;
#X floatatom 562 33 5 0 0 0 - - - 0;
#X obj 32 107 metro, f 12;
#X obj 92 242 i;
#X obj 92 290 %;
#X obj 32 198 %;
#X floatatom 92 314 5 0 0 0 - - - 0;
#X obj 92 218 sel;
#X obj 123 218 - 1;
#X obj 32 223 s pos;
#X obj 227 178 r steps;
#X obj 474 133 tgl 15 0 empty empty empty 17 7 0 10 #fcfcfc #000000 #000000 0 1;
#X obj 474 214 midiout;
#X obj 365 160 select 0 1;
#X msg 365 194 252;
#X msg 402 194 250;
#X msg 474 187 248;
#X obj 474 157 metro 20.8333;
#X obj 562 57 expr (60000/$f1);
#X obj 562 125 / 24;
#X obj 522 89 / 4;
#X obj 32 11 inlet;
#X obj 562 9 inlet;
#X obj 572 158 s clock;
#X obj 92 338 + 1;
#X obj 92 362 s pattern_start;
#X text 371 226 MIDI OUT SYNC;
#X text 65 261 STEP COUNTER, f 1;
#X text 607 33 BPM CALCULATOR;
#X connect 0 0 1 0;
#X connect 0 0 11 0;
#X connect 1 0 0 1;
#X connect 2 0 5 0;
#X connect 2 0 8 0;
#X connect 2 0 17 0;
#X connect 3 0 0 1;
#X connect 3 0 9 1;
#X connect 3 0 10 0;
#X connect 4 0 9 1;
#X connect 4 0 10 0;
#X connect 5 0 3 0;
#X connect 7 0 24 0;
#X connect 8 0 0 0;
#X connect 9 0 4 0;
#X connect 10 0 12 0;
#X connect 11 0 13 0;
#X connect 11 0 15 0;
#X connect 12 0 30 0;
#X connect 13 0 9 0;
#X connect 14 0 13 1;
#X connect 16 0 10 1;
#X connect 16 0 14 0;
#X connect 16 0 11 1;
#X connect 17 0 19 0;
#X connect 17 0 23 0;
#X connect 19 0 20 0;
#X connect 19 1 21 0;
#X connect 20 0 18 0;
#X connect 21 0 18 0;
#X connect 22 0 18 0;
#X connect 23 0 22 0;
#X connect 24 0 26 0;
#X connect 24 0 25 0;
#X connect 25 0 23 1;
#X connect 25 0 29 0;
#X connect 26 0 8 1;
#X connect 27 0 2 0;
#X connect 28 0 7 0;
#X connect 30 0 31 0;
#X restore 1323 61 pd clock;
#X obj 1376 9 loadmess 128;
#X obj 1534 262 r pos;
#X obj 1323 -53 r pattern_start;
#X text 1562 358 sound notes on ch. 10 \;;
#X obj 1290 113 loadmess 16;
#X obj 1290 138 s steps;
#X obj 1528 312 viseq_gen;
#X obj 1534 454 noteout 1, f 18;
#X obj 944 545 noteout 1, f 23;
#X obj 1476 504 random 6;
#X obj 1430 574 - 2;
#X floatatom 1430 599 5 0 0 0 - - - 0;
#X msg 1337 264 40;
#X msg 1375 266 47;
#X obj 1385 166 counter 3;
#X msg 1427 86 0;
#X obj 1438 118 bng 15 250 50 0 empty empty empty 17 7 0 10 #fcfcfc #000000 #000000;
#X msg 1417 262 50;
#X msg 1448 264 43;
#X obj 278 385 ctlout 69;
#X floatatom 267 248 5 0 0 0 - - - 0;
#X obj 185 167 hsl 128 15 0 127 0 0 empty empty empty -2 -8 0 12 #fcfcfc #000000 #000000 0 1;
#X floatatom 182 187 5 0 0 0 - - - 0;
#X obj 1395 209 bng 15 250 50 0 empty empty empty 0 -8 0 12 #fcfcfc #000000 #000000;
#X obj 1535 412 makenote 127 1;
#X connect 3 0 19 0;
#X connect 4 0 3 0;
#X connect 5 0 6 0;
#X connect 5 0 20 0;
#X connect 6 0 4 0;
#X connect 6 1 3 1;
#X connect 7 0 8 0;
#X connect 8 0 5 0;
#X connect 9 0 7 0;
#X connect 10 0 12 0;
#X connect 11 0 22 0;
#X connect 12 0 17 0;
#X connect 13 0 10 0;
#X connect 13 1 12 1;
#X connect 14 0 35 0;
#X connect 15 0 16 0;
#X connect 16 0 21 0;
#X connect 16 0 11 0;
#X connect 17 0 27 0;
#X connect 17 0 28 0;
#X connect 17 0 29 0;
#X connect 17 0 31 0;
#X connect 17 0 32 0;
#X connect 19 0 11 1;
#X connect 20 0 21 1;
#X connect 21 0 23 0;
#X connect 22 0 25 0;
#X connect 23 0 13 0;
#X connect 24 0 15 2;
#X connect 25 0 26 0;
#X connect 26 1 27 1;
#X connect 26 2 28 1;
#X connect 26 3 29 1;
#X connect 26 4 31 1;
#X connect 26 5 32 1;
#X connect 27 0 30 0;
#X connect 27 0 38 0;
#X connect 28 0 30 0;
#X connect 28 0 39 0;
#X connect 29 0 30 0;
#X connect 29 0 40 0;
#X connect 30 0 46 0;
#X connect 31 0 41 0;
#X connect 31 0 30 0;
#X connect 32 0 42 0;
#X connect 32 0 30 0;
#X connect 33 0 30 1;
#X connect 35 0 24 0;
#X connect 37 0 61 0;
#X connect 43 0 30 2;
#X connect 47 0 50 0;
#X connect 47 0 66 0;
#X connect 47 0 67 0;
#X connect 48 0 50 1;
#X connect 49 0 65 0;
#X connect 49 0 74 0;
#X connect 51 0 48 0;
#X connect 52 0 57 0;
#X connect 53 0 49 0;
#X connect 55 0 56 0;
#X connect 60 0 37 0;
#X connect 61 0 62 0;
#X connect 63 0 75 0;
#X connect 64 0 75 0;
#X connect 67 0 65 3;
#X connect 68 0 75 0;
#X connect 69 0 75 0;
#X connect 72 0 70 0;
#X connect 72 0 73 0;
#X connect 74 0 64 0;
#X connect 75 0 58 0;
#X connect 75 1 58 1;
