#N canvas 0 0 1920 1052 12;
#X obj 115 595 text define -k combinations;
#A set major 0 4 7 12 \; minor 0 3 7 12 \; major7 0 4 7 11 \; minor7
0 3 7 10 \; minor75 0 3 6 10 \; dim 0 3 6 9 \; major9 0 4 7 11 14 \;
minor9 0 3 7 10 14 \;;
#X obj 182 437 text get combinations;
#X obj 182 462 unpack s f f f f f, f 32;
#X text 227 646 0 major \; 1 minor \; 2 major7 \; 3 minor7 \; 4 minor75
\; 5 dim \; 6 major9 \; 7 minor9 \;;
#X listbox 115 360 20 0 0 0 - - - 0;
#X floatatom 115 501 5 0 0 0 - - - 0;
#X floatatom 182 409 5 0 0 0 - - - 0;
#X obj 208 520 +;
#X obj 252 520 +;
#X obj 296 520 +;
#X obj 115 540 makenote, f 12;
#X floatatom 420 521 5 0 0 0 - - - 0;
#X obj 115 565 noteout, f 23;
#X obj 340 520 +;
#X obj 385 520 +;
#X obj 115 254 metro 1200;
#X obj 115 235 tgl 15 0 empty empty empty 17 7 0 10 #fcfcfc #000000
#000000 0 1;
#X obj 115 334 text get progression;
#X floatatom 115 304 5 0 0 0 - - - 0;
#X floatatom 182 231 5 0 0 0 - - - 0;
#X obj 115 620 text define -k progression;
#A set 45 1 100 500 \; 43 0 50 1200 \; 38 0 80 2000 \; 41 0 100 1600
\;;
#X obj 115 279 counter 3;
#X obj 115 419 +;
#X msg 80 399 12;
#X msg 15 399 -12;
#X msg 48 399 0;
#X obj 197 264 bng 15 250 50 0 empty empty empty 17 7 0 10 #fcfcfc
#000000 #000000;
#X floatatom 482 521 5 0 0 0 - - - 0;
#X obj 115 384 unpack f f f f, f 45;
#X text 480 504 length;
#X text 424 502 vel, f 4;
#X text 113 646 0 note \; 1 chord \; 2 velocity \; 3 length \;;
#X obj 690 289 random 1000;
#X obj 690 314 + 1000;
#X obj 812 274 bng 15 250 50 0 empty empty empty 17 7 0 10 #fcfcfc
#000000 #000000;
#X obj 456 364 pack f f f f;
#X obj 456 314 + 40;
#X obj 456 289 random 20;
#X obj 606 314 + 40;
#X obj 606 289 random 60;
#X obj 536 289 random 2;
#X obj 456 389 print;
#X obj 456 60 metro 1200;
#X obj 456 41 tgl 15 0 empty empty empty 17 7 0 10 #fcfcfc #000000
#000000 0 1;
#X floatatom 523 37 5 0 0 0 - - - 0;
#X obj 456 85 counter 3;
#X obj 456 135 sel 0 1 2 3;
#X msg 456 166 seed 1;
#X msg 516 166 seed 3957;
#X msg 596 166 seed 33;
#X msg 676 166 seed 599;
#X floatatom 456 110 5 0 0 0 - - - 0;
#X text 430 99 random progression, f 1;
#X connect 1 0 2 0;
#X connect 2 1 7 1;
#X connect 2 2 8 1;
#X connect 2 3 9 1;
#X connect 2 4 13 1;
#X connect 2 5 14 1;
#X connect 4 0 28 0;
#X connect 5 0 10 0;
#X connect 5 0 7 0;
#X connect 5 0 9 0;
#X connect 5 0 8 0;
#X connect 5 0 13 0;
#X connect 5 0 14 0;
#X connect 6 0 1 0;
#X connect 7 0 10 0;
#X connect 8 0 10 0;
#X connect 9 0 10 0;
#X connect 10 0 12 0;
#X connect 10 1 12 1;
#X connect 11 0 10 1;
#X connect 13 0 10 0;
#X connect 14 0 10 0;
#X connect 15 0 21 0;
#X connect 16 0 15 0;
#X connect 17 0 4 0;
#X connect 18 0 17 0;
#X connect 19 0 15 1;
#X connect 21 0 18 0;
#X connect 22 0 5 0;
#X connect 23 0 22 1;
#X connect 24 0 22 1;
#X connect 25 0 22 1;
#X connect 26 0 21 2;
#X connect 26 0 45 2;
#X connect 27 0 10 2;
#X connect 28 0 22 0;
#X connect 28 1 6 0;
#X connect 28 2 11 0;
#X connect 28 3 27 0;
#X connect 32 0 33 0;
#X connect 33 0 35 3;
#X connect 34 0 32 0;
#X connect 34 0 37 0;
#X connect 34 0 39 0;
#X connect 34 0 40 0;
#X connect 35 0 28 0;
#X connect 35 0 41 0;
#X connect 36 0 35 0;
#X connect 37 0 36 0;
#X connect 38 0 35 2;
#X connect 39 0 38 0;
#X connect 40 0 35 1;
#X connect 42 0 45 0;
#X connect 43 0 42 0;
#X connect 44 0 42 1;
#X connect 45 0 51 0;
#X connect 46 0 47 0;
#X connect 46 1 48 0;
#X connect 46 2 49 0;
#X connect 46 3 50 0;
#X connect 47 0 37 0;
#X connect 47 0 40 0;
#X connect 47 0 39 0;
#X connect 47 0 32 0;
#X connect 47 0 34 0;
#X connect 48 0 37 0;
#X connect 48 0 40 0;
#X connect 48 0 39 0;
#X connect 48 0 32 0;
#X connect 48 0 34 0;
#X connect 49 0 37 0;
#X connect 49 0 40 0;
#X connect 49 0 39 0;
#X connect 49 0 32 0;
#X connect 49 0 34 0;
#X connect 50 0 37 0;
#X connect 50 0 40 0;
#X connect 50 0 39 0;
#X connect 50 0 32 0;
#X connect 50 0 34 0;
#X connect 51 0 46 0;
