#N canvas 0 0 1418 1050 12;
#X obj 126 476 text define -k combinations;
#A set major 0 4 7 12 \; minor 0 3 7 12 \; major7 0 4 7 11 \; minor7
0 3 7 10 \; minor75 0 3 6 10 \; dim 0 3 6 9 \; major9 0 4 7 11 14 \;
minor9 0 3 7 10 14 \;;
#X obj 193 278 text get combinations;
#X obj 193 303 unpack s f f f f f, f 32;
#X text 238 527 0 major \; 1 minor \; 2 major7 \; 3 minor7 \; 4 minor75
\; 5 dim \; 6 major9 \; 7 minor9 \;;
#X listbox 126 201 20 0 0 0 - - - 0;
#X floatatom 126 342 5 0 0 0 - - - 0;
#X floatatom 193 250 5 0 0 0 - - - 0;
#X obj 219 361 +;
#X obj 263 361 +;
#X obj 307 361 +;
#X obj 126 421 makenote, f 12;
#X floatatom 431 362 5 0 0 0 - - - 0;
#X obj 351 361 +;
#X obj 396 361 +;
#X obj 126 95 metro 1200;
#X obj 126 76 tgl 15 0 empty empty empty 17 7 0 10 #fcfcfc #000000
#000000 0 1;
#X floatatom 126 145 5 0 0 0 - - - 0;
#X floatatom 193 72 5 0 0 0 - - - 0;
#X obj 126 501 text define -k progression;
#A set 45 1 100 500 \; 43 0 70 1200 \; 38 0 80 2000 \; 41 0 100 1600
\;;
#X obj 126 120 counter 3;
#X obj 126 260 +;
#X msg 91 240 12;
#X msg 26 240 -12;
#X msg 59 240 0;
#X obj 208 105 bng 15 250 50 0 empty empty empty 17 7 0 10 #fcfcfc
#000000 #000000;
#X floatatom 493 362 5 0 0 0 - - - 0;
#X obj 126 225 unpack f f f f, f 45;
#X text 491 345 length;
#X text 435 343 vel, f 4;
#X text 124 527 0 note \; 1 chord \; 2 velocity \; 3 length \;;
#X text 152 598 36 = C2;
#X text 947 615 major I \, ii° \, iii \, IV \, V \, vi \, vii \; natural
minor i \, ii° \, III \, iv \, v \, VI \, VII \;;
#X text 946 649 ° = diminished;
#X obj 945 580 text define -k degrees;
#A set 1 5 0 1 1 0 0 natural_minor \;;
#X obj 894 229 text get degrees;
#X floatatom 894 205 5 0 0 0 - - - 0;
#X floatatom 940 161 5 0 0 0 - - - 0;
#X obj 940 185 t b f;
#X obj 940 112 uzi 4 0;
#X obj 940 137 random 7;
#X obj 940 83 bng 15 250 50 0 empty empty empty 17 7 0 10 #fcfcfc #000000
#000000;
#X floatatom 736 358 5 0 0 0 - - - 0;
#X obj 834 283 zl lookup;
#X obj 781 386 +;
#X obj 767 330 t b f;
#X obj 767 113 metro 1200;
#X obj 767 64 tgl 15 0 empty empty empty 17 7 0 10 #fcfcfc #000000
#000000 0 1;
#X floatatom 834 60 5 0 0 0 - - - 0;
#X obj 767 138 counter 3;
#X floatatom 767 163 5 0 0 0 - - - 0;
#X floatatom 781 411 5 0 0 0 - - - 0;
#X text 666 359 root note;
#X obj 894 257 zl group 4;
#X obj 827 180 zl group 4;
#X obj 767 210 zl lookup;
#X floatatom 834 308 5 0 0 0 - - - 0;
#X floatatom 767 235 5 0 0 0 - - - 0;
#X obj 710 123 bng 15 250 50 0 empty empty empty 17 7 0 10 #fcfcfc
#000000 #000000;
#X obj 1061 387 text get combinations;
#X obj 1061 412 unpack s f f f f f, f 32;
#X obj 1087 470 +;
#X obj 1131 470 +;
#X obj 1175 470 +;
#X obj 944 520 makenote, f 11;
#X obj 1219 470 +;
#X obj 1264 470 +;
#X msg 981 328 100;
#X text 673 275 random 4 chord progression, f 11;
#N canvas 0 0 1140 1050 random_seed-based 0;
#X obj 321 278 random 1000;
#X obj 321 303 + 1000;
#X obj 443 263 bng 15 250 50 0 empty empty empty 17 7 0 10 #fcfcfc
#000000 #000000;
#X obj 87 353 pack f f f f;
#X obj 237 303 + 40;
#X obj 237 278 random 60;
#X obj 167 278 random 2;
#X obj 87 378 print;
#X obj 87 49 metro 1200;
#X obj 87 30 tgl 15 0 empty empty empty 17 7 0 10 #fcfcfc #000000 #000000
0 1;
#X floatatom 154 26 5 0 0 0 - - - 0;
#X obj 87 74 counter 3;
#X obj 87 124 sel 0 1 2 3;
#X msg 87 155 seed 1;
#X msg 147 155 seed 3957;
#X msg 227 155 seed 33;
#X msg 307 155 seed 599;
#X floatatom 87 99 5 0 0 0 - - - 0;
#X text 61 88 random progression, f 1;
#X obj 87 303 + 36;
#X obj 87 278 random 12;
#X connect 0 0 1 0;
#X connect 1 0 3 3;
#X connect 2 0 0 0;
#X connect 2 0 5 0;
#X connect 2 0 6 0;
#X connect 2 0 20 0;
#X connect 3 0 7 0;
#X connect 4 0 3 2;
#X connect 5 0 4 0;
#X connect 6 0 3 1;
#X connect 8 0 11 0;
#X connect 9 0 8 0;
#X connect 10 0 8 1;
#X connect 11 0 17 0;
#X connect 12 0 13 0;
#X connect 12 1 14 0;
#X connect 12 2 15 0;
#X connect 12 3 16 0;
#X connect 13 0 6 0;
#X connect 13 0 5 0;
#X connect 13 0 0 0;
#X connect 13 0 2 0;
#X connect 13 0 20 0;
#X connect 14 0 6 0;
#X connect 14 0 5 0;
#X connect 14 0 0 0;
#X connect 14 0 2 0;
#X connect 14 0 20 0;
#X connect 15 0 6 0;
#X connect 15 0 5 0;
#X connect 15 0 0 0;
#X connect 15 0 2 0;
#X connect 15 0 20 0;
#X connect 16 0 6 0;
#X connect 16 0 5 0;
#X connect 16 0 0 0;
#X connect 16 0 2 0;
#X connect 16 0 20 0;
#X connect 17 0 12 0;
#X connect 19 0 3 0;
#X connect 20 0 19 0;
#X restore 34 1003 pd random_seed-based;
#X floatatom 454 949 5 0 0 0 - - - 0;
#X obj 454 978 makenote, f 14;
#X floatatom 500 949 5 0 0 0 - - - 0;
#X floatatom 556 949 5 0 0 0 - - - 0;
#X obj 710 99 change;
#X obj 638 934 bng 15 250 50 0 empty empty empty 17 7 0 10 #fcfcfc
#000000 #000000;
#X obj 622 813 text define -k g-minor-scale;
#A set 43 \; 45 \; 46 \; 48 \; 50 \; 51 \; 53 \;;
#X obj 454 813 text get g-minor-scale;
#X obj 454 838 unpack f;
#X obj 454 783 random 6;
#X obj 454 914 + 12;
#X obj 479 863 sel 0 1, f 9;
#X msg 509 888 12;
#X msg 479 888 24;
#X obj 454 758 metro 400;
#X floatatom 533 739 5 0 0 0 - - - 0;
#X obj 454 731 tgl 15 0 empty empty empty 17 7 0 10 #fcfcfc #000000
#000000 0 1;
#X obj 533 714 zl lookup 100 200 400 600 800;
#X obj 533 691 random 5;
#X obj 438 98 r clock;
#X floatatom 438 123 5 0 0 0 - - - 0;
#X floatatom 438 172 5 0 0 0 - - - 0;
#X obj 126 52 r go;
#X obj 438 147 * 384;
#X floatatom 1087 525 5 0 0 0 - - - 0;
#X floatatom 1131 525 5 0 0 0 - - - 0;
#X floatatom 1175 525 5 0 0 0 - - - 0;
#X floatatom 1219 525 5 0 0 0 - - - 0;
#X floatatom 1264 525 5 0 0 0 - - - 0;
#X msg 1018 328 3000;
#X floatatom 268 944 5 0 0 0 - - - 0;
#X obj 184 978 makenote, f 18;
#X floatatom 310 944 5 0 0 0 - - - 0;
#X floatatom 352 944 5 0 0 0 - - - 0;
#X obj 184 906 bng 15 250 50 0 empty empty empty 17 7 0 10 #fcfcfc
#000000 #000000;
#X obj 184 1003 noteout 4, f 21;
#X obj 184 862 tgl 15 0 empty empty empty 17 7 0 10 #fcfcfc #000000
#000000 0 1;
#X obj 184 882 metro 6000;
#X floatatom 226 944 5 0 0 0 - - - 0;
#X floatatom 184 943 5 0 0 0 - - - 0;
#X text 432 789 MELO TRIG, f 1;
#X obj 126 446 noteout, f 23;
#X obj 315 501 text define -k progressionb;
#A set 38 1 100 500 \; 38 0 70 1200 \; 38 0 80 2000 \; 38 0 100 1600
\;;
#X obj 34 900 adc~ 1 2;
#X obj 34 973 dac~, f 8;
#X obj 454 1003 noteout 1, f 13;
#X text 206 857 poly;
#X obj 944 555 noteout 1, f 23;
#X obj 126 175 text get progression;
#X text 774 24 random progression based on music theory;
#X text 62 30 user progressions;
#X obj 1144 158 random 10;
#X msg 1144 248 1500;
#X msg 1183 248 3000;
#X floatatom 1144 186 5 0 0 0 - - - 0;
#X obj 1144 213 sel 9;
#X text 1142 139 one faster, f 11;
#X obj 86 948 *~;
#X obj 34 948 *~;
#X obj 104 900 tgl 30 0 empty empty empty 17 7 0 10 #fcfcfc #000000
#000000 0 1;
#X connect 1 0 2 0;
#X connect 2 1 7 1;
#X connect 2 2 8 1;
#X connect 2 3 9 1;
#X connect 2 4 12 1;
#X connect 2 5 13 1;
#X connect 4 0 26 0;
#X connect 5 0 10 0;
#X connect 5 0 7 0;
#X connect 5 0 9 0;
#X connect 5 0 8 0;
#X connect 5 0 12 0;
#X connect 5 0 13 0;
#X connect 6 0 1 0;
#X connect 7 0 10 0;
#X connect 8 0 10 0;
#X connect 9 0 10 0;
#X connect 10 0 110 0;
#X connect 10 1 110 1;
#X connect 11 0 10 1;
#X connect 12 0 10 0;
#X connect 13 0 10 0;
#X connect 14 0 19 0;
#X connect 15 0 14 0;
#X connect 16 0 117 0;
#X connect 17 0 14 1;
#X connect 19 0 16 0;
#X connect 20 0 5 0;
#X connect 21 0 20 1;
#X connect 22 0 20 1;
#X connect 23 0 20 1;
#X connect 24 0 19 2;
#X connect 25 0 10 2;
#X connect 26 0 20 0;
#X connect 26 1 6 0;
#X connect 26 2 11 0;
#X connect 26 3 25 0;
#X connect 34 0 52 0;
#X connect 35 0 34 0;
#X connect 36 0 37 0;
#X connect 36 0 53 0;
#X connect 37 0 35 0;
#X connect 37 1 34 1;
#X connect 38 0 39 0;
#X connect 39 0 36 0;
#X connect 40 0 38 0;
#X connect 41 0 43 0;
#X connect 42 0 55 0;
#X connect 43 0 50 0;
#X connect 44 0 41 0;
#X connect 44 1 43 1;
#X connect 45 0 48 0;
#X connect 45 0 66 0;
#X connect 45 0 98 0;
#X connect 45 0 120 0;
#X connect 46 0 73 0;
#X connect 46 0 45 0;
#X connect 47 0 45 1;
#X connect 48 0 49 0;
#X connect 49 0 54 0;
#X connect 49 0 42 0;
#X connect 50 0 60 0;
#X connect 50 0 61 0;
#X connect 50 0 62 0;
#X connect 50 0 64 0;
#X connect 50 0 65 0;
#X connect 52 0 42 1;
#X connect 53 0 54 1;
#X connect 54 0 56 0;
#X connect 55 0 58 0;
#X connect 56 0 44 0;
#X connect 57 0 48 2;
#X connect 58 0 59 0;
#X connect 59 1 60 1;
#X connect 59 2 61 1;
#X connect 59 3 62 1;
#X connect 59 4 64 1;
#X connect 59 5 65 1;
#X connect 60 0 63 0;
#X connect 60 0 93 0;
#X connect 61 0 63 0;
#X connect 61 0 94 0;
#X connect 62 0 63 0;
#X connect 62 0 95 0;
#X connect 63 0 116 0;
#X connect 63 1 116 1;
#X connect 64 0 63 0;
#X connect 64 0 96 0;
#X connect 65 0 97 0;
#X connect 66 0 63 1;
#X connect 69 0 70 0;
#X connect 70 0 114 0;
#X connect 70 1 114 1;
#X connect 71 0 70 1;
#X connect 72 0 70 2;
#X connect 73 0 57 0;
#X connect 74 0 72 0;
#X connect 74 0 71 0;
#X connect 74 0 69 0;
#X connect 76 0 77 0;
#X connect 77 0 79 0;
#X connect 78 0 76 0;
#X connect 79 0 69 0;
#X connect 79 0 74 0;
#X connect 80 0 82 0;
#X connect 80 1 81 0;
#X connect 81 0 79 1;
#X connect 82 0 79 1;
#X connect 83 0 78 0;
#X connect 83 0 87 0;
#X connect 84 0 83 1;
#X connect 85 0 83 0;
#X connect 86 0 84 0;
#X connect 87 0 86 0;
#X connect 88 0 89 0;
#X connect 89 0 92 0;
#X connect 90 0 17 0;
#X connect 91 0 15 0;
#X connect 92 0 90 0;
#X connect 98 0 63 2;
#X connect 99 0 100 0;
#X connect 100 0 104 0;
#X connect 100 1 104 1;
#X connect 101 0 100 1;
#X connect 102 0 100 2;
#X connect 103 0 102 0;
#X connect 103 0 101 0;
#X connect 103 0 99 0;
#X connect 103 0 107 0;
#X connect 103 0 108 0;
#X connect 105 0 106 0;
#X connect 106 0 103 0;
#X connect 107 0 100 0;
#X connect 108 0 100 0;
#X connect 112 0 127 0;
#X connect 112 1 126 0;
#X connect 117 0 4 0;
#X connect 120 0 123 0;
#X connect 121 0 47 0;
#X connect 122 0 47 0;
#X connect 123 0 124 0;
#X connect 124 0 121 0;
#X connect 124 1 122 0;
#X connect 126 0 113 1;
#X connect 127 0 113 0;
#X connect 128 0 126 1;
#X connect 128 0 127 1;
