#N canvas 0 0 1920 1052 12;
#X obj 126 466 text define -k combinations;
#A set major 0 4 7 12 \; minor 0 3 7 12 \; major7 0 4 7 11 \; minor7
0 3 7 10 \; minor75 0 3 6 10 \; dim 0 3 6 9 \; major9 0 4 7 11 14 \;
minor9 0 3 7 10 14 \;;
#X obj 193 268 text get combinations;
#X obj 193 293 unpack s f f f f f, f 32;
#X text 238 517 0 major \; 1 minor \; 2 major7 \; 3 minor7 \; 4 minor75
\; 5 dim \; 6 major9 \; 7 minor9 \;;
#X listbox 126 191 20 0 0 0 - - - 0;
#X floatatom 126 332 5 0 0 0 - - - 0;
#X floatatom 193 240 5 0 0 0 - - - 0;
#X obj 219 351 +;
#X obj 263 351 +;
#X obj 307 351 +;
#X obj 126 411 makenote, f 12;
#X floatatom 431 352 5 0 0 0 - - - 0;
#X obj 351 351 +;
#X obj 396 351 +;
#X obj 126 85 metro 1200;
#X obj 126 66 tgl 15 0 empty empty empty 17 7 0 10 #fcfcfc #000000
#000000 0 1;
#X floatatom 126 135 5 0 0 0 - - - 0;
#X floatatom 193 62 5 0 0 0 - - - 0;
#X obj 126 491 text define -k progression;
#A set 45 1 100 500 \; 43 0 70 1200 \; 38 0 80 2000 \; 41 0 100 1600
\;;
#X obj 126 110 counter 3;
#X obj 126 250 +;
#X msg 91 230 12;
#X msg 26 230 -12;
#X msg 59 230 0;
#X obj 208 95 bng 15 250 50 0 empty empty empty 17 7 0 10 #fcfcfc #000000
#000000;
#X floatatom 493 352 5 0 0 0 - - - 0;
#X obj 126 215 unpack f f f f, f 45;
#X text 491 335 length;
#X text 435 333 vel, f 4;
#X text 124 517 0 note \; 1 chord \; 2 velocity \; 3 length \;;
#X text 152 588 36 = C2;
#X text 947 605 major I \, ii° \, iii \, IV \, V \, vi \, vii \; natural
minor i \, ii° \, III \, iv \, v \, VI \, VII \;;
#X text 946 639 ° = diminished;
#X obj 945 570 text define -k degrees;
#A set 1 5 0 1 1 0 0 natural_minor \;;
#X obj 894 219 text get degrees;
#X floatatom 894 195 5 0 0 0 - - - 0;
#X floatatom 940 151 5 0 0 0 - - - 0;
#X obj 940 175 t b f;
#X obj 940 102 uzi 4 0;
#X obj 940 127 random 7;
#X obj 940 73 bng 15 250 50 0 empty empty empty 17 7 0 10 #fcfcfc #000000
#000000;
#X floatatom 736 348 5 0 0 0 - - - 0;
#X obj 834 273 zl lookup;
#X obj 781 376 +;
#X obj 767 320 t b f;
#X obj 767 103 metro 1200;
#X obj 767 54 tgl 15 0 empty empty empty 17 7 0 10 #fcfcfc #000000
#000000 0 1;
#X floatatom 834 50 5 0 0 0 - - - 0;
#X obj 767 128 counter 3;
#X floatatom 767 153 5 0 0 0 - - - 0;
#X floatatom 781 401 5 0 0 0 - - - 0;
#X text 666 349 root note;
#X obj 894 247 zl group 4;
#X obj 827 170 zl group 4;
#X obj 767 200 zl lookup;
#X floatatom 834 298 5 0 0 0 - - - 0;
#X floatatom 767 225 5 0 0 0 - - - 0;
#X obj 710 113 bng 15 250 50 0 empty empty empty 17 7 0 10 #fcfcfc
#000000 #000000;
#X obj 1061 377 text get combinations;
#X obj 1061 402 unpack s f f f f f, f 32;
#X obj 1087 460 +;
#X obj 1131 460 +;
#X obj 1175 460 +;
#X obj 944 510 makenote, f 11;
#X obj 1219 460 +;
#X obj 1264 460 +;
#X msg 981 318 100;
#X text 673 265 random 4 chord progression, f 11;
#N canvas 0 0 1140 1050 random_seed-based 0;
#X obj 321 278 random 1000;
#X obj 321 303 + 1000;
#X obj 443 263 bng 15 250 50 0 empty empty empty 17 7 0 10 #fcfcfc
#000000 #000000;
#X obj 87 353 pack f f f f;
#X obj 237 303 + 40;
#X obj 237 278 random 60;
#X obj 167 278 random 2;
#X obj 87 378 print;
#X obj 87 49 metro 1200;
#X obj 87 30 tgl 15 0 empty empty empty 17 7 0 10 #fcfcfc #000000 #000000
0 1;
#X floatatom 154 26 5 0 0 0 - - - 0;
#X obj 87 74 counter 3;
#X obj 87 124 sel 0 1 2 3;
#X msg 87 155 seed 1;
#X msg 147 155 seed 3957;
#X msg 227 155 seed 33;
#X msg 307 155 seed 599;
#X floatatom 87 99 5 0 0 0 - - - 0;
#X text 61 88 random progression, f 1;
#X obj 87 303 + 36;
#X obj 87 278 random 12;
#X connect 0 0 1 0;
#X connect 1 0 3 3;
#X connect 2 0 0 0;
#X connect 2 0 5 0;
#X connect 2 0 6 0;
#X connect 2 0 20 0;
#X connect 3 0 7 0;
#X connect 4 0 3 2;
#X connect 5 0 4 0;
#X connect 6 0 3 1;
#X connect 8 0 11 0;
#X connect 9 0 8 0;
#X connect 10 0 8 1;
#X connect 11 0 17 0;
#X connect 12 0 13 0;
#X connect 12 1 14 0;
#X connect 12 2 15 0;
#X connect 12 3 16 0;
#X connect 13 0 6 0;
#X connect 13 0 5 0;
#X connect 13 0 0 0;
#X connect 13 0 2 0;
#X connect 13 0 20 0;
#X connect 14 0 6 0;
#X connect 14 0 5 0;
#X connect 14 0 0 0;
#X connect 14 0 2 0;
#X connect 14 0 20 0;
#X connect 15 0 6 0;
#X connect 15 0 5 0;
#X connect 15 0 0 0;
#X connect 15 0 2 0;
#X connect 15 0 20 0;
#X connect 16 0 6 0;
#X connect 16 0 5 0;
#X connect 16 0 0 0;
#X connect 16 0 2 0;
#X connect 16 0 20 0;
#X connect 17 0 12 0;
#X connect 19 0 3 0;
#X connect 20 0 19 0;
#X restore 34 993 pd random_seed-based;
#X floatatom 454 939 5 0 0 0 - - - 0;
#X obj 454 968 makenote, f 14;
#X floatatom 500 939 5 0 0 0 - - - 0;
#X floatatom 556 939 5 0 0 0 - - - 0;
#X obj 710 89 change;
#X obj 638 924 bng 15 250 50 0 empty empty empty 17 7 0 10 #fcfcfc
#000000 #000000;
#X obj 622 803 text define -k g-minor-scale;
#A set 43 \; 45 \; 46 \; 48 \; 50 \; 51 \; 53 \;;
#X obj 454 803 text get g-minor-scale;
#X obj 454 828 unpack f;
#X obj 454 773 random 6;
#X obj 454 904 + 12;
#X obj 479 853 sel 0 1, f 9;
#X msg 509 878 12;
#X msg 479 878 24;
#X obj 454 748 metro 400;
#X floatatom 533 729 5 0 0 0 - - - 0;
#X obj 454 721 tgl 15 0 empty empty empty 17 7 0 10 #fcfcfc #000000
#000000 0 1;
#X obj 533 704 zl lookup 100 200 400 600 800;
#X obj 533 681 random 5;
#X obj 438 88 r clock;
#X floatatom 438 113 5 0 0 0 - - - 0;
#X floatatom 438 162 5 0 0 0 - - - 0;
#X obj 126 42 r go;
#X obj 438 137 * 384;
#X floatatom 1087 515 5 0 0 0 - - - 0;
#X floatatom 1131 515 5 0 0 0 - - - 0;
#X floatatom 1175 515 5 0 0 0 - - - 0;
#X floatatom 1219 515 5 0 0 0 - - - 0;
#X floatatom 1264 515 5 0 0 0 - - - 0;
#X msg 1018 318 3000;
#X floatatom 268 934 5 0 0 0 - - - 0;
#X obj 184 968 makenote, f 18;
#X floatatom 310 934 5 0 0 0 - - - 0;
#X floatatom 352 934 5 0 0 0 - - - 0;
#X obj 184 896 bng 15 250 50 0 empty empty empty 17 7 0 10 #fcfcfc
#000000 #000000;
#X obj 184 993 noteout 4, f 21;
#X obj 184 852 tgl 15 0 empty empty empty 17 7 0 10 #fcfcfc #000000
#000000 0 1;
#X obj 184 872 metro 6000;
#X floatatom 226 934 5 0 0 0 - - - 0;
#X floatatom 184 933 5 0 0 0 - - - 0;
#X text 432 779 MELO TRIG, f 1;
#X obj 126 436 noteout, f 23;
#X obj 315 491 text define -k progressionb;
#A set 38 1 100 500 \; 38 0 70 1200 \; 38 0 80 2000 \; 38 0 100 1600
\;;
#X obj 34 890 adc~ 1 2;
#X obj 34 963 dac~, f 8;
#X obj 454 993 noteout 1, f 13;
#X text 206 847 poly;
#X obj 126 165 text get progression;
#X text 774 14 random progression based on music theory;
#X text 62 20 user progressions;
#X obj 1144 148 random 10;
#X msg 1144 238 1500;
#X msg 1183 238 3000;
#X floatatom 1144 176 5 0 0 0 - - - 0;
#X obj 1144 203 sel 9;
#X text 1142 129 one faster, f 11;
#X obj 86 938 *~;
#X obj 34 938 *~;
#X obj 104 890 tgl 30 0 empty empty empty 17 7 0 10 #fcfcfc #000000
#000000 0 1;
#X floatatom 850 554 5 0 0 0 - - - 0;
#X obj 896 520 bng 15 250 50 0 empty empty empty 17 7 0 10 #fcfcfc
#000000 #000000;
#X obj 697 963 spigot;
#X obj 677 914 del;
#X floatatom 827 889 5 0 0 0 - - - 0;
#X floatatom 752 940 5 0 0 0 - - - 0;
#X obj 669 989 bng 15 250 50 0 empty empty empty 17 7 0 10 #fcfcfc
#000000 #000000;
#X obj 738 893 == 1;
#X obj 737 868 random 3;
#X obj 827 864 zl lookup 100 200 400;
#X obj 827 841 random 3;
#X obj 944 545 noteout 2, f 23;
#X obj 1482 795 ctlout 7 1;
#X floatatom 1514 692 5 0 0 0 - - - 0;
#X obj 1514 661 ctlin 0, f 11;
#X obj 1390 797 ctlout 69 1;
#X floatatom 1614 692 5 0 0 0 - - - 0;
#X obj 1582 795 ctlout 7 2;
#X obj 1614 661 ctlin 1, f 11;
#X floatatom 1340 730 5 0 0 0 - - - 0;
#X floatatom 1391 744 5 0 0 0 - - - 0;
#X obj 1340 699 ctlin 16, f 11;
#X floatatom 1303 909 5 0 0 0 - - - 0;
#X obj 1301 938 ctlout 69 2;
#X obj 1303 878 ctlin 17, f 11;
#X obj 581 977 random 80;
#X obj 581 1002 + 40;
#X floatatom 581 1027 5 0 0 0 - - - 0;
#X obj 1323 9 tgl 30 0 empty empty empty 17 7 0 10 #00ff04 #000000
#000000 0 1;
#X floatatom 1376 33 5 0 0 0 - - - 0;
#X obj 1323 -26 bng 30 250 50 0 empty empty empty 17 7 0 10 #00ff04
#000000 #000000;
#N canvas 0 0 1920 1052 clock 0;
#X obj 32 161 i;
#X obj 63 161 + 1;
#X obj 32 33 tgl 15 0 empty empty empty 17 7 0 10 #fcfcfc #000000 #000000
0 1;
#X msg 131 132 0;
#X obj 92 266 + 1;
#X obj 131 107 sel 0;
#X text 174 108 reset;
#X floatatom 562 33 5 0 0 0 - - - 0;
#X obj 32 107 metro, f 12;
#X obj 92 242 i;
#X obj 92 290 %;
#X obj 32 198 %;
#X floatatom 92 314 5 0 0 0 - - - 0;
#X obj 92 218 sel;
#X obj 123 218 - 1;
#X obj 32 223 s pos;
#X obj 227 178 r steps;
#X obj 474 133 tgl 15 0 empty empty empty 17 7 0 10 #fcfcfc #000000
#000000 0 1;
#X obj 474 214 midiout;
#X obj 365 160 select 0 1;
#X msg 365 194 252;
#X msg 402 194 250;
#X msg 474 187 248;
#X obj 474 157 metro 20.8333;
#X obj 562 57 expr (60000/$f1);
#X obj 562 125 / 24;
#X obj 522 89 / 4;
#X obj 32 11 inlet;
#X obj 562 9 inlet;
#X obj 572 158 s clock;
#X obj 92 338 + 1;
#X obj 92 362 s pattern_start;
#X text 371 226 MIDI OUT SYNC;
#X text 65 261 STEP COUNTER, f 1;
#X text 607 33 BPM CALCULATOR;
#X connect 0 0 1 0;
#X connect 0 0 11 0;
#X connect 1 0 0 1;
#X connect 2 0 5 0;
#X connect 2 0 8 0;
#X connect 2 0 17 0;
#X connect 3 0 0 1;
#X connect 3 0 9 1;
#X connect 3 0 10 0;
#X connect 4 0 9 1;
#X connect 4 0 10 0;
#X connect 5 0 3 0;
#X connect 7 0 24 0;
#X connect 8 0 0 0;
#X connect 9 0 4 0;
#X connect 10 0 12 0;
#X connect 11 0 13 0;
#X connect 11 0 15 0;
#X connect 12 0 30 0;
#X connect 13 0 9 0;
#X connect 14 0 13 1;
#X connect 16 0 10 1;
#X connect 16 0 14 0;
#X connect 16 0 11 1;
#X connect 17 0 19 0;
#X connect 17 0 23 0;
#X connect 19 0 20 0;
#X connect 19 1 21 0;
#X connect 20 0 18 0;
#X connect 21 0 18 0;
#X connect 22 0 18 0;
#X connect 23 0 22 0;
#X connect 24 0 26 0;
#X connect 24 0 25 0;
#X connect 25 0 23 1;
#X connect 25 0 29 0;
#X connect 26 0 8 1;
#X connect 27 0 2 0;
#X connect 28 0 7 0;
#X connect 30 0 31 0;
#X restore 1323 61 pd clock;
#X obj 1376 9 loadmess 128;
#X obj 1516 172 r pos;
#X obj 1323 -53 r pattern_start;
#X obj 1487 505 makenote 100 500;
#X obj 1481 214 viseq_gen;
#X text 1302 322 sound notes on ch. 10 \;;
#X text 1569 -25 synth on midi ch. 1 \;;
#X obj 1742 -28 text define -k combos;
#A set e_steps e_offset e_pulses snd instrument \; 16 0 3 5 kick \;
20 6 3 0 perc \;;
#X obj 1727 78 text get combos;
#X listbox 1727 103 29 0 0 0 - - - 0;
#X floatatom 1727 53 5 0 0 0 - - - 0;
#X obj 1290 113 loadmess 16;
#X obj 1290 138 s steps;
#X obj 530 12 midirealtimein;
#X floatatom 530 37 5 0 0 0 - - - 0;
#X floatatom 610 48 5 0 0 0 - - - 0;
#X obj 1648 497 makenote 100 500;
#X obj 1648 522 noteout 4;
#X msg 1643 450 30;
#X obj 1601 230 viseq_gen;
#X obj 1377 590 makenote 100 500;
#X obj 1382 240 viseq_gen;
#X msg 1353 524 80;
#X obj 1274 270 viseq_gen;
#X obj 1298 406 makenote 100 500;
#X msg 1274 340 80;
#X obj 990 754 pgmout;
#X obj 869 722 ctlout 0;
#X floatatom 864 690 5 0 0 0 - - - 0;
#X floatatom 1032 713 5 0 0 0 - - - 0;
#X floatatom 979 721 5 0 0 0 - - - 0;
#X obj 1298 431 noteout 1;
#X obj 1377 615 noteout 2;
#X obj 1487 530 noteout 3;
#X msg 1116 798 \$1 3;
#X floatatom 1110 760 5 0 0 0 - - - 0;
#X msg 1463 439 50;
#X obj 1138 701 random 3;
#X obj 1138 726 + 1;
#X text 1166 797 change program on midi ch.;
#X connect 1 0 2 0;
#X connect 2 1 7 1;
#X connect 2 2 8 1;
#X connect 2 3 9 1;
#X connect 2 4 12 1;
#X connect 2 5 13 1;
#X connect 4 0 26 0;
#X connect 5 0 10 0;
#X connect 5 0 7 0;
#X connect 5 0 9 0;
#X connect 5 0 8 0;
#X connect 5 0 12 0;
#X connect 5 0 13 0;
#X connect 6 0 1 0;
#X connect 7 0 10 0;
#X connect 8 0 10 0;
#X connect 9 0 10 0;
#X connect 10 0 110 0;
#X connect 10 1 110 1;
#X connect 11 0 10 1;
#X connect 12 0 10 0;
#X connect 13 0 10 0;
#X connect 14 0 19 0;
#X connect 15 0 14 0;
#X connect 16 0 116 0;
#X connect 17 0 14 1;
#X connect 19 0 16 0;
#X connect 20 0 5 0;
#X connect 21 0 20 1;
#X connect 22 0 20 1;
#X connect 23 0 20 1;
#X connect 24 0 19 2;
#X connect 25 0 10 2;
#X connect 26 0 20 0;
#X connect 26 1 6 0;
#X connect 26 2 11 0;
#X connect 26 3 25 0;
#X connect 34 0 52 0;
#X connect 35 0 34 0;
#X connect 36 0 37 0;
#X connect 36 0 53 0;
#X connect 37 0 35 0;
#X connect 37 1 34 1;
#X connect 38 0 39 0;
#X connect 39 0 36 0;
#X connect 40 0 38 0;
#X connect 41 0 43 0;
#X connect 42 0 55 0;
#X connect 43 0 50 0;
#X connect 44 0 41 0;
#X connect 44 1 43 1;
#X connect 45 0 48 0;
#X connect 45 0 66 0;
#X connect 45 0 98 0;
#X connect 45 0 119 0;
#X connect 46 0 73 0;
#X connect 46 0 45 0;
#X connect 47 0 45 1;
#X connect 48 0 49 0;
#X connect 49 0 54 0;
#X connect 49 0 42 0;
#X connect 50 0 60 0;
#X connect 50 0 61 0;
#X connect 50 0 62 0;
#X connect 50 0 64 0;
#X connect 50 0 65 0;
#X connect 52 0 42 1;
#X connect 53 0 54 1;
#X connect 54 0 56 0;
#X connect 55 0 58 0;
#X connect 56 0 44 0;
#X connect 57 0 48 2;
#X connect 58 0 59 0;
#X connect 59 1 60 1;
#X connect 59 2 61 1;
#X connect 59 3 62 1;
#X connect 59 4 64 1;
#X connect 59 5 65 1;
#X connect 60 0 63 0;
#X connect 60 0 93 0;
#X connect 61 0 63 0;
#X connect 61 0 94 0;
#X connect 62 0 63 0;
#X connect 62 0 95 0;
#X connect 63 0 129 0;
#X connect 63 0 139 0;
#X connect 63 1 139 1;
#X connect 64 0 96 0;
#X connect 64 0 63 0;
#X connect 65 0 97 0;
#X connect 65 0 63 0;
#X connect 66 0 63 1;
#X connect 69 0 70 0;
#X connect 70 0 114 0;
#X connect 70 1 114 1;
#X connect 71 0 70 1;
#X connect 72 0 70 2;
#X connect 73 0 57 0;
#X connect 74 0 72 0;
#X connect 74 0 71 0;
#X connect 74 0 69 0;
#X connect 74 0 131 0;
#X connect 74 0 153 0;
#X connect 76 0 77 0;
#X connect 77 0 79 0;
#X connect 78 0 76 0;
#X connect 79 0 69 0;
#X connect 79 0 74 0;
#X connect 80 0 82 0;
#X connect 80 1 81 0;
#X connect 81 0 79 1;
#X connect 82 0 79 1;
#X connect 83 0 78 0;
#X connect 83 0 87 0;
#X connect 83 0 136 0;
#X connect 84 0 83 1;
#X connect 85 0 83 0;
#X connect 86 0 84 0;
#X connect 87 0 86 0;
#X connect 88 0 89 0;
#X connect 89 0 92 0;
#X connect 90 0 17 0;
#X connect 91 0 15 0;
#X connect 92 0 90 0;
#X connect 98 0 63 2;
#X connect 99 0 100 0;
#X connect 100 0 104 0;
#X connect 100 1 104 1;
#X connect 101 0 100 1;
#X connect 102 0 100 2;
#X connect 103 0 102 0;
#X connect 103 0 101 0;
#X connect 103 0 99 0;
#X connect 103 0 107 0;
#X connect 103 0 108 0;
#X connect 105 0 106 0;
#X connect 106 0 103 0;
#X connect 107 0 100 0;
#X connect 108 0 100 0;
#X connect 112 0 126 0;
#X connect 112 1 125 0;
#X connect 116 0 4 0;
#X connect 119 0 122 0;
#X connect 120 0 47 0;
#X connect 121 0 47 0;
#X connect 122 0 123 0;
#X connect 123 0 120 0;
#X connect 123 1 121 0;
#X connect 125 0 113 1;
#X connect 126 0 113 0;
#X connect 127 0 125 1;
#X connect 127 0 126 1;
#X connect 130 0 74 0;
#X connect 130 0 134 0;
#X connect 131 0 130 0;
#X connect 131 0 138 0;
#X connect 132 0 131 1;
#X connect 135 0 130 1;
#X connect 135 0 133 0;
#X connect 136 0 135 0;
#X connect 137 0 132 0;
#X connect 138 0 137 0;
#X connect 141 0 140 0;
#X connect 142 0 141 0;
#X connect 144 0 145 0;
#X connect 146 0 144 0;
#X connect 147 0 143 0;
#X connect 149 0 147 0;
#X connect 149 1 148 0;
#X connect 150 0 151 0;
#X connect 152 0 150 0;
#X connect 153 0 154 0;
#X connect 154 0 155 0;
#X connect 155 0 71 0;
#X connect 156 0 159 0;
#X connect 157 0 159 1;
#X connect 160 0 157 0;
#X connect 161 0 183 0;
#X connect 161 0 164 0;
#X connect 161 0 179 0;
#X connect 161 0 181 0;
#X connect 162 0 158 0;
#X connect 163 0 193 0;
#X connect 163 1 193 1;
#X connect 164 0 196 0;
#X connect 164 0 197 0;
#X connect 164 4 163 1;
#X connect 168 0 169 0;
#X connect 170 0 168 0;
#X connect 171 0 172 0;
#X connect 173 0 174 0;
#X connect 173 1 175 0;
#X connect 176 0 177 0;
#X connect 176 1 177 1;
#X connect 178 0 176 0;
#X connect 179 4 176 1;
#X connect 180 0 192 0;
#X connect 180 1 192 1;
#X connect 181 0 182 0;
#X connect 181 4 180 1;
#X connect 182 0 180 0;
#X connect 183 0 185 0;
#X connect 183 4 184 1;
#X connect 184 0 191 0;
#X connect 184 1 191 1;
#X connect 185 0 184 0;
#X connect 188 0 187 0;
#X connect 189 0 186 1;
#X connect 190 0 186 0;
#X connect 194 0 186 0;
#X connect 195 0 194 0;
#X connect 196 0 163 0;
#X connect 197 0 198 0;
#X connect 198 0 195 0;
