#N canvas 0 0 1920 1048 12;
#X obj 19 96 tgl 30 0 empty empty empty 17 7 0 10 #00ff04 #000000 #000000 0 1;
#X floatatom 72 141 5 0 0 0 - - - 0;
#X obj 19 53 bng 30 250 50 0 empty empty empty 17 7 0 10 #00ff04 #000000 #000000;
#N canvas 0 0 992 1050 clock 0;
#X obj 39 195 i;
#X obj 76 195 + 1;
#X obj 39 40 tgl 15 0 empty empty empty 17 7 0 10 #fcfcfc #000000 #000000 0 1;
#X msg 158 160 0;
#X obj 111 322 + 1;
#X obj 158 130 sel 0;
#X text 210 131 reset;
#X floatatom 680 40 5 0 0 0 - - - 0;
#X obj 39 130 metro, f 12;
#X obj 111 293 i;
#X obj 111 351 %;
#X obj 39 240 %;
#X floatatom 111 380 5 0 0 0 - - - 0;
#X obj 111 264 sel;
#X obj 149 264 - 1;
#X obj 39 270 s pos;
#X obj 275 216 r steps;
#X obj 573 161 tgl 15 0 empty empty empty 17 7 0 10 #fcfcfc #000000 #000000 0 1;
#X obj 573 259 midiout;
#X obj 442 194 select 0 1;
#X msg 442 234 252;
#X msg 486 234 250;
#X msg 573 227 248;
#X obj 573 190 metro 20.8333;
#X obj 680 69 expr (60000/$f1);
#X obj 680 152 / 24;
#X obj 631 108 / 4;
#X obj 39 13 inlet;
#X obj 680 11 inlet;
#X obj 692 191 s clock;
#X obj 111 409 + 1;
#X obj 111 438 s pattern_start;
#X text 449 274 MIDI OUT SYNC;
#X text 79 316 STEP COUNTER, f 1;
#X text 735 40 BPM CALCULATOR;
#X connect 0 0 1 0;
#X connect 0 0 11 0;
#X connect 1 0 0 1;
#X connect 2 0 5 0;
#X connect 2 0 8 0;
#X connect 2 0 17 0;
#X connect 3 0 0 1;
#X connect 3 0 9 1;
#X connect 3 0 10 0;
#X connect 4 0 9 1;
#X connect 4 0 10 0;
#X connect 5 0 3 0;
#X connect 7 0 24 0;
#X connect 8 0 0 0;
#X connect 9 0 4 0;
#X connect 10 0 12 0;
#X connect 11 0 13 0;
#X connect 11 0 15 0;
#X connect 12 0 30 0;
#X connect 13 0 9 0;
#X connect 14 0 13 1;
#X connect 16 0 10 1;
#X connect 16 0 14 0;
#X connect 16 0 11 1;
#X connect 17 0 19 0;
#X connect 17 0 23 0;
#X connect 19 0 20 0;
#X connect 19 1 21 0;
#X connect 20 0 18 0;
#X connect 21 0 18 0;
#X connect 22 0 18 0;
#X connect 23 0 22 0;
#X connect 24 0 26 0;
#X connect 24 0 25 0;
#X connect 25 0 23 1;
#X connect 25 0 29 0;
#X connect 26 0 8 1;
#X connect 27 0 2 0;
#X connect 28 0 7 0;
#X connect 30 0 31 0;
#X restore 19 158 pd clock;
#X obj 72 126 loadmess 128;
#X obj 90 204 r pos;
#X obj 19 21 r pattern_start;
#X obj 98 388 makenote 100 500;
#X obj 90 235 viseq_gen;
#X obj 98 418 noteout 10;
#X msg 98 276 36;
#X msg 143 276 38;
#X msg 185 275 40;
#X msg 229 275 44;
#X text 158 207 sound notes on ch. 10 \;;
#X text 316 54 synth on midi ch. 1 \;;
#X obj 640 185 adc~;
#X obj 585 374 dac~;
#X obj 585 331 *~;
#X obj 819 205 vsl 15 128 0 127 0 0 empty empty empty 0 -9 0 10 #fcfcfc #000000 #000000 0 1;
#X obj 819 341 / 127;
#X obj 640 203 overdrive~ 1;
#X obj 697 37 vsl 15 128 1 300 0 0 empty empty empty 0 -9 0 10 #fcfcfc #000000 #000000 0 1;
#X floatatom 697 178 5 0 0 0 - - - 0;
#X obj 708 295 svf~, f 8;
#X floatatom 733 275 5 0 0 0 - - - 0;
#X floatatom 774 274 3 0 0 0 - - - 0;
#X obj 14 236 viseq_gen;
#X obj 585 276 adc~ 2;
#X obj 708 312 *~;
#X obj 585 298 *~;
#X text 590 130 audio;
#X obj 292 479 *~;
#X obj 292 510 dac~;
#X obj 402 527 line~;
#X obj 316 321 viseq_gen;
#X obj 291 386 *~;
#X obj 291 417 dac~;
#X msg 401 405 0.3 \, 0 10;
#X obj 401 434 line~;
#X obj 291 356 osc~ 880;
#X obj 292 449 osc~ 44;
#X msg 402 498 0.3 \, 0 100;
#X obj 321 70 text define -k combos;
#A set e_steps e_offset e_pulses snd instrument \; 16 0 3 5 kick \; 20 6 3 0 perc \;;
#X obj 210 138 text get combos;
#X listbox 210 158 29 0 0 0 - - - 0;
#X floatatom 210 124 5 0 0 0 - - - 0;
#X connect 0 0 3 0;
#X connect 1 0 3 1;
#X connect 4 0 1 0;
#X connect 5 0 35 0;
#X connect 5 0 8 0;
#X connect 6 0 2 0;
#X connect 7 0 9 0;
#X connect 7 1 9 1;
#X connect 8 0 11 0;
#X connect 8 0 12 0;
#X connect 8 0 13 0;
#X connect 8 0 10 0;
#X connect 8 0 42 0;
#X connect 8 1 12 0;
#X connect 8 4 7 1;
#X connect 10 0 7 0;
#X connect 11 0 7 0;
#X connect 12 0 7 0;
#X connect 13 0 7 0;
#X connect 16 0 21 0;
#X connect 18 0 17 1;
#X connect 18 0 17 0;
#X connect 19 0 20 0;
#X connect 20 0 18 1;
#X connect 21 0 24 0;
#X connect 22 0 21 1;
#X connect 22 0 23 0;
#X connect 24 0 29 0;
#X connect 25 0 24 1;
#X connect 26 0 24 2;
#X connect 28 0 30 0;
#X connect 29 0 18 0;
#X connect 30 0 18 0;
#X connect 32 0 33 0;
#X connect 32 0 33 1;
#X connect 34 0 32 1;
#X connect 35 0 38 0;
#X connect 36 0 37 0;
#X connect 36 0 37 1;
#X connect 38 0 39 0;
#X connect 39 0 36 1;
#X connect 40 0 36 0;
#X connect 41 0 32 0;
#X connect 42 0 34 0;
#X connect 44 0 45 0;
#X connect 46 0 44 0;
