#N canvas 0 0 958 1050 12;
#X obj 25 72 tgl 30 0 empty empty empty 17 7 0 10 #00fc04 #000000 #000000
0 1;
#X obj 246 127 r pattern-start;
#X floatatom 78 96 5 0 0 0 - - - 0;
#X obj 246 154 bng 30 250 50 0 empty empty empty 17 7 0 10 #fcfcfc
#00fc04 #000000;
#X obj 64 363 unpack f f f f f f f f f f f f f f f f, f 87;
#X obj 64 392 tgl 30 0 empty empty empty 17 7 0 10 #c4fcc4 #000000
#000000 0 1;
#X obj 104 392 tgl 30 0 empty empty empty 17 7 0 10 #fcfcfc #000000
#000000 0 1;
#X obj 144 392 tgl 30 0 empty empty empty 17 7 0 10 #fcfcfc #000000
#000000 0 1;
#X obj 184 392 tgl 30 0 empty empty empty 17 7 0 10 #fcfcfc #000000
#000000 0 1;
#X obj 224 392 tgl 30 0 empty empty empty 17 7 0 10 #c4fcc4 #000000
#000000 0 1;
#X obj 264 392 tgl 30 0 empty empty empty 17 7 0 10 #fcfcfc #000000
#000000 0 1;
#X obj 304 392 tgl 30 0 empty empty empty 17 7 0 10 #fcfcfc #000000
#000000 0 1;
#X obj 344 392 tgl 30 0 empty empty empty 17 7 0 10 #fcfcfc #000000
#000000 0 1;
#X obj 384 392 tgl 30 0 empty empty empty 17 7 0 10 #c4fcc4 #000000
#000000 0 1;
#X obj 424 392 tgl 30 0 empty empty empty 17 7 0 10 #fcfcfc #000000
#000000 0 1;
#X obj 464 392 tgl 30 0 empty empty empty 17 7 0 10 #fcfcfc #000000
#000000 0 1;
#X obj 504 392 tgl 30 0 empty empty empty 17 7 0 10 #fcfcfc #000000
#000000 0 1;
#X obj 544 392 tgl 30 0 empty empty empty 17 7 0 10 #c4fcc4 #000000
#000000 0 1;
#X obj 584 392 tgl 30 0 empty empty empty 17 7 0 10 #fcfcfc #000000
#000000 0 1;
#X obj 624 392 tgl 30 0 empty empty empty 17 7 0 10 #fcfcfc #000000
#000000 0 1;
#X obj 664 392 tgl 30 0 empty empty empty 17 7 0 10 #fcfcfc #000000
#000000 0 1;
#X obj 176 175 s steps;
#X obj 64 574 bng 15 250 50 0 empty empty empty 17 7 0 10 #fcfcfc #000000
#000000;
#X msg 176 151 16;
#N canvas 0 0 1920 1052 pad-control 0;
#X msg 68 219 0;
#X msg 148 219 0;
#X msg 188 219 100;
#X msg 228 219 0;
#X msg 268 219 100;
#X msg 308 219 0;
#X msg 348 219 100;
#X msg 388 219 0;
#X msg 428 219 100;
#X msg 468 219 0;
#X msg 508 219 100;
#X msg 548 219 0;
#X msg 588 219 100;
#X msg 628 219 0;
#X msg 668 219 100;
#X msg 708 219 0;
#X msg 748 219 100;
#X msg 788 219 0;
#X msg 828 219 100;
#X msg 868 219 0;
#X msg 908 219 100;
#X msg 948 219 0;
#X msg 988 219 100;
#X msg 1028 219 0;
#X msg 1068 219 100;
#X msg 1108 219 0;
#X msg 1148 219 100;
#X msg 1188 219 0;
#X msg 1228 219 100;
#X msg 1268 219 0;
#X msg 1308 219 100;
#X obj 148 248 ctlout 45;
#X obj 228 248 ctlout 46;
#X obj 308 248 ctlout 47;
#X obj 388 248 ctlout 48;
#X obj 468 248 ctlout 49;
#X obj 548 248 ctlout 50;
#X obj 628 248 ctlout 51;
#X obj 708 248 ctlout 36;
#X obj 788 248 ctlout 37;
#X obj 868 248 ctlout 38;
#X obj 948 248 ctlout 39;
#X obj 1028 248 ctlout 40;
#X obj 1108 248 ctlout 41;
#X obj 1188 248 ctlout 42;
#X obj 1268 248 ctlout 43;
#X obj 68 194 moses 1;
#X obj 147 194 moses 1;
#X obj 229 194 moses 1;
#X obj 308 194 moses 1;
#X obj 388 194 moses 1;
#X obj 468 194 moses 1;
#X obj 548 194 moses 1;
#X obj 628 194 moses 1;
#X obj 708 194 moses 1;
#X obj 788 194 moses 1;
#X obj 868 194 moses 1;
#X obj 948 194 moses 1;
#X obj 1028 194 moses 1;
#X obj 1108 194 moses 1;
#X obj 1188 194 moses 1;
#X obj 1268 194 moses 1;
#X msg 108 219 127;
#X obj 68 248 ctlout 44;
#X msg 1370 228 10;
#X obj 1370 202 loadbang;
#X obj 68 85 inlet;
#X obj 68 110 unpack f f f f f f f f f f f f f f f f;
#X text 1367 177 midi ch.;
#X connect 0 0 63 0;
#X connect 1 0 31 0;
#X connect 2 0 31 0;
#X connect 3 0 32 0;
#X connect 4 0 32 0;
#X connect 5 0 33 0;
#X connect 6 0 33 0;
#X connect 7 0 34 0;
#X connect 8 0 34 0;
#X connect 9 0 35 0;
#X connect 10 0 35 0;
#X connect 11 0 36 0;
#X connect 12 0 36 0;
#X connect 13 0 37 0;
#X connect 14 0 37 0;
#X connect 15 0 38 0;
#X connect 16 0 38 0;
#X connect 17 0 39 0;
#X connect 18 0 39 0;
#X connect 19 0 40 0;
#X connect 20 0 40 0;
#X connect 21 0 41 0;
#X connect 22 0 41 0;
#X connect 23 0 42 0;
#X connect 24 0 42 0;
#X connect 25 0 43 0;
#X connect 26 0 43 0;
#X connect 27 0 44 0;
#X connect 28 0 44 0;
#X connect 29 0 45 0;
#X connect 30 0 45 0;
#X connect 46 0 0 0;
#X connect 46 1 62 0;
#X connect 47 0 1 0;
#X connect 47 1 2 0;
#X connect 48 0 3 0;
#X connect 48 1 4 0;
#X connect 49 0 5 0;
#X connect 49 1 6 0;
#X connect 50 0 7 0;
#X connect 50 1 8 0;
#X connect 51 0 9 0;
#X connect 51 1 10 0;
#X connect 52 0 11 0;
#X connect 52 1 12 0;
#X connect 53 0 13 0;
#X connect 53 1 14 0;
#X connect 54 0 15 0;
#X connect 54 1 16 0;
#X connect 55 0 17 0;
#X connect 55 1 18 0;
#X connect 56 0 19 0;
#X connect 56 1 20 0;
#X connect 57 0 21 0;
#X connect 57 1 22 0;
#X connect 58 0 23 0;
#X connect 58 1 24 0;
#X connect 59 0 25 0;
#X connect 59 1 26 0;
#X connect 60 0 27 0;
#X connect 60 1 28 0;
#X connect 61 0 29 0;
#X connect 61 1 30 0;
#X connect 62 0 63 0;
#X connect 64 0 63 2;
#X connect 64 0 31 2;
#X connect 64 0 32 2;
#X connect 64 0 33 2;
#X connect 64 0 34 2;
#X connect 64 0 35 2;
#X connect 64 0 36 2;
#X connect 64 0 37 2;
#X connect 64 0 38 2;
#X connect 64 0 39 2;
#X connect 64 0 40 2;
#X connect 64 0 41 2;
#X connect 64 0 42 2;
#X connect 64 0 43 2;
#X connect 64 0 44 2;
#X connect 64 0 45 2;
#X connect 65 0 64 0;
#X connect 66 0 67 0;
#X connect 67 0 46 0;
#X connect 67 1 47 0;
#X connect 67 2 48 0;
#X connect 67 3 49 0;
#X connect 67 4 50 0;
#X connect 67 5 51 0;
#X connect 67 6 52 0;
#X connect 67 7 53 0;
#X connect 67 8 54 0;
#X connect 67 9 55 0;
#X connect 67 10 56 0;
#X connect 67 11 57 0;
#X connect 67 12 58 0;
#X connect 67 13 59 0;
#X connect 67 14 60 0;
#X connect 67 15 61 0;
#X restore 182 626 pd pad-control;
#X f 16;
#X obj 176 127 loadbang;
#X obj 64 505 bng 15 250 50 0 empty empty empty 17 7 0 10 #fcfcfc #000000
#000000;
#X obj 706 372 route 44 45 46 47 48 49 50 51 36 37 38 39 40 41 42 43
;
#N canvas 935 0 983 518 clock 0;
#X obj 32 161 i;
#X obj 63 161 + 1;
#X obj 32 33 tgl 15 0 empty empty empty 17 7 0 10 #fcfcfc #000000 #000000
0 1;
#X msg 131 132 0;
#X obj 92 266 + 1;
#X obj 131 107 sel 0;
#X obj 164 136 bng 15 250 50 0 empty empty empty 17 7 0 10 #fcfcfc
#000000 #000000;
#X obj 92 336 s pattern-start;
#X text 174 108 reset;
#X floatatom 562 33 5 0 0 0 - - - 0;
#X obj 32 107 metro, f 12;
#X obj 92 242 i;
#X obj 92 290 %;
#X obj 32 198 %;
#X floatatom 92 314 5 0 0 0 - - - 0;
#X obj 92 218 sel;
#X obj 123 218 - 1;
#X obj 32 223 s pos;
#X obj 233 150 r steps;
#X obj 474 133 tgl 15 0 empty empty empty 17 7 0 10 #fcfcfc #000000
#000000 0 1;
#X obj 474 214 midiout;
#X obj 365 160 select 0 1;
#X msg 365 194 252;
#X msg 402 194 250;
#X msg 474 187 248;
#X obj 474 157 metro 20.8333;
#X obj 562 57 expr (60000/$f1);
#X obj 562 125 / 24;
#X obj 522 89 / 4;
#X obj 32 11 inlet;
#X obj 562 9 inlet;
#X obj 572 158 s clock;
#X obj 233 48 s go;
#X connect 0 0 1 0;
#X connect 0 0 13 0;
#X connect 1 0 0 1;
#X connect 2 0 5 0;
#X connect 2 0 10 0;
#X connect 2 0 19 0;
#X connect 2 0 32 0;
#X connect 3 0 0 1;
#X connect 3 0 11 1;
#X connect 3 0 12 0;
#X connect 4 0 11 1;
#X connect 4 0 12 0;
#X connect 5 0 3 0;
#X connect 5 0 6 0;
#X connect 9 0 26 0;
#X connect 10 0 0 0;
#X connect 11 0 4 0;
#X connect 12 0 14 0;
#X connect 13 0 15 0;
#X connect 13 0 17 0;
#X connect 14 0 7 0;
#X connect 15 0 11 0;
#X connect 16 0 15 1;
#X connect 18 0 12 1;
#X connect 18 0 16 0;
#X connect 18 0 13 1;
#X connect 19 0 21 0;
#X connect 19 0 25 0;
#X connect 21 0 22 0;
#X connect 21 1 23 0;
#X connect 22 0 20 0;
#X connect 23 0 20 0;
#X connect 24 0 20 0;
#X connect 25 0 24 0;
#X connect 26 0 28 0;
#X connect 26 0 27 0;
#X connect 27 0 25 1;
#X connect 27 0 31 0;
#X connect 28 0 10 1;
#X connect 29 0 2 0;
#X connect 30 0 9 0;
#X restore 25 124 pd clock;
#X obj 235 485 ctlin 7;
#X obj 138 554 r save;
#X obj 78 72 loadmess 128;
#X obj 176 72 text define -k seq0;
#A set 1 100 0 3 0 0 0 0 \; 0 100 0 3 0 0 0 0 \; 0 100 0 3 0 0 0 0
\; 0 100 0 3 0 0 0 0 \; 0 100 0 3 0 0 0 0 \; 0 100 0 3 0 0 0 0 \; 0
100 0 3 0 0 0 0 \; 1 100 0 3 0 0 0 0 \; 0 100 0 3 0 0 0 0 \; 0 100
0 3 0 0 0 0 \; 0 100 0 3 0 0 0 0 \; 0 100 0 3 0 0 0 0 \; 1 100 0 3
0 0 0 0 \; 0 100 0 3 0 0 0 0 \; 0 100 0 3 0 0 0 0 \; 0 100 0 3 0 0
0 0 \;;
#X obj 316 72 text define -k seq2;
#A set 1 100 0 3 0 0 0 0 \; 0 100 0 3 0 0 0 0 \; 1 100 0 3 0 0 0 0
\; 0 100 0 3 0 0 0 0 \; 1 100 0 3 0 0 0 0 \; 0 100 0 3 0 0 0 0 \; 1
100 0 3 0 0 0 0 \; 0 100 0 3 0 0 0 0 \; 1 100 0 3 0 0 0 0 \; 0 100
0 3 0 0 0 0 \; 1 100 0 3 0 0 0 0 \; 0 100 0 3 0 0 0 0 \; 1 100 0 3
0 0 0 0 \; 0 100 0 3 0 0 0 0 \; 1 100 0 3 0 0 0 0 \; 0 100 0 3 0 0
0 0 \;;
#X obj 316 96 text define -k seq3;
#A set 0 100 0 3 0 0 0 0 \; 0 100 0 3 0 0 0 0 \; 0 100 0 3 0 0 0 0
\; 0 100 0 3 0 0 0 0 \; 1 100 0 3 0 0 0 0 \; 0 100 0 3 0 0 0 0 \; 0
100 0 3 0 0 0 0 \; 0 100 0 3 0 0 0 0 \; 10100 0 3 0 0 0 0 \; 0 100
1 3 0 0 0 0 \; 0 100 0 3 0 0 0 0 \; 0 100 0 3 0 0 0 0 \; 1 100 0 2
0 0 0 0 \; 0 100 0 3 0 0 0 0 \; 0 100 0 3 0 0 0 0 \; 0 100 0 3 0 0
0 0 \;;
#X obj 64 550 delay 400;
#N canvas 0 0 1920 1052 knob 0;
#X obj 217 31 inlet;
#X floatatom 217 55 5 0 0 0 - - - 0;
#X obj 217 81 sel 63 65;
#X obj 171 126 i;
#X obj 217 107 - 1;
#X obj 247 107 + 1;
#X obj 171 104 bng 15 250 50 0 empty empty empty 17 7 0 10 #fcfcfc
#000000 #000000;
#X floatatom 171 150 5 0 0 0 - - - 0;
#X obj 261 168 < 0;
#X msg 261 213 0;
#X obj 261 192 sel 1;
#X obj 320 168 > 16;
#X obj 320 192 sel 1;
#X msg 320 216 16;
#X obj 171 173 outlet;
#X connect 0 0 1 0;
#X connect 1 0 2 0;
#X connect 1 0 6 0;
#X connect 2 0 4 0;
#X connect 2 1 5 0;
#X connect 3 0 4 0;
#X connect 3 0 5 0;
#X connect 3 0 7 0;
#X connect 4 0 3 1;
#X connect 5 0 3 1;
#X connect 6 0 3 0;
#X connect 7 0 8 0;
#X connect 7 0 11 0;
#X connect 7 0 14 0;
#X connect 8 0 10 0;
#X connect 9 0 3 0;
#X connect 10 0 9 0;
#X connect 11 0 12 0;
#X connect 12 0 13 0;
#X connect 13 0 3 0;
#X restore 1594 370 pd knob;
#N canvas 0 0 1920 1052 utils 0;
#X obj 46 649 spigot, f 13;
#X obj 134 627 tgl 15 0 empty empty empty 17 7 0 10 #fcfcfc #000000
#000000 0 1;
#X text 149 649 conditional;
#X floatatom 134 573 5 0 15 0 - - - 0;
#X obj 134 546 t b f;
#X obj 134 597 text get conditions;
#X obj 134 511 r pattern-start;
#X obj 277 592 s \$0-cond-show;
#X obj 177 546 r \$0-cond;
#X obj 168 126 uzi 16 0;
#X obj 168 106 bng 15 250 50 0 empty empty empty 17 7 0 10 #fcfcfc
#000000 #000000;
#X msg 168 158 100;
#X obj 42 361 uzi 16 0;
#X obj 42 341 bng 15 250 50 0 empty empty empty 17 7 0 10 #fcfcfc #000000
#000000;
#X obj 41 430 text set seq1;
#X msg 122 393 5;
#X obj 84 160 random 100;
#X obj 42 386 random 20;
#X text 42 315 swing;
#X text 167 83 prob random;
#X msg 132 321 4;
#X msg 164 321 9;
#X msg 225 321 19;
#X msg 195 321 14;
#X msg 102 321 0;
#X obj 516 131 notein;
#X floatatom 535 175 5 0 0 0 - - - 0;
#X obj 605 198 ctlin 10;
#X floatatom 605 222 5 0 0 0 - - - 0;
#X obj 535 250 gate 2, f 8;
#X floatatom 535 272 5 0 0 0 - - - 0;
#X floatatom 588 273 5 0 0 0 - - - 0;
#X obj 535 198 sel 0 127;
#X msg 535 222 1;
#X msg 565 222 2;
#X floatatom 516 155 5 0 0 0 - - - 0;
#X text 515 109 shift;
#X obj 602 656 text define -k conditions;
#A set 0 0 0 0 \; 0 0 0 1 \; 0 0 1 0 \; 0 0 1 1 \; 0 1 0 0 \; 0 1 0
1 \; 0 1 1 0 \; 0 1 1 1 \; 1 0 0 0 \; 1 0 0 1 \; 1 0 1 0 \; 1 0 1 1
\; 1 1 0 0 \; 1 1 0 1 \; 1 1 1 0 \; 1 1 1 1 \;;
#X obj 602 609 text get conditions;
#N canvas 0 50 450 250 (subpatch) 0;
#X array cond 4 float 3;
#A 0 0 0 1 0;
#X coords 0 1 4 -1 200 140 1;
#X restore 390 536 graph;
#X obj 602 632 array set cond;
#X floatatom 602 586 5 0 15 0 - - - 0;
#X obj 602 564 r cond-show;
#X text 608 524 note darf nicht triggern \; condititons scalen \;;
#X msg 248 158 1;
#X obj 168 195 text set seq0;
#X connect 1 0 0 1;
#X connect 3 0 7 0;
#X connect 3 0 5 0;
#X connect 4 1 5 1;
#X connect 5 0 1 0;
#X connect 8 0 3 0;
#X connect 9 0 11 0;
#X connect 9 0 16 0;
#X connect 9 2 45 1;
#X connect 10 0 9 0;
#X connect 10 0 44 0;
#X connect 11 0 45 0;
#X connect 12 0 17 0;
#X connect 12 2 14 1;
#X connect 13 0 12 0;
#X connect 13 0 15 0;
#X connect 15 0 14 2;
#X connect 17 0 14 0;
#X connect 20 0 17 1;
#X connect 20 0 13 0;
#X connect 21 0 13 0;
#X connect 21 0 17 1;
#X connect 22 0 17 1;
#X connect 22 0 13 0;
#X connect 23 0 17 1;
#X connect 23 0 13 0;
#X connect 24 0 13 0;
#X connect 24 0 17 1;
#X connect 25 0 35 0;
#X connect 25 1 26 0;
#X connect 26 0 32 0;
#X connect 27 0 28 0;
#X connect 28 0 29 1;
#X connect 29 0 30 0;
#X connect 29 1 31 0;
#X connect 32 0 33 0;
#X connect 32 1 34 0;
#X connect 33 0 29 0;
#X connect 34 0 29 0;
#X connect 38 0 40 0;
#X connect 41 0 38 0;
#X connect 42 0 41 0;
#X connect 44 0 45 2;
#X restore 282 166 pd utils;
#X obj 752 308 ctlin, f 29;
#X obj 706 345 pak f f;
#X obj 1594 289 sel 0 127;
#X msg 1594 313 1;
#X msg 1624 313 2;
#X obj 1594 345 gate 2, f 11;
#N canvas 0 0 967 1050 knob 0;
#X obj 217 31 inlet;
#X floatatom 217 55 5 0 0 0 - - - 0;
#X obj 217 81 sel 63 65;
#X obj 171 126 i;
#X obj 171 104 bng 15 250 50 0 empty empty empty 17 7 0 10 #fcfcfc
#000000 #000000;
#X floatatom 171 150 5 0 0 0 - - - 0;
#X obj 261 168 < 0;
#X msg 261 213 0;
#X obj 261 192 sel 1;
#X obj 320 192 sel 1;
#X msg 320 216 16;
#X obj 171 173 outlet;
#X obj 320 168 > 100;
#X obj 217 107 - 10;
#X obj 251 107 + 10;
#X connect 0 0 1 0;
#X connect 1 0 2 0;
#X connect 1 0 4 0;
#X connect 2 0 13 0;
#X connect 2 1 14 0;
#X connect 3 0 5 0;
#X connect 3 0 13 0;
#X connect 3 0 14 0;
#X connect 4 0 3 0;
#X connect 5 0 6 0;
#X connect 5 0 11 0;
#X connect 5 0 12 0;
#X connect 6 0 8 0;
#X connect 7 0 3 0;
#X connect 8 0 7 0;
#X connect 9 0 10 0;
#X connect 10 0 3 0;
#X connect 12 0 9 0;
#X connect 13 0 3 1;
#X connect 14 0 3 1;
#X restore 1668 370 pd knob;
#N canvas 0 0 1140 1050 steps 0;
#X floatatom 109 218 5 0 0 0 - - - 0;
#X obj 109 149 r pattern-start;
#X obj 109 174 bng 15 250 50 0 empty empty empty 17 7 0 10 #fcfcfc
#000000 #000000;
#X obj 109 194 random 100;
#X obj 200 198 t b f;
#X floatatom 167 122 5 0 0 0 - - - 0;
#X floatatom 226 122 5 0 0 0 - - - 0;
#X floatatom 284 122 5 0 0 0 - - - 0;
#X floatatom 343 122 5 0 0 0 - - - 0;
#X obj 109 34 r pos;
#X obj 109 241 <, f 18;
#X obj 109 72 text get seq0;
#X obj 70 304 spigot;
#X obj 109 273 tgl 15 0 empty empty empty 17 7 0 10 #fcfcfc #000000
#000000 0 1;
#X obj 109 121 moses 1;
#X obj 155 638 *~;
#X obj 261 617 line~;
#X obj 155 712 *~;
#X obj 239 696 hsl 128 15 0 127 0 0 empty empty empty -2 -8 0 10 #fcfcfc
#000000 #000000 0 1;
#X obj 236 716 / 127;
#N canvas 994 0 924 540 ratchet 0;
#X obj 135 126 inlet;
#X obj 180 125 inlet;
#X obj 251 125 inlet;
#X obj 269 278 r clock;
#X floatatom 269 303 5 0 0 0 - - - 0;
#X obj 219 377 metro;
#X floatatom 251 351 5 0 0 0 - - - 0;
#X obj 219 420 spigot;
#X obj 258 402 tgl 15 0 empty empty empty 17 7 0 10 #fcfcfc #000000
#000000 0 1;
#X floatatom 135 275 5 0 0 0 - - - 0;
#X obj 135 250 &&;
#X obj 251 326 *;
#X obj 219 445 outlet;
#X obj 143 377 loadmess 1;
#X obj 251 225 list store 0.25 0.5 1 2 4 6 8;
#X floatatom 251 250 5 0 0 0 - - - 0;
#X floatatom 251 176 5 0 0 0 - - - 0;
#X msg 251 200 get \$1;
#X connect 0 0 10 0;
#X connect 1 0 10 1;
#X connect 2 0 16 0;
#X connect 3 0 4 0;
#X connect 4 0 11 1;
#X connect 5 0 7 0;
#X connect 6 0 5 1;
#X connect 7 0 12 0;
#X connect 8 0 7 1;
#X connect 9 0 8 0;
#X connect 10 0 9 0;
#X connect 11 0 6 0;
#X connect 13 0 5 0;
#X connect 14 0 15 0;
#X connect 15 0 11 0;
#X connect 16 0 17 0;
#X connect 17 0 14 0;
#X restore 226 150 pd ratchet;
#X obj 70 330 s trig0;
#X obj 109 96 unpack f f f f f f f f, f 59;
#X floatatom 401 122 5 0 0 0 - - - 0;
#X obj 460 121 s lock00;
#X obj 525 121 s lock01;
#X text 128 306 random per step \, vllt mit pos;
#X obj 447 611 *~;
#X obj 552 591 line~;
#X obj 385 820 *~;
#X obj 584 679 hsl 128 15 0 127 0 0 empty empty empty -2 -8 0 10 #fcfcfc
#000000 #000000 0 1;
#X obj 581 699 / 127;
#X obj 446 586 noise~;
#X obj 713 786 *~;
#X obj 818 766 line~;
#X obj 712 821 *~;
#X obj 796 805 hsl 128 15 0 127 0 0 empty empty empty -2 -8 0 10 #fcfcfc
#000000 #000000 0 1;
#X obj 793 825 / 127;
#X msg 818 741 1 \, 0 50;
#X obj 712 761 osc~ 400;
#X floatatom 635 267 5 0 0 0 - - - 0;
#X obj 635 198 r pattern-start;
#X obj 635 223 bng 15 250 50 0 empty empty empty 17 7 0 10 #fcfcfc
#000000 #000000;
#X obj 635 243 random 100;
#X obj 726 247 t b f;
#X floatatom 693 171 5 0 0 0 - - - 0;
#X floatatom 752 171 5 0 0 0 - - - 0;
#X floatatom 810 171 5 0 0 0 - - - 0;
#X floatatom 869 171 5 0 0 0 - - - 0;
#X obj 635 83 r pos;
#X obj 635 290 <, f 18;
#X obj 596 353 spigot;
#X obj 635 322 tgl 15 0 empty empty empty 17 7 0 10 #fcfcfc #000000
#000000 0 1;
#X obj 635 170 moses 1;
#N canvas 0 0 933 1050 ratchet 0;
#X obj 361 344 inlet;
#X obj 406 343 inlet;
#X obj 477 343 inlet;
#X obj 495 496 r clock;
#X floatatom 495 521 5 0 0 0 - - - 0;
#X obj 445 595 metro;
#X floatatom 477 569 5 0 0 0 - - - 0;
#X obj 445 638 spigot;
#X obj 484 620 tgl 15 0 empty empty empty 17 7 0 10 #fcfcfc #000000
#000000 0 1;
#X floatatom 361 493 5 0 0 0 - - - 0;
#X obj 361 468 &&;
#X obj 477 544 *;
#X obj 445 663 outlet;
#X obj 369 595 loadmess 1;
#X obj 477 443 list store 0.25 0.5 1 2 4 6 8;
#X floatatom 477 468 5 0 0 0 - - - 0;
#X floatatom 477 394 5 0 0 0 - - - 0;
#X msg 477 418 get \$1;
#X connect 0 0 10 0;
#X connect 1 0 10 1;
#X connect 2 0 16 0;
#X connect 3 0 4 0;
#X connect 4 0 11 1;
#X connect 5 0 7 0;
#X connect 6 0 5 1;
#X connect 7 0 12 0;
#X connect 8 0 7 1;
#X connect 9 0 8 0;
#X connect 10 0 9 0;
#X connect 11 0 6 0;
#X connect 13 0 5 0;
#X connect 14 0 15 0;
#X connect 15 0 11 0;
#X connect 16 0 17 0;
#X connect 17 0 14 0;
#X restore 752 199 pd ratchet;
#X obj 635 145 unpack f f f f f f f f, f 59;
#X floatatom 927 171 5 0 0 0 - - - 0;
#X obj 986 170 s lock00;
#X obj 1051 170 s lock01;
#X text 654 355 random per step \, vllt mit pos;
#X obj 635 121 text get seq1;
#X obj 155 612 osc~ 44;
#X floatatom 1202 275 5 0 0 0 - - - 0;
#X obj 1202 206 r pattern-start;
#X obj 1202 231 bng 15 250 50 0 empty empty empty 17 7 0 10 #fcfcfc
#000000 #000000;
#X obj 1202 251 random 100;
#X obj 1293 255 t b f;
#X floatatom 1260 179 5 0 0 0 - - - 0;
#X floatatom 1319 179 5 0 0 0 - - - 0;
#X floatatom 1377 179 5 0 0 0 - - - 0;
#X floatatom 1436 179 5 0 0 0 - - - 0;
#X obj 1202 91 r pos;
#X obj 1202 298 <, f 18;
#X obj 1163 361 spigot;
#X obj 1202 330 tgl 15 0 empty empty empty 17 7 0 10 #fcfcfc #000000
#000000 0 1;
#X obj 1202 178 moses 1;
#N canvas 1133 540 392 510 ratchet 0;
#X obj 361 344 inlet;
#X obj 406 343 inlet;
#X obj 477 343 inlet;
#X obj 495 496 r clock;
#X floatatom 495 521 5 0 0 0 - - - 0;
#X obj 445 595 metro;
#X floatatom 477 569 5 0 0 0 - - - 0;
#X obj 445 638 spigot;
#X obj 484 620 tgl 15 0 empty empty empty 17 7 0 10 #fcfcfc #000000
#000000 0 1;
#X floatatom 361 493 5 0 0 0 - - - 0;
#X obj 361 468 &&;
#X obj 477 544 *;
#X obj 445 663 outlet;
#X obj 369 595 loadmess 1;
#X obj 477 443 list store 0.25 0.5 1 2 4 6 8;
#X floatatom 477 468 5 0 0 0 - - - 0;
#X floatatom 477 394 5 0 0 0 - - - 0;
#X msg 477 418 get \$1;
#X connect 0 0 10 0;
#X connect 1 0 10 1;
#X connect 2 0 16 0;
#X connect 3 0 4 0;
#X connect 4 0 11 1;
#X connect 5 0 7 0;
#X connect 6 0 5 1;
#X connect 7 0 12 0;
#X connect 8 0 7 1;
#X connect 9 0 8 0;
#X connect 10 0 9 0;
#X connect 11 0 6 0;
#X connect 13 0 5 0;
#X connect 14 0 15 0;
#X connect 15 0 11 0;
#X connect 16 0 17 0;
#X connect 17 0 14 0;
#X restore 1319 207 pd ratchet;
#X obj 1202 153 unpack f f f f f f f f, f 59;
#X floatatom 1494 179 5 0 0 0 - - - 0;
#X obj 1553 178 s lock00;
#X obj 1618 178 s lock01;
#X text 1221 363 random per step \, vllt mit pos;
#X obj 1202 129 text get seq2;
#X obj 446 646 svf~ 8000 0.5;
#X obj 475 676 svf~ 8000 0.5;
#X obj 385 736 hip~ 12000;
#X obj 385 776 hip~ 12000;
#X msg 261 592 1 \, 0 300;
#X obj 156 841 *~ 0.3;
#X obj 156 866 dac~;
#X msg 552 566 1 \, 0 10;
#X obj 242 806 dac~ 3;
#X obj 366 871 dac~ 4;
#X obj 711 859 dac~ 5;
#X obj 155 663 overdrive~ 20;
#X obj 121 495 makenote;
#X msg 161 459 127;
#X obj 121 520 noteout;
#X msg 203 494 10, f 4;
#X msg 118 460 36;
#X obj 634 473 makenote;
#X msg 674 437 127;
#X obj 634 498 noteout;
#X msg 716 472 10, f 4;
#X msg 631 438 38;
#X obj 1171 469 makenote;
#X msg 1211 433 127;
#X obj 1171 494 noteout;
#X msg 1253 468 10, f 4;
#X msg 1168 434 44;
#X floatatom 1095 781 5 0 0 0 - - - 0;
#X obj 1095 712 r pattern-start;
#X obj 1095 737 bng 15 250 50 0 empty empty empty 17 7 0 10 #fcfcfc
#000000 #000000;
#X obj 1095 757 random 100;
#X obj 1186 761 t b f;
#X floatatom 1153 685 5 0 0 0 - - - 0;
#X floatatom 1212 685 5 0 0 0 - - - 0;
#X floatatom 1270 685 5 0 0 0 - - - 0;
#X floatatom 1329 685 5 0 0 0 - - - 0;
#X obj 1095 597 r pos;
#X obj 1095 804 <, f 18;
#X obj 1056 867 spigot;
#X obj 1095 836 tgl 15 0 empty empty empty 17 7 0 10 #fcfcfc #000000
#000000 0 1;
#X obj 1095 684 moses 1;
#N canvas 0 0 967 1050 ratchet 0;
#X obj 361 344 inlet;
#X obj 406 343 inlet;
#X obj 477 343 inlet;
#X obj 495 496 r clock;
#X floatatom 495 521 5 0 0 0 - - - 0;
#X obj 445 595 metro;
#X floatatom 477 569 5 0 0 0 - - - 0;
#X obj 445 638 spigot;
#X obj 484 620 tgl 15 0 empty empty empty 17 7 0 10 #fcfcfc #000000
#000000 0 1;
#X floatatom 361 493 5 0 0 0 - - - 0;
#X obj 361 468 &&;
#X obj 477 544 *;
#X obj 445 663 outlet;
#X obj 369 595 loadmess 1;
#X obj 477 443 list store 0.25 0.5 1 2 4 6 8;
#X floatatom 477 468 5 0 0 0 - - - 0;
#X floatatom 477 394 5 0 0 0 - - - 0;
#X msg 477 418 get \$1;
#X connect 0 0 10 0;
#X connect 1 0 10 1;
#X connect 2 0 16 0;
#X connect 3 0 4 0;
#X connect 4 0 11 1;
#X connect 5 0 7 0;
#X connect 6 0 5 1;
#X connect 7 0 12 0;
#X connect 8 0 7 1;
#X connect 9 0 8 0;
#X connect 10 0 9 0;
#X connect 11 0 6 0;
#X connect 13 0 5 0;
#X connect 14 0 15 0;
#X connect 15 0 11 0;
#X connect 16 0 17 0;
#X connect 17 0 14 0;
#X restore 1212 713 pd ratchet;
#X obj 1095 659 unpack f f f f f f f f, f 59;
#X floatatom 1387 685 5 0 0 0 - - - 0;
#X obj 1446 684 s lock00;
#X obj 1511 684 s lock01;
#X text 1114 869 random per step \, vllt mit pos;
#X obj 1064 975 makenote;
#X msg 1104 939 127;
#X obj 1064 1000 noteout;
#X msg 1146 974 10, f 4;
#X obj 1095 635 text get seq3;
#X msg 1062 940 40;
#X connect 0 0 10 0;
#X connect 1 0 2 0;
#X connect 2 0 3 0;
#X connect 3 0 0 0;
#X connect 4 0 0 0;
#X connect 4 1 10 1;
#X connect 5 0 4 0;
#X connect 6 0 20 1;
#X connect 7 0 20 2;
#X connect 9 0 11 0;
#X connect 10 0 13 0;
#X connect 11 0 22 0;
#X connect 12 0 21 0;
#X connect 12 0 99 0;
#X connect 12 0 96 0;
#X connect 13 0 12 1;
#X connect 14 1 12 0;
#X connect 15 0 94 0;
#X connect 16 0 15 1;
#X connect 17 0 88 0;
#X connect 17 0 91 0;
#X connect 18 0 19 0;
#X connect 19 0 17 1;
#X connect 20 0 12 0;
#X connect 22 0 14 0;
#X connect 22 0 20 0;
#X connect 22 1 5 0;
#X connect 22 2 6 0;
#X connect 22 3 7 0;
#X connect 22 4 8 0;
#X connect 22 5 23 0;
#X connect 22 6 24 0;
#X connect 22 7 25 0;
#X connect 27 0 83 0;
#X connect 28 0 27 1;
#X connect 29 0 88 0;
#X connect 29 0 92 0;
#X connect 30 0 31 0;
#X connect 31 0 29 1;
#X connect 32 0 27 0;
#X connect 33 0 35 0;
#X connect 34 0 33 1;
#X connect 35 0 88 0;
#X connect 35 0 93 0;
#X connect 36 0 37 0;
#X connect 37 0 35 1;
#X connect 38 0 34 0;
#X connect 39 0 33 0;
#X connect 40 0 50 0;
#X connect 41 0 42 0;
#X connect 42 0 43 0;
#X connect 43 0 40 0;
#X connect 44 0 40 0;
#X connect 44 1 50 1;
#X connect 45 0 44 0;
#X connect 46 0 54 1;
#X connect 47 0 54 2;
#X connect 49 0 60 0;
#X connect 50 0 52 0;
#X connect 51 0 104 0;
#X connect 51 0 101 0;
#X connect 52 0 51 1;
#X connect 53 1 51 0;
#X connect 54 0 51 0;
#X connect 55 0 53 0;
#X connect 55 0 54 0;
#X connect 55 1 45 0;
#X connect 55 2 46 0;
#X connect 55 3 47 0;
#X connect 55 4 48 0;
#X connect 55 5 56 0;
#X connect 55 6 57 0;
#X connect 55 7 58 0;
#X connect 60 0 55 0;
#X connect 61 0 15 0;
#X connect 62 0 72 0;
#X connect 63 0 64 0;
#X connect 64 0 65 0;
#X connect 65 0 62 0;
#X connect 66 0 62 0;
#X connect 66 1 72 1;
#X connect 67 0 66 0;
#X connect 68 0 76 1;
#X connect 69 0 76 2;
#X connect 71 0 82 0;
#X connect 72 0 74 0;
#X connect 73 0 109 0;
#X connect 73 0 106 0;
#X connect 74 0 73 1;
#X connect 75 1 73 0;
#X connect 76 0 73 0;
#X connect 77 0 75 0;
#X connect 77 0 76 0;
#X connect 77 1 67 0;
#X connect 77 2 68 0;
#X connect 77 3 69 0;
#X connect 77 4 70 0;
#X connect 77 5 78 0;
#X connect 77 6 79 0;
#X connect 77 7 80 0;
#X connect 82 0 77 0;
#X connect 83 1 84 0;
#X connect 84 1 85 0;
#X connect 85 0 86 0;
#X connect 86 0 29 0;
#X connect 87 0 16 0;
#X connect 88 0 89 0;
#X connect 88 0 89 1;
#X connect 90 0 28 0;
#X connect 94 0 17 0;
#X connect 95 0 97 0;
#X connect 95 1 97 1;
#X connect 96 0 95 1;
#X connect 96 0 95 2;
#X connect 98 0 97 2;
#X connect 99 0 95 0;
#X connect 100 0 102 0;
#X connect 100 1 102 1;
#X connect 101 0 100 1;
#X connect 101 0 100 2;
#X connect 103 0 102 2;
#X connect 104 0 100 0;
#X connect 105 0 107 0;
#X connect 105 1 107 1;
#X connect 106 0 105 1;
#X connect 106 0 105 2;
#X connect 108 0 107 2;
#X connect 109 0 105 0;
#X connect 110 0 120 0;
#X connect 111 0 112 0;
#X connect 112 0 113 0;
#X connect 113 0 110 0;
#X connect 114 0 110 0;
#X connect 114 1 120 1;
#X connect 115 0 114 0;
#X connect 116 0 124 1;
#X connect 117 0 124 2;
#X connect 119 0 134 0;
#X connect 120 0 122 0;
#X connect 121 0 135 0;
#X connect 121 0 131 0;
#X connect 122 0 121 1;
#X connect 123 1 121 0;
#X connect 124 0 121 0;
#X connect 125 0 123 0;
#X connect 125 0 124 0;
#X connect 125 1 115 0;
#X connect 125 2 116 0;
#X connect 125 3 117 0;
#X connect 125 4 118 0;
#X connect 125 5 126 0;
#X connect 125 6 127 0;
#X connect 125 7 128 0;
#X connect 130 0 132 0;
#X connect 130 1 132 1;
#X connect 131 0 130 1;
#X connect 131 0 130 2;
#X connect 133 0 132 2;
#X connect 134 0 125 0;
#X connect 135 0 130 0;
#X restore 344 166 pd steps;
#X floatatom 914 115 5 0 0 0 - - - 0;
#X floatatom 1001 115 5 0 0 0 - - - 0;
#X floatatom 1088 115 5 0 0 0 - - - 0;
#X msg 1137 170 symbol seq\$1;
#X floatatom 1137 133 5 0 0 0 - - - 0;
#X obj 741 190 text set seq0;
#X msg 829 37 symbol seq\$1;
#X obj 741 62 text get seq0;
#X msg 741 38 0;
#X floatatom 827 115 5 0 0 0 - - - 0;
#X obj 741 145 pak f f f f f, f 50;
#X floatatom 741 115 5 0 0 0 - - - 0;
#X obj 741 13 bng 15 250 50 0 empty empty empty 17 7 0 10 #fcfcfc #000000
#000000;
#X obj 1668 395 * 0.1;
#X obj 1668 422 i;
#X obj 1668 449 * 10;
#X obj 498 32 stripnote;
#X obj 498 57 bng 15 250 50 0 empty empty empty 17 7 0 10 #fcfcfc #000000
#000000;
#X obj 498 13 ctlin 124;
#X obj 407 146 bng 15 250 50 0 empty empty empty 17 7 0 10 #fcfcfc
#000000 #000000;
#X msg 829 13 1;
#X obj 176 96 text define -k seq1;
#A set 0 100 0 3 0 0 0 0 \; 0 100 0 3 0 0 0 0 \; 0 100 0 3 0 0 0 0
\; 0 100 0 3 0 0 0 0 \; 1 100 0 3 0 0 0 0 \; 0 100 0 3 0 0 0 0 \; 0
100 1 3 0 0 0 0 \; 0 100 0 3 0 0 0 0 \; 0 100 0 3 0 0 0 0 \; 0 100
0 3 0 0 0 0 \; 0 100 1 3 0 0 0 0 \; 0 100 0 3 0 0 0 0 \; 1 100 0 3
0 0 0 0 \; 0 100 0 3 0 0 0 0 \; 0 100 0 3 0 0 0 0 \; 0 100 0 3 0 0
0 0 \;;
#X obj 1668 265 ctlin 64;
#X obj 1594 265 ctlin 123;
#X obj 741 86 unpack f f f f f f f f, f 50;
#X floatatom 1668 474 5 0 0 0 - - - 0;
#X floatatom 1730 412 5 0 0 0 - - - 0;
#N canvas 0 0 1920 1052 probabilityPadControl 0;
#X msg 570 315 0;
#X floatatom 69 152 5 0 0 0 - - - 0;
#X obj 69 315 >= 10;
#X obj 119 315 >= 20;
#X obj 169 315 >= 30;
#X obj 219 315 >= 40;
#X obj 269 315 >= 50;
#X obj 319 315 >= 60;
#X obj 369 315 >= 70;
#X obj 419 315 >= 80;
#X obj 469 315 >= 90;
#X obj 519 315 >= 100;
#X obj 69 112 inlet;
#X obj 69 379 pak f f f f f f f f f f f, f 72;
#X obj 69 404 outlet;
#X connect 0 0 13 10;
#X connect 1 0 2 0;
#X connect 1 0 3 0;
#X connect 1 0 11 0;
#X connect 1 0 10 0;
#X connect 1 0 9 0;
#X connect 1 0 8 0;
#X connect 1 0 7 0;
#X connect 1 0 6 0;
#X connect 1 0 5 0;
#X connect 1 0 4 0;
#X connect 1 0 0 0;
#X connect 2 0 13 0;
#X connect 3 0 13 1;
#X connect 4 0 13 2;
#X connect 5 0 13 3;
#X connect 6 0 13 4;
#X connect 7 0 13 5;
#X connect 8 0 13 6;
#X connect 9 0 13 7;
#X connect 10 0 13 8;
#X connect 11 0 13 9;
#X connect 12 0 1 0;
#X connect 13 0 14 0;
#X restore 395 627 pd probabilityPadControl;
#X floatatom 64 298 5 0 0 0 - - - 0;
#N canvas 0 0 1920 1052 euclid 0;
#X obj 498 272 f;
#X obj 498 346 *;
#X floatatom 630 382 5 0 16 0 - - - 0;
#X obj 564 252 == 0;
#X obj 526 272 + 1;
#X obj 498 396 <;
#X text 408 374 TRIG NUMBER;
#X msg 564 223 0, f 2;
#X obj 445 167 bng 15 250 50 0 empty empty empty 17 7 0 10 #fcfcfc
#000000 #000000;
#X floatatom 739 303 5 0 0 0 - - - 0;
#X obj 445 188 uzi 16 0;
#X obj 498 297 % 16;
#X obj 498 371 % 16;
#X obj 522 138 r steps;
#X obj 739 330 bng 15 250 50 0 empty empty empty 17 7 0 10 #fcfcfc
#000000 #000000;
#X obj 655 114 inlet;
#X obj 742 216 inlet;
#X obj 498 419 zl group 16;
#X obj 498 443 outlet;
#X obj 498 321 + 0;
#X obj 764 338 del 1;
#X connect 0 0 4 0;
#X connect 0 0 11 0;
#X connect 1 0 12 0;
#X connect 2 0 1 1;
#X connect 2 0 5 1;
#X connect 2 0 7 0;
#X connect 2 0 8 0;
#X connect 3 0 0 1;
#X connect 4 0 0 1;
#X connect 5 0 17 0;
#X connect 7 0 3 0;
#X connect 8 0 10 0;
#X connect 9 0 14 0;
#X connect 9 0 19 1;
#X connect 9 0 20 0;
#X connect 10 2 0 0;
#X connect 11 0 19 0;
#X connect 12 0 5 0;
#X connect 13 0 12 1;
#X connect 13 0 11 1;
#X connect 13 0 10 1;
#X connect 13 0 17 1;
#X connect 14 0 2 0;
#X connect 15 0 2 0;
#X connect 16 0 9 0;
#X connect 17 0 18 0;
#X connect 19 0 1 0;
#X connect 20 0 14 0;
#X restore 64 337 pd euclid;
#X f 11;
#X floatatom 138 295 5 0 0 0 - - - 0;
#X obj 150 337 s save;
#X floatatom 1594 395 5 0 0 0 - - - 0;
#X text 751 285 pads input;
#N canvas 0 0 1920 1052 trackSwitch 0;
#X obj 133 435 inlet;
#X obj 294 584 outlet;
#X obj 231 584 outlet;
#X obj 294 481 sel 0 1 2 3, f 28;
#X obj 294 544 unpack f f f f, f 31;
#X msg 294 509 1 0 0 0;
#X msg 231 545 0;
#X msg 353 509 0 1 0 0;
#X msg 412 509 0 0 1 0;
#X msg 472 510 0 0 0 1;
#X obj 133 461 min 3;
#X obj 365 584 outlet;
#X obj 436 584 outlet;
#X obj 508 584 outlet;
#X obj 133 584 outlet;
#X msg 133 545 symbol seq\$1;
#X connect 0 0 10 0;
#X connect 3 0 5 0;
#X connect 3 1 7 0;
#X connect 3 2 8 0;
#X connect 3 3 9 0;
#X connect 4 0 1 0;
#X connect 4 1 11 0;
#X connect 4 2 12 0;
#X connect 4 3 13 0;
#X connect 5 0 4 0;
#X connect 6 0 2 0;
#X connect 7 0 4 0;
#X connect 8 0 4 0;
#X connect 9 0 4 0;
#X connect 10 0 3 0;
#X connect 10 0 6 0;
#X connect 10 0 15 0;
#X connect 15 0 14 0;
#X restore 235 512 pd trackSwitch;
#X text 293 487 bigKnob;
#N canvas 935 0 983 518 save2 0;
#X obj 216 572 text set;
#X obj 216 378 inlet;
#X obj 286 572 text set;
#X obj 356 572 text set;
#X obj 426 572 text set;
#X obj 496 572 text set;
#X obj 566 572 text set;
#X obj 636 572 text set;
#X obj 706 572 text set;
#X obj 776 572 text set;
#X obj 846 572 text set;
#X obj 916 572 text set;
#X obj 986 572 text set;
#X obj 1056 572 text set;
#X obj 1126 572 text set;
#X obj 1196 572 text set;
#X obj 1266 572 text set;
#X obj 1401 552 inlet;
#X text 1445 552 symbol seq\$1;
#X text 90 563 0 value \; 1 line number \; 2 field number \; 3 symbol
\;;
#X floatatom 877 447 5 0 0 0 - - - 0;
#X floatatom 919 448 5 0 0 0 - - - 0;
#X obj 877 422 gate 16, f 91;
#X floatatom 961 448 5 0 0 0 - - - 0;
#X floatatom 1003 449 5 0 0 0 - - - 0;
#X floatatom 1046 449 5 0 0 0 - - - 0;
#X floatatom 1088 450 5 0 0 0 - - - 0;
#X floatatom 1130 450 5 0 0 0 - - - 0;
#X floatatom 1172 451 5 0 0 0 - - - 0;
#X floatatom 1215 451 5 0 0 0 - - - 0;
#X floatatom 1257 452 5 0 0 0 - - - 0;
#X floatatom 1299 452 5 0 0 0 - - - 0;
#X floatatom 1341 453 5 0 0 0 - - - 0;
#X floatatom 1384 453 5 0 0 0 - - - 0;
#X floatatom 1426 453 5 0 0 0 - - - 0;
#X floatatom 1468 453 5 0 0 0 - - - 0;
#X floatatom 1511 453 5 0 0 0 - - - 0;
#X obj 1458 354 bng 15 250 50 0 empty empty empty 17 7 0 10 #fcfcfc
#000000 #000000;
#X obj 1458 374 uzi 16 0;
#X obj 877 394 + 1;
#X text 614 400 field nr.;
#X msg 610 423 \$1;
#X obj 216 403 unpack f f f f f f f f f f f f f f f f f;
#X obj 1458 330 loadbang;
#X connect 1 0 42 0;
#X connect 17 0 8 3;
#X connect 17 0 16 3;
#X connect 17 0 15 3;
#X connect 17 0 7 3;
#X connect 17 0 6 3;
#X connect 17 0 14 3;
#X connect 17 0 0 3;
#X connect 17 0 9 3;
#X connect 17 0 2 3;
#X connect 17 0 10 3;
#X connect 17 0 3 3;
#X connect 17 0 11 3;
#X connect 17 0 12 3;
#X connect 17 0 4 3;
#X connect 17 0 5 3;
#X connect 17 0 13 3;
#X connect 20 0 0 1;
#X connect 21 0 2 1;
#X connect 22 0 20 0;
#X connect 22 1 21 0;
#X connect 22 2 23 0;
#X connect 22 3 24 0;
#X connect 22 4 25 0;
#X connect 22 5 26 0;
#X connect 22 6 27 0;
#X connect 22 7 28 0;
#X connect 22 8 29 0;
#X connect 22 9 30 0;
#X connect 22 10 31 0;
#X connect 22 11 32 0;
#X connect 22 12 33 0;
#X connect 22 13 34 0;
#X connect 22 14 35 0;
#X connect 22 15 36 0;
#X connect 23 0 3 1;
#X connect 24 0 4 1;
#X connect 25 0 5 1;
#X connect 26 0 6 1;
#X connect 27 0 7 1;
#X connect 28 0 8 1;
#X connect 29 0 9 1;
#X connect 30 0 10 1;
#X connect 31 0 11 1;
#X connect 32 0 12 1;
#X connect 33 0 13 1;
#X connect 34 0 14 1;
#X connect 35 0 15 1;
#X connect 36 0 16 1;
#X connect 37 0 38 0;
#X connect 38 2 39 0;
#X connect 38 2 22 1;
#X connect 39 0 22 0;
#X connect 41 0 0 2;
#X connect 41 0 2 2;
#X connect 41 0 3 2;
#X connect 41 0 4 2;
#X connect 41 0 5 2;
#X connect 41 0 6 2;
#X connect 41 0 7 2;
#X connect 41 0 8 2;
#X connect 41 0 9 2;
#X connect 41 0 10 2;
#X connect 41 0 11 2;
#X connect 41 0 12 2;
#X connect 41 0 13 2;
#X connect 41 0 14 2;
#X connect 41 0 15 2;
#X connect 41 0 16 2;
#X connect 41 0 16 1;
#X connect 42 0 0 0;
#X connect 42 1 2 0;
#X connect 42 2 3 0;
#X connect 42 3 4 0;
#X connect 42 4 5 0;
#X connect 42 5 6 0;
#X connect 42 6 7 0;
#X connect 42 7 8 0;
#X connect 42 8 9 0;
#X connect 42 9 10 0;
#X connect 42 10 11 0;
#X connect 42 11 12 0;
#X connect 42 12 13 0;
#X connect 42 13 14 0;
#X connect 42 14 15 0;
#X connect 42 15 16 0;
#X connect 42 16 41 0;
#X connect 43 0 37 0;
#X restore 303 626 pd save2;
#X f 11;
#X obj 1190 283 ctlin, f 14;
#X floatatom 1237 306 5 0 0 0 - - - 0;
#X obj 1130 440 route 64 65 66 67 68 69 70 71 72 73 74 75 76 77 78
79;
#X floatatom 1190 307 5 0 0 0 - - - 0;
#X obj 1130 415 pack f f, f 9;
#N canvas 935 0 983 518 knob 0;
#X obj 217 31 inlet;
#X floatatom 217 55 5 0 0 0 - - - 0;
#X obj 217 81 sel 63 65;
#X obj 171 126 i;
#X obj 171 104 bng 15 250 50 0 empty empty empty 17 7 0 10 #fcfcfc
#000000 #000000;
#X floatatom 171 150 5 0 0 0 - - - 0;
#X obj 261 168 < 0;
#X msg 261 213 0;
#X obj 261 192 sel 1;
#X obj 320 192 sel 1;
#X obj 171 173 outlet;
#X obj 320 168 > 100;
#X obj 217 107 - 10;
#X obj 251 107 + 10;
#X msg 320 216 100;
#X connect 0 0 1 0;
#X connect 1 0 2 0;
#X connect 1 0 4 0;
#X connect 2 0 12 0;
#X connect 2 1 13 0;
#X connect 3 0 5 0;
#X connect 3 0 12 0;
#X connect 3 0 13 0;
#X connect 4 0 3 0;
#X connect 5 0 6 0;
#X connect 5 0 10 0;
#X connect 5 0 11 0;
#X connect 6 0 8 0;
#X connect 7 0 3 0;
#X connect 8 0 7 0;
#X connect 9 0 14 0;
#X connect 11 0 9 0;
#X connect 12 0 3 1;
#X connect 13 0 3 1;
#X connect 14 0 3 0;
#X restore 1190 330 pd knob;
#X floatatom 1190 388 5 0 0 0 - - - 0;
#X obj 1130 473 pak f f f f f f f f f f f f f f f f f, f 50;
#X obj 64 441 pak f f f f f f f f f f f f f f f f f, f 92;
#X obj 705 416 loadmess 0;
#X obj 1509 440 loadmess 1;
#X obj 1130 508 s 2save;
#X obj 72 472 s 2save;
#X obj 303 602 r 2save;
#X text 1194 256 knobs;
#N canvas 0 0 1920 1052 call2 0;
#X obj 92 453 text get;
#X text 41 38 0 line number \; 1 starting field (-1 = whole line) \;
2 number of fields \; 4 symbol \;;
#X obj 1281 433 inlet;
#X obj 162 453 text get;
#X obj 232 453 text get;
#X obj 302 453 text get;
#X obj 372 453 text get;
#X obj 442 453 text get;
#X obj 512 453 text get;
#X obj 582 453 text get;
#X obj 652 453 text get;
#X obj 722 453 text get;
#X obj 792 453 text get;
#X obj 862 453 text get;
#X obj 932 453 text get;
#X obj 1002 453 text get;
#X obj 1072 453 text get;
#X obj 1142 453 text get;
#X floatatom 92 314 5 0 0 0 - - - 0;
#X floatatom 134 315 5 0 0 0 - - - 0;
#X obj 92 289 gate 16, f 91;
#X floatatom 176 315 5 0 0 0 - - - 0;
#X floatatom 218 316 5 0 0 0 - - - 0;
#X floatatom 261 316 5 0 0 0 - - - 0;
#X floatatom 303 317 5 0 0 0 - - - 0;
#X floatatom 345 317 5 0 0 0 - - - 0;
#X floatatom 387 318 5 0 0 0 - - - 0;
#X floatatom 430 318 5 0 0 0 - - - 0;
#X floatatom 472 319 5 0 0 0 - - - 0;
#X floatatom 514 319 5 0 0 0 - - - 0;
#X floatatom 556 320 5 0 0 0 - - - 0;
#X floatatom 599 320 5 0 0 0 - - - 0;
#X floatatom 641 320 5 0 0 0 - - - 0;
#X floatatom 683 320 5 0 0 0 - - - 0;
#X floatatom 726 320 5 0 0 0 - - - 0;
#X obj 673 221 bng 15 250 50 0 empty empty empty 17 7 0 10 #fcfcfc
#000000 #000000;
#X obj 673 241 uzi 16 0;
#X obj 92 261 + 1;
#X obj 673 195 inlet;
#X text 1327 432 symbol seq\$1;
#X text 28 314 line nr.;
#X msg 1468 433 1;
#X text 1504 433 number of fields;
#X msg 1126 280 \$1;
#X obj 1468 408 loadbang;
#X obj 1126 257 inlet;
#X obj 92 496 pak f f f f f f f f f f f f f f f f, f 151;
#X obj 92 521 outlet;
#X connect 0 0 46 0;
#X connect 2 0 17 3;
#X connect 2 0 16 3;
#X connect 2 0 15 3;
#X connect 2 0 14 3;
#X connect 2 0 13 3;
#X connect 2 0 12 3;
#X connect 2 0 11 3;
#X connect 2 0 10 3;
#X connect 2 0 9 3;
#X connect 2 0 8 3;
#X connect 2 0 7 3;
#X connect 2 0 6 3;
#X connect 2 0 5 3;
#X connect 2 0 4 3;
#X connect 2 0 3 3;
#X connect 2 0 0 3;
#X connect 3 0 46 1;
#X connect 4 0 46 2;
#X connect 5 0 46 3;
#X connect 6 0 46 4;
#X connect 7 0 46 5;
#X connect 8 0 46 6;
#X connect 9 0 46 7;
#X connect 10 0 46 8;
#X connect 11 0 46 9;
#X connect 12 0 46 10;
#X connect 13 0 46 11;
#X connect 14 0 46 12;
#X connect 15 0 46 13;
#X connect 16 0 46 14;
#X connect 17 0 46 15;
#X connect 18 0 0 0;
#X connect 19 0 3 0;
#X connect 20 0 18 0;
#X connect 20 1 19 0;
#X connect 20 2 21 0;
#X connect 20 3 22 0;
#X connect 20 4 23 0;
#X connect 20 5 24 0;
#X connect 20 6 25 0;
#X connect 20 7 26 0;
#X connect 20 8 27 0;
#X connect 20 9 28 0;
#X connect 20 10 29 0;
#X connect 20 11 30 0;
#X connect 20 12 31 0;
#X connect 20 13 32 0;
#X connect 20 14 33 0;
#X connect 20 15 34 0;
#X connect 21 0 4 0;
#X connect 22 0 5 0;
#X connect 23 0 6 0;
#X connect 24 0 7 0;
#X connect 25 0 8 0;
#X connect 26 0 9 0;
#X connect 27 0 10 0;
#X connect 28 0 11 0;
#X connect 29 0 12 0;
#X connect 30 0 13 0;
#X connect 31 0 14 0;
#X connect 32 0 15 0;
#X connect 33 0 16 0;
#X connect 34 0 17 0;
#X connect 35 0 36 0;
#X connect 36 2 37 0;
#X connect 36 2 20 1;
#X connect 37 0 20 0;
#X connect 38 0 35 0;
#X connect 41 0 0 2;
#X connect 41 0 3 2;
#X connect 41 0 4 2;
#X connect 41 0 5 2;
#X connect 41 0 6 2;
#X connect 41 0 7 2;
#X connect 41 0 8 2;
#X connect 41 0 9 2;
#X connect 41 0 10 2;
#X connect 41 0 11 2;
#X connect 41 0 12 2;
#X connect 41 0 13 2;
#X connect 41 0 14 2;
#X connect 41 0 15 2;
#X connect 41 0 16 2;
#X connect 41 0 17 2;
#X connect 43 0 0 1;
#X connect 43 0 3 1;
#X connect 43 0 4 1;
#X connect 43 0 5 1;
#X connect 43 0 6 1;
#X connect 43 0 7 1;
#X connect 43 0 8 1;
#X connect 43 0 9 1;
#X connect 43 0 10 1;
#X connect 43 0 11 1;
#X connect 43 0 12 1;
#X connect 43 0 13 1;
#X connect 43 0 14 1;
#X connect 43 0 15 1;
#X connect 43 0 16 1;
#X connect 43 0 17 1;
#X connect 44 0 41 0;
#X connect 45 0 43 0;
#X connect 46 0 47 0;
#X restore 182 602 pd call2;
#N canvas 0 0 1131 1050 resetLists 0;
#X obj 285 155 uzi 16 0;
#X obj 285 208 text set seq0;
#X obj 295 238 text set seq1;
#X obj 305 268 text set seq2;
#X obj 315 298 text set seq3;
#X obj 285 108 inlet;
#X obj 285 135 bng 15 250 50 0 empty empty empty 17 7 0 10 #fcfcfc
#000000 #000000;
#X msg 285 181 0 100 0 3 0 0 0 0;
#X connect 0 0 7 0;
#X connect 0 2 1 1;
#X connect 0 2 2 1;
#X connect 0 2 3 1;
#X connect 0 2 4 1;
#X connect 5 0 6 0;
#X connect 6 0 0 0;
#X connect 7 0 1 0;
#X connect 7 0 2 0;
#X connect 7 0 3 0;
#X connect 7 0 4 0;
#X restore 407 166 pd resetLists;
#X floatatom 178 513 5 0 0 0 - - - 0;
#X obj 246 200 random 3;
#X text 750 644 besser globale parameter statt zu genau -> siehe torso
t-1 \;;
#X obj 64 220 random 7;
#X obj 64 245 + 6;
#X text 612 59 0 trig \; 1 prob \; 2 ratchet \; 3 ratchet speed \;
4 del \; 5 generic 1 \; 6 generic 2;
#X connect 0 0 28 0;
#X connect 1 0 3 0;
#X connect 2 0 28 1;
#X connect 3 0 101 0;
#X connect 3 0 103 0;
#X connect 4 0 5 0;
#X connect 4 1 6 0;
#X connect 4 2 7 0;
#X connect 4 3 8 0;
#X connect 4 4 9 0;
#X connect 4 5 10 0;
#X connect 4 6 11 0;
#X connect 4 7 12 0;
#X connect 4 8 13 0;
#X connect 4 9 14 0;
#X connect 4 10 15 0;
#X connect 4 11 16 0;
#X connect 4 12 17 0;
#X connect 4 13 18 0;
#X connect 4 14 19 0;
#X connect 4 15 20 0;
#X connect 5 0 91 0;
#X connect 6 0 91 1;
#X connect 7 0 91 2;
#X connect 8 0 91 3;
#X connect 9 0 91 4;
#X connect 10 0 91 5;
#X connect 11 0 91 6;
#X connect 12 0 91 7;
#X connect 13 0 91 8;
#X connect 14 0 91 9;
#X connect 15 0 91 10;
#X connect 16 0 91 11;
#X connect 17 0 91 12;
#X connect 18 0 91 13;
#X connect 19 0 91 14;
#X connect 20 0 91 15;
#X connect 23 0 21 0;
#X connect 25 0 23 0;
#X connect 26 0 35 0;
#X connect 27 0 5 0;
#X connect 27 1 6 0;
#X connect 27 2 7 0;
#X connect 27 3 8 0;
#X connect 27 4 9 0;
#X connect 27 5 10 0;
#X connect 27 6 11 0;
#X connect 27 7 12 0;
#X connect 27 8 13 0;
#X connect 27 9 14 0;
#X connect 27 10 15 0;
#X connect 27 11 16 0;
#X connect 27 12 17 0;
#X connect 27 13 18 0;
#X connect 27 14 19 0;
#X connect 27 15 20 0;
#X connect 29 0 26 0;
#X connect 29 0 80 0;
#X connect 30 0 22 0;
#X connect 31 0 2 0;
#X connect 35 0 22 0;
#X connect 36 0 78 0;
#X connect 38 0 39 1;
#X connect 38 1 39 0;
#X connect 39 0 27 0;
#X connect 40 0 41 0;
#X connect 40 1 42 0;
#X connect 41 0 43 0;
#X connect 42 0 43 0;
#X connect 43 0 36 0;
#X connect 43 1 44 0;
#X connect 44 0 59 0;
#X connect 44 0 72 0;
#X connect 46 0 56 2;
#X connect 47 0 56 3;
#X connect 48 0 56 4;
#X connect 49 0 51 3;
#X connect 50 0 49 0;
#X connect 52 0 53 3;
#X connect 53 0 70 0;
#X connect 54 0 53 0;
#X connect 55 0 56 1;
#X connect 56 0 51 0;
#X connect 57 0 56 0;
#X connect 58 0 54 0;
#X connect 59 0 60 0;
#X connect 60 0 61 0;
#X connect 61 0 71 0;
#X connect 62 0 63 0;
#X connect 63 0 0 0;
#X connect 64 0 62 1;
#X connect 64 1 62 0;
#X connect 65 0 99 0;
#X connect 66 0 52 0;
#X connect 68 0 43 1;
#X connect 69 0 40 0;
#X connect 70 0 57 0;
#X connect 70 1 55 0;
#X connect 70 2 46 0;
#X connect 70 3 47 0;
#X connect 70 4 48 0;
#X connect 74 0 75 0;
#X connect 74 0 77 0;
#X connect 75 0 4 0;
#X connect 76 0 75 1;
#X connect 76 0 77 0;
#X connect 80 0 82 1;
#X connect 80 0 98 2;
#X connect 83 0 86 0;
#X connect 83 1 84 0;
#X connect 84 0 87 0;
#X connect 85 0 90 0;
#X connect 85 1 90 1;
#X connect 85 2 90 2;
#X connect 85 3 90 3;
#X connect 85 4 90 4;
#X connect 85 5 90 5;
#X connect 85 6 90 6;
#X connect 85 7 90 7;
#X connect 85 8 90 8;
#X connect 85 9 90 9;
#X connect 85 10 90 10;
#X connect 85 11 90 11;
#X connect 85 12 90 12;
#X connect 85 13 90 13;
#X connect 85 14 90 14;
#X connect 85 15 90 15;
#X connect 86 0 88 0;
#X connect 87 0 85 0;
#X connect 88 0 89 0;
#X connect 89 0 87 1;
#X connect 91 0 26 0;
#X connect 91 0 95 0;
#X connect 92 0 91 16;
#X connect 93 0 90 16;
#X connect 96 0 82 0;
#X connect 98 0 24 0;
#X connect 100 0 80 0;
#X connect 101 0 76 0;
#X connect 103 0 104 0;
#X connect 104 0 74 0;
