#N canvas 126 0 1785 998 12;
#X obj 25 72 tgl 30 0 empty empty empty 17 7 0 10 -4034 -1 -1 1 1;
#X obj 246 127 r pattern-start;
#X floatatom 78 96 5 0 0 0 - - -;
#X obj 246 154 bng 30 250 50 0 empty empty empty 17 7 0 10 -262144
-4034 -1;
#X obj 31 665 unpack f f f f f f f f f f f f f f f f, f 87;
#X obj 31 691 tgl 30 0 empty empty empty 17 7 0 10 -204786 -1 -1 127
1;
#X obj 71 691 tgl 30 0 empty empty empty 17 7 0 10 -262144 -1 -1 127
1;
#X obj 111 691 tgl 30 0 empty empty empty 17 7 0 10 -262144 -1 -1 0
1;
#X obj 151 691 tgl 30 0 empty empty empty 17 7 0 10 -262144 -1 -1 0
1;
#X obj 191 691 tgl 30 0 empty empty empty 17 7 0 10 -204786 -1 -1 127
1;
#X obj 231 691 tgl 30 0 empty empty empty 17 7 0 10 -262144 -1 -1 0
1;
#X obj 271 691 tgl 30 0 empty empty empty 17 7 0 10 -262144 -1 -1 0
1;
#X obj 311 691 tgl 30 0 empty empty empty 17 7 0 10 -262144 -1 -1 0
1;
#X obj 351 691 tgl 30 0 empty empty empty 17 7 0 10 -204786 -1 -1 0
1;
#X obj 391 691 tgl 30 0 empty empty empty 17 7 0 10 -262144 -1 -1 127
1;
#X obj 431 691 tgl 30 0 empty empty empty 17 7 0 10 -262144 -1 -1 0
1;
#X obj 471 691 tgl 30 0 empty empty empty 17 7 0 10 -262144 -1 -1 0
1;
#X obj 511 691 tgl 30 0 empty empty empty 17 7 0 10 -204786 -1 -1 0
1;
#X obj 551 691 tgl 30 0 empty empty empty 17 7 0 10 -262144 -1 -1 0
1;
#X obj 591 691 tgl 30 0 empty empty empty 17 7 0 10 -262144 -1 -1 0
1;
#X obj 631 691 tgl 30 0 empty empty empty 17 7 0 10 -262144 -1 -1 0
1;
#X obj 31 878 tgl 30 0 empty empty empty 17 7 0 10 -204786 -1 -1 127
1;
#X obj 71 878 tgl 30 0 empty empty empty 17 7 0 10 -262144 -1 -1 0
1;
#X obj 111 878 tgl 30 0 empty empty empty 17 7 0 10 -262144 -1 -1 0
1;
#X obj 151 878 tgl 30 0 empty empty empty 17 7 0 10 -262144 -1 -1 0
1;
#X obj 191 878 tgl 30 0 empty empty empty 17 7 0 10 -204786 -1 -1 0
1;
#X obj 231 878 tgl 30 0 empty empty empty 17 7 0 10 -262144 -1 -1 0
1;
#X obj 271 878 tgl 30 0 empty empty empty 17 7 0 10 -262144 -1 -1 0
1;
#X obj 311 878 tgl 30 0 empty empty empty 17 7 0 10 -262144 -1 -1 0
1;
#X obj 351 878 tgl 30 0 empty empty empty 17 7 0 10 -204786 -1 -1 0
1;
#X obj 391 878 tgl 30 0 empty empty empty 17 7 0 10 -262144 -1 -1 0
1;
#X obj 431 878 tgl 30 0 empty empty empty 17 7 0 10 -262144 -1 -1 0
1;
#X obj 471 878 tgl 30 0 empty empty empty 17 7 0 10 -262144 -1 -1 0
1;
#X obj 511 878 tgl 30 0 empty empty empty 17 7 0 10 -204786 -1 -1 0
1;
#X obj 551 878 tgl 30 0 empty empty empty 17 7 0 10 -262144 -1 -1 0
1;
#X obj 591 878 tgl 30 0 empty empty empty 17 7 0 10 -262144 -1 -1 0
1;
#X obj 631 878 tgl 30 0 empty empty empty 17 7 0 10 -262144 -1 -1 0
1;
#X obj 176 175 s steps;
#N canvas 0 0 1920 1041 save 0;
#X obj 104 464 text set seq1;
#X msg 130 438 0;
#X obj 202 464 text set seq1;
#X msg 228 438 1;
#X obj 300 465 text set seq1;
#X obj 398 465 text set seq1;
#X obj 496 464 text set seq1;
#X obj 594 464 text set seq1;
#X obj 104 399 inlet;
#X obj 202 399 inlet;
#X obj 300 399 inlet;
#X obj 398 399 inlet;
#X obj 496 399 inlet;
#X obj 594 399 inlet;
#X obj 694 399 inlet;
#X obj 792 399 inlet;
#X obj 890 399 inlet;
#X obj 988 399 inlet;
#X obj 1086 399 inlet;
#X obj 1184 399 inlet;
#X obj 1283 399 inlet;
#X obj 1381 399 inlet;
#X obj 1479 399 inlet;
#X obj 1577 399 inlet;
#X obj 694 464 text set seq1;
#X obj 792 464 text set seq1;
#X obj 890 465 text set seq1;
#X obj 988 465 text set seq1;
#X obj 1086 464 text set seq1;
#X obj 1184 464 text set seq1;
#X obj 1283 464 text set seq1;
#X obj 1381 464 text set seq1;
#X obj 1479 463 text set seq1;
#X obj 1577 463 text set seq1;
#X msg 326 439 2;
#X msg 424 439 3;
#X msg 522 438 4;
#X msg 621 438 5;
#X msg 720 438 6;
#X msg 818 438 7;
#X msg 916 439 8;
#X msg 1014 439 9;
#X msg 1112 438 10;
#X msg 1210 438 11;
#X msg 1309 438 12;
#X msg 1407 438 13;
#X msg 1505 437 14;
#X msg 1603 437 15;
#X obj 1655 422 bng 15 250 50 0 empty empty empty 17 7 0 10 -262144
-1 -1;
#X obj 1655 395 loadbang;
#X floatatom 1715 445 5 0 0 0 - - -;
#X obj 1787 444 inlet;
#X msg 1715 419 0;
#X connect 1 0 0 1;
#X connect 3 0 2 1;
#X connect 8 0 0 0;
#X connect 9 0 2 0;
#X connect 10 0 4 0;
#X connect 11 0 5 0;
#X connect 12 0 6 0;
#X connect 13 0 7 0;
#X connect 14 0 24 0;
#X connect 15 0 25 0;
#X connect 16 0 26 0;
#X connect 17 0 27 0;
#X connect 18 0 28 0;
#X connect 19 0 29 0;
#X connect 20 0 30 0;
#X connect 21 0 31 0;
#X connect 22 0 32 0;
#X connect 23 0 33 0;
#X connect 34 0 4 1;
#X connect 35 0 5 1;
#X connect 36 0 6 1;
#X connect 37 0 7 1;
#X connect 38 0 24 1;
#X connect 39 0 25 1;
#X connect 40 0 26 1;
#X connect 41 0 27 1;
#X connect 42 0 28 1;
#X connect 43 0 29 1;
#X connect 44 0 30 1;
#X connect 45 0 31 1;
#X connect 46 0 32 1;
#X connect 47 0 33 1;
#X connect 48 0 47 0;
#X connect 48 0 46 0;
#X connect 48 0 45 0;
#X connect 48 0 44 0;
#X connect 48 0 43 0;
#X connect 48 0 42 0;
#X connect 48 0 41 0;
#X connect 48 0 40 0;
#X connect 48 0 39 0;
#X connect 48 0 38 0;
#X connect 48 0 37 0;
#X connect 48 0 36 0;
#X connect 48 0 35 0;
#X connect 48 0 34 0;
#X connect 48 0 3 0;
#X connect 48 0 1 0;
#X connect 49 0 48 0;
#X connect 49 0 52 0;
#X connect 50 0 0 2;
#X connect 50 0 2 2;
#X connect 50 0 4 2;
#X connect 50 0 5 2;
#X connect 50 0 6 2;
#X connect 50 0 7 2;
#X connect 50 0 24 2;
#X connect 50 0 25 2;
#X connect 50 0 26 2;
#X connect 50 0 27 2;
#X connect 50 0 28 2;
#X connect 50 0 29 2;
#X connect 50 0 30 2;
#X connect 50 0 31 2;
#X connect 50 0 32 2;
#X connect 50 0 33 2;
#X connect 51 0 33 3;
#X connect 51 0 32 3;
#X connect 51 0 31 3;
#X connect 51 0 30 3;
#X connect 51 0 29 3;
#X connect 51 0 28 3;
#X connect 51 0 27 3;
#X connect 51 0 26 3;
#X connect 51 0 25 3;
#X connect 51 0 24 3;
#X connect 51 0 7 3;
#X connect 51 0 6 3;
#X connect 51 0 5 3;
#X connect 51 0 4 3;
#X connect 51 0 2 3;
#X connect 51 0 0 3;
#X connect 52 0 50 0;
#X restore 31 734 pd save;
#X f 87;
#N canvas -8 -8 1920 1007 call 0;
#X obj 474 379 text get seq1;
#X floatatom 73 241 5 0 0 0 - - -;
#X floatatom 115 242 5 0 0 0 - - -;
#X obj 73 216 gate 16, f 91;
#X floatatom 157 242 5 0 0 0 - - -;
#X floatatom 199 243 5 0 0 0 - - -;
#X floatatom 241 243 5 0 0 0 - - -;
#X floatatom 283 244 5 0 0 0 - - -;
#X floatatom 325 244 5 0 0 0 - - -;
#X floatatom 367 245 5 0 0 0 - - -;
#X floatatom 409 245 5 0 0 0 - - -;
#X floatatom 451 246 5 0 0 0 - - -;
#X floatatom 493 246 5 0 0 0 - - -;
#X floatatom 535 247 5 0 0 0 - - -;
#X floatatom 577 247 5 0 0 0 - - -;
#X floatatom 619 248 5 0 0 0 - - -;
#X floatatom 661 248 5 0 0 0 - - -;
#X floatatom 703 249 5 0 0 0 - - -;
#X obj 75 142 bng 15 250 50 0 empty empty empty 17 7 0 10 -262144 -1
-1;
#X obj 75 162 uzi 16 0;
#X obj 73 188 + 1;
#X obj 574 379 text get seq1;
#X obj 674 379 text get seq1;
#X obj 774 379 text get seq1;
#X obj 874 379 text get seq1;
#X obj 974 379 text get seq1;
#X obj 1074 379 text get seq1;
#X obj 1174 379 text get seq1;
#X obj 1274 379 text get seq1;
#X obj 1374 379 text get seq1;
#X obj 1474 379 text get seq1;
#X obj 1574 379 text get seq1;
#X obj 74 379 text get seq1;
#X obj 174 379 text get seq1;
#X obj 274 379 text get seq1;
#X obj 374 379 text get seq1;
#X obj 442 508 outlet;
#X obj 492 508 outlet;
#X obj 542 508 outlet;
#X obj 592 508 outlet;
#X obj 642 508 outlet;
#X obj 692 508 outlet;
#X obj 742 508 outlet;
#X obj 792 508 outlet;
#X obj 842 508 outlet;
#X obj 892 508 outlet;
#X obj 942 508 outlet;
#X obj 992 508 outlet;
#X obj 1042 508 outlet;
#X obj 1092 508 outlet;
#X obj 1142 508 outlet;
#X obj 1192 508 outlet;
#X obj 76 114 inlet;
#X floatatom 1762 361 5 0 0 0 - - -;
#X obj 792 126 inlet;
#X obj 1762 314 loadbang;
#X msg 1762 336 0;
#X connect 0 0 40 0;
#X connect 1 0 32 0;
#X connect 2 0 33 0;
#X connect 3 0 1 0;
#X connect 3 1 2 0;
#X connect 3 2 4 0;
#X connect 3 3 5 0;
#X connect 3 4 6 0;
#X connect 3 5 7 0;
#X connect 3 6 8 0;
#X connect 3 7 9 0;
#X connect 3 8 10 0;
#X connect 3 9 11 0;
#X connect 3 10 12 0;
#X connect 3 11 13 0;
#X connect 3 12 14 0;
#X connect 3 13 15 0;
#X connect 3 14 16 0;
#X connect 3 15 17 0;
#X connect 4 0 34 0;
#X connect 5 0 35 0;
#X connect 6 0 0 0;
#X connect 7 0 21 0;
#X connect 8 0 22 0;
#X connect 9 0 23 0;
#X connect 10 0 24 0;
#X connect 11 0 25 0;
#X connect 12 0 26 0;
#X connect 13 0 27 0;
#X connect 14 0 28 0;
#X connect 15 0 29 0;
#X connect 16 0 30 0;
#X connect 17 0 31 0;
#X connect 18 0 19 0;
#X connect 19 2 20 0;
#X connect 19 2 3 1;
#X connect 20 0 3 0;
#X connect 21 0 41 0;
#X connect 22 0 42 0;
#X connect 23 0 43 0;
#X connect 24 0 44 0;
#X connect 25 0 45 0;
#X connect 26 0 46 0;
#X connect 27 0 47 0;
#X connect 28 0 48 0;
#X connect 29 0 49 0;
#X connect 30 0 50 0;
#X connect 31 0 51 0;
#X connect 32 0 36 0;
#X connect 32 1 33 0;
#X connect 33 0 37 0;
#X connect 34 0 38 0;
#X connect 35 0 39 0;
#X connect 52 0 18 0;
#X connect 53 0 32 1;
#X connect 53 0 33 1;
#X connect 53 0 34 1;
#X connect 53 0 35 1;
#X connect 53 0 0 1;
#X connect 53 0 21 1;
#X connect 53 0 22 1;
#X connect 53 0 23 1;
#X connect 53 0 24 1;
#X connect 53 0 25 1;
#X connect 53 0 26 1;
#X connect 53 0 27 1;
#X connect 53 0 28 1;
#X connect 53 0 29 1;
#X connect 53 0 30 1;
#X connect 53 0 31 1;
#X connect 54 0 32 3;
#X connect 54 0 33 3;
#X connect 54 0 34 3;
#X connect 54 0 35 3;
#X connect 54 0 0 3;
#X connect 54 0 21 3;
#X connect 54 0 22 3;
#X connect 54 0 23 3;
#X connect 54 0 24 3;
#X connect 54 0 25 3;
#X connect 54 0 26 3;
#X connect 54 0 27 3;
#X connect 54 0 28 3;
#X connect 54 0 29 3;
#X connect 54 0 30 3;
#X connect 54 0 31 3;
#X connect 55 0 56 0;
#X connect 56 0 53 0;
#X restore 31 848 pd call;
#X f 88;
#X obj 31 825 bng 15 250 50 0 empty empty empty 17 7 0 10 -262144 -1
-1;
#X msg 176 151 16;
#N canvas -8 -8 1920 1007 pad-control 0;
#X msg 68 219 0;
#X obj 68 167 inlet;
#X msg 108 219 100;
#X obj 68 248 ctlout 44;
#X msg 148 219 0;
#X obj 148 167 inlet;
#X msg 188 219 100;
#X msg 228 219 0;
#X obj 228 167 inlet;
#X msg 268 219 100;
#X msg 308 219 0;
#X obj 308 167 inlet;
#X msg 348 219 100;
#X msg 388 219 0;
#X obj 388 167 inlet;
#X msg 428 219 100;
#X msg 468 219 0;
#X obj 468 167 inlet;
#X msg 508 219 100;
#X msg 548 219 0;
#X obj 548 167 inlet;
#X msg 588 219 100;
#X msg 628 219 0;
#X obj 628 167 inlet;
#X msg 668 219 100;
#X msg 708 219 0;
#X obj 708 167 inlet;
#X msg 748 219 100;
#X msg 788 219 0;
#X obj 788 167 inlet;
#X msg 828 219 100;
#X msg 868 219 0;
#X obj 868 167 inlet;
#X msg 908 219 100;
#X msg 948 219 0;
#X obj 948 167 inlet;
#X msg 988 219 100;
#X msg 1028 219 0;
#X obj 1028 167 inlet;
#X msg 1068 219 100;
#X msg 1108 219 0;
#X obj 1108 167 inlet;
#X msg 1148 219 100;
#X msg 1188 219 0;
#X obj 1188 167 inlet;
#X msg 1228 219 100;
#X msg 1268 219 0;
#X obj 1268 167 inlet;
#X msg 1308 219 100;
#X obj 148 248 ctlout 45;
#X obj 228 248 ctlout 46;
#X obj 308 248 ctlout 47;
#X obj 388 248 ctlout 48;
#X obj 468 248 ctlout 49;
#X obj 548 248 ctlout 50;
#X obj 628 248 ctlout 51;
#X obj 708 248 ctlout 36;
#X obj 788 248 ctlout 37;
#X obj 868 248 ctlout 38;
#X obj 948 248 ctlout 39;
#X obj 1028 248 ctlout 40;
#X obj 1108 248 ctlout 41;
#X obj 1188 248 ctlout 42;
#X obj 1268 248 ctlout 43;
#X obj 68 194 moses 1;
#X obj 147 194 moses 1;
#X obj 229 194 moses 1;
#X obj 308 194 moses 1;
#X obj 388 194 moses 1;
#X obj 468 194 moses 1;
#X obj 548 194 moses 1;
#X obj 628 194 moses 1;
#X obj 708 194 moses 1;
#X obj 788 194 moses 1;
#X obj 868 194 moses 1;
#X obj 948 194 moses 1;
#X obj 1028 194 moses 1;
#X obj 1108 194 moses 1;
#X obj 1188 194 moses 1;
#X obj 1268 194 moses 1;
#X connect 0 0 3 0;
#X connect 1 0 64 0;
#X connect 2 0 3 0;
#X connect 4 0 49 0;
#X connect 5 0 65 0;
#X connect 6 0 49 0;
#X connect 7 0 50 0;
#X connect 8 0 66 0;
#X connect 9 0 50 0;
#X connect 10 0 51 0;
#X connect 11 0 67 0;
#X connect 12 0 51 0;
#X connect 13 0 52 0;
#X connect 14 0 68 0;
#X connect 15 0 52 0;
#X connect 16 0 53 0;
#X connect 17 0 69 0;
#X connect 18 0 53 0;
#X connect 19 0 54 0;
#X connect 20 0 70 0;
#X connect 21 0 54 0;
#X connect 22 0 55 0;
#X connect 23 0 71 0;
#X connect 24 0 55 0;
#X connect 25 0 56 0;
#X connect 26 0 72 0;
#X connect 27 0 56 0;
#X connect 28 0 57 0;
#X connect 29 0 73 0;
#X connect 30 0 57 0;
#X connect 31 0 58 0;
#X connect 32 0 74 0;
#X connect 33 0 58 0;
#X connect 34 0 59 0;
#X connect 35 0 75 0;
#X connect 36 0 59 0;
#X connect 37 0 60 0;
#X connect 38 0 76 0;
#X connect 39 0 60 0;
#X connect 40 0 61 0;
#X connect 41 0 77 0;
#X connect 42 0 61 0;
#X connect 43 0 62 0;
#X connect 44 0 78 0;
#X connect 45 0 62 0;
#X connect 46 0 63 0;
#X connect 47 0 79 0;
#X connect 48 0 63 0;
#X connect 64 0 0 0;
#X connect 64 1 2 0;
#X connect 65 0 4 0;
#X connect 65 1 6 0;
#X connect 66 0 7 0;
#X connect 66 1 9 0;
#X connect 67 0 10 0;
#X connect 67 1 12 0;
#X connect 68 0 13 0;
#X connect 68 1 15 0;
#X connect 69 0 16 0;
#X connect 69 1 18 0;
#X connect 70 0 19 0;
#X connect 70 1 21 0;
#X connect 71 0 22 0;
#X connect 71 1 24 0;
#X connect 72 0 25 0;
#X connect 72 1 27 0;
#X connect 73 0 28 0;
#X connect 73 1 30 0;
#X connect 74 0 31 0;
#X connect 74 1 33 0;
#X connect 75 0 34 0;
#X connect 75 1 36 0;
#X connect 76 0 37 0;
#X connect 76 1 39 0;
#X connect 77 0 40 0;
#X connect 77 1 42 0;
#X connect 78 0 43 0;
#X connect 78 1 45 0;
#X connect 79 0 46 0;
#X connect 79 1 48 0;
#X restore 31 923 pd pad-control;
#X f 86;
#X obj 105 215 ctlin 10;
#X floatatom 31 607 5 0 0 0 - - -;
#X obj 186 450 ctlin 74;
#X obj 176 127 loadbang;
#X floatatom 707 812 5 0 0 0 - - -;
#X obj 707 840 sel 0 1 2 3, f 28;
#X obj 707 904 unpack f f f f;
#X msg 707 868 1 0 0 0;
#X obj 31 783 bng 15 250 50 0 empty empty empty 17 7 0 10 -262144 -1
-1;
#X msg 671 904 0;
#X obj 673 672 route 44 45 46 47 48 49 50 51 36 37 38 39 40 41 42 43
;
#X msg 766 868 0 1 0 0;
#X msg 825 868 0 0 1 0;
#X msg 885 873 0 0 0 1;
#N canvas -3 170 1920 1007 clock 0;
#X obj 32 161 i;
#X obj 63 161 + 1;
#X obj 32 33 tgl 15 0 empty empty empty 17 7 0 10 -262144 -1 -1 1 1
;
#X msg 131 132 0;
#X obj 92 266 + 1;
#X obj 131 107 sel 0;
#X obj 164 136 bng 15 250 50 0 empty empty empty 17 7 0 10 -262144
-1 -1;
#X obj 92 336 s pattern-start;
#X text 174 108 reset;
#X floatatom 562 33 5 0 0 0 - - -;
#X obj 32 107 metro, f 12;
#X obj 92 242 i;
#X obj 92 290 %;
#X obj 32 198 %;
#X floatatom 92 314 5 0 0 0 - - -;
#X obj 92 218 sel;
#X obj 123 218 - 1;
#X obj 32 223 s pos;
#X obj 233 150 r steps;
#X obj 474 133 tgl 15 0 empty empty empty 17 7 0 10 -262144 -1 -1 1
1;
#X obj 474 214 midiout;
#X obj 365 160 select 0 1;
#X msg 365 194 252;
#X msg 402 194 250;
#X msg 474 187 248;
#X obj 474 157 metro 20.8333;
#X obj 562 57 expr (60000/$f1);
#X obj 562 125 / 24;
#X obj 522 89 / 4;
#X obj 32 11 inlet;
#X obj 562 9 inlet;
#X connect 0 0 1 0;
#X connect 0 0 13 0;
#X connect 1 0 0 1;
#X connect 2 0 5 0;
#X connect 2 0 10 0;
#X connect 2 0 19 0;
#X connect 3 0 0 1;
#X connect 3 0 11 1;
#X connect 3 0 12 0;
#X connect 4 0 11 1;
#X connect 4 0 12 0;
#X connect 5 0 3 0;
#X connect 5 0 6 0;
#X connect 9 0 26 0;
#X connect 10 0 0 0;
#X connect 11 0 4 0;
#X connect 12 0 14 0;
#X connect 13 0 15 0;
#X connect 13 0 17 0;
#X connect 14 0 7 0;
#X connect 15 0 11 0;
#X connect 16 0 15 1;
#X connect 18 0 12 1;
#X connect 18 0 16 0;
#X connect 18 0 13 1;
#X connect 19 0 21 0;
#X connect 19 0 25 0;
#X connect 21 0 22 0;
#X connect 21 1 23 0;
#X connect 22 0 20 0;
#X connect 23 0 20 0;
#X connect 24 0 20 0;
#X connect 25 0 24 0;
#X connect 26 0 28 0;
#X connect 26 0 27 0;
#X connect 27 0 25 1;
#X connect 28 0 10 1;
#X connect 29 0 2 0;
#X connect 30 0 9 0;
#X restore 25 124 pd clock;
#N canvas -196 29 958 998 euclid 0;
#X obj 498 272 f;
#X obj 498 346 *;
#X floatatom 630 382 5 0 16 0 - - -;
#X obj 564 252 == 0;
#X obj 526 272 + 1;
#X obj 498 396 <;
#X text 408 374 TRIG NUMBER;
#X msg 564 223 0, f 2;
#X obj 445 167 bng 15 250 50 0 empty empty empty 17 7 0 10 -262144
-1 -1;
#X floatatom 739 303 5 0 0 0 - - -;
#X obj 445 188 uzi 16 0;
#X obj 498 297 % 16;
#X obj 498 371 % 16;
#X obj 522 138 r steps;
#X obj 739 330 bng 15 250 50 0 empty empty empty 17 7 0 10 -262144
-1 -1;
#X obj 655 114 inlet;
#X obj 742 216 inlet;
#X obj 498 419 zl group 16;
#X obj 498 443 outlet;
#X obj 498 321 + 0;
#X connect 0 0 4 0;
#X connect 0 0 11 0;
#X connect 1 0 12 0;
#X connect 2 0 1 1;
#X connect 2 0 5 1;
#X connect 2 0 7 0;
#X connect 2 0 8 0;
#X connect 3 0 0 1;
#X connect 4 0 0 1;
#X connect 5 0 17 0;
#X connect 7 0 3 0;
#X connect 8 0 10 0;
#X connect 9 0 14 0;
#X connect 9 0 19 1;
#X connect 10 2 0 0;
#X connect 11 0 19 0;
#X connect 12 0 5 0;
#X connect 13 0 12 1;
#X connect 13 0 11 1;
#X connect 13 0 10 1;
#X connect 13 0 17 1;
#X connect 14 0 2 0;
#X connect 15 0 2 0;
#X connect 16 0 9 0;
#X connect 17 0 18 0;
#X connect 19 0 1 0;
#X restore 31 635 pd euclid;
#X f 11;
#X floatatom 105 576 5 0 0 0 - - -;
#X obj 707 763 ctlin 7;
#X obj 116 635 s save;
#X obj 121 806 r save;
#X obj 78 72 loadmess 128;
#X msg 1210 829 symbol seq\$1;
#X floatatom 953 830 5 0 0 0 - - -;
#X obj 176 72 text define -k seq0;
#A set 127 0 0 80 0 \; 0 0 0 0 0 \; 0 1 0 0 0 \; 0 0 0 0 0 \; 0 0 0
0 0 \; 0 1 0 0 0 \; 0 0 0 0 0 \; 0 0 0 0 0 \; 0 1 0 0 0 \; 0 0 0 0
0 \; 0 0 0 0 0 \; 0 1 0 0 0 \; 0 0 0 0 0 \; 0 0 0 0 0 \; 0 1 99 0 0
\; 0 1 99 0 0 \;;
#X obj 176 96 text define -k seq1;
#A set 0 1 99 0 0 \; 127 1 99 0 0 \; 0 1 99 0 0 \; 0 1 99 0 0 \; 127
1 99 0 0 \; 0 1 99 0 0 \; 0 1 99 0 0 \; 127 1 99 0 0 \; 0 1 99 0 0
\; 127 1 99 0 0 \; 0 1 99 0 0 \; 0 1 99 0 0 \; 0 1 99 0 0 \; 0 1 99
0 0 \; 0 1 99 0 0 \; 0 1 99 0 0 \;;
#X obj 316 72 text define -k seq2;
#A set 0 1 99 0 0 \; 0 1 99 0 0 \; 0 1 99 0 0 \; 0 1 99 0 0 \; 0 1
99 0 0 \; 0 1 99 0 0 \; 0 1 99 0 0 \; 0 1 99 0 0 \; 0 1 99 0 0 \; 0
1 99 0 0 \; 0 1 99 0 0 \; 0 1 99 0 0 \; 0 0 0 0 0 \; 0 \; 0 \; 0 \;
;
#X obj 316 96 text define -k seq3;
#A set 0 1 99 0 0 \; 0 1 99 0 0 \; 0 1 99 0 0 \; 0 1 99 0 0 \; 127
1 99 0 0 \; 0 1 99 0 0 \; 0 1 99 0 0 \; 0 1 99 0 0 \; 0 1 99 0 0 \;
0 1 99 0 0 \; 0 1 99 0 0 \; 0 1 99 0 0 \; 127 1 99 0 0 \; 0 1 99 0
0 \; 0 1 99 0 0 \; 0 1 99 0 0 \;;
#X obj 31 801 delay 400;
#N canvas 0 50 450 300 knob 0;
#X obj 217 31 inlet;
#X floatatom 217 55 5 0 0 0 - - -;
#X obj 217 81 sel 63 65;
#X obj 171 126 i;
#X obj 217 107 - 1;
#X obj 247 107 + 1;
#X obj 171 104 bng 15 250 50 0 empty empty empty 17 7 0 10 -262144
-1 -1;
#X floatatom 171 150 5 0 0 0 - - -;
#X obj 261 168 < 0;
#X msg 261 213 0;
#X obj 261 192 sel 1;
#X obj 320 168 > 16;
#X obj 320 192 sel 1;
#X msg 320 216 16;
#X obj 171 173 outlet;
#X connect 0 0 1 0;
#X connect 1 0 2 0;
#X connect 1 0 6 0;
#X connect 2 0 4 0;
#X connect 2 1 5 0;
#X connect 3 0 4 0;
#X connect 3 0 5 0;
#X connect 3 0 7 0;
#X connect 4 0 3 1;
#X connect 5 0 3 1;
#X connect 6 0 3 0;
#X connect 7 0 8 0;
#X connect 7 0 11 0;
#X connect 7 0 14 0;
#X connect 8 0 10 0;
#X connect 9 0 3 0;
#X connect 10 0 9 0;
#X connect 11 0 12 0;
#X connect 12 0 13 0;
#X connect 13 0 3 0;
#X restore 31 320 pd knob;
#N canvas 0 50 450 300 knob 0;
#X obj 217 31 inlet;
#X floatatom 217 55 5 0 0 0 - - -;
#X obj 217 81 sel 63 65;
#X obj 171 126 i;
#X obj 217 107 - 1;
#X obj 247 107 + 1;
#X obj 171 104 bng 15 250 50 0 empty empty empty 17 7 0 10 -262144
-1 -1;
#X floatatom 171 150 5 0 0 0 - - -;
#X obj 261 168 < 0;
#X msg 261 213 0;
#X obj 261 192 sel 1;
#X obj 320 168 > 16;
#X obj 320 192 sel 1;
#X msg 320 216 16;
#X obj 171 173 outlet;
#X connect 0 0 1 0;
#X connect 1 0 2 0;
#X connect 1 0 6 0;
#X connect 2 0 4 0;
#X connect 2 1 5 0;
#X connect 3 0 4 0;
#X connect 3 0 5 0;
#X connect 3 0 7 0;
#X connect 4 0 3 1;
#X connect 5 0 3 1;
#X connect 6 0 3 0;
#X connect 7 0 8 0;
#X connect 7 0 11 0;
#X connect 7 0 14 0;
#X connect 8 0 10 0;
#X connect 9 0 3 0;
#X connect 10 0 9 0;
#X connect 11 0 12 0;
#X connect 12 0 13 0;
#X connect 13 0 3 0;
#X restore 105 555 pd knob;
#X floatatom 144 617 5 0 0 0 - - -;
#X obj 144 594 del 1;
#N canvas -7 0 958 998 utils 0;
#X obj 46 649 spigot, f 13;
#X obj 134 627 tgl 15 0 empty empty empty 17 7 0 10 -262144 -1 -1 0
1;
#X text 149 649 conditional;
#X floatatom 134 573 5 0 15 0 - - -;
#X obj 134 546 t b f;
#X obj 134 597 text get conditions;
#X obj 134 511 r pattern-start;
#X obj 277 592 s \$0-cond-show;
#X obj 177 546 r \$0-cond;
#X obj 168 126 uzi 16 0;
#X obj 168 106 bng 15 250 50 0 empty empty empty 17 7 0 10 -262144
-1 -1;
#X msg 248 158 3;
#X msg 168 158 100;
#X obj 42 361 uzi 16 0;
#X obj 42 341 bng 15 250 50 0 empty empty empty 17 7 0 10 -262144 -1
-1;
#X obj 41 430 text set seq1;
#X msg 122 393 5;
#X obj 84 160 random 100;
#X obj 42 386 random 20;
#X text 42 315 swing;
#X text 167 83 prob random;
#X msg 132 321 4;
#X msg 164 321 9;
#X msg 225 321 19;
#X msg 195 321 14;
#X msg 102 321 0;
#X obj 516 131 notein;
#X floatatom 535 175 5 0 0 0 - - -;
#X obj 605 198 ctlin 10;
#X floatatom 605 222 5 0 0 0 - - -;
#X obj 535 250 gate 2, f 8;
#X floatatom 535 272 5 0 0 0 - - -;
#X floatatom 588 273 5 0 0 0 - - -;
#X obj 535 198 sel 0 127;
#X msg 535 222 1;
#X msg 565 222 2;
#X floatatom 516 155 5 0 0 0 - - -;
#X obj 168 195 text set seq1;
#X text 515 109 shift;
#X obj 602 656 text define -k conditions;
#A set 0 0 0 0 \; 0 0 0 1 \; 0 0 1 0 \; 0 0 1 1 \; 0 1 0 0 \; 0 1 0
1 \; 0 1 1 0 \; 0 1 1 1 \; 1 0 0 0 \; 1 0 0 1 \; 1 0 1 0 \; 1 0 1 1
\; 1 1 0 0 \; 1 1 0 1 \; 1 1 1 0 \; 1 1 1 1 \;;
#X obj 602 609 text get conditions;
#N canvas 0 50 450 250 (subpatch) 0;
#X array cond 4 float 3;
#A 0 0 0 1 0;
#X coords 0 1 4 -1 200 140 1;
#X restore 390 536 graph;
#X obj 602 632 array set cond;
#X floatatom 602 586 5 0 15 0 - - -;
#X obj 602 564 r cond-show;
#X text 608 524 note darf nicht triggern \; condititons scalen \;;
#X connect 1 0 0 1;
#X connect 3 0 7 0;
#X connect 3 0 5 0;
#X connect 4 1 5 1;
#X connect 5 0 1 0;
#X connect 8 0 3 0;
#X connect 9 0 12 0;
#X connect 9 0 17 0;
#X connect 9 2 37 1;
#X connect 10 0 9 0;
#X connect 10 0 11 0;
#X connect 11 0 37 2;
#X connect 13 0 18 0;
#X connect 13 2 15 1;
#X connect 14 0 13 0;
#X connect 14 0 16 0;
#X connect 16 0 15 2;
#X connect 17 0 37 0;
#X connect 18 0 15 0;
#X connect 21 0 18 1;
#X connect 21 0 14 0;
#X connect 22 0 14 0;
#X connect 22 0 18 1;
#X connect 23 0 18 1;
#X connect 23 0 14 0;
#X connect 24 0 18 1;
#X connect 24 0 14 0;
#X connect 25 0 14 0;
#X connect 25 0 18 1;
#X connect 26 0 36 0;
#X connect 26 1 27 0;
#X connect 27 0 33 0;
#X connect 28 0 29 0;
#X connect 29 0 30 1;
#X connect 30 0 31 0;
#X connect 30 1 32 0;
#X connect 33 0 34 0;
#X connect 33 1 35 0;
#X connect 34 0 30 0;
#X connect 35 0 30 0;
#X connect 40 0 42 0;
#X connect 43 0 40 0;
#X connect 44 0 43 0;
#X restore 282 166 pd utils;
#X obj 719 610 ctlin, f 29;
#X obj 707 787 min 3;
#X obj 673 647 pak f f;
#X obj 31 215 ctlin 123;
#X obj 31 239 sel 0 127;
#X msg 31 263 1;
#X msg 61 263 2;
#X obj 31 295 gate 2, f 11;
#N canvas 0 50 450 300 knob 0;
#X obj 217 31 inlet;
#X floatatom 217 55 5 0 0 0 - - -;
#X obj 217 81 sel 63 65;
#X obj 171 126 i;
#X obj 217 107 - 1;
#X obj 247 107 + 1;
#X obj 171 104 bng 15 250 50 0 empty empty empty 17 7 0 10 -262144
-1 -1;
#X floatatom 171 150 5 0 0 0 - - -;
#X obj 261 168 < 0;
#X msg 261 213 0;
#X obj 261 192 sel 1;
#X obj 320 192 sel 1;
#X msg 320 216 16;
#X obj 171 173 outlet;
#X obj 320 168 > 100;
#X connect 0 0 1 0;
#X connect 1 0 2 0;
#X connect 1 0 6 0;
#X connect 2 0 4 0;
#X connect 2 1 5 0;
#X connect 3 0 4 0;
#X connect 3 0 5 0;
#X connect 3 0 7 0;
#X connect 4 0 3 1;
#X connect 5 0 3 1;
#X connect 6 0 3 0;
#X connect 7 0 8 0;
#X connect 7 0 13 0;
#X connect 7 0 14 0;
#X connect 8 0 10 0;
#X connect 9 0 3 0;
#X connect 10 0 9 0;
#X connect 11 0 12 0;
#X connect 12 0 3 0;
#X connect 14 0 11 0;
#X restore 105 320 pd knob;
#N canvas -8 -8 1920 1007 steps 0;
#X obj 475 162 bng 15 250 50 0 empty empty empty 17 7 0 10 -262144
-1 -1;
#X obj 475 189 spigot;
#X obj 514 149 tgl 30 0 empty empty empty 17 7 0 10 -262144 -1 -1 0
1;
#X floatatom 514 286 5 0 0 0 - - -;
#X obj 514 217 r pattern-start;
#X obj 514 242 bng 15 250 50 0 empty empty empty 17 7 0 10 -262144
-1 -1;
#X obj 514 262 random 100;
#X obj 606 266 t b f;
#X floatatom 540 85 5 0 0 0 - - -;
#X floatatom 580 85 5 0 0 0 - - -;
#X floatatom 620 85 5 0 0 0 - - -;
#X floatatom 660 85 5 0 0 0 - - -;
#X obj 498 435 del;
#X obj 412 -1 r pos;
#X obj 514 309 <, f 12;
#X obj 548 508 line~;
#X obj 498 582 *~;
#X obj 724 567 dac~;
#X obj 735 162 bng 15 250 50 0 empty empty empty 17 7 0 10 -262144
-1 -1;
#X obj 735 189 spigot;
#X obj 774 149 tgl 30 0 empty empty empty 17 7 0 10 -262144 -1 -1 127
1;
#X floatatom 774 286 5 0 0 0 - - -;
#X obj 774 217 r pattern-start;
#X obj 774 242 bng 15 250 50 0 empty empty empty 17 7 0 10 -262144
-1 -1;
#X obj 774 262 random 100;
#X obj 866 266 t b f;
#X floatatom 800 85 5 0 0 0 - - -;
#X floatatom 840 85 5 0 0 0 - - -;
#X floatatom 880 85 5 0 0 0 - - -;
#X obj 735 431 del;
#X obj 774 309 <, f 12;
#X obj 735 496 line~;
#X obj 734 542 *~;
#X obj 975 162 bng 15 250 50 0 empty empty empty 17 7 0 10 -262144
-1 -1;
#X obj 975 384 bang;
#X obj 975 189 spigot;
#X obj 1014 149 tgl 30 0 empty empty empty 17 7 0 10 -262144 -1 -1
0 1;
#X obj 1014 336 tgl 15 0 empty empty empty 17 7 0 10 -262144 -1 -1
1 1;
#X obj 975 358 spigot;
#X floatatom 1014 286 5 0 0 0 - - -;
#X obj 1014 217 r pattern-start;
#X obj 1014 242 bng 15 250 50 0 empty empty empty 17 7 0 10 -262144
-1 -1;
#X obj 1014 262 random 100;
#X obj 1106 266 t b f;
#X floatatom 1040 85 5 0 0 0 - - -;
#X floatatom 1080 85 5 0 0 0 - - -;
#X floatatom 1120 85 5 0 0 0 - - -;
#X floatatom 1160 85 5 0 0 0 - - -;
#X obj 998 435 del;
#X obj 1014 309 <, f 12;
#X obj 975 496 line~;
#X obj 974 542 *~;
#X obj 974 567 dac~;
#X obj 1235 162 bng 15 250 50 0 empty empty empty 17 7 0 10 -262144
-1 -1;
#X obj 1235 384 bang;
#X obj 1235 189 spigot;
#X obj 1274 149 tgl 30 0 empty empty empty 17 7 0 10 -262144 -1 -1
0 1;
#X obj 1274 336 tgl 15 0 empty empty empty 17 7 0 10 -262144 -1 -1
1 1;
#X obj 1235 358 spigot;
#X floatatom 1274 286 5 0 0 0 - - -;
#X obj 1274 217 r pattern-start;
#X obj 1274 242 bng 15 250 50 0 empty empty empty 17 7 0 10 -262144
-1 -1;
#X obj 1274 262 random 100;
#X obj 1366 266 t b f;
#X floatatom 1300 85 5 0 0 0 - - -;
#X floatatom 1340 85 5 0 0 0 - - -;
#X floatatom 1380 85 5 0 0 0 - - -;
#X obj 1258 435 del;
#X obj 1274 309 <, f 12;
#X obj 1235 496 line~;
#X obj 1234 542 *~;
#X obj 1234 567 dac~;
#X obj 1235 55 unpack f f f f f f, f 24;
#X obj 1234 30 text get seq3;
#X obj 474 30 text get seq0;
#X obj 734 30 text get seq1;
#X obj 974 30 text get seq2;
#X obj 474 541 *~ 2;
#X msg 493 470 1 \, 0 300;
#X obj 475 372 spigot;
#X obj 514 341 tgl 15 0 empty empty empty 17 7 0 10 -262144 -1 -1 1
1;
#X obj 735 379 spigot;
#X obj 774 348 tgl 15 0 empty empty empty 17 7 0 10 -262144 -1 -1 1
1;
#X floatatom 925 89 5 0 0 0 - - -;
#X obj 475 513 osc~ 43;
#X obj 475 54 unpack f f f f f, f 24;
#X obj 735 54 unpack f f f f f, f 24;
#X obj 975 55 unpack f f f f f, f 24;
#X obj 1234 517 osc~ 10000;
#X msg 1235 471 1 \, 0 10;
#X msg 735 471 0.8 \, 0 200;
#X obj 973 517 noise~;
#X msg 975 471 0.5 \, 0 50;
#X obj 736 519 osc~ 55;
#X connect 0 0 1 0;
#X connect 1 0 79 0;
#X connect 2 0 1 1;
#X connect 3 0 14 0;
#X connect 4 0 5 0;
#X connect 5 0 6 0;
#X connect 6 0 3 0;
#X connect 7 0 3 0;
#X connect 7 1 14 1;
#X connect 9 0 7 0;
#X connect 11 0 12 1;
#X connect 13 0 74 0;
#X connect 13 0 75 0;
#X connect 13 0 76 0;
#X connect 13 0 0 0;
#X connect 13 0 18 0;
#X connect 13 0 33 0;
#X connect 13 0 73 0;
#X connect 13 0 53 0;
#X connect 15 0 16 1;
#X connect 16 0 17 0;
#X connect 16 0 17 1;
#X connect 18 0 19 0;
#X connect 19 0 81 0;
#X connect 20 0 19 1;
#X connect 21 0 30 0;
#X connect 22 0 23 0;
#X connect 23 0 24 0;
#X connect 24 0 21 0;
#X connect 25 0 21 0;
#X connect 25 1 30 1;
#X connect 27 0 25 0;
#X connect 29 0 90 0;
#X connect 31 0 32 1;
#X connect 32 0 17 0;
#X connect 32 0 17 1;
#X connect 33 0 35 0;
#X connect 34 0 48 0;
#X connect 34 0 92 0;
#X connect 35 0 38 0;
#X connect 36 0 35 1;
#X connect 37 0 38 1;
#X connect 38 0 34 0;
#X connect 39 0 49 0;
#X connect 40 0 41 0;
#X connect 41 0 42 0;
#X connect 42 0 39 0;
#X connect 43 0 39 0;
#X connect 43 1 49 1;
#X connect 45 0 43 0;
#X connect 47 0 48 1;
#X connect 50 0 51 1;
#X connect 51 0 52 0;
#X connect 51 0 52 1;
#X connect 53 0 55 0;
#X connect 54 0 67 0;
#X connect 54 0 89 0;
#X connect 55 0 58 0;
#X connect 56 0 55 1;
#X connect 57 0 58 1;
#X connect 58 0 54 0;
#X connect 59 0 68 0;
#X connect 60 0 61 0;
#X connect 61 0 62 0;
#X connect 62 0 59 0;
#X connect 63 0 59 0;
#X connect 63 1 68 1;
#X connect 65 0 63 0;
#X connect 69 0 70 1;
#X connect 70 0 71 0;
#X connect 70 0 71 1;
#X connect 72 0 56 0;
#X connect 72 2 64 0;
#X connect 72 3 65 0;
#X connect 72 4 66 0;
#X connect 73 0 72 0;
#X connect 74 0 85 0;
#X connect 75 0 86 0;
#X connect 76 0 87 0;
#X connect 77 0 16 0;
#X connect 78 0 15 0;
#X connect 79 0 78 0;
#X connect 80 0 79 1;
#X connect 81 0 29 0;
#X connect 82 0 81 1;
#X connect 83 0 29 1;
#X connect 84 0 77 0;
#X connect 85 0 2 0;
#X connect 85 2 8 0;
#X connect 85 3 9 0;
#X connect 85 4 10 0;
#X connect 86 0 20 0;
#X connect 86 2 26 0;
#X connect 86 3 27 0;
#X connect 86 4 28 0;
#X connect 87 0 36 0;
#X connect 87 2 44 0;
#X connect 87 3 45 0;
#X connect 87 4 46 0;
#X connect 88 0 70 0;
#X connect 89 0 69 0;
#X connect 90 0 31 0;
#X connect 91 0 51 0;
#X connect 92 0 50 0;
#X connect 93 0 32 0;
#X restore 374 159 pd steps;
#X floatatom 1453 189 5 0 0 0 - - -;
#X floatatom 1540 189 5 0 0 0 - - -;
#X floatatom 1627 189 5 0 0 0 - - -;
#X msg 1676 245 symbol seq\$1;
#X floatatom 1676 208 5 0 0 0 - - -;
#X obj 1280 264 text set seq0;
#X obj 105 450 ctlin 123;
#X obj 105 474 sel 0 127;
#X msg 105 498 1;
#X msg 140 498 2;
#X obj 105 529 gate 2, f 12;
#X msg 1368 111 symbol seq\$1;
#X obj 1280 136 text get seq0;
#X msg 1368 87 0;
#X msg 1280 112 0;
#X floatatom 1366 189 5 0 0 0 - - -;
#X obj 1280 160 unpack f f f f f, f 50;
#X obj 1280 219 pak f f f f f, f 50;
#X floatatom 1280 189 5 0 0 0 - - -;
#X obj 1280 93 bng 15 250 50 0 empty empty empty 17 7 0 10 -262144
-1 -1;
#X obj 105 345 * 0.1;
#X obj 105 372 i;
#X obj 105 399 * 10;
#X text 1470 76 0 trig \; 1 prob \; 2 ratchet \; 3 cond \; 4 del \;
;
#X obj 498 32 stripnote;
#X obj 498 57 bng 15 250 50 0 empty empty empty 17 7 0 10 -262144 -1
-1;
#X obj 498 13 ctlin 124;
#X connect 0 0 57 0;
#X connect 1 0 3 0;
#X connect 2 0 57 1;
#X connect 4 0 5 0;
#X connect 4 1 6 0;
#X connect 4 2 7 0;
#X connect 4 3 8 0;
#X connect 4 4 9 0;
#X connect 4 5 10 0;
#X connect 4 6 11 0;
#X connect 4 7 12 0;
#X connect 4 8 13 0;
#X connect 4 9 14 0;
#X connect 4 10 15 0;
#X connect 4 11 16 0;
#X connect 4 12 17 0;
#X connect 4 13 18 0;
#X connect 4 14 19 0;
#X connect 4 15 20 0;
#X connect 5 0 38 0;
#X connect 6 0 38 1;
#X connect 7 0 38 2;
#X connect 8 0 38 3;
#X connect 9 0 38 4;
#X connect 10 0 38 5;
#X connect 11 0 38 6;
#X connect 12 0 38 7;
#X connect 13 0 38 8;
#X connect 14 0 38 9;
#X connect 15 0 38 10;
#X connect 16 0 38 11;
#X connect 17 0 38 12;
#X connect 18 0 38 13;
#X connect 19 0 38 14;
#X connect 20 0 38 15;
#X connect 21 0 42 0;
#X connect 22 0 42 1;
#X connect 23 0 42 2;
#X connect 24 0 42 3;
#X connect 25 0 42 4;
#X connect 26 0 42 5;
#X connect 27 0 42 6;
#X connect 28 0 42 7;
#X connect 29 0 42 8;
#X connect 30 0 42 9;
#X connect 31 0 42 10;
#X connect 32 0 42 11;
#X connect 33 0 42 12;
#X connect 34 0 42 13;
#X connect 35 0 42 14;
#X connect 36 0 42 15;
#X connect 39 0 21 0;
#X connect 39 1 22 0;
#X connect 39 2 23 0;
#X connect 39 3 24 0;
#X connect 39 4 25 0;
#X connect 39 5 26 0;
#X connect 39 6 27 0;
#X connect 39 7 28 0;
#X connect 39 8 29 0;
#X connect 39 9 30 0;
#X connect 39 10 31 0;
#X connect 39 11 32 0;
#X connect 39 12 33 0;
#X connect 39 13 34 0;
#X connect 39 14 35 0;
#X connect 39 15 36 0;
#X connect 40 0 39 0;
#X connect 41 0 37 0;
#X connect 43 0 83 1;
#X connect 44 0 58 0;
#X connect 44 0 61 0;
#X connect 45 0 96 1;
#X connect 46 0 41 0;
#X connect 47 0 48 0;
#X connect 47 0 52 0;
#X connect 47 0 65 0;
#X connect 48 0 50 0;
#X connect 48 1 54 0;
#X connect 48 2 55 0;
#X connect 48 3 56 0;
#X connect 49 0 42 0;
#X connect 49 1 42 1;
#X connect 49 2 42 2;
#X connect 49 3 42 3;
#X connect 50 0 49 0;
#X connect 51 0 70 0;
#X connect 52 0 42 4;
#X connect 52 0 42 5;
#X connect 52 0 42 6;
#X connect 52 0 42 7;
#X connect 52 0 42 8;
#X connect 52 0 42 9;
#X connect 52 0 42 10;
#X connect 52 0 42 11;
#X connect 52 0 42 12;
#X connect 52 0 42 13;
#X connect 52 0 42 14;
#X connect 52 0 42 15;
#X connect 53 0 5 0;
#X connect 53 1 6 0;
#X connect 53 2 7 0;
#X connect 53 3 8 0;
#X connect 53 4 9 0;
#X connect 53 5 10 0;
#X connect 53 6 11 0;
#X connect 53 7 12 0;
#X connect 53 8 13 0;
#X connect 53 9 14 0;
#X connect 53 10 15 0;
#X connect 53 11 16 0;
#X connect 53 12 17 0;
#X connect 53 13 18 0;
#X connect 53 14 19 0;
#X connect 53 15 20 0;
#X connect 54 0 49 0;
#X connect 55 0 49 0;
#X connect 56 0 49 0;
#X connect 58 0 4 0;
#X connect 59 0 58 1;
#X connect 59 0 61 0;
#X connect 59 0 73 0;
#X connect 59 0 74 0;
#X connect 60 0 51 0;
#X connect 60 0 77 0;
#X connect 62 0 40 0;
#X connect 63 0 2 0;
#X connect 64 0 39 1;
#X connect 64 0 38 16;
#X connect 65 0 64 0;
#X connect 70 0 40 0;
#X connect 71 0 44 0;
#X connect 72 0 59 0;
#X connect 73 0 61 0;
#X connect 73 0 58 1;
#X connect 74 0 73 0;
#X connect 76 0 78 1;
#X connect 76 1 78 0;
#X connect 77 0 47 0;
#X connect 78 0 53 0;
#X connect 79 0 80 0;
#X connect 80 0 81 0;
#X connect 80 1 82 0;
#X connect 81 0 83 0;
#X connect 82 0 83 0;
#X connect 83 0 71 0;
#X connect 83 1 84 0;
#X connect 84 0 106 0;
#X connect 86 0 103 2;
#X connect 87 0 103 3;
#X connect 88 0 103 4;
#X connect 89 0 91 3;
#X connect 90 0 89 0;
#X connect 92 0 93 0;
#X connect 93 0 94 0;
#X connect 93 1 95 0;
#X connect 94 0 96 0;
#X connect 95 0 96 0;
#X connect 96 0 72 0;
#X connect 97 0 98 3;
#X connect 98 0 102 0;
#X connect 99 0 97 0;
#X connect 100 0 98 0;
#X connect 101 0 103 1;
#X connect 102 0 104 0;
#X connect 102 1 101 0;
#X connect 102 2 86 0;
#X connect 102 3 87 0;
#X connect 102 4 88 0;
#X connect 103 0 91 0;
#X connect 104 0 103 0;
#X connect 105 0 100 0;
#X connect 106 0 107 0;
#X connect 107 0 108 0;
#X connect 110 0 111 0;
#X connect 111 0 0 0;
#X connect 112 0 110 1;
#X connect 112 1 110 0;
