#N canvas 0 0 1140 1050 12;
#X obj 25 72 tgl 30 0 empty empty empty 17 7 0 10 #00fc04 #000000 #000000
0 1;
#X obj 246 127 r pattern-start;
#X floatatom 78 96 5 0 0 0 - - - 0;
#X obj 246 154 bng 30 250 50 0 empty empty empty 17 7 0 10 #fcfcfc
#00fc04 #000000;
#X obj 31 665 unpack f f f f f f f f f f f f f f f f, f 87;
#X obj 31 694 tgl 30 0 empty empty empty 17 7 0 10 #c4fcc4 #000000
#000000 0 1;
#X obj 71 694 tgl 30 0 empty empty empty 17 7 0 10 #fcfcfc #000000
#000000 0 1;
#X obj 111 694 tgl 30 0 empty empty empty 17 7 0 10 #fcfcfc #000000
#000000 0 1;
#X obj 151 694 tgl 30 0 empty empty empty 17 7 0 10 #fcfcfc #000000
#000000 0 1;
#X obj 191 694 tgl 30 0 empty empty empty 17 7 0 10 #c4fcc4 #000000
#000000 0 1;
#X obj 231 694 tgl 30 0 empty empty empty 17 7 0 10 #fcfcfc #000000
#000000 0 1;
#X obj 271 694 tgl 30 0 empty empty empty 17 7 0 10 #fcfcfc #000000
#000000 0 1;
#X obj 311 694 tgl 30 0 empty empty empty 17 7 0 10 #fcfcfc #000000
#000000 0 1;
#X obj 351 694 tgl 30 0 empty empty empty 17 7 0 10 #c4fcc4 #000000
#000000 0 1;
#X obj 391 694 tgl 30 0 empty empty empty 17 7 0 10 #fcfcfc #000000
#000000 0 1;
#X obj 431 694 tgl 30 0 empty empty empty 17 7 0 10 #fcfcfc #000000
#000000 0 1;
#X obj 471 694 tgl 30 0 empty empty empty 17 7 0 10 #fcfcfc #000000
#000000 0 1;
#X obj 511 694 tgl 30 0 empty empty empty 17 7 0 10 #c4fcc4 #000000
#000000 0 1;
#X obj 551 694 tgl 30 0 empty empty empty 17 7 0 10 #fcfcfc #000000
#000000 0 1;
#X obj 591 694 tgl 30 0 empty empty empty 17 7 0 10 #fcfcfc #000000
#000000 0 1;
#X obj 631 694 tgl 30 0 empty empty empty 17 7 0 10 #fcfcfc #000000
#000000 0 1;
#X obj 31 929 tgl 30 0 empty empty empty 17 7 0 10 #c4fcc4 #000000
#000000 0 1;
#X obj 71 929 tgl 30 0 empty empty empty 17 7 0 10 #fcfcfc #000000
#000000 0 1;
#X obj 111 929 tgl 30 0 empty empty empty 17 7 0 10 #fcfcfc #000000
#000000 0 1;
#X obj 151 929 tgl 30 0 empty empty empty 17 7 0 10 #fcfcfc #000000
#000000 0 1;
#X obj 191 929 tgl 30 0 empty empty empty 17 7 0 10 #c4fcc4 #000000
#000000 0 1;
#X obj 231 929 tgl 30 0 empty empty empty 17 7 0 10 #fcfcfc #000000
#000000 0 1;
#X obj 271 929 tgl 30 0 empty empty empty 17 7 0 10 #fcfcfc #000000
#000000 0 1;
#X obj 311 929 tgl 30 0 empty empty empty 17 7 0 10 #fcfcfc #000000
#000000 0 1;
#X obj 351 929 tgl 30 0 empty empty empty 17 7 0 10 #c4fcc4 #000000
#000000 0 1;
#X obj 391 929 tgl 30 0 empty empty empty 17 7 0 10 #fcfcfc #000000
#000000 0 1;
#X obj 431 929 tgl 30 0 empty empty empty 17 7 0 10 #fcfcfc #000000
#000000 0 1;
#X obj 471 929 tgl 30 0 empty empty empty 17 7 0 10 #fcfcfc #000000
#000000 0 1;
#X obj 511 929 tgl 30 0 empty empty empty 17 7 0 10 #c4fcc4 #000000
#000000 0 1;
#X obj 551 929 tgl 30 0 empty empty empty 17 7 0 10 #fcfcfc #000000
#000000 0 1;
#X obj 591 929 tgl 30 0 empty empty empty 17 7 0 10 #fcfcfc #000000
#000000 0 1;
#X obj 631 929 tgl 30 0 empty empty empty 17 7 0 10 #fcfcfc #000000
#000000 0 1;
#X obj 176 175 s steps;
#N canvas 0 0 1920 1052 save 0;
#X obj 104 464 text set seq1;
#X msg 130 438 0;
#X obj 202 464 text set seq1;
#X msg 228 438 1;
#X obj 300 465 text set seq1;
#X obj 398 465 text set seq1;
#X obj 496 464 text set seq1;
#X obj 594 464 text set seq1;
#X obj 104 399 inlet;
#X obj 202 399 inlet;
#X obj 300 399 inlet;
#X obj 398 399 inlet;
#X obj 496 399 inlet;
#X obj 594 399 inlet;
#X obj 694 399 inlet;
#X obj 792 399 inlet;
#X obj 890 399 inlet;
#X obj 988 399 inlet;
#X obj 1086 399 inlet;
#X obj 1184 399 inlet;
#X obj 1283 399 inlet;
#X obj 1381 399 inlet;
#X obj 1479 399 inlet;
#X obj 1577 399 inlet;
#X obj 694 464 text set seq1;
#X obj 792 464 text set seq1;
#X obj 890 465 text set seq1;
#X obj 988 465 text set seq1;
#X obj 1086 464 text set seq1;
#X obj 1184 464 text set seq1;
#X obj 1283 464 text set seq1;
#X obj 1381 464 text set seq1;
#X obj 1479 463 text set seq1;
#X obj 1577 463 text set seq1;
#X msg 326 439 2;
#X msg 424 439 3;
#X msg 522 438 4;
#X msg 621 438 5;
#X msg 720 438 6;
#X msg 818 438 7;
#X msg 916 439 8;
#X msg 1014 439 9;
#X msg 1112 438 10;
#X msg 1210 438 11;
#X msg 1309 438 12;
#X msg 1407 438 13;
#X msg 1505 437 14;
#X msg 1603 437 15;
#X obj 1646 423 bng 15 250 50 0 empty empty empty 17 7 0 10 #fcfcfc
#000000 #000000;
#X obj 1646 396 loadbang;
#X floatatom 1715 445 5 0 0 0 - - - 0;
#X obj 1787 444 inlet;
#X msg 1715 419 0;
#X connect 1 0 0 1;
#X connect 3 0 2 1;
#X connect 8 0 0 0;
#X connect 9 0 2 0;
#X connect 10 0 4 0;
#X connect 11 0 5 0;
#X connect 12 0 6 0;
#X connect 13 0 7 0;
#X connect 14 0 24 0;
#X connect 15 0 25 0;
#X connect 16 0 26 0;
#X connect 17 0 27 0;
#X connect 18 0 28 0;
#X connect 19 0 29 0;
#X connect 20 0 30 0;
#X connect 21 0 31 0;
#X connect 22 0 32 0;
#X connect 23 0 33 0;
#X connect 34 0 4 1;
#X connect 35 0 5 1;
#X connect 36 0 6 1;
#X connect 37 0 7 1;
#X connect 38 0 24 1;
#X connect 39 0 25 1;
#X connect 40 0 26 1;
#X connect 41 0 27 1;
#X connect 42 0 28 1;
#X connect 43 0 29 1;
#X connect 44 0 30 1;
#X connect 45 0 31 1;
#X connect 46 0 32 1;
#X connect 47 0 33 1;
#X connect 48 0 47 0;
#X connect 48 0 46 0;
#X connect 48 0 45 0;
#X connect 48 0 44 0;
#X connect 48 0 43 0;
#X connect 48 0 42 0;
#X connect 48 0 41 0;
#X connect 48 0 40 0;
#X connect 48 0 39 0;
#X connect 48 0 38 0;
#X connect 48 0 37 0;
#X connect 48 0 36 0;
#X connect 48 0 35 0;
#X connect 48 0 34 0;
#X connect 48 0 3 0;
#X connect 48 0 1 0;
#X connect 49 0 48 0;
#X connect 49 0 52 0;
#X connect 50 0 0 2;
#X connect 50 0 2 2;
#X connect 50 0 4 2;
#X connect 50 0 5 2;
#X connect 50 0 6 2;
#X connect 50 0 7 2;
#X connect 50 0 24 2;
#X connect 50 0 25 2;
#X connect 50 0 26 2;
#X connect 50 0 27 2;
#X connect 50 0 28 2;
#X connect 50 0 29 2;
#X connect 50 0 30 2;
#X connect 50 0 31 2;
#X connect 50 0 32 2;
#X connect 50 0 33 2;
#X connect 51 0 33 3;
#X connect 51 0 32 3;
#X connect 51 0 31 3;
#X connect 51 0 30 3;
#X connect 51 0 29 3;
#X connect 51 0 28 3;
#X connect 51 0 27 3;
#X connect 51 0 26 3;
#X connect 51 0 25 3;
#X connect 51 0 24 3;
#X connect 51 0 7 3;
#X connect 51 0 6 3;
#X connect 51 0 5 3;
#X connect 51 0 4 3;
#X connect 51 0 2 3;
#X connect 51 0 0 3;
#X connect 52 0 50 0;
#X restore 31 747 pd save;
#X f 87;
#N canvas 0 0 958 1050 call 0;
#X obj 474 379 text get seq1;
#X floatatom 74 314 5 0 0 0 - - - 0;
#X floatatom 116 315 5 0 0 0 - - - 0;
#X obj 74 289 gate 16, f 91;
#X floatatom 158 315 5 0 0 0 - - - 0;
#X floatatom 200 316 5 0 0 0 - - - 0;
#X floatatom 243 316 5 0 0 0 - - - 0;
#X floatatom 285 317 5 0 0 0 - - - 0;
#X floatatom 327 317 5 0 0 0 - - - 0;
#X floatatom 369 318 5 0 0 0 - - - 0;
#X floatatom 412 318 5 0 0 0 - - - 0;
#X floatatom 454 319 5 0 0 0 - - - 0;
#X floatatom 496 319 5 0 0 0 - - - 0;
#X floatatom 538 320 5 0 0 0 - - - 0;
#X floatatom 581 320 5 0 0 0 - - - 0;
#X floatatom 623 320 5 0 0 0 - - - 0;
#X floatatom 665 320 5 0 0 0 - - - 0;
#X floatatom 708 320 5 0 0 0 - - - 0;
#X obj 655 221 bng 15 250 50 0 empty empty empty 17 7 0 10 #fcfcfc
#000000 #000000;
#X obj 655 241 uzi 16 0;
#X obj 74 261 + 1;
#X obj 574 379 text get seq1;
#X obj 674 379 text get seq1;
#X obj 774 379 text get seq1;
#X obj 874 379 text get seq1;
#X obj 974 379 text get seq1;
#X obj 1074 379 text get seq1;
#X obj 1174 379 text get seq1;
#X obj 1274 379 text get seq1;
#X obj 1374 379 text get seq1;
#X obj 1474 379 text get seq1;
#X obj 1574 379 text get seq1;
#X obj 74 379 text get seq1;
#X obj 174 379 text get seq1;
#X obj 274 379 text get seq1;
#X obj 374 379 text get seq1;
#X obj 74 438 outlet;
#X obj 124 438 outlet;
#X obj 174 438 outlet;
#X obj 224 438 outlet;
#X obj 274 438 outlet;
#X obj 324 438 outlet;
#X obj 374 438 outlet;
#X obj 424 438 outlet;
#X obj 474 438 outlet;
#X obj 524 438 outlet;
#X obj 574 438 outlet;
#X obj 624 438 outlet;
#X obj 674 438 outlet;
#X obj 724 438 outlet;
#X obj 774 438 outlet;
#X obj 824 438 outlet;
#X obj 655 195 inlet;
#X floatatom 1712 360 5 0 0 0 - - - 0;
#X obj 1662 313 inlet;
#X obj 1712 313 loadbang;
#X msg 1712 335 0;
#X connect 0 0 40 0;
#X connect 1 0 32 0;
#X connect 2 0 33 0;
#X connect 3 0 1 0;
#X connect 3 1 2 0;
#X connect 3 2 4 0;
#X connect 3 3 5 0;
#X connect 3 4 6 0;
#X connect 3 5 7 0;
#X connect 3 6 8 0;
#X connect 3 7 9 0;
#X connect 3 8 10 0;
#X connect 3 9 11 0;
#X connect 3 10 12 0;
#X connect 3 11 13 0;
#X connect 3 12 14 0;
#X connect 3 13 15 0;
#X connect 3 14 16 0;
#X connect 3 15 17 0;
#X connect 4 0 34 0;
#X connect 5 0 35 0;
#X connect 6 0 0 0;
#X connect 7 0 21 0;
#X connect 8 0 22 0;
#X connect 9 0 23 0;
#X connect 10 0 24 0;
#X connect 11 0 25 0;
#X connect 12 0 26 0;
#X connect 13 0 27 0;
#X connect 14 0 28 0;
#X connect 15 0 29 0;
#X connect 16 0 30 0;
#X connect 17 0 31 0;
#X connect 18 0 19 0;
#X connect 19 2 20 0;
#X connect 19 2 3 1;
#X connect 20 0 3 0;
#X connect 21 0 41 0;
#X connect 22 0 42 0;
#X connect 23 0 43 0;
#X connect 24 0 44 0;
#X connect 25 0 45 0;
#X connect 26 0 46 0;
#X connect 27 0 47 0;
#X connect 28 0 48 0;
#X connect 29 0 49 0;
#X connect 30 0 50 0;
#X connect 31 0 51 0;
#X connect 32 0 36 0;
#X connect 32 1 33 0;
#X connect 33 0 37 0;
#X connect 34 0 38 0;
#X connect 35 0 39 0;
#X connect 52 0 18 0;
#X connect 53 0 32 1;
#X connect 53 0 33 1;
#X connect 53 0 34 1;
#X connect 53 0 35 1;
#X connect 53 0 0 1;
#X connect 53 0 21 1;
#X connect 53 0 22 1;
#X connect 53 0 23 1;
#X connect 53 0 24 1;
#X connect 53 0 25 1;
#X connect 53 0 26 1;
#X connect 53 0 27 1;
#X connect 53 0 28 1;
#X connect 53 0 29 1;
#X connect 53 0 30 1;
#X connect 53 0 31 1;
#X connect 54 0 32 3;
#X connect 54 0 33 3;
#X connect 54 0 34 3;
#X connect 54 0 35 3;
#X connect 54 0 0 3;
#X connect 54 0 21 3;
#X connect 54 0 22 3;
#X connect 54 0 23 3;
#X connect 54 0 24 3;
#X connect 54 0 25 3;
#X connect 54 0 26 3;
#X connect 54 0 27 3;
#X connect 54 0 28 3;
#X connect 54 0 29 3;
#X connect 54 0 30 3;
#X connect 54 0 31 3;
#X connect 55 0 56 0;
#X connect 56 0 53 0;
#X restore 31 899 pd call;
#X f 88;
#X obj 31 876 bng 15 250 50 0 empty empty empty 17 7 0 10 #fcfcfc #000000
#000000;
#X msg 176 151 16;
#N canvas 0 0 967 1050 pad-control 0;
#X msg 68 219 0;
#X obj 68 167 inlet;
#X msg 148 219 0;
#X obj 148 167 inlet;
#X msg 188 219 100;
#X msg 228 219 0;
#X obj 228 167 inlet;
#X msg 268 219 100;
#X msg 308 219 0;
#X obj 308 167 inlet;
#X msg 348 219 100;
#X msg 388 219 0;
#X obj 388 167 inlet;
#X msg 428 219 100;
#X msg 468 219 0;
#X obj 468 167 inlet;
#X msg 508 219 100;
#X msg 548 219 0;
#X obj 548 167 inlet;
#X msg 588 219 100;
#X msg 628 219 0;
#X obj 628 167 inlet;
#X msg 668 219 100;
#X msg 708 219 0;
#X obj 708 167 inlet;
#X msg 748 219 100;
#X msg 788 219 0;
#X obj 788 167 inlet;
#X msg 828 219 100;
#X msg 868 219 0;
#X obj 868 167 inlet;
#X msg 908 219 100;
#X msg 948 219 0;
#X obj 948 167 inlet;
#X msg 988 219 100;
#X msg 1028 219 0;
#X obj 1028 167 inlet;
#X msg 1068 219 100;
#X msg 1108 219 0;
#X obj 1108 167 inlet;
#X msg 1148 219 100;
#X msg 1188 219 0;
#X obj 1188 167 inlet;
#X msg 1228 219 100;
#X msg 1268 219 0;
#X obj 1268 167 inlet;
#X msg 1308 219 100;
#X obj 148 248 ctlout 45;
#X obj 228 248 ctlout 46;
#X obj 308 248 ctlout 47;
#X obj 388 248 ctlout 48;
#X obj 468 248 ctlout 49;
#X obj 548 248 ctlout 50;
#X obj 628 248 ctlout 51;
#X obj 708 248 ctlout 36;
#X obj 788 248 ctlout 37;
#X obj 868 248 ctlout 38;
#X obj 948 248 ctlout 39;
#X obj 1028 248 ctlout 40;
#X obj 1108 248 ctlout 41;
#X obj 1188 248 ctlout 42;
#X obj 1268 248 ctlout 43;
#X obj 68 194 moses 1;
#X obj 147 194 moses 1;
#X obj 229 194 moses 1;
#X obj 308 194 moses 1;
#X obj 388 194 moses 1;
#X obj 468 194 moses 1;
#X obj 548 194 moses 1;
#X obj 628 194 moses 1;
#X obj 708 194 moses 1;
#X obj 788 194 moses 1;
#X obj 868 194 moses 1;
#X obj 948 194 moses 1;
#X obj 1028 194 moses 1;
#X obj 1108 194 moses 1;
#X obj 1188 194 moses 1;
#X obj 1268 194 moses 1;
#X msg 108 219 127;
#X obj 68 248 ctlout 44;
#X connect 0 0 79 0;
#X connect 1 0 62 0;
#X connect 2 0 47 0;
#X connect 3 0 63 0;
#X connect 4 0 47 0;
#X connect 5 0 48 0;
#X connect 6 0 64 0;
#X connect 7 0 48 0;
#X connect 8 0 49 0;
#X connect 9 0 65 0;
#X connect 10 0 49 0;
#X connect 11 0 50 0;
#X connect 12 0 66 0;
#X connect 13 0 50 0;
#X connect 14 0 51 0;
#X connect 15 0 67 0;
#X connect 16 0 51 0;
#X connect 17 0 52 0;
#X connect 18 0 68 0;
#X connect 19 0 52 0;
#X connect 20 0 53 0;
#X connect 21 0 69 0;
#X connect 22 0 53 0;
#X connect 23 0 54 0;
#X connect 24 0 70 0;
#X connect 25 0 54 0;
#X connect 26 0 55 0;
#X connect 27 0 71 0;
#X connect 28 0 55 0;
#X connect 29 0 56 0;
#X connect 30 0 72 0;
#X connect 31 0 56 0;
#X connect 32 0 57 0;
#X connect 33 0 73 0;
#X connect 34 0 57 0;
#X connect 35 0 58 0;
#X connect 36 0 74 0;
#X connect 37 0 58 0;
#X connect 38 0 59 0;
#X connect 39 0 75 0;
#X connect 40 0 59 0;
#X connect 41 0 60 0;
#X connect 42 0 76 0;
#X connect 43 0 60 0;
#X connect 44 0 61 0;
#X connect 45 0 77 0;
#X connect 46 0 61 0;
#X connect 62 0 0 0;
#X connect 62 1 78 0;
#X connect 63 0 2 0;
#X connect 63 1 4 0;
#X connect 64 0 5 0;
#X connect 64 1 7 0;
#X connect 65 0 8 0;
#X connect 65 1 10 0;
#X connect 66 0 11 0;
#X connect 66 1 13 0;
#X connect 67 0 14 0;
#X connect 67 1 16 0;
#X connect 68 0 17 0;
#X connect 68 1 19 0;
#X connect 69 0 20 0;
#X connect 69 1 22 0;
#X connect 70 0 23 0;
#X connect 70 1 25 0;
#X connect 71 0 26 0;
#X connect 71 1 28 0;
#X connect 72 0 29 0;
#X connect 72 1 31 0;
#X connect 73 0 32 0;
#X connect 73 1 34 0;
#X connect 74 0 35 0;
#X connect 74 1 37 0;
#X connect 75 0 38 0;
#X connect 75 1 40 0;
#X connect 76 0 41 0;
#X connect 76 1 43 0;
#X connect 77 0 44 0;
#X connect 77 1 46 0;
#X connect 78 0 79 0;
#X restore 31 974 pd pad-control;
#X f 88;
#X floatatom 31 607 5 0 0 0 - - - 0;
#X obj 186 450 ctlin 74;
#X obj 176 127 loadbang;
#X floatatom 707 836 5 0 0 0 - - - 0;
#X obj 707 891 sel 0 1 2 3, f 28;
#X obj 707 954 unpack f f f f;
#X msg 707 919 1 0 0 0;
#X obj 31 807 bng 15 250 50 0 empty empty empty 17 7 0 10 #fcfcfc #000000
#000000;
#X msg 670 954 0;
#X obj 673 674 route 44 45 46 47 48 49 50 51 36 37 38 39 40 41 42 43
;
#X msg 766 919 0 1 0 0;
#X msg 825 919 0 0 1 0;
#X msg 885 920 0 0 0 1;
#N canvas 969 0 949 638 clock 0;
#X obj 32 161 i;
#X obj 63 161 + 1;
#X obj 32 33 tgl 15 0 empty empty empty 17 7 0 10 #fcfcfc #000000 #000000
0 1;
#X msg 131 132 0;
#X obj 92 266 + 1;
#X obj 131 107 sel 0;
#X obj 164 136 bng 15 250 50 0 empty empty empty 17 7 0 10 #fcfcfc
#000000 #000000;
#X obj 92 336 s pattern-start;
#X text 174 108 reset;
#X floatatom 562 33 5 0 0 0 - - - 0;
#X obj 32 107 metro, f 12;
#X obj 92 242 i;
#X obj 92 290 %;
#X obj 32 198 %;
#X floatatom 92 314 5 0 0 0 - - - 0;
#X obj 92 218 sel;
#X obj 123 218 - 1;
#X obj 32 223 s pos;
#X obj 233 150 r steps;
#X obj 474 133 tgl 15 0 empty empty empty 17 7 0 10 #fcfcfc #000000
#000000 0 1;
#X obj 474 214 midiout;
#X obj 365 160 select 0 1;
#X msg 365 194 252;
#X msg 402 194 250;
#X msg 474 187 248;
#X obj 474 157 metro 20.8333;
#X obj 562 57 expr (60000/$f1);
#X obj 562 125 / 24;
#X obj 522 89 / 4;
#X obj 32 11 inlet;
#X obj 562 9 inlet;
#X obj 572 158 s clock;
#X connect 0 0 1 0;
#X connect 0 0 13 0;
#X connect 1 0 0 1;
#X connect 2 0 5 0;
#X connect 2 0 10 0;
#X connect 2 0 19 0;
#X connect 3 0 0 1;
#X connect 3 0 11 1;
#X connect 3 0 12 0;
#X connect 4 0 11 1;
#X connect 4 0 12 0;
#X connect 5 0 3 0;
#X connect 5 0 6 0;
#X connect 9 0 26 0;
#X connect 10 0 0 0;
#X connect 11 0 4 0;
#X connect 12 0 14 0;
#X connect 13 0 15 0;
#X connect 13 0 17 0;
#X connect 14 0 7 0;
#X connect 15 0 11 0;
#X connect 16 0 15 1;
#X connect 18 0 12 1;
#X connect 18 0 16 0;
#X connect 18 0 13 1;
#X connect 19 0 21 0;
#X connect 19 0 25 0;
#X connect 21 0 22 0;
#X connect 21 1 23 0;
#X connect 22 0 20 0;
#X connect 23 0 20 0;
#X connect 24 0 20 0;
#X connect 25 0 24 0;
#X connect 26 0 28 0;
#X connect 26 0 27 0;
#X connect 27 0 25 1;
#X connect 27 0 31 0;
#X connect 28 0 10 1;
#X connect 29 0 2 0;
#X connect 30 0 9 0;
#X restore 25 124 pd clock;
#N canvas 0 0 967 1050 euclid 0;
#X obj 498 272 f;
#X obj 498 346 *;
#X floatatom 630 382 5 0 16 0 - - - 0;
#X obj 564 252 == 0;
#X obj 526 272 + 1;
#X obj 498 396 <;
#X text 408 374 TRIG NUMBER;
#X msg 564 223 0, f 2;
#X obj 445 167 bng 15 250 50 0 empty empty empty 17 7 0 10 #fcfcfc
#000000 #000000;
#X floatatom 739 303 5 0 0 0 - - - 0;
#X obj 445 188 uzi 16 0;
#X obj 498 297 % 16;
#X obj 498 371 % 16;
#X obj 522 138 r steps;
#X obj 739 330 bng 15 250 50 0 empty empty empty 17 7 0 10 #fcfcfc
#000000 #000000;
#X obj 655 114 inlet;
#X obj 742 216 inlet;
#X obj 498 419 zl group 16;
#X obj 498 443 outlet;
#X obj 498 321 + 0;
#X connect 0 0 4 0;
#X connect 0 0 11 0;
#X connect 1 0 12 0;
#X connect 2 0 1 1;
#X connect 2 0 5 1;
#X connect 2 0 7 0;
#X connect 2 0 8 0;
#X connect 3 0 0 1;
#X connect 4 0 0 1;
#X connect 5 0 17 0;
#X connect 7 0 3 0;
#X connect 8 0 10 0;
#X connect 9 0 14 0;
#X connect 9 0 19 1;
#X connect 10 2 0 0;
#X connect 11 0 19 0;
#X connect 12 0 5 0;
#X connect 13 0 12 1;
#X connect 13 0 11 1;
#X connect 13 0 10 1;
#X connect 13 0 17 1;
#X connect 14 0 2 0;
#X connect 15 0 2 0;
#X connect 16 0 9 0;
#X connect 17 0 18 0;
#X connect 19 0 1 0;
#X restore 31 635 pd euclid;
#X f 11;
#X floatatom 105 576 5 0 0 0 - - - 0;
#X obj 707 787 ctlin 7;
#X obj 116 635 s save;
#X obj 105 856 r save;
#X obj 78 72 loadmess 128;
#X msg 952 879 symbol seq\$1;
#X obj 176 72 text define -k seq0;
#A set 1 100 0 2 0 0 0 0 \; 0 100 0 2 0 0 0 0 \; 0 100 0 2 0 0 0 0
\; 0 100 0 2 0 0 0 0 \; 0 100 0 2 0 0 0 0 \; 0 100 0 2 0 0 0 0 \; 1
100 0 2 0 0 0 0 \; 0 100 0 2 0 0 0 0 \; 0 100 0 2 0 0 0 0 \; 0 100
0 2 0 0 0 0 \; 0 100 0 2 0 0 0 0 \; 1 100 0 2 0 0 0 0 \; 0 100 0 2
0 0 0 0 \; 0 100 0 2 0 0 0 0 \; 0 100 0 2 0 0 0 0 \; 0 100 0 2 0 0
0 0 \;;
#X obj 316 72 text define -k seq2;
#A set 1 100 0 2 0 0 0 0 \; 0 100 0 2 0 0 0 0 \; 1 100 0 2 0 0 0 0
\; 0 100 0 2 0 0 0 0 \; 1 100 0 2 0 0 0 0 \; 0 100 0 2 0 0 0 0 \; 1
100 0 2 0 0 0 0 \; 0 100 0 2 0 0 0 0 \; 1 100 0 2 0 0 0 0 \; 1 100
0 2 0 0 0 0 \; 0 100 0 2 0 0 0 0 \; 1 100 0 2 0 0 0 0 \; 0 100 0 2
0 0 0 0 \; 1 100 0 2 0 0 0 0 \; 0 100 0 2 0 0 0 0 \; 1 100 0 2 0 0
0 0 \;;
#X obj 316 96 text define -k seq3;
#A set 0 100 0 2 0 0 0 0 \; 0 100 0 2 0 0 0 0 \; 0 100 0 2 0 0 0 0
\; 0 100 0 2 0 0 0 0 \; 0 100 0 2 0 0 0 0 \; 0 100 0 2 0 0 0 0 \; 0
100 0 2 0 0 0 0 \; 0 100 0 2 0 0 0 0 \; 0 100 0 2 0 0 0 0 \; 0 100
0 2 0 0 0 0 \; 0 100 0 2 0 0 0 0 \; 0 100 0 2 0 0 0 0 \; 0 100 0 2
0 0 0 0 \; 0 100 0 2 0 0 0 0 \; 0 100 0 2 0 0 0 0 \; 0 100 0 2 0 0
0 0 \;;
#X obj 31 852 delay 400;
#N canvas 0 0 1920 1052 knob 0;
#X obj 217 31 inlet;
#X floatatom 217 55 5 0 0 0 - - - 0;
#X obj 217 81 sel 63 65;
#X obj 171 126 i;
#X obj 217 107 - 1;
#X obj 247 107 + 1;
#X obj 171 104 bng 15 250 50 0 empty empty empty 17 7 0 10 #fcfcfc
#000000 #000000;
#X floatatom 171 150 5 0 0 0 - - - 0;
#X obj 261 168 < 0;
#X msg 261 213 0;
#X obj 261 192 sel 1;
#X obj 320 168 > 16;
#X obj 320 192 sel 1;
#X msg 320 216 16;
#X obj 171 173 outlet;
#X connect 0 0 1 0;
#X connect 1 0 2 0;
#X connect 1 0 6 0;
#X connect 2 0 4 0;
#X connect 2 1 5 0;
#X connect 3 0 4 0;
#X connect 3 0 5 0;
#X connect 3 0 7 0;
#X connect 4 0 3 1;
#X connect 5 0 3 1;
#X connect 6 0 3 0;
#X connect 7 0 8 0;
#X connect 7 0 11 0;
#X connect 7 0 14 0;
#X connect 8 0 10 0;
#X connect 9 0 3 0;
#X connect 10 0 9 0;
#X connect 11 0 12 0;
#X connect 12 0 13 0;
#X connect 13 0 3 0;
#X restore 31 320 pd knob;
#N canvas 0 50 450 300 knob 0;
#X obj 217 31 inlet;
#X floatatom 217 55 5 0 0 0 - - - 0;
#X obj 217 81 sel 63 65;
#X obj 171 126 i;
#X obj 217 107 - 1;
#X obj 247 107 + 1;
#X obj 171 104 bng 15 250 50 0 empty empty empty 17 7 0 10 #fcfcfc
#000000 #000000;
#X floatatom 171 150 5 0 0 0 - - - 0;
#X obj 261 168 < 0;
#X msg 261 213 0;
#X obj 261 192 sel 1;
#X obj 320 168 > 16;
#X obj 320 192 sel 1;
#X msg 320 216 16;
#X obj 171 173 outlet;
#X connect 0 0 1 0;
#X connect 1 0 2 0;
#X connect 1 0 6 0;
#X connect 2 0 4 0;
#X connect 2 1 5 0;
#X connect 3 0 4 0;
#X connect 3 0 5 0;
#X connect 3 0 7 0;
#X connect 4 0 3 1;
#X connect 5 0 3 1;
#X connect 6 0 3 0;
#X connect 7 0 8 0;
#X connect 7 0 11 0;
#X connect 7 0 14 0;
#X connect 8 0 10 0;
#X connect 9 0 3 0;
#X connect 10 0 9 0;
#X connect 11 0 12 0;
#X connect 12 0 13 0;
#X connect 13 0 3 0;
#X restore 105 555 pd knob;
#X floatatom 144 617 5 0 0 0 - - - 0;
#X obj 144 594 del 1;
#N canvas 0 0 1920 1052 utils 0;
#X obj 46 649 spigot, f 13;
#X obj 134 627 tgl 15 0 empty empty empty 17 7 0 10 #fcfcfc #000000
#000000 0 1;
#X text 149 649 conditional;
#X floatatom 134 573 5 0 15 0 - - - 0;
#X obj 134 546 t b f;
#X obj 134 597 text get conditions;
#X obj 134 511 r pattern-start;
#X obj 277 592 s \$0-cond-show;
#X obj 177 546 r \$0-cond;
#X obj 168 126 uzi 16 0;
#X obj 168 106 bng 15 250 50 0 empty empty empty 17 7 0 10 #fcfcfc
#000000 #000000;
#X msg 168 158 100;
#X obj 42 361 uzi 16 0;
#X obj 42 341 bng 15 250 50 0 empty empty empty 17 7 0 10 #fcfcfc #000000
#000000;
#X obj 41 430 text set seq1;
#X msg 122 393 5;
#X obj 84 160 random 100;
#X obj 42 386 random 20;
#X text 42 315 swing;
#X text 167 83 prob random;
#X msg 132 321 4;
#X msg 164 321 9;
#X msg 225 321 19;
#X msg 195 321 14;
#X msg 102 321 0;
#X obj 516 131 notein;
#X floatatom 535 175 5 0 0 0 - - - 0;
#X obj 605 198 ctlin 10;
#X floatatom 605 222 5 0 0 0 - - - 0;
#X obj 535 250 gate 2, f 8;
#X floatatom 535 272 5 0 0 0 - - - 0;
#X floatatom 588 273 5 0 0 0 - - - 0;
#X obj 535 198 sel 0 127;
#X msg 535 222 1;
#X msg 565 222 2;
#X floatatom 516 155 5 0 0 0 - - - 0;
#X text 515 109 shift;
#X obj 602 656 text define -k conditions;
#A set 0 0 0 0 \; 0 0 0 1 \; 0 0 1 0 \; 0 0 1 1 \; 0 1 0 0 \; 0 1 0
1 \; 0 1 1 0 \; 0 1 1 1 \; 1 0 0 0 \; 1 0 0 1 \; 1 0 1 0 \; 1 0 1 1
\; 1 1 0 0 \; 1 1 0 1 \; 1 1 1 0 \; 1 1 1 1 \;;
#X obj 602 609 text get conditions;
#N canvas 0 50 450 250 (subpatch) 0;
#X array cond 4 float 3;
#A 0 0 0 1 0;
#X coords 0 1 4 -1 200 140 1;
#X restore 390 536 graph;
#X obj 602 632 array set cond;
#X floatatom 602 586 5 0 15 0 - - - 0;
#X obj 602 564 r cond-show;
#X text 608 524 note darf nicht triggern \; condititons scalen \;;
#X msg 248 158 1;
#X obj 168 195 text set seq0;
#X connect 1 0 0 1;
#X connect 3 0 7 0;
#X connect 3 0 5 0;
#X connect 4 1 5 1;
#X connect 5 0 1 0;
#X connect 8 0 3 0;
#X connect 9 0 11 0;
#X connect 9 0 16 0;
#X connect 9 2 45 1;
#X connect 10 0 9 0;
#X connect 10 0 44 0;
#X connect 11 0 45 0;
#X connect 12 0 17 0;
#X connect 12 2 14 1;
#X connect 13 0 12 0;
#X connect 13 0 15 0;
#X connect 15 0 14 2;
#X connect 17 0 14 0;
#X connect 20 0 17 1;
#X connect 20 0 13 0;
#X connect 21 0 13 0;
#X connect 21 0 17 1;
#X connect 22 0 17 1;
#X connect 22 0 13 0;
#X connect 23 0 17 1;
#X connect 23 0 13 0;
#X connect 24 0 13 0;
#X connect 24 0 17 1;
#X connect 25 0 35 0;
#X connect 25 1 26 0;
#X connect 26 0 32 0;
#X connect 27 0 28 0;
#X connect 28 0 29 1;
#X connect 29 0 30 0;
#X connect 29 1 31 0;
#X connect 32 0 33 0;
#X connect 32 1 34 0;
#X connect 33 0 29 0;
#X connect 34 0 29 0;
#X connect 38 0 40 0;
#X connect 41 0 38 0;
#X connect 42 0 41 0;
#X connect 44 0 45 2;
#X restore 282 166 pd utils;
#X obj 719 610 ctlin, f 29;
#X obj 707 811 min 3;
#X obj 673 647 pak f f;
#X obj 31 239 sel 0 127;
#X msg 31 263 1;
#X msg 61 263 2;
#X obj 31 295 gate 2, f 11;
#N canvas 0 50 450 300 knob 0;
#X obj 217 31 inlet;
#X floatatom 217 55 5 0 0 0 - - - 0;
#X obj 217 81 sel 63 65;
#X obj 171 126 i;
#X obj 217 107 - 1;
#X obj 247 107 + 1;
#X obj 171 104 bng 15 250 50 0 empty empty empty 17 7 0 10 #fcfcfc
#000000 #000000;
#X floatatom 171 150 5 0 0 0 - - - 0;
#X obj 261 168 < 0;
#X msg 261 213 0;
#X obj 261 192 sel 1;
#X obj 320 192 sel 1;
#X msg 320 216 16;
#X obj 171 173 outlet;
#X obj 320 168 > 100;
#X connect 0 0 1 0;
#X connect 1 0 2 0;
#X connect 1 0 6 0;
#X connect 2 0 4 0;
#X connect 2 1 5 0;
#X connect 3 0 4 0;
#X connect 3 0 5 0;
#X connect 3 0 7 0;
#X connect 4 0 3 1;
#X connect 5 0 3 1;
#X connect 6 0 3 0;
#X connect 7 0 8 0;
#X connect 7 0 13 0;
#X connect 7 0 14 0;
#X connect 8 0 10 0;
#X connect 9 0 3 0;
#X connect 10 0 9 0;
#X connect 11 0 12 0;
#X connect 12 0 3 0;
#X connect 14 0 11 0;
#X restore 105 320 pd knob;
#N canvas 0 0 1477 1050 steps 0;
#X floatatom 109 218 5 0 0 0 - - - 0;
#X obj 109 149 r pattern-start;
#X obj 109 174 bng 15 250 50 0 empty empty empty 17 7 0 10 #fcfcfc
#000000 #000000;
#X obj 109 194 random 100;
#X obj 200 198 t b f;
#X floatatom 167 122 5 0 0 0 - - - 0;
#X floatatom 226 122 5 0 0 0 - - - 0;
#X floatatom 284 122 5 0 0 0 - - - 0;
#X floatatom 343 122 5 0 0 0 - - - 0;
#X obj 70 333 del;
#X obj 109 34 r pos;
#X obj 109 241 <, f 18;
#X obj 109 72 text get seq0;
#X obj 70 304 spigot;
#X obj 109 273 tgl 15 0 empty empty empty 17 7 0 10 #fcfcfc #000000
#000000 0 1;
#X obj 109 121 moses 1;
#X obj 58 582 *~;
#X obj 164 561 line~;
#X obj 58 616 *~;
#X obj 142 600 hsl 128 15 0 127 0 0 empty empty empty -2 -8 0 10 #fcfcfc
#000000 #000000 0 1;
#X obj 139 620 / 127;
#X obj 58 641 dac~;
#N canvas 0 0 958 1050 ratchet 0;
#X obj 361 344 inlet;
#X obj 406 343 inlet;
#X obj 477 343 inlet;
#X obj 495 496 r clock;
#X floatatom 495 521 5 0 0 0 - - - 0;
#X obj 445 595 metro;
#X floatatom 477 569 5 0 0 0 - - - 0;
#X obj 445 638 spigot;
#X obj 484 620 tgl 15 0 empty empty empty 17 7 0 10 #fcfcfc #000000
#000000 0 1;
#X floatatom 361 493 5 0 0 0 - - - 0;
#X obj 361 468 &&;
#X obj 477 544 *;
#X obj 445 663 outlet;
#X obj 369 595 loadmess 1;
#X obj 477 443 list store 0.25 0.5 1 2 4 6 8;
#X floatatom 477 468 5 0 0 0 - - - 0;
#X floatatom 477 394 5 0 0 0 - - - 0;
#X msg 477 418 get \$1;
#X connect 0 0 10 0;
#X connect 1 0 10 1;
#X connect 2 0 16 0;
#X connect 3 0 4 0;
#X connect 4 0 11 1;
#X connect 5 0 7 0;
#X connect 6 0 5 1;
#X connect 7 0 12 0;
#X connect 8 0 7 1;
#X connect 9 0 8 0;
#X connect 10 0 9 0;
#X connect 11 0 6 0;
#X connect 13 0 5 0;
#X connect 14 0 15 0;
#X connect 15 0 11 0;
#X connect 16 0 17 0;
#X connect 17 0 14 0;
#X restore 226 150 pd ratchet;
#X obj 58 556 osc~ 200;
#X msg 164 536 1 \, 0 50;
#X obj 70 357 s trig0;
#X obj 109 96 unpack f f f f f f f f, f 59;
#X floatatom 401 122 5 0 0 0 - - - 0;
#X obj 460 121 s lock00;
#X obj 525 121 s lock01;
#X text 171 282 random per step \, vllt mit pos;
#X obj 70 446 makenote, f 12;
#X msg 70 391 48 100 100;
#X obj 70 416 unpack f f f;
#X floatatom 628 241 5 0 0 0 - - - 0;
#X obj 628 172 r pattern-start;
#X obj 628 197 bng 15 250 50 0 empty empty empty 17 7 0 10 #fcfcfc
#000000 #000000;
#X obj 628 217 random 100;
#X obj 719 221 t b f;
#X floatatom 686 145 5 0 0 0 - - - 0;
#X floatatom 745 145 5 0 0 0 - - - 0;
#X floatatom 803 145 5 0 0 0 - - - 0;
#X floatatom 862 145 5 0 0 0 - - - 0;
#X obj 589 356 del;
#X obj 628 57 r pos;
#X obj 628 264 <, f 18;
#X obj 589 327 spigot;
#X obj 628 296 tgl 15 0 empty empty empty 17 7 0 10 #fcfcfc #000000
#000000 0 1;
#X obj 628 144 moses 1;
#N canvas 0 0 958 1050 ratchet 0;
#X obj 361 344 inlet;
#X obj 406 343 inlet;
#X obj 477 343 inlet;
#X obj 495 496 r clock;
#X floatatom 495 521 5 0 0 0 - - - 0;
#X obj 445 595 metro;
#X floatatom 477 569 5 0 0 0 - - - 0;
#X obj 445 638 spigot;
#X obj 484 620 tgl 15 0 empty empty empty 17 7 0 10 #fcfcfc #000000
#000000 0 1;
#X floatatom 361 493 5 0 0 0 - - - 0;
#X obj 361 468 &&;
#X obj 477 544 *;
#X obj 445 663 outlet;
#X obj 369 595 loadmess 1;
#X obj 477 443 list store 0.25 0.5 1 2 4 6 8;
#X floatatom 477 468 5 0 0 0 - - - 0;
#X floatatom 477 394 5 0 0 0 - - - 0;
#X msg 477 418 get \$1;
#X connect 0 0 10 0;
#X connect 1 0 10 1;
#X connect 2 0 16 0;
#X connect 3 0 4 0;
#X connect 4 0 11 1;
#X connect 5 0 7 0;
#X connect 6 0 5 1;
#X connect 7 0 12 0;
#X connect 8 0 7 1;
#X connect 9 0 8 0;
#X connect 10 0 9 0;
#X connect 11 0 6 0;
#X connect 13 0 5 0;
#X connect 14 0 15 0;
#X connect 15 0 11 0;
#X connect 16 0 17 0;
#X connect 17 0 14 0;
#X restore 745 173 pd ratchet;
#X obj 589 380 s trig0;
#X obj 628 119 unpack f f f f f f f f, f 59;
#X floatatom 920 145 5 0 0 0 - - - 0;
#X obj 979 144 s lock00;
#X obj 1044 144 s lock01;
#X text 690 305 random per step \, vllt mit pos;
#X obj 589 469 makenote, f 12;
#X msg 589 414 48 100 100;
#X obj 589 439 unpack f f f;
#X floatatom 460 706 5 0 0 0 - - - 0;
#X obj 460 637 r pattern-start;
#X obj 460 662 bng 15 250 50 0 empty empty empty 17 7 0 10 #fcfcfc
#000000 #000000;
#X obj 460 682 random 100;
#X obj 551 686 t b f;
#X floatatom 518 610 5 0 0 0 - - - 0;
#X floatatom 577 610 5 0 0 0 - - - 0;
#X floatatom 635 610 5 0 0 0 - - - 0;
#X floatatom 694 610 5 0 0 0 - - - 0;
#X obj 421 821 del;
#X obj 460 522 r pos;
#X obj 460 729 <, f 18;
#X obj 421 792 spigot;
#X obj 460 761 tgl 15 0 empty empty empty 17 7 0 10 #fcfcfc #000000
#000000 0 1;
#X obj 460 609 moses 1;
#N canvas 0 0 958 1050 ratchet 0;
#X obj 361 344 inlet;
#X obj 406 343 inlet;
#X obj 477 343 inlet;
#X obj 495 496 r clock;
#X floatatom 495 521 5 0 0 0 - - - 0;
#X obj 445 595 metro;
#X floatatom 477 569 5 0 0 0 - - - 0;
#X obj 445 638 spigot;
#X obj 484 620 tgl 15 0 empty empty empty 17 7 0 10 #fcfcfc #000000
#000000 0 1;
#X floatatom 361 493 5 0 0 0 - - - 0;
#X obj 361 468 &&;
#X obj 477 544 *;
#X obj 445 663 outlet;
#X obj 369 595 loadmess 1;
#X obj 477 443 list store 0.25 0.5 1 2 4 6 8;
#X floatatom 477 468 5 0 0 0 - - - 0;
#X floatatom 477 394 5 0 0 0 - - - 0;
#X msg 477 418 get \$1;
#X connect 0 0 10 0;
#X connect 1 0 10 1;
#X connect 2 0 16 0;
#X connect 3 0 4 0;
#X connect 4 0 11 1;
#X connect 5 0 7 0;
#X connect 6 0 5 1;
#X connect 7 0 12 0;
#X connect 8 0 7 1;
#X connect 9 0 8 0;
#X connect 10 0 9 0;
#X connect 11 0 6 0;
#X connect 13 0 5 0;
#X connect 14 0 15 0;
#X connect 15 0 11 0;
#X connect 16 0 17 0;
#X connect 17 0 14 0;
#X restore 577 638 pd ratchet;
#X obj 421 845 s trig0;
#X obj 460 584 unpack f f f f f f f f, f 59;
#X floatatom 752 610 5 0 0 0 - - - 0;
#X obj 811 609 s lock00;
#X obj 876 609 s lock01;
#X text 522 770 random per step \, vllt mit pos;
#X obj 421 934 makenote, f 12;
#X msg 421 879 48 100 100;
#X obj 421 904 unpack f f f;
#X obj 421 959 noteout 3, f 13;
#X obj 589 494 noteout 2, f 13;
#X obj 70 471 noteout 1, f 13;
#X obj 628 95 text get seq1;
#X obj 460 560 text get seq2;
#X connect 0 0 11 0;
#X connect 1 0 2 0;
#X connect 2 0 3 0;
#X connect 3 0 0 0;
#X connect 4 0 0 0;
#X connect 4 1 11 1;
#X connect 5 0 4 0;
#X connect 6 0 22 1;
#X connect 7 0 22 2;
#X connect 9 0 25 0;
#X connect 9 0 32 0;
#X connect 10 0 12 0;
#X connect 11 0 14 0;
#X connect 12 0 26 0;
#X connect 13 0 9 0;
#X connect 14 0 13 1;
#X connect 15 1 13 0;
#X connect 16 0 18 0;
#X connect 17 0 16 1;
#X connect 18 0 21 0;
#X connect 18 0 21 1;
#X connect 19 0 20 0;
#X connect 20 0 18 1;
#X connect 22 0 9 0;
#X connect 23 0 16 0;
#X connect 24 0 17 0;
#X connect 26 0 15 0;
#X connect 26 0 22 0;
#X connect 26 1 5 0;
#X connect 26 2 6 0;
#X connect 26 3 7 0;
#X connect 26 4 8 0;
#X connect 26 5 27 0;
#X connect 26 6 28 0;
#X connect 26 7 29 0;
#X connect 27 0 9 1;
#X connect 31 0 86 0;
#X connect 31 1 86 1;
#X connect 32 0 33 0;
#X connect 33 0 31 0;
#X connect 33 1 31 1;
#X connect 33 2 31 2;
#X connect 34 0 45 0;
#X connect 35 0 36 0;
#X connect 36 0 37 0;
#X connect 37 0 34 0;
#X connect 38 0 34 0;
#X connect 38 1 45 1;
#X connect 39 0 38 0;
#X connect 40 0 49 1;
#X connect 41 0 49 2;
#X connect 43 0 50 0;
#X connect 43 0 57 0;
#X connect 44 0 87 0;
#X connect 45 0 47 0;
#X connect 46 0 43 0;
#X connect 47 0 46 1;
#X connect 48 1 46 0;
#X connect 49 0 43 0;
#X connect 51 0 48 0;
#X connect 51 0 49 0;
#X connect 51 1 39 0;
#X connect 51 2 40 0;
#X connect 51 3 41 0;
#X connect 51 4 42 0;
#X connect 51 5 52 0;
#X connect 51 6 53 0;
#X connect 51 7 54 0;
#X connect 52 0 43 1;
#X connect 56 0 85 0;
#X connect 56 1 85 1;
#X connect 57 0 58 0;
#X connect 58 0 56 0;
#X connect 58 1 56 1;
#X connect 58 2 56 2;
#X connect 59 0 70 0;
#X connect 60 0 61 0;
#X connect 61 0 62 0;
#X connect 62 0 59 0;
#X connect 63 0 59 0;
#X connect 63 1 70 1;
#X connect 64 0 63 0;
#X connect 65 0 74 1;
#X connect 66 0 74 2;
#X connect 68 0 75 0;
#X connect 68 0 82 0;
#X connect 69 0 88 0;
#X connect 70 0 72 0;
#X connect 71 0 68 0;
#X connect 72 0 71 1;
#X connect 73 1 71 0;
#X connect 74 0 68 0;
#X connect 76 0 73 0;
#X connect 76 0 74 0;
#X connect 76 1 64 0;
#X connect 76 2 65 0;
#X connect 76 3 66 0;
#X connect 76 4 67 0;
#X connect 76 5 77 0;
#X connect 76 6 78 0;
#X connect 76 7 79 0;
#X connect 77 0 68 1;
#X connect 81 0 84 0;
#X connect 81 1 84 1;
#X connect 82 0 83 0;
#X connect 83 0 81 0;
#X connect 83 1 81 1;
#X connect 83 2 81 2;
#X connect 87 0 51 0;
#X connect 88 0 76 0;
#X restore 344 166 pd steps;
#X floatatom 784 115 5 0 0 0 - - - 0;
#X floatatom 871 115 5 0 0 0 - - - 0;
#X floatatom 958 115 5 0 0 0 - - - 0;
#X msg 1007 170 symbol seq\$1;
#X floatatom 1007 133 5 0 0 0 - - - 0;
#X obj 611 190 text set seq0;
#X obj 105 450 ctlin 123;
#X obj 105 474 sel 0 127;
#X msg 105 498 1;
#X msg 140 498 2;
#X obj 105 529 gate 2, f 12;
#X msg 699 37 symbol seq\$1;
#X obj 611 62 text get seq0;
#X msg 611 38 0;
#X floatatom 697 115 5 0 0 0 - - - 0;
#X obj 611 145 pak f f f f f, f 50;
#X floatatom 611 115 5 0 0 0 - - - 0;
#X obj 611 13 bng 15 250 50 0 empty empty empty 17 7 0 10 #fcfcfc #000000
#000000;
#X obj 105 345 * 0.1;
#X obj 105 372 i;
#X obj 105 399 * 10;
#X obj 498 32 stripnote;
#X obj 498 57 bng 15 250 50 0 empty empty empty 17 7 0 10 #fcfcfc #000000
#000000;
#X obj 498 13 ctlin 124;
#X obj 1123 59 uzi 16 0;
#X obj 1123 41 bng 15 250 50 0 empty empty empty 17 7 0 10 #fcfcfc
#000000 #000000;
#X obj 1123 112 text set seq0;
#X obj 1133 142 text set seq1;
#X obj 1143 172 text set seq2;
#X obj 1153 202 text set seq3;
#X msg 699 13 1;
#X obj 176 96 text define -k seq1;
#A set 0 100 0 2 0 0 0 0 \; 0 100 0 2 0 0 0 0 \; 0 100 0 2 0 0 0 0
\; 0 100 0 2 0 0 0 0 \; 1 100 0 2 0 0 0 0 \; 0 100 0 2 0 0 0 0 \; 0
100 0 2 0 0 0 0 \; 0 100 0 2 0 0 0 0 \; 0 100 0 2 0 0 0 0 \; 0 100
0 2 0 0 0 0 \; 0 100 0 2 0 0 0 0 \; 0 100 0 2 0 0 0 0 \; 1 100 0 2
0 0 0 0 \; 0 100 0 2 0 0 0 0 \; 0 100 0 2 0 0 0 0 \; 0 100 0 2 0 0
0 0 \;;
#X text 1143 38 reset lists;
#X obj 105 215 ctlin 64;
#X obj 31 215 ctlin 123;
#X text 29 999 set midi ch. 1;
#X text 609 214 0 trig \; 1 prob \; 2 ratchet \; 3 ratchet speed \;
4 cond \; 5 del \; 6 generic 1 \; 7 generic 2;
#X obj 611 86 unpack f f f f f f f f, f 50;
#X msg 1123 85 0 100 0 2 0 0 0 0;
#X obj 26 45 s go;
#X connect 0 0 56 0;
#X connect 0 0 121 0;
#X connect 1 0 3 0;
#X connect 2 0 56 1;
#X connect 4 0 5 0;
#X connect 4 1 6 0;
#X connect 4 2 7 0;
#X connect 4 3 8 0;
#X connect 4 4 9 0;
#X connect 4 5 10 0;
#X connect 4 6 11 0;
#X connect 4 7 12 0;
#X connect 4 8 13 0;
#X connect 4 9 14 0;
#X connect 4 10 15 0;
#X connect 4 11 16 0;
#X connect 4 12 17 0;
#X connect 4 13 18 0;
#X connect 4 14 19 0;
#X connect 4 15 20 0;
#X connect 5 0 38 0;
#X connect 5 0 50 0;
#X connect 6 0 38 1;
#X connect 6 0 50 0;
#X connect 7 0 38 2;
#X connect 7 0 50 0;
#X connect 8 0 38 3;
#X connect 8 0 50 0;
#X connect 9 0 38 4;
#X connect 9 0 50 0;
#X connect 10 0 38 5;
#X connect 10 0 50 0;
#X connect 11 0 38 6;
#X connect 11 0 50 0;
#X connect 12 0 38 7;
#X connect 12 0 50 0;
#X connect 13 0 38 8;
#X connect 13 0 50 0;
#X connect 14 0 38 9;
#X connect 14 0 50 0;
#X connect 15 0 38 10;
#X connect 15 0 50 0;
#X connect 16 0 38 11;
#X connect 16 0 50 0;
#X connect 17 0 38 12;
#X connect 17 0 50 0;
#X connect 18 0 38 13;
#X connect 18 0 50 0;
#X connect 19 0 38 14;
#X connect 19 0 50 0;
#X connect 20 0 38 15;
#X connect 20 0 50 0;
#X connect 21 0 42 0;
#X connect 22 0 42 1;
#X connect 23 0 42 2;
#X connect 24 0 42 3;
#X connect 25 0 42 4;
#X connect 26 0 42 5;
#X connect 27 0 42 6;
#X connect 28 0 42 7;
#X connect 29 0 42 8;
#X connect 30 0 42 9;
#X connect 31 0 42 10;
#X connect 32 0 42 11;
#X connect 33 0 42 12;
#X connect 34 0 42 13;
#X connect 35 0 42 14;
#X connect 36 0 42 15;
#X connect 39 0 21 0;
#X connect 39 1 22 0;
#X connect 39 2 23 0;
#X connect 39 3 24 0;
#X connect 39 4 25 0;
#X connect 39 5 26 0;
#X connect 39 6 27 0;
#X connect 39 7 28 0;
#X connect 39 8 29 0;
#X connect 39 9 30 0;
#X connect 39 10 31 0;
#X connect 39 11 32 0;
#X connect 39 12 33 0;
#X connect 39 13 34 0;
#X connect 39 14 35 0;
#X connect 39 15 36 0;
#X connect 40 0 39 0;
#X connect 41 0 37 0;
#X connect 43 0 57 0;
#X connect 43 0 60 0;
#X connect 44 0 92 1;
#X connect 45 0 41 0;
#X connect 46 0 47 0;
#X connect 46 0 51 0;
#X connect 46 0 63 0;
#X connect 47 0 49 0;
#X connect 47 1 53 0;
#X connect 47 2 54 0;
#X connect 47 3 55 0;
#X connect 48 0 42 0;
#X connect 48 1 42 1;
#X connect 48 2 42 2;
#X connect 48 3 42 3;
#X connect 49 0 48 0;
#X connect 50 0 67 0;
#X connect 51 0 42 4;
#X connect 51 0 42 5;
#X connect 51 0 42 6;
#X connect 51 0 42 7;
#X connect 51 0 42 8;
#X connect 51 0 42 9;
#X connect 51 0 42 10;
#X connect 51 0 42 11;
#X connect 51 0 42 12;
#X connect 51 0 42 13;
#X connect 51 0 42 14;
#X connect 51 0 42 15;
#X connect 52 0 5 0;
#X connect 52 1 6 0;
#X connect 52 2 7 0;
#X connect 52 3 8 0;
#X connect 52 4 9 0;
#X connect 52 5 10 0;
#X connect 52 6 11 0;
#X connect 52 7 12 0;
#X connect 52 8 13 0;
#X connect 52 9 14 0;
#X connect 52 10 15 0;
#X connect 52 11 16 0;
#X connect 52 12 17 0;
#X connect 52 13 18 0;
#X connect 52 14 19 0;
#X connect 52 15 20 0;
#X connect 53 0 48 0;
#X connect 54 0 48 0;
#X connect 55 0 48 0;
#X connect 57 0 4 0;
#X connect 58 0 57 1;
#X connect 58 0 60 0;
#X connect 58 0 70 0;
#X connect 58 0 71 0;
#X connect 59 0 50 0;
#X connect 59 0 74 0;
#X connect 61 0 40 0;
#X connect 62 0 2 0;
#X connect 63 0 39 1;
#X connect 63 0 38 16;
#X connect 67 0 40 0;
#X connect 68 0 43 0;
#X connect 69 0 58 0;
#X connect 70 0 60 0;
#X connect 70 0 57 1;
#X connect 71 0 70 0;
#X connect 73 0 75 1;
#X connect 73 1 75 0;
#X connect 74 0 46 0;
#X connect 75 0 52 0;
#X connect 76 0 77 0;
#X connect 76 1 78 0;
#X connect 77 0 79 0;
#X connect 78 0 79 0;
#X connect 79 0 68 0;
#X connect 79 1 80 0;
#X connect 80 0 100 0;
#X connect 82 0 97 2;
#X connect 83 0 97 3;
#X connect 84 0 97 4;
#X connect 85 0 87 3;
#X connect 86 0 85 0;
#X connect 88 0 89 0;
#X connect 89 0 90 0;
#X connect 89 1 91 0;
#X connect 90 0 92 0;
#X connect 91 0 92 0;
#X connect 92 0 69 0;
#X connect 93 0 94 3;
#X connect 94 0 119 0;
#X connect 95 0 94 0;
#X connect 96 0 97 1;
#X connect 97 0 87 0;
#X connect 98 0 97 0;
#X connect 99 0 95 0;
#X connect 100 0 101 0;
#X connect 101 0 102 0;
#X connect 103 0 104 0;
#X connect 104 0 0 0;
#X connect 105 0 103 1;
#X connect 105 1 103 0;
#X connect 106 0 120 0;
#X connect 106 2 108 1;
#X connect 106 2 109 1;
#X connect 106 2 110 1;
#X connect 106 2 111 1;
#X connect 107 0 106 0;
#X connect 112 0 93 0;
#X connect 115 0 79 1;
#X connect 116 0 76 0;
#X connect 119 0 98 0;
#X connect 119 1 96 0;
#X connect 119 2 82 0;
#X connect 119 3 83 0;
#X connect 119 4 84 0;
#X connect 120 0 108 0;
#X connect 120 0 109 0;
#X connect 120 0 110 0;
#X connect 120 0 111 0;
