#N canvas 0 0 1131 1050 12;
#X obj 252 394 sel 0;
#X floatatom 284 343 5 0 0 0 - - - 0;
#X obj 252 369 mod, f 5;
#X text 321 345 loop length;
#X obj 252 259 counter 16;
#X floatatom 252 283 5 0 0 0 - - - 0;
#X obj 252 219 inlet;
#X obj 302 219 inlet;
#X obj 352 219 inlet;
#X msg 252 425 1;
#X obj 252 460 outlet;
#X msg 292 425 0;
#X connect 0 0 9 0;
#X connect 0 1 11 0;
#X connect 1 0 2 1;
#X connect 2 0 0 0;
#X connect 4 0 5 0;
#X connect 5 0 2 0;
#X connect 6 0 4 0;
#X connect 7 0 4 2;
#X connect 8 0 1 0;
#X connect 9 0 10 0;
#X connect 11 0 10 0;
