#N canvas 10 55 943 1013 10;
#X msg 1334 451 color \$1 \$1 \$1;
#X obj 1334 382 tgl 15 0 empty empty empty 17 7 0 10 -262144 -1 -1
0 1;
#X floatatom 1334 402 5 0 0 0 - - -;
#X msg 1430 451 color \$1 \$1 \$1;
#X obj 1430 381 tgl 15 0 empty empty empty 17 7 0 10 -262144 -1 -1
0 1;
#X floatatom 1430 402 5 0 0 0 - - -;
#X obj 1430 427 + 1;
#X msg 1525 451 color \$1 \$1 \$1;
#X obj 1525 382 tgl 15 0 empty empty empty 17 7 0 10 -262144 -1 -1
0 1;
#X floatatom 1525 402 5 0 0 0 - - -;
#X obj 1525 427 + 1;
#X msg 1621 451 color \$1 \$1 \$1;
#X obj 1621 382 tgl 15 0 empty empty empty 17 7 0 10 -262144 -1 -1
0 1;
#X floatatom 1621 402 5 0 0 0 - - -;
#X obj 1621 427 + 1;
#X msg 1334 618 color \$1 \$1 \$1;
#X obj 1334 549 tgl 15 0 empty empty empty 17 7 0 10 -262144 -1 -1
0 1;
#X floatatom 1334 569 5 0 0 0 - - -;
#X obj 1334 594 + 1;
#X msg 1430 618 color \$1 \$1 \$1;
#X obj 1430 548 tgl 15 0 empty empty empty 17 7 0 10 -262144 -1 -1
0 1;
#X floatatom 1430 569 5 0 0 0 - - -;
#X obj 1430 594 + 1;
#X msg 1525 618 color \$1 \$1 \$1;
#X obj 1525 549 tgl 15 0 empty empty empty 17 7 0 10 -262144 -1 -1
0 1;
#X floatatom 1525 569 5 0 0 0 - - -;
#X obj 1525 594 + 1;
#X msg 1621 618 color \$1 \$1 \$1;
#X obj 1621 549 tgl 15 0 empty empty empty 17 7 0 10 -262144 -1 -1
0 1;
#X floatatom 1621 569 5 0 0 0 - - -;
#X obj 1621 594 + 1;
#X msg 1716 451 color \$1 \$1 \$1;
#X obj 1716 382 tgl 15 0 empty empty empty 17 7 0 10 -262144 -1 -1
0 1;
#X floatatom 1716 402 5 0 0 0 - - -;
#X obj 1716 427 + 1;
#X msg 1812 451 color \$1 \$1 \$1;
#X obj 1812 381 tgl 15 0 empty empty empty 17 7 0 10 -262144 -1 -1
0 1;
#X floatatom 1812 402 5 0 0 0 - - -;
#X obj 1812 427 + 1;
#X msg 1907 451 color \$1 \$1 \$1;
#X obj 1907 382 tgl 15 0 empty empty empty 17 7 0 10 -262144 -1 -1
0 1;
#X floatatom 1907 402 5 0 0 0 - - -;
#X obj 1907 427 + 1;
#X msg 2002 451 color \$1 \$1 \$1;
#X obj 2002 382 tgl 15 0 empty empty empty 17 7 0 10 -262144 -1 -1
0 1;
#X floatatom 2002 402 5 0 0 0 - - -;
#X obj 2002 427 + 1;
#X msg 1716 618 color \$1 \$1 \$1;
#X obj 1716 549 tgl 15 0 empty empty empty 17 7 0 10 -262144 -1 -1
0 1;
#X floatatom 1716 569 5 0 0 0 - - -;
#X obj 1716 594 + 1;
#X msg 1812 618 color \$1 \$1 \$1;
#X obj 1812 548 tgl 15 0 empty empty empty 17 7 0 10 -262144 -1 -1
0 1;
#X floatatom 1812 569 5 0 0 0 - - -;
#X obj 1812 594 + 1;
#X msg 1907 618 color \$1 \$1 \$1;
#X obj 1907 549 tgl 15 0 empty empty empty 17 7 0 10 -262144 -1 -1
0 1;
#X floatatom 1907 569 5 0 0 0 - - -;
#X obj 1907 594 + 1;
#X msg 2003 618 color \$1 \$1 \$1;
#X obj 2003 549 tgl 15 0 empty empty empty 17 7 0 10 -262144 -1 -1
0 1;
#X floatatom 2003 569 5 0 0 0 - - -;
#X obj 2003 594 + 1;
#X obj 1268 170 + 1;
#X obj 1164 81 bng 15 250 50 0 empty empty empty 17 7 0 10 -262144
-1 -1;
#X obj 1164 294 demux 1 2 3 4 5 6 7 8 9 10 11 12 13 14 15 16;
#X obj 1180 218 hradio 15 1 0 16 empty empty empty 0 -8 0 10 -262144
-1 -1 14;
#X msg 1164 262 90;
#X obj 1334 427 + 1;
#X obj 1164 42 inlet;
#X obj 1430 358 r \$0-step2;
#X obj 1525 358 r \$0-step3;
#X obj 1621 358 r \$0-step4;
#X obj 1716 358 r \$0-step5;
#X obj 1812 358 r \$0-step6;
#X obj 1430 477 s \$0-step2-1;
#X obj 1525 477 s \$0-step3-1;
#X obj 1621 477 s \$0-step4-1;
#X obj 1716 477 s \$0-step5-1;
#X obj 1812 477 s \$0-step6-1;
#X obj 1907 477 s \$0-step7-1;
#X obj 1907 358 r \$0-step7;
#X obj 2002 358 r \$0-step8;
#X obj 2002 477 s \$0-step8-1;
#X obj 2003 526 r \$0-step16;
#X obj 2003 644 s \$0-step16-1;
#X obj 1907 644 s \$0-step15-1;
#X obj 1907 526 r \$0-step15;
#X obj 1812 525 r \$0-step14;
#X obj 1812 644 s \$0-step14-1;
#X obj 1716 644 s \$0-step13-1;
#X obj 1716 525 r \$0-step13;
#X obj 1621 525 r \$0-step12;
#X obj 1621 644 s \$0-step12-1;
#X obj 1525 644 s \$0-step11-1;
#X obj 1525 525 r \$0-step11;
#X obj 1430 525 r \$0-step10;
#X obj 1430 644 s \$0-step10-1;
#X obj 1334 644 s \$0-step9-1;
#X obj 1334 525 r \$0-step9;
#X text 1174 10 GUI;
#X obj 763 247 outlet;
#X obj 763 204 tabread \$0-trg;
#X obj 763 225 sel 1;
#X obj 1268 187 % 16;
#X obj 1334 358 r \$0-step1;
#X obj 1334 477 s \$0-step1-1;
#X obj 1268 150 f;
#X obj 325 340 cnv 15 362 30 empty empty empty 20 12 0 14 -128992 -66577
0;
#X obj 327 343 tgl 23 0 \$0-step1 \$0-step1-1 1 10 10 0 10 -166441
-166441 -166441 0 1;
#X obj 352 344 tgl 20 0 \$0-step2 \$0-step2-1 2 10 10 0 10 -166441
-166441 -166441 0 1;
#X obj 373 344 tgl 20 0 \$0-step3 \$0-step3-1 3 10 10 0 10 -166441
-166441 -166441 0 1;
#X obj 394 344 tgl 20 0 \$0-step4 \$0-step4-1 4 10 10 0 10 -166441
-166441 -166441 0 1;
#X obj 417 343 tgl 23 0 \$0-step5 \$0-step5-1 5 10 10 0 10 -166441
-166441 -166441 0 1;
#X obj 443 344 tgl 20 0 \$0-step6 \$0-step6-1 6 10 10 0 10 -166441
-166441 -166441 0 1;
#X obj 464 344 tgl 20 0 \$0-step7 \$0-step7-1 7 10 10 0 10 -166441
-166441 -166441 0 1;
#X obj 485 344 tgl 20 0 \$0-step8 \$0-step8-1 8 10 10 0 10 -166441
-166441 -166441 0 1;
#X obj 508 343 tgl 23 0 \$0-step9 \$0-step9-1 9 10 10 0 10 -166441
-166441 -166441 0 1;
#X obj 533 344 tgl 20 0 \$0-step10 \$0-step10-1 10 7 10 0 10 -166441
-166441 -166441 0 1;
#X obj 554 344 tgl 20 0 \$0-step11 \$0-step11-1 11 7 10 0 10 -166441
-166441 -166441 0 1;
#X obj 575 344 tgl 20 0 \$0-step12 \$0-step12-1 12 7 10 0 10 -166441
-166441 -166441 0 1;
#X obj 597 343 tgl 23 0 \$0-step13 \$0-step13-1 13 7 10 0 10 -166441
-166441 -166441 0 1;
#X obj 622 344 tgl 20 0 \$0-step14 \$0-step14-1 14 7 10 0 10 -166441
-166441 -166441 0 1;
#X obj 643 344 tgl 20 0 \$0-step15 \$0-step15-1 15 7 10 0 10 -262144
-262144 -262144 0 1;
#X obj 664 344 tgl 20 0 \$0-step16 \$0-step16-1 16 7 10 0 10 -166441
-166441 -166441 0 1;
#X obj -32 403 t f b;
#X obj 444 541 tabwrite \$0-trg;
#X obj 37 403 t f b;
#X obj 106 403 t f b;
#X obj 175 403 t f b;
#X obj 244 403 t f b;
#X obj 313 403 t f b;
#X obj 382 403 t f b;
#X obj 451 403 t f b;
#X obj 520 403 t f b;
#X obj 589 403 t f b;
#X obj 658 403 t f b;
#X obj 727 403 t f b;
#X obj 796 403 t f b;
#X obj 865 403 t f b;
#X obj 934 403 t f b;
#X obj 1003 403 t f b;
#X msg -5 422 0;
#X msg 64 422 1;
#X obj 444 562 table \$0-trg 16;
#X msg 133 422 2;
#X msg 202 422 3;
#X msg 271 422 4;
#X msg 340 422 5;
#X msg 409 422 6;
#X msg 478 422 7;
#X msg 547 422 8;
#X msg 616 422 9;
#X msg 685 422 10;
#X msg 754 422 11;
#X msg 823 422 12;
#X msg 892 422 13;
#X msg 961 422 14;
#X msg 1030 422 15;
#X obj 1749 155 del;
#X floatatom 1756 125 5 0 0 0 - - -;
#X obj 1164 240 del 0.01;
#X obj 1243 42 inlet;
#X msg 1243 61 -1;
#X connect 0 0 106 0;
#X connect 1 0 2 0;
#X connect 2 0 68 0;
#X connect 3 0 75 0;
#X connect 4 0 5 0;
#X connect 5 0 6 0;
#X connect 6 0 3 0;
#X connect 7 0 76 0;
#X connect 8 0 9 0;
#X connect 9 0 10 0;
#X connect 10 0 7 0;
#X connect 11 0 77 0;
#X connect 12 0 13 0;
#X connect 13 0 14 0;
#X connect 14 0 11 0;
#X connect 15 0 98 0;
#X connect 16 0 17 0;
#X connect 17 0 18 0;
#X connect 18 0 15 0;
#X connect 19 0 97 0;
#X connect 20 0 21 0;
#X connect 21 0 22 0;
#X connect 22 0 19 0;
#X connect 23 0 94 0;
#X connect 24 0 25 0;
#X connect 25 0 26 0;
#X connect 26 0 23 0;
#X connect 27 0 93 0;
#X connect 28 0 29 0;
#X connect 29 0 30 0;
#X connect 30 0 27 0;
#X connect 31 0 78 0;
#X connect 32 0 33 0;
#X connect 33 0 34 0;
#X connect 34 0 31 0;
#X connect 35 0 79 0;
#X connect 36 0 37 0;
#X connect 37 0 38 0;
#X connect 38 0 35 0;
#X connect 39 0 80 0;
#X connect 40 0 41 0;
#X connect 41 0 42 0;
#X connect 42 0 39 0;
#X connect 43 0 83 0;
#X connect 44 0 45 0;
#X connect 45 0 46 0;
#X connect 46 0 43 0;
#X connect 47 0 90 0;
#X connect 48 0 49 0;
#X connect 49 0 50 0;
#X connect 50 0 47 0;
#X connect 51 0 89 0;
#X connect 52 0 53 0;
#X connect 53 0 54 0;
#X connect 54 0 51 0;
#X connect 55 0 86 0;
#X connect 56 0 57 0;
#X connect 57 0 58 0;
#X connect 58 0 55 0;
#X connect 59 0 85 0;
#X connect 60 0 61 0;
#X connect 61 0 62 0;
#X connect 62 0 59 0;
#X connect 63 0 104 0;
#X connect 64 0 107 0;
#X connect 64 0 159 0;
#X connect 64 0 161 0;
#X connect 65 0 0 0;
#X connect 65 1 3 0;
#X connect 65 2 7 0;
#X connect 65 3 11 0;
#X connect 65 4 31 0;
#X connect 65 5 35 0;
#X connect 65 6 39 0;
#X connect 65 7 43 0;
#X connect 65 8 15 0;
#X connect 65 9 19 0;
#X connect 65 10 23 0;
#X connect 65 11 27 0;
#X connect 65 12 47 0;
#X connect 65 13 51 0;
#X connect 65 14 55 0;
#X connect 65 15 59 0;
#X connect 66 0 65 1;
#X connect 67 0 65 0;
#X connect 68 0 0 0;
#X connect 69 0 64 0;
#X connect 70 0 4 0;
#X connect 71 0 8 0;
#X connect 72 0 12 0;
#X connect 73 0 32 0;
#X connect 74 0 36 0;
#X connect 81 0 40 0;
#X connect 82 0 44 0;
#X connect 84 0 60 0;
#X connect 87 0 56 0;
#X connect 88 0 52 0;
#X connect 91 0 48 0;
#X connect 92 0 28 0;
#X connect 95 0 24 0;
#X connect 96 0 20 0;
#X connect 99 0 16 0;
#X connect 102 0 103 0;
#X connect 103 0 101 0;
#X connect 104 0 102 0;
#X connect 104 0 107 1;
#X connect 105 0 1 0;
#X connect 107 0 63 0;
#X connect 107 0 66 0;
#X connect 109 0 125 0;
#X connect 110 0 127 0;
#X connect 111 0 128 0;
#X connect 112 0 129 0;
#X connect 113 0 130 0;
#X connect 114 0 131 0;
#X connect 115 0 132 0;
#X connect 116 0 133 0;
#X connect 117 0 134 0;
#X connect 118 0 135 0;
#X connect 119 0 136 0;
#X connect 120 0 137 0;
#X connect 121 0 138 0;
#X connect 122 0 139 0;
#X connect 123 0 140 0;
#X connect 124 0 141 0;
#X connect 125 0 126 0;
#X connect 125 1 142 0;
#X connect 127 0 126 0;
#X connect 127 1 143 0;
#X connect 128 0 126 0;
#X connect 128 1 145 0;
#X connect 129 0 126 0;
#X connect 129 1 146 0;
#X connect 130 0 126 0;
#X connect 130 1 147 0;
#X connect 131 0 126 0;
#X connect 131 1 148 0;
#X connect 132 0 126 0;
#X connect 132 1 149 0;
#X connect 133 0 126 0;
#X connect 133 1 150 0;
#X connect 134 0 126 0;
#X connect 134 1 151 0;
#X connect 135 0 126 0;
#X connect 135 1 152 0;
#X connect 136 0 126 0;
#X connect 136 1 153 0;
#X connect 137 0 126 0;
#X connect 137 1 154 0;
#X connect 138 0 126 0;
#X connect 138 1 155 0;
#X connect 139 0 126 0;
#X connect 139 1 156 0;
#X connect 140 0 126 0;
#X connect 140 1 157 0;
#X connect 141 0 126 0;
#X connect 141 1 158 0;
#X connect 142 0 126 1;
#X connect 143 0 126 1;
#X connect 145 0 126 1;
#X connect 146 0 126 1;
#X connect 147 0 126 1;
#X connect 148 0 126 1;
#X connect 149 0 126 1;
#X connect 150 0 126 1;
#X connect 151 0 126 1;
#X connect 152 0 126 1;
#X connect 153 0 126 1;
#X connect 154 0 126 1;
#X connect 155 0 126 1;
#X connect 156 0 126 1;
#X connect 157 0 126 1;
#X connect 158 0 126 1;
#X connect 159 0 2 0;
#X connect 159 0 5 0;
#X connect 159 0 9 0;
#X connect 159 0 13 0;
#X connect 159 0 33 0;
#X connect 159 0 37 0;
#X connect 159 0 41 0;
#X connect 159 0 45 0;
#X connect 159 0 17 0;
#X connect 159 0 21 0;
#X connect 159 0 25 0;
#X connect 159 0 29 0;
#X connect 159 0 49 0;
#X connect 159 0 53 0;
#X connect 159 0 57 0;
#X connect 159 0 61 0;
#X connect 160 0 159 1;
#X connect 161 0 67 0;
#X connect 162 0 163 0;
#X connect 163 0 107 1;
#X coords 0 -1 1 1 362 30 1 325 340;
