#N canvas 0 0 1413 1050 12;
#X obj 148 190 counter 7, f 67;
#X obj 148 595 sel 0;
#X obj 277 595 sel 1;
#X obj 406 595 sel 2;
#X obj 535 595 sel 3;
#X obj 664 595 sel 4;
#X obj 793 595 sel 5;
#X obj 922 595 sel 6;
#X obj 1051 595 sel 7;
#X obj 148 670 spigot, f 8;
#X obj 277 670 spigot, f 8;
#X obj 148 742 outlet;
#X obj 406 670 spigot, f 8;
#X obj 535 670 spigot, f 8;
#X obj 664 670 spigot, f 8;
#X obj 793 670 spigot, f 8;
#X obj 922 670 spigot, f 8;
#X obj 1051 670 spigot, f 8;
#X obj 670 328 random 100;
#X obj 670 378 unpack f f f f f f f f, f 79;
#X obj 201 642 tgl 15 0 empty empty empty 17 7 0 10 #fcfcfc #000000
#000000 0 1;
#X obj 330 642 tgl 15 0 empty empty empty 17 7 0 10 #fcfcfc #000000
#000000 0 1;
#X obj 459 642 tgl 15 0 empty empty empty 17 7 0 10 #fcfcfc #000000
#000000 0 1;
#X obj 588 642 tgl 15 0 empty empty empty 17 7 0 10 #fcfcfc #000000
#000000 0 1;
#X obj 717 642 tgl 15 0 empty empty empty 17 7 0 10 #fcfcfc #000000
#000000 0 1;
#X obj 846 642 tgl 15 0 empty empty empty 17 7 0 10 #fcfcfc #000000
#000000 0 1;
#X obj 975 642 tgl 15 0 empty empty empty 17 7 0 10 #fcfcfc #000000
#000000 0 1;
#X obj 1104 642 tgl 15 0 empty empty empty 17 7 0 10 #fcfcfc #000000
#000000 0 1;
#X obj 670 303 uzi 8;
#X obj 670 353 zl group 8;
#X obj 670 257 inlet;
#X obj 236 77 expr 60000/$f1;
#X obj 236 49 inlet;
#X obj 670 282 bng 15 250 50 0 empty empty empty 17 7 0 10 #fcfcfc
#000000 #000000;
#X obj 670 403 s \$0-one;
#X obj 201 595 r \$0-one;
#X obj 748 403 s \$0-two;
#X obj 331 596 r \$0-two;
#X obj 459 595 r \$0-thr;
#X obj 588 595 r \$0-fou;
#X obj 717 595 r \$0-fiv;
#X obj 846 595 r \$0-six;
#X obj 975 595 r \$0-sev;
#X obj 1104 595 r \$0-eig;
#X obj 827 403 s \$0-thr;
#X obj 905 403 s \$0-fou;
#X obj 984 403 s \$0-fiv;
#X obj 1062 403 s \$0-six;
#X obj 1141 403 s \$0-sev;
#X obj 1220 403 s \$0-eig;
#X obj 148 159 metro, f 13;
#X msg 148 124 1;
#X msg 180 125 0;
#X obj 148 75 sel 1;
#X obj 148 49 inlet;
#X obj 614 241 sel 1;
#X obj 614 217 % 2;
#X obj 201 619 < 100;
#X obj 459 619 < 30;
#X obj 330 619 < 20;
#X obj 588 619 < 80, f 6;
#X obj 846 619 < 59;
#X obj 975 619 < 44;
#X obj 1104 619 < 77;
#X obj 348 28 inlet;
#X floatatom 348 53 5 0 0 0 - - - 0;
#X obj 348 77 t b f;
#X obj 653 77 inlet;
#X obj 614 269 spigot;
#X obj 585 216 % 2;
#X obj 555 216 % 2;
#X obj 555 241 - 1;
#X obj 555 266 abs;
#X obj 505 219 % 3;
#X obj 505 244 sel 1;
#X obj 148 640 bng 15 250 50 0 empty empty empty 17 7 0 10 #fcfcfc
#000000 #000000;
#X obj 277 642 bng 15 250 50 0 empty empty empty 17 7 0 10 #fcfcfc
#000000 #000000;
#X obj 406 642 bng 15 250 50 0 empty empty empty 17 7 0 10 #fcfcfc
#000000 #000000;
#X obj 535 642 bng 15 250 50 0 empty empty empty 17 7 0 10 #fcfcfc
#000000 #000000;
#X obj 664 642 bng 15 250 50 0 empty empty empty 17 7 0 10 #fcfcfc
#000000 #000000;
#X obj 793 642 bng 15 250 50 0 empty empty empty 17 7 0 10 #fcfcfc
#000000 #000000;
#X obj 922 642 bng 15 250 50 0 empty empty empty 17 7 0 10 #fcfcfc
#000000 #000000;
#X obj 1051 642 bng 15 250 50 0 empty empty empty 17 7 0 10 #fcfcfc
#000000 #000000;
#X text 477 270 operators;
#X obj 236 122 * 0.25;
#X obj 717 619 < 100;
#X obj 390 52 loadmess 0.25;
#X obj 670 207 loadbang;
#X msg 670 232 1;
#X obj 1302 599 unpack f f f f f f f f s;
#X obj 1302 79 inlet;
#X floatatom 1302 108 5 0 0 0 - - - 0;
#X obj 1312 540 print;
#X text 24 48 0 play \; 1 bpm \; 2 step clock \; 3 pattern shift \;
4 probabilities;
#X obj 1302 515 text get probability;
#X connect 0 0 1 0;
#X connect 0 0 2 0;
#X connect 0 0 8 0;
#X connect 0 0 7 0;
#X connect 0 0 6 0;
#X connect 0 0 5 0;
#X connect 0 0 4 0;
#X connect 0 0 3 0;
#X connect 0 3 56 0;
#X connect 0 3 69 0;
#X connect 1 0 75 0;
#X connect 2 0 76 0;
#X connect 3 0 77 0;
#X connect 4 0 78 0;
#X connect 5 0 79 0;
#X connect 6 0 80 0;
#X connect 7 0 81 0;
#X connect 8 0 82 0;
#X connect 9 0 11 0;
#X connect 10 0 11 0;
#X connect 12 0 11 0;
#X connect 13 0 11 0;
#X connect 14 0 11 0;
#X connect 15 0 11 0;
#X connect 16 0 11 0;
#X connect 17 0 11 0;
#X connect 18 0 29 0;
#X connect 19 0 34 0;
#X connect 19 1 36 0;
#X connect 19 2 44 0;
#X connect 19 3 45 0;
#X connect 19 4 46 0;
#X connect 19 5 47 0;
#X connect 19 6 48 0;
#X connect 19 7 49 0;
#X connect 20 0 9 1;
#X connect 21 0 10 1;
#X connect 22 0 12 1;
#X connect 23 0 13 1;
#X connect 24 0 14 1;
#X connect 25 0 15 1;
#X connect 26 0 16 1;
#X connect 27 0 17 1;
#X connect 28 0 18 0;
#X connect 29 0 19 0;
#X connect 30 0 33 0;
#X connect 31 0 84 0;
#X connect 32 0 31 0;
#X connect 33 0 28 0;
#X connect 35 0 57 0;
#X connect 37 0 59 0;
#X connect 38 0 58 0;
#X connect 39 0 60 0;
#X connect 40 0 85 0;
#X connect 41 0 61 0;
#X connect 42 0 62 0;
#X connect 43 0 63 0;
#X connect 50 0 0 0;
#X connect 51 0 50 0;
#X connect 52 0 50 0;
#X connect 52 0 0 2;
#X connect 53 0 51 0;
#X connect 53 1 52 0;
#X connect 54 0 53 0;
#X connect 55 0 68 0;
#X connect 56 0 55 0;
#X connect 57 0 20 0;
#X connect 58 0 22 0;
#X connect 59 0 21 0;
#X connect 60 0 23 0;
#X connect 61 0 25 0;
#X connect 62 0 26 0;
#X connect 63 0 27 0;
#X connect 64 0 65 0;
#X connect 65 0 66 0;
#X connect 66 0 84 0;
#X connect 66 1 84 1;
#X connect 67 0 68 1;
#X connect 68 0 33 0;
#X connect 70 0 71 0;
#X connect 71 0 72 0;
#X connect 73 0 74 0;
#X connect 75 0 9 0;
#X connect 76 0 10 0;
#X connect 77 0 12 0;
#X connect 78 0 13 0;
#X connect 79 0 14 0;
#X connect 80 0 15 0;
#X connect 81 0 16 0;
#X connect 82 0 17 0;
#X connect 84 0 50 1;
#X connect 85 0 24 0;
#X connect 86 0 65 0;
#X connect 87 0 88 0;
#X connect 88 0 68 1;
#X connect 89 0 57 1;
#X connect 89 1 59 1;
#X connect 89 2 58 1;
#X connect 89 3 60 1;
#X connect 89 4 85 1;
#X connect 89 5 61 1;
#X connect 89 6 62 1;
#X connect 89 7 63 1;
#X connect 90 0 91 0;
#X connect 91 0 94 0;
#X connect 94 0 89 0;
#X connect 94 0 92 0;
