#N canvas 0 0 1920 1052 12;
#X obj 15 79 tgl 30 0 empty empty empty 17 7 0 10 #00faff #000000 #000000
0 1;
#X obj 15 17 r pattern-start;
#X floatatom 68 103 5 0 0 0 - - - 0;
#X obj 15 44 bng 30 250 50 0 empty empty empty 17 7 0 10 #fcfcfc #00faff
#000000;
#N canvas 0 0 1920 1052 clock 0;
#X obj 32 161 i;
#X obj 63 161 + 1;
#X obj 32 33 tgl 15 0 empty empty empty 17 7 0 10 #fcfcfc #000000 #000000
0 1;
#X msg 131 132 0;
#X obj 92 266 + 1;
#X obj 131 107 sel 0;
#X obj 92 362 s pattern-start;
#X text 174 108 reset;
#X floatatom 562 33 5 0 0 0 - - - 0;
#X obj 32 107 metro, f 12;
#X obj 92 242 i;
#X obj 92 290 %;
#X obj 32 198 %;
#X floatatom 92 314 5 0 0 0 - - - 0;
#X obj 92 218 sel;
#X obj 123 218 - 1;
#X obj 32 223 s pos;
#X obj 227 178 r steps;
#X obj 474 133 tgl 15 0 empty empty empty 17 7 0 10 #fcfcfc #000000
#000000 0 1;
#X obj 474 214 midiout;
#X obj 365 160 select 0 1;
#X msg 365 194 252;
#X msg 402 194 250;
#X msg 474 187 248;
#X obj 474 157 metro 20.8333;
#X obj 562 57 expr (60000/$f1);
#X obj 562 125 / 24;
#X obj 522 89 / 4;
#X obj 32 11 inlet;
#X obj 562 9 inlet;
#X obj 572 158 s clock;
#X obj 233 48 s go;
#X obj 92 338 + 1;
#X connect 0 0 1 0;
#X connect 0 0 12 0;
#X connect 1 0 0 1;
#X connect 2 0 5 0;
#X connect 2 0 9 0;
#X connect 2 0 18 0;
#X connect 2 0 31 0;
#X connect 3 0 0 1;
#X connect 3 0 10 1;
#X connect 3 0 11 0;
#X connect 4 0 10 1;
#X connect 4 0 11 0;
#X connect 5 0 3 0;
#X connect 8 0 25 0;
#X connect 9 0 0 0;
#X connect 10 0 4 0;
#X connect 11 0 13 0;
#X connect 12 0 14 0;
#X connect 12 0 16 0;
#X connect 13 0 32 0;
#X connect 14 0 10 0;
#X connect 15 0 14 1;
#X connect 17 0 11 1;
#X connect 17 0 15 0;
#X connect 17 0 12 1;
#X connect 18 0 20 0;
#X connect 18 0 24 0;
#X connect 20 0 21 0;
#X connect 20 1 22 0;
#X connect 21 0 19 0;
#X connect 22 0 19 0;
#X connect 23 0 19 0;
#X connect 24 0 23 0;
#X connect 25 0 27 0;
#X connect 25 0 26 0;
#X connect 26 0 24 1;
#X connect 26 0 30 0;
#X connect 27 0 9 1;
#X connect 28 0 2 0;
#X connect 29 0 8 0;
#X connect 32 0 6 0;
#X restore 15 131 pd clock;
#X obj 68 79 loadmess 128;
#X text 531 682 modulation \;;
#X text 510 709 steps \; pulses \; probability \; ratchet \; delay
\; ratchet speed \; pitch \; velocity \; length \;;
#X obj 27 214 r pos;
#X floatatom 87 529 5 0 16 0 - - - 0;
#X floatatom 57 506 5 0 0 0 - - - 0;
#X text 2 505 offset;
#X text 13 528 pulses no;
#X obj 1767 278 r clock;
#X obj 1717 337 metro;
#X obj 1717 390 spigot;
#X obj 1756 364 &&;
#X obj 1749 306 *;
#X obj 1717 162 loadmess 1;
#X obj 1749 245 list store 0.25 0.5 1 2 4 6 8;
#X floatatom 1749 196 5 0 0 0 - - - 0;
#X msg 1749 220 get \$1;
#X text 1797 196 RATCHET;
#X text 300 855 random step numbers to change probability on;
#X obj 838 390 pak f f f f f f f f f f f f f f f f, f 52;
#X obj 838 245 vsl 15 128 0 127 0 0 empty empty empty 0 -9 0 10 #fcfcfc
#000000 #000000 0 1;
#X obj 858 245 vsl 15 128 0 127 0 0 empty empty empty 0 -9 0 10 #fcfcfc
#000000 #000000 0 1;
#X obj 878 245 vsl 15 128 0 127 0 0 empty empty empty 0 -9 0 10 #fcfcfc
#000000 #000000 0 1;
#X obj 898 245 vsl 15 128 0 127 0 0 empty empty empty 0 -9 0 10 #fcfcfc
#000000 #000000 0 1;
#X obj 918 245 vsl 15 128 0 127 0 0 empty empty empty 0 -9 0 10 #fcfcfc
#000000 #000000 0 1;
#X obj 938 245 vsl 15 128 0 127 0 0 empty empty empty 0 -9 0 10 #fcfcfc
#000000 #000000 0 1;
#X obj 958 245 vsl 15 128 0 127 0 0 empty empty empty 0 -9 0 10 #fcfcfc
#000000 #000000 0 1;
#X obj 978 245 vsl 15 128 0 127 0 0 empty empty empty 0 -9 0 10 #fcfcfc
#000000 #000000 0 1;
#X obj 998 245 vsl 15 128 0 127 0 0 empty empty empty 0 -9 0 10 #fcfcfc
#000000 #000000 0 1;
#X obj 1018 245 vsl 15 128 0 127 0 0 empty empty empty 0 -9 0 10 #fcfcfc
#000000 #000000 0 1;
#X obj 1038 245 vsl 15 128 0 127 0 0 empty empty empty 0 -9 0 10 #fcfcfc
#000000 #000000 0 1;
#X obj 1058 245 vsl 15 128 0 127 0 0 empty empty empty 0 -9 0 10 #fcfcfc
#000000 #000000 0 1;
#X obj 1078 245 vsl 15 128 0 127 0 0 empty empty empty 0 -9 0 10 #fcfcfc
#000000 #000000 0 1;
#X obj 1098 245 vsl 15 128 0 127 0 0 empty empty empty 0 -9 0 10 #fcfcfc
#000000 #000000 0 1;
#X obj 1118 245 vsl 15 128 0 127 0 0 empty empty empty 0 -9 0 10 #fcfcfc
#000000 #000000 0 1;
#X obj 1138 245 vsl 15 128 0 127 0 0 empty empty empty 0 -9 0 10 #fcfcfc
#000000 #000000 0 1;
#X floatatom 838 510 5 0 0 0 - - - 0;
#X obj 838 113 uzi 16;
#X obj 838 188 zl group 16;
#X obj 838 213 unpack f f f f f f f f f f f f f f f f, f 45;
#X obj 837 89 bng 15 250 50 0 empty empty empty 17 7 0 10 #fcfcfc #000000
#000000;
#X obj 877 435 mod 16;
#X floatatom 877 460 5 0 0 0 - - - 0;
#X obj 1297 390 pak f f f f f f f f f f f f f f f f, f 52;
#X obj 1297 494 zl mth;
#X obj 1297 107 uzi 16;
#X obj 1297 158 zl group 16;
#X obj 1297 183 unpack f f f f f f f f f f f f f f f f, f 44;
#X obj 1297 89 bng 15 250 50 0 empty empty empty 17 7 0 10 #fcfcfc
#000000 #000000;
#X obj 1219 521 <;
#X obj 1219 495 random 100;
#X obj 838 163 + 47;
#X obj 838 485 zl mth;
#X obj 838 138 drunk 80 30;
#X obj 128 41 s steps;
#X obj 27 576 bng 15 250 50 0 empty empty empty 17 7 0 10 #fcfcfc #000000
#000000;
#X msg 63 600 127;
#X text 85 793 blofeld m002 \; 1 mark 10 \; 2: mark 2 \; 3 eucl offset:5
\, pulses:15 \; 4: mark 3;
#X floatatom 1219 546 5 0 0 0 - - - 0;
#X obj 27 634 noteout 3;
#N canvas 0 0 958 1050 euclid 0;
#X obj 338 301 loadbang;
#X obj 279 545 sel 1;
#X obj 279 302 f;
#X obj 279 421 *;
#X floatatom 350 497 5 0 16 0 - - - 0;
#X obj 307 302 + 1;
#X obj 279 516 <;
#X floatatom 350 357 5 0 0 0 - - - 0;
#X obj 279 332 % 16;
#X obj 279 466 % 16;
#X obj 350 441 bng 15 250 50 0 empty empty empty 17 7 0 10 #fcfcfc
#000000 #000000;
#X obj 279 376 + 0;
#X obj 375 412 del 1;
#X text 394 357 offset;
#X text 395 497 pulses no;
#X msg 338 325 32;
#X obj 279 253 inlet;
#X obj 279 570 outlet;
#X obj 507 253 inlet;
#X obj 557 253 inlet;
#X connect 0 0 15 0;
#X connect 1 0 17 0;
#X connect 2 0 5 0;
#X connect 2 0 8 0;
#X connect 3 0 9 0;
#X connect 4 0 3 1;
#X connect 4 0 6 1;
#X connect 5 0 2 1;
#X connect 6 0 1 0;
#X connect 7 0 10 0;
#X connect 7 0 11 1;
#X connect 7 0 12 0;
#X connect 8 0 11 0;
#X connect 9 0 6 0;
#X connect 10 0 4 0;
#X connect 11 0 3 0;
#X connect 12 0 10 0;
#X connect 15 0 8 1;
#X connect 15 0 9 1;
#X connect 16 0 2 0;
#X connect 18 0 7 0;
#X connect 19 0 4 0;
#X restore 27 552 pd euclid;
#X obj 128 17 loadmess 16;
#X text 930 188 VELOCITY;
#X text 1389 158 PROBABILITY;
#X text 573 655 TODO:;
#X obj 1185 494 bang;
#X msg 27 600 50;
#X obj 1297 221 vradio 15 1 0 10 empty empty empty 0 -8 0 10 #fcfcfc
#000000 #000000 0;
#X obj 1317 221 vradio 15 1 0 10 empty empty empty 0 -8 0 10 #fcfcfc
#000000 #000000 0;
#X obj 1337 221 vradio 15 1 0 10 empty empty empty 0 -8 0 10 #fcfcfc
#000000 #000000 0;
#X obj 1357 221 vradio 15 1 0 10 empty empty empty 0 -8 0 10 #fcfcfc
#000000 #000000 0;
#X obj 1377 221 vradio 15 1 0 10 empty empty empty 0 -8 0 10 #fcfcfc
#000000 #000000 0;
#X obj 1397 221 vradio 15 1 0 10 empty empty empty 0 -8 0 10 #fcfcfc
#000000 #000000 0;
#X obj 1417 221 vradio 15 1 0 10 empty empty empty 0 -8 0 10 #fcfcfc
#000000 #000000 0;
#X obj 1437 221 vradio 15 1 0 10 empty empty empty 0 -8 0 10 #fcfcfc
#000000 #000000 0;
#X obj 1457 221 vradio 15 1 0 10 empty empty empty 0 -8 0 10 #fcfcfc
#000000 #000000 0;
#X obj 1477 221 vradio 15 1 0 10 empty empty empty 0 -8 0 10 #fcfcfc
#000000 #000000 0;
#X obj 1497 221 vradio 15 1 0 10 empty empty empty 0 -8 0 10 #fcfcfc
#000000 #000000 0;
#X obj 1517 221 vradio 15 1 0 10 empty empty empty 0 -8 0 10 #fcfcfc
#000000 #000000 0;
#X obj 1537 221 vradio 15 1 0 10 empty empty empty 0 -8 0 10 #fcfcfc
#000000 #000000 0;
#X obj 1557 221 vradio 15 1 0 10 empty empty empty 0 -8 0 10 #fcfcfc
#000000 #000000 0;
#X obj 1577 221 vradio 15 1 0 10 empty empty empty 0 -8 0 10 #fcfcfc
#000000 #000000 0;
#X obj 1597 221 vradio 15 1 0 10 empty empty empty 0 -8 0 10 #fcfcfc
#000000 #000000 0;
#X obj 1297 132 random 10;
#X obj 251 211 random 100;
#X obj 327 211 random 100;
#X obj 251 238 <;
#X floatatom 251 263 5 0 0 0 - - - 0;
#X obj 251 306 +;
#X obj 251 164 bng 15 250 50 0 empty empty empty 17 7 0 10 #fcfcfc
#000000 #000000;
#X obj 411 211 random 100;
#X obj 487 211 random 100;
#X obj 411 238 >;
#X obj 571 238 ==;
#X obj 251 330 +;
#X floatatom 251 354 5 0 0 0 - - - 0;
#X obj 411 262 t b f;
#X obj 571 262 t b f;
#X obj 571 211 random 5;
#X obj 647 211 random 5;
#X obj 325 382 random 17;
#X obj 325 406 zl group 4;
#X obj 325 333 bng 15 250 50 0 empty empty empty 17 7 0 10 #fcfcfc
#000000 #000000;
#X obj 325 358 uzi 4;
#X floatatom 251 458 5 0 0 0 - - - 0;
#X obj 251 434 zl lookup 4;
#X connect 0 0 4 0;
#X connect 1 0 3 0;
#X connect 2 0 4 1;
#X connect 5 0 2 0;
#X connect 8 0 65 0;
#X connect 9 0 65 2;
#X connect 10 0 65 1;
#X connect 13 0 17 1;
#X connect 14 0 15 0;
#X connect 16 0 15 1;
#X connect 17 0 14 1;
#X connect 18 0 14 0;
#X connect 19 0 17 0;
#X connect 20 0 21 0;
#X connect 21 0 19 0;
#X connect 24 0 57 0;
#X connect 25 0 24 0;
#X connect 26 0 24 1;
#X connect 27 0 24 2;
#X connect 28 0 24 3;
#X connect 29 0 24 4;
#X connect 30 0 24 5;
#X connect 31 0 24 6;
#X connect 32 0 24 7;
#X connect 33 0 24 8;
#X connect 34 0 24 9;
#X connect 35 0 24 10;
#X connect 36 0 24 11;
#X connect 37 0 24 12;
#X connect 38 0 24 13;
#X connect 39 0 24 14;
#X connect 40 0 24 15;
#X connect 42 0 58 0;
#X connect 43 0 44 0;
#X connect 44 0 25 0;
#X connect 44 1 26 0;
#X connect 44 2 27 0;
#X connect 44 3 28 0;
#X connect 44 4 29 0;
#X connect 44 5 30 0;
#X connect 44 6 31 0;
#X connect 44 7 32 0;
#X connect 44 8 33 0;
#X connect 44 9 34 0;
#X connect 44 10 35 0;
#X connect 44 11 36 0;
#X connect 44 12 37 0;
#X connect 44 13 38 0;
#X connect 44 14 39 0;
#X connect 44 15 40 0;
#X connect 45 0 42 0;
#X connect 46 0 47 0;
#X connect 47 0 49 1;
#X connect 47 0 57 1;
#X connect 48 0 49 0;
#X connect 49 0 54 1;
#X connect 50 0 88 0;
#X connect 51 0 52 0;
#X connect 52 0 72 0;
#X connect 52 1 73 0;
#X connect 52 2 74 0;
#X connect 52 3 75 0;
#X connect 52 4 76 0;
#X connect 52 5 77 0;
#X connect 52 6 78 0;
#X connect 52 7 79 0;
#X connect 52 8 80 0;
#X connect 52 9 81 0;
#X connect 52 10 82 0;
#X connect 52 11 83 0;
#X connect 52 12 84 0;
#X connect 52 13 85 0;
#X connect 52 14 86 0;
#X connect 52 15 87 0;
#X connect 53 0 50 0;
#X connect 54 0 63 0;
#X connect 55 0 54 0;
#X connect 56 0 43 0;
#X connect 57 0 41 0;
#X connect 58 0 56 0;
#X connect 60 0 71 0;
#X connect 60 0 61 0;
#X connect 61 0 64 1;
#X connect 65 0 60 0;
#X connect 66 0 59 0;
#X connect 70 0 55 0;
#X connect 71 0 64 0;
#X connect 72 0 48 0;
#X connect 73 0 48 1;
#X connect 74 0 48 2;
#X connect 75 0 48 3;
#X connect 76 0 48 4;
#X connect 77 0 48 5;
#X connect 78 0 48 6;
#X connect 79 0 48 7;
#X connect 80 0 48 8;
#X connect 81 0 48 9;
#X connect 82 0 48 10;
#X connect 83 0 48 11;
#X connect 84 0 48 12;
#X connect 85 0 48 13;
#X connect 86 0 48 14;
#X connect 87 0 48 15;
#X connect 88 0 51 0;
#X connect 89 0 91 0;
#X connect 90 0 91 1;
#X connect 91 0 92 0;
#X connect 92 0 93 0;
#X connect 93 0 99 0;
#X connect 94 0 89 0;
#X connect 94 0 90 0;
#X connect 94 0 95 0;
#X connect 94 0 96 0;
#X connect 94 0 103 0;
#X connect 94 0 104 0;
#X connect 95 0 97 0;
#X connect 96 0 97 1;
#X connect 97 0 101 0;
#X connect 98 0 102 0;
#X connect 99 0 100 0;
#X connect 100 0 110 0;
#X connect 101 0 92 0;
#X connect 101 1 93 1;
#X connect 102 0 92 0;
#X connect 102 1 99 1;
#X connect 103 0 98 0;
#X connect 104 0 98 1;
#X connect 105 0 106 0;
#X connect 106 0 110 1;
#X connect 107 0 108 0;
#X connect 108 0 105 0;
#X connect 110 0 109 0;
