#N canvas 0 0 1140 1050 12;
#X obj 15 79 tgl 30 0 empty empty empty 17 7 0 10 #00ff04 #000000 #000000
0 1;
#X floatatom 68 103 5 0 0 0 - - - 0;
#X obj 15 44 bng 30 250 50 0 empty empty empty 17 7 0 10 #00ff04 #000000
#000000;
#N canvas 0 0 1920 1052 clock 0;
#X obj 32 161 i;
#X obj 63 161 + 1;
#X obj 32 33 tgl 15 0 empty empty empty 17 7 0 10 #fcfcfc #000000 #000000
0 1;
#X msg 131 132 0;
#X obj 92 266 + 1;
#X obj 131 107 sel 0;
#X text 174 108 reset;
#X floatatom 562 33 5 0 0 0 - - - 0;
#X obj 32 107 metro, f 12;
#X obj 92 242 i;
#X obj 92 290 %;
#X obj 32 198 %;
#X floatatom 92 314 5 0 0 0 - - - 0;
#X obj 92 218 sel;
#X obj 123 218 - 1;
#X obj 32 223 s pos;
#X obj 227 178 r steps;
#X obj 474 133 tgl 15 0 empty empty empty 17 7 0 10 #fcfcfc #000000
#000000 0 1;
#X obj 474 214 midiout;
#X obj 365 160 select 0 1;
#X msg 365 194 252;
#X msg 402 194 250;
#X msg 474 187 248;
#X obj 474 157 metro 20.8333;
#X obj 562 57 expr (60000/$f1);
#X obj 562 125 / 24;
#X obj 522 89 / 4;
#X obj 32 11 inlet;
#X obj 562 9 inlet;
#X obj 572 158 s clock;
#X obj 92 338 + 1;
#X obj 92 362 s pattern_start;
#X text 371 226 MIDI OUT SYNC;
#X text 65 261 STEP COUNTER, f 1;
#X text 607 33 BPM CALCULATOR;
#X connect 0 0 1 0;
#X connect 0 0 11 0;
#X connect 1 0 0 1;
#X connect 2 0 5 0;
#X connect 2 0 8 0;
#X connect 2 0 17 0;
#X connect 3 0 0 1;
#X connect 3 0 9 1;
#X connect 3 0 10 0;
#X connect 4 0 9 1;
#X connect 4 0 10 0;
#X connect 5 0 3 0;
#X connect 7 0 24 0;
#X connect 8 0 0 0;
#X connect 9 0 4 0;
#X connect 10 0 12 0;
#X connect 11 0 13 0;
#X connect 11 0 15 0;
#X connect 12 0 30 0;
#X connect 13 0 9 0;
#X connect 14 0 13 1;
#X connect 16 0 10 1;
#X connect 16 0 14 0;
#X connect 16 0 11 1;
#X connect 17 0 19 0;
#X connect 17 0 23 0;
#X connect 19 0 20 0;
#X connect 19 1 21 0;
#X connect 20 0 18 0;
#X connect 21 0 18 0;
#X connect 22 0 18 0;
#X connect 23 0 22 0;
#X connect 24 0 26 0;
#X connect 24 0 25 0;
#X connect 25 0 23 1;
#X connect 25 0 29 0;
#X connect 26 0 8 1;
#X connect 27 0 2 0;
#X connect 28 0 7 0;
#X connect 30 0 31 0;
#X restore 15 131 pd clock;
#X obj 68 79 loadmess 128;
#X obj 128 281 r pos;
#X obj 128 41 s steps;
#X obj 128 17 loadmess 16;
#X obj 15 17 r pattern_start;
#X msg 135 427 48;
#X obj 135 484 noteout 1;
#X obj 135 459 makenote 100 500;
#X obj 128 346 viseq_gen;
#X connect 0 0 3 0;
#X connect 1 0 3 1;
#X connect 4 0 1 0;
#X connect 5 0 12 0;
#X connect 7 0 6 0;
#X connect 8 0 2 0;
#X connect 9 0 11 0;
#X connect 11 0 10 0;
#X connect 11 1 10 1;
