#N canvas 0 0 1920 1052 12;
#X floatatom 373 52 5 0 16 0 - - - 0;
#X floatatom 321 52 5 0 0 0 - - - 0;
#X text 316 15 offset;
#X text 368 16 pulses no;
#N canvas 0 0 1920 1052 euclid 0;
#X obj 279 545 sel 1;
#X obj 279 302 f;
#X obj 279 421 *;
#X floatatom 350 497 5 0 16 0 - - - 0;
#X obj 307 302 + 1;
#X obj 279 516 <;
#X floatatom 350 357 5 0 0 0 - - - 0;
#X obj 350 441 bng 15 250 50 0 empty empty empty 17 7 0 10 #fcfcfc #000000 #000000;
#X obj 279 376 + 0;
#X obj 375 412 del 1;
#X text 394 357 offset;
#X text 395 497 pulses no;
#X obj 279 253 inlet;
#X obj 507 253 inlet;
#X obj 557 253 inlet;
#X obj 279 610 outlet;
#X msg 279 580 1;
#X msg 319 580 0;
#X obj 374 253 inlet;
#X obj 279 466 % 32;
#X obj 279 332 % 32;
#X text 378 168 0 clock \; 1 steps \; 2 offset \; 3 pulse \;;
#X msg 322 264 0;
#X obj 442 249 bng 15 250 50 0 empty empty empty 0 -8 0 12 #fcfcfc #000000 #000000;
#X obj 330 228 r reset;
#X connect 0 0 16 0;
#X connect 0 1 17 0;
#X connect 1 0 4 0;
#X connect 1 0 20 0;
#X connect 2 0 19 0;
#X connect 3 0 2 1;
#X connect 3 0 5 1;
#X connect 4 0 1 1;
#X connect 5 0 0 0;
#X connect 6 0 7 0;
#X connect 6 0 8 1;
#X connect 6 0 9 0;
#X connect 7 0 3 0;
#X connect 8 0 2 0;
#X connect 9 0 7 0;
#X connect 12 0 1 0;
#X connect 13 0 6 0;
#X connect 14 0 3 0;
#X connect 16 0 15 0;
#X connect 17 0 15 0;
#X connect 18 0 19 1;
#X connect 18 0 20 1;
#X connect 19 0 5 0;
#X connect 20 0 8 0;
#X connect 22 0 1 1;
#X connect 24 0 22 0;
#X restore 166 255 pd euclid;
#X f 14;
#X obj 343 255 snd, f 7;
#X floatatom 389 232 5 0 0 0 - - - 0;
#X obj 166 450 bng 15 250 50 0 empty empty empty 17 7 0 10 #fcfcfc #000000 #000000;
#X obj 343 280 spigot;
#X obj 343 335 spigot;
#X obj 382 315 tgl 15 0 empty empty empty 17 7 0 10 #fcfcfc #000000 #000000 0 1;
#N canvas 0 0 1304 1050 probability 0;
#X obj 515 105 bng 15 250 50 0 empty empty empty 17 7 0 10 #fcfcfc #000000 #000000;
#X obj 455 237 zl lookup;
#X obj 683 136 bng 15 250 50 0 empty empty empty 17 7 0 10 #fcfcfc #000000 #000000;
#X obj 623 253 zl lookup;
#X obj 455 273 >;
#X obj 683 219 zl group 16;
#X obj 683 111 r pattern_start;
#X obj 515 179 + 30;
#X obj 515 154 random 70;
#X obj 683 184 random 100;
#X text 575 88 PROBABILITY;
#X obj 455 103 inlet;
#X obj 515 68 inlet;
#X obj 455 298 outlet;
#X obj 515 129 uzi 32;
#X obj 683 160 uzi 32;
#X floatatom 393 291 5 0 0 0 - - - 0;
#X obj 515 212 zl group 32;
#X obj 650 147 bng 15 250 50 0 empty empty empty 0 -8 0 12 #fcfcfc #000000 #000000;
#X connect 0 0 14 0;
#X connect 1 0 4 0;
#X connect 1 0 16 0;
#X connect 3 0 4 1;
#X connect 4 0 13 0;
#X connect 5 0 3 1;
#X connect 6 0 2 0;
#X connect 7 0 17 0;
#X connect 8 0 7 0;
#X connect 9 0 5 0;
#X connect 11 0 1 0;
#X connect 11 0 3 0;
#X connect 12 0 0 0;
#X connect 14 0 8 0;
#X connect 15 0 9 0;
#X connect 17 0 1 1;
#X connect 18 0 15 0;
#X restore 477 203 pd probability;
#X obj 572 183 bng 15 250 50 0 empty empty empty 17 7 0 10 #fcfcfc #000000 #000000;
#N canvas 0 0 967 1050 velocity 0;
#X obj 427 208 bng 15 250 50 0 empty empty empty 17 7 0 10 #fcfcfc #000000 #000000;
#X obj 367 332 zl lookup;
#X text 359 152 VELOCITY;
#X obj 367 185 inlet;
#X obj 427 185 inlet;
#X obj 367 381 outlet;
#X obj 427 282 + 37;
#X obj 427 257 random 90;
#X floatatom 442 380 5 0 0 0 - - - 0;
#X obj 427 232 uzi 32;
#X obj 427 307 zl group 32;
#X connect 0 0 9 0;
#X connect 1 0 5 0;
#X connect 1 0 8 0;
#X connect 3 0 1 0;
#X connect 4 0 0 0;
#X connect 6 0 10 0;
#X connect 7 0 6 0;
#X connect 9 0 7 0;
#X connect 10 0 1 1;
#X restore 601 183 pd velocity;
#X obj 675 163 bng 15 250 50 0 empty empty empty 17 7 0 10 #fcfcfc #000000 #000000;
#X obj 444 260 switch 2 1;
#X obj 444 208 vradio 15 1 0 3 empty empty empty 0 -8 0 10 #fcfcfc #000000 #000000 0;
#X msg 511 233 1;
#X obj 166 74 inlet;
#X obj 166 496 outlet;
#X obj 616 422 outlet;
#X text 468 42 eucl pulses \; eucl offset \; snd pulses \; snd on/off prob gen \; prob on/off \; velocity gen \; ratchet on/off \;;
#X obj 222 393 &&;
#X obj 222 418 sel 1;
#X obj 222 474 bng 15 250 50 0 empty empty empty 17 7 0 10 #fcfcfc #000000 #000000;
#X obj 222 496 outlet;
#X obj 166 393 ||;
#X obj 166 418 sel 1;
#X obj 278 418 sel 1;
#X obj 278 474 bng 15 250 50 0 empty empty empty 17 7 0 10 #fcfcfc #000000 #000000;
#X obj 278 393 >>;
#X obj 278 496 outlet;
#X obj 334 474 bng 15 250 50 0 empty empty empty 17 7 0 10 #fcfcfc #000000 #000000;
#X obj 334 496 outlet;
#X obj 334 448 sel 1;
#X obj 334 423 ||;
#X floatatom 265 52 5 0 0 0 - - - 0;
#X text 44 40 4x euclid after each other;
#X text 101 397 ratchet;
#X obj 477 136 counter;
#X obj 477 156 % 32;
#X obj 549 378 pack f f;
#X msg 549 359 1;
#X obj 549 398 unpack f f;
#X floatatom 602 253 5 0 0 0 - - - 0;
#X obj 602 276 / 127;
#X floatatom 602 296 5 0 0 0 - - - 0;
#X obj 166 471 del;
#X floatatom 554 469 11 0 0 0 - - - 0;
#X obj 265 30 inlet;
#X obj 321 30 inlet;
#X obj 373 30 inlet;
#X obj 454 27 inlet;
#X obj 498 27 inlet;
#X obj 675 36 loadbang;
#X msg 627 61 1;
#X text 456 13 snd;
#X text 502 11 on/off;
#X obj 687 413 pow 130;
#X obj 593 417 bng 15 250 50 0 empty empty empty 0 -8 0 12 #fcfcfc #000000 #000000;
#X connect 0 0 4 3;
#X connect 1 0 4 2;
#X connect 4 0 26 0;
#X connect 4 0 22 0;
#X connect 4 0 30 0;
#X connect 5 0 8 0;
#X connect 6 0 5 2;
#X connect 7 0 47 0;
#X connect 8 0 9 0;
#X connect 9 0 22 1;
#X connect 9 0 26 1;
#X connect 9 0 30 1;
#X connect 10 0 9 1;
#X connect 11 0 15 1;
#X connect 12 0 11 1;
#X connect 13 0 44 0;
#X connect 14 0 13 1;
#X connect 15 0 8 1;
#X connect 16 0 15 0;
#X connect 16 0 17 0;
#X connect 17 0 15 2;
#X connect 18 0 4 0;
#X connect 18 0 5 0;
#X connect 18 0 39 0;
#X connect 22 0 23 0;
#X connect 23 0 24 0;
#X connect 24 0 25 0;
#X connect 26 0 27 0;
#X connect 27 0 7 0;
#X connect 27 0 35 0;
#X connect 28 0 29 0;
#X connect 29 0 31 0;
#X connect 30 0 28 0;
#X connect 30 0 35 1;
#X connect 32 0 33 0;
#X connect 34 0 32 0;
#X connect 35 0 34 0;
#X connect 36 0 4 1;
#X connect 39 0 40 0;
#X connect 40 0 13 0;
#X connect 40 0 11 0;
#X connect 41 0 43 0;
#X connect 42 0 41 0;
#X connect 43 1 20 0;
#X connect 43 1 59 0;
#X connect 44 0 45 0;
#X connect 45 0 46 0;
#X connect 46 0 41 1;
#X connect 47 0 19 0;
#X connect 47 0 42 0;
#X connect 48 0 47 1;
#X connect 49 0 36 0;
#X connect 50 0 1 0;
#X connect 51 0 0 0;
#X connect 52 0 6 0;
#X connect 53 0 10 0;
#X connect 54 0 12 0;
#X connect 54 0 14 0;
#X connect 54 0 55 0;
#X connect 55 0 16 0;
#X connect 58 0 48 0;
