#N canvas 1142 0 776 510 12;
#X floatatom 172 272 5 0 16 0 - - - 0;
#X floatatom 124 249 5 0 0 0 - - - 0;
#X text 117 224 offset;
#X text 171 247 pulses no;
#N canvas 0 0 958 1050 euclid 0;
#X obj 279 545 sel 1;
#X obj 279 302 f;
#X obj 279 421 *;
#X floatatom 350 497 5 0 16 0 - - - 0;
#X obj 307 302 + 1;
#X obj 279 516 <;
#X floatatom 350 357 5 0 0 0 - - - 0;
#X obj 279 332 % 16;
#X obj 279 466 % 16;
#X obj 350 441 bng 15 250 50 0 empty empty empty 17 7 0 10 #fcfcfc
#000000 #000000;
#X obj 279 376 + 0;
#X obj 375 412 del 1;
#X text 394 357 offset;
#X text 395 497 pulses no;
#X obj 279 253 inlet;
#X obj 279 570 outlet;
#X obj 507 253 inlet;
#X obj 557 253 inlet;
#X obj 360 253 r steps;
#X connect 0 0 15 0;
#X connect 1 0 4 0;
#X connect 1 0 7 0;
#X connect 2 0 8 0;
#X connect 3 0 2 1;
#X connect 3 0 5 1;
#X connect 4 0 1 1;
#X connect 5 0 0 0;
#X connect 6 0 9 0;
#X connect 6 0 10 1;
#X connect 6 0 11 0;
#X connect 7 0 10 0;
#X connect 8 0 5 0;
#X connect 9 0 3 0;
#X connect 10 0 2 0;
#X connect 11 0 9 0;
#X connect 14 0 1 0;
#X connect 16 0 6 0;
#X connect 17 0 3 0;
#X connect 18 0 7 1;
#X connect 18 0 8 1;
#X restore 77 295 pd euclid;
#X f 14;
#X obj 254 295 snd, f 7;
#X floatatom 300 272 5 0 0 0 - - - 0;
#X obj 254 437 bng 25 250 50 0 empty empty empty 17 7 0 10 #fcfcfc
#000000 #000000;
#X obj 254 340 spigot;
#X obj 293 320 tgl 15 0 empty empty empty 17 7 0 10 #fcfcfc #000000
#000000 0 1;
#X obj 254 390 spigot;
#X obj 293 370 tgl 15 0 empty empty empty 17 7 0 10 #fcfcfc #000000
#000000 0 1;
#N canvas 0 0 967 1050 probability 0;
#X obj 515 105 bng 15 250 50 0 empty empty empty 17 7 0 10 #fcfcfc
#000000 #000000;
#X obj 455 237 zl lookup;
#X obj 683 136 bng 15 250 50 0 empty empty empty 17 7 0 10 #fcfcfc
#000000 #000000;
#X obj 623 253 zl lookup;
#X obj 455 273 >;
#X obj 683 160 uzi 16;
#X obj 683 219 zl group 16;
#X obj 515 129 uzi 16;
#X obj 515 212 zl group 16;
#X obj 683 111 r pattern_start;
#X obj 515 179 + 30;
#X obj 515 154 random 70;
#X obj 683 184 random 100;
#X text 575 88 PROBABILITY;
#X obj 455 103 inlet;
#X obj 515 68 inlet;
#X obj 455 298 outlet;
#X connect 0 0 7 0;
#X connect 1 0 4 0;
#X connect 2 0 5 0;
#X connect 3 0 4 1;
#X connect 4 0 16 0;
#X connect 5 0 12 0;
#X connect 6 0 3 1;
#X connect 7 0 11 0;
#X connect 8 0 1 1;
#X connect 9 0 2 0;
#X connect 10 0 8 0;
#X connect 11 0 10 0;
#X connect 12 0 6 0;
#X connect 14 0 1 0;
#X connect 14 0 3 0;
#X connect 15 0 0 0;
#X restore 388 243 pd probability;
#X obj 483 223 bng 15 250 50 0 empty empty empty 17 7 0 10 #fcfcfc
#000000 #000000;
#N canvas 0 0 1920 1052 velocity 0;
#X obj 427 208 bng 15 250 50 0 empty empty empty 17 7 0 10 #fcfcfc
#000000 #000000;
#X obj 367 332 zl lookup;
#X obj 367 356 scale 0 100 0 1;
#X obj 427 282 + 10;
#X obj 427 257 random 90;
#X obj 427 232 uzi 16;
#X obj 427 307 zl group 16;
#X text 359 152 VELOCITY;
#X obj 367 185 inlet;
#X obj 427 185 inlet;
#X obj 367 381 outlet;
#X connect 0 0 5 0;
#X connect 1 0 2 0;
#X connect 2 0 10 0;
#X connect 3 0 6 0;
#X connect 4 0 3 0;
#X connect 5 0 4 0;
#X connect 6 0 1 1;
#X connect 8 0 1 0;
#X connect 9 0 0 0;
#X restore 512 223 pd velocity;
#X obj 586 203 bng 15 250 50 0 empty empty empty 17 7 0 10 #fcfcfc
#000000 #000000;
#N canvas 1306 0 305 1050 ratchet 0;
#X obj 207 181 r clock;
#X obj 157 240 metro;
#X obj 157 320 spigot, f 9;
#X obj 189 209 *;
#X obj 157 65 loadmess 1;
#X obj 189 148 list store 0.25 0.5 1 2 4 6 8;
#X floatatom 189 99 5 0 0 0 - - - 0;
#X msg 189 123 get \$1;
#X text 237 99 RATCHET;
#X obj 217 244 random 2;
#X obj 284 244 random 2;
#X obj 217 272 &&, f 10;
#X obj 217 300 tgl 15 0 empty empty empty 17 7 0 10 #fcfcfc #000000
#000000 0 1;
#X obj 114 65 inlet;
#X obj 157 345 outlet;
#X connect 0 0 3 1;
#X connect 1 0 2 0;
#X connect 2 0 14 0;
#X connect 3 0 1 1;
#X connect 4 0 1 0;
#X connect 5 0 3 0;
#X connect 6 0 7 0;
#X connect 7 0 5 0;
#X connect 9 0 11 0;
#X connect 10 0 11 1;
#X connect 11 0 12 0;
#X connect 12 0 2 1;
#X connect 13 0 9 0;
#X connect 13 0 10 0;
#X restore 169 462 pd ratchet;
#X obj 169 507 spigot;
#X obj 208 487 tgl 15 0 empty empty empty 17 7 0 10 #fcfcfc #000000
#000000 0 1;
#X obj 355 300 switch 2 1;
#X obj 355 248 vradio 15 1 0 3 empty empty empty 0 -8 0 10 #fcfcfc
#000000 #000000 0;
#X msg 422 273 1;
#X obj 512 248 scale 0 1 0 127;
#X obj 77 114 inlet;
#X obj 254 550 outlet;
#X obj 304 550 outlet;
#X text 379 82 eucl pulses \; eucl offset \; snd pulses \; snd on/off
prob gen \; prob on/off \; velocity gen \; ratchet on/off \;;
#X connect 0 0 4 2;
#X connect 1 0 4 1;
#X connect 4 0 7 0;
#X connect 5 0 8 0;
#X connect 6 0 5 2;
#X connect 7 0 16 0;
#X connect 7 0 24 0;
#X connect 8 0 10 0;
#X connect 9 0 8 1;
#X connect 10 0 7 0;
#X connect 11 0 10 1;
#X connect 12 0 19 1;
#X connect 13 0 12 1;
#X connect 14 0 22 0;
#X connect 15 0 14 1;
#X connect 16 0 17 0;
#X connect 17 0 7 0;
#X connect 18 0 17 1;
#X connect 19 0 9 0;
#X connect 20 0 19 0;
#X connect 20 0 21 0;
#X connect 21 0 19 2;
#X connect 22 0 25 0;
#X connect 23 0 4 0;
#X connect 23 0 5 0;
#X connect 23 0 12 0;
#X connect 23 0 14 0;
