#N canvas 0 0 1920 1052 12;
#X floatatom 261 232 5 0 16 0 - - - 0;
#X floatatom 213 209 5 0 0 0 - - - 0;
#X text 206 184 offset;
#X text 260 207 pulses no;
#N canvas 994 0 924 540 euclid 0;
#X obj 279 545 sel 1;
#X obj 279 302 f;
#X obj 279 421 *;
#X floatatom 350 497 5 0 16 0 - - - 0;
#X obj 307 302 + 1;
#X obj 279 516 <;
#X floatatom 350 357 5 0 0 0 - - - 0;
#X obj 350 441 bng 15 250 50 0 empty empty empty 17 7 0 10 #fcfcfc
#000000 #000000;
#X obj 279 376 + 0;
#X obj 375 412 del 1;
#X text 394 357 offset;
#X text 395 497 pulses no;
#X obj 279 253 inlet;
#X obj 507 253 inlet;
#X obj 557 253 inlet;
#X obj 279 610 outlet;
#X msg 279 580 1;
#X msg 319 580 0;
#X obj 374 253 inlet;
#X obj 279 466 % 32;
#X obj 279 332 % 32;
#X text 378 168 0 clock \; 1 steps \; 2 offset \; 3 pulse \;;
#X connect 0 0 16 0;
#X connect 0 1 17 0;
#X connect 1 0 4 0;
#X connect 1 0 20 0;
#X connect 2 0 19 0;
#X connect 3 0 2 1;
#X connect 3 0 5 1;
#X connect 4 0 1 1;
#X connect 5 0 0 0;
#X connect 6 0 7 0;
#X connect 6 0 8 1;
#X connect 6 0 9 0;
#X connect 7 0 3 0;
#X connect 8 0 2 0;
#X connect 9 0 7 0;
#X connect 12 0 1 0;
#X connect 13 0 6 0;
#X connect 14 0 3 0;
#X connect 16 0 15 0;
#X connect 17 0 15 0;
#X connect 18 0 19 1;
#X connect 18 0 20 1;
#X connect 19 0 5 0;
#X connect 20 0 8 0;
#X restore 166 255 pd euclid;
#X f 14;
#X obj 343 255 snd, f 7;
#X floatatom 389 232 5 0 0 0 - - - 0;
#X obj 166 574 bng 15 250 50 0 empty empty empty 17 7 0 10 #fcfcfc
#000000 #000000;
#X obj 343 320 spigot;
#X obj 343 375 spigot;
#X obj 382 355 tgl 15 0 empty empty empty 17 7 0 10 #fcfcfc #000000
#000000 0 1;
#N canvas 0 0 1920 1052 probability 0;
#X obj 515 105 bng 15 250 50 0 empty empty empty 17 7 0 10 #fcfcfc
#000000 #000000;
#X obj 455 237 zl lookup;
#X obj 683 136 bng 15 250 50 0 empty empty empty 17 7 0 10 #fcfcfc
#000000 #000000;
#X obj 623 253 zl lookup;
#X obj 455 273 >;
#X obj 683 219 zl group 16;
#X obj 683 111 r pattern_start;
#X obj 515 179 + 30;
#X obj 515 154 random 70;
#X obj 683 184 random 100;
#X text 575 88 PROBABILITY;
#X obj 455 103 inlet;
#X obj 515 68 inlet;
#X obj 455 298 outlet;
#X obj 515 129 uzi 32;
#X obj 683 160 uzi 32;
#X floatatom 393 291 5 0 0 0 - - - 0;
#X obj 515 212 zl group 32;
#X connect 0 0 14 0;
#X connect 1 0 4 0;
#X connect 1 0 16 0;
#X connect 3 0 4 1;
#X connect 4 0 13 0;
#X connect 5 0 3 1;
#X connect 6 0 2 0;
#X connect 7 0 17 0;
#X connect 8 0 7 0;
#X connect 9 0 5 0;
#X connect 11 0 1 0;
#X connect 11 0 3 0;
#X connect 12 0 0 0;
#X connect 14 0 8 0;
#X connect 15 0 9 0;
#X connect 17 0 1 1;
#X restore 477 203 pd probability;
#X obj 572 183 bng 15 250 50 0 empty empty empty 17 7 0 10 #fcfcfc
#000000 #000000;
#N canvas 0 0 1920 1052 velocity 0;
#X obj 427 208 bng 15 250 50 0 empty empty empty 17 7 0 10 #fcfcfc
#000000 #000000;
#X obj 367 332 zl lookup;
#X text 359 152 VELOCITY;
#X obj 367 185 inlet;
#X obj 427 185 inlet;
#X obj 367 381 outlet;
#X obj 427 282 + 37;
#X obj 427 257 random 90;
#X floatatom 442 380 5 0 0 0 - - - 0;
#X obj 427 232 uzi 32;
#X obj 427 307 zl group 32;
#X connect 0 0 9 0;
#X connect 1 0 5 0;
#X connect 1 0 8 0;
#X connect 3 0 1 0;
#X connect 4 0 0 0;
#X connect 6 0 10 0;
#X connect 7 0 6 0;
#X connect 9 0 7 0;
#X connect 10 0 1 1;
#X restore 601 183 pd velocity;
#X obj 675 163 bng 15 250 50 0 empty empty empty 17 7 0 10 #fcfcfc
#000000 #000000;
#N canvas 994 0 924 540 ratchet 0;
#X obj 207 181 r clock;
#X obj 157 240 metro;
#X obj 157 350 spigot, f 9;
#X obj 189 209 *;
#X obj 157 65 loadmess 1;
#X obj 189 148 list store 0.25 0.5 1 2 4 6 8;
#X floatatom 189 99 5 0 0 0 - - - 0;
#X msg 189 123 get \$1;
#X text 237 99 RATCHET;
#X obj 217 244 random 2;
#X obj 284 244 random 2;
#X obj 217 272 &&, f 10;
#X obj 217 320 tgl 15 0 empty empty empty 17 7 0 10 #fcfcfc #000000
#000000 0 1;
#X obj 114 65 inlet;
#X obj 157 375 outlet;
#X floatatom 237 317 5 0 0 0 - - - 0;
#X obj 240 65 inlet;
#X connect 0 0 3 1;
#X connect 1 0 2 0;
#X connect 2 0 14 0;
#X connect 3 0 1 1;
#X connect 4 0 1 0;
#X connect 5 0 3 0;
#X connect 6 0 7 0;
#X connect 7 0 5 0;
#X connect 9 0 11 0;
#X connect 10 0 11 1;
#X connect 11 0 12 0;
#X connect 11 0 15 0;
#X connect 12 0 2 1;
#X connect 13 0 9 0;
#X connect 13 0 10 0;
#X connect 16 0 6 0;
#X restore 56 378 pd ratchet;
#X obj 56 423 spigot;
#X obj 95 403 tgl 15 0 empty empty empty 17 7 0 10 #fcfcfc #000000
#000000 0 1;
#X obj 444 260 switch 2 1;
#X obj 444 208 vradio 15 1 0 3 empty empty empty 0 -8 0 10 #fcfcfc
#000000 #000000 0;
#X msg 511 233 1;
#X obj 166 74 inlet;
#X obj 166 606 outlet;
#X obj 601 606 outlet;
#X text 468 42 eucl pulses \; eucl offset \; snd pulses \; snd on/off
prob gen \; prob on/off \; velocity gen \; ratchet on/off \;;
#X obj 222 493 &&;
#X obj 222 528 sel 1;
#X obj 222 574 bng 15 250 50 0 empty empty empty 17 7 0 10 #fcfcfc
#000000 #000000;
#X obj 222 606 outlet;
#X obj 166 493 ||;
#X obj 166 528 sel 1;
#X obj 278 528 sel 1;
#X obj 278 574 bng 15 250 50 0 empty empty empty 17 7 0 10 #fcfcfc
#000000 #000000;
#X obj 278 493 >>;
#X obj 278 606 outlet;
#X obj 334 614 bng 15 250 50 0 empty empty empty 17 7 0 10 #fcfcfc
#000000 #000000;
#X obj 334 646 outlet;
#X obj 334 568 sel 1;
#X obj 334 533 ||;
#X floatatom 147 195 5 0 0 0 - - - 0;
#X floatatom 123 350 5 0 0 0 - - - 0;
#X text 28 40 4x euclid after each other;
#X obj 40 467 bng 15 250 50 0 empty empty empty 17 7 0 10 #fcfcfc #000000
#000000;
#X connect 0 0 4 3;
#X connect 1 0 4 2;
#X connect 4 0 29 0;
#X connect 4 0 25 0;
#X connect 4 0 33 0;
#X connect 5 0 8 0;
#X connect 6 0 5 2;
#X connect 7 0 22 0;
#X connect 7 0 15 0;
#X connect 8 0 9 0;
#X connect 9 0 25 1;
#X connect 9 0 29 1;
#X connect 9 0 33 1;
#X connect 10 0 9 1;
#X connect 11 0 18 1;
#X connect 12 0 11 1;
#X connect 13 0 23 0;
#X connect 14 0 13 1;
#X connect 15 0 16 0;
#X connect 16 0 7 0;
#X connect 16 0 42 0;
#X connect 17 0 16 1;
#X connect 18 0 8 1;
#X connect 19 0 18 0;
#X connect 19 0 20 0;
#X connect 20 0 18 2;
#X connect 21 0 4 0;
#X connect 21 0 11 0;
#X connect 21 0 13 0;
#X connect 21 0 5 0;
#X connect 25 0 26 0;
#X connect 26 0 27 0;
#X connect 27 0 28 0;
#X connect 29 0 30 0;
#X connect 30 0 7 0;
#X connect 30 0 38 0;
#X connect 31 0 32 0;
#X connect 32 0 34 0;
#X connect 33 0 31 0;
#X connect 33 0 38 1;
#X connect 35 0 36 0;
#X connect 37 0 35 0;
#X connect 38 0 37 0;
#X connect 39 0 4 1;
#X connect 40 0 15 1;
