#N canvas 0 0 1920 1052 12;
#X floatatom 303 181 5 0 0 0 - - - 0;
#X msg 390 181 0;
#X obj 303 373 *~;
#X obj 344 209 phasor~;
#X obj 303 210 osc~;
#X obj 303 284 *~ 0.5;
#X floatatom 344 182 5 0 0 0 - - - 0;
#X obj 520 188 line~, f 7;
#X obj 303 398 outlet~;
#X obj 520 102 inlet;
#X obj 573 102 inlet;
#X msg 520 161 1 \, 0 \$2;
#X obj 520 127 pack s f;
#X obj 303 149 inlet;
#X obj 344 149 inlet;
#X obj 344 234 expr~ $v1 > 0.5;
#X connect 0 0 4 0;
#X connect 1 0 4 1;
#X connect 1 0 3 1;
#X connect 2 0 8 0;
#X connect 3 0 5 0;
#X connect 4 0 5 0;
#X connect 5 0 2 0;
#X connect 6 0 3 0;
#X connect 7 0 2 1;
#X connect 9 0 12 0;
#X connect 10 0 12 1;
#X connect 11 0 7 0;
#X connect 11 0 1 0;
#X connect 12 0 11 0;
#X connect 13 0 0 0;
#X connect 14 0 6 0;
