#N canvas 994 0 924 540 12;
#X floatatom 303 181 5 0 0 0 - - - 0;
#X msg 390 181 0;
#X obj 344 209 phasor~;
#X obj 303 210 osc~;
#X floatatom 344 182 5 0 0 0 - - - 0;
#X obj 520 188 line~, f 7;
#X obj 303 440 outlet~;
#X obj 520 102 inlet;
#X obj 573 102 inlet;
#X msg 520 161 1 \, 0 \$2;
#X obj 520 127 pack s f;
#X obj 303 149 inlet;
#X obj 344 149 inlet;
#X obj 456 334 curve~;
#X msg 456 309 1 5 -0.5 0 500 -0.5;
#X obj 303 415 *~;
#X connect 0 0 3 0;
#X connect 1 0 3 1;
#X connect 1 0 2 1;
#X connect 3 0 15 0;
#X connect 4 0 2 0;
#X connect 7 0 10 0;
#X connect 8 0 10 1;
#X connect 9 0 5 0;
#X connect 10 0 9 0;
#X connect 10 0 1 0;
#X connect 10 0 14 0;
#X connect 11 0 0 0;
#X connect 12 0 4 0;
#X connect 13 0 15 1;
#X connect 14 0 13 0;
#X connect 15 0 6 0;
