#N canvas 0 0 1920 1052 12;
#X obj 112 606 mrpeach/packOSC;
#X obj 112 780 mrpeach/udpsend;
#X obj 233 677 loadbang;
#X obj 112 804 tgl 15 0 empty empty connected 17 7 0 10 #fcfcfc #000000
#000000 0 1;
#X msg 233 725 disconnect;
#X msg 112 293 \$1 azimuth;
#X obj 112 329 pack f s;
#X obj 455 186 sel -1;
#X floatatom 505 187 5 0 0 0 - - - 0;
#X obj 112 145 bng 15 250 50 0 empty empty empty 17 7 0 10 #fcfcfc
#000000 #000000;
#X text 409 160 no repeat random;
#X floatatom 112 197 5 0 0 0 - - - 0;
#X obj 112 172 counter 3;
#X obj 219 311 loadmess -25 elevation;
#X text 135 143 KICK;
#X msg 391 292 \$1 azimuth;
#X obj 391 328 pack f s;
#X obj 391 134 bng 15 250 50 0 empty empty empty 17 7 0 10 #fcfcfc
#000000 #000000;
#X text 414 132 CLAP;
#X msg 552 292 \$1 elevation;
#X obj 552 221 sel 0 1 2 3;
#X msg 552 256 0;
#X msg 592 256 25;
#X msg 666 293 \$1 distance;
#X floatatom 666 257 5 0 0 0 - - - 0;
#X obj 666 221 counter 2 -5 5;
#X obj 1240 178 ../modulation/line-alternative;
#X floatatom 1240 203 5 0 0 0 - - - 0;
#X obj 1240 158 tgl 15 0 empty empty empty 17 7 0 10 #fcfcfc #000000
#000000 0 1;
#X floatatom 1343 155 5 0 0 0 - - - 0;
#X msg 1240 236 \$1 azimuth;
#X msg 1340 366 \$1 elevation;
#X obj 1340 209 == 360;
#X obj 1340 264 counter 2;
#X obj 1340 289 sel 0 1 2;
#X msg 1340 314 -25;
#X msg 1380 314 0;
#X msg 1420 314 25;
#X obj 1240 385 pack f s;
#X obj 1340 234 sel 1;
#X text 1257 156 HATS;
#X obj 800 134 bng 15 250 50 0 empty empty empty 17 7 0 10 #fcfcfc
#000000 #000000;
#X msg 863 183 \$1 azimuth;
#X obj 800 358 pack f s;
#X obj 800 155 drunk 360 50;
#X msg 916 333 50 spread;
#X text 820 131 SNARE;
#X obj 916 275 r play;
#X obj 1019 275 r bpm;
#X msg 1123 277 loadmess 3;
#X obj 800 237 tgl 15 0 empty empty empty 17 7 0 10 #fcfcfc #000000
#000000 0 1;
#X obj 800 257 sel 0 1;
#X msg 800 282 -25;
#X msg 831 282 25;
#X msg 800 307 \$1 elevation;
#X obj 800 184 >= 180;
#X obj 800 210 change;
#X text 233 602 azimuth 0 360 \; elevation -30 30 \; spread 0 100 \;
distance -10 10 \;;
#X obj 112 116 inlet;
#X obj 391 106 inlet;
#X obj 800 106 inlet;
#X obj 1240 126 inlet;
#X obj 1343 126 inlet;
#X obj 447 807 int;
#X obj 447 727 cyclone/snapshot~ 10;
#X floatatom 447 862 5 0 0 0 - - - 0;
#X obj 447 777 * 0.1;
#X obj 447 832 * 10;
#X obj 447 752 scale -1 1 0 360;
#X obj 447 702 osc~ 0.5;
#X obj 112 221 sel 0 1 2 3;
#X msg 112 256 0;
#X msg 152 256 90;
#X msg 192 256 180;
#X msg 232 256 270;
#X obj 391 221 sel 0 1 2 3;
#X msg 391 256 0;
#X msg 431 256 90;
#X msg 471 256 180;
#X msg 511 256 270;
#X obj 391 186 random 4;
#X msg 233 701 connect 149.222.206.21 9001;
#X obj 219 292 bng 15 250 50 0 empty empty empty 17 7 0 10 #fcfcfc
#000000 #000000;
#X msg 263 337 0 spread;
#X msg 112 354 send /dome/\$2 3 \$1;
#X msg 1240 410 send /dome/\$2 6 \$1;
#X msg 800 383 send /dome/\$2 5 \$1;
#X msg 1534 238 \$1 azimuth;
#X obj 1534 290 pack f s;
#X msg 1534 315 send /dome/\$2 9 \$1;
#X obj 1534 105 inlet;
#X obj 1534 155 counter 36;
#X obj 1534 180 * 10;
#X obj 1534 134 bng 15 250 50 0 empty empty empty 17 7 0 10 #fcfcfc
#000000 #000000;
#X floatatom 1534 205 5 0 0 0 - - - 0;
#X msg 1478 568 100 spread;
#X obj 1478 596 pack f s;
#X msg 1478 621 send /dome/\$2 10 \$1;
#X msg 1648 568 0 elevation;
#X msg 1748 568 5 distance;
#X obj 1478 538 bng 15 250 50 0 empty empty empty 17 7 0 10 #fcfcfc
#000000 #000000;
#X msg 1568 568 0 azimuth;
#X obj 1072 577 pack f s;
#X obj 1072 519 bng 15 250 50 0 empty empty empty 17 7 0 10 #fcfcfc
#000000 #000000;
#X msg 1342 549 1 distance;
#X msg 1239 549 -25 elevation;
#X msg 1162 549 180 azimuth;
#X msg 1072 549 50 spread;
#X msg 1072 602 send /dome/\$2 7 \$1;
#X obj 1163 153 loadmess 1;
#X obj 112 661 spigot;
#X obj 151 636 tgl 15 0 empty empty empty 17 7 0 10 #fcfcfc #000000
#000000 0 1;
#X msg 391 353 send /dome/\$2 4 \$1;
#X obj 1072 475 loadbang;
#X text 1029 552 bass;
#X text 1507 535 pad;
#X obj 916 305 ../sequencer/euclidean;
#X connect 0 0 110 0;
#X connect 1 0 3 0;
#X connect 2 0 81 0;
#X connect 4 0 1 0;
#X connect 5 0 6 0;
#X connect 6 0 84 0;
#X connect 7 0 80 0;
#X connect 7 1 8 0;
#X connect 8 0 7 1;
#X connect 9 0 12 0;
#X connect 11 0 70 0;
#X connect 12 0 11 0;
#X connect 13 0 6 0;
#X connect 15 0 16 0;
#X connect 16 0 112 0;
#X connect 17 0 25 0;
#X connect 17 0 80 0;
#X connect 19 0 16 0;
#X connect 20 0 21 0;
#X connect 20 1 22 0;
#X connect 20 2 21 0;
#X connect 20 3 22 0;
#X connect 21 0 19 0;
#X connect 22 0 19 0;
#X connect 24 0 23 0;
#X connect 25 0 24 0;
#X connect 26 0 27 0;
#X connect 27 0 30 0;
#X connect 27 0 32 0;
#X connect 28 0 26 0;
#X connect 29 0 26 1;
#X connect 30 0 38 0;
#X connect 31 0 38 0;
#X connect 32 0 39 0;
#X connect 33 0 34 0;
#X connect 34 0 35 0;
#X connect 34 1 36 0;
#X connect 34 2 37 0;
#X connect 35 0 31 0;
#X connect 36 0 31 0;
#X connect 37 0 31 0;
#X connect 38 0 85 0;
#X connect 39 0 33 0;
#X connect 41 0 44 0;
#X connect 42 0 43 0;
#X connect 43 0 86 0;
#X connect 44 0 42 0;
#X connect 44 0 55 0;
#X connect 45 0 43 0;
#X connect 47 0 116 0;
#X connect 48 0 116 1;
#X connect 49 0 116 2;
#X connect 50 0 51 0;
#X connect 51 0 52 0;
#X connect 51 1 53 0;
#X connect 52 0 54 0;
#X connect 53 0 54 0;
#X connect 54 0 43 0;
#X connect 55 0 56 0;
#X connect 56 0 50 0;
#X connect 58 0 9 0;
#X connect 59 0 17 0;
#X connect 60 0 41 0;
#X connect 61 0 28 0;
#X connect 61 0 26 2;
#X connect 62 0 29 0;
#X connect 63 0 67 0;
#X connect 64 0 68 0;
#X connect 66 0 63 0;
#X connect 67 0 65 0;
#X connect 68 0 66 0;
#X connect 69 0 64 0;
#X connect 70 0 71 0;
#X connect 70 1 72 0;
#X connect 70 2 73 0;
#X connect 70 3 74 0;
#X connect 71 0 5 0;
#X connect 72 0 5 0;
#X connect 73 0 5 0;
#X connect 74 0 5 0;
#X connect 75 0 76 0;
#X connect 75 1 77 0;
#X connect 75 2 78 0;
#X connect 75 3 79 0;
#X connect 76 0 15 0;
#X connect 77 0 15 0;
#X connect 78 0 15 0;
#X connect 79 0 15 0;
#X connect 80 0 7 0;
#X connect 80 0 20 0;
#X connect 80 0 75 0;
#X connect 81 0 1 0;
#X connect 82 0 13 0;
#X connect 83 0 6 0;
#X connect 84 0 0 0;
#X connect 85 0 0 0;
#X connect 86 0 0 0;
#X connect 87 0 88 0;
#X connect 88 0 89 0;
#X connect 89 0 0 0;
#X connect 90 0 93 0;
#X connect 91 0 92 0;
#X connect 92 0 94 0;
#X connect 93 0 91 0;
#X connect 94 0 87 0;
#X connect 95 0 96 0;
#X connect 96 0 97 0;
#X connect 97 0 0 0;
#X connect 98 0 96 0;
#X connect 99 0 96 0;
#X connect 100 0 95 0;
#X connect 100 0 101 0;
#X connect 100 0 98 0;
#X connect 100 0 99 0;
#X connect 101 0 96 0;
#X connect 102 0 108 0;
#X connect 103 0 107 0;
#X connect 103 0 106 0;
#X connect 103 0 105 0;
#X connect 103 0 104 0;
#X connect 104 0 102 0;
#X connect 105 0 102 0;
#X connect 106 0 102 0;
#X connect 107 0 102 0;
#X connect 108 0 0 0;
#X connect 109 0 28 0;
#X connect 110 0 1 0;
#X connect 111 0 110 1;
#X connect 112 0 0 0;
#X connect 113 0 103 0;
#X connect 113 0 100 0;
#X connect 116 0 45 0;
