#N canvas 0 0 1203 1050 12;
#X obj 302 330 f;
#X obj 302 355 % 16;
#X obj 302 549 + 0;
#X obj 302 574 *;
#X floatatom 357 605 5 0 16 0 - - - 0;
#X obj 434 310 == 0;
#X obj 330 330 + 1;
#X obj 302 599 % 16;
#X obj 302 624 <;
#X obj 302 649 sel 1;
#X obj 362 404 == 0;
#X obj 362 429 sel 1;
#X obj 362 453 bng 15 250 50 0 empty empty empty 17 7 0 10 #fcfcfc
#000000 #000000;
#X obj 362 473 f;
#X obj 362 498 % 16;
#X obj 390 473 + 1;
#X floatatom 362 523 5 0 0 0 - - - 0;
#X text 347 419 OFFSET, f 1;
#X text 217 356 STEP NUMBER;
#X text 402 605 TRIG NUMBER;
#X obj 357 580 loadmess 7;
#X obj 302 212 inlet;
#X text 179 330 EUCLIDEAN RHYTHM;
#X obj 302 291 metro 200;
#X obj 302 237 tgl 15 0 empty empty empty 17 7 0 10 #fcfcfc #000000
#000000 0 1;
#X floatatom 362 266 5 0 0 0 - - - 0;
#X obj 362 212 inlet;
#X obj 362 241 expr 0.5*(60000/$f1);
#X obj 590 212 inlet;
#X obj 302 674 outlet;
#X text 162 112 0 on/off \; 1 bpm \; 2 trig number;
#X connect 0 0 1 0;
#X connect 0 0 6 0;
#X connect 1 0 2 0;
#X connect 1 0 10 0;
#X connect 2 0 3 0;
#X connect 3 0 7 0;
#X connect 4 0 3 1;
#X connect 4 0 8 1;
#X connect 5 0 0 1;
#X connect 5 0 13 0;
#X connect 6 0 0 1;
#X connect 7 0 8 0;
#X connect 8 0 9 0;
#X connect 9 0 29 0;
#X connect 10 0 11 0;
#X connect 11 0 12 0;
#X connect 12 0 13 0;
#X connect 13 0 14 0;
#X connect 13 0 15 0;
#X connect 14 0 16 0;
#X connect 15 0 13 1;
#X connect 16 0 2 1;
#X connect 20 0 4 0;
#X connect 21 0 24 0;
#X connect 23 0 0 0;
#X connect 24 0 5 0;
#X connect 24 0 23 0;
#X connect 25 0 23 1;
#X connect 26 0 27 0;
#X connect 27 0 25 0;
#X connect 28 0 4 0;
