#N canvas 0 28 1130 1050 12;
#X obj 171 655 line~;
#X obj 333 603 line~;
#X obj 171 180 pack b f f;
#X obj 171 156 bng 15 250 50 0 empty empty empty 17 7 0 10 -262144
-1 -1;
#X floatatom 204 149 5 0 0 0 - - -;
#X floatatom 265 148 5 0 0 0 - - -;
#X msg 171 625 1 \$2;
#X obj 516 401 delay;
#X obj 212 263 delay;
#X msg 212 240 \$2;
#X msg 212 625 0 \$2, f 5;
#X obj 212 307 pack b f;
#X msg 516 372 \$2;
#X floatatom 386 324 5 0 0 0 - - -;
#X obj 516 481 pack b f;
#X floatatom 569 454 5 0 0 0 - - -;
#X msg 476 519 0 \$2;
#X obj 333 371 pack b f;
#X msg 333 410 1 \$2;
#X obj 631 327 spigot;
#X obj 670 308 tgl 15 0 empty empty empty 17 7 0 10 -262144 -1 -1 0
1;
#X obj 516 612 spigot;
#X obj 555 591 tgl 15 0 empty empty empty 17 7 0 10 -262144 -1 -1 0
1;
#X msg 446 416 \$2;
#X obj 446 440 delay;
#X obj 333 293 bng 15 250 50 0 empty empty empty 17 7 0 10 -262144
-1 -1;
#X msg 516 518 \$2;
#X obj 516 542 delay;
#X text 556 23 0 trigger fg1 \, 1 attack fg1 \, 2 decay fg1 \, 3 loop
fg1;
#X text 478 35 inputs:;
#X text 170 874 outputs:;
#X text 248 874 0 env fg1 \, 1 env fg2 \, 2 env fg1+fg2;
#X text 556 43 4 trigger fg2 \, 5 attack fg2 \, 6 decay fg2 \, 7 loop
fg2;
#X obj 29 21 inlet;
#X obj 83 21 inlet;
#X obj 137 21 inlet;
#X obj 191 21 inlet;
#X obj 245 21 inlet;
#X obj 299 21 inlet;
#X obj 353 21 inlet;
#X obj 407 21 inlet;
#X obj 403 813 +~;
#X obj 424 789 *~ 0.5;
#X obj 172 837 outlet~;
#X obj 332 837 outlet~;
#X obj 402 837 outlet~;
#X obj 254 698 *~ 0.5;
#X connect 0 0 43 0;
#X connect 0 0 46 0;
#X connect 1 0 44 0;
#X connect 1 0 42 0;
#X connect 2 0 6 0;
#X connect 2 0 9 0;
#X connect 3 0 2 0;
#X connect 4 0 2 1;
#X connect 5 0 2 2;
#X connect 5 0 11 1;
#X connect 6 0 0 0;
#X connect 7 0 14 0;
#X connect 7 0 19 0;
#X connect 8 0 11 0;
#X connect 8 0 17 0;
#X connect 9 0 8 0;
#X connect 10 0 0 0;
#X connect 11 0 10 0;
#X connect 11 0 12 0;
#X connect 12 0 7 0;
#X connect 13 0 17 1;
#X connect 14 0 16 0;
#X connect 14 0 26 0;
#X connect 15 0 14 1;
#X connect 16 0 1 0;
#X connect 17 0 18 0;
#X connect 17 0 23 0;
#X connect 18 0 1 0;
#X connect 19 0 3 0;
#X connect 20 0 19 1;
#X connect 21 0 25 0;
#X connect 22 0 21 1;
#X connect 23 0 24 0;
#X connect 24 0 14 0;
#X connect 25 0 17 0;
#X connect 26 0 27 0;
#X connect 27 0 21 0;
#X connect 33 0 3 0;
#X connect 34 0 4 0;
#X connect 35 0 5 0;
#X connect 36 0 20 0;
#X connect 37 0 25 0;
#X connect 38 0 13 0;
#X connect 39 0 15 0;
#X connect 40 0 22 0;
#X connect 41 0 45 0;
#X connect 42 0 41 1;
#X connect 46 0 41 0;
