#N canvas 0 0 1920 1048 12;
#X obj 454 236 spigot;
#X obj 551 236 spigot;
#X text 167 34 0 trigger fg1 \, 1 attack fg1 \, 2 decay fg1 \, 3 loop fg1;
#X text 78 72 inputs:;
#X text 81 446 outputs:;
#X text 159 446 0 env fg1 \, 1 env fg2 \, 2 env fg1+fg2;
#X text 155 65 4 trigger fg2 \, 5 attack fg2 \, 6 decay fg2 \, 7 loop fg2;
#X obj 75 116 inlet;
#X obj 144 112 inlet;
#X obj 206 112 inlet;
#X obj 272 112 inlet;
#X obj 328 112 inlet;
#X obj 386 112 inlet;
#X obj 447 114 inlet;
#X obj 514 114 inlet;
#X obj 385 380 *~ 0.5;
#X obj 91 381 *~ 0.5;
#N canvas 0 0 1362 1050 ad 0;
#X obj 150 206 inlet;
#X obj 203 206 inlet;
#X msg 207 277 \$2;
#X obj 207 302 delay;
#X obj 150 343 outlet;
#X obj 207 343 outlet;
#X obj 252 206 inlet;
#X obj 301 206 inlet;
#X msg 150 277 \$4 \$2;
#X obj 150 232 pack f f f f, f 22;
#X connect 0 0 9 0;
#X connect 1 0 9 1;
#X connect 2 0 3 0;
#X connect 3 0 5 0;
#X connect 6 0 9 2;
#X connect 7 0 9 3;
#X connect 8 0 4 0;
#X connect 9 0 8 0;
#X connect 9 0 2 0;
#X restore 231 311 pd ad;
#X f 12;
#N canvas 0 0 1362 1050 ad 0;
#X obj 150 206 inlet;
#X obj 203 206 inlet;
#X msg 207 277 \$2;
#X obj 207 302 delay;
#X obj 150 343 outlet;
#X obj 207 343 outlet;
#X obj 252 206 inlet;
#X obj 301 206 inlet;
#X msg 150 277 \$4 \$2;
#X obj 150 232 pack f f f f, f 22;
#X connect 0 0 9 0;
#X connect 1 0 9 1;
#X connect 2 0 3 0;
#X connect 3 0 5 0;
#X connect 6 0 9 2;
#X connect 7 0 9 3;
#X connect 8 0 4 0;
#X connect 9 0 8 0;
#X connect 9 0 2 0;
#X restore 75 310 pd ad;
#X f 12;
#X obj 345 277 loadmess 0;
#N canvas 0 0 1920 1048 ad 0;
#X obj 150 206 inlet;
#X obj 203 206 inlet;
#X msg 207 277 \$2;
#X obj 207 302 delay;
#X obj 150 343 outlet;
#X obj 207 343 outlet;
#X obj 252 206 inlet;
#X obj 301 206 inlet;
#X msg 150 277 \$4 \$2;
#X obj 150 230 pack f f f f, f 22;
#X connect 0 0 9 0;
#X connect 1 0 9 1;
#X connect 2 0 3 0;
#X connect 3 0 5 0;
#X connect 6 0 9 2;
#X connect 7 0 9 3;
#X connect 8 0 4 0;
#X connect 9 0 8 0;
#X connect 9 0 2 0;
#X restore 203 255 pd ad;
#X f 12;
#N canvas 0 0 1333 1050 ad 0;
#X obj 150 206 inlet;
#X obj 203 206 inlet;
#X msg 207 277 \$2;
#X obj 207 302 delay;
#X obj 150 343 outlet;
#X obj 207 343 outlet;
#X obj 252 206 inlet;
#X obj 301 206 inlet;
#X msg 150 277 \$4 \$2;
#X obj 150 232 pack f f f f, f 22;
#X connect 0 0 9 0;
#X connect 1 0 9 1;
#X connect 2 0 3 0;
#X connect 3 0 5 0;
#X connect 6 0 9 2;
#X connect 7 0 9 3;
#X connect 8 0 4 0;
#X connect 9 0 8 0;
#X connect 9 0 2 0;
#X restore 75 255 pd ad;
#X f 12;
#X obj 365 214 loadmess 1;
#X obj 75 352 line~;
#X obj 239 347 line~;
#X obj 239 415 outlet~;
#X obj 79 415 outlet~;
#X obj 357 416 outlet~;
#X obj 357 400 +~;
#X obj 183 141 max 1;
#X connect 0 0 21 0;
#X connect 1 0 20 0;
#X connect 7 0 21 0;
#X connect 8 0 21 1;
#X connect 9 0 29 0;
#X connect 10 0 0 1;
#X connect 11 0 20 0;
#X connect 12 0 20 1;
#X connect 13 0 17 1;
#X connect 14 0 1 1;
#X connect 15 0 28 1;
#X connect 16 0 28 0;
#X connect 17 0 24 0;
#X connect 17 1 1 0;
#X connect 18 0 23 0;
#X connect 18 1 17 0;
#X connect 18 1 0 0;
#X connect 19 0 18 3;
#X connect 19 0 17 3;
#X connect 20 0 24 0;
#X connect 20 1 17 0;
#X connect 21 0 23 0;
#X connect 21 1 18 0;
#X connect 21 1 20 0;
#X connect 22 0 20 3;
#X connect 22 0 21 3;
#X connect 23 0 16 0;
#X connect 23 0 26 0;
#X connect 24 0 15 0;
#X connect 24 0 25 0;
#X connect 28 0 27 0;
#X connect 29 0 21 2;
#X connect 29 0 18 1;
