#N canvas 0 0 1920 1052 12;
#X obj 95 93 tgl 15 0 empty empty empty 17 7 0 10 #fcfcfc #000000 #000000
0 1;
#X obj 95 167 f 0;
#X obj 128 167 + 1;
#X msg 113 141 0;
#X floatatom 44 155 5 0 0 0 - - - 0;
#X obj 184 229 select 0 20 40 60 80 100 120 140 160 180 200 220 240
260 280 300 320 340 360, f 77;
#X obj 95 113 metro 50;
#X floatatom 148 88 5 0 0 0 - - - 0;
#X obj 151 67 hsl 128 15 0 127 0 0 empty empty empty -2 -8 0 10 #fcfcfc
#000000 #000000 0 1;
#X obj 702 359 f;
#X obj 720 334 + 1;
#X obj 702 384 outlet;
#X obj 167 41 inlet;
#X obj 95 40 inlet;
#X obj 286 41 inlet;
#X text 356 53 0 on/off \; 1 tempo \; 2 reset;
#X connect 0 0 6 0;
#X connect 1 0 2 0;
#X connect 1 0 4 0;
#X connect 1 0 5 0;
#X connect 2 0 1 1;
#X connect 3 0 1 1;
#X connect 5 0 9 0;
#X connect 5 1 9 0;
#X connect 5 2 9 0;
#X connect 5 3 9 0;
#X connect 5 4 9 0;
#X connect 5 5 9 0;
#X connect 5 6 9 0;
#X connect 5 7 9 0;
#X connect 5 8 9 0;
#X connect 5 9 9 0;
#X connect 5 10 9 0;
#X connect 5 11 9 0;
#X connect 5 12 9 0;
#X connect 5 13 9 0;
#X connect 5 14 9 0;
#X connect 5 15 9 0;
#X connect 5 16 9 0;
#X connect 5 17 9 0;
#X connect 5 18 3 0;
#X connect 5 19 10 0;
#X connect 6 0 1 0;
#X connect 7 0 6 1;
#X connect 8 0 7 0;
#X connect 9 0 11 0;
#X connect 10 0 9 1;
#X connect 12 0 8 0;
#X connect 13 0 0 0;
#X connect 14 0 3 0;
