#N canvas 0 0 958 1050 12;
#X obj 172 328 metro 10;
#X obj 172 309 tgl 15 0 empty empty empty 17 7 0 10 #fcfcfc #000000
#000000 0 1;
#X obj 470 775 change;
#X obj 470 800 sel 0 1;
#X text 525 776 comparator;
#X obj 470 751 >;
#X obj 553 92 loadbang;
#X obj 553 163 metro, f 19;
#X obj 99 763 mrpeach/udpsend;
#X obj 99 724 mrpeach/packOSC;
#X obj 400 725 adc~ 1 2;
#X obj 400 750 dac~ 1 2;
#X msg 213 725 connect 192.168.5.1 7771;
#X obj 99 789 tgl 15 0 empty empty empty 17 7 0 10 #fcfcfc #000000
#000000 0 1;
#X msg 359 510 send /A/2/cv \$1;
#X msg 1379 537 send /B/1/cv \$1;
#X msg 1402 567 send /B/2/cv \$1;
#X msg 1425 597 send /B/3/cv \$1;
#X msg 1448 627 send /B/4/cv \$1;
#X text 1382 483 SHIFT REGISTER;
#X floatatom 98 451 5 0 0 0 - - - 0;
#X text 95 431 SINE LFO;
#X msg 1471 657 send /B/5/cv \$1;
#X text 509 163 CLOCK;
#X msg 98 509 send /A/1/cv \$1;
#X msg 1217 537 send /A/8/cv \$1;
#X msg 1156 510 send /A/7/cv \$1;
#X text 1152 455 AND / OR;
#X floatatom 227 452 5 0 0 0 - - - 0;
#X msg 965 510 send /A/6/cv \$1;
#X msg 227 510 send /A/3/cv \$1;
#X msg 553 510 send /A/4/trig 0.9;
#X msg 712 510 send /A/5/cv \$1, f 28;
#X floatatom 359 446 5 0 0 0 - - - 0;
#X text 359 423 SQUARE LFO;
#X text 226 430 SAW LFO;
#N canvas 0 0 1920 1052 lfo-saw 0;
#X obj 127 406 snapshot~;
#X obj 127 435 scale 0 1 0 0.49;
#X obj 127 321 phasor~ 1;
#X obj 127 287 inlet;
#X obj 127 460 outlet;
#X obj 267 307 inlet;
#X connect 0 0 1 0;
#X connect 1 0 4 0;
#X connect 2 0 0 0;
#X connect 3 0 2 0;
#X connect 5 0 0 0;
#X restore 227 475 pd lfo-saw;
#N canvas 0 0 1920 1052 lfo-sine 0;
#X obj 128 240 snapshot~;
#X obj 128 175 osc~ 1;
#X obj 128 269 scale -1 1 0 0.49;
#X obj 128 147 inlet;
#X obj 234 147 inlet;
#X obj 128 294 outlet;
#X connect 0 0 2 0;
#X connect 1 0 0 0;
#X connect 2 0 5 0;
#X connect 3 0 1 0;
#X connect 4 0 0 0;
#X restore 98 477 pd lfo-sine;
#N canvas 0 0 1920 1052 lfo-square 0;
#X obj 298 265 inlet;
#X obj 298 421 snapshot~;
#X obj 298 393 expr~ $v1 > $v2;
#X obj 298 448 scale 0 1 0.001 0.49;
#X obj 298 308 phasor~ 1;
#X obj 400 266 inlet;
#X obj 347 265 inlet;
#X obj 298 473 outlet;
#X obj 400 365 / 100;
#X obj 420 310 loadbang;
#X msg 420 335 50;
#X connect 0 0 4 0;
#X connect 1 0 3 0;
#X connect 2 0 1 0;
#X connect 3 0 7 0;
#X connect 4 0 2 0;
#X connect 5 0 8 0;
#X connect 6 0 1 0;
#X connect 8 0 2 1;
#X connect 9 0 10 0;
#X connect 10 0 8 0;
#X restore 359 475 pd lfo-square;
#X floatatom 447 447 5 0 0 0 - - - 0;
#X msg 1496 687 send /B/6/cv \$1;
#N canvas 0 0 967 1050 and-or 0;
#X obj 547 300 inlet;
#X obj 547 359 random 2;
#X obj 614 359 random 2;
#X obj 547 458 ==;
#X obj 614 383 t b f;
#X obj 547 487 scale 0 1 1e-05 0.9999;
#X obj 718 487 scale 0 1 1e-05 0.9999;
#X obj 718 458 !=;
#X obj 547 512 outlet;
#X obj 718 512 outlet;
#X connect 0 0 1 0;
#X connect 0 0 2 0;
#X connect 1 0 3 0;
#X connect 1 0 7 0;
#X connect 2 0 4 0;
#X connect 3 0 5 0;
#X connect 4 0 3 0;
#X connect 4 0 7 0;
#X connect 4 1 3 1;
#X connect 4 1 7 1;
#X connect 5 0 8 0;
#X connect 6 0 9 0;
#X connect 7 0 6 0;
#X restore 1156 477 pd and-or;
#N canvas 0 0 967 1050 tamed-random 0;
#X obj 552 298 inlet;
#X obj 646 299 inlet;
#X obj 552 499 / 127;
#X obj 552 470 random 102;
#X floatatom 646 409 5 0 0 0 - - - 0;
#X obj 646 444 / 127;
#X obj 695 469 / 127;
#X obj 695 444 + 24;
#X obj 695 299 loadbang;
#X msg 695 324 69;
#X obj 552 529 scale 0 0.8 0 0, f 23;
#X obj 552 554 outlet;
#X connect 0 0 3 0;
#X connect 1 0 4 0;
#X connect 2 0 10 0;
#X connect 3 0 2 0;
#X connect 4 0 5 0;
#X connect 4 0 7 0;
#X connect 5 0 10 3;
#X connect 6 0 10 4;
#X connect 7 0 6 0;
#X connect 8 0 9 0;
#X connect 9 0 4 0;
#X connect 10 0 11 0;
#X restore 965 482 pd tamed-random;
#X floatatom 1067 456 5 0 0 0 - - - 0;
#N canvas 0 0 1920 1052 random-gen 0;
#X obj 377 365 inlet;
#X obj 377 491 * 0.01;
#X obj 465 464 * 0.01;
#X obj 377 463 + 50;
#X obj 377 437 random 50;
#X obj 338 638 spigot;
#X obj 465 639 spigot;
#X obj 377 543 change;
#X obj 377 568 sel 0;
#X obj 465 437 random 30;
#X obj 377 518 > 0.9;
#X obj 504 615 tgl 15 0 empty empty empty 17 7 0 10 #fcfcfc #000000
#000000 0 1;
#X obj 377 615 tgl 15 0 empty empty empty 17 7 0 10 #fcfcfc #000000
#000000 0 1;
#X obj 530 570 loadbang;
#X msg 530 595 0;
#X msg 566 595 1;
#X obj 338 691 outlet;
#X obj 437 365 inlet;
#X obj 525 365 inlet;
#X obj 585 365 inlet;
#X connect 0 0 4 0;
#X connect 0 0 9 0;
#X connect 1 0 5 0;
#X connect 1 0 10 0;
#X connect 2 0 6 0;
#X connect 3 0 1 0;
#X connect 4 0 3 0;
#X connect 5 0 16 0;
#X connect 6 0 16 0;
#X connect 7 0 8 0;
#X connect 8 0 11 0;
#X connect 8 0 12 0;
#X connect 9 0 2 0;
#X connect 10 0 7 0;
#X connect 11 0 6 1;
#X connect 12 0 5 1;
#X connect 13 0 14 0;
#X connect 13 0 15 0;
#X connect 14 0 12 0;
#X connect 15 0 11 0;
#X connect 17 0 4 1;
#X connect 17 0 3 1;
#X connect 18 0 9 1;
#X connect 19 0 10 1;
#X restore 712 483 pd random-gen;
#X f 24;
#X floatatom 767 459 5 0 0 0 - - - 0;
#X floatatom 822 459 5 0 0 0 - - - 0;
#X floatatom 877 459 5 0 0 0 - - - 0;
#N canvas 0 0 1920 1052 shift-register 0;
#X obj 325 408 inlet;
#X obj 325 491 bucket 4, f 38;
#X obj 325 466 * 0.01;
#X obj 325 439 random 100;
#X obj 325 633 outlet;
#X obj 412 633 outlet;
#X obj 500 633 outlet;
#X obj 588 633 outlet;
#X obj 683 558 pack f f;
#X obj 683 608 line;
#X msg 683 583 \$1 \, \$2 5000;
#X obj 822 559 pack f f;
#X obj 822 609 line;
#X msg 822 584 \$1 \, \$2 5000;
#X obj 683 633 outlet;
#X obj 822 634 outlet;
#X connect 0 0 3 0;
#X connect 1 0 4 0;
#X connect 1 0 8 0;
#X connect 1 0 11 0;
#X connect 1 1 5 0;
#X connect 1 2 6 0;
#X connect 1 3 7 0;
#X connect 2 0 1 0;
#X connect 3 0 2 0;
#X connect 8 0 10 0;
#X connect 9 0 14 0;
#X connect 10 0 9 0;
#X connect 11 0 13 0;
#X connect 12 0 15 0;
#X connect 13 0 12 0;
#X restore 1379 507 pd shift-register;
#X obj 553 143 tgl 15 0 empty empty empty 17 7 0 10 #fcfcfc #000000
#000000 0 1;
#X msg 553 117 1;
#N canvas 0 0 1920 1052 bpm-calc 0;
#X obj 434 194 inlet;
#X obj 434 274 expr 60000/$f1;
#X obj 479 195 loadbang;
#X msg 479 220 124;
#X obj 434 299 outlet;
#X connect 0 0 1 0;
#X connect 1 0 4 0;
#X connect 2 0 3 0;
#X connect 3 0 1 0;
#X restore 683 137 pd bpm-calc;
#X floatatom 683 112 5 0 0 0 - - - 0;
#X connect 0 0 37 1;
#X connect 0 0 36 1;
#X connect 0 0 38 1;
#X connect 1 0 0 0;
#X connect 2 0 3 0;
#X connect 5 0 2 0;
#X connect 6 0 50 0;
#X connect 7 0 31 0;
#X connect 7 0 41 0;
#X connect 7 0 42 0;
#X connect 7 0 44 0;
#X connect 7 0 48 0;
#X connect 8 0 13 0;
#X connect 9 0 8 0;
#X connect 10 0 11 0;
#X connect 10 1 11 1;
#X connect 12 0 8 0;
#X connect 14 0 9 0;
#X connect 15 0 9 0;
#X connect 16 0 9 0;
#X connect 17 0 9 0;
#X connect 18 0 9 0;
#X connect 20 0 37 0;
#X connect 22 0 9 0;
#X connect 24 0 9 0;
#X connect 25 0 9 0;
#X connect 26 0 9 0;
#X connect 28 0 36 0;
#X connect 29 0 9 0;
#X connect 30 0 9 0;
#X connect 31 0 9 0;
#X connect 32 0 9 0;
#X connect 33 0 38 0;
#X connect 36 0 30 0;
#X connect 37 0 24 0;
#X connect 38 0 14 0;
#X connect 39 0 38 2;
#X connect 40 0 9 0;
#X connect 41 0 26 0;
#X connect 41 1 25 0;
#X connect 42 0 29 0;
#X connect 43 0 42 1;
#X connect 44 0 32 0;
#X connect 45 0 44 1;
#X connect 46 0 44 2;
#X connect 47 0 44 3;
#X connect 48 0 15 0;
#X connect 48 1 16 0;
#X connect 48 2 17 0;
#X connect 48 3 18 0;
#X connect 48 4 22 0;
#X connect 48 5 40 0;
#X connect 49 0 7 0;
#X connect 50 0 49 0;
#X connect 50 0 1 0;
#X connect 51 0 7 1;
#X connect 52 0 51 0;
