#N canvas 0 0 992 1041 12;
#X obj 261 369 samphold~;
#X obj 320 323 phasor~;
#X obj 96 78 noise~;
#X obj 21 221 min~;
#X obj 65 164 *~ -1;
#X obj 65 188 +~ 1;
#X obj 21 245 *~ 4;
#X obj 21 269 -~ 1;
#X obj 22 524 samphold~;
#X text 216 298 LFO into S&H;
#X obj 82 422 phasor~;
#X obj 82 446 expr~ $v1 > 0.5;
#X obj 82 470 *~ 2;
#X obj 82 494 -~ 1;
#X obj 22 128 phasor~ 100;
#X text 113 180 triangle;
#X obj 23 546 *~ 1;
#X obj 320 299 inlet;
#X obj 82 398 inlet;
#X text 57 373 clock pulse;
#X text 158 543 -1 to 1;
#X text 358 368 -1 to 1;
#X obj 96 104 cyclone/snapshot~ 10;
#X obj 261 393 cyclone/snapshot~ 10;
#X obj 23 681 outlet;
#X obj 497 587 inlet;
#X obj 540 588 inlet;
#X obj 261 452 outlet;
#X obj 665 378 inlet;
#X obj 708 379 inlet;
#X obj 261 427 scale -1 1 30 500, f 29;
#X obj 23 656 scale -1 1 30 500, f 29;
#X floatatom 83 681 5 0 0 0 - - - 0;
#X obj 132 273 bng 15 250 50 0 empty empty empty 17 7 0 10 #fcfcfc #000000 #000000;
#X floatatom 175 389 5 0 0 0 - - - 0;
#X obj 24 569 snapshot~;
#X connect 0 0 23 0;
#X connect 1 0 0 1;
#X connect 2 0 22 0;
#X connect 3 0 6 0;
#X connect 4 0 5 0;
#X connect 5 0 3 1;
#X connect 6 0 7 0;
#X connect 7 0 8 0;
#X connect 7 0 0 0;
#X connect 8 0 16 0;
#X connect 10 0 11 0;
#X connect 11 0 12 0;
#X connect 12 0 13 0;
#X connect 13 0 8 1;
#X connect 14 0 3 0;
#X connect 14 0 4 0;
#X connect 16 0 35 0;
#X connect 17 0 1 0;
#X connect 18 0 10 0;
#X connect 22 0 14 1;
#X connect 23 0 30 0;
#X connect 25 0 31 3;
#X connect 26 0 31 4;
#X connect 28 0 30 3;
#X connect 29 0 30 4;
#X connect 30 0 27 0;
#X connect 31 0 24 0;
#X connect 31 0 32 0;
#X connect 33 0 35 0;
#X connect 34 0 10 0;
#X connect 35 0 31 0;
#X coords 0 1041 1 1040 160 90 0;
