#N canvas 0 28 1188 1050 12;
#X obj 261 378 samphold~;
#X obj 320 332 phasor~;
#X obj 96 87 noise~;
#X obj 21 230 min~;
#X obj 65 173 *~ -1;
#X obj 65 197 +~ 1;
#X obj 21 254 *~ 4;
#X obj 21 278 -~ 1;
#X text 13 61 triangle wave synced w/ noise;
#X obj 22 533 samphold~;
#X text 216 307 LFO into S&H;
#X obj 82 431 phasor~;
#X obj 82 455 expr~ $v1 > 0.5;
#X obj 82 479 *~ 2;
#X obj 82 503 -~ 1;
#X obj 22 137 phasor~ 100;
#X text 113 189 triangle;
#X obj 23 555 *~ 1;
#X obj 320 308 inlet;
#X obj 82 407 inlet;
#X text 57 382 clock pulse;
#X text 15 22 inlets 0: clock pulse 1: freq outlet 1 outlet 0: samphold
1 1: samphold 2;
#X text 158 552 -1 to 1;
#X text 358 377 -1 to 1;
#X obj 96 113 cyclone/snapshot~ 10;
#X obj 23 579 cyclone/snapshot~ 10;
#X obj 261 402 cyclone/snapshot~ 10;
#X obj 23 690 outlet;
#X obj 497 596 inlet;
#X obj 540 597 inlet;
#X obj 261 461 outlet;
#X obj 665 387 inlet;
#X obj 708 388 inlet;
#X obj 261 436 scale -1 1 30 500, f 29;
#X obj 23 665 scale -1 1 30 500, f 29;
#X connect 0 0 26 0;
#X connect 1 0 0 1;
#X connect 2 0 24 0;
#X connect 3 0 6 0;
#X connect 4 0 5 0;
#X connect 5 0 3 1;
#X connect 6 0 7 0;
#X connect 7 0 9 0;
#X connect 7 0 0 0;
#X connect 9 0 17 0;
#X connect 11 0 12 0;
#X connect 12 0 13 0;
#X connect 13 0 14 0;
#X connect 14 0 9 1;
#X connect 15 0 3 0;
#X connect 15 0 4 0;
#X connect 17 0 25 0;
#X connect 18 0 1 0;
#X connect 19 0 11 0;
#X connect 24 0 15 1;
#X connect 25 0 34 0;
#X connect 26 0 33 0;
#X connect 28 0 34 3;
#X connect 29 0 34 4;
#X connect 31 0 33 3;
#X connect 32 0 33 4;
#X connect 33 0 30 0;
#X connect 34 0 27 0;
#X coords 0 1050 1 1049 160 90 0;
