#N canvas 0 0 958 1050 12;
#X obj 28 190 counter 7, f 67;
#X obj 28 595 sel 0;
#X obj 157 595 sel 1;
#X obj 286 595 sel 2;
#X obj 415 595 sel 3;
#X obj 544 595 sel 4;
#X obj 673 595 sel 5;
#X obj 802 595 sel 6;
#X obj 931 595 sel 7;
#X obj 28 670 spigot, f 8;
#X obj 157 670 spigot, f 8;
#X obj 28 742 outlet;
#X obj 286 670 spigot, f 8;
#X obj 415 670 spigot, f 8;
#X obj 544 670 spigot, f 8;
#X obj 673 670 spigot, f 8;
#X obj 802 670 spigot, f 8;
#X obj 931 670 spigot, f 8;
#X obj 550 328 random 100;
#X obj 550 378 unpack f f f f f f f f, f 79;
#X obj 81 642 tgl 15 0 empty empty empty 17 7 0 10 #fcfcfc #000000
#000000 0 1;
#X obj 210 642 tgl 15 0 empty empty empty 17 7 0 10 #fcfcfc #000000
#000000 0 1;
#X obj 339 642 tgl 15 0 empty empty empty 17 7 0 10 #fcfcfc #000000
#000000 0 1;
#X obj 468 642 tgl 15 0 empty empty empty 17 7 0 10 #fcfcfc #000000
#000000 0 1;
#X obj 597 642 tgl 15 0 empty empty empty 17 7 0 10 #fcfcfc #000000
#000000 0 1;
#X obj 726 642 tgl 15 0 empty empty empty 17 7 0 10 #fcfcfc #000000
#000000 0 1;
#X obj 855 642 tgl 15 0 empty empty empty 17 7 0 10 #fcfcfc #000000
#000000 0 1;
#X obj 984 642 tgl 15 0 empty empty empty 17 7 0 10 #fcfcfc #000000
#000000 0 1;
#X obj 550 303 uzi 8;
#X obj 550 353 zl group 8;
#X obj 550 257 inlet;
#X obj 116 77 expr 60000/$f1;
#X obj 116 49 inlet;
#X obj 550 282 bng 15 250 50 0 empty empty empty 17 7 0 10 #fcfcfc
#000000 #000000;
#X obj 550 403 s \$0-one;
#X obj 81 595 r \$0-one;
#X obj 628 403 s \$0-two;
#X obj 211 596 r \$0-two;
#X obj 339 595 r \$0-thr;
#X obj 468 595 r \$0-fou;
#X obj 597 595 r \$0-fiv;
#X obj 726 595 r \$0-six;
#X obj 855 595 r \$0-sev;
#X obj 984 595 r \$0-eig;
#X obj 707 403 s \$0-thr;
#X obj 785 403 s \$0-fou;
#X obj 864 403 s \$0-fiv;
#X obj 942 403 s \$0-six;
#X obj 1021 403 s \$0-sev;
#X obj 1100 403 s \$0-eig;
#X obj 28 159 metro, f 13;
#X msg 28 124 1;
#X msg 60 125 0;
#X obj 28 75 sel 1;
#X obj 28 49 inlet;
#X obj 494 241 sel 1;
#X obj 494 217 % 2;
#X obj 81 619 < 100;
#X obj 339 619 < 30;
#X obj 210 619 < 20;
#X obj 468 619 < 80, f 6;
#X obj 726 619 < 59;
#X obj 855 619 < 44;
#X obj 984 619 < 77;
#X obj 228 28 inlet;
#X floatatom 228 53 5 0 0 0 - - - 0;
#X obj 228 77 t b f;
#X obj 533 77 inlet;
#X obj 494 269 spigot;
#X obj 465 216 % 2;
#X obj 435 216 % 2;
#X obj 435 241 - 1;
#X obj 435 266 abs;
#X obj 385 219 % 3;
#X obj 385 244 sel 1;
#X obj 28 640 bng 15 250 50 0 empty empty empty 17 7 0 10 #fcfcfc #000000
#000000;
#X obj 157 642 bng 15 250 50 0 empty empty empty 17 7 0 10 #fcfcfc
#000000 #000000;
#X obj 286 642 bng 15 250 50 0 empty empty empty 17 7 0 10 #fcfcfc
#000000 #000000;
#X obj 415 642 bng 15 250 50 0 empty empty empty 17 7 0 10 #fcfcfc
#000000 #000000;
#X obj 544 642 bng 15 250 50 0 empty empty empty 17 7 0 10 #fcfcfc
#000000 #000000;
#X obj 673 642 bng 15 250 50 0 empty empty empty 17 7 0 10 #fcfcfc
#000000 #000000;
#X obj 802 642 bng 15 250 50 0 empty empty empty 17 7 0 10 #fcfcfc
#000000 #000000;
#X obj 931 642 bng 15 250 50 0 empty empty empty 17 7 0 10 #fcfcfc
#000000 #000000;
#X msg 1232 514 100 10 0 20 0 60 10 5;
#X obj 1232 599 unpack f f f f f f f f;
#X text 1196 514 Kick;
#X text 1406 554 Clap;
#X msg 1442 554 0 20 12 20 60 10 20 12;
#X text 1406 514 Hat;
#X msg 1442 514 70 30 75 40 60 80 70 42;
#X text 357 270 operators;
#X obj 934 145 sel 0;
#X obj 984 145 sel 1;
#X obj 1034 145 sel 1;
#X obj 936 220 metro;
#X obj 936 247 bng 15 250 50 0 empty empty empty 17 7 0 10 #fcfcfc
#000000 #000000;
#X obj 936 275 spigot, f 13;
#X obj 1024 196 tgl 15 0 empty empty empty 17 7 0 10 #fcfcfc #000000
#000000 0 1;
#X obj 968 196 * 0.25;
#X obj 934 110 random 3;
#X obj 936 330 spigot, f 17;
#X obj 1052 303 tgl 15 0 empty empty empty 17 7 0 10 #fcfcfc #000000
#000000 0 1;
#X obj 1052 275 del 20;
#X text 862 276 retrigger;
#X obj 116 122 * 0.25;
#X obj 597 619 < 100;
#X obj 270 52 loadmess 0.25;
#X text 1232 482 PROBABILITIES FOR DIFFERENT INSTRUMENTS;
#X connect 0 0 1 0;
#X connect 0 0 2 0;
#X connect 0 0 8 0;
#X connect 0 0 7 0;
#X connect 0 0 6 0;
#X connect 0 0 5 0;
#X connect 0 0 4 0;
#X connect 0 0 3 0;
#X connect 0 3 56 0;
#X connect 0 3 69 0;
#X connect 1 0 75 0;
#X connect 2 0 76 0;
#X connect 3 0 77 0;
#X connect 4 0 78 0;
#X connect 5 0 79 0;
#X connect 6 0 80 0;
#X connect 7 0 81 0;
#X connect 8 0 82 0;
#X connect 9 0 11 0;
#X connect 10 0 11 0;
#X connect 12 0 11 0;
#X connect 13 0 11 0;
#X connect 14 0 11 0;
#X connect 15 0 11 0;
#X connect 16 0 11 0;
#X connect 17 0 11 0;
#X connect 18 0 29 0;
#X connect 19 0 34 0;
#X connect 19 1 36 0;
#X connect 19 2 44 0;
#X connect 19 3 45 0;
#X connect 19 4 46 0;
#X connect 19 5 47 0;
#X connect 19 6 48 0;
#X connect 19 7 49 0;
#X connect 20 0 9 1;
#X connect 21 0 10 1;
#X connect 22 0 12 1;
#X connect 23 0 13 1;
#X connect 24 0 14 1;
#X connect 25 0 15 1;
#X connect 26 0 16 1;
#X connect 27 0 17 1;
#X connect 28 0 18 0;
#X connect 29 0 19 0;
#X connect 30 0 33 0;
#X connect 31 0 104 0;
#X connect 32 0 31 0;
#X connect 33 0 28 0;
#X connect 35 0 57 0;
#X connect 37 0 59 0;
#X connect 38 0 58 0;
#X connect 39 0 60 0;
#X connect 40 0 105 0;
#X connect 41 0 61 0;
#X connect 42 0 62 0;
#X connect 43 0 63 0;
#X connect 50 0 0 0;
#X connect 50 0 99 0;
#X connect 51 0 50 0;
#X connect 52 0 50 0;
#X connect 52 0 0 2;
#X connect 53 0 51 0;
#X connect 53 1 52 0;
#X connect 54 0 53 0;
#X connect 55 0 68 0;
#X connect 56 0 55 0;
#X connect 57 0 20 0;
#X connect 58 0 22 0;
#X connect 59 0 21 0;
#X connect 60 0 23 0;
#X connect 61 0 25 0;
#X connect 62 0 26 0;
#X connect 63 0 27 0;
#X connect 64 0 65 0;
#X connect 65 0 66 0;
#X connect 66 0 104 0;
#X connect 66 1 104 1;
#X connect 67 0 68 1;
#X connect 68 0 33 0;
#X connect 70 0 71 0;
#X connect 71 0 72 0;
#X connect 73 0 74 0;
#X connect 75 0 9 0;
#X connect 76 0 10 0;
#X connect 77 0 12 0;
#X connect 78 0 13 0;
#X connect 79 0 14 0;
#X connect 80 0 15 0;
#X connect 81 0 16 0;
#X connect 82 0 17 0;
#X connect 83 0 84 0;
#X connect 84 0 57 1;
#X connect 84 1 59 1;
#X connect 84 2 58 1;
#X connect 84 3 60 1;
#X connect 84 4 105 1;
#X connect 84 5 61 1;
#X connect 84 6 62 1;
#X connect 84 7 63 1;
#X connect 87 0 84 0;
#X connect 89 0 84 0;
#X connect 94 0 95 0;
#X connect 95 0 96 0;
#X connect 96 0 100 0;
#X connect 97 0 96 1;
#X connect 98 0 94 1;
#X connect 99 0 91 0;
#X connect 99 0 92 0;
#X connect 99 0 93 0;
#X connect 101 0 100 1;
#X connect 102 0 101 0;
#X connect 104 0 50 1;
#X connect 104 0 98 0;
#X connect 105 0 24 0;
#X connect 106 0 65 0;
