#N canvas 0 46 1920 1034 10;
#X floatatom 470 439 5 0 0 2 - - -;
#X floatatom 439 539 10 0 0 0 - - -;
#X floatatom 508 539 10 0 0 0 - - -;
#X obj 473 423 hsl 100 13 -180 180 0 1 empty empty azimuth 10 7 0 10
-262144 -1 -1 3927 1;
#X text 478 244 to output updated values;
#X obj 460 243 tgl 15 0 empty empty empty 17 7 0 10 -262144 -1 -1 0
1;
#X obj 424 608 *~;
#X obj 453 609 *~;
#X floatatom 577 539 10 0 0 0 - - -;
#X floatatom 646 539 10 0 0 0 - - -;
#X obj 484 608 *~;
#X obj 513 609 *~;
#X obj 439 469 vbap 0 0 30;
#X text 435 122 Define 2D speaker arrangement with speakers at -135
\, -45 \, 0 \, 45 and 135 degree positions (0 degrees is the center
front). This is a classic 4.1 setup.;
#X floatatom 33 219 5 0 0 0 - - -;
#X obj 83 251 * 1.02;
#X obj 138 252 * 1.03;
#X obj 189 253 * 1.04;
#X obj 83 270 phasor~;
#X obj 133 270 phasor~;
#X obj 183 270 phasor~;
#X obj 33 289 *~ 0.1;
#X obj 83 289 *~ 0.1;
#X obj 33 315 +~;
#X obj 133 289 *~ 0.1;
#X obj 183 290 *~ 0.1;
#X obj 133 312 +~;
#X obj 33 338 +~;
#X obj 301 540 *~ 0.05;
#X obj 33 270 phasor~;
#X obj 30 151 *~ 0.1;
#X obj 31 75 osc~ 49;
#X obj 31 109 overdrive~;
#X obj 31 129 clip~ -1 1;
#X floatatom 97 84 5 0 0 0 - - -;
#X obj 171 131 noise~;
#X floatatom 715 540 10 0 0 0 - - -;
#X floatatom 784 540 10 0 0 0 - - -;
#X floatatom 853 540 10 0 0 0 - - -;
#X obj 568 607 *~;
#X obj 597 608 *~;
#X obj 628 607 *~;
#X obj 439 490 route 0 1 2 3 4 5 6;
#X obj 425 652 dac~ 1 2 3 4 5 6 7;
#X msg 439 169 define_loudspeakers 3 -135 0 -45 0 45 0 135 0 0 -30
-90 -30 90 -30, f 68;
#X obj 171 151 *~ 0.05;
#X obj 470 362 bng 15 250 50 0 empty empty empty 17 7 0 10 -262144
-1 -1;
#X obj 470 403 line;
#X msg 470 383 -90 \, 90 3000;
#X obj 489 363 del 3000;
#X floatatom 1070 469 5 0 0 2 - - -;
#X floatatom 1039 567 10 0 0 0 - - -;
#X floatatom 1108 567 10 0 0 0 - - -;
#X obj 1073 453 hsl 100 13 -180 180 0 1 empty empty azimuth 10 7 0
10 -262144 -1 -1 9108 1;
#X obj 1024 613 *~;
#X obj 1053 614 *~;
#X floatatom 1177 567 10 0 0 0 - - -;
#X floatatom 1246 567 10 0 0 0 - - -;
#X obj 1084 613 *~;
#X obj 1113 614 *~;
#X obj 1039 497 vbap 0 0 30;
#X obj 1070 393 bng 15 250 50 0 empty empty empty 17 7 0 10 -262144
-1 -1;
#X obj 1089 393 del 5000;
#X obj 1070 434 line;
#X floatatom 1315 568 10 0 0 0 - - -;
#X floatatom 1384 568 10 0 0 0 - - -;
#X floatatom 1453 568 10 0 0 0 - - -;
#X obj 1168 612 *~;
#X obj 1197 613 *~;
#X obj 1228 612 *~;
#X obj 1039 518 route 0 1 2 3 4 5 6;
#X obj 1025 655 dac~ 1 2 3 4 5 6 7;
#X obj 955 565 *~ 0.03;
#X msg 1070 414 180 \, -180 5000;
#X text 34 55 sub bass;
#X text 34 197 unison saw;
#X obj 460 265 metro 10;
#X text 179 113 noise;
#X connect 0 0 12 1;
#X connect 1 0 6 1;
#X connect 2 0 7 1;
#X connect 3 0 0 0;
#X connect 5 0 76 0;
#X connect 6 0 43 0;
#X connect 7 0 43 1;
#X connect 8 0 10 1;
#X connect 9 0 11 1;
#X connect 10 0 43 2;
#X connect 11 0 43 3;
#X connect 12 0 42 0;
#X connect 14 0 15 0;
#X connect 14 0 16 0;
#X connect 14 0 17 0;
#X connect 14 0 29 0;
#X connect 15 0 18 0;
#X connect 16 0 19 0;
#X connect 17 0 20 0;
#X connect 18 0 22 0;
#X connect 19 0 24 0;
#X connect 20 0 25 0;
#X connect 21 0 23 0;
#X connect 22 0 23 1;
#X connect 23 0 27 0;
#X connect 24 0 26 0;
#X connect 25 0 26 1;
#X connect 26 0 27 1;
#X connect 28 0 6 0;
#X connect 28 0 7 0;
#X connect 28 0 10 0;
#X connect 28 0 11 0;
#X connect 28 0 39 0;
#X connect 28 0 40 0;
#X connect 28 0 41 0;
#X connect 29 0 21 0;
#X connect 31 0 32 0;
#X connect 32 0 33 0;
#X connect 33 0 30 0;
#X connect 34 0 32 1;
#X connect 35 0 45 0;
#X connect 36 0 39 1;
#X connect 37 0 40 1;
#X connect 38 0 41 1;
#X connect 39 0 43 4;
#X connect 40 0 43 5;
#X connect 41 0 43 6;
#X connect 42 0 1 0;
#X connect 42 1 2 0;
#X connect 42 2 8 0;
#X connect 42 3 9 0;
#X connect 42 4 36 0;
#X connect 42 5 37 0;
#X connect 42 6 38 0;
#X connect 44 0 12 0;
#X connect 44 0 60 0;
#X connect 46 0 48 0;
#X connect 46 0 49 0;
#X connect 47 0 3 0;
#X connect 48 0 47 0;
#X connect 49 0 46 0;
#X connect 50 0 60 1;
#X connect 51 0 54 1;
#X connect 52 0 55 1;
#X connect 53 0 50 0;
#X connect 54 0 71 0;
#X connect 55 0 71 1;
#X connect 56 0 58 1;
#X connect 57 0 59 1;
#X connect 58 0 71 2;
#X connect 59 0 71 3;
#X connect 60 0 70 0;
#X connect 61 0 62 0;
#X connect 61 0 73 0;
#X connect 62 0 61 0;
#X connect 63 0 53 0;
#X connect 64 0 67 1;
#X connect 65 0 68 1;
#X connect 66 0 69 1;
#X connect 67 0 71 4;
#X connect 68 0 71 5;
#X connect 69 0 71 6;
#X connect 70 0 51 0;
#X connect 70 1 52 0;
#X connect 70 2 56 0;
#X connect 70 3 57 0;
#X connect 70 4 64 0;
#X connect 70 5 65 0;
#X connect 70 6 66 0;
#X connect 72 0 54 0;
#X connect 72 0 55 0;
#X connect 72 0 58 0;
#X connect 72 0 59 0;
#X connect 72 0 67 0;
#X connect 72 0 68 0;
#X connect 72 0 69 0;
#X connect 73 0 63 0;
#X connect 76 0 12 0;
#X connect 76 0 60 0;
