#N canvas 1651 71 267 298 12;
#X obj 421 20 cnv 15 100 60 empty empty empty 20 12 0 14 -233017 -66577
0;
#X obj 327 43 loadbang;
#X msg 327 67 0.5;
#X text 107 124 azimut;
#X obj 185 124 hsl 128 15 0 360 0 0 empty empty empty -2 -8 0 10 -262144
-1 -1 0 1;
#X floatatom 323 123 5 0 0 0 - - -;
#X obj 185 144 hsl 128 15 -30 30 0 0 empty empty empty -2 -8 0 10 -262144
-1 -1 0 1;
#X floatatom 323 143 5 0 0 0 - - -;
#X obj 185 163 hsl 128 15 0 100 0 0 empty empty empty -2 -8 0 10 -262144
-1 -1 0 1;
#X floatatom 323 162 5 0 0 0 - - -;
#X obj 185 183 hsl 128 15 0 1 0 0 empty empty empty -2 -8 0 10 -262144
-1 -1 6350 1;
#X floatatom 323 182 5 0 0 0 - - -;
#X text 107 144 elevation;
#X text 107 163 spread;
#X text 107 183 volume;
#X obj 182 17 inlet;
#X obj 230 17 inlet;
#X obj 278 17 inlet;
#X obj 327 17 inlet;
#X obj -59 508 vbap 0 0;
#X text 36 393 spread;
#X text -223 486 ls directions;
#X obj -530 985 *~;
#X obj -474 984 *~;
#X obj -416 984 *~;
#X obj -360 984 *~;
#X obj -303 984 *~;
#X obj -246 984 *~;
#X obj -189 984 *~;
#X obj -132 984 *~;
#X obj -75 984 *~;
#X text -41 395 elevation;
#X text -107 394 azimuth;
#X text -516 400 the sgnal;
#X text 110 392 master volume;
#X obj -531 1009 outlet~;
#X obj -474 1009 outlet~;
#X obj -417 1009 outlet~;
#X obj -360 1009 outlet~;
#X obj -303 1009 outlet~;
#X obj -246 1009 outlet~;
#X obj -189 1009 outlet~;
#X obj -132 1009 outlet~;
#X obj -75 1009 outlet~;
#X obj -510 420 inlet~;
#X obj -95 441 t b f;
#X obj -34 441 t b f;
#X obj 40 443 t b f;
#X obj 114 602 *, f 5;
#X obj 132 575 t b f;
#X obj -262 666 s v1;
#X obj -225 666 s v2;
#X obj -188 666 s v3;
#X obj -151 666 s v4;
#X obj -114 666 s v5;
#X obj -77 666 s v6;
#X obj -40 666 s v7;
#X obj -3 666 s v8;
#X obj 34 666 s v9;
#X obj 94 575 r v1;
#X obj 198 602 *, f 5;
#X obj 216 575 t b f;
#X obj 280 603 *, f 5;
#X obj 298 576 t b f;
#X obj 364 603 *, f 5;
#X obj 382 576 t b f;
#X obj 446 604 *, f 5;
#X obj 464 577 t b f;
#X obj 530 604 *, f 5;
#X obj 548 577 t b f;
#X obj 612 605 *, f 5;
#X obj 630 578 t b f;
#X obj 696 605 *, f 5;
#X obj 714 578 t b f;
#X obj 779 605 *, f 5;
#X obj 797 578 t b f;
#X obj 178 575 r v2;
#X obj 260 576 r v3;
#X obj 344 576 r v4;
#X obj 426 577 r v5;
#X obj 510 577 r v6;
#X obj 592 578 r v7;
#X obj 676 578 r v8;
#X floatatom 266 901 5 0 0 0 - - -;
#X floatatom 337 901 5 0 0 0 - - -;
#X floatatom 301 960 5 0 0 0 - - -;
#X floatatom 387 959 5 0 0 0 - - -;
#X floatatom 331 1021 5 0 0 0 - - -;
#X floatatom 203 1024 5 0 0 0 - - -;
#X floatatom 146 962 5 0 0 0 - - -;
#X floatatom 198 901 5 0 0 0 - - -;
#X floatatom 228 960 5 0 0 0 - - -;
#X floatatom -63 466 5 0 0 0 - - -;
#X floatatom -2 466 5 0 0 0 - - -;
#X floatatom 72 468 5 0 0 0 - - -;
#X obj 266 876 r v1;
#X obj 337 876 r v2;
#X obj 228 935 r v9;
#X obj 301 935 r v8;
#X floatatom -126 551 5 0 0 2 actual_azimuth - -;
#X floatatom -79 590 5 0 0 2 actual_elevation - -;
#X floatatom -21 608 5 0 0 2 actual_spreading - -;
#X obj -512 959 line;
#X obj -512 935 pack;
#X obj -388 439 loadbang;
#X obj -456 959 line;
#X obj -456 935 pack;
#X obj -398 959 line;
#X obj -398 935 pack;
#X obj -342 959 line;
#X obj -342 935 pack;
#X obj -285 958 line;
#X obj -285 934 pack;
#X obj -228 958 line;
#X obj -228 934 pack;
#X obj -171 958 line;
#X obj -171 934 pack;
#X obj -114 958 line;
#X obj -114 934 pack;
#X obj -57 958 line;
#X obj -57 934 pack;
#X msg -388 465 100;
#X obj 198 876 r v3;
#X obj 387 934 r v4;
#X obj 146 937 r v5;
#X obj 331 996 r v6;
#X obj 203 999 r v7;
#X floatatom 267 1040 5 0 0 0 - - -;
#X obj 267 1015 r v10;
#X obj 70 666 s v10;
#X obj -182 632 route 0 1 2 3 4 5 6 7 8, f 28;
#X obj -288 489 initpan9;
#X obj -288 388 env~;
#X obj -288 413 > 0;
#X obj -288 438 sel 1;
#X obj -288 463 onebang 1;
#X obj -529 1045 env~;
#X floatatom -529 1070 5 0 0 0 - - -;
#X obj -473 1045 env~;
#X floatatom -473 1070 5 0 0 0 - - -;
#X obj -417 1045 env~;
#X floatatom -417 1070 5 0 0 0 - - -;
#X obj -361 1045 env~;
#X floatatom -361 1070 5 0 0 0 - - -;
#X obj -303 1045 env~;
#X floatatom -303 1070 5 0 0 0 - - -;
#X obj -247 1045 env~;
#X floatatom -247 1070 5 0 0 0 - - -;
#X obj -191 1045 env~;
#X floatatom -191 1070 5 0 0 0 - - -;
#X obj -133 1045 env~;
#X floatatom -133 1070 5 0 0 0 - - -;
#X obj -74 1045 env~;
#X floatatom -74 1070 5 0 0 0 - - -;
#X obj 759 578 r v9;
#X obj 131 418 r vol;
#X obj 182 252 s vol;
#X connect 1 0 2 0;
#X connect 2 0 10 0;
#X connect 4 0 5 0;
#X connect 4 0 45 0;
#X connect 6 0 7 0;
#X connect 6 0 46 0;
#X connect 8 0 9 0;
#X connect 8 0 47 0;
#X connect 10 0 11 0;
#X connect 10 0 156 0;
#X connect 15 0 4 0;
#X connect 16 0 6 0;
#X connect 17 0 8 0;
#X connect 18 0 10 0;
#X connect 19 0 130 0;
#X connect 19 1 99 0;
#X connect 19 2 100 0;
#X connect 19 3 101 0;
#X connect 22 0 35 0;
#X connect 22 0 136 0;
#X connect 23 0 36 0;
#X connect 23 0 138 0;
#X connect 24 0 37 0;
#X connect 24 0 140 0;
#X connect 25 0 38 0;
#X connect 25 0 142 0;
#X connect 26 0 39 0;
#X connect 26 0 144 0;
#X connect 27 0 40 0;
#X connect 27 0 146 0;
#X connect 28 0 41 0;
#X connect 28 0 148 0;
#X connect 29 0 42 0;
#X connect 29 0 150 0;
#X connect 30 0 43 0;
#X connect 30 0 152 0;
#X connect 44 0 22 0;
#X connect 44 0 23 0;
#X connect 44 0 24 0;
#X connect 44 0 25 0;
#X connect 44 0 26 0;
#X connect 44 0 27 0;
#X connect 44 0 28 0;
#X connect 44 0 29 0;
#X connect 44 0 30 0;
#X connect 44 0 132 0;
#X connect 45 0 19 0;
#X connect 45 1 92 0;
#X connect 46 0 19 0;
#X connect 46 1 93 0;
#X connect 47 0 19 0;
#X connect 47 1 94 0;
#X connect 48 0 103 0;
#X connect 49 0 48 0;
#X connect 49 1 48 1;
#X connect 59 0 48 0;
#X connect 60 0 106 0;
#X connect 61 0 60 0;
#X connect 61 1 60 1;
#X connect 62 0 108 0;
#X connect 63 0 62 0;
#X connect 63 1 62 1;
#X connect 64 0 110 0;
#X connect 65 0 64 0;
#X connect 65 1 64 1;
#X connect 66 0 112 0;
#X connect 67 0 66 0;
#X connect 67 1 66 1;
#X connect 68 0 114 0;
#X connect 69 0 68 0;
#X connect 69 1 68 1;
#X connect 70 0 116 0;
#X connect 71 0 70 0;
#X connect 71 1 70 1;
#X connect 72 0 118 0;
#X connect 73 0 72 0;
#X connect 73 1 72 1;
#X connect 74 0 120 0;
#X connect 75 0 74 0;
#X connect 75 1 74 1;
#X connect 76 0 60 0;
#X connect 77 0 62 0;
#X connect 78 0 64 0;
#X connect 79 0 66 0;
#X connect 80 0 68 0;
#X connect 81 0 70 0;
#X connect 82 0 72 0;
#X connect 92 0 19 1;
#X connect 93 0 19 2;
#X connect 94 0 19 3;
#X connect 95 0 83 0;
#X connect 96 0 84 0;
#X connect 97 0 91 0;
#X connect 98 0 85 0;
#X connect 102 0 22 1;
#X connect 103 0 102 0;
#X connect 104 0 121 0;
#X connect 105 0 23 1;
#X connect 106 0 105 0;
#X connect 107 0 24 1;
#X connect 108 0 107 0;
#X connect 109 0 25 1;
#X connect 110 0 109 0;
#X connect 111 0 26 1;
#X connect 112 0 111 0;
#X connect 113 0 27 1;
#X connect 114 0 113 0;
#X connect 115 0 28 1;
#X connect 116 0 115 0;
#X connect 117 0 29 1;
#X connect 118 0 117 0;
#X connect 119 0 30 1;
#X connect 120 0 119 0;
#X connect 121 0 103 1;
#X connect 121 0 106 1;
#X connect 121 0 108 1;
#X connect 121 0 110 1;
#X connect 121 0 112 1;
#X connect 121 0 114 1;
#X connect 121 0 116 1;
#X connect 121 0 118 1;
#X connect 121 0 120 1;
#X connect 122 0 90 0;
#X connect 123 0 86 0;
#X connect 124 0 89 0;
#X connect 125 0 87 0;
#X connect 126 0 88 0;
#X connect 128 0 127 0;
#X connect 130 0 50 0;
#X connect 130 1 51 0;
#X connect 130 2 52 0;
#X connect 130 3 53 0;
#X connect 130 4 54 0;
#X connect 130 5 55 0;
#X connect 130 6 56 0;
#X connect 130 7 57 0;
#X connect 130 8 58 0;
#X connect 130 9 129 0;
#X connect 131 0 19 0;
#X connect 132 0 133 0;
#X connect 133 0 134 0;
#X connect 134 0 135 0;
#X connect 135 0 131 0;
#X connect 136 0 137 0;
#X connect 138 0 139 0;
#X connect 140 0 141 0;
#X connect 142 0 143 0;
#X connect 144 0 145 0;
#X connect 146 0 147 0;
#X connect 148 0 149 0;
#X connect 150 0 151 0;
#X connect 152 0 153 0;
#X connect 154 0 74 0;
#X connect 155 0 49 0;
#X connect 155 0 61 0;
#X connect 155 0 63 0;
#X connect 155 0 65 0;
#X connect 155 0 67 0;
#X connect 155 0 69 0;
#X connect 155 0 71 0;
#X connect 155 0 73 0;
#X connect 155 0 75 0;
#X coords 0 -1 1 1 320 120 1 100 100;
