#N canvas 765 117 672 533 12;
#X obj 246 280 *~;
#X obj 211 280 *~;
#X obj 277 160 hsl 128 15 0 1 0 0 empty empty empty -2 -8 0 10 -262144
-1 -1 3175 1;
#X obj 274 183 t b f, f 6;
#X msg 274 206 1;
#X obj 274 229 -;
#X obj 314 206 sqrt;
#X obj 356 206 sqrt;
#X msg 323 119 0.25;
#X obj 209 119 inlet~;
#X obj 212 333 outlet~;
#X obj 274 119 inlet;
#X obj 275 333 outlet~;
#X obj 323 96 inlet;
#X connect 0 0 12 0;
#X connect 1 0 10 0;
#X connect 2 0 3 0;
#X connect 2 0 7 0;
#X connect 3 0 4 0;
#X connect 3 1 6 0;
#X connect 4 0 5 0;
#X connect 5 0 1 1;
#X connect 6 0 5 1;
#X connect 7 0 0 1;
#X connect 8 0 2 0;
#X connect 9 0 1 0;
#X connect 9 0 0 0;
#X connect 11 0 2 0;
#X connect 13 0 8 0;
