#N canvas -7 0 958 980 12;
#X obj 202 160 *~;
#X obj 220 130 line~;
#X obj 220 49 tgl 19 0 empty empty empty 0 -10 0 12 #fcfcfc #000000 #000000 0 1;
#X msg 220 103 1 \, 0 100;
#X obj 171 78 noise~;
#X obj 220 78 metro 1000;
#X obj 202 187 poke~ bbl;
#X obj 381 275 wave~ bbl;
#X obj 381 236 /;
#X floatatom 551 285 5 0 0 0 - - - 0;
#X text 634 85 amount;
#N canvas 953 0 958 980 glitch 0;
#X floatatom 664 163 5 0 0 0 - - - 0;
#X obj 781 263 ==;
#X obj 581 328 spigot;
#X obj 581 370 *;
#X obj 581 410 expr $f1 * 9 + 1;
#X obj 581 434 outlet;
#X obj 786 233 inlet;
#X obj 579 241 expr~ ($v1 * $f2) * $v3;
#X obj 655 336 pow~;
#X obj 581 197 inlet~;
#X obj 661 130 inlet~;
#X obj 733 184 inlet~;
#X obj 257 365 latch~;
#X connect 0 0 7 1;
#X connect 1 0 2 1;
#X connect 2 0 3 0;
#X connect 3 0 4 0;
#X connect 4 0 5 0;
#X connect 6 0 1 0;
#X connect 7 0 2 0;
#X connect 8 0 3 1;
#X connect 9 0 7 0;
#X connect 9 0 8 0;
#X connect 10 0 0 0;
#X connect 11 0 7 2;
#X connect 11 0 8 1;
#X restore 551 257 pd glitch;
#X obj 551 233 noise~;
#X connect 0 0 6 0;
#X connect 1 0 0 1;
#X connect 2 0 5 0;
#X connect 3 0 1 0;
#X connect 4 0 0 0;
#X connect 5 0 3 0;
#X connect 8 0 7 0;
