#N canvas 1188 0 730 613 12;
#X obj 435 390 text define -k bass;
#A set low 43 300 100 50 0 2 3 \, g 44 200 100 80 0.2 4 0;
#X obj 330 279 bng 15 250 50 0 empty empty empty 17 7 0 10 #fcfcfc
#000000 #000000;
#X obj 665 313 coll @embed 1;
#C flags 1 0;
#C 0 c 56 0.8 0.2;
#C 1 t 52 0.4 0.1;
#C 2 m 59 0.2 0;
#C restore;
#X obj 665 293 bng 15 250 50 0 empty empty empty 17 7 0 10 #fcfcfc
#000000 #000000;
#X floatatom 330 331 5 0 0 0 - - - 0;
#X obj 330 306 counter 2;
#X obj 330 390 text get bass;
#X msg 831 293 33 99 120;
#X listbox 831 318 20 0 0 0 - - - 0;
#X obj 330 439 unpack s f f f f f f f;
#X floatatom 405 486 5 0 0 0 - - - 0;
#X floatatom 364 486 5 0 0 0 - - - 0;
#X symbolatom 330 486 4 0 0 0 - - - 0;
#X text 826 268 list;
#X text 434 366 persistent text;
#X floatatom 774 368 5 0 0 0 - - - 0;
#X floatatom 692 368 5 0 0 0 - - - 0;
#X floatatom 733 368 5 0 0 0 - - - 0;
#X obj 665 338 unpack s f f f;
#X symbolatom 665 368 3 0 0 0 - - - 0;
#X text 329 256 coll vanilla;
#X text 667 270 coll cyclone;
#X connect 1 0 5 0;
#X connect 2 0 18 0;
#X connect 3 0 2 0;
#X connect 4 0 6 0;
#X connect 5 0 4 0;
#X connect 6 0 9 0;
#X connect 7 0 8 0;
#X connect 9 0 12 0;
#X connect 9 1 11 0;
#X connect 9 2 10 0;
#X connect 18 0 19 0;
#X connect 18 1 16 0;
#X connect 18 2 17 0;
#X connect 18 3 15 0;
