#N canvas 0 0 1920 1052 12;
#X floatatom 303 181 5 0 0 0 - - - 0;
#X obj 137 732 *~, f 17;
#X obj 137 767 dac~;
#X msg 390 181 0;
#X obj 646 188 line;
#X obj 254 656 *~;
#X obj 344 206 phasor~;
#X obj 303 210 osc~;
#X obj 303 284 *~ 0.5;
#X obj 344 231 expr~ $v1 > $v2;
#X floatatom 446 207 5 0 0 0 - - - 0;
#X obj 304 334 scope~ 130 130 256 3 128 -1 1 0 0 0 0 205 229 232 74
79 77 96 98 102 0 empty;
#X floatatom 344 182 5 0 0 0 - - - 0;
#X obj 137 698 osc~;
#X floatatom 112 638 5 0 0 0 - - - 0;
#X obj 138 670 +~;
#X obj 156 614 osc~;
#X obj 156 639 *~ 1000;
#X obj 646 113 tgl 15 0 empty empty empty 17 7 0 10 #fcfcfc #000000
#000000 0 1;
#X obj 646 134 metro 1000;
#X floatatom 157 501 5 0 0 0 - - - 0;
#X obj 157 582 +~, f 8;
#X floatatom 210 502 5 0 0 0 - - - 0;
#X obj 210 526 osc~;
#X obj 210 551 *~ 500;
#X msg 646 161 1 \, 0 400;
#X floatatom 1331 309 5 0 0 0 - - - 0;
#X msg 1418 309 0;
#X obj 1372 334 phasor~;
#X obj 1331 338 osc~;
#X obj 1372 359 expr~ $v1 > $v2;
#X floatatom 1474 335 5 0 0 0 - - - 0;
#X obj 1527 405 scope~ 130 130 256 3 128 -1 1 0 0 0 0 205 229 232 74
79 77 96 98 102 0 empty;
#X floatatom 1372 310 5 0 0 0 - - - 0;
#X obj 763 650 osc~;
#X floatatom 738 590 5 0 0 0 - - - 0;
#X obj 764 622 +~;
#X obj 782 566 osc~;
#X obj 782 591 *~ 1000;
#X floatatom 783 453 5 0 0 0 - - - 0;
#X obj 783 534 +~, f 8;
#X floatatom 836 454 5 0 0 0 - - - 0;
#X obj 836 478 osc~;
#X obj 836 503 *~ 500;
#X floatatom 1331 437 5 0 0 0 - - - 0;
#X obj 1119 327 scope~ 130 130 256 3 128 -1 1 0 0 0 0 205 229 232 74
79 77 96 98 102 0 empty;
#X obj 1120 141 bng 15 250 50 0 empty empty empty 17 7 0 10 #fcfcfc
#000000 #000000;
#X obj 1331 412 cyclone/snapshot~ 1;
#X obj 1254 372 phasor~;
#X floatatom 1254 348 5 0 0 0 - - - 0;
#X obj 1330 386 *~ 0.33;
#X obj 1109 569 *~;
#X obj 763 738 dac~;
#X obj 1120 278 curve~, f 27;
#X floatatom 1142 205 5 0 0 0 - - - 0;
#X obj 763 675 *~;
#X text 910 219 attack;
#X obj 912 356 line~;
#X obj 911 239 bng 15 250 50 0 empty empty empty 0 -6 0 8 #fcfcfc #000000
#000000;
#X obj 1028 556 *~;
#X obj 957 369 scope~ 130 130 256 3 128 -1 1 0 0 0 0 205 229 232 74
79 77 96 98 102 0 empty;
#X msg 846 290 1 1200;
#X obj 911 290 del 1200;
#X msg 911 313 0 400;
#X msg 1120 250 1 1200 -0.5 0 \$1 -0.5;
#X connect 0 0 7 0;
#X connect 1 0 2 0;
#X connect 1 0 2 1;
#X connect 3 0 7 1;
#X connect 3 0 6 1;
#X connect 4 0 5 1;
#X connect 5 0 1 1;
#X connect 6 0 9 0;
#X connect 7 0 8 0;
#X connect 8 0 5 0;
#X connect 8 0 11 0;
#X connect 9 0 8 0;
#X connect 10 0 9 1;
#X connect 12 0 6 0;
#X connect 13 0 1 0;
#X connect 14 0 15 0;
#X connect 15 0 13 0;
#X connect 16 0 17 0;
#X connect 17 0 15 1;
#X connect 18 0 19 0;
#X connect 19 0 25 0;
#X connect 20 0 21 0;
#X connect 21 0 16 0;
#X connect 22 0 23 0;
#X connect 23 0 24 0;
#X connect 24 0 21 1;
#X connect 25 0 4 0;
#X connect 25 0 3 0;
#X connect 26 0 29 0;
#X connect 27 0 29 1;
#X connect 27 0 28 1;
#X connect 27 0 48 1;
#X connect 28 0 30 0;
#X connect 29 0 50 0;
#X connect 30 0 50 0;
#X connect 31 0 30 1;
#X connect 33 0 28 0;
#X connect 34 0 55 0;
#X connect 35 0 36 0;
#X connect 36 0 34 0;
#X connect 37 0 38 0;
#X connect 38 0 36 1;
#X connect 39 0 40 0;
#X connect 40 0 37 0;
#X connect 41 0 42 0;
#X connect 42 0 43 0;
#X connect 43 0 40 1;
#X connect 46 0 27 0;
#X connect 46 0 54 0;
#X connect 47 0 44 0;
#X connect 48 0 50 0;
#X connect 49 0 48 0;
#X connect 50 0 32 0;
#X connect 50 0 47 0;
#X connect 51 0 55 1;
#X connect 53 0 45 0;
#X connect 53 0 51 1;
#X connect 54 0 64 0;
#X connect 55 0 52 0;
#X connect 55 0 52 1;
#X connect 57 0 59 1;
#X connect 57 0 60 0;
#X connect 58 0 61 0;
#X connect 58 0 62 0;
#X connect 59 0 55 1;
#X connect 61 0 57 0;
#X connect 62 0 63 0;
#X connect 63 0 57 0;
#X connect 64 0 53 0;
