#N canvas 960 28 958 330 12;
#X obj 53 44 t b f;
#X msg 53 69 100;
#X obj 53 94 +;
#X obj 53 119 dbtorms;
#X floatatom 53 144 14 0 0 0 - - -;
#X msg 53 18 -6;
#X floatatom 244 20 5 0 0 0 - - -;
#X floatatom 244 69 10 0 0 0 - - -;
#X obj 244 44 rmstodb;
#X obj 244 93 - 100;
#X floatatom 244 118 5 0 0 0 - - -;
#X connect 0 0 1 0;
#X connect 0 1 2 1;
#X connect 1 0 2 0;
#X connect 2 0 3 0;
#X connect 3 0 4 0;
#X connect 5 0 0 0;
#X connect 6 0 8 0;
#X connect 7 0 9 0;
#X connect 8 0 7 0;
#X connect 9 0 10 0;
