#N canvas 0 0 1140 1050 12;
#X obj 971 966 packOSC;
#X msg 1027 995 connect 127.0.0.1 22752;
#X obj 971 1022 tgl 15 0 empty empty empty 17 7 0 10 #fcfcfc #000000
#000000 0 1;
#X obj 971 996 udpsend;
#X obj 100 100 cnv 15 480 520 empty empty empty 0 12 0 14 #606060 #404040
0;
#X obj 131 124 hsl 128 20 0 100 0 0 dry empty Dry\\\ Level/% 0 -8 1
13 #202020 #00ff04 #ffffff 0 1;
#X obj 266 124 nbx 3 20 -1e+37 1e+37 0 0 empty dry empty 0 -8 1 13
#202020 #ffffff #000000 0 256;
#X obj 131 174 hsl 128 20 0 100 0 0 earl empty Early\\\ Level/% 0 -8
1 13 #202020 #00ff04 #ffffff 0 1;
#X obj 266 174 nbx 3 20 -1e+37 1e+37 0 0 empty earl empty 0 -8 1 13
#202020 #ffffff #000000 0 256;
#X obj 131 224 hsl 128 20 0 100 0 0 ears empty Early\\\ Send/% 0 -8
1 13 #202020 #00ff04 #ffffff 0 1;
#X obj 266 224 nbx 3 20 -1e+37 1e+37 0 0 empty ears empty 0 -8 1 13
#202020 #ffffff #000000 0 256;
#X obj 131 274 hsl 128 20 0 100 0 0 latel empty Late\\\ Level/% 0 -8
1 13 #202020 #00ff04 #ffffff 0 1;
#X obj 266 274 nbx 3 20 -1e+37 1e+37 0 0 empty latel empty 0 -8 1 13
#202020 #ffffff #000000 0 256;
#X obj 131 324 hsl 128 20 0 60 0 0 size empty Size/m 0 -8 1 13 #202020
#00ff04 #ffffff 0 1;
#X obj 266 324 nbx 3 20 -1e+37 1e+37 0 0 empty size empty 0 -8 1 13
#202020 #ffffff #000000 0 256;
#X obj 363 124 hsl 128 20 0 100 0 0 diff empty Diffuse/% 0 -8 1 13
#202020 #00ff04 #ffffff 0 1;
#X obj 498 124 nbx 3 20 -1e+37 1e+37 0 0 empty diff empty 0 -8 1 13
#202020 #ffffff #000000 0 256;
#X obj 363 174 hsl 128 20 0 100 0 0 mod empty Modulation/% 0 -8 1 13
#202020 #00ff04 #ffffff 0 1;
#X obj 498 174 nbx 3 20 -1e+37 1e+37 0 0 empty mod empty 0 -8 1 13
#202020 #ffffff #000000 0 256;
#X obj 363 224 hsl 128 20 0 10 0 0 spin empty Spin/Hz 0 -8 1 13 #202020
#00ff04 #ffffff 0 1;
#X obj 498 224 nbx 3 20 -1e+37 1e+37 0 0 empty spin empty 0 -8 1 13
#202020 #ffffff #000000 0 256;
#X obj 363 274 hsl 128 20 0 40 0 0 wand empty Wander/ms 0 -8 1 13 #202020
#00ff04 #ffffff 0 1;
#X obj 498 274 nbx 3 20 -1e+37 1e+37 0 0 empty wand empty 0 -8 1 13
#202020 #ffffff #000000 0 256;
#X obj 363 324 hsl 128 20 1000 16000 0 0 hic empty High\\\ Cut/Hz 0
-8 1 13 #202020 #00ff04 #ffffff 0 1;
#X obj 498 324 nbx 5 20 -1e+37 1e+37 0 0 empty hic empty 0 -8 1 13
#202020 #ffffff #000000 0 256;
#X obj 131 374 hsl 128 20 0 150 0 0 wi empty Width/% 0 -8 1 13 #202020
#00ff04 #ffffff 0 1;
#X obj 266 374 nbx 3 20 -1e+37 1e+37 0 0 empty wi empty 0 -8 1 13 #202020
#ffffff #000000 0 256;
#X obj 131 424 hsl 128 20 0 100 0 0 pre empty Predelay/ms 0 -8 1 13
#202020 #00ff04 #ffffff 0 1;
#X obj 266 424 nbx 3 20 -1e+37 1e+37 0 0 empty pre empty 0 -8 1 13
#202020 #ffffff #000000 0 256;
#X obj 131 474 hsl 128 20 0 10 0 0 dec empty Decay/s 0 -8 1 13 #202020
#00ff04 #ffffff 0 1;
#X obj 266 474 nbx 3 20 -1e+37 1e+37 0 0 empty dec empty 0 -8 1 13
#202020 #ffffff #000000 0 256;
#X obj 131 524 hsl 128 20 0 5 0 0 preset empty Preset 0 -8 1 13 #202020
#00ff04 #ffffff 0 1;
#X obj 266 524 nbx 1 20 -1e+37 1e+37 0 0 empty preset empty 0 -8 1
13 #202020 #ffffff #000000 0 256;
#X obj 363 374 hsl 128 20 1000 16000 0 0 hicross empty High\\\ Cross/Hz
0 -8 1 13 #202020 #00ff04 #ffffff 0 1;
#X obj 498 374 nbx 5 20 -1e+37 1e+37 0 0 empty hicross empty 0 -8 1
13 #202020 #ffffff #000000 0 256;
#X obj 363 424 hsl 128 20 0.2 1.2 0 0 himult empty High\\\ Mult/* 0
-8 1 13 #202020 #00ff04 #ffffff 0 1;
#X obj 498 424 nbx 3 20 -1e+37 1e+37 0 0 empty himult empty 0 -8 1
13 #202020 #ffffff #000000 0 256;
#X obj 363 474 hsl 128 20 0 200 0 0 lowc empty Low\\\ Cut/Hz 0 -8 1
13 #202020 #00ff04 #ffffff 0 1;
#X obj 498 474 nbx 3 20 -1e+37 1e+37 0 0 empty lowc empty 0 -8 1 13
#202020 #ffffff #000000 0 256;
#X obj 363 524 hsl 128 20 200 1200 0 0 lowcross empty Low\\\ Cross/Hz
0 -8 1 13 #202020 #00ff04 #ffffff 0 1;
#X obj 498 524 nbx 4 20 -1e+37 1e+37 0 0 empty lowcross empty 0 -8
1 13 #202020 #ffffff #000000 0 256;
#X obj 363 574 hsl 128 20 0.5 2.5 0 0 lowmult empty Low\\\ Mult/* 0
-8 1 13 #202020 #00ff04 #ffffff 0 1;
#X obj 498 574 nbx 3 20 -1e+37 1e+37 0 0 empty lowmult empty 0 -8 1
13 #202020 #ffffff #000000 0 256;
#X listbox 128 575 30 0 0 0 - - - 0;
#X obj 348 703 scale 0 100 0 1;
#X msg 348 727 send /Carla/0/set_parameter_value 0 \$1;
#X obj 348 753 scale 0 100 0 1;
#X obj 348 803 scale 0 100 0 1;
#X obj 348 953 scale 0 100 0 1;
#X obj 348 1003 scale 0 100 0 1;
#X msg 348 777 send /Carla/0/set_parameter_value 1 \$1;
#X msg 348 827 send /Carla/0/set_parameter_value 2 \$1;
#X msg 348 877 send /Carla/0/set_parameter_value 3 \$1;
#X msg 348 927 send /Carla/0/set_parameter_value 4 \$1;
#X msg 348 977 send /Carla/0/set_parameter_value 5 \$1;
#X msg 348 1027 send /Carla/0/set_parameter_value 6 \$1;
#X msg 638 727 send /Carla/0/set_parameter_value 7 \$1;
#X msg 638 777 send /Carla/0/set_parameter_value 8 \$1;
#X msg 638 827 send /Carla/0/set_parameter_value 9 \$1;
#X msg 638 877 send /Carla/0/set_parameter_value 10 \$1;
#X msg 638 927 send /Carla/0/set_parameter_value 11 \$1;
#X msg 638 977 send /Carla/0/set_parameter_value 12 \$1;
#X msg 638 1027 send /Carla/0/set_parameter_value 13 \$1;
#X obj 938 803 scale 0 100 0 1;
#X obj 938 853 scale 0 100 0 1;
#X msg 938 727 send /Carla/0/set_parameter_value 14 \$1;
#X msg 938 777 send /Carla/0/set_parameter_value 15 \$1;
#X msg 938 827 send /Carla/0/set_parameter_value 16 \$1;
#X msg 938 877 send /Carla/0/set_parameter_value 17 \$1;
#X obj 638 753 scale 200 1200 0 1;
#X obj 348 853 scale 0 60 0 1;
#X obj 348 903 scale 0 150 0 1;
#X obj 638 703 scale 0 200 0 1;
#X obj 638 803 scale 0.5 2.5 0 1;
#X obj 638 853 scale 100 16000 0 1;
#X obj 638 903 scale 1000 16000 0 1;
#X obj 638 953 scale 0.2 1.2 0 1;
#X obj 638 1003 scale 0 10 0 1;
#X obj 938 703 scale 0 40 0 1;
#X obj 938 753 scale 0 10 0 1;
#X obj 1121 353 text define -k halls;
#A set 80 10 20 20 10 90 4 0.6 90 30 1 25 16000 7900 0.8 4 500 0.8
bright_room \; 80 10 20 20 10 90 4 0.6 90 30 1 25 13000 5800 0.5 4
500 0.9 clear_room \; 80 10 20 20 10 90 4 0.7 50 30 1 25 7300 4900
0.3 4 500 1.2 dark_room \; 80 10 20 20 16 80 8 0.8 70 20 1.2 10 8200
5500 0.3 4 500 1.1 small_chamber \; 80 10 20 20 20 80 8 1 90 20 1.8
12 7000 4900 0.2 4 500 1.3 large_chamber \; 80 10 20 20 12 90 8 0.8
75 20 2.57 7600 4900 0.8 4 450 1.5 acoustic_studio \; 80 10 20 20 12
90 0 0.8 60 10 2.5 7 5800 5200 0.4 4 400 1.2 vocal studio \;;
#X obj 802 328 text get halls;
#X floatatom 802 301 5 0 0 0 - - - 0;
#X obj 802 353 unpack f f f f f f f f f f f f f f f f f f s;
#X connect 0 0 3 0;
#X connect 1 0 3 0;
#X connect 3 0 2 0;
#X connect 5 0 44 0;
#X connect 7 0 46 0;
#X connect 9 0 63 0;
#X connect 11 0 47 0;
#X connect 13 0 70 0;
#X connect 15 0 49 0;
#X connect 17 0 64 0;
#X connect 19 0 77 0;
#X connect 21 0 78 0;
#X connect 23 0 74 0;
#X connect 25 0 71 0;
#X connect 27 0 48 0;
#X connect 29 0 79 0;
#X connect 31 0 82 0;
#X connect 33 0 75 0;
#X connect 35 0 76 0;
#X connect 37 0 72 0;
#X connect 39 0 69 0;
#X connect 41 0 73 0;
#X connect 44 0 45 0;
#X connect 45 0 0 0;
#X connect 46 0 50 0;
#X connect 47 0 51 0;
#X connect 48 0 54 0;
#X connect 49 0 55 0;
#X connect 50 0 0 0;
#X connect 51 0 0 0;
#X connect 52 0 0 0;
#X connect 53 0 0 0;
#X connect 54 0 0 0;
#X connect 55 0 0 0;
#X connect 56 0 0 0;
#X connect 57 0 0 0;
#X connect 58 0 0 0;
#X connect 59 0 0 0;
#X connect 60 0 0 0;
#X connect 61 0 0 0;
#X connect 62 0 0 0;
#X connect 63 0 67 0;
#X connect 64 0 68 0;
#X connect 65 0 0 0;
#X connect 66 0 0 0;
#X connect 67 0 0 0;
#X connect 68 0 0 0;
#X connect 69 0 57 0;
#X connect 70 0 52 0;
#X connect 71 0 53 0;
#X connect 72 0 56 0;
#X connect 73 0 58 0;
#X connect 74 0 59 0;
#X connect 75 0 60 0;
#X connect 76 0 61 0;
#X connect 77 0 62 0;
#X connect 78 0 65 0;
#X connect 79 0 66 0;
#X connect 81 0 83 0;
#X connect 82 0 81 0;
#X connect 83 0 5 0;
#X connect 83 1 7 0;
#X connect 83 2 9 0;
#X connect 83 3 11 0;
#X connect 83 4 13 0;
#X connect 83 5 25 0;
#X connect 83 6 27 0;
#X connect 83 7 29 0;
#X connect 83 8 15 0;
#X connect 83 9 17 0;
#X connect 83 10 19 0;
#X connect 83 11 21 0;
#X connect 83 12 23 0;
#X connect 83 13 33 0;
#X connect 83 14 35 0;
#X connect 83 15 37 0;
#X connect 83 16 39 0;
#X connect 83 17 41 0;
#X connect 83 18 43 0;
#X coords 0 -1 1 1 480 520 1 100 100;
