#N canvas 0 0 1270 1050 12;
#X obj 67 624 tgl 15 0 empty empty empty 17 7 0 10 #fcfcfc #000000
#000000 0 1;
#X msg 84 566 connect 127.0.0.1 9001;
#X text 36 540 OSC;
#X obj 67 539 mrpeach/packOSC;
#X obj 67 597 mrpeach/udpsend;
#X msg 250 567 disconnect;
#X obj 67 516 r osc;
#X obj 423 219 bng 15 250 50 0 empty empty empty 17 7 0 10 #fcfcfc
#000000 #000000;
#N canvas 0 0 1920 1052 simultaneous-black 0;
#X msg 362 644 /lighthouse/lightx\$1y\$2 \$3 \$4 \$5;
#X obj 362 619 pack f f f f f, f 27;
#X text 326 631 msg;
#X obj 362 669 s osc;
#X obj 295 420 bng 15 250 50 0 empty empty empty 17 7 0 10 #fcfcfc
#000000 #000000;
#X obj 295 474 uzi 4 0;
#X obj 362 474 uzi 4 4;
#X obj 295 568 uzi 35 0, f 10;
#X text 323 419 OFF;
#X msg 455 526 0;
#X obj 295 392 inlet;
#X obj 362 450 del 15;
#X connect 0 0 3 0;
#X connect 1 0 0 0;
#X connect 4 0 9 0;
#X connect 4 0 5 0;
#X connect 4 0 11 0;
#X connect 5 0 7 0;
#X connect 5 2 1 1;
#X connect 6 0 7 0;
#X connect 6 2 1 1;
#X connect 7 2 1 0;
#X connect 9 0 1 2;
#X connect 9 0 1 3;
#X connect 9 0 1 4;
#X connect 10 0 4 0;
#X connect 11 0 6 0;
#X restore 873 341 pd simultaneous-black;
#X obj 873 321 bng 15 250 50 0 empty empty empty 17 7 0 10 #ffffff
#000000 #000000;
#N canvas 0 0 1333 1050 simultaneous-colour 0;
#X msg 214 675 /lighthouse/lightx\$1y\$2 \$3 \$4 \$5;
#X obj 214 650 pack f f f f f, f 27;
#X text 178 662 msg;
#X obj 214 700 s osc;
#X obj 214 481 del 10;
#X obj 147 505 uzi 4 0;
#X obj 214 505 uzi 4 4;
#X obj 147 599 uzi 35 0, f 10;
#X obj 350 484 inlet;
#X obj 400 484 inlet;
#X obj 450 484 inlet;
#X floatatom 350 509 5 0 0 0 - - - 0;
#X floatatom 400 509 5 0 0 0 - - - 0;
#X floatatom 450 509 5 0 0 0 - - - 0;
#X obj 147 402 inlet;
#X obj 147 452 del 50;
#X connect 0 0 3 0;
#X connect 1 0 0 0;
#X connect 4 0 6 0;
#X connect 5 0 7 0;
#X connect 5 2 1 1;
#X connect 6 0 7 0;
#X connect 6 2 1 1;
#X connect 7 2 1 0;
#X connect 8 0 11 0;
#X connect 9 0 12 0;
#X connect 10 0 13 0;
#X connect 11 0 1 2;
#X connect 12 0 1 3;
#X connect 13 0 1 4;
#X connect 14 0 11 0;
#X connect 14 0 12 0;
#X connect 14 0 13 0;
#X connect 14 0 15 0;
#X connect 15 0 5 0;
#X connect 15 0 4 0;
#X restore 421 175 pd simultaneous-colour;
#X obj 471 138 unpack f f f;
#X obj 67 301 tgl 15 0 empty empty empty 17 7 0 10 #fcfcfc #000000
#000000 0 1;
#X obj 187 389 unpack f f f;
#N canvas 0 0 1333 1050 up 0;
#X msg 101 404 /lighthouse/lightx\$1y\$2 \$3 \$4 \$5;
#X obj 101 379 pack f f f f f, f 27;
#X obj 101 429 s osc;
#X obj 314 214 tgl 15 0 empty empty empty 17 7 0 10 #fcfcfc #000000
#000000 0 1;
#X obj 314 234 sel 0 1, f 10;
#X msg 347 266 0;
#X floatatom 207 267 5 0 0 0 - - - 0;
#X obj 207 215 bng 15 250 50 0 empty empty empty 17 7 0 10 #fcfcfc
#000000 #000000;
#X msg 225 215 1;
#X obj 207 243 counter 8 0;
#X obj 55 123 inlet;
#X obj 431 210 inlet;
#X obj 481 210 inlet;
#X obj 531 210 inlet;
#X floatatom 431 235 5 0 0 0 - - - 0;
#X floatatom 481 235 5 0 0 0 - - - 0;
#X floatatom 531 235 5 0 0 0 - - - 0;
#X obj 101 239 inlet;
#X obj 101 337 +;
#X obj 119 312 inlet;
#X text 92 85 0 bang \, 1 number of ligths \, 2 offset \, 3 red \,
4 green \, 5 blue;
#X obj 55 264 uzi 5 0;
#X connect 0 0 2 0;
#X connect 1 0 0 0;
#X connect 3 0 4 0;
#X connect 4 0 14 0;
#X connect 4 0 15 0;
#X connect 4 0 16 0;
#X connect 4 1 5 0;
#X connect 5 0 1 3;
#X connect 5 0 1 4;
#X connect 5 0 1 2;
#X connect 6 0 1 1;
#X connect 7 0 9 0;
#X connect 8 0 9 1;
#X connect 9 0 6 0;
#X connect 10 0 8 0;
#X connect 10 0 3 0;
#X connect 10 0 7 0;
#X connect 10 0 21 0;
#X connect 11 0 14 0;
#X connect 12 0 15 0;
#X connect 13 0 16 0;
#X connect 14 0 1 2;
#X connect 15 0 1 3;
#X connect 16 0 1 4;
#X connect 17 0 21 1;
#X connect 18 0 1 0;
#X connect 19 0 18 1;
#X connect 21 2 18 0;
#X restore 67 414 pd up;
#X f 29;
#X floatatom 107 390 5 0 0 0 - - - 0;
#X floatatom 147 390 5 0 0 0 - - - 0;
#X obj 459 392 unpack f f f;
#X floatatom 379 393 5 0 0 0 - - - 0;
#X floatatom 419 393 5 0 0 0 - - - 0;
#N canvas 0 0 1140 1050 down 0;
#X msg 101 404 /lighthouse/lightx\$1y\$2 \$3 \$4 \$5;
#X obj 101 379 pack f f f f f, f 27;
#X obj 101 429 s osc;
#X obj 314 214 tgl 15 0 empty empty empty 17 7 0 10 #fcfcfc #000000
#000000 0 1;
#X obj 314 234 sel 0 1, f 10;
#X msg 347 266 0;
#X floatatom 207 267 5 0 0 0 - - - 0;
#X obj 207 215 bng 15 250 50 0 empty empty empty 17 7 0 10 #fcfcfc
#000000 #000000;
#X obj 207 243 counter 8 0;
#X obj 55 123 inlet;
#X obj 431 210 inlet;
#X obj 481 210 inlet;
#X obj 531 210 inlet;
#X floatatom 431 235 5 0 0 0 - - - 0;
#X floatatom 481 235 5 0 0 0 - - - 0;
#X floatatom 531 235 5 0 0 0 - - - 0;
#X obj 101 239 inlet;
#X obj 101 337 +;
#X obj 119 312 inlet;
#X text 92 85 0 bang \, 1 number of ligths \, 2 offset \, 3 red \,
4 green \, 5 blue;
#X obj 55 264 uzi 5 0;
#X connect 0 0 2 0;
#X connect 1 0 0 0;
#X connect 3 0 4 0;
#X connect 4 0 13 0;
#X connect 4 0 14 0;
#X connect 4 0 15 0;
#X connect 4 1 5 0;
#X connect 5 0 1 3;
#X connect 5 0 1 4;
#X connect 5 0 1 2;
#X connect 6 0 1 1;
#X connect 7 0 8 0;
#X connect 8 0 6 0;
#X connect 9 0 3 0;
#X connect 9 0 7 0;
#X connect 9 0 20 0;
#X connect 10 0 13 0;
#X connect 11 0 14 0;
#X connect 12 0 15 0;
#X connect 13 0 1 2;
#X connect 14 0 1 3;
#X connect 15 0 1 4;
#X connect 16 0 20 1;
#X connect 17 0 1 0;
#X connect 18 0 17 1;
#X connect 20 2 17 0;
#X restore 339 417 pd down;
#X f 29;
#N canvas 0 0 1333 1050 2colour-drunk 0;
#X msg 1206 396 /lighthouse/lightx\$1y\$2 \$3 \$4 \$5;
#X obj 1206 323 pack f f f f f, f 27;
#X msg 1299 294 255;
#X obj 1259 420 s osc;
#X msg 1344 293 0;
#X obj 1206 421 print;
#X obj 1286 197 drunk 7 3;
#X obj 1206 198 drunk 15 3;
#X obj 1406 323 pack f f f f f, f 27;
#X msg 1544 293 255;
#X msg 1592 289 0;
#X obj 1442 194 drunk 7 3;
#X obj 1361 197 drunk 18 3;
#X obj 1361 222 + 16;
#X obj 1206 169 inlet;
#X obj 1550 238 loadbang;
#X connect 0 0 3 0;
#X connect 0 0 5 0;
#X connect 1 0 0 0;
#X connect 2 0 1 2;
#X connect 4 0 1 3;
#X connect 4 0 1 4;
#X connect 6 0 1 1;
#X connect 7 0 1 0;
#X connect 8 0 0 0;
#X connect 9 0 8 3;
#X connect 10 0 8 4;
#X connect 10 0 8 2;
#X connect 11 0 8 1;
#X connect 12 0 13 0;
#X connect 13 0 8 0;
#X connect 14 0 6 0;
#X connect 14 0 7 0;
#X connect 14 0 12 0;
#X connect 14 0 11 0;
#X connect 15 0 9 0;
#X connect 15 0 4 0;
#X connect 15 0 2 0;
#X connect 15 0 10 0;
#X restore 591 175 pd 2colour-drunk;
#X obj 591 123 tgl 15 0 empty empty empty 17 7 0 10 #fcfcfc #000000
#000000 0 1;
#X obj 359 517 tgl 15 0 empty empty empty 17 7 0 10 #fcfcfc #000000
#000000 0 1;
#X obj 520 541 unpack f f f;
#X msg 520 516 200 200 90;
#N canvas 0 0 1333 1050 left 0;
#X msg 101 404 /lighthouse/lightx\$1y\$2 \$3 \$4 \$5;
#X obj 101 379 pack f f f f f, f 27;
#X obj 101 429 s osc;
#X obj 314 214 tgl 15 0 empty empty empty 17 7 0 10 #fcfcfc #000000
#000000 0 1;
#X obj 314 234 sel 0 1, f 10;
#X msg 347 266 0;
#X obj 207 215 bng 15 250 50 0 empty empty empty 17 7 0 10 #fcfcfc
#000000 #000000;
#X obj 55 123 inlet;
#X obj 431 210 inlet;
#X obj 481 210 inlet;
#X obj 531 210 inlet;
#X floatatom 431 235 5 0 0 0 - - - 0;
#X floatatom 481 235 5 0 0 0 - - - 0;
#X floatatom 531 235 5 0 0 0 - - - 0;
#X text 92 85 0 bang \, 1 number of ligths \, 2 offset \, 3 red \,
4 green \, 5 blue;
#X obj 207 243 uzi 8 0;
#X obj 104 309 counter 35;
#X obj 55 264 uzi 1 0;
#X obj 120 276 bng 15 250 50 0 empty empty empty 17 7 0 10 #fcfcfc
#000000 #000000;
#X connect 0 0 2 0;
#X connect 1 0 0 0;
#X connect 3 0 4 0;
#X connect 4 0 11 0;
#X connect 4 0 12 0;
#X connect 4 0 13 0;
#X connect 4 0 17 0;
#X connect 4 1 5 0;
#X connect 5 0 1 3;
#X connect 5 0 1 4;
#X connect 5 0 1 2;
#X connect 6 0 15 0;
#X connect 7 0 3 0;
#X connect 7 0 6 0;
#X connect 8 0 11 0;
#X connect 9 0 12 0;
#X connect 10 0 13 0;
#X connect 11 0 1 2;
#X connect 12 0 1 3;
#X connect 13 0 1 4;
#X connect 15 2 1 1;
#X connect 16 0 1 0;
#X connect 17 2 16 0;
#X connect 18 0 16 2;
#X restore 359 568 pd left;
#X f 35;
#X obj 359 543 metro 100;
#X obj 726 388 unpack f f f;
#N canvas 0 0 958 1050 up 0;
#X msg 101 404 /lighthouse/lightx\$1y\$2 \$3 \$4 \$5;
#X obj 101 379 pack f f f f f, f 27;
#X obj 101 429 s osc;
#X obj 314 214 tgl 15 0 empty empty empty 17 7 0 10 #fcfcfc #000000
#000000 0 1;
#X obj 314 234 sel 0 1, f 10;
#X msg 347 266 0;
#X floatatom 207 267 5 0 0 0 - - - 0;
#X obj 207 215 bng 15 250 50 0 empty empty empty 17 7 0 10 #fcfcfc
#000000 #000000;
#X msg 225 215 1;
#X obj 207 243 counter 8 0;
#X obj 55 123 inlet;
#X obj 431 210 inlet;
#X obj 481 210 inlet;
#X obj 531 210 inlet;
#X floatatom 431 235 5 0 0 0 - - - 0;
#X floatatom 481 235 5 0 0 0 - - - 0;
#X floatatom 531 235 5 0 0 0 - - - 0;
#X obj 101 239 inlet;
#X obj 101 337 +;
#X obj 119 312 inlet;
#X text 92 85 0 bang \, 1 number of ligths \, 2 offset \, 3 red \,
4 green \, 5 blue;
#X obj 55 264 uzi 5 0;
#X connect 0 0 2 0;
#X connect 1 0 0 0;
#X connect 3 0 4 0;
#X connect 4 0 14 0;
#X connect 4 0 15 0;
#X connect 4 0 16 0;
#X connect 4 1 5 0;
#X connect 5 0 1 3;
#X connect 5 0 1 4;
#X connect 5 0 1 2;
#X connect 6 0 1 1;
#X connect 7 0 9 0;
#X connect 8 0 9 1;
#X connect 9 0 6 0;
#X connect 10 0 8 0;
#X connect 10 0 3 0;
#X connect 10 0 7 0;
#X connect 10 0 21 0;
#X connect 11 0 14 0;
#X connect 12 0 15 0;
#X connect 13 0 16 0;
#X connect 14 0 1 2;
#X connect 15 0 1 3;
#X connect 16 0 1 4;
#X connect 17 0 21 1;
#X connect 18 0 1 0;
#X connect 19 0 18 1;
#X connect 21 2 18 0;
#X restore 606 413 pd up;
#X f 29;
#X floatatom 646 389 5 0 0 0 - - - 0;
#X floatatom 686 389 5 0 0 0 - - - 0;
#X obj 943 388 unpack f f f;
#X floatatom 863 388 5 0 0 0 - - - 0;
#X floatatom 903 389 5 0 0 0 - - - 0;
#N canvas 0 0 958 1050 down 0;
#X msg 101 404 /lighthouse/lightx\$1y\$2 \$3 \$4 \$5;
#X obj 101 379 pack f f f f f, f 27;
#X obj 101 429 s osc;
#X obj 314 214 tgl 15 0 empty empty empty 17 7 0 10 #fcfcfc #000000
#000000 0 1;
#X obj 314 234 sel 0 1, f 10;
#X msg 347 266 0;
#X floatatom 207 267 5 0 0 0 - - - 0;
#X obj 207 215 bng 15 250 50 0 empty empty empty 17 7 0 10 #fcfcfc
#000000 #000000;
#X obj 207 243 counter 8 0;
#X obj 55 123 inlet;
#X obj 431 210 inlet;
#X obj 481 210 inlet;
#X obj 531 210 inlet;
#X floatatom 431 235 5 0 0 0 - - - 0;
#X floatatom 481 235 5 0 0 0 - - - 0;
#X floatatom 531 235 5 0 0 0 - - - 0;
#X obj 101 239 inlet;
#X obj 101 337 +;
#X obj 119 312 inlet;
#X text 92 85 0 bang \, 1 number of ligths \, 2 offset \, 3 red \,
4 green \, 5 blue;
#X obj 55 264 uzi 5 0;
#X connect 0 0 2 0;
#X connect 1 0 0 0;
#X connect 3 0 4 0;
#X connect 4 0 13 0;
#X connect 4 0 14 0;
#X connect 4 0 15 0;
#X connect 4 1 5 0;
#X connect 5 0 1 3;
#X connect 5 0 1 4;
#X connect 5 0 1 2;
#X connect 6 0 1 1;
#X connect 7 0 8 0;
#X connect 8 0 6 0;
#X connect 9 0 3 0;
#X connect 9 0 7 0;
#X connect 9 0 20 0;
#X connect 10 0 13 0;
#X connect 11 0 14 0;
#X connect 12 0 15 0;
#X connect 13 0 1 2;
#X connect 14 0 1 3;
#X connect 15 0 1 4;
#X connect 16 0 20 1;
#X connect 17 0 1 0;
#X connect 18 0 17 1;
#X connect 20 2 17 0;
#X restore 823 413 pd down;
#X f 29;
#N canvas 1142 0 776 687 palettes 0;
#X obj 207 164 inlet;
#X obj 207 312 outlet;
#X obj 305 280 text define -k rgb;
#A set 0 0 255 \; 0 255 0 \; 255 0 0 \; 255 255 0 \; 0 255 255 \; 255
0 255 \;;
#X obj 207 280 text get rgb;
#X obj 207 201 i;
#X obj 240 201 + 1;
#X obj 207 226 % 6;
#X floatatom 207 251 5 0 0 0 - - - 0;
#X connect 0 0 4 0;
#X connect 3 0 1 0;
#X connect 4 0 5 0;
#X connect 4 0 6 0;
#X connect 5 0 4 1;
#X connect 6 0 3 0;
#X connect 6 0 7 0;
#X restore 471 113 pd palettes;
#X obj 423 236 random 5;
#N canvas 0 0 1140 1050 palettes 0;
#X obj 197 296 coll;
#X f 17;
#C restore;
#X obj 197 217 inlet;
#X obj 197 321 outlet;
#X msg 319 180 0 255 0 0 \, 1 0 255 0 \, 2 0 0 255 \, 3 0 255 255 \,
4 255 255 0 \, 5 0 0 255;
#X msg 319 226 0 220 196 68 \, 1 223 168 187 \, 2 124 28 52 \, 3 161
86 95 \, 4 164 200 206 \, 5 56 91 98;
#X obj 319 150 loadbang;
#X connect 0 0 2 0;
#X connect 1 0 0 0;
#X connect 3 0 0 0;
#X connect 4 0 0 0;
#X connect 5 0 3 0;
#X restore 423 262 pd palettes;
#X obj 67 278 bng 15 250 50 0 empty empty empty 17 7 0 10 #fcfcfc #000000
#000000;
#N canvas 0 0 1140 1050 palette-shift 0;
#X obj 551 259 bucket 4;
#X obj 551 196 unpack f f f;
#X obj 632 260 bucket 4;
#X obj 709 261 bucket 4;
#X obj 551 349 pack f f f;
#X obj 631 349 pack f f f;
#X obj 721 349 pack f f f;
#X obj 812 349 pack f f f;
#X obj 551 153 inlet;
#X obj 551 374 outlet;
#X obj 631 374 outlet;
#X obj 721 374 outlet;
#X obj 812 374 outlet;
#X connect 0 0 4 0;
#X connect 0 1 5 0;
#X connect 0 2 6 0;
#X connect 0 3 7 0;
#X connect 1 0 0 0;
#X connect 1 1 2 0;
#X connect 1 2 3 0;
#X connect 2 0 4 1;
#X connect 2 1 5 1;
#X connect 2 2 6 1;
#X connect 2 3 7 1;
#X connect 3 0 4 2;
#X connect 3 1 5 2;
#X connect 3 2 6 2;
#X connect 3 3 7 2;
#X connect 4 0 9 0;
#X connect 5 0 10 0;
#X connect 6 0 11 0;
#X connect 7 0 12 0;
#X connect 8 0 1 0;
#X restore 423 296 pd palette-shift;
#X obj 591 63 inlet;
#X obj 67 65 inlet;
#X obj 185 66 inlet;
#X obj 1007 -27 inlet;
#X obj 873 74 inlet;
#X obj 1145 342 text define -k blocks;
#A set 4 0 4 8 4 16 4 24 \; 8 0 8 4 8 12 15 20 \; 4 6 4 12 4 18 4 24
\;;
#X obj 1030 343 text get blocks;
#X obj 1030 368 unpack f f f f f f f f;
#X obj 1033 199 hsl 128 15 0 3 0 0 empty empty empty -2 -8 0 10 #fcfcfc
#000000 #000000 0 1;
#X obj 1030 219 change;
#X obj 972 199 del 100;
#X obj 873 298 del 200;
#X obj 712 180 bng 15 250 50 0 empty empty empty 17 7 0 10 #fcfcfc
#000000 #000000;
#X obj 712 157 change;
#X obj 1030 142 drunk 3;
#X floatatom 1030 167 5 0 0 0 - - - 0;
#X obj 67 320 metro 50;
#X msg 185 245 50;
#X msg 217 245 100;
#X msg 249 245 25;
#X msg 281 245 75;
#X obj 185 195 random 3;
#X obj 185 219 sel 0 1 2;
#X obj 591 147 metro 60;
#X obj 591 94 spigot;
#X obj 638 71 tgl 15 0 empty empty empty 17 7 0 10 #fcfcfc #000000
#000000 0 1;
#X obj 421 74 bng 15 250 50 0 empty empty empty 17 7 0 10 #fcfcfc #000000
#000000;
#X obj 1007 20 random 2;
#X obj 1007 45 sel 0 1;
#X obj 1007 -1 bng 15 250 50 0 empty empty empty 17 7 0 10 #fcfcfc
#000000 #000000;
#X obj 421 49 spigot;
#X obj 460 25 tgl 15 0 empty empty empty 17 7 0 10 #fcfcfc #000000
#000000 0 1;
#X text 361 24 interaction!;
#X text 659 69 interaction!;
#X msg 183 598 connect 149.222.206.21 9001;
#X msg 167 276 \$1;
#X floatatom 167 301 5 0 0 0 - - - 0;
#X connect 1 0 4 0;
#X connect 3 0 4 0;
#X connect 4 0 0 0;
#X connect 5 0 4 0;
#X connect 6 0 3 0;
#X connect 7 0 37 0;
#X connect 9 0 8 0;
#X connect 11 0 10 1;
#X connect 11 1 10 2;
#X connect 11 2 10 3;
#X connect 12 0 57 0;
#X connect 13 0 14 3;
#X connect 13 1 14 4;
#X connect 13 2 14 5;
#X connect 15 0 14 1;
#X connect 16 0 14 2;
#X connect 17 0 20 3;
#X connect 17 1 20 4;
#X connect 17 2 20 5;
#X connect 18 0 20 1;
#X connect 19 0 20 2;
#X connect 22 0 54 0;
#X connect 22 0 64 0;
#X connect 23 0 27 0;
#X connect 24 0 26 1;
#X connect 24 1 26 2;
#X connect 24 2 26 3;
#X connect 25 0 24 0;
#X connect 27 0 26 0;
#X connect 28 0 29 3;
#X connect 28 1 29 4;
#X connect 28 2 29 5;
#X connect 30 0 29 1;
#X connect 31 0 29 2;
#X connect 32 0 35 3;
#X connect 32 1 35 4;
#X connect 32 2 35 5;
#X connect 33 0 35 1;
#X connect 34 0 35 2;
#X connect 36 0 11 0;
#X connect 37 0 38 0;
#X connect 38 0 40 0;
#X connect 39 0 12 0;
#X connect 40 0 13 0;
#X connect 40 1 17 0;
#X connect 40 2 28 0;
#X connect 40 3 32 0;
#X connect 41 0 65 0;
#X connect 42 0 39 0;
#X connect 43 0 62 0;
#X connect 44 0 70 0;
#X connect 45 0 9 0;
#X connect 47 0 48 0;
#X connect 48 0 15 0;
#X connect 48 1 16 0;
#X connect 48 2 18 0;
#X connect 48 3 19 0;
#X connect 48 4 30 0;
#X connect 48 5 31 0;
#X connect 48 6 33 0;
#X connect 48 7 34 0;
#X connect 49 0 47 0;
#X connect 49 0 50 0;
#X connect 49 0 51 0;
#X connect 50 0 52 0;
#X connect 51 0 7 0;
#X connect 52 0 9 0;
#X connect 53 0 9 0;
#X connect 54 0 53 0;
#X connect 55 0 56 0;
#X connect 56 0 49 0;
#X connect 57 0 14 0;
#X connect 57 0 20 0;
#X connect 57 0 29 0;
#X connect 57 0 35 0;
#X connect 58 0 76 0;
#X connect 59 0 76 0;
#X connect 60 0 76 0;
#X connect 61 0 76 0;
#X connect 62 0 63 0;
#X connect 63 0 58 0;
#X connect 63 1 59 0;
#X connect 63 2 60 0;
#X connect 63 3 61 0;
#X connect 64 0 21 0;
#X connect 65 0 22 0;
#X connect 66 0 65 1;
#X connect 67 0 10 0;
#X connect 67 0 36 0;
#X connect 68 0 69 0;
#X connect 69 0 71 0;
#X connect 69 1 55 0;
#X connect 70 0 68 0;
#X connect 71 0 67 0;
#X connect 72 0 71 1;
#X connect 75 0 4 0;
#X connect 76 0 77 0;
#X connect 77 0 57 1;
