#N canvas 0 0 1920 1052 12;
#X obj 75 747 tgl 15 0 empty empty empty 17 7 0 10 #fcfcfc #000000
#000000 0 1;
#X msg 92 689 connect 127.0.0.1 9001;
#X text 44 663 OSC;
#X obj 75 662 mrpeach/packOSC;
#X obj 75 720 mrpeach/udpsend;
#X msg 258 690 disconnect;
#X obj 75 639 r osc;
#X msg 76 852 seed 2;
#X floatatom 76 903 5 0 0 0 - - - 0;
#X obj 76 770 i;
#X obj 76 820 sel 0;
#X obj 107 770 + 1;
#X obj 76 795 mod 4;
#X obj 76 878 random;
#X obj 129 180 bng 15 250 50 0 empty empty empty 17 7 0 10 #fcfcfc
#000000 #000000;
#N canvas 0 0 1920 1052 simultaneous-black 0;
#X msg 362 644 /lighthouse/lightx\$1y\$2 \$3 \$4 \$5;
#X obj 362 619 pack f f f f f, f 27;
#X text 326 631 msg;
#X obj 362 669 s osc;
#X obj 295 420 bng 15 250 50 0 empty empty empty 17 7 0 10 #fcfcfc
#000000 #000000;
#X obj 295 474 uzi 4 0;
#X obj 362 474 uzi 4 4;
#X obj 295 568 uzi 35 0, f 10;
#X text 323 419 OFF;
#X msg 455 526 0;
#X obj 295 392 inlet;
#X obj 362 450 del 15;
#X connect 0 0 3 0;
#X connect 1 0 0 0;
#X connect 4 0 9 0;
#X connect 4 0 5 0;
#X connect 4 0 11 0;
#X connect 5 0 7 0;
#X connect 5 2 1 1;
#X connect 6 0 7 0;
#X connect 6 2 1 1;
#X connect 7 2 1 0;
#X connect 9 0 1 2;
#X connect 9 0 1 3;
#X connect 9 0 1 4;
#X connect 10 0 4 0;
#X connect 11 0 6 0;
#X restore 349 693 pd simultaneous-black;
#X obj 349 668 bng 15 250 50 0 empty empty empty 17 7 0 10 #ffffff
#000000 #000000;
#N canvas 1393 639 525 411 simultaneous-colour 0;
#X msg 214 675 /lighthouse/lightx\$1y\$2 \$3 \$4 \$5;
#X obj 214 650 pack f f f f f, f 27;
#X text 178 662 msg;
#X obj 214 700 s osc;
#X obj 214 481 del 10;
#X obj 147 505 uzi 4 0;
#X obj 214 505 uzi 4 4;
#X obj 147 599 uzi 35 0, f 10;
#X obj 350 484 inlet;
#X obj 400 484 inlet;
#X obj 450 484 inlet;
#X floatatom 350 509 5 0 0 0 - - - 0;
#X floatatom 400 509 5 0 0 0 - - - 0;
#X floatatom 450 509 5 0 0 0 - - - 0;
#X obj 147 402 inlet;
#X obj 147 452 del 15;
#X connect 0 0 3 0;
#X connect 1 0 0 0;
#X connect 4 0 6 0;
#X connect 5 0 7 0;
#X connect 5 2 1 1;
#X connect 6 0 7 0;
#X connect 6 2 1 1;
#X connect 7 2 1 0;
#X connect 8 0 11 0;
#X connect 9 0 12 0;
#X connect 10 0 13 0;
#X connect 11 0 1 2;
#X connect 12 0 1 3;
#X connect 13 0 1 4;
#X connect 14 0 11 0;
#X connect 14 0 12 0;
#X connect 14 0 13 0;
#X connect 14 0 15 0;
#X connect 15 0 5 0;
#X connect 15 0 4 0;
#X restore 44 556 pd simultaneous-colour;
#X obj 94 519 unpack f f f;
#X obj 44 223 tgl 15 0 empty empty empty 17 7 0 10 #fcfcfc #000000
#000000 0 1;
#X obj 205 385 unpack f f f;
#X msg 205 360 200 200 90;
#N canvas 0 0 1140 1050 up 0;
#X msg 101 404 /lighthouse/lightx\$1y\$2 \$3 \$4 \$5;
#X obj 101 379 pack f f f f f, f 27;
#X obj 101 429 s osc;
#X obj 314 214 tgl 15 0 empty empty empty 17 7 0 10 #fcfcfc #000000
#000000 0 1;
#X obj 314 234 sel 0 1, f 10;
#X msg 347 266 0;
#X floatatom 207 267 5 0 0 0 - - - 0;
#X obj 207 215 bng 15 250 50 0 empty empty empty 17 7 0 10 #fcfcfc
#000000 #000000;
#X msg 225 215 1;
#X obj 207 243 counter 8 0;
#X obj 55 123 inlet;
#X obj 431 210 inlet;
#X obj 481 210 inlet;
#X obj 531 210 inlet;
#X floatatom 431 235 5 0 0 0 - - - 0;
#X floatatom 481 235 5 0 0 0 - - - 0;
#X floatatom 531 235 5 0 0 0 - - - 0;
#X obj 101 239 inlet;
#X obj 101 337 +;
#X obj 119 312 inlet;
#X text 92 85 0 bang \, 1 number of ligths \, 2 offset \, 3 red \,
4 green \, 5 blue;
#X obj 55 264 uzi 5 0;
#X connect 0 0 2 0;
#X connect 1 0 0 0;
#X connect 3 0 4 0;
#X connect 4 0 14 0;
#X connect 4 0 15 0;
#X connect 4 0 16 0;
#X connect 4 1 5 0;
#X connect 5 0 1 3;
#X connect 5 0 1 4;
#X connect 5 0 1 2;
#X connect 6 0 1 1;
#X connect 7 0 9 0;
#X connect 8 0 9 1;
#X connect 9 0 6 0;
#X connect 10 0 8 0;
#X connect 10 0 3 0;
#X connect 10 0 7 0;
#X connect 10 0 21 0;
#X connect 11 0 14 0;
#X connect 12 0 15 0;
#X connect 13 0 16 0;
#X connect 14 0 1 2;
#X connect 15 0 1 3;
#X connect 16 0 1 4;
#X connect 17 0 21 1;
#X connect 18 0 1 0;
#X connect 19 0 18 1;
#X connect 21 2 18 0;
#X restore 44 412 pd up;
#X f 35;
#X floatatom 107 379 5 0 0 0 - - - 0;
#X floatatom 154 381 5 0 0 0 - - - 0;
#X obj 458 386 unpack f f f;
#X msg 458 361 200 200 90;
#X floatatom 360 380 5 0 0 0 - - - 0;
#X floatatom 407 382 5 0 0 0 - - - 0;
#N canvas 0 0 1140 1050 down 0;
#X msg 101 404 /lighthouse/lightx\$1y\$2 \$3 \$4 \$5;
#X obj 101 379 pack f f f f f, f 27;
#X obj 101 429 s osc;
#X obj 314 214 tgl 15 0 empty empty empty 17 7 0 10 #fcfcfc #000000
#000000 0 1;
#X obj 314 234 sel 0 1, f 10;
#X msg 347 266 0;
#X floatatom 207 267 5 0 0 0 - - - 0;
#X obj 207 215 bng 15 250 50 0 empty empty empty 17 7 0 10 #fcfcfc
#000000 #000000;
#X obj 207 243 counter 8 0;
#X obj 55 123 inlet;
#X obj 431 210 inlet;
#X obj 481 210 inlet;
#X obj 531 210 inlet;
#X floatatom 431 235 5 0 0 0 - - - 0;
#X floatatom 481 235 5 0 0 0 - - - 0;
#X floatatom 531 235 5 0 0 0 - - - 0;
#X obj 101 239 inlet;
#X obj 101 337 +;
#X obj 119 312 inlet;
#X text 92 85 0 bang \, 1 number of ligths \, 2 offset \, 3 red \,
4 green \, 5 blue;
#X obj 55 264 uzi 5 0;
#X connect 0 0 2 0;
#X connect 1 0 0 0;
#X connect 3 0 4 0;
#X connect 4 0 13 0;
#X connect 4 0 14 0;
#X connect 4 0 15 0;
#X connect 4 1 5 0;
#X connect 5 0 1 3;
#X connect 5 0 1 4;
#X connect 5 0 1 2;
#X connect 6 0 1 1;
#X connect 7 0 8 0;
#X connect 8 0 6 0;
#X connect 9 0 3 0;
#X connect 9 0 7 0;
#X connect 9 0 20 0;
#X connect 10 0 13 0;
#X connect 11 0 14 0;
#X connect 12 0 15 0;
#X connect 13 0 1 2;
#X connect 14 0 1 3;
#X connect 15 0 1 4;
#X connect 16 0 20 1;
#X connect 17 0 1 0;
#X connect 18 0 17 1;
#X connect 20 2 17 0;
#X restore 297 413 pd down;
#X f 35;
#N canvas 0 0 1920 1052 2colour-drunk 0;
#X msg 1206 396 /lighthouse/lightx\$1y\$2 \$3 \$4 \$5;
#X obj 1206 323 pack f f f f f, f 27;
#X msg 1299 294 255;
#X obj 1259 420 s osc;
#X msg 1344 293 0;
#X obj 1206 421 print;
#X obj 1286 197 drunk 7 3;
#X obj 1206 198 drunk 15 3;
#X obj 1406 323 pack f f f f f, f 27;
#X msg 1544 293 255;
#X msg 1592 289 0;
#X obj 1442 194 drunk 7 3;
#X obj 1361 197 drunk 18 3;
#X obj 1361 222 + 16;
#X obj 1206 169 inlet;
#X obj 1550 238 loadbang;
#X connect 0 0 3 0;
#X connect 0 0 5 0;
#X connect 1 0 0 0;
#X connect 2 0 1 2;
#X connect 4 0 1 3;
#X connect 4 0 1 4;
#X connect 6 0 1 1;
#X connect 7 0 1 0;
#X connect 8 0 0 0;
#X connect 9 0 8 3;
#X connect 10 0 8 4;
#X connect 10 0 8 2;
#X connect 11 0 8 1;
#X connect 12 0 13 0;
#X connect 13 0 8 0;
#X connect 14 0 6 0;
#X connect 14 0 7 0;
#X connect 14 0 12 0;
#X connect 14 0 11 0;
#X connect 15 0 9 0;
#X connect 15 0 4 0;
#X connect 15 0 2 0;
#X connect 15 0 10 0;
#X restore 1100 411 pd 2colour-drunk;
#X obj 1100 359 tgl 15 0 empty empty empty 17 7 0 10 #fcfcfc #000000
#000000 0 1;
#X obj 1100 383 metro 50;
#N canvas 0 0 1920 1052 markov 0;
#X restore 443 556 pd markov;
#N canvas 0 0 1920 1052 blocks 0;
#X restore 371 557 pd blocks;
#X obj 545 485 tgl 15 0 empty empty empty 17 7 0 10 #fcfcfc #000000
#000000 0 1;
#X obj 706 529 unpack f f f;
#X msg 706 504 200 200 90;
#N canvas 0 0 649 1050 left 0;
#X msg 101 404 /lighthouse/lightx\$1y\$2 \$3 \$4 \$5;
#X obj 101 379 pack f f f f f, f 27;
#X obj 101 429 s osc;
#X obj 314 214 tgl 15 0 empty empty empty 17 7 0 10 #fcfcfc #000000
#000000 0 1;
#X obj 314 234 sel 0 1, f 10;
#X msg 347 266 0;
#X obj 207 215 bng 15 250 50 0 empty empty empty 17 7 0 10 #fcfcfc
#000000 #000000;
#X obj 55 123 inlet;
#X obj 431 210 inlet;
#X obj 481 210 inlet;
#X obj 531 210 inlet;
#X floatatom 431 235 5 0 0 0 - - - 0;
#X floatatom 481 235 5 0 0 0 - - - 0;
#X floatatom 531 235 5 0 0 0 - - - 0;
#X text 92 85 0 bang \, 1 number of ligths \, 2 offset \, 3 red \,
4 green \, 5 blue;
#X obj 207 243 uzi 8 0;
#X obj 104 309 counter 35;
#X obj 55 264 uzi 1 0;
#X obj 120 276 bng 15 250 50 0 empty empty empty 17 7 0 10 #fcfcfc
#000000 #000000;
#X connect 0 0 2 0;
#X connect 1 0 0 0;
#X connect 3 0 4 0;
#X connect 4 0 11 0;
#X connect 4 0 12 0;
#X connect 4 0 13 0;
#X connect 4 0 17 0;
#X connect 4 1 5 0;
#X connect 5 0 1 3;
#X connect 5 0 1 4;
#X connect 5 0 1 2;
#X connect 6 0 15 0;
#X connect 7 0 3 0;
#X connect 7 0 6 0;
#X connect 8 0 11 0;
#X connect 9 0 12 0;
#X connect 10 0 13 0;
#X connect 11 0 1 2;
#X connect 12 0 1 3;
#X connect 13 0 1 4;
#X connect 15 2 1 1;
#X connect 16 0 1 0;
#X connect 17 2 16 0;
#X connect 18 0 16 2;
#X restore 545 556 pd left;
#X f 35;
#X obj 545 511 metro 100;
#X obj 727 383 unpack f f f;
#X msg 727 358 200 200 90;
#N canvas 0 0 958 1050 up 0;
#X msg 101 404 /lighthouse/lightx\$1y\$2 \$3 \$4 \$5;
#X obj 101 379 pack f f f f f, f 27;
#X obj 101 429 s osc;
#X obj 314 214 tgl 15 0 empty empty empty 17 7 0 10 #fcfcfc #000000
#000000 0 1;
#X obj 314 234 sel 0 1, f 10;
#X msg 347 266 0;
#X floatatom 207 267 5 0 0 0 - - - 0;
#X obj 207 215 bng 15 250 50 0 empty empty empty 17 7 0 10 #fcfcfc
#000000 #000000;
#X msg 225 215 1;
#X obj 207 243 counter 8 0;
#X obj 55 123 inlet;
#X obj 431 210 inlet;
#X obj 481 210 inlet;
#X obj 531 210 inlet;
#X floatatom 431 235 5 0 0 0 - - - 0;
#X floatatom 481 235 5 0 0 0 - - - 0;
#X floatatom 531 235 5 0 0 0 - - - 0;
#X obj 101 239 inlet;
#X obj 101 337 +;
#X obj 119 312 inlet;
#X text 92 85 0 bang \, 1 number of ligths \, 2 offset \, 3 red \,
4 green \, 5 blue;
#X obj 55 264 uzi 5 0;
#X connect 0 0 2 0;
#X connect 1 0 0 0;
#X connect 3 0 4 0;
#X connect 4 0 14 0;
#X connect 4 0 15 0;
#X connect 4 0 16 0;
#X connect 4 1 5 0;
#X connect 5 0 1 3;
#X connect 5 0 1 4;
#X connect 5 0 1 2;
#X connect 6 0 1 1;
#X connect 7 0 9 0;
#X connect 8 0 9 1;
#X connect 9 0 6 0;
#X connect 10 0 8 0;
#X connect 10 0 3 0;
#X connect 10 0 7 0;
#X connect 10 0 21 0;
#X connect 11 0 14 0;
#X connect 12 0 15 0;
#X connect 13 0 16 0;
#X connect 14 0 1 2;
#X connect 15 0 1 3;
#X connect 16 0 1 4;
#X connect 17 0 21 1;
#X connect 18 0 1 0;
#X connect 19 0 18 1;
#X connect 21 2 18 0;
#X restore 566 410 pd up;
#X f 35;
#X floatatom 629 377 5 0 0 0 - - - 0;
#X floatatom 676 379 5 0 0 0 - - - 0;
#X obj 980 384 unpack f f f;
#X msg 980 359 200 200 90;
#X floatatom 882 378 5 0 0 0 - - - 0;
#X floatatom 929 380 5 0 0 0 - - - 0;
#N canvas 0 0 958 1050 down 0;
#X msg 101 404 /lighthouse/lightx\$1y\$2 \$3 \$4 \$5;
#X obj 101 379 pack f f f f f, f 27;
#X obj 101 429 s osc;
#X obj 314 214 tgl 15 0 empty empty empty 17 7 0 10 #fcfcfc #000000
#000000 0 1;
#X obj 314 234 sel 0 1, f 10;
#X msg 347 266 0;
#X floatatom 207 267 5 0 0 0 - - - 0;
#X obj 207 215 bng 15 250 50 0 empty empty empty 17 7 0 10 #fcfcfc
#000000 #000000;
#X obj 207 243 counter 8 0;
#X obj 55 123 inlet;
#X obj 431 210 inlet;
#X obj 481 210 inlet;
#X obj 531 210 inlet;
#X floatatom 431 235 5 0 0 0 - - - 0;
#X floatatom 481 235 5 0 0 0 - - - 0;
#X floatatom 531 235 5 0 0 0 - - - 0;
#X obj 101 239 inlet;
#X obj 101 337 +;
#X obj 119 312 inlet;
#X text 92 85 0 bang \, 1 number of ligths \, 2 offset \, 3 red \,
4 green \, 5 blue;
#X obj 55 264 uzi 5 0;
#X connect 0 0 2 0;
#X connect 1 0 0 0;
#X connect 3 0 4 0;
#X connect 4 0 13 0;
#X connect 4 0 14 0;
#X connect 4 0 15 0;
#X connect 4 1 5 0;
#X connect 5 0 1 3;
#X connect 5 0 1 4;
#X connect 5 0 1 2;
#X connect 6 0 1 1;
#X connect 7 0 8 0;
#X connect 8 0 6 0;
#X connect 9 0 3 0;
#X connect 9 0 7 0;
#X connect 9 0 20 0;
#X connect 10 0 13 0;
#X connect 11 0 14 0;
#X connect 12 0 15 0;
#X connect 13 0 1 2;
#X connect 14 0 1 3;
#X connect 15 0 1 4;
#X connect 16 0 20 1;
#X connect 17 0 1 0;
#X connect 18 0 17 1;
#X connect 20 2 17 0;
#X restore 819 411 pd down;
#X f 35;
#N canvas 0 0 1920 1052 random-rgb 0;
#X obj 352 186 random 255;
#X obj 432 186 random 255;
#X obj 512 186 random 255;
#X obj 352 134 inlet;
#X obj 352 236 pack f f f;
#X obj 352 261 outlet;
#X connect 0 0 4 0;
#X connect 1 0 4 1;
#X connect 2 0 4 2;
#X connect 3 0 0 0;
#X connect 3 0 1 0;
#X connect 3 0 2 0;
#X connect 4 0 5 0;
#X restore 272 557 pd random-rgb;
#X floatatom 165 470 5 0 0 0 - - - 0;
#N canvas 0 0 1140 1050 palettes 0;
#X obj 197 296 coll;
#X f 17;
#C restore;
#X msg 363 89 0 220 196 68;
#X msg 363 118 1 223 168 187;
#X msg 363 148 2 124 28 52;
#X msg 363 178 3 161 86 95;
#X msg 363 208 4 164 200 206;
#X msg 363 238 5 56 91 98;
#X obj 333 26 loadbang;
#X obj 197 217 inlet;
#X obj 197 321 outlet;
#X msg 473 89 0 220 196 68;
#X msg 473 118 1 223 168 187;
#X msg 473 148 2 124 28 52;
#X msg 473 178 3 161 86 95;
#X msg 473 208 4 164 200 206;
#X msg 473 238 5 56 91 98;
#X msg 593 89 0 220 196 68;
#X msg 593 118 1 223 168 187;
#X msg 593 148 2 124 28 52;
#X msg 593 178 3 161 86 95;
#X msg 593 208 4 164 200 206;
#X msg 593 238 5 56 91 98;
#X msg 713 89 0 220 196 68;
#X msg 713 118 1 223 168 187;
#X msg 713 148 2 124 28 52;
#X msg 713 178 3 161 86 95;
#X msg 713 208 4 164 200 206;
#X msg 713 238 5 56 91 98;
#X connect 0 0 9 0;
#X connect 1 0 0 0;
#X connect 2 0 0 0;
#X connect 3 0 0 0;
#X connect 4 0 0 0;
#X connect 5 0 0 0;
#X connect 6 0 0 0;
#X connect 7 0 1 0;
#X connect 7 0 6 0;
#X connect 7 0 5 0;
#X connect 7 0 4 0;
#X connect 7 0 3 0;
#X connect 7 0 2 0;
#X connect 8 0 0 0;
#X connect 10 0 0 0;
#X connect 11 0 0 0;
#X connect 12 0 0 0;
#X connect 13 0 0 0;
#X connect 14 0 0 0;
#X connect 15 0 0 0;
#X connect 16 0 0 0;
#X connect 17 0 0 0;
#X connect 18 0 0 0;
#X connect 19 0 0 0;
#X connect 20 0 0 0;
#X connect 21 0 0 0;
#X connect 22 0 0 0;
#X connect 23 0 0 0;
#X connect 24 0 0 0;
#X connect 25 0 0 0;
#X connect 26 0 0 0;
#X connect 27 0 0 0;
#X restore 165 494 pd palettes;
#X obj 129 197 random 5;
#N canvas 0 0 1140 1050 palettes 0;
#X obj 197 296 coll;
#X f 17;
#C restore;
#X obj 197 217 inlet;
#X obj 197 321 outlet;
#X msg 319 180 0 255 0 0 \, 1 0 255 0 \, 2 0 0 255 \, 3 0 255 255 \,
4 255 255 0 \, 5 0 0 255;
#X msg 319 226 0 220 196 68 \, 1 223 168 187 \, 2 124 28 52 \, 3 161
86 95 \, 4 164 200 206 \, 5 56 91 98;
#X obj 319 150 loadbang;
#X connect 0 0 2 0;
#X connect 1 0 0 0;
#X connect 3 0 0 0;
#X connect 4 0 0 0;
#X connect 5 0 3 0;
#X restore 129 223 pd palettes;
#X msg 94 494 255 255 255;
#X obj 44 190 bng 15 250 50 0 empty empty empty 17 7 0 10 #fcfcfc #000000
#000000;
#N canvas 0 0 1140 1050 palette-shift 0;
#X obj 551 259 bucket 4;
#X obj 551 196 unpack f f f;
#X obj 632 260 bucket 4;
#X obj 709 261 bucket 4;
#X obj 551 349 pack f f f;
#X obj 631 349 pack f f f;
#X obj 721 349 pack f f f;
#X obj 812 349 pack f f f;
#X obj 551 153 inlet;
#X obj 551 374 outlet;
#X obj 631 374 outlet;
#X obj 721 374 outlet;
#X obj 812 374 outlet;
#X connect 0 0 4 0;
#X connect 0 1 5 0;
#X connect 0 2 6 0;
#X connect 0 3 7 0;
#X connect 1 0 0 0;
#X connect 1 1 2 0;
#X connect 1 2 3 0;
#X connect 2 0 4 1;
#X connect 2 1 5 1;
#X connect 2 2 6 1;
#X connect 2 3 7 1;
#X connect 3 0 4 2;
#X connect 3 1 5 2;
#X connect 3 2 6 2;
#X connect 3 3 7 2;
#X connect 4 0 9 0;
#X connect 5 0 10 0;
#X connect 6 0 11 0;
#X connect 7 0 12 0;
#X connect 8 0 1 0;
#X restore 129 257 pd palette-shift;
#X obj 44 249 metro 500;
#X obj 1153 349 inlet;
#X obj 1100 326 inlet;
#X obj 42 137 inlet;
#X obj 112 137 inlet;
#X obj 182 137 inlet;
#X connect 1 0 4 0;
#X connect 3 0 4 0;
#X connect 4 0 0 0;
#X connect 5 0 4 0;
#X connect 6 0 3 0;
#X connect 7 0 13 0;
#X connect 9 0 11 0;
#X connect 9 0 12 0;
#X connect 10 0 7 0;
#X connect 11 0 9 1;
#X connect 12 0 10 0;
#X connect 13 0 8 0;
#X connect 14 0 53 0;
#X connect 16 0 15 0;
#X connect 18 0 17 1;
#X connect 18 1 17 2;
#X connect 18 2 17 3;
#X connect 19 0 58 0;
#X connect 20 0 22 3;
#X connect 20 1 22 4;
#X connect 20 2 22 5;
#X connect 21 0 20 0;
#X connect 23 0 22 1;
#X connect 24 0 22 2;
#X connect 25 0 29 3;
#X connect 25 1 29 4;
#X connect 25 2 29 5;
#X connect 26 0 25 0;
#X connect 27 0 29 1;
#X connect 28 0 29 2;
#X connect 31 0 32 0;
#X connect 32 0 30 0;
#X connect 35 0 39 0;
#X connect 36 0 38 1;
#X connect 36 1 38 2;
#X connect 36 2 38 3;
#X connect 37 0 36 0;
#X connect 39 0 38 0;
#X connect 40 0 42 3;
#X connect 40 1 42 4;
#X connect 40 2 42 5;
#X connect 41 0 40 0;
#X connect 43 0 42 1;
#X connect 44 0 42 2;
#X connect 45 0 49 3;
#X connect 45 1 49 4;
#X connect 45 2 49 5;
#X connect 46 0 45 0;
#X connect 47 0 49 1;
#X connect 48 0 49 2;
#X connect 51 0 52 0;
#X connect 52 0 18 0;
#X connect 53 0 54 0;
#X connect 54 0 57 0;
#X connect 55 0 18 0;
#X connect 56 0 19 0;
#X connect 57 0 20 0;
#X connect 57 1 25 0;
#X connect 57 2 40 0;
#X connect 57 3 45 0;
#X connect 58 0 22 0;
#X connect 58 0 29 0;
#X connect 58 0 42 0;
#X connect 58 0 49 0;
#X connect 59 0 32 1;
#X connect 60 0 31 0;
