#N canvas 2150 0 1918 1050 12;
#X obj 85 162 vstplugin~;
#X obj 83 398 dac~;
#X obj 406 316 osc~;
#X obj 406 284 mtof 40;
#X floatatom 462 321 5 0 0 0 - - - 0;
#X msg 406 266 30;
#X obj 497 266 line~;
#X obj 406 336 *~;
#X obj 497 287 cyclone/slide~ 44 44;
#X obj 463 342 ../erbeverbs/06erbe/gsp-fdnstereo;
#X msg 42 62 open -e Kaivo 2;
#X msg 497 245 1 \, 0 300;
#X obj 135 302 sampstoms~;
#X obj 135 284 route latency;
#X floatatom 202 322 5 0 0 0 - - - 0;
#X obj 604 88 oscparse;
#X obj 604 63 netreceive -u -b;
#X msg 604 35 listen 9003;
#X obj 604 116 list trim;
#X obj 604 144 route tidal;
#X obj 615 206 print;
#X obj 257 49 % 127;
#X obj 217 -1 unpack f f f;
#X floatatom 204 49 5 0 0 0 - - - 0;
#X obj 204 68 + 72;
#X obj 204 90 pack f f;
#X floatatom 257 68 5 0 0 0 - - - 0;
#X msg 182 134 midi_note 1 \$1 \$2;
#X msg 316 169 midi_noteoff 1 \$1;
#X obj 316 133 bucket 2;
#X floatatom 316 150 5 0 0 0 - - - 0;
#X obj 447 201 vstplugin~;
#X obj 437 243 dac~ 3;
#X obj 770 250 % 127;
#X obj 730 200 unpack f f f;
#X floatatom 717 250 5 0 0 0 - - - 0;
#X obj 717 269 + 72;
#X obj 717 291 pack f f;
#X floatatom 770 269 5 0 0 0 - - - 0;
#X msg 683 317 midi_note 1 \$1 \$2;
#X msg 467 166 midi_noteoff 1 \$1;
#X obj 829 334 bucket 2;
#X floatatom 829 351 5 0 0 0 - - - 0;
#X obj 604 172 route blofeld wolf wbass mod1 kaivo bd;
#X obj 332 246 env~;
#X floatatom 332 265 5 0 0 0 - - - 0;
#X obj 447 220 *~ 0.1;
#X connect 0 0 9 0;
#X connect 0 0 1 0;
#X connect 0 1 1 1;
#X connect 0 2 13 0;
#X connect 2 0 7 0;
#X connect 3 0 2 0;
#X connect 3 0 4 0;
#X connect 5 0 3 0;
#X connect 6 0 8 0;
#X connect 8 0 7 1;
#X connect 9 0 1 0;
#X connect 9 1 1 1;
#X connect 10 0 0 0;
#X connect 10 0 31 0;
#X connect 11 0 6 0;
#X connect 12 1 14 0;
#X connect 13 0 12 0;
#X connect 15 0 18 0;
#X connect 15 0 20 0;
#X connect 16 0 15 0;
#X connect 17 0 16 0;
#X connect 18 0 19 0;
#X connect 19 0 43 0;
#X connect 21 0 26 0;
#X connect 22 0 23 0;
#X connect 22 1 21 0;
#X connect 23 0 24 0;
#X connect 24 0 25 0;
#X connect 24 0 29 0;
#X connect 25 0 27 0;
#X connect 26 0 25 1;
#X connect 27 0 0 0;
#X connect 28 0 0 0;
#X connect 29 0 30 0;
#X connect 30 0 28 0;
#X connect 31 0 44 0;
#X connect 31 0 46 0;
#X connect 31 1 46 0;
#X connect 33 0 38 0;
#X connect 34 0 35 0;
#X connect 34 1 33 0;
#X connect 35 0 36 0;
#X connect 36 0 37 0;
#X connect 36 0 41 0;
#X connect 37 0 39 0;
#X connect 38 0 37 1;
#X connect 39 0 31 0;
#X connect 40 0 31 0;
#X connect 41 0 42 0;
#X connect 42 0 40 0;
#X connect 43 4 22 0;
#X connect 43 5 34 0;
#X connect 44 0 45 0;
#X connect 46 0 32 0;
