#N canvas 0 0 1362 1050 12;
#X floatatom 576 391 5 0 0 0 - - - 0;
#X floatatom 623 391 5 0 0 0 - - - 0;
#X floatatom 764 391 5 0 0 0 - - - 0;
#X floatatom 811 391 5 0 0 0 - - - 0;
#X floatatom 670 391 5 0 0 0 - - - 0;
#X floatatom 717 391 5 0 0 0 - - - 0;
#X floatatom 858 391 5 0 0 0 - - - 0;
#X floatatom 905 391 5 0 0 0 - - - 0;
#X obj 576 340 *;
#X obj 611 340 *;
#X obj 646 340 *;
#X obj 681 340 *;
#X obj 842 124 hsl 128 15 0 1 0 0 empty empty empty -2 -8 0 10 #fcfcfc
#000000 #000000 0 1;
#X obj 842 144 hsl 128 15 0 1 0 0 empty empty empty -2 -8 0 10 #fcfcfc
#000000 #000000 0 1;
#X obj 842 164 hsl 128 15 0 1 0 0 empty empty empty -2 -8 0 10 #fcfcfc
#000000 #000000 0 1;
#X obj 842 184 hsl 128 15 0 1 0 0 empty empty empty -2 -8 0 10 #fcfcfc
#000000 #000000 0 1;
#X obj 716 340 *;
#X obj 751 340 *;
#X obj 786 340 *;
#X obj 821 340 *;
#X obj 842 205 hsl 128 15 0 1 0 0 empty empty empty -2 -8 0 10 #fcfcfc
#000000 #000000 0 1;
#X obj 842 225 hsl 128 15 0 1 0 0 empty empty empty -2 -8 0 10 #fcfcfc
#000000 #000000 0 1;
#X obj 842 245 hsl 128 15 0 1 0 0 empty empty empty -2 -8 0 10 #fcfcfc
#000000 #000000 0 1;
#X obj 842 265 hsl 128 15 0 1 0 0 empty empty empty -2 -8 0 10 #fcfcfc
#000000 #000000 0 1;
#X obj 576 155 snapshot~;
#X obj 626 128 metro 5;
#X msg 626 102 1;
#X obj 626 79 loadbang;
#X obj 576 79 inlet~;
#X obj 417 79 inlet;
#X connect 8 0 0 0;
#X connect 9 0 1 0;
#X connect 10 0 4 0;
#X connect 11 0 5 0;
#X connect 12 0 8 1;
#X connect 13 0 9 1;
#X connect 14 0 10 1;
#X connect 15 0 11 1;
#X connect 16 0 2 0;
#X connect 17 0 3 0;
#X connect 18 0 6 0;
#X connect 19 0 7 0;
#X connect 20 0 16 1;
#X connect 21 0 17 1;
#X connect 22 0 18 1;
#X connect 23 0 19 1;
#X connect 24 0 8 0;
#X connect 24 0 9 0;
#X connect 24 0 10 0;
#X connect 24 0 11 0;
#X connect 24 0 16 0;
#X connect 24 0 19 0;
#X connect 24 0 18 0;
#X connect 24 0 17 0;
#X connect 25 0 24 0;
#X connect 26 0 25 0;
#X connect 27 0 26 0;
#X connect 28 0 24 0;
#X connect 29 0 8 0;
#X connect 29 0 19 0;
#X connect 29 0 18 0;
#X connect 29 0 17 0;
#X connect 29 0 16 0;
#X connect 29 0 11 0;
#X connect 29 0 10 0;
#X connect 29 0 9 0;
