#N canvas 0 0 958 1050 12;
#X msg 293 365 disconnect;
#X obj 263 394 netsend -u -b;
#X obj 280 315 loadbang;
#X msg 232 239 list weasel 6 7 rat;
#X text 279 150 OSC messages:;
#X floatatom 156 184 5 0 0 0 - - - 0;
#X msg 640 315 listen 9002;
#X obj 677 382 oscparse;
#X obj 677 407 print;
#X listbox 593 466 20 0 0 0 - - - 0;
#X msg 314 293 connect 127.0.0.1 9002;
#X obj 628 383 print;
#X obj 677 357 netreceive -u -b;
#X obj 207 274 oscformat -f;
#X obj 156 165 random 100;
#X obj 156 140 metro 300;
#X obj 156 110 tgl 20 0 empty empty empty 0 -10 0 12 #fcfcfc #000000 #000000 0 1;
#X msg 280 339 connect 192.168.0.255 20808;
#X connect 0 0 1 0;
#X connect 2 0 17 0;
#X connect 3 0 13 0;
#X connect 5 0 13 0;
#X connect 6 0 12 0;
#X connect 7 0 8 0;
#X connect 7 0 9 0;
#X connect 10 0 1 0;
#X connect 12 0 7 0;
#X connect 12 0 11 0;
#X connect 13 0 1 0;
#X connect 14 0 5 0;
#X connect 15 0 14 0;
#X connect 16 0 15 0;
#X connect 17 0 1 0;
