#N canvas 0 0 958 1050 12;
#X msg 293 365 disconnect;
#X obj 263 394 netsend -u -b;
#X obj 280 315 loadbang;
#X text 285 95 OSC messages:;
#X floatatom 207 175 5 0 0 0 - - - 0;
#X obj 87 377 oscparse;
#X obj 121 420 print;
#X listbox 124 476 89 0 0 0 - - - 0;
#X obj 87 352 netreceive -u -b;
#X obj 207 156 random 100;
#X obj 207 131 metro 300;
#X obj 207 101 tgl 20 0 empty empty empty 0 -10 0 12 #fcfcfc #000000 #000000 0 1;
#X msg 280 339 connect 192.168.0.255 20808;
#X msg 314 293 connect 127.0.0.1 57120;
#X obj 207 274 oscformat /cursor;
#X msg 207 211 list \$1 3;
#X msg 383 180 connect 127.0.0.1 6010;
#X text 405 161 tidal;
#X msg 261 233;
#X floatatom 429 212 5 0 0 0 - - - 0;
#X obj 429 234 oscformat /setcps;
#X msg 87 315 listen 9003;
#X obj 212 761 osc~;
#X obj 226 858 dac~;
#X obj 360 766 line~;
#X obj 214 803 *~;
#X listbox 232 577 89 0 0 0 - - - 0;
#X obj 188 539 list split 10;
#X obj 232 600 list split 1;
#X floatatom 232 627 5 0 0 0 - - - 0;
#X obj 337 700 bng 19 250 50 0 empty empty empty 0 -10 0 12 #fcfcfc #000000 #000000;
#X obj 262 663 mtof;
#X floatatom 367 677 5 0 0 0 - - - 0;
#X obj 118 613 ftom;
#X floatatom 118 637 14 0 0 0 - - - 0;
#X msg 117 573 63.1579;
#X obj 544 747 ftom;
#X floatatom 544 774 22 0 0 0 - - - 0;
#X floatatom 544 719 5 0 0 0 - - - 0;
#X obj 446 637 expr 440 * pow(2 \, ($f1-69)/19);
#X floatatom 446 661 5 0 0 0 - - - 0;
#X text 547 675 https://sevish.com/2015/microtonal-equal-temperaments-max-msp-expr/;
#X msg 360 742 0.01 \, 0 100;
#X connect 0 0 1 0;
#X connect 2 0 12 0;
#X connect 4 0 15 0;
#X connect 5 0 6 0;
#X connect 5 0 7 0;
#X connect 7 0 27 0;
#X connect 8 0 5 0;
#X connect 9 0 4 0;
#X connect 10 0 9 0;
#X connect 11 0 10 0;
#X connect 12 0 1 0;
#X connect 13 0 1 0;
#X connect 14 0 1 0;
#X connect 15 0 14 0;
#X connect 16 0 1 0;
#X connect 19 0 20 0;
#X connect 20 0 1 0;
#X connect 21 0 8 0;
#X connect 22 0 25 0;
#X connect 24 0 25 1;
#X connect 25 0 23 0;
#X connect 25 0 23 1;
#X connect 26 0 28 0;
#X connect 27 1 26 0;
#X connect 28 0 29 0;
#X connect 28 0 39 0;
#X connect 29 0 31 0;
#X connect 30 0 42 0;
#X connect 31 0 30 0;
#X connect 31 0 32 0;
#X connect 33 0 34 0;
#X connect 35 0 33 0;
#X connect 36 0 37 0;
#X connect 38 0 36 0;
#X connect 39 0 40 0;
#X connect 40 0 22 0;
#X connect 42 0 24 0;
