#N canvas 0 0 1920 1052 12;
#X obj 942 662 soundfiler;
#N canvas 0 22 450 300 (subpatch) 0;
#X array array1 44100 float 2;
#X coords 0 1 44100 -1 300 100 1;
#X restore 907 58 graph;
#X obj 942 584 text get samples;
#X floatatom 942 561 5 0 200 0 - - - 0;
#X listbox 942 609 20 0 0 0 - - - 0;
#X obj 908 354 text define samples;
#X msg 1217 90 bang;
#X obj 1217 138 dac~;
#X obj 1140 814 soundfiler;
#X obj 1140 736 text get samples;
#X floatatom 1140 713 5 0 127 0 - - - 0;
#X listbox 1140 761 31 0 0 0 - - - 0;
#N canvas 0 22 450 300 (subpatch) 0;
#X array array2 44100 float 0;
#X coords 0 1 44099 -1 300 100 1 0 0;
#X restore 908 200 graph;
#X msg 1218 232 bang;
#X obj 1218 280 dac~;
#X obj 908 306 loadbang;
#X obj 1217 114 tabplay~ array1;
#X obj 1218 256 tabplay~ array2;
#X text 908 406 linux remove spaces:;
#X text 1009 388 %s/$/ \; /;
#X text 908 388 vim command:;
#X obj 268 538 curve~;
#X msg 268 514 1 \$1 -0.5 0 \$2 -0.5;
#X floatatom 268 465 5 0 0 0 - - - 0;
#X obj 268 489 pack f f;
#X floatatom 320 463 5 0 0 0 - - - 0;
#X floatatom 150 408 5 0 0 0 - - - 0;
#X obj 150 459 line~;
#X obj 150 366 bng 15 250 50 0 empty empty empty 17 7 0 10 #fcfcfc
#000000 #000000;
#X obj 181 558 *~;
#X msg 150 433 0 \, 48000 \$1;
#X text 1067 406 for file in *.wav do mv -- "$file" "$file// /_" done
\;;
#X msg 907 329 read /home/sss/808/samples.txt;
#X msg 942 632 read /home/sss/808/\$1 array1;
#X obj 1647 718 curve~;
#X msg 1647 694 1 \$1 -0.5 0 \$2 -0.5;
#X floatatom 1647 645 5 0 0 0 - - - 0;
#X obj 1647 669 pack f f;
#X floatatom 1739 609 5 0 0 0 - - - 0;
#X floatatom 1490 636 5 0 0 0 - - - 0;
#X obj 1490 687 line~;
#X obj 1490 594 bng 15 250 50 0 empty empty empty 17 7 0 10 #fcfcfc
#000000 #000000;
#X obj 1490 819 dac~;
#X obj 1490 789 *~;
#X msg 1490 661 0 \, 48000 \$1;
#X floatatom 1739 654 5 0 0 0 - - - 0;
#X msg 1793 581 0;
#X obj 1739 631 +;
#X obj 1793 517 gate 2;
#X floatatom 1793 612 5 0 0 0 - - - 0;
#X obj 1793 463 vradio 15 1 0 3 empty empty empty 0 -8 0 10 #fcfcfc
#000000 #000000 0;
#X obj 1745 536 sel 1;
#X obj 1745 561 bang;
#X obj 1490 714 tabread~ array1;
#X obj 1490 739 svf~ 10000 0.3;
#X obj 1832 557 random 120;
#X obj 556 545 curve~;
#X msg 556 521 1 \$1 -0.5 0 \$2 -0.5;
#X floatatom 556 472 5 0 0 0 - - - 0;
#X obj 556 496 pack f f;
#X floatatom 608 470 5 0 0 0 - - - 0;
#X floatatom 438 415 5 0 0 0 - - - 0;
#X obj 438 466 line~;
#X obj 438 373 bng 15 250 50 0 empty empty empty 17 7 0 10 #fcfcfc
#000000 #000000;
#X obj 469 570 *~;
#X msg 438 440 0 \, 48000 \$1;
#X obj 854 535 curve~;
#X msg 854 511 1 \$1 -0.5 0 \$2 -0.5;
#X floatatom 854 462 5 0 0 0 - - - 0;
#X obj 854 486 pack f f;
#X floatatom 906 460 5 0 0 0 - - - 0;
#X floatatom 736 405 5 0 0 0 - - - 0;
#X obj 736 456 line~;
#X obj 736 363 bng 15 250 50 0 empty empty empty 17 7 0 10 #fcfcfc
#000000 #000000;
#X obj 767 555 *~;
#X msg 736 430 0 \, 48000 \$1;
#X obj 412 792 curve~;
#X msg 412 768 1 \$1 -0.5 0 \$2 -0.5;
#X floatatom 412 719 5 0 0 0 - - - 0;
#X obj 412 743 pack f f;
#X floatatom 464 717 5 0 0 0 - - - 0;
#X floatatom 294 662 5 0 0 0 - - - 0;
#X obj 294 713 line~;
#X obj 294 620 bng 15 250 50 0 empty empty empty 17 7 0 10 #fcfcfc
#000000 #000000;
#X obj 325 812 *~;
#X msg 294 687 0 \, 48000 \$1;
#X obj 172 68 notein;
#N canvas 0 22 450 300 (subpatch) 0;
#X array array3 44100 float 2;
#X coords 0 1 44100 -1 300 100 1 0 0;
#X restore 1558 189 graph;
#N canvas 0 22 450 300 (subpatch) 0;
#X array array4 44100 float 0;
#X coords 0 1 44099 -1 300 100 1 0 0;
#X restore 1559 331 graph;
#X obj 172 180 route 36 38 40 42;
#X floatatom 154 116 5 0 0 0 - - - 0;
#X floatatom 212 105 5 0 0 0 - - - 0;
#X obj 914 808 soundfiler;
#X obj 914 730 text get samples;
#X floatatom 914 707 5 0 127 0 - - - 0;
#X listbox 914 755 29 0 0 0 - - - 0;
#X obj 1179 665 soundfiler;
#X obj 1179 587 text get samples;
#X floatatom 1179 564 5 0 127 0 - - - 0;
#X listbox 1179 612 20 0 0 0 - - - 0;
#X msg 1179 635 read /home/sss/808/\$1 array2;
#X msg 914 778 read /home/sss/808/\$1 array3;
#X msg 1140 784 read /home/sss/808/\$1 array4;
#X obj 294 740 tabread4~ array4;
#X obj 152 147 stripnote;
#X obj 438 493 tabread4~ array2;
#X obj 150 486 tabread4~ array1;
#X obj 736 483 tabread4~ array3;
#X connect 2 0 4 0;
#X connect 3 0 2 0;
#X connect 4 0 33 0;
#X connect 6 0 16 0;
#X connect 9 0 11 0;
#X connect 10 0 9 0;
#X connect 11 0 102 0;
#X connect 13 0 17 0;
#X connect 15 0 32 0;
#X connect 16 0 7 0;
#X connect 16 0 7 1;
#X connect 17 0 14 0;
#X connect 17 0 14 1;
#X connect 21 0 29 1;
#X connect 22 0 21 0;
#X connect 23 0 24 0;
#X connect 24 0 22 0;
#X connect 25 0 24 1;
#X connect 26 0 30 0;
#X connect 27 0 106 0;
#X connect 28 0 23 0;
#X connect 28 0 26 0;
#X connect 30 0 27 0;
#X connect 32 0 5 0;
#X connect 33 0 0 0;
#X connect 34 0 43 1;
#X connect 35 0 34 0;
#X connect 36 0 37 0;
#X connect 37 0 35 0;
#X connect 38 0 47 0;
#X connect 39 0 44 0;
#X connect 40 0 53 0;
#X connect 41 0 36 0;
#X connect 41 0 38 0;
#X connect 41 0 39 0;
#X connect 41 0 48 1;
#X connect 43 0 42 0;
#X connect 43 0 42 1;
#X connect 44 0 40 0;
#X connect 46 0 49 0;
#X connect 47 0 37 1;
#X connect 47 0 45 0;
#X connect 48 0 46 0;
#X connect 48 1 55 0;
#X connect 49 0 47 1;
#X connect 50 0 48 0;
#X connect 50 0 51 0;
#X connect 51 0 52 0;
#X connect 52 0 46 0;
#X connect 53 0 54 0;
#X connect 54 1 43 0;
#X connect 55 0 49 0;
#X connect 56 0 64 1;
#X connect 57 0 56 0;
#X connect 58 0 59 0;
#X connect 59 0 57 0;
#X connect 60 0 59 1;
#X connect 61 0 65 0;
#X connect 62 0 105 0;
#X connect 63 0 58 0;
#X connect 63 0 61 0;
#X connect 65 0 62 0;
#X connect 66 0 74 1;
#X connect 67 0 66 0;
#X connect 68 0 69 0;
#X connect 69 0 67 0;
#X connect 70 0 69 1;
#X connect 71 0 75 0;
#X connect 72 0 107 0;
#X connect 73 0 68 0;
#X connect 73 0 71 0;
#X connect 75 0 72 0;
#X connect 76 0 84 1;
#X connect 77 0 76 0;
#X connect 78 0 79 0;
#X connect 79 0 77 0;
#X connect 80 0 79 1;
#X connect 81 0 85 0;
#X connect 82 0 103 0;
#X connect 83 0 78 0;
#X connect 83 0 81 0;
#X connect 85 0 82 0;
#X connect 86 0 90 0;
#X connect 86 1 91 0;
#X connect 90 0 104 0;
#X connect 91 0 104 1;
#X connect 93 0 95 0;
#X connect 94 0 93 0;
#X connect 95 0 101 0;
#X connect 97 0 99 0;
#X connect 98 0 97 0;
#X connect 99 0 100 0;
#X connect 100 0 96 0;
#X connect 101 0 92 0;
#X connect 102 0 8 0;
#X connect 103 0 84 0;
#X connect 104 0 89 0;
#X connect 105 0 64 0;
#X connect 106 0 29 0;
#X connect 107 0 74 0;
