#N canvas 0 0 1920 1052 12;
#N canvas 0 22 450 300 (subpatch) 0;
#X array array0 48000 float 2;
#X coords 0 1 48000 -1 150 100 1 0 0;
#X restore 167 244 graph;
#X text 6 996 linux remove spaces:;
#X text 7 975 vim command:;
#X text 165 996 for file in *.wav do mv -- "$file" "$file// /_" done
\;;
#X text 101 975 %s/$/ \;, f 7;
#X obj 7 926 text define samples;
#X obj 7 876 loadbang;
#X obj 37 228 soundfiler;
#X obj 37 100 text get samples;
#X floatatom 37 77 5 0 200 0 - - - 0;
#X msg 7 898 read /home/sss/downloads/samples-from/Soviet_Synths_From_Mars/WAV/07_Drums/samples.txt
, f 87;
#X listbox 37 126 20 0 0 0 - - - 0;
#X obj 183 679 curve~;
#X msg 183 655 1 \$1 -0.5 0 \$2 -0.5;
#X floatatom 183 606 5 0 0 0 - - - 0;
#X obj 183 630 pack f f, f 12;
#X floatatom 37 309 5 0 0 0 - - - 0;
#X obj 37 432 line~;
#X obj 99 309 bng 15 250 50 0 empty empty empty 17 7 0 10 #fcfcfc #000000
#000000;
#X obj 37 698 *~;
#X msg 37 406 \$2 \, 48000 \$1;
#X obj 170 350 hsl 150 15 0 48000 0 0 empty empty empty -2 -8 0 10
#fcfcfc #000000 #000000 0 1;
#X obj 99 954 r lfo-speed;
#X obj 185 954 r lfo-shape;
#X obj 270 954 r lfo-depth;
#X obj 7 954 r filter-env;
#X obj 36 749 *~;
#X obj 37 511 overdrive~ 1;
#X obj 37 659 downsamp~;
#X obj 36 774 dac~;
#X obj 37 375 pak f f, f 19;
#X obj 634 872 metro 500;
#X obj 264 448 osc~ 1;
#X floatatom 314 461 5 0 0 0 - - - 0;
#X obj 264 505 cyclone/snapshot~ 4;
#X obj 264 480 *~;
#X floatatom 264 424 5 0 0 0 - - - 0;
#X obj 634 854 tgl 15 0 empty empty empty 17 7 0 10 #fcfcfc #000000
#000000 0 1;
#X msg 37 152 read /home/sss/downloads/samples-from/Soviet_Synths_From_Mars/WAV/07_Drums/\$1
array0, f 35;
#X obj 37 456 tabread4~ array0;
#X obj 99 284 r trig0;
#X obj 37 612 svf~ 22000 0;
#X text 1060 278 CONTROL, f 1;
#X obj 37 284 r pitch0;
#X obj 327 282 r position0;
#X obj 37 52 r sample0;
#X obj 118 486 r overdrive0;
#X obj 77 539 r cutoff0;
#X obj 118 564 r q0;
#X obj 183 578 r attack0;
#X obj 317 529 r decay0;
#X obj 97 635 r bitrate0;
#X obj 183 704 r volume0;
#X obj 1083 461 send, f 36;
#X msg 1332 410 symbol \$1\$2;
#X listbox 1332 435 20 0 0 0 - - - 0;
#X msg 1385 348 0;
#X obj 1332 384 pack s f;
#X msg 1420 348 1;
#X obj 1083 486 text define -k parameters;
#A set sample 392 \; position 392 \; pitch 233 \; overdrive 1 \; cutoff
2000 \; q 0 \; attack 0 \; decay 500 \; bitrate 0 \; volume 100 \;
;
#X f 45;
#X obj 1332 295 text get parameters;
#X listbox 1332 320 20 0 0 0 - - - 0;
#X msg 1454 348 2;
#X msg 1489 348 3;
#X obj 634 898 s trig0;
#X obj 264 553 +, f 8;
#X obj 264 578 max 0;
#X floatatom 264 603 5 0 0 0 - - - 0;
#X obj 1335 235 hsl 128 15 0 9 0 0 empty empty empty -2 -8 0 10 #fcfcfc
#000000 #000000 0 1;
#X obj 1375 270 loadmess 0;
#X obj 1083 139 ctlin, f 49;
#X msg 1332 193 0;
#X msg 1364 193 1;
#X msg 1397 193 2;
#X msg 1429 193 3;
#X msg 1462 193 4;
#X msg 1495 193 5;
#X msg 1527 193 6;
#X msg 1560 193 7;
#X msg 1625 193 9;
#N canvas 0 0 1572 1050 knob 0;
#X obj 351 284 inlet;
#X floatatom 351 308 5 0 0 0 - - - 0;
#X obj 305 419 i, f 8;
#X obj 351 360 - 1;
#X obj 388 360 + 1;
#X obj 305 357 bng 15 250 50 0 empty empty empty 17 7 0 10 #fcfcfc
#000000 #000000;
#X floatatom 305 483 5 0 0 0 - - - 0;
#X obj 305 506 outlet;
#X obj 655 337 inlet;
#X obj 655 362 change;
#X obj 351 334 sel 63 65 62 66, f 22;
#X obj 431 360 - 5;
#X obj 468 360 + 5;
#X connect 0 0 1 0;
#X connect 1 0 5 0;
#X connect 1 0 10 0;
#X connect 2 0 3 0;
#X connect 2 0 4 0;
#X connect 2 0 6 0;
#X connect 2 0 11 0;
#X connect 2 0 12 0;
#X connect 3 0 2 1;
#X connect 4 0 2 1;
#X connect 5 0 2 0;
#X connect 6 0 7 0;
#X connect 8 0 9 0;
#X connect 9 0 2 0;
#X connect 10 0 3 0;
#X connect 10 1 4 0;
#X connect 10 2 11 0;
#X connect 10 3 12 0;
#X connect 11 0 2 1;
#X connect 12 0 2 1;
#X restore 1083 358 pd knob;
#X f 13;
#X obj 1332 168 sel 64 65 66 67 68 69 70 71 72 73, f 47;
#X obj 1157 250 text get parameters;
#X msg 1592 193 8;
#X obj 1200 226 loadmess 1;
#X obj 1133 388 text set parameters;
#X obj 1104 250 change;
#X obj 1104 332 unpack s f;
#X obj 1104 305 pack s f;
#X obj 1219 364 loadmess 1;
#X obj 1104 278 del 1;
#X obj 327 330 pow 2;
#X obj 77 564 * 10;
#N canvas 0 0 1572 1050 q 0;
#X obj 37 37 inlet;
#X obj 37 62 / 100;
#X obj 37 87 max 0;
#X obj 37 112 min 1;
#X obj 37 137 outlet;
#X connect 0 0 1 0;
#X connect 1 0 2 0;
#X connect 2 0 3 0;
#X connect 3 0 4 0;
#X restore 118 589 pd q;
#X obj 327 307 max 0;
#N canvas 0 0 914 1050 vol-scale 0;
#X obj 70 78 * 0.01;
#X obj 70 103 min 1;
#X obj 70 128 max 0;
#X floatatom 70 153 5 0 0 0 - - - 0;
#X obj 70 177 outlet;
#X obj 70 53 inlet;
#X connect 0 0 1 0;
#X connect 1 0 2 0;
#X connect 2 0 3 0;
#X connect 3 0 4 0;
#X connect 5 0 0 0;
#X restore 183 729 pd vol-scale;
#X floatatom 1098 429 5 0 0 0 - - - 0;
#N canvas 0 0 958 1050 init 0;
#X obj 132 400 hsl 128 15 0 9 0 0 empty empty empty -2 -8 0 10 #fcfcfc
#000000 #000000 0 1;
#X msg 129 358 0;
#X msg 161 358 1;
#X msg 194 358 2;
#X msg 226 358 3;
#X msg 259 358 4;
#X msg 292 358 5;
#X msg 324 358 6;
#X msg 357 358 7;
#X msg 422 358 9;
#X obj 129 333 sel 64 65 66 67 68 69 70 71 72 73, f 47;
#X msg 389 358 8;
#X floatatom 129 310 5 0 0 0 - - - 0;
#X obj 69 218 bng 15 250 50 0 empty empty empty 17 7 0 10 #fcfcfc #000000
#000000;
#X obj 129 617 send, f 36;
#X msg 378 566 symbol \$1\$2;
#X listbox 378 592 20 0 0 0 - - - 0;
#X msg 431 504 0;
#X obj 378 540 pack s f;
#X msg 466 504 1;
#X obj 129 422 text get parameters;
#X msg 500 504 2;
#X msg 535 504 3;
#X obj 69 287 uzi 10 64;
#X listbox 129 447 20 0 0 0 - - - 0;
#X msg 129 569 \$2;
#X floatatom 129 594 5 0 0 0 - - - 0;
#X obj 129 471 pack s f;
#X msg 378 513 \$1;
#X obj 90 218 bng 15 250 50 0 empty empty empty 17 7 0 10 #fcfcfc #000000
#000000;
#X obj 109 218 bng 15 250 50 0 empty empty empty 17 7 0 10 #fcfcfc
#000000 #000000;
#X obj 130 218 bng 15 250 50 0 empty empty empty 17 7 0 10 #fcfcfc
#000000 #000000;
#X obj 388 617 print;
#X obj 69 91 bng 15 250 50 0 empty empty empty 17 7 0 10 #fcfcfc #000000
#000000;
#X obj 90 121 del 1;
#X obj 109 151 del 1;
#X obj 130 181 del 1;
#X obj 69 66 inlet;
#X connect 0 0 20 0;
#X connect 1 0 0 0;
#X connect 2 0 0 0;
#X connect 3 0 0 0;
#X connect 4 0 0 0;
#X connect 5 0 0 0;
#X connect 6 0 0 0;
#X connect 7 0 0 0;
#X connect 8 0 0 0;
#X connect 9 0 0 0;
#X connect 10 0 1 0;
#X connect 10 1 2 0;
#X connect 10 2 3 0;
#X connect 10 3 4 0;
#X connect 10 4 5 0;
#X connect 10 5 6 0;
#X connect 10 6 7 0;
#X connect 10 7 8 0;
#X connect 10 8 11 0;
#X connect 10 9 9 0;
#X connect 11 0 0 0;
#X connect 12 0 10 0;
#X connect 13 0 17 0;
#X connect 13 0 23 0;
#X connect 15 0 16 0;
#X connect 16 0 14 1;
#X connect 16 0 32 0;
#X connect 17 0 18 1;
#X connect 18 0 15 0;
#X connect 19 0 18 1;
#X connect 20 0 24 0;
#X connect 21 0 18 1;
#X connect 22 0 18 1;
#X connect 23 2 12 0;
#X connect 24 0 27 0;
#X connect 25 0 26 0;
#X connect 26 0 14 0;
#X connect 27 0 28 0;
#X connect 27 0 25 0;
#X connect 28 0 18 0;
#X connect 29 0 19 0;
#X connect 29 0 23 0;
#X connect 30 0 21 0;
#X connect 30 0 23 0;
#X connect 31 0 22 0;
#X connect 31 0 23 0;
#X connect 33 0 34 0;
#X connect 33 0 13 0;
#X connect 34 0 29 0;
#X connect 34 0 35 0;
#X connect 35 0 30 0;
#X connect 35 0 36 0;
#X connect 36 0 31 0;
#X connect 37 0 33 0;
#X restore 567 866 pd init;
#X obj 567 845 bng 15 250 50 0 empty empty empty 17 7 0 10 #fcfcfc
#000000 #000000;
#X obj 520 842 r pos;
#X floatatom 520 867 5 0 0 0 - - - 0;
#X floatatom 749 478 5 0 0 0 - - - 0;
#X obj 749 502 +, f 10;
#X floatatom 749 527 5 0 0 0 - - - 0;
#X obj 784 348 tgl 15 0 empty empty empty 17 7 0 10 #fcfcfc #000000
#000000 0 1;
#X obj 862 378 sel 0;
#X msg 862 403 0;
#X obj 862 428 t b f;
#X obj 784 428 t b f;
#X obj 784 403 random 500;
#X obj 784 378 metro 100;
#X text 1081 515 dynamische anwahl der parameter nicht machbar bei
modulationsmatrix.. \; feste sends u. parameter \;;
#X connect 6 0 10 0;
#X connect 8 0 11 0;
#X connect 9 0 8 0;
#X connect 10 0 5 0;
#X connect 11 0 38 0;
#X connect 12 0 19 1;
#X connect 13 0 12 0;
#X connect 14 0 15 0;
#X connect 15 0 13 0;
#X connect 16 0 30 0;
#X connect 17 0 39 0;
#X connect 18 0 14 0;
#X connect 18 0 30 0;
#X connect 19 0 26 0;
#X connect 20 0 17 0;
#X connect 21 0 30 1;
#X connect 26 0 29 0;
#X connect 26 0 29 1;
#X connect 27 0 41 0;
#X connect 28 0 19 0;
#X connect 30 0 20 0;
#X connect 31 0 64 0;
#X connect 32 0 35 0;
#X connect 33 0 35 1;
#X connect 34 0 65 0;
#X connect 35 0 34 0;
#X connect 36 0 32 0;
#X connect 37 0 31 0;
#X connect 38 0 7 0;
#X connect 39 0 27 0;
#X connect 40 0 18 0;
#X connect 41 0 28 0;
#X connect 43 0 16 0;
#X connect 44 0 94 0;
#X connect 45 0 9 0;
#X connect 46 0 27 1;
#X connect 47 0 92 0;
#X connect 48 0 93 0;
#X connect 49 0 14 0;
#X connect 50 0 65 1;
#X connect 51 0 28 1;
#X connect 52 0 95 0;
#X connect 54 0 55 0;
#X connect 55 0 53 1;
#X connect 56 0 57 1;
#X connect 57 0 54 0;
#X connect 58 0 57 1;
#X connect 60 0 61 0;
#X connect 61 0 57 0;
#X connect 62 0 57 1;
#X connect 63 0 57 1;
#X connect 65 0 66 0;
#X connect 66 0 67 0;
#X connect 67 0 15 1;
#X connect 68 0 60 0;
#X connect 68 0 82 0;
#X connect 68 0 85 1;
#X connect 68 0 86 0;
#X connect 69 0 60 1;
#X connect 70 1 81 0;
#X connect 71 0 68 0;
#X connect 72 0 68 0;
#X connect 73 0 68 0;
#X connect 74 0 68 0;
#X connect 75 0 68 0;
#X connect 76 0 68 0;
#X connect 77 0 68 0;
#X connect 78 0 68 0;
#X connect 79 0 68 0;
#X connect 80 0 85 0;
#X connect 80 0 53 0;
#X connect 81 0 71 0;
#X connect 81 1 72 0;
#X connect 81 2 73 0;
#X connect 81 3 74 0;
#X connect 81 4 75 0;
#X connect 81 5 76 0;
#X connect 81 6 77 0;
#X connect 81 7 78 0;
#X connect 81 8 83 0;
#X connect 81 9 79 0;
#X connect 82 0 88 1;
#X connect 82 0 101 0;
#X connect 83 0 68 0;
#X connect 84 0 82 1;
#X connect 86 0 90 0;
#X connect 87 1 80 1;
#X connect 88 0 87 0;
#X connect 89 0 85 2;
#X connect 90 0 88 0;
#X connect 91 0 21 0;
#X connect 92 0 41 1;
#X connect 93 0 41 2;
#X connect 94 0 91 0;
#X connect 95 0 26 1;
#X connect 96 0 85 0;
#X connect 96 0 53 0;
#X connect 98 0 97 0;
#X connect 99 0 100 0;
#X connect 101 0 102 0;
#X connect 102 0 103 0;
#X connect 103 0 16 0;
#X connect 104 0 105 0;
#X connect 104 0 110 0;
#X connect 105 0 106 0;
#X connect 106 0 107 0;
#X connect 107 0 101 0;
#X connect 107 1 102 1;
#X connect 108 0 101 0;
#X connect 108 1 102 1;
#X connect 109 0 108 0;
#X connect 110 0 109 0;
