#N canvas 0 0 1101 1050 12;
#N canvas 0 22 450 300 (subpatch) 0;
#X array array0 48000 float 2;
#X coords 0 1 48000 -1 300 100 1 0 0;
#X restore 158 158 graph;
#X text 33 839 linux remove spaces:;
#X text 34 818 vim command:;
#X text 192 839 for file in *.wav do mv -- "$file" "$file// /_" done
\;;
#X text 128 818 %s/$/ \;, f 7;
#X obj 37 927 text define samples;
#X obj 37 877 loadbang;
#X obj 471 214 soundfiler;
#X obj 471 136 text get samples;
#X floatatom 471 113 5 0 200 0 - - - 0;
#X msg 37 899 read /home/sss/downloads/samples-from/Soviet_Synths_From_Mars/WAV/07_Drums/samples.txt
, f 87;
#X listbox 471 162 20 0 0 0 - - - 0;
#X obj 471 81 r sample;
#X obj 238 593 curve~;
#X msg 238 569 1 \$1 -0.5 0 \$2 -0.5;
#X floatatom 238 520 5 0 0 0 - - - 0;
#X obj 238 544 pack f f, f 12;
#X floatatom 319 520 5 0 0 0 - - - 0;
#X floatatom 42 223 5 0 0 0 - - - 0;
#X obj 42 346 line~;
#X obj 100 223 bng 15 250 50 0 empty empty empty 17 7 0 10 #fcfcfc
#000000 #000000;
#X obj 42 612 *~;
#X msg 42 320 \$2 \, 48000 \$1;
#X obj 161 264 hsl 300 15 0 48000 0 0 empty empty empty -2 -8 0 10
#fcfcfc #000000 #000000 0 1;
#X obj 471 244 r position;
#X obj 238 492 r attack;
#X obj 319 492 r decay;
#X obj 42 198 r pitch;
#X obj 82 458 r cutoff;
#X obj 123 483 r q;
#X obj 129 955 r lfo-speed;
#X obj 215 955 r lfo-shape;
#X obj 300 955 r lfo-depth;
#X obj 238 617 r volume;
#X obj 123 400 r overdrive;
#X obj 102 549 r bitrate;
#X obj 37 955 r filter-env;
#X obj 41 637 *~;
#X obj 42 425 overdrive~ 1;
#X obj 42 573 downsamp~;
#X obj 41 662 dac~;
#X obj 886 964 s pitch;
#X obj 949 964 s trig;
#X obj 1005 964 s attack;
#X obj 1075 964 s decay;
#X obj 1138 964 s cutoff;
#X obj 1273 964 s overdrive;
#X obj 1364 964 s bitrate;
#X obj 1441 964 s volume;
#X obj 816 964 s sample;
#X obj 42 289 pak f f, f 17;
#X floatatom 1138 862 5 0 0 0 - - - 0;
#X obj 1138 936 +, f 8;
#X floatatom 1291 912 5 0 0 0 - - - 0;
#X obj 1273 936 +;
#X obj 949 940 metro 500;
#X floatatom 1138 912 5 0 0 0 - - - 0;
#X obj 1138 886 t b f, f 8;
#X floatatom 1364 936 5 0 0 0 - - - 0;
#X floatatom 1208 815 5 0 0 0 - - - 0;
#X obj 1208 889 +, f 8;
#X floatatom 1208 865 5 0 0 0 - - - 0;
#X obj 1208 839 t b f, f 8;
#X obj 1208 914 min 1, f 8;
#X obj 1208 939 max 0, f 8;
#X obj 1208 964 s q, f 8;
#X obj 673 907 osc~ 1;
#X floatatom 723 920 5 0 0 0 - - - 0;
#X obj 673 964 cyclone/snapshot~ 4;
#X obj 673 939 *~;
#X floatatom 673 883 5 0 0 0 - - - 0;
#X text 713 883 lfo, f 6;
#X obj 949 922 tgl 15 0 empty empty empty 17 7 0 10 #fcfcfc #000000
#000000 0 1;
#X obj 1507 944 loadmess 1;
#X obj 1589 944 loadmess 1000;
#N canvas 0 0 914 1050 other 0;
#N canvas 0 22 450 300 (subpatch) 0;
#X array array2 48000 float 2;
#X coords 0 1 48000 -1 300 100 1 0 0;
#X restore 359 107 graph;
#X obj 672 163 soundfiler;
#X obj 672 85 text get samples;
#X floatatom 672 62 5 0 200 0 - - - 0;
#X listbox 672 111 20 0 0 0 - - - 0;
#X obj 672 30 r sample;
#X obj 439 542 curve~;
#X msg 439 518 1 \$1 -0.5 0 \$2 -0.5;
#X floatatom 439 469 5 0 0 0 - - - 0;
#X obj 439 493 pack f f, f 12;
#X floatatom 520 469 5 0 0 0 - - - 0;
#X floatatom 243 172 5 0 0 0 - - - 0;
#X obj 243 295 line~;
#X obj 301 172 bng 15 250 50 0 empty empty empty 17 7 0 10 #fcfcfc
#000000 #000000;
#X obj 243 561 *~;
#X msg 243 269 \$2 \, 48000 \$1;
#X obj 362 213 hsl 300 15 0 48000 0 0 empty empty empty -2 -8 0 10
#fcfcfc #000000 #000000 0 1;
#X obj 672 193 r position;
#X obj 439 441 r attack;
#X obj 520 441 r decay;
#X obj 243 147 r pitch;
#X obj 283 407 r cutoff;
#X obj 324 432 r q;
#X obj 439 566 r volume;
#X obj 324 349 r overdrive;
#X obj 303 498 r bitrate;
#X obj 242 586 *~;
#X obj 243 374 overdrive~ 1;
#X obj 243 522 downsamp~;
#X obj 243 238 pak f f, f 17;
#X msg 672 137 read /home/sss/downloads/samples-from/Soviet_Synths_From_Mars/WAV/07_Drums/\$1
array2, f 86;
#X obj 243 319 tabread4~ array2;
#X obj 301 147 r trig2;
#X obj 242 611 dac~;
#N canvas 0 22 450 300 (subpatch) 0;
#X array array3 48000 float 2;
#X coords 0 1 48000 -1 300 100 1 0 0;
#X restore 870 268 graph;
#X obj 1183 324 soundfiler;
#X obj 1183 246 text get samples;
#X floatatom 1183 223 5 0 200 0 - - - 0;
#X listbox 1183 272 20 0 0 0 - - - 0;
#X obj 1183 191 r sample;
#X obj 950 703 curve~;
#X msg 950 679 1 \$1 -0.5 0 \$2 -0.5;
#X floatatom 950 630 5 0 0 0 - - - 0;
#X obj 950 654 pack f f, f 12;
#X floatatom 1031 630 5 0 0 0 - - - 0;
#X floatatom 754 333 5 0 0 0 - - - 0;
#X obj 754 456 line~;
#X obj 812 333 bng 15 250 50 0 empty empty empty 17 7 0 10 #fcfcfc
#000000 #000000;
#X obj 754 722 *~;
#X msg 754 430 \$2 \, 48000 \$1;
#X obj 873 374 hsl 300 15 0 48000 0 0 empty empty empty -2 -8 0 10
#fcfcfc #000000 #000000 0 1;
#X obj 1183 354 r position;
#X obj 950 602 r attack;
#X obj 1031 602 r decay;
#X obj 754 308 r pitch;
#X obj 794 568 r cutoff;
#X obj 835 593 r q;
#X obj 950 727 r volume;
#X obj 835 510 r overdrive;
#X obj 814 659 r bitrate;
#X obj 754 535 overdrive~ 1;
#X obj 754 683 downsamp~;
#X obj 754 399 pak f f, f 17;
#X msg 1183 298 read /home/sss/downloads/samples-from/Soviet_Synths_From_Mars/WAV/07_Drums/\$1
array3, f 86;
#X obj 754 480 tabread4~ array3;
#N canvas 0 22 450 300 (subpatch) 0;
#X array array1 48000 float 2;
#X coords 0 1 48000 -1 300 100 1 0 0;
#X restore 1350 484 graph;
#X obj 1663 540 soundfiler;
#X obj 1663 462 text get samples;
#X floatatom 1663 439 5 0 200 0 - - - 0;
#X listbox 1663 488 20 0 0 0 - - - 0;
#X obj 1663 407 r sample;
#X obj 1430 919 curve~;
#X msg 1430 895 1 \$1 -0.5 0 \$2 -0.5;
#X floatatom 1430 846 5 0 0 0 - - - 0;
#X obj 1430 870 pack f f, f 12;
#X floatatom 1511 846 5 0 0 0 - - - 0;
#X floatatom 1234 549 5 0 0 0 - - - 0;
#X obj 1234 672 line~;
#X obj 1292 549 bng 15 250 50 0 empty empty empty 17 7 0 10 #fcfcfc
#000000 #000000;
#X obj 1234 938 *~;
#X msg 1234 646 \$2 \, 48000 \$1;
#X obj 1353 590 hsl 300 15 0 48000 0 0 empty empty empty -2 -8 0 10
#fcfcfc #000000 #000000 0 1;
#X obj 1663 570 r position;
#X obj 1430 818 r attack;
#X obj 1511 818 r decay;
#X obj 1234 524 r pitch;
#X obj 1274 784 r cutoff;
#X obj 1315 809 r q;
#X obj 1430 943 r volume;
#X obj 1315 726 r overdrive;
#X obj 1294 875 r bitrate;
#X obj 1234 751 overdrive~ 1;
#X obj 1234 899 downsamp~;
#X obj 1234 615 pak f f, f 17;
#X obj 812 308 r trig3;
#X msg 1663 514 read /home/sss/downloads/samples-from/Soviet_Synths_From_Mars/WAV/07_Drums/\$1
array1, f 86;
#X obj 1292 524 r trig1;
#X obj 1047 978 dac~;
#X obj 1234 696 tabread~ array1;
#X obj 243 457 svf~ 22000 0;
#X obj 754 618 svf~ 22000 0;
#X obj 1234 834 svf~ 22000 0;
#X connect 2 0 4 0;
#X connect 3 0 2 0;
#X connect 4 0 30 0;
#X connect 5 0 3 0;
#X connect 6 0 14 1;
#X connect 7 0 6 0;
#X connect 8 0 9 0;
#X connect 9 0 7 0;
#X connect 10 0 9 1;
#X connect 11 0 29 0;
#X connect 12 0 31 0;
#X connect 13 0 8 0;
#X connect 13 0 29 0;
#X connect 14 0 26 0;
#X connect 15 0 12 0;
#X connect 16 0 29 1;
#X connect 17 0 16 0;
#X connect 18 0 8 0;
#X connect 19 0 10 0;
#X connect 20 0 11 0;
#X connect 21 0 99 1;
#X connect 22 0 99 2;
#X connect 23 0 26 1;
#X connect 24 0 27 1;
#X connect 25 0 28 1;
#X connect 26 0 33 0;
#X connect 26 0 33 1;
#X connect 27 0 99 0;
#X connect 28 0 14 0;
#X connect 29 0 15 0;
#X connect 30 0 1 0;
#X connect 31 0 27 0;
#X connect 32 0 13 0;
#X connect 36 0 38 0;
#X connect 37 0 36 0;
#X connect 38 0 63 0;
#X connect 39 0 37 0;
#X connect 40 0 48 1;
#X connect 41 0 40 0;
#X connect 42 0 43 0;
#X connect 43 0 41 0;
#X connect 44 0 43 1;
#X connect 45 0 62 0;
#X connect 46 0 64 0;
#X connect 47 0 42 0;
#X connect 47 0 62 0;
#X connect 48 0 97 0;
#X connect 48 0 97 1;
#X connect 49 0 46 0;
#X connect 50 0 62 1;
#X connect 51 0 50 0;
#X connect 52 0 42 0;
#X connect 53 0 44 0;
#X connect 54 0 45 0;
#X connect 55 0 100 1;
#X connect 56 0 100 2;
#X connect 58 0 60 1;
#X connect 59 0 61 1;
#X connect 60 0 100 0;
#X connect 61 0 48 0;
#X connect 62 0 49 0;
#X connect 63 0 35 0;
#X connect 64 0 60 0;
#X connect 67 0 69 0;
#X connect 68 0 67 0;
#X connect 69 0 95 0;
#X connect 70 0 68 0;
#X connect 71 0 79 1;
#X connect 72 0 71 0;
#X connect 73 0 74 0;
#X connect 74 0 72 0;
#X connect 75 0 74 1;
#X connect 76 0 93 0;
#X connect 77 0 98 0;
#X connect 78 0 73 0;
#X connect 78 0 93 0;
#X connect 79 0 97 1;
#X connect 79 0 97 0;
#X connect 80 0 77 0;
#X connect 81 0 93 1;
#X connect 82 0 81 0;
#X connect 83 0 73 0;
#X connect 84 0 75 0;
#X connect 85 0 76 0;
#X connect 86 0 101 1;
#X connect 87 0 101 2;
#X connect 89 0 91 1;
#X connect 90 0 92 1;
#X connect 91 0 101 0;
#X connect 92 0 79 0;
#X connect 93 0 80 0;
#X connect 94 0 47 0;
#X connect 95 0 66 0;
#X connect 96 0 78 0;
#X connect 98 0 91 0;
#X connect 99 0 28 0;
#X connect 100 0 61 0;
#X connect 101 0 92 0;
#X restore 597 734 pd other;
#X msg 471 188 read /home/sss/downloads/samples-from/Soviet_Synths_From_Mars/WAV/07_Drums/\$1
array0, f 86;
#X obj 42 370 tabread4~ array0;
#X obj 100 198 r trig0;
#X floatatom 614 244 5 0 0 0 - - - 0;
#X floatatom 681 269 5 0 0 0 - - - 0;
#X obj 614 219 ctlin 114;
#X obj 42 508 svf~ 22000 0;
#X connect 6 0 10 0;
#X connect 8 0 11 0;
#X connect 9 0 8 0;
#X connect 10 0 5 0;
#X connect 11 0 76 0;
#X connect 12 0 9 0;
#X connect 13 0 21 1;
#X connect 14 0 13 0;
#X connect 15 0 16 0;
#X connect 16 0 14 0;
#X connect 17 0 16 1;
#X connect 18 0 50 0;
#X connect 19 0 77 0;
#X connect 20 0 15 0;
#X connect 20 0 50 0;
#X connect 21 0 37 0;
#X connect 22 0 19 0;
#X connect 23 0 50 1;
#X connect 24 0 23 0;
#X connect 25 0 15 0;
#X connect 26 0 17 0;
#X connect 27 0 18 0;
#X connect 28 0 82 1;
#X connect 29 0 82 2;
#X connect 33 0 37 1;
#X connect 34 0 38 1;
#X connect 35 0 39 1;
#X connect 37 0 40 0;
#X connect 37 0 40 1;
#X connect 38 0 82 0;
#X connect 39 0 21 0;
#X connect 50 0 22 0;
#X connect 51 0 57 0;
#X connect 52 0 45 0;
#X connect 53 0 54 1;
#X connect 54 0 46 0;
#X connect 55 0 42 0;
#X connect 56 0 52 0;
#X connect 57 0 56 0;
#X connect 57 1 52 1;
#X connect 58 0 47 0;
#X connect 59 0 62 0;
#X connect 60 0 63 0;
#X connect 61 0 60 0;
#X connect 62 0 61 0;
#X connect 62 1 60 1;
#X connect 63 0 64 0;
#X connect 64 0 65 0;
#X connect 66 0 69 0;
#X connect 67 0 69 1;
#X connect 69 0 68 0;
#X connect 70 0 66 0;
#X connect 72 0 55 0;
#X connect 73 0 48 0;
#X connect 73 0 46 0;
#X connect 73 0 49 0;
#X connect 74 0 41 0;
#X connect 74 0 44 0;
#X connect 76 0 7 0;
#X connect 77 0 38 0;
#X connect 78 0 20 0;
#X connect 79 0 9 0;
#X connect 81 0 79 0;
#X connect 81 1 80 0;
#X connect 82 0 39 0;
