#N canvas -297 103 1920 1007 12;
#X msg 59 160 connect localhost 7374;
#X obj 227 103 list prepend send;
#X obj 227 130 list trim;
#X obj 227 159 netsend -u -b;
#X floatatom 227 46 5 0 0 0 - - -;
#X obj 227 74 oscformat /A;
#X text 138 49 OSC Send;
#X text 118 279 OSC Receive;
#X obj 223 322 oscparse;
#X obj 223 348 list trim;
#X obj 223 376 route A;
#X floatatom 223 405 5 0 0 0 - - -;
#X obj 223 290 netreceive -u -b 7374;
#X connect 0 0 3 0;
#X connect 1 0 2 0;
#X connect 2 0 3 0;
#X connect 4 0 5 0;
#X connect 5 0 1 0;
#X connect 8 0 9 0;
#X connect 9 0 10 0;
#X connect 10 0 11 0;
#X connect 12 0 8 0;
