#N canvas 0 0 967 1050 12;
#X obj 227 103 list prepend send;
#X obj 227 130 list trim;
#X obj 227 159 netsend -u -b;
#X text 138 49 OSC Send;
#X text 118 279 OSC Receive;
#X obj 223 322 oscparse;
#X obj 223 348 list trim;
#X obj 223 376 route A;
#X floatatom 223 405 5 0 0 0 - - - 0;
#X obj 223 290 netreceive -u -b 7374;
#X obj 348 393 print;
#X obj 227 74 oscformat /tuio/3dcur;
#X msg 227 54 set \$1 1 1 1 1 1 1;
#X obj 230 14 hsl 128 15 0 127 0 0 empty empty empty -2 -8 0 12 #fcfcfc #000000 #000000 0 1;
#X obj 227 34 / 127;
#X msg 59 160 connect localhost 7374;
#X connect 0 0 1 0;
#X connect 1 0 2 0;
#X connect 5 0 6 0;
#X connect 5 0 10 0;
#X connect 6 0 7 0;
#X connect 7 0 8 0;
#X connect 9 0 5 0;
#X connect 11 0 0 0;
#X connect 12 0 11 0;
#X connect 13 0 14 0;
#X connect 14 0 12 0;
#X connect 15 0 2 0;
