#N canvas -7 0 958 980 12;
#X obj 93 158 *~;
#X obj 181 221 line~;
#X obj 339 391 dac~;
#X obj 214 -31 tgl 19 0 empty empty empty 0 -10 0 12 #fcfcfc #000000 #000000 0 1;
#X obj 436 424 env~;
#X floatatom 436 448 5 0 0 0 - - - 0;
#X obj 497 178 reverbCH/reverbCH~;
#X obj -133 101 osc~ 33;
#X obj -40 -31 osc~ 33;
#X obj -108 58 +~;
#X floatatom -127 6 5 0 0 0 - - - 12;
#X obj -64 26 *~ 2000;
#X floatatom -29 -79 5 0 0 0 - - - 12;
#X obj 220 17 metro 10000;
#X msg 144 130 1 \, 0 100;
#X connect 1 0 0 1;
#X connect 3 0 13 0;
#X connect 4 0 5 0;
#X connect 7 0 0 0;
#X connect 8 0 11 0;
#X connect 9 0 7 0;
#X connect 10 0 9 0;
#X connect 11 0 9 1;
#X connect 12 0 8 0;
#X connect 13 0 14 0;
#X connect 14 0 1 0;
