#N canvas 120 139 683 437 12;
#X obj 45 38 bng 15 250 50 0 empty empty empty 17 7 0 10 -262144 -1
-1;
#X obj 45 81 random 100;
#X obj 45 129 unpack f f f f, f 18;
#X floatatom 45 152 5 0 0 0 - - -;
#X floatatom 86 152 5 0 0 0 - - -;
#X floatatom 127 152 5 0 0 0 - - -;
#X floatatom 168 152 5 0 0 0 - - -;
#X obj 45 105 cyclone/zl group 4;
#X text 68 31 random list;
#N canvas 481 336 450 300 steps 0;
#X obj 37 37 inlet;
#X obj 37 61 expr 60000/$f1;
#X obj 37 175 / 4;
#X obj 37 199 outlet;
#X obj 87 199 outlet;
#X obj 87 175 / 2;
#X obj 137 199 outlet;
#X obj 187 199 outlet;
#X obj 237 199 outlet;
#X obj 187 175 * 2;
#X obj 237 175 * 4;
#X connect 0 0 1 0;
#X connect 1 0 2 0;
#X connect 1 0 5 0;
#X connect 1 0 6 0;
#X connect 1 0 9 0;
#X connect 1 0 10 0;
#X connect 2 0 3 0;
#X connect 5 0 4 0;
#X connect 9 0 7 0;
#X connect 10 0 8 0;
#X restore 344 101 pd steps;
#X f 24;
#X floatatom 344 126 5 0 0 0 - - -;
#X floatatom 385 126 5 0 0 0 - - -;
#X floatatom 426 126 5 0 0 0 - - -;
#X floatatom 467 126 5 0 0 0 - - -;
#X floatatom 508 126 5 0 0 0 - - -;
#X obj 344 148 cyclone/pak f f f f f, f 24;
#X obj 344 172 s steps;
#X text 389 77 bpm calc;
#X obj 301 125 metro;
#X obj 108 238 sel -1;
#X floatatom 158 239 5 0 0 0 - - -;
#X obj 44 213 bng 15 250 50 0 empty empty empty 17 7 0 10 -262144 -1
-1;
#X obj 44 238 random 4;
#X text 62 212 no repeat random;
#X obj 347 35 hsl 128 15 60 200 0 0 empty empty empty -2 -8 0 10 -262144
-1 -1 0 1;
#X obj 344 55 int;
#X floatatom 344 79 5 0 0 0 - - -;
#X obj 301 152 bng 15 250 50 0 empty empty empty 17 7 0 10 -262144
-1 -1;
#X obj 301 88 tgl 30 0 empty empty empty 17 7 0 10 -262144 -1 -1 0
1;
#X obj 45 57 cyclone/uzi 6;
#X connect 0 0 29 0;
#X connect 1 0 7 0;
#X connect 2 0 3 0;
#X connect 2 1 4 0;
#X connect 2 2 5 0;
#X connect 2 3 6 0;
#X connect 7 0 2 0;
#X connect 9 0 10 0;
#X connect 9 0 18 1;
#X connect 9 1 11 0;
#X connect 9 2 12 0;
#X connect 9 3 13 0;
#X connect 9 4 14 0;
#X connect 10 0 15 0;
#X connect 11 0 15 1;
#X connect 12 0 15 2;
#X connect 13 0 15 3;
#X connect 14 0 15 4;
#X connect 15 0 16 0;
#X connect 18 0 27 0;
#X connect 19 0 22 0;
#X connect 19 1 20 0;
#X connect 20 0 19 1;
#X connect 21 0 22 0;
#X connect 22 0 19 0;
#X connect 24 0 25 0;
#X connect 25 0 26 0;
#X connect 26 0 9 0;
#X connect 28 0 18 0;
#X connect 29 0 1 0;
