#N canvas 0 0 1920 1052 12;
#X obj 603 275 mtof;
#X obj 472 95 mtof;
#X floatatom 472 114 10 0 0 1 incoming\ pitch - - 0;
#N canvas 0 50 450 250 (subpatch) 0;
#X array \$0-calibration 127 float 3;
#A 0 0.1534 0.172 0.1801 0.1888 0.1969 0.205 0.2131 0.2215 0.2299 0.238 0.2464 0.2545 0.2626 0.271 0.2794 0.2878 0.2959 0.3043 0.3124 0.3208 0.3289 0.337 0.3454 0.3535 0.3619 0.3703 0.3784 0.3868 0.3952 0.4033 0.4114 0.4198 0.4279 0.4363 0.4444 0.4528 0.4609 0.4693 0.4774 0.4855 0.4939 0.5023 0.5104 0.5188 0.5269 0.5353 0.5434 0.5515 0.5599 0.5683 0.5764 0.5848 0.5929 0.601 0.6094 0.6175 0.6259 0.6343 0.6427 0.6508 0.6592 0.6673 0.6757 0.6838 0.6922 0.7006 0.7087 0.7171 0.7255 0.7339 0.742 0.7504 0.7588 0.7672 0.7756 0.784 0.7924 0.8008 0.8092 0.8176 0.826 0.8344 0.8428 0.8515 0.8599 0.8686 0.877 0.8854 0.8941 0.9028 0.9112 0.9199 0.9286 0.9373 0.946 0.955 0.9637 0.9724 0.9814 0.9901 1 0.9658 0.9973 1 0 0 0 0 0 0 0 0 0 0 0 0 0 0 0 0 0 0 0 0 0 0 0;
#X coords 0 1 127 -1 200 140 1 0 0;
#X restore 730 287 graph;
#X obj 177 186 line~;
#X obj 472 300 sel 1;
#X obj 268 367 line;
#X floatatom 33 116 5 0 0 0 note - - 0;
#X floatatom 237 221 5 0 0 0 - - - 0;
#X obj 237 239 sig~;
#X text 544 22 monitor osc;
#X text 69 322 0 off \; 1 cal \; 2 play \;;
#X obj 472 170 /;
#X obj 472 190 log 2;
#X obj 472 209 * 1200;
#X floatatom 472 228 14 0 0 0 - - - 0;
#X obj 472 74 sigmund~ -npts 4096 -hop 512 pitch;
#X obj 472 264 change;
#X text 755 36 audio interface latency \; l = (blocksize/samplerate) * 1000;
#X text 755 57 sigmund latency \; nptsL = (npts/samplerate) * 1000 \;;
#X obj 761 85 loadbang;
#X obj 761 158 / 48000;
#X obj 761 177 * 1000;
#X msg 830 139 4096;
#X obj 830 158 / 48000;
#X obj 830 177 * 1000;
#X obj 761 198 +;
#X floatatom 761 217 5 0 0 0 - - - 0;
#X msg 538 304 bang;
#X text 510 168 calculate cents;
#X obj 177 42 bng 30 250 50 0 empty empty start\ cal 0 -8 0 12 #7c7c7c #00ff04 #00ff04;
#X obj 761 235 s latency;
#X text 391 323 midi count;
#X obj 472 56 hip~ 5;
#X obj 293 389 r latency;
#X obj 268 411 pipe;
#X obj 761 101 bng 15 250 50 0 empty empty empty 0 -8 0 12 #fcfcfc #000000 #000000;
#X obj 761 121 t b b;
#X obj 472 324 counter 0 127;
#X text 4 32 A'n =21 \; 33 \; 45 \; 57 \; 69 \; 81 \;;
#X text 684 142 interface:;
#X obj 33 50 inlet;
#X obj 173 242 sig~;
#X obj 149 302 outlet~;
#X obj 472 245 > 0;
#X text 263 458 https://inspiredacoustics.com/en/MIDI_note_numbers_and_center_frequencies;
#X text 512 135 a0 = 27.5;
#X obj 892 201 uzi 100;
#X msg 892 225 0;
#X obj 892 177 bng 20 250 50 0 empty empty empty 0 -10 0 12 #fcfcfc #000000 #000000;
#X text 890 156 reset:;
#X obj 422 289 bng 20 250 50 0 empty empty empty 0 -10 0 12 #fcfcfc #000000 #000000;
#X obj 603 251 + 21;
#X text 268 14 weird tidal \, sc \; pd midi conversions \;;
#X obj 149 279 selector~ 3 0, f 17;
#X obj 892 249 tabwrite \$0-calibration;
#X obj 268 433 tabwrite \$0-calibration;
#X obj 237 203 tabread \$0-calibration;
#X text 265 139 c5 = 0 in tidal;
#X obj 128 328 hradio 30 1 0 4 empty empty empty 0 -12 0 24 #fcfcfc #000000 #000000 0;
#X obj 472 39 inlet~;
#X obj 180 443 \$0;
#X obj 180 425 loadbang;
#X floatatom 180 463 5 0 0 0 - - - 0;
#X msg 177 158 0.1 \, 1 60000;
#X msg 173 226 0.1;
#X obj 128 50 inlet;
#X obj 177 17 inlet;
#X msg 761 138 256;
#X floatatom 398 99 5 0 0 0 - - - 0;
#X connect 0 0 12 1;
#X connect 1 0 2 0;
#X connect 2 0 12 0;
#X connect 4 0 54 2;
#X connect 5 0 38 0;
#X connect 6 0 35 0;
#X connect 7 0 57 0;
#X connect 8 0 9 0;
#X connect 9 0 54 3;
#X connect 12 0 13 0;
#X connect 13 0 14 0;
#X connect 14 0 15 0;
#X connect 15 0 44 0;
#X connect 16 0 1 0;
#X connect 16 0 69 0;
#X connect 17 0 5 0;
#X connect 17 0 51 0;
#X connect 20 0 36 0;
#X connect 21 0 22 0;
#X connect 22 0 26 0;
#X connect 23 0 24 0;
#X connect 24 0 25 0;
#X connect 25 0 26 1;
#X connect 26 0 27 0;
#X connect 27 0 31 0;
#X connect 28 0 38 3;
#X connect 30 0 64 0;
#X connect 33 0 16 0;
#X connect 34 0 35 1;
#X connect 35 0 56 0;
#X connect 36 0 37 0;
#X connect 37 0 68 0;
#X connect 37 1 23 0;
#X connect 38 0 52 0;
#X connect 38 0 56 1;
#X connect 41 0 7 0;
#X connect 42 0 54 1;
#X connect 44 0 17 0;
#X connect 47 0 48 0;
#X connect 47 2 55 1;
#X connect 48 0 55 0;
#X connect 49 0 47 0;
#X connect 52 0 0 0;
#X connect 54 0 43 0;
#X connect 57 0 8 0;
#X connect 59 0 54 0;
#X connect 60 0 33 0;
#X connect 61 0 63 0;
#X connect 62 0 61 0;
#X connect 64 0 4 0;
#X connect 64 0 6 0;
#X connect 64 0 28 0;
#X connect 65 0 42 0;
#X connect 66 0 59 0;
#X connect 67 0 30 0;
#X connect 68 0 21 0;
