#N canvas 0 0 1920 1050 12;
#X obj 501 259 mtof;
#X obj 370 79 mtof;
#X floatatom 370 98 10 0 0 1 incoming\ pitch - - 0;
#N canvas 0 50 450 250 (subpatch) 0;
#X array \$0-furthrrrr 127 float 3;
#A 0 0.1672 0.1756 0.184 0.1921 0.2005 0.2089 0.217 0.2254 0.2335 0.2419 0.2503 0.2584 0.2668 0.2749 0.2833 0.2917 0.3001 0.3082 0.3166 0.3247 0.3331 0.3415 0.3496 0.358 0.3661 0.3745 0.3829 0.3913 0.3994 0.4075 0.4159 0.4243 0.4327 0.4408 0.4492 0.4573 0.4657 0.4741 0.4825 0.4906 0.4987 0.5071 0.5155 0.5236 0.532 0.5404 0.5485 0.5569 0.565 0.5734 0.5818 0.5899 0.5983 0.6067 0.6148 0.6232 0.6316 0.6397 0.6481 0.6565 0.6649 0.673 0.6814 0.6898 0.6979 0.7063 0.7147 0.7231 0.7315 0.7399 0.748 0.7567 0.7648 0.7735 0.7816 0.7903 0.7987 0.8071 0.8155 0.8239 0.8323 0.841 0.8494 0.8581 0.8665 0.8749 0.8836 0.8923 0.901 0.9097 0.9181 0.9268 0.9355 0.9442 0.9532 0.9619 0.9673 0.9781 0.9871 0.9973 1 0 0 0 0 0 0 0 0 0 0 0 0 0 0 0 0 0 0 0 0 0 0 0 0 0 0;
#X coords 0 1 127 -1 200 140 1 0 0;
#X restore 628 271 graph;
#X obj 75 188 line~;
#X obj 370 284 sel 1;
#X obj 166 351 line;
#X floatatom 135 85 5 0 0 0 note - - 0;
#X floatatom 135 205 5 0 0 0 - - - 0;
#X obj 47 167 vradio 15 1 0 4 empty empty empty 0 -8 0 12 #fcfcfc #000000 #000000 0;
#X obj 135 223 sig~;
#X text 442 6 monitor osc;
#X text -10 59 0 off \; 1 cal \; 2 play \;;
#X obj 370 154 /;
#X obj 370 174 log 2;
#X obj 370 193 * 1200;
#X floatatom 370 212 14 0 0 0 - - - 0;
#X obj 370 58 sigmund~ -npts 4096 -hop 512 pitch;
#X obj 370 248 change;
#X text 653 20 audio interface latency \; l = (blocksize/samplerate) * 1000;
#X text 653 41 sigmund latency \; nptsL = (npts/samplerate) * 1000 \;;
#X obj 659 69 loadbang;
#X obj 659 142 / 48000;
#X obj 659 161 * 1000;
#X msg 728 123 4096;
#X obj 728 142 / 48000;
#X obj 728 161 * 1000;
#X obj 659 182 +;
#X floatatom 659 201 5 0 0 0 - - - 0;
#X msg 436 288 bang;
#X text 408 152 calculate cents;
#X obj 75 26 bng 30 250 50 0 empty empty start\ cal 0 -8 0 12 #7c7c7c #00ff04 #00ff04;
#X obj 659 219 s latency;
#X text 289 307 midi count;
#X obj 370 40 hip~ 5;
#X obj 191 373 r latency;
#X obj 166 395 pipe;
#X obj 659 85 bng 15 250 50 0 empty empty empty 0 -8 0 12 #fcfcfc #000000 #000000;
#X obj 659 105 t b b;
#X msg 75 142 0.1 \, 1 60000;
#X obj 370 308 counter 0 127;
#X text 178 37 A'n =21 \; 33 \; 45 \; 57 \; 69 \; 81 \;;
#X text 582 126 interface:;
#X obj 135 34 inlet;
#X msg 659 123 256;
#X obj 438 32 dac~ 8;
#X obj 370 23 adc~ 1;
#X obj 182 237 sig~;
#X msg 182 214 0.1;
#X obj 47 286 outlet~;
#X obj 370 229 > 0;
#X text 161 442 https://inspiredacoustics.com/en/MIDI_note_numbers_and_center_frequencies;
#X text 410 119 a0 = 27.5;
#X obj 790 185 uzi 100;
#X msg 790 209 0;
#X obj 790 161 bng 20 250 50 0 empty empty empty 0 -10 0 12 #fcfcfc #000000 #000000;
#X text 788 140 reset:;
#X obj 320 273 bng 20 250 50 0 empty empty empty 0 -10 0 12 #fcfcfc #000000 #000000;
#X obj 501 235 + 21;
#X obj 135 62 + 3;
#X obj 166 417 tabwrite \$0-furthrrrr;
#X obj 790 233 tabwrite \$0-furthrrrr, f 15;
#X obj 135 187 tabread \$0-furthrrrr;
#X msg 47 84 2;
#X obj 47 61 loadbang;
#X text 166 -2 weird tidal \, sc \; pd midi conversions \;;
#X obj 47 263 selector~ 3 0, f 17;
#X connect 0 0 13 1;
#X connect 1 0 2 0;
#X connect 2 0 13 0;
#X connect 4 0 66 1;
#X connect 5 0 40 0;
#X connect 6 0 36 0;
#X connect 7 0 62 0;
#X connect 8 0 10 0;
#X connect 9 0 66 0;
#X connect 10 0 66 2;
#X connect 13 0 14 0;
#X connect 14 0 15 0;
#X connect 15 0 16 0;
#X connect 16 0 50 0;
#X connect 17 0 1 0;
#X connect 18 0 5 0;
#X connect 18 0 57 0;
#X connect 21 0 37 0;
#X connect 22 0 23 0;
#X connect 23 0 27 0;
#X connect 24 0 25 0;
#X connect 25 0 26 0;
#X connect 26 0 27 1;
#X connect 27 0 28 0;
#X connect 28 0 32 0;
#X connect 29 0 40 3;
#X connect 31 0 39 0;
#X connect 34 0 17 0;
#X connect 35 0 36 1;
#X connect 36 0 60 0;
#X connect 37 0 38 0;
#X connect 38 0 44 0;
#X connect 38 1 24 0;
#X connect 39 0 4 0;
#X connect 39 0 6 0;
#X connect 39 0 29 0;
#X connect 40 0 58 0;
#X connect 40 0 60 1;
#X connect 43 0 59 0;
#X connect 44 0 22 0;
#X connect 46 0 34 0;
#X connect 46 0 45 0;
#X connect 47 0 66 3;
#X connect 48 0 47 0;
#X connect 50 0 18 0;
#X connect 53 0 54 0;
#X connect 53 2 61 1;
#X connect 54 0 61 0;
#X connect 55 0 53 0;
#X connect 58 0 0 0;
#X connect 59 0 7 0;
#X connect 62 0 8 0;
#X connect 63 0 9 0;
#X connect 64 0 63 0;
#X connect 64 0 48 0;
#X connect 66 0 49 0;
