#N canvas -7 0 958 980 12;
#X obj -209 93 vstplugin~;
#X msg -74 24 open -p -e C:/Program\ Files/Common\ Files/VST3/The\ Drop.vst3;
#X obj -209 180 dac~;
#X obj -208 -27 phasor~ 55;
#X text -18 -42 show/hide editor;
#X obj 87 -109 / 127;
#X obj -142 129 print;
#X msg -74 -10 param_list;
#X msg 87 -84 param_set 0 \$1;
#X obj 200 -109 / 127;
#X msg 200 -84 param_set 1 \$1;
#X obj 87 -164 knob 50 0 127 0 0 empty empty #E4E4E4 #B7B7B7 #4D4D4D 1 0 0 0 1 270 0 0 0;
#X obj 200 -164 knob 50 0 127 0 0 empty empty #E4E4E4 #B7B7B7 #4D4D4D 1 0 0 0 1 270 0 0 0;
#X floatatom -206 -57 5 0 0 0 - - - 12;
#X obj 311 -143 hradio 21 1 0 5 empty empty empty 0 -11 0 12 #fcfcfc #000000 #000000 0;
#X obj 311 -116 scale 0 4 0 1;
#X obj 332 24 loadbang;
#X msg -74 -41 vis 1;
#X obj -135 236 vu 32 240 empty empty -1 -8 0 10 #e4e4e4 #373737 1 0;
#N canvas 329 161 625 417 vu 0;
#X obj 59 129 env~ 1024;
#X obj 161 111 abs~;
#X obj 161 213 snapshot~;
#X obj 161 256 rmstodb;
#X obj 161 21 inlet~;
#X obj 161 288 - 100;
#X obj 59 287 - 100;
#X obj 59 361 outlet;
#X obj 161 361 outlet;
#X text 344 307 Check the help file of env~ and slop~ for more details., f 31;
#X floatatom 239 117 5 0 0 0 - - - 0;
#X obj 161 146 slop~ 0 0 0 0 1e+09;
#X text 359 89 convert to hz;
#X text 282 118 hz;
#X obj 59 171 t f b;
#X text 345 132 The env~ object is dedicated to RMS analysis. Its output is in dB (0-100 range \, pd style) but needs to be converted to dBFS (and we do that by simply subtracting 100)., f 31;
#X text 345 225 The slop~ object is used here for peak detection. We need to convert the output to dB with rmstodb and also subtract by 100 to convert it to dBFS., f 31;
#X obj 239 89 expr 1000 / 500;
#X connect 0 0 14 0;
#X connect 1 0 11 0;
#X connect 2 0 3 0;
#X connect 3 0 5 0;
#X connect 4 0 0 0;
#X connect 4 0 1 0;
#X connect 5 0 8 0;
#X connect 6 0 7 0;
#X connect 10 0 11 3;
#X connect 11 0 2 0;
#X connect 14 0 6 0;
#X connect 14 1 2 0;
#X connect 17 0 10 0;
#X restore -141 193 pd vu;
#X f 6;
#X msg 311 -84 param_set 19 \$1;
#X text 311 -165 12;
#X text 396 -165 -12;
#X connect 0 0 2 0;
#X connect 0 0 2 1;
#X connect 0 0 19 0;
#X connect 0 2 6 0;
#X connect 1 0 0 0;
#X connect 3 0 0 0;
#X connect 5 0 8 0;
#X connect 7 0 0 0;
#X connect 8 0 0 0;
#X connect 9 0 10 0;
#X connect 10 0 0 0;
#X connect 11 0 5 0;
#X connect 12 0 9 0;
#X connect 13 0 3 0;
#X connect 14 0 15 0;
#X connect 15 0 20 0;
#X connect 16 0 1 0;
#X connect 17 0 0 0;
#X connect 19 0 18 0;
#X connect 19 1 18 1;
#X connect 20 0 0 0;
