#N canvas 0 0 1140 1048 12;
#X obj 83 153 vstplugin~;
#X msg 83 122 open -e TDR_Molot_GE.vst3 1;
#X obj 312 176 vstplugin~;
#X msg 312 151 open -e The_Drop.vst3 1;
#X msg 487 151 print;
#X connect 1 0 0 0;
#X connect 3 0 2 0;
#X connect 4 0 2 0;
