#N canvas 1114 287 893 723 10;
#X obj 110 279 *~;
#X obj 78 279 *~;
#X obj 202 228 rfft~;
#X obj 83 55 inlet~;
#X obj 81 229 rfft~;
#X obj 106 361 rifft~;
#X obj 304 464 outlet~;
#X obj 185 280 *~;
#X obj 214 280 *~;
#X obj 89 329 -~;
#X obj 184 328 +~;
#X obj 79 201 *~;
#X obj 204 201 *~;
#X msg 294 99 set \$1;
#X obj 220 173 tabreceive~;
#X obj 93 172 tabreceive~;
#X obj 297 49 loadbang;
#X obj 204 133 tabreceive~;
#X obj 206 39 loadbang;
#X obj 295 75 symbol square\$2;
#X obj 105 396 /~ \$2;
#X text 412 546 convoluion of a signal and fixed table with boxcar
windowing and an overlap of 2;
#X obj 418 75 block~ \$2 2;
#X obj 105 439 delwrite~ dla-\$0 2000;
#X obj 390 331 / 44.1;
#X obj 388 222 f \$1;
#X obj 387 244 * \$2;
#X obj 387 266 * 0.5;
#X floatatom 390 351 5 0 0 0 - - -, f 5;
#X obj 383 190 loadbang;
#X obj 32 55 inlet;
#X floatatom 501 215 5 0 0 0 - - -, f 5;
#X obj 391 405 delread~ dla-\$0 0;
#X msg 205 108 set imp\$1;
#X obj 205 61 f \$1;
#X obj 205 85 + \$3;
#X obj 307 334 == \$1;
#X msg 307 305 0;
#X floatatom 306 357 5 0 0 0 - - -, f 5;
#X obj 309 403 *~;
#X obj 302 269 loadbang;
#X floatatom 347 363 5 0 0 0 - - -, f 5;
#X obj 348 340 != \$1;
#X obj 349 407 *~;
#X connect 0 0 9 1;
#X connect 1 0 9 0;
#X connect 2 0 1 1;
#X connect 2 0 8 1;
#X connect 2 1 0 1;
#X connect 2 1 7 1;
#X connect 3 0 11 0;
#X connect 4 0 1 0;
#X connect 4 0 7 0;
#X connect 4 1 0 0;
#X connect 4 1 8 0;
#X connect 5 0 20 0;
#X connect 7 0 10 0;
#X connect 8 0 10 1;
#X connect 9 0 5 0;
#X connect 10 0 5 1;
#X connect 11 0 4 0;
#X connect 12 0 2 0;
#X connect 13 0 14 0;
#X connect 13 0 15 0;
#X connect 14 0 12 1;
#X connect 15 0 11 1;
#X connect 16 0 19 0;
#X connect 17 0 12 0;
#X connect 18 0 34 0;
#X connect 19 0 13 0;
#X connect 20 0 23 0;
#X connect 20 0 39 0;
#X connect 24 0 28 0;
#X connect 25 0 26 0;
#X connect 26 0 27 0;
#X connect 27 0 31 0;
#X connect 27 0 24 0;
#X connect 28 0 32 0;
#X connect 29 0 25 0;
#X connect 32 0 43 0;
#X connect 33 0 17 0;
#X connect 34 0 35 0;
#X connect 35 0 33 0;
#X connect 36 0 38 0;
#X connect 37 0 36 0;
#X connect 37 0 42 0;
#X connect 38 0 39 1;
#X connect 39 0 6 0;
#X connect 40 0 37 0;
#X connect 41 0 43 1;
#X connect 42 0 41 0;
#X connect 43 0 6 0;
