#N canvas 0 46 956 850 12;
#X obj 48 258 vbap, f 19;
#X msg 30 44 define_loudspeakers 3 0 0 90 0 180 0 -90 0 0 90;
#X obj 84 145 hsl 128 15 0 360 0 0 empty empty azimut -2 -8 0 10 -262144
-1 -1 0 1;
#X text 14 12 https://link.springer.com/chapter/10.1007/978-3-030-17207-7_3
, f 63;
#X floatatom 81 165 5 0 0 0 - - -;
#X obj 81 189 t b f;
#X obj 225 145 hsl 128 15 0 360 0 0 empty empty elevation -2 -8 0 10
-262144 -1 -1 0 1;
#X floatatom 222 165 5 0 0 0 - - -;
#X obj 222 189 t b f;
#X obj 365 145 hsl 128 15 0 360 0 0 empty empty spread -2 -8 0 10 -262144
-1 -1 0 1;
#X floatatom 362 165 5 0 0 0 - - -;
#X obj 362 189 t b f;
#X obj 48 283 route 0 1 2 3 4;
#X floatatom 173 341 5 0 0 0 - - -;
#X floatatom 250 406 5 0 0 0 - - -;
#X floatatom 183 481 5 0 0 0 - - -;
#X floatatom 104 414 5 0 0 0 - - -;
#X floatatom 173 407 5 0 0 0 - - -;
#X msg 216 81 45;
#X msg 266 83 90;
#X connect 0 0 12 0;
#X connect 1 0 0 0;
#X connect 2 0 4 0;
#X connect 4 0 5 0;
#X connect 5 0 0 0;
#X connect 5 1 0 1;
#X connect 6 0 7 0;
#X connect 7 0 8 0;
#X connect 8 0 0 0;
#X connect 8 1 0 2;
#X connect 9 0 10 0;
#X connect 10 0 11 0;
#X connect 11 0 0 0;
#X connect 11 1 0 3;
#X connect 12 0 13 0;
#X connect 12 1 14 0;
#X connect 12 2 15 0;
#X connect 12 3 16 0;
#X connect 12 4 17 0;
#X connect 18 0 6 0;
#X connect 19 0 6 0;
