#N canvas 0 45 1920 1035 12;
#X obj 99 119 noise~;
#X obj 337 196 hradio 15 1 0 6 empty empty empty 0 -8 0 10 -262144
-1 -1 0;
#X obj 228 428 dac~;
#X obj 59 119 hradio 15 1 0 2 empty empty empty 0 -8 0 10 -262144 -1
-1 1;
#X obj 256 73 hsl 128 15 0 10000 0 0 empty empty empty -2 -8 0 10 -262144
-1 -1 216 1;
#X obj 124 144 pink~;
#X text 304 51 cutoff freq;
#X msg 253 36 85;
#X obj 99 170 mux~;
#X obj 228 400 *~;
#X msg 246 370 0;
#X text 57 95 sound source;
#N canvas 0 45 1920 1035 crossover_lp~ 1;
#X obj 194 69 inlet~;
#X obj 249 70 inlet;
#X obj 295 70 inlet;
#X obj 295 437 outlet~;
#X obj 295 405 mux~ 1 2 3 4 5 6;
#X obj 85 281 iemlib/lp4_bess~;
#X obj 225 281 iemlib/lp8_bess~;
#X obj 360 281 iemlib/lp4_butt~;
#X obj 492 281 iemlib/lp8_butt~;
#X obj 649 281 iemlib/lp2_butt~;
#X obj 649 314 iemlib/lp2_butt~;
#X obj 794 281 iemlib/lp4_butt~;
#X obj 794 315 iemlib/lp4_butt~;
#X connect 0 0 5 0;
#X connect 0 0 6 0;
#X connect 0 0 8 0;
#X connect 0 0 9 0;
#X connect 0 0 11 0;
#X connect 0 0 7 0;
#X connect 1 0 5 1;
#X connect 1 0 6 1;
#X connect 1 0 7 1;
#X connect 1 0 8 1;
#X connect 1 0 9 1;
#X connect 1 0 10 1;
#X connect 1 0 11 1;
#X connect 1 0 12 1;
#X connect 2 0 4 0;
#X connect 4 0 3 0;
#X connect 5 0 4 0;
#X connect 6 0 4 1;
#X connect 7 0 4 2;
#X connect 8 0 4 3;
#X connect 9 0 10 0;
#X connect 10 0 4 4;
#X connect 11 0 12 0;
#X connect 12 0 4 5;
#X restore 228 290 pd crossover_lp~;
#N canvas 0 45 1920 1035 crossover_hp~ 0;
#X obj 196 69 inlet~;
#X obj 251 70 inlet;
#X obj 297 70 inlet;
#X obj 297 437 outlet~;
#X obj 297 405 mux~ 1 2 3 4 5 6;
#X obj 227 281 iemlib/hp8_bess~;
#X obj 87 281 iemlib/hp4_bess~;
#X obj 362 281 iemlib/hp4_butt~;
#X obj 494 281 iemlib/hp8_butt~;
#X obj 651 281 iemlib/hp2_butt~;
#X obj 651 314 iemlib/hp2_butt~;
#X obj 796 281 iemlib/hp4_butt~;
#X obj 796 314 iemlib/hp4_butt~;
#X connect 0 0 5 0;
#X connect 0 0 6 0;
#X connect 0 0 9 0;
#X connect 0 0 11 0;
#X connect 0 0 8 0;
#X connect 0 0 7 0;
#X connect 1 0 5 1;
#X connect 1 0 6 1;
#X connect 1 0 9 1;
#X connect 1 0 10 1;
#X connect 1 0 11 1;
#X connect 1 0 12 1;
#X connect 1 0 7 1;
#X connect 1 0 8 1;
#X connect 2 0 4 0;
#X connect 4 0 3 0;
#X connect 5 0 4 1;
#X connect 6 0 4 0;
#X connect 7 0 4 2;
#X connect 8 0 4 3;
#X connect 9 0 10 0;
#X connect 10 0 4 4;
#X connect 11 0 12 0;
#X connect 12 0 4 5;
#X restore 99 291 pd crossover_hp~;
#X obj 253 93 - 5;
#X obj 282 93 + 5;
#X msg 453 291 bang;
#X msg 533 331 start;
#X msg 540 359 stop;
#X text 577 333 start streaming audio;
#X text 579 359 stop streaming audio;
#X obj 525 449 writesf~;
#X obj 664 415 print done;
#X obj 664 388 print start;
#X obj 253 8 loadbang;
#X msg 278 370 0.4;
#X obj 453 331 del 30000;
#X msg 525 304 open /tmp/bess_4-pole.wav;
#X text 512 165 1 Bessel 4-Pole 2 Bessel 8-Pole 3 Butt 4-Pole 4 Butt
8-Pole 5 LinkRi 4-Pole 6 LinkRi 8-Pole;
#X connect 0 0 8 0;
#X connect 1 0 12 2;
#X connect 1 0 13 2;
#X connect 3 0 8 0;
#X connect 4 0 14 0;
#X connect 4 0 15 0;
#X connect 5 0 8 1;
#X connect 7 0 4 0;
#X connect 8 0 13 0;
#X connect 8 0 12 0;
#X connect 9 0 2 0;
#X connect 9 0 2 1;
#X connect 9 0 21 0;
#X connect 10 0 9 1;
#X connect 12 0 9 0;
#X connect 13 0 9 0;
#X connect 14 0 13 1;
#X connect 15 0 12 1;
#X connect 16 0 17 0;
#X connect 16 0 26 0;
#X connect 17 0 21 0;
#X connect 17 0 23 0;
#X connect 18 0 21 0;
#X connect 18 0 22 0;
#X connect 24 0 7 0;
#X connect 25 0 9 1;
#X connect 26 0 18 0;
#X connect 27 0 21 0;
