#N canvas 0 28 1418 1050 12;
#X obj 152 140 vcf~;
#X obj 177 172 vcf~;
#X obj 201 198 vcf~;
#X obj 226 227 vcf~;
#X obj 152 44 inlet~;
#X obj 339 44 inlet;
#X obj 471 44 inlet;
#X obj 401 407 outlet~;
#X floatatom 339 66 5 0 0 0 - - -;
#X floatatom 471 66 5 0 0 0 - - -;
#X obj 251 254 vcf~;
#X obj 276 279 vcf~;
#X obj 301 306 vcf~;
#X obj 326 332 vcf~;
#X obj 351 355 vcf~;
#X obj 376 380 vcf~;
#X connect 0 1 1 0;
#X connect 1 1 2 0;
#X connect 2 1 3 0;
#X connect 3 1 10 0;
#X connect 4 0 0 0;
#X connect 5 0 8 0;
#X connect 6 0 9 0;
#X connect 8 0 0 1;
#X connect 8 0 1 1;
#X connect 8 0 2 1;
#X connect 8 0 3 1;
#X connect 8 0 10 1;
#X connect 8 0 11 1;
#X connect 8 0 12 1;
#X connect 8 0 13 1;
#X connect 8 0 14 1;
#X connect 8 0 15 1;
#X connect 9 0 0 2;
#X connect 9 0 1 2;
#X connect 9 0 2 2;
#X connect 9 0 3 2;
#X connect 9 0 10 2;
#X connect 9 0 11 2;
#X connect 9 0 12 2;
#X connect 9 0 13 2;
#X connect 9 0 15 2;
#X connect 9 0 14 2;
#X connect 10 1 11 0;
#X connect 11 1 12 0;
#X connect 12 1 13 0;
#X connect 13 1 14 0;
#X connect 14 1 15 0;
#X connect 15 1 7 0;
