#N canvas -8 -8 1920 1007 10;
#X obj 167 112 line;
#X msg 167 89 1 \, 0 300;
#X obj 152 138 *~;
#X obj 252 149 *~ 0.5;
#X floatatom 308 94 5 0 0 0 - - -;
#X obj 167 46 tgl 15 0 empty empty empty 17 7 0 10 -262144 -1 -1 0
1;
#X obj 167 66 metro 800;
#X obj 91 66 phasor~ 400;
#X text 253 47 SIMPLE DELAY;
#X text 171 332 CHORUS/FLANGER;
#X obj 172 489 phasor~ 440;
#X obj 172 510 expr~ $v1 *2 -1;
#X obj 172 531 delwrite~ \$0-buffer 100;
#X obj 509 394 delread4~ \$0-buffer;
#X text 65 497 schreibt buffer;
#X text 422 392 liest buffer;
#X obj 509 441 *~;
#X obj 541 441 hsl 128 15 0 1 0 0 empty empty empty -2 -8 0 10 -262144
-1 -1 0 1;
#X obj 509 467 dac~;
#X text 470 288 lfo;
#X obj 509 307 expr~ ($v1 + 1) / 2;
#X text 421 310 make unipolar;
#X floatatom 556 334 5 0 0 0 - - -;
#X text 315 373 offset um in phase zu vermeiden;
#X obj 509 372 +~ 5;
#X obj 659 394 delread4~ \$0-buffer 0;
#X text 658 375 dry signal;
#X obj 339 468 *~;
#X text 278 467 feedback;
#X obj 370 468 hsl 128 15 0 1 0 0 empty empty empty -2 -8 0 10 -262144
-1 -1 0 1;
#X text 464 334 depth;
#X obj 509 286 osc~ 1;
#X obj 509 334 *~ 0.5;
#X obj 666 317 *~ 0.5;
#X obj 666 295 +~ 1;
#X text 636 305 =, f 2;
#X obj 666 273 osc~ 1;
#X obj 308 114 delread4~ one 600;
#X obj 152 184 delwrite~ one 600;
#X obj 308 160 dac~;
#X obj 308 136 *~ 0.5;
#X obj 831 672 delread4~ chor 40;
#X obj 831 570 cos~;
#X obj 831 544 phasor~ 5;
#X floatatom 831 522 5 0 0 0 - - -;
#X floatatom 892 584 5 0 0 0 - - -;
#X obj 831 618 *~ 5;
#X obj 831 644 +~ 5;
#X text 827 497 Chorus LFO;
#X text 825 479 other chorus?;
#X connect 0 0 2 1;
#X connect 1 0 0 0;
#X connect 2 0 38 0;
#X connect 3 0 38 0;
#X connect 4 0 37 0;
#X connect 5 0 6 0;
#X connect 6 0 1 0;
#X connect 7 0 2 0;
#X connect 10 0 11 0;
#X connect 11 0 12 0;
#X connect 13 0 16 0;
#X connect 13 0 27 0;
#X connect 16 0 18 0;
#X connect 16 0 18 1;
#X connect 17 0 16 1;
#X connect 20 0 32 0;
#X connect 22 0 32 1;
#X connect 24 0 13 0;
#X connect 25 0 16 0;
#X connect 27 0 12 0;
#X connect 29 0 27 1;
#X connect 31 0 20 0;
#X connect 32 0 24 0;
#X connect 34 0 33 0;
#X connect 36 0 34 0;
#X connect 37 0 3 0;
#X connect 37 0 40 0;
#X connect 40 0 39 0;
#X connect 40 0 39 1;
#X connect 42 0 46 0;
#X connect 43 0 42 0;
#X connect 44 0 43 0;
#X connect 45 0 46 1;
#X connect 45 0 47 1;
#X connect 46 0 47 0;
#X connect 47 0 41 0;
