#N canvas 960 28 958 330 12;
#X floatatom 268 154 0 0 0 0 - - -;
#X obj 268 229 complex-mod~;
#X obj 268 176 phasor~ 440;
#X floatatom 362 228 0 0 0 0 - - -;
#X floatatom 199 75 5 0 0 0 - - -;
#X obj 199 121 *~;
#X obj 242 127 hsl 128 15 0 1 0 0 empty empty empty -2 -8 0 10 -262144
-1 -1 0 1;
#X obj 199 97 delread4~ fb 40;
#X obj 407 286 delwrite~ fb 40;
#X obj 349 285 *~ 0.5;
#X obj 268 285 *~ 0.5;
#X floatatom 422 111 0 0 0 0 - - -;
#X obj 422 133 osc~ 49;
#X obj 422 181 *~ 0.5;
#X obj 422 157 overdrive~ 5;
#X obj 564 91 pink~;
#X obj 564 139 clip~ -1 1;
#X obj 564 187 *~ 0.1;
#X obj 564 163 svf~ 1800 0;
#X obj 564 115 overdrive~ 10000;
#X obj 268 178;
#X connect 0 0 2 0;
#X connect 0 0 20 0;
#X connect 1 0 10 0;
#X connect 1 1 8 0;
#X connect 1 1 9 0;
#X connect 2 0 1 0;
#X connect 2 0 1 1;
#X connect 3 0 1 2;
#X connect 4 0 7 0;
#X connect 5 0 1 0;
#X connect 6 0 5 1;
#X connect 7 0 5 0;
#X connect 11 0 12 0;
#X connect 12 0 14 0;
#X connect 14 0 13 0;
#X connect 15 0 19 0;
#X connect 16 0 18 0;
#X connect 18 0 17 0;
#X connect 19 0 16 0;
