#N canvas 522 280 673 637 12;
#X obj 120 127 hsl 128 15 0 1 0 0 empty empty empty -2 -8 0 10 #fcfcfc #000000 #000000 0 1;
#X msg 117 147 \$1 20;
#X obj 117 171 vline~;
#X obj 80 250 pong~ 0 1 1;
#X obj 80 274 hip~ 5;
#X obj 118 210 *~ -1;
#X text 283 132 Pong WS;
#X obj 81 64 inlet~;
#X obj 160 81 inlet;
#X obj 80 298 outlet~;
#X connect 0 0 1 0;
#X connect 1 0 2 0;
#X connect 2 0 5 0;
#X connect 2 0 3 2;
#X connect 3 0 4 0;
#X connect 4 0 9 0;
#X connect 5 0 3 1;
#X connect 7 0 3 0;
#X connect 8 0 0 0;
