#N canvas 757 60 458 787 10;
#X obj 127 505 cos~;
#X obj 127 451 *~;
#X obj 127 480 +~ 0.25;
#X obj 126 298 *~;
#X obj 248 362 * -1;
#X obj 126 324 *~ 2;
#X obj 256 321 t b f;
#X obj 221 290 abs;
#X obj 119 739 outlet~;
#X obj 221 264 - 1;
#X obj 155 199 * 4;
#X obj 256 296 * 8;
#X obj 79 23 inlet~;
#X obj 142 372 expr~ $v1>$v2;
#X obj 173 395 expr~ $v1<$v2;
#X obj 142 424 expr~ $v1==0;
#X obj 256 248 loadbang;
#X msg 256 272 0.14;
#X text 291 273 fixed depth value;
#X msg 155 176 0.14;
#X text 189 177 fixed depth value;
#X obj 155 152 loadbang;
#X obj 141 272 *~;
#X obj 221 200 loadbang;
#X text 257 223 fixed limit value;
#X obj 221 321 *;
#X obj 273 492 r \$0-gain;
#X obj 320 510 loadbang;
#N canvas 86 47 462 312 rh_scalelog 0;
#X obj 20 155 exp;
#X obj 20 107 *;
#X obj 20 130 +;
#X obj 98 87 log;
#X obj 194 84 log;
#X obj 123 123 t b f;
#X obj 123 145 -;
#X obj 20 183 outlet;
#X obj 20 19 inlet;
#X obj 98 23 inlet;
#X obj 194 24 inlet;
#X connect 0 0 7 0;
#X connect 1 0 2 0;
#X connect 2 0 0 0;
#X connect 3 0 2 1;
#X connect 3 0 5 0;
#X connect 4 0 6 0;
#X connect 5 0 6 0;
#X connect 5 1 6 1;
#X connect 6 0 1 1;
#X connect 8 0 1 0;
#X connect 9 0 3 0;
#X connect 10 0 4 0;
#X restore 273 562 pd rh_scalelog;
#X msg 320 538 0.1;
#X msg 366 538 10;
#X obj 100 543 lop~ 500;
#X obj 138 686 tanh~;
#X obj 138 656 *~ 1;
#X obj 138 627 hip~ 125;
#X obj 141 248 line~;
#X msg 141 224 \$1 10;
#X obj 138 40 inlet;
#X obj 138 72 clip 0 1;
#X obj 138 123 + 0.1;
#X obj 138 98 * 0.9;
#X msg 221 225 -1.5;
#X obj 166 552 *~ 1;
#X obj 138 600 *~ 1.5;
#X obj 80 686 *~ 0.3;
#X obj 100 566 *~ 0.4;
#X text 183 101 range 0.1-1;
#X connect 0 0 31 0;
#X connect 0 0 42 0;
#X connect 1 0 2 0;
#X connect 2 0 0 0;
#X connect 3 0 5 0;
#X connect 4 0 14 1;
#X connect 5 0 1 0;
#X connect 5 0 13 0;
#X connect 5 0 14 0;
#X connect 6 0 25 0;
#X connect 6 1 25 1;
#X connect 7 0 25 0;
#X connect 9 0 7 0;
#X connect 10 0 22 1;
#X connect 11 0 6 0;
#X connect 12 0 3 0;
#X connect 12 0 44 0;
#X connect 13 0 15 0;
#X connect 14 0 15 0;
#X connect 15 0 1 1;
#X connect 16 0 17 0;
#X connect 17 0 11 0;
#X connect 19 0 10 0;
#X connect 21 0 19 0;
#X connect 22 0 3 1;
#X connect 23 0 41 0;
#X connect 25 0 4 0;
#X connect 25 0 13 1;
#X connect 26 0 28 0;
#X connect 27 0 29 0;
#X connect 27 0 30 0;
#X connect 29 0 28 1;
#X connect 30 0 28 2;
#X connect 31 0 45 0;
#X connect 32 0 8 0;
#X connect 33 0 32 0;
#X connect 34 0 33 0;
#X connect 35 0 22 0;
#X connect 36 0 35 0;
#X connect 37 0 38 0;
#X connect 38 0 40 0;
#X connect 39 0 36 0;
#X connect 40 0 39 0;
#X connect 41 0 9 0;
#X connect 42 0 43 0;
#X connect 43 0 34 0;
#X connect 44 0 8 0;
#X connect 45 0 43 0;
