#N canvas 0 28 1188 1050 12;
#X obj 46 195 biquad~;
#X obj 111 322 ~/.local/lib/pd/extra/ggee/highshelf;
#X obj 46 365 biquad~;
#X obj 45 81 inlet~;
#X obj 47 413 outlet~;
#X obj 107 81 inlet;
#X obj 196 81 inlet;
#X obj 317 81 inlet;
#X obj 111 241 inlet;
#X obj 203 241 inlet;
#X obj 328 241 inlet;
#X obj 45 105 *~ 0.2;
#X obj 107 162 ~/.local/lib/pd/extra/ggee/lowshelf;
#X text 59 449 0 audio in \, 1 low freq \, 2 low gain \, 3 low q \,
4 hi freq \, 5 hi gain \, 6 hi q, f 74;
#X obj 398 94 loadbang;
#X obj 410 254 loadbang;
#X obj 408 303 unpack f f f;
#X obj 396 143 unpack f f f;
#X obj 328 270 t b f;
#X obj 203 270 t b f;
#X obj 196 110 t b f;
#X obj 317 110 t b f;
#X obj 409 279 pack 10000 0 0;
#X obj 398 120 pack 120 0 0;
#X connect 0 0 2 0;
#X connect 1 0 2 0;
#X connect 2 0 4 0;
#X connect 3 0 11 0;
#X connect 5 0 12 0;
#X connect 6 0 20 0;
#X connect 7 0 21 0;
#X connect 8 0 1 0;
#X connect 9 0 19 0;
#X connect 10 0 18 0;
#X connect 11 0 0 0;
#X connect 12 0 0 0;
#X connect 14 0 23 0;
#X connect 15 0 22 0;
#X connect 16 0 1 0;
#X connect 16 1 1 1;
#X connect 16 2 1 2;
#X connect 17 0 12 0;
#X connect 17 1 12 1;
#X connect 17 2 12 2;
#X connect 18 0 1 0;
#X connect 18 1 1 2;
#X connect 19 0 1 0;
#X connect 19 1 1 1;
#X connect 20 0 12 0;
#X connect 20 1 12 1;
#X connect 21 0 12 0;
#X connect 21 1 12 2;
#X connect 22 0 16 0;
#X connect 23 0 17 0;
