#N canvas 0 0 958 1050 12;
#X obj 46 195 biquad~;
#X obj 381 345 ~/.local/lib/pd/extra/ggee/highshelf;
#X obj 46 365 biquad~;
#X obj 45 81 inlet~;
#X obj 47 413 outlet~;
#X obj 107 94 inlet;
#X obj 196 94 inlet;
#X obj 317 94 inlet;
#X obj 381 264 inlet;
#X obj 473 264 inlet;
#X obj 598 264 inlet;
#X obj 45 105 *~ 0.2;
#X obj 107 175 ~/.local/lib/pd/extra/ggee/lowshelf;
#X text 59 449 0 audio in \, 1 low freq \, 2 low gain \, 3 low q \,
4 hi freq \, 5 hi gain \, 6 hi q, f 74;
#X obj 398 107 loadbang;
#X obj 680 277 loadbang;
#X obj 678 326 unpack f f f;
#X obj 396 156 unpack f f f;
#X obj 598 293 t b f;
#X obj 473 293 t b f;
#X obj 196 123 t b f;
#X obj 317 123 t b f;
#X obj 679 302 pack 10000 0 0;
#X obj 398 133 pack 120 0 0;
#X obj 1066 87 vsl 15 128 30 120 0 0 empty empty lo_freq 0 -9 0 10
#fcfcfc #000000 #000000 0 1;
#X floatatom 1066 223 5 0 0 0 - - - 0;
#X obj 1118 87 vsl 15 128 -20 20 0 0 empty empty lo_gain 0 -9 0 10
#fcfcfc #000000 #000000 0 1;
#X floatatom 1118 223 5 0 0 0 - - - 0;
#X obj 1170 87 vsl 15 128 0.1 100 0 0 empty empty low_q 0 -9 0 10 #fcfcfc
#000000 #000000 0 1;
#X floatatom 1170 223 5 0 0 0 - - - 0;
#X obj 1222 87 vsl 15 128 8000 14000 0 0 empty empty hi_freq 0 -9 0
10 #fcfcfc #000000 #000000 0 1;
#X floatatom 1222 223 6 0 0 0 - - - 0;
#X obj 1274 87 vsl 15 128 -20 20 0 0 empty empty hi_gain 0 -9 0 10
#fcfcfc #000000 #000000 0 1;
#X floatatom 1274 224 5 0 0 0 - - - 0;
#X obj 1326 87 vsl 15 128 0.1 100 0 0 empty empty hi_q 0 -9 0 10 #fcfcfc
#000000 #000000 0 1;
#X floatatom 1326 223 5 0 0 0 - - - 0;
#X text 947 176 for inlet use:;
#X text 926 196 (need connection);
#X connect 0 0 2 0;
#X connect 1 0 2 0;
#X connect 2 0 4 0;
#X connect 3 0 11 0;
#X connect 5 0 12 0;
#X connect 6 0 20 0;
#X connect 7 0 21 0;
#X connect 8 0 1 0;
#X connect 9 0 19 0;
#X connect 10 0 18 0;
#X connect 11 0 0 0;
#X connect 12 0 0 0;
#X connect 14 0 23 0;
#X connect 15 0 22 0;
#X connect 16 0 1 0;
#X connect 16 1 1 1;
#X connect 16 2 1 2;
#X connect 17 0 12 0;
#X connect 17 1 12 1;
#X connect 17 2 12 2;
#X connect 18 0 1 0;
#X connect 18 1 1 2;
#X connect 19 0 1 0;
#X connect 19 1 1 1;
#X connect 20 0 12 0;
#X connect 20 1 12 1;
#X connect 21 0 12 0;
#X connect 21 1 12 2;
#X connect 22 0 16 0;
#X connect 23 0 17 0;
#X connect 24 0 25 0;
#X connect 26 0 27 0;
#X connect 28 0 29 0;
#X connect 30 0 31 0;
#X connect 32 0 33 0;
#X connect 34 0 35 0;
