#N canvas 0 28 1079 1050 12;
#X obj 46 195 biquad~;
#X obj 426 162 ~/.local/lib/pd/extra/ggee/highshelf;
#X obj 46 255 biquad~;
#X obj 45 81 inlet~;
#X obj 47 303 outlet~;
#X obj 107 81 inlet;
#X obj 228 81 inlet;
#X obj 349 81 inlet;
#X obj 426 81 inlet;
#X obj 550 81 inlet;
#X obj 675 81 inlet;
#X obj 45 105 *~ 0.2;
#X obj 107 162 ~/.local/lib/pd/extra/ggee/lowshelf;
#X text 41 49 0 audio in \, 1 low freq \, 2 low gain \, 3 low q \,
4 hi freq \, 5 hi gain \, 6 hi q, f 74;
#X obj 218 111 loadmess 120;
#X obj 540 110 loadmess 120;
#X connect 0 0 2 0;
#X connect 1 0 2 0;
#X connect 2 0 4 0;
#X connect 3 0 11 0;
#X connect 5 0 12 0;
#X connect 6 0 12 1;
#X connect 7 0 12 2;
#X connect 8 0 1 0;
#X connect 9 0 1 1;
#X connect 10 0 1 2;
#X connect 11 0 0 0;
#X connect 12 0 0 0;
#X connect 14 0 12 1;
#X connect 15 0 1 1;
