#N canvas 0 0 967 1050 12;
#X obj 86 61 inlet~;
#X obj 285 129 delread4~ \$0-bbd_buffer 20;
#X obj 285 184 *~;
#X obj 285 49 inlet;
#X obj 565 49 inlet;
#X text 262 184 fb;
#X obj 85 334 outlet~;
#X obj 284 215 delwrite~ \$0-bbd_buffer 1000;
#X obj 285 99 line~;
#X text 534 176 0 audio \; 1 del time \; 2 feedback \;;
#X msg 285 74 \$1 60;
#X connect 0 0 6 0;
#X connect 0 0 7 0;
#X connect 1 0 2 0;
#X connect 1 0 6 0;
#X connect 2 0 7 0;
#X connect 3 0 10 0;
#X connect 4 0 2 1;
#X connect 8 0 1 0;
#X connect 10 0 8 0;
