#N canvas 0 0 1920 1052 12;
#X obj 86 61 inlet~;
#X obj 284 215 delwrite~ \$0-bbd_buffer 100;
#X obj 285 79 delread4~ \$0-bbd_buffer 20;
#X obj 285 184 *~;
#X obj 285 49 inlet;
#X obj 565 49 inlet;
#X text 262 184 fb;
#X obj 85 334 outlet~;
#X connect 0 0 1 0;
#X connect 0 0 7 0;
#X connect 2 0 3 0;
#X connect 2 0 7 0;
#X connect 3 0 1 0;
#X connect 4 0 2 0;
#X connect 5 0 3 1;
