#N canvas 960 28 958 330 12;
#X obj 607 297 hradio 15 1 0 5 empty empty empty 0 -8 0 10 -262144
-1 -1 4;
#X obj 607 318 zl lookup;
#X obj 387 377 hradio 15 1 0 3 empty empty empty 0 -8 0 10 -262144
-1 -1 2;
#X obj 387 398 zl lookup;
#X obj 607 377 hradio 15 1 0 4 empty empty empty 0 -8 0 10 -262144
-1 -1 0;
#X obj 607 398 zl lookup;
#X obj 24 26 inlet~;
#N canvas 0 28 729 1050 peak 0;
#X obj 96 89 inlet~;
#X obj 96 113 abs~;
#X obj 96 209 -~;
#X obj 96 264 *~;
#X obj 134 187 r \$0-thresh;
#X obj 114 242 r \$0-ratio;
#X obj 96 342 /~;
#X obj 96 366 outlet~;
#X obj 245 187 +~ 0;
#X obj 96 318 +~;
#X connect 0 0 1 0;
#X connect 1 0 2 0;
#X connect 1 0 8 0;
#X connect 2 0 3 0;
#X connect 3 0 9 0;
#X connect 4 0 2 1;
#X connect 4 0 9 1;
#X connect 5 0 3 1;
#X connect 6 0 7 0;
#X connect 8 0 6 1;
#X connect 9 0 6 0;
#X restore 233 171 pd peak;
#N canvas 727 28 1191 440 delWrite 0;
#X obj 227 591 delwrite~ \$0-comp 500;
#X obj 226 563 inlet~;
#X obj 227 616 outlet~;
#X connect 1 0 0 0;
#X restore 23 170 pd delWrite;
#N canvas 0 28 837 1050 delRead 0;
#X obj 413 488 inlet~;
#X obj 474 488 inlet;
#X obj 474 521 delread~ \$0-comp 0;
#X obj 474 546 outlet~;
#X connect 1 0 2 0;
#X connect 2 0 3 0;
#X restore 23 246 pd delRead;
#X obj 383 76 inlet;
#X obj 233 196 clip~ 0 1;
#X msg 387 423 ratio \$1;
#X obj 90 220 r \$0-lookahead;
#X obj 216 332 *~;
#X obj 234 386 r \$0-gain;
#X obj 234 411 pack f 5;
#X obj 234 436 line~;
#X obj 383 166 + 100;
#X obj 383 191 dbtorms;
#X obj 383 216 s \$0-thresh;
#X obj 609 165 swap 1;
#X obj 609 190 /;
#X obj 609 215 s \$0-ratio;
#X obj 383 101 route threshold makeup attack release ratio hpf lookahead
;
#X obj 722 165 s \$0-lookahead;
#X obj 470 167 + 100;
#X obj 470 192 dbtorms;
#X obj 470 217 s \$0-gain;
#X msg 607 423 hpf \$1;
#X msg 607 343 release \$1;
#X obj 216 492 outlet~;
#X obj 216 467 *~;
#X obj 233 251 rampsmooth~;
#X obj 387 296 hradio 15 1 0 6 empty empty empty 0 -8 0 10 -262144
-1 -1 0;
#X msg 387 342 attack \$1;
#X obj 387 316 zl lookup;
#X obj 437 459 hsl 128 15 -30 0 0 0 empty empty empty -2 -8 0 10 -262144
-1 -1 0 1;
#X floatatom 386 457 5 0 0 0 - - -;
#X msg 434 479 threshold \$1;
#X obj 576 459 hsl 128 15 0 20 0 0 empty empty empty -2 -8 0 10 -262144
-1 -1 0 1;
#X msg 573 479 makeup \$1;
#X text 514 12 https://designingsound.org/2013/06/28/tutorial-a-compressor-in-pure-data/#
;
#X text 384 511 drum glue;
#X msg 385 535 threshold -20 \, ratio 2 \, attack 10 \, release 100
\, lookahead 0, f 33;
#X text 384 581 master;
#X msg 385 605 threshold -12 \, ratio 10 \, attack 0.1 \, release 100
\, lookahead 0, f 33;
#X msg 458 316 0.1 0.3 1 3 10 30;
#X msg 678 318 100 200 400 800 1600;
#X msg 458 398 2 4 10;
#X connect 0 0 1 0;
#X connect 1 0 30 0;
#X connect 2 0 3 0;
#X connect 3 0 12 0;
#X connect 4 0 5 0;
#X connect 5 0 29 0;
#X connect 6 0 8 0;
#X connect 6 0 7 0;
#X connect 7 0 11 0;
#X connect 8 0 9 0;
#X connect 9 0 14 0;
#X connect 10 0 24 0;
#X connect 11 0 33 0;
#X connect 13 0 9 1;
#X connect 14 0 32 0;
#X connect 15 0 16 0;
#X connect 16 0 17 0;
#X connect 17 0 32 1;
#X connect 18 0 19 0;
#X connect 19 0 20 0;
#X connect 21 0 22 0;
#X connect 21 1 22 1;
#X connect 22 0 23 0;
#X connect 24 0 18 0;
#X connect 24 1 26 0;
#X connect 24 2 33 1;
#X connect 24 3 33 2;
#X connect 24 4 21 0;
#X connect 24 6 25 0;
#X connect 26 0 27 0;
#X connect 27 0 28 0;
#X connect 32 0 31 0;
#X connect 33 0 14 1;
#X connect 34 0 36 0;
#X connect 36 0 35 0;
#X connect 37 0 38 0;
#X connect 37 0 39 0;
#X connect 40 0 41 0;
#X connect 47 0 36 1;
#X connect 48 0 1 1;
#X connect 49 0 3 1;
