#N canvas 0 0 958 1048 10;
#X obj 171 433 gsp-fdnstereo;
#X obj 364 52 metro 3000;
#X obj 364 20 tgl 16 0 empty empty empty 0 -8 0 10 #fcfcfc #000000 #000000 0 1;
#X obj 164 369 *~;
#X obj 467 190 line~;
#X obj 70 292 osc~ 33;
#X obj 179 101 osc~ 33;
#X obj 70 255 +~;
#X floatatom 70 216 5 0 0 0 - - - 12;
#X floatatom 179 73 5 0 0 0 - - - 12;
#X obj 179 138 *~ 500;
#X floatatom 235 110 5 0 0 0 - - - 0;
#X obj 310 166 osc~ 33;
#X floatatom 310 140 5 0 0 0 - - - 12;
#X obj 164 268 osc~ 66;
#X obj 164 198 +~;
#X floatatom 129 131 5 0 0 0 - - - 0;
#X obj 164 303 *~ 0.5;
#X obj 164 235 +~, f 25;
#X obj 365 189 line~;
#X obj 310 198 *~;
#X msg 364 166 50 \, 0 74;
#X obj 169 636 dac~;
#X obj 365 597 *~ 0.3;
#X obj 170 597 *~ 0.3;
#X obj 467 227 cyclone/slide~ 20 20;
#X msg 467 168 1 \, 0 200;
#X floatatom 434 292 5 0 0 0 - - - 0;
#X text 468 69 comment;
#X connect 0 0 24 0;
#X connect 0 1 23 0;
#X connect 1 0 26 0;
#X connect 1 0 21 0;
#X connect 2 0 1 0;
#X connect 3 0 0 0;
#X connect 4 0 25 0;
#X connect 5 0 3 0;
#X connect 6 0 10 0;
#X connect 7 0 5 0;
#X connect 8 0 7 0;
#X connect 9 0 6 0;
#X connect 10 0 7 1;
#X connect 10 0 15 1;
#X connect 11 0 10 1;
#X connect 12 0 20 0;
#X connect 13 0 12 0;
#X connect 14 0 17 0;
#X connect 15 0 18 0;
#X connect 16 0 15 0;
#X connect 17 0 3 0;
#X connect 18 0 14 0;
#X connect 19 0 20 1;
#X connect 20 0 18 1;
#X connect 21 0 19 0;
#X connect 23 0 22 1;
#X connect 24 0 22 0;
#X connect 25 0 3 1;
#X connect 26 0 4 0;
