#N canvas 0 0 1920 1048 12;
#X obj 130 300 gsp-fdnstereo;
#X obj 370 70 metro 3000;
#X obj 370 40 tgl 16 0 empty empty empty 0 -8 0 10 #fcfcfc #000000 #000000 0 1;
#X obj 130 270 *~;
#X obj 440 140 line~;
#X obj 40 220 osc~ 33;
#X obj 40 200 +~;
#X floatatom 40 180 5 0 0 0 - - - 12;
#X floatatom 160 70 5 0 0 0 - - - 12;
#X obj 160 150 *~ 500;
#X floatatom 200 130 5 0 0 0 - - - 0;
#X obj 300 140 osc~ 33;
#X floatatom 300 120 5 0 0 0 - - - 12;
#X obj 130 220 osc~ 66;
#X obj 130 180 +~, f 5;
#X floatatom 130 50 5 0 0 0 - - - 0;
#X obj 130 240 *~ 0.5;
#X obj 130 200 +~, f 24;
#X obj 370 140 line~;
#X obj 300 160 *~;
#X msg 370 120 50 \, 0 74;
#X obj 320 470 *~ 0.3;
#X obj 130 470 *~ 0.3;
#X obj 440 160 cyclone/slide~ 20 20;
#X msg 440 120 1 \, 0 200;
#X obj 130 490 dac~ 3 4;
#X obj 160 90 osc~ 34;
#X msg 550 450 0.1;
#X connect 0 0 22 0;
#X connect 0 1 21 0;
#X connect 1 0 24 0;
#X connect 1 0 20 0;
#X connect 2 0 1 0;
#X connect 3 0 0 0;
#X connect 4 0 23 0;
#X connect 5 0 3 0;
#X connect 6 0 5 0;
#X connect 7 0 6 0;
#X connect 8 0 26 0;
#X connect 9 0 6 1;
#X connect 9 0 14 1;
#X connect 10 0 9 1;
#X connect 11 0 19 0;
#X connect 12 0 11 0;
#X connect 13 0 16 0;
#X connect 14 0 17 0;
#X connect 15 0 14 0;
#X connect 16 0 3 0;
#X connect 17 0 13 0;
#X connect 18 0 19 1;
#X connect 19 0 17 1;
#X connect 20 0 18 0;
#X connect 21 0 25 1;
#X connect 22 0 25 0;
#X connect 23 0 3 1;
#X connect 24 0 4 0;
#X connect 26 0 9 0;
#X connect 27 0 21 1;
#X connect 27 0 22 1;
