#N canvas 0 0 1074 1046 12;
#X obj 130 300 gsp-fdnstereo;
#X obj 370 70 metro 3000;
#X obj 370 40 tgl 16 0 empty empty empty 0 -8 0 10 #fcfcfc #000000 #000000 0 1;
#X obj 130 270 *~;
#X obj 440 140 line~;
#X obj 40 200 +~;
#X floatatom 40 180 5 0 0 0 - - - 12;
#X floatatom 160 70 5 0 0 0 - - - 12;
#X obj 160 150 *~ 500;
#X floatatom 200 130 5 0 0 0 - - - 0;
#X obj 300 140 osc~ 33;
#X floatatom 300 120 5 0 0 0 - - - 12;
#X obj 130 180 +~, f 5;
#X floatatom 130 50 5 0 0 0 - - - 0;
#X obj 130 240 *~ 0.5;
#X obj 130 200 +~, f 24;
#X obj 370 140 line~;
#X obj 300 160 *~;
#X msg 370 120 50 \, 0 74;
#X obj 320 470 *~ 0.3;
#X obj 130 470 *~ 0.3;
#X obj 160 90 osc~ 34;
#X msg 550 450 0.1;
#X obj 441 160 slide~ 20 20;
#X obj 56 303 *~;
#X obj 78 250 tgl 13 0 empty empty empty 0 -6 0 12 #fcfcfc #000000 #000000 0 1;
#X msg 440 120 1 \, 0 \$1;
#X obj 439 87 bng 13 250 50 0 empty empty empty 0 -6 0 12 #fcfcfc #000000 #000000;
#X obj 78 268 * 0.5;
#X msg 439 104 1000;
#X obj 64 87 osc~ 1;
#X obj 64 105 *~ 100;
#X floatatom 72 66 5 0 0 0 - - - 0;
#X obj 545 103 vsl 13 110 0 127 0 0 empty empty empty 0 -9 0 12 #fcfcfc #000000 #000000 0 1;
#X obj 545 221 / 127;
#X obj 40 220 osc~ 41;
#X obj 130 220 osc~ 41;
#X msg 355 174 1000;
#X obj 216 223 osc~ 34;
#X obj 130 490 dac~;
#X connect 0 0 20 0;
#X connect 0 1 19 0;
#X connect 1 0 18 0;
#X connect 1 0 27 0;
#X connect 2 0 1 0;
#X connect 3 0 0 0;
#X connect 4 0 23 0;
#X connect 5 0 35 0;
#X connect 6 0 5 0;
#X connect 7 0 21 0;
#X connect 8 0 12 1;
#X connect 9 0 8 1;
#X connect 10 0 17 0;
#X connect 11 0 10 0;
#X connect 12 0 15 0;
#X connect 13 0 12 0;
#X connect 14 0 3 0;
#X connect 15 0 36 0;
#X connect 16 0 17 1;
#X connect 17 0 15 1;
#X connect 18 0 16 0;
#X connect 19 0 39 1;
#X connect 20 0 39 0;
#X connect 21 0 8 0;
#X connect 22 0 19 1;
#X connect 22 0 20 1;
#X connect 23 0 3 1;
#X connect 24 0 3 0;
#X connect 25 0 28 0;
#X connect 26 0 4 0;
#X connect 27 0 29 0;
#X connect 28 0 24 1;
#X connect 29 0 26 0;
#X connect 30 0 31 0;
#X connect 31 0 5 1;
#X connect 32 0 30 0;
#X connect 33 0 34 0;
#X connect 35 0 24 0;
#X connect 36 0 14 0;
#X connect 37 0 17 1;
#X connect 38 0 3 0;
