#N canvas 0 0 1920 1052 10;
#X obj 0 0 cnv 15 400 160 empty empty ERBE 20 12 0 14 #0483ff #ffffff 0;
#X obj 125 387 *~;
#X obj 278 390 *~;
#X obj 88 388 *~;
#X obj 239 390 *~;
#X floatatom 120 285 5 0 1 0 drywet - - 0;
#X obj 257 414 +~;
#X obj 102 416 +~;
#X obj 218 352 - 1;
#X obj 218 368 * -1;
#X obj 8 37 hsl 128 15 0 100 0 0 empty empty fbgain -2 -8 0 10 #fcfcfc #000000 #ffffff 0 1;
#X floatatom 147 37 7 0 0 0 - - - 0;
#X obj 440 -2 loadbang;
#X obj 317 212 inlet~;
#X obj 101 443 outlet~;
#X obj 256 442 outlet~;
#X obj 7 134 hsl 128 15 0 100 0 0 empty empty LFO\ Depth -2 -8 0 10 #fcfcfc #000000 #ffffff 0 1;
#X floatatom 145 134 5 0 0 0 - - - 0;
#X obj 120 266 * 0.01;
#X msg 407 110 50;
#X obj 317 252 gsp-fdn, f 57;
#X msg 407 46 0.3;
#X obj 8 102 hsl 128 15 0 1 0 0 empty empty LFO\ Hz -2 -8 0 10 #fcfcfc #000000 #ffffff 0 1;
#X floatatom 147 102 7 0 0 0 - - - 0;
#X msg 407 78 45;
#X msg 406 14 80;
#X obj 206 38 hsl 128 15 0 1000 0 0 empty empty time -2 -8 0 10 #fcfcfc #000000 #ffffff 0 1;
#X floatatom 345 38 7 0 0 0 - - - 0;
#X obj 205 135 hsl 128 15 0 100 0 0 empty empty mix -2 -8 0 10 #fcfcfc #000000 #ffffff 0 1;
#X floatatom 343 135 5 0 0 0 - - - 0;
#X obj 206 71 hsl 128 15 0 100 0 0 empty empty damping -2 -8 0 10 #fcfcfc #000000 #ffffff 0 1;
#X floatatom 345 71 7 0 0 0 - - - 0;
#X obj 206 103 hsl 128 15 20 70 0 0 empty empty coupling -2 -8 0 10 #fcfcfc #000000 #ffffff 0 1;
#X floatatom 345 103 7 0 0 0 - - - 0;
#X text 546 100 0 \, audio in \; \; 1 \, audio in \; 2 \, fb \; 3 \, damp \; 4 \, ?? phase? 5 \, time \; 6 \, lfo speed \; 7 \, lfo depth \;;
#X connect 1 0 7 1;
#X connect 2 0 6 1;
#X connect 3 0 7 0;
#X connect 4 0 6 0;
#X connect 5 0 1 0;
#X connect 5 0 2 0;
#X connect 5 0 8 0;
#X connect 6 0 15 0;
#X connect 7 0 14 0;
#X connect 8 0 9 0;
#X connect 9 0 3 0;
#X connect 9 0 4 0;
#X connect 10 0 11 0;
#X connect 10 0 20 2;
#X connect 12 0 25 0;
#X connect 12 0 19 0;
#X connect 12 0 21 0;
#X connect 12 0 24 0;
#X connect 13 0 20 1;
#X connect 13 0 4 1;
#X connect 13 0 3 1;
#X connect 13 0 20 0;
#X connect 16 0 17 0;
#X connect 16 0 20 7;
#X connect 18 0 5 0;
#X connect 19 0 16 0;
#X connect 20 0 1 1;
#X connect 20 1 2 1;
#X connect 22 0 23 0;
#X connect 22 0 20 6;
#X connect 24 0 22 0;
#X connect 25 0 10 0;
#X connect 26 0 27 0;
#X connect 26 0 20 5;
#X connect 28 0 29 0;
#X connect 29 0 18 0;
#X connect 30 0 31 0;
#X connect 30 0 20 3;
#X connect 32 0 33 0;
#X coords 0 -1 1 1 400 160 2 0 0;
