#N canvas 0 0 1920 1052 12;
#X text 7 -2 some ideas from the michael gerzon studio sound reverb articles of 1971 and 1972, f 38;
#X obj 270 40 inlet~;
#X obj 390 40 inlet~;
#X obj 390 720 +~;
#X obj 270 720 +~;
#X obj 490 40 inlet;
#X obj 24 623 clip 0 100;
#X obj 24 643 * 0.01;
#X obj 24 673 lop~ 3;
#X obj 410 700 *~;
#X obj 280 700 *~;
#X obj 520 700 *~;
#X obj 660 700 *~;
#X obj 125 327 cos;
#X obj 165 327 sin;
#X obj 125 287 wrap;
#X floatatom 165 347 5 0 0 0 - - - 0;
#X floatatom 125 347 5 0 0 0 - - - 0;
#X floatatom 125 247 5 0 0 0 - - - 0;
#X obj 125 307 * 6.28319;
#X obj 572 388 *~;
#X obj 599 389 *~;
#X obj 572 411 -~;
#X obj 665 390 *~;
#X obj 691 391 *~;
#X obj 665 410 +~;
#X obj 814 396 *~;
#X obj 843 396 *~;
#X obj 816 418 -~;
#X obj 895 396 *~;
#X obj 925 396 *~;
#X obj 895 416 +~;
#X obj 588 442 *~;
#X obj 613 443 *~;
#X obj 588 472 -~;
#X obj 751 455 *~;
#X obj 777 455 *~;
#X obj 752 481 +~;
#X obj 668 450 *~;
#X obj 695 451 *~;
#X obj 671 478 -~;
#X obj 828 457 *~;
#X obj 848 457 *~;
#X obj 828 477 +~;
#X obj 28 310 wrap;
#X floatatom 68 370 5 0 0 0 - - - 0;
#X floatatom 28 370 5 0 0 0 - - - 0;
#X floatatom 28 270 5 0 0 0 - - - 0;
#X obj 28 330 * 6.28319;
#X obj 588 534 outlet~;
#X obj 654 533 outlet~;
#X obj 660 740 rpole~;
#X obj 660 720 *~;
#X obj 520 740 rpole~;
#X obj 520 720 *~;
#X obj 731 28 inlet;
#X obj 1183 632 clip 0 1;
#X obj 1183 652 - 1;
#X obj 1183 672 * -1;
#X obj 125 267 / 360;
#X obj 28 290 / 360;
#X obj 28 350 cos;
#X obj 68 350 sin;
#X obj 588 511 *~ 1;
#X obj 654 513 *~ 1;
#X msg 28 227 45;
#X obj 28 207 loadbang;
#X obj 801 28 inlet;
#X obj 801 48 clip 20 70;
#X obj 270 790 delwrite~ \$0-a 500, f 12;
#X obj 400 790 delwrite~ \$0-b 500, f 12;
#X obj 520 790 delwrite~ \$0-c 500, f 12;
#X obj 660 790 delwrite~ \$0-d 500, f 12;
#X obj 270 770 allpass100ms;
#X obj 400 770 allpass100ms;
#X obj 520 770 allpass100ms;
#X obj 660 770 allpass100ms;
#X obj 950 800 hsl 136 16 0 15 0 0 empty empty empty -2 -8 0 10 #fcfcfc #000000 #000000 0 1;
#X floatatom 1023 834 5 0 0 0 - - - 0;
#X obj 1180 790 hsl 136 16 0 15 0 0 empty empty empty -2 -8 0 10 #fcfcfc #000000 #000000 0 1;
#X floatatom 1206 832 5 0 0 0 - - - 0;
#X obj 1375 813 hsl 136 16 0 15 0 0 empty empty empty -2 -8 0 10 #fcfcfc #000000 #000000 0 1;
#X floatatom 1371 835 5 0 0 0 - - - 0;
#X obj 865 909 hsl 136 16 0 0.8 0 0 empty empty empty -2 -8 0 10 #fcfcfc #000000 #000000 0 1;
#X floatatom 862 930 5 0 0 0 - - - 0;
#X obj 1032 904 hsl 136 16 0 0.8 0 0 empty empty empty -2 -8 0 10 #fcfcfc #000000 #000000 0 1;
#X floatatom 1029 925 5 0 0 0 - - - 0;
#X obj 1223 898 hsl 136 16 0 0.8 0 0 empty empty empty -2 -8 0 10 #fcfcfc #000000 #000000 0 1;
#X floatatom 1220 919 5 0 0 0 - - - 0;
#X obj 1395 892 hsl 136 16 0 0.8 0 0 empty empty empty -2 -8 0 10 #fcfcfc #000000 #000000 0 1;
#X floatatom 1392 913 5 0 0 0 - - - 0;
#X obj 1020 864 +;
#X obj 1164 850 +;
#X obj 1364 866 +;
#X obj 1030 730 hsl 136 16 0 40 0 0 empty empty empty -2 -8 0 10 #ffffff #000000 #000000 0 1;
#X obj 1030 760 t b f;
#X floatatom 1164 871 5 0 0 0 - - - 0;
#X obj 920 286 delread4~ \$0-d 135, f 11;
#X obj 813 283 delread4~ \$0-c 99.203, f 9;
#X obj 734 280 delread4~ \$0-b 62.346, f 9;
#X obj 650 279 delread4~ \$0-a 40.635, f 9;
#X obj 649 247 +~ 40.635;
#X obj 734 247 +~ 62.346;
#X obj 814 247 +~ 99.203;
#X obj 921 238 +~ 135;
#X obj 734 177 +~ 0.25;
#X obj 814 197 +~ 0.5;
#X obj 921 178 +~ 0.75;
#X obj 921 148 *~ 1;
#X floatatom 1082 -8 5 0 0 0 - - - 16;
#X obj 856 867 hsl 136 16 0 0.8 0 0 empty empty empty -2 -8 0 10 #fcfcfc #000000 #000000 0 1;
#X obj 1082 52 line~;
#X floatatom 1142 32 5 0 0 0 - - - 0;
#X obj 1082 12 t f b, f 9;
#X obj 1112 72 osc~ 0.2;
#X obj 1082 112 +~;
#X floatatom 1242 52 5 0 0 0 - - - 0;
#X obj 1242 72 line~;
#X obj 1112 92 *~, f 19;
#X text 6 85 4 prime number delay lines with ratios between 0.5 and 1 47 \, 67 \, 101 \, 137, f 31;
#X text 480 20 fb 0 - 100;
#X text 7 26 TODO: * modulation of del time \; * modulation of allpass time to prevent ringing \;, f 32;
#X text 1182 52 lfo;
#X text 1075 -44 time;
#X text 723 1 damp?;
#X text 1059 711 allpass control // diffusion??;
#X msg 971 208 0;
#X text 270 20 audio in 1, f 6;
#X text 390 20 audio in 2, f 7;
#X obj 1082 -28 inlet;
#X obj 1132 -28 inlet;
#X text 1137 -51 lfo speed;
#X obj 1242 23 inlet;
#X text 1237 4 lfo depth;
#X text 36 190 coupling!;
#X text 799 11 coupling;
#X text 688 173 ??;
#X text 594 307 ------------------------------------------------------------;
#X text 561 552 ------------------------------------------------------------;
#X text 992 125 ------------------------------------------------------------;
#X text 778 308 ------------------------------------------------------------;
#X text 241 659 ------------------------------------------------------------;
#X text 445 659 ------------------------------------------------------------;
#X text 672 658 ------------------------------------------------------------;
#X text 573 335 FDN Matrix;
#X text 19 129 https://www.youtube.com/watch?v=Il_qdtQKnqk;
#X obj 921 208 *~ 1;
#X obj 814 217 *~ 1;
#X obj 734 217 *~ 1;
#X obj 649 217 *~ 1;
#X text 531 217 9 \, 2 \, 2 \, 2???->;
#X connect 1 0 4 0;
#X connect 2 0 3 0;
#X connect 3 0 74 0;
#X connect 4 0 73 0;
#X connect 5 0 6 0;
#X connect 6 0 7 0;
#X connect 7 0 8 0;
#X connect 8 0 9 1;
#X connect 8 0 10 1;
#X connect 8 0 11 0;
#X connect 8 0 12 0;
#X connect 9 0 3 1;
#X connect 10 0 4 1;
#X connect 11 0 54 0;
#X connect 12 0 52 0;
#X connect 13 0 17 0;
#X connect 14 0 16 0;
#X connect 15 0 19 0;
#X connect 16 0 21 1;
#X connect 16 0 23 1;
#X connect 16 0 27 1;
#X connect 16 0 29 1;
#X connect 17 0 20 1;
#X connect 17 0 24 1;
#X connect 17 0 26 1;
#X connect 17 0 30 1;
#X connect 18 0 59 0;
#X connect 19 0 14 0;
#X connect 19 0 13 0;
#X connect 20 0 22 0;
#X connect 21 0 22 1;
#X connect 22 0 32 0;
#X connect 22 0 35 0;
#X connect 23 0 25 0;
#X connect 24 0 25 1;
#X connect 25 0 38 0;
#X connect 25 0 41 0;
#X connect 26 0 28 0;
#X connect 27 0 28 1;
#X connect 28 0 33 0;
#X connect 28 0 36 0;
#X connect 29 0 31 0;
#X connect 30 0 31 1;
#X connect 31 0 42 0;
#X connect 31 0 39 0;
#X connect 32 0 34 0;
#X connect 33 0 34 1;
#X connect 34 0 63 0;
#X connect 34 0 10 0;
#X connect 35 0 37 0;
#X connect 36 0 37 1;
#X connect 37 0 63 0;
#X connect 37 0 11 1;
#X connect 38 0 40 0;
#X connect 39 0 40 1;
#X connect 40 0 64 0;
#X connect 40 0 9 0;
#X connect 41 0 43 0;
#X connect 42 0 43 1;
#X connect 43 0 64 0;
#X connect 43 0 12 1;
#X connect 44 0 48 0;
#X connect 45 0 41 1;
#X connect 45 0 39 1;
#X connect 45 0 35 1;
#X connect 45 0 33 1;
#X connect 46 0 42 1;
#X connect 46 0 38 1;
#X connect 46 0 36 1;
#X connect 46 0 32 1;
#X connect 47 0 60 0;
#X connect 48 0 61 0;
#X connect 48 0 62 0;
#X connect 51 0 76 0;
#X connect 52 0 51 0;
#X connect 53 0 75 0;
#X connect 54 0 53 0;
#X connect 55 0 56 0;
#X connect 56 0 57 0;
#X connect 56 0 53 1;
#X connect 56 0 51 1;
#X connect 57 0 58 0;
#X connect 58 0 54 1;
#X connect 58 0 52 1;
#X connect 59 0 15 0;
#X connect 60 0 44 0;
#X connect 61 0 46 0;
#X connect 62 0 45 0;
#X connect 63 0 49 0;
#X connect 64 0 50 0;
#X connect 65 0 47 0;
#X connect 65 0 18 0;
#X connect 66 0 65 0;
#X connect 67 0 68 0;
#X connect 68 0 47 0;
#X connect 73 0 69 0;
#X connect 74 0 70 0;
#X connect 75 0 71 0;
#X connect 76 0 72 0;
#X connect 77 0 78 0;
#X connect 78 0 91 0;
#X connect 79 0 80 0;
#X connect 80 0 92 0;
#X connect 81 0 82 0;
#X connect 82 0 93 0;
#X connect 83 0 84 0;
#X connect 84 0 73 2;
#X connect 85 0 86 0;
#X connect 86 0 74 2;
#X connect 87 0 88 0;
#X connect 88 0 75 2;
#X connect 89 0 90 0;
#X connect 90 0 76 2;
#X connect 91 0 74 1;
#X connect 92 0 96 0;
#X connect 92 0 75 1;
#X connect 93 0 76 1;
#X connect 94 0 95 0;
#X connect 95 0 82 0;
#X connect 95 0 80 0;
#X connect 95 0 78 0;
#X connect 95 1 93 1;
#X connect 95 1 92 1;
#X connect 95 1 91 1;
#X connect 97 0 30 0;
#X connect 97 0 27 0;
#X connect 98 0 29 0;
#X connect 98 0 26 0;
#X connect 99 0 24 0;
#X connect 99 0 21 0;
#X connect 100 0 23 0;
#X connect 100 0 20 0;
#X connect 101 0 100 0;
#X connect 102 0 99 0;
#X connect 103 0 98 0;
#X connect 104 0 97 0;
#X connect 105 0 148 0;
#X connect 106 0 147 0;
#X connect 107 0 146 0;
#X connect 108 0 107 0;
#X connect 108 0 106 0;
#X connect 108 0 105 0;
#X connect 108 0 149 0;
#X connect 109 0 113 0;
#X connect 110 0 89 0;
#X connect 110 0 87 0;
#X connect 110 0 85 0;
#X connect 110 0 83 0;
#X connect 111 0 115 0;
#X connect 112 0 111 1;
#X connect 113 0 111 0;
#X connect 113 1 112 0;
#X connect 114 0 118 0;
#X connect 115 0 108 0;
#X connect 116 0 117 0;
#X connect 117 0 118 1;
#X connect 118 0 115 1;
#X connect 126 0 104 1;
#X connect 126 0 103 1;
#X connect 126 0 102 1;
#X connect 126 0 101 1;
#X connect 126 0 106 1;
#X connect 126 0 107 1;
#X connect 126 0 105 1;
#X connect 129 0 109 0;
#X connect 130 0 114 0;
#X connect 132 0 116 0;
#X connect 146 0 104 0;
#X connect 147 0 103 0;
#X connect 148 0 102 0;
#X connect 149 0 101 0;
