#N canvas 953 0 958 980 12;
#X obj 375 353 line~;
#X obj 274 204 bng 15 250 50 0 empty empty empty 17 7 0 10 #fcfcfc #000000 #000000;
#X obj 273 575 *~;
#X obj 273 478 overdrive~ 1;
#X msg 375 324 0 \, 48000 \$1;
#X floatatom 375 296 5 0 0 0 - - - 0;
#X obj 273 536 downsamp~ 1;
#X obj 274 9 inlet;
#X obj 273 507 svf~ 20000 0.3;
#X obj 273 639 outlet~;
#X obj 1324 80 unpack f f f f f f f;
#X floatatom 567 166 5 0 0 0 - - - 0;
#X floatatom 713 166 5 0 0 0 - - - 0;
#X floatatom 860 166 8 0 0 0 - - - 0;
#X floatatom 1006 166 5 0 0 0 - - - 0;
#X floatatom 1153 166 5 0 0 0 - - - 0;
#X text 1324 9 default \;;
#X obj 1324 33 loadbang;
#X obj 273 600 *~;
#X floatatom 420 166 5 0 0 0 - - - 0;
#X obj 420 142 scale 0 127 0 1;
#X obj 274 33 route note velocity sample overdrive filter bitcrush decay, f 147;
#X obj 1006 142 scale 0 1 0 24;
#X obj 1153 142 scale 0 1 10 500;
#X obj 713 142 scale 0 1 1 10;
#X obj 274 142 scale 0 127 1547 100;
#X obj 567 192 int;
#N canvas 84 138 958 1041 sampleWrite 0;
#X obj 91 255 soundfiler;
#X obj 295 227 array define \$0-x 48000;
#X msg 91 226 read resources/\$1 \$3-\$2, f 27;
#X obj 532 140 array define \$0-0 48000;
#X obj 532 170 array define \$0-1 48000;
#X obj 532 200 array define \$0-2 48000;
#X obj 532 230 array define \$0-3 48000;
#X obj 532 260 array define \$0-4 48000;
#X obj 532 290 array define \$0-5 48000;
#X obj 532 320 array define \$0-6 48000;
#X obj 532 350 array define \$0-7 48000;
#X obj 712 140 array define \$0-8 48000;
#X f 24;
#X obj 712 170 array define \$0-9 48000;
#X f 24;
#X obj 712 200 array define \$0-10 48000;
#X obj 712 230 array define \$0-11 48000;
#X obj 712 260 array define \$0-12 48000;
#X obj 712 290 array define \$0-13 48000;
#X obj 712 320 array define \$0-14 48000;
#X obj 712 350 array define \$0-15 48000;
#X obj 333 -32 loadbang;
#X obj 333 38 until;
#X obj 333 12 bng 19 250 50 0 empty empty empty 0 -10 0 12 #fcfcfc #000000 #000000;
#X obj 333 -10 del 1;
#X obj 91 189 pack s f \$0;
#X obj 91 154 text get samples;
#X obj 333 62 counter 0 15;
#X obj 333 86 sel 15;
#X connect 2 0 0 0;
#X connect 19 0 22 0;
#X connect 20 0 25 0;
#X connect 21 0 20 0;
#X connect 22 0 21 0;
#X connect 23 0 2 0;
#X connect 24 0 23 0;
#X connect 25 0 23 1;
#X connect 25 0 24 0;
#X connect 25 0 26 0;
#X connect 26 0 20 1;
#X restore 274 -16 pd sampleWrite;
#N canvas 0 0 992 1050 sampleSwitch 0;
#X obj 60 207 tabread4~ \$0-0;
#X obj 80 237 tabread4~ \$0-1;
#X obj 60 113 inlet;
#X obj 61 778 outlet~;
#X obj 365 113 inlet~;
#X obj 100 267 tabread4~ \$0-2;
#X obj 120 297 tabread4~ \$0-3;
#X obj 140 327 tabread4~ \$0-4;
#X obj 160 357 tabread4~ \$0-5;
#X obj 180 387 tabread4~ \$0-6;
#X obj 200 417 tabread4~ \$0-7;
#X obj 220 447 tabread4~ \$0-8;
#X obj 240 477 tabread4~ \$0-9;
#X obj 260 507 tabread4~ \$0-10;
#X obj 280 537 tabread4~ \$0-11;
#X obj 300 567 tabread4~ \$0-12;
#X obj 320 597 tabread4~ \$0-13;
#X obj 340 627 tabread4~ \$0-14;
#X obj 360 657 tabread4~ \$0-15;
#X obj 60 167 gate~ 16 1, f 44;
#X connect 0 0 3 0;
#X connect 1 0 3 0;
#X connect 2 0 19 0;
#X connect 4 0 19 1;
#X connect 5 0 3 0;
#X connect 6 0 3 0;
#X connect 7 0 3 0;
#X connect 8 0 3 0;
#X connect 9 0 3 0;
#X connect 10 0 3 0;
#X connect 11 0 3 0;
#X connect 12 0 3 0;
#X connect 13 0 3 0;
#X connect 14 0 3 0;
#X connect 15 0 3 0;
#X connect 16 0 3 0;
#X connect 17 0 3 0;
#X connect 18 0 3 0;
#X connect 19 0 0 0;
#X connect 19 1 1 0;
#X connect 19 2 5 0;
#X connect 19 3 6 0;
#X connect 19 4 7 0;
#X connect 19 5 8 0;
#X connect 19 6 9 0;
#X connect 19 7 10 0;
#X connect 19 8 11 0;
#X connect 19 9 12 0;
#X connect 19 10 13 0;
#X connect 19 11 14 0;
#X connect 19 12 15 0;
#X connect 19 13 16 0;
#X connect 19 14 17 0;
#X connect 19 15 18 0;
#X restore 274 383 pd sampleSwitch;
#X obj 501 494 pack s f;
#X obj 501 556 line~;
#X msg 501 527 1 \, 0 \$2;
#X obj 274 296 pack s f;
#X msg 274 321 \$2;
#X floatatom 274 346 5 0 0 0 - - - 0;
#X text 420 294 pitch \;;
#X text 159 323 sample number \;;
#X obj 375 225 loadbang;
#X msg 375 248 1000;
#X msg 1324 56 60 100 0 0.05 1 0 1;
#X obj 860 140 scale 0 1 0 15000;
#X obj 567 142 scale 0 1 1 16;
#X obj 183 148 inlet;
#X obj 474 617 outlet;
#X connect 0 0 28 1;
#X connect 1 0 5 0;
#X connect 1 0 29 0;
#X connect 1 0 32 0;
#X connect 2 0 18 0;
#X connect 3 0 8 0;
#X connect 4 0 0 0;
#X connect 5 0 4 0;
#X connect 6 0 2 0;
#X connect 7 0 21 0;
#X connect 8 0 6 0;
#X connect 10 1 20 0;
#X connect 10 2 41 0;
#X connect 10 3 24 0;
#X connect 10 4 40 0;
#X connect 10 5 22 0;
#X connect 10 6 23 0;
#X connect 11 0 26 0;
#X connect 12 0 3 1;
#X connect 13 0 8 1;
#X connect 14 0 6 1;
#X connect 15 0 29 1;
#X connect 17 0 39 0;
#X connect 18 0 9 0;
#X connect 19 0 18 1;
#X connect 20 0 19 0;
#X connect 21 0 25 0;
#X connect 21 1 20 0;
#X connect 21 2 41 0;
#X connect 21 3 24 0;
#X connect 21 4 40 0;
#X connect 21 5 22 0;
#X connect 21 6 23 0;
#X connect 22 0 14 0;
#X connect 23 0 15 0;
#X connect 24 0 12 0;
#X connect 25 0 5 0;
#X connect 25 0 1 0;
#X connect 26 0 32 1;
#X connect 26 0 43 0;
#X connect 28 0 3 0;
#X connect 29 0 31 0;
#X connect 30 0 2 1;
#X connect 31 0 30 0;
#X connect 32 0 33 0;
#X connect 33 0 34 0;
#X connect 34 0 28 0;
#X connect 37 0 38 0;
#X connect 38 0 5 0;
#X connect 39 0 10 0;
#X connect 40 0 13 0;
#X connect 41 0 11 0;
#X connect 42 0 1 0;
#X coords 0 980 1 979 460 300 0;
