#N canvas 0 0 1022 1041 12;
#X obj 249 492 line~;
#X obj 127 511 *~;
#X text 271 441 Amp Env;
#X obj 127 392 phasor~;
#X obj 127 421 cos~;
#X msg 173 369 1, f 4;
#X obj 126 549 overdrive~ 1, f 25;
#X obj 126 315 line~;
#X text 43 262 Pitch Env;
#X obj 127 347 +~;
#X text 34 392 Phase Synced;
#X obj 126 209 bng 15 250 50 0 empty empty empty 17 7 0 10 #fcfcfc #000000 #000000;
#X msg 126 287 \$2 \, 0 \$3;
#X msg 249 466 1 \, 0 \$2;
#X obj 126 183 inlet;
#X obj 126 260 pack f f f, f 19;
#X obj 249 414 pack f f;
#X obj 126 684 outlet~;
#X obj 299 240 unpack f f f f f;
#X msg 299 212 200 40 40 1000 2;
#X text 468 343 0 start freq \; time \; base \; decay \; od;
#X obj 299 182 loadbang;
#X obj 436 152 + 20;
#X obj 436 220 pack f f f f f, f 58;
#X obj 536 152 + 20;
#X obj 738 152 + 20;
#X obj 436 83 bng 15 250 50 0 empty empty empty 17 7 0 10 #fcfcfc #000000 #000000;
#X obj 436 51 inlet;
#X obj 536 127 random 100;
#X obj 637 127 random 15;
#X obj 637 152 + 40;
#X obj 839 152 + 1;
#X obj 839 127 random 9;
#X obj 126 584 svf~ 5000 0.4;
#X obj 436 127 random 475;
#X obj 738 127 random 800;
#X obj 126 619 hip~ 30;
#X obj 126 649 hip~ 30;
#X obj 643 381 inlet;
#X connect 0 0 1 1;
#X connect 1 0 6 0;
#X connect 3 0 4 0;
#X connect 4 0 1 0;
#X connect 5 0 3 1;
#X connect 6 0 33 0;
#X connect 7 0 9 0;
#X connect 9 0 3 0;
#X connect 11 0 5 0;
#X connect 11 0 15 0;
#X connect 11 0 16 0;
#X connect 12 0 7 0;
#X connect 13 0 0 0;
#X connect 14 0 11 0;
#X connect 15 0 12 0;
#X connect 16 0 13 0;
#X connect 18 0 15 1;
#X connect 18 1 15 2;
#X connect 18 2 9 1;
#X connect 18 3 16 1;
#X connect 18 4 6 1;
#X connect 19 0 18 0;
#X connect 21 0 19 0;
#X connect 22 0 23 0;
#X connect 23 0 18 0;
#X connect 24 0 23 1;
#X connect 25 0 23 3;
#X connect 26 0 28 0;
#X connect 26 0 29 0;
#X connect 26 0 32 0;
#X connect 26 0 34 0;
#X connect 26 0 35 0;
#X connect 27 0 26 0;
#X connect 28 0 24 0;
#X connect 29 0 30 0;
#X connect 30 0 23 2;
#X connect 31 0 23 4;
#X connect 32 0 31 0;
#X connect 33 0 36 0;
#X connect 34 0 22 0;
#X connect 35 0 25 0;
#X connect 36 0 37 0;
#X connect 37 0 17 0;
#X connect 38 0 6 1;
