#N canvas 423 0 1920 989 12;
#X obj 232 255 club, f 10;
#X obj 128 255 nature;
#X obj 378 254 meditate;
#X obj 16 255 ambient;
#X obj 177 334 dattorrostereo;
#X obj 128 623 z~ 64;
#X obj 128 647 *~;
#X obj 178 623 z~ 64;
#X obj 178 647 *~;
#X obj 127 733 dac~;
#X obj 226 654 hsl 162 19 0 127 0 0 empty empty empty -2 -10 0 12 #fcfcfc #000000 #000000 0 1;
#X obj 223 678 / 127;
#X obj 128 701 *~;
#X obj 178 701 *~;
#X obj 271 599 limiter~;
#X obj 371 599 limiter~;
#X obj 923 298 ctlin 16 2;
#X obj 933 431 s cutoff;
#X obj 923 322 / 127;
#X obj 1176 298 ctlin 17 2;
#X obj 1176 322 / 127;
#X obj 1738 322 / 127;
#X obj 1738 298 ctlin 22 2;
#X obj 1738 401 > 0.5;
#X obj 1738 431 change;
#X obj 1372 31 / 127;
#X obj 1595 31 / 127;
#X obj 1595 140 change;
#X obj 1595 110 > 0.3;
#X obj 1196 459 s delTimeRight;
#X obj 1335 433 s note1;
#X obj 923 407 s a_filter0;
#X obj 1056 208 s note2;
#X obj 1802 466 s trig1;
#X obj 1713 202 s trig2;
#X msg 1713 175 127;
#X obj 1464 298 ctlin 18 2;
#X obj 1464 322 / 127;
#X obj 1493 753 mrpeach/packOSC;
#X obj 1493 787 mrpeach/udpsend;
#X msg 1611 753 connect 127.0.0.1 9002;
#X msg 953 183 /s1_x_tilt \$1;
#X msg 1392 161 /s1_y_tilt \$1;
#X msg 1595 246 /s1_activity \$1;
#X obj 1056 183 scale 0 1 31 55;
#X obj 923 39 / 127;
#X msg 1631 777 connect 192.168.178.23 9000;
#X msg 953 476 /s2_x_tilt \$1;
#X msg 1206 505 /s2_y_tilt \$1;
#X msg 1464 431 /s2_z_tilt \$1;
#X msg 1738 493 /s2_activity \$1;
#N canvas 26 26 450 300 cpu 0;
#X obj 99 150 cputime;
#X obj 99 94 metro 1000;
#X obj 99 122 t b b;
#X obj 99 210 * 0.1;
#X obj 99 179 int;
#X obj 99 61 tgl 19 0 empty empty empty 17 7 0 10 #dfdfdf #000000 #000000 0 1;
#X text 123 61 <-- on/off;
#X obj 99 234 outlet;
#X obj 99 32 loadmess 1;
#X connect 0 0 4 0;
#X connect 1 0 2 0;
#X connect 2 0 0 0;
#X connect 2 1 0 1;
#X connect 3 0 7 0;
#X connect 4 0 3 0;
#X connect 5 0 1 0;
#X connect 8 0 5 0;
#X restore 480 654 pd cpu;
#X floatatom 480 678 5 0 0 0 - - - 24;
#X obj 923 65 spigot;
#X obj 975 65 tgl 19 0 empty empty empty 0 -10 0 12 #fcfcfc #000000 #000000 0 1;
#X obj 1372 55 spigot;
#X obj 1424 55 tgl 19 0 empty empty empty 0 -10 0 12 #fcfcfc #000000 #000000 0 1;
#X obj 78 85 vsl 19 162 0 127 0 0 empty empty empty 0 -9 0 12 #fcfcfc #000000 #000000 0 1;
#X obj 15 288 *~, f 5;
#X obj 78 255 / 127;
#X obj 447 83 vsl 19 162 0 127 0 0 empty empty empty 0 -9 0 12 #fcfcfc #000000 #000000 0 1;
#X obj 379 289 *~;
#X obj 447 253 / 127;
#X obj 316 83 vsl 19 162 0 127 0 0 empty empty empty 0 -9 0 12 #fcfcfc #000000 #000000 0 1;
#X obj 316 253 / 127;
#X obj 233 288 *~;
#X obj 266 289 *~;
#X obj 182 87 vsl 19 162 0 127 0 0 empty empty empty 0 -9 0 12 #fcfcfc #000000 #000000 0 1;
#X obj 129 288 *~;
#X obj 182 255 / 127;
#X obj 1595 55 spigot;
#X obj 1646 55 tgl 19 0 empty empty empty 0 -10 0 12 #fcfcfc #000000 #000000 0 1;
#X obj 923 346 spigot;
#X obj 1335 409 scale 0 1 31 55;
#X obj 1176 346 spigot;
#X obj 1464 346 spigot;
#X obj 1225 346 tgl 19 0 empty empty empty 0 -10 0 12 #fcfcfc #000000 #000000 0 1;
#X obj 972 346 tgl 19 0 empty empty empty 0 -10 0 12 #fcfcfc #000000 #000000 0 1;
#X obj 1514 346 tgl 19 0 empty empty empty 0 -10 0 12 #fcfcfc #000000 #000000 0 1;
#X obj 1738 346 spigot;
#X obj 1787 346 tgl 19 0 empty empty empty 0 -10 0 12 #fcfcfc #000000 #000000 0 1;
#X obj 824 7 cnv 19 90 20 empty empty SENSOR\ 1 20 12 0 12 #e3c6ff #404040 0;
#X obj 824 298 cnv 19 90 20 empty empty SENSOR\ 2 20 12 0 12 #c6ffc7 #404040 0;
#X obj 1569 722 cnv 19 90 20 empty empty OSC 20 12 0 12 #c6feff #404040 0;
#X obj 195 732 cnv 19 90 20 empty empty MAIN 20 12 0 12 #ffc7c6 #404040 0;
#X obj 515 254 x808;
#X obj 514 289 *~;
#X obj 551 83 vsl 19 162 0 127 0 0 empty empty empty 0 -9 0 12 #fcfcfc #000000 #000000 0 1;
#X obj 551 253 / 127;
#X text 581 654 1 ambient \; 2 wind \; 3 club \; 4 meditate & 808 \;;
#X obj 1789 431 bng 25 250 50 0 empty empty empty 0 -10 0 12 #fcfcfc #000000 #000000;
#X obj 1649 140 bng 25 250 50 0 empty empty empty 0 -10 0 12 #fcfcfc #000000 #000000;
#X obj 923 114 s n_changeSample0;
#X obj 1186 433 s n_midWindFrequency;
#X obj 943 454 s n_baseWind;
#X obj 933 137 s x_sample0;
#X obj 923 386 s c_synthLeadFilter;
#X obj 1372 116 s c_synthLeadQ;
#X obj 1382 139 s x_bitcrush0;
#X obj 1595 180 s m_gongTrig;
#X obj 1595 202 s n_trigSample0;
#X obj 1595 224 s x_trig0;
#X obj 1176 409 s a_chorusLfoSpeed;
#X obj 1206 483 s m_drive;
#X obj 1464 409 s n_midWindQ;
#X obj 1669 473 s m_next;
#X obj 887 772 r club_kick;
#X floatatom 887 796 5 0 0 0 - - - 0;
#X floatatom 1007 796 5 0 0 0 - - - 0;
#X obj 1007 772 r club_clap;
#X floatatom 1137 796 5 0 0 0 - - - 0;
#X obj 1137 772 r club_hatA;
#X floatatom 1257 796 5 0 0 0 - - - 0;
#X obj 1257 772 r club_hatB;
#X obj 887 819 sel 1;
#X obj 1007 819 sel 1;
#X obj 1137 818 sel 1;
#X obj 1257 818 sel 1;
#X msg 887 890 /club_kick \$1;
#X msg 1007 890 /club_clap \$1;
#X msg 1137 890 /club_hatA \$1;
#X msg 1257 889 /club_hatB \$1;
#X obj 887 671 r x808_index;
#X floatatom 887 695 5 0 0 0 - - - 0;
#X msg 887 718 /x808_index \$1;
#X msg 1000 718 /x808_trig0 \$1;
#X text 803 671 808 trigs \;;
#X text 796 772 club trigs \;;
#X obj 159 834 / 127;
#X obj 412 834 / 127;
#X obj 624 834 / 127;
#X obj 159 858 spigot;
#X obj 412 858 spigot;
#X obj 461 858 tgl 19 0 empty empty empty 0 -10 0 12 #fcfcfc #000000 #000000 0 1;
#X obj 208 858 tgl 19 0 empty empty empty 0 -10 0 12 #fcfcfc #000000 #000000 0 1;
#X obj 624 955 s n_trigSample1;
#X obj 624 884 change;
#X obj 412 916 s n_changeSample1;
#X obj 624 809 ctlin 22 3;
#X obj 412 809 ctlin 17 3;
#X obj 159 810 ctlin 16 3;
#X obj 159 920 s x_sample2;
#X obj 736 954 s x_trig1;
#X obj 412 890 s x_delWet;
#X obj 624 860 > 0.3;
#X obj 624 912 sel 1;
#X obj 412 939 s delTimeLeft;
#X obj 168 897 s c_synthNote;
#X msg 735 931 /s3_activity \$1;
#X msg 168 942 /s3_x_tilt \$1;
#X msg 412 963 /s3_y_tilt \$1;
#X obj 599 448 ctlin;
#X obj 78 50 ctlin 0 23;
#X obj 182 49 ctlin 1 23;
#X obj 316 49 ctlin 2 23;
#X obj 447 49 ctlin 3 23;
#X obj 551 48 ctlin 4 23;
#X obj 392 654 ctlin 7 23;
#X obj 1108 31 ctlin 43 23;
#X obj 1030 321 ctlin 44 23;
#X floatatom 266 857 5 0 0 0 - - - 0;
#X obj 266 833 ctlin 42 23;
#X obj 1116 671 r m_noteIndex;
#X floatatom 1116 695 5 0 0 0 - - - 0;
#X msg 1116 718 /m_noteIndex \$1;
#X obj 599 487 pack f f f;
#X obj 598 549 unpack f f f;
#X floatatom 598 573 5 0 0 0 - - - 0;
#X floatatom 638 573 5 0 0 0 - - - 0;
#X floatatom 679 573 5 0 0 0 - - - 0;
#X obj 599 526 spigot;
#X obj 649 526 tgl 19 0 empty empty empty 0 -10 0 12 #fcfcfc #000000 #000000 0 1;
#X obj 1669 455 change;
#X obj 1669 431 > 0.99;
#X obj 701 172 spigot;
#X obj 761 111 ctlin 16 3;
#X obj 731 85 ctlin 16 2;
#X obj 701 204 unpack f f f;
#X floatatom 701 228 5 0 0 0 - - - 0;
#X floatatom 741 228 5 0 0 0 - - - 0;
#X floatatom 782 228 5 0 0 0 - - - 0;
#X obj 752 172 tgl 19 0 empty empty empty 0 -10 0 12 #fcfcfc #000000 #000000 0 1;
#X obj 701 61 ctlin 16 4;
#X obj 701 143 pak f f f;
#X obj 923 7 ctlin 16 4;
#X obj 1372 7 ctlin 17 4;
#X obj 1595 7 ctlin 22 4;
#X obj 642 348 line;
#X floatatom 642 372 5 0 0 0 - - - 0;
#X msg 642 325 1 \, 0 30000;
#X text 704 450 a: 1 1/2 min \; n: 1 1/2 min \; c: 1 1/2min \; m: 2 min \;;
#X connect 0 0 65 0;
#X connect 0 1 66 0;
#X connect 1 0 68 0;
#X connect 2 0 61 0;
#X connect 3 0 58 0;
#X connect 4 0 5 0;
#X connect 4 0 14 0;
#X connect 4 1 7 0;
#X connect 4 1 15 0;
#X connect 5 0 6 0;
#X connect 6 0 12 0;
#X connect 7 0 8 0;
#X connect 8 0 13 0;
#X connect 10 0 11 0;
#X connect 11 0 12 1;
#X connect 11 0 13 1;
#X connect 12 0 9 0;
#X connect 13 0 9 1;
#X connect 14 0 6 1;
#X connect 15 0 8 1;
#X connect 16 0 18 0;
#X connect 18 0 72 0;
#X connect 19 0 20 0;
#X connect 20 0 74 0;
#X connect 21 0 79 0;
#X connect 22 0 21 0;
#X connect 23 0 24 0;
#X connect 24 0 33 0;
#X connect 24 0 50 0;
#X connect 24 0 90 0;
#X connect 25 0 55 0;
#X connect 26 0 70 0;
#X connect 27 0 35 0;
#X connect 27 0 43 0;
#X connect 27 0 91 0;
#X connect 27 0 99 0;
#X connect 27 0 100 0;
#X connect 27 0 101 0;
#X connect 27 0 125 0;
#X connect 28 0 27 0;
#X connect 35 0 34 0;
#X connect 36 0 37 0;
#X connect 37 0 75 0;
#X connect 38 0 39 0;
#X connect 40 0 39 0;
#X connect 41 0 38 0;
#X connect 42 0 38 0;
#X connect 43 0 38 0;
#X connect 44 0 32 0;
#X connect 45 0 53 0;
#X connect 46 0 39 0;
#X connect 47 0 38 0;
#X connect 48 0 38 0;
#X connect 49 0 38 0;
#X connect 50 0 38 0;
#X connect 51 0 52 0;
#X connect 53 0 92 0;
#X connect 53 0 95 0;
#X connect 53 0 41 0;
#X connect 53 0 44 0;
#X connect 54 0 53 1;
#X connect 55 0 97 0;
#X connect 55 0 98 0;
#X connect 55 0 42 0;
#X connect 56 0 55 1;
#X connect 57 0 59 0;
#X connect 58 0 4 0;
#X connect 59 0 58 1;
#X connect 60 0 62 0;
#X connect 61 0 4 0;
#X connect 62 0 61 1;
#X connect 63 0 64 0;
#X connect 64 0 66 1;
#X connect 64 0 65 1;
#X connect 65 0 5 0;
#X connect 65 0 14 0;
#X connect 66 0 7 0;
#X connect 66 0 15 0;
#X connect 67 0 69 0;
#X connect 68 0 5 0;
#X connect 68 0 7 0;
#X connect 68 0 14 0;
#X connect 68 0 15 0;
#X connect 69 0 68 1;
#X connect 70 0 28 0;
#X connect 71 0 70 1;
#X connect 72 0 31 0;
#X connect 72 0 17 0;
#X connect 72 0 94 0;
#X connect 72 0 47 0;
#X connect 72 0 96 0;
#X connect 73 0 30 0;
#X connect 74 0 102 0;
#X connect 74 0 93 0;
#X connect 74 0 29 0;
#X connect 74 0 103 0;
#X connect 74 0 73 0;
#X connect 75 0 104 0;
#X connect 76 0 74 1;
#X connect 77 0 72 1;
#X connect 78 0 75 1;
#X connect 79 0 23 0;
#X connect 79 0 173 0;
#X connect 80 0 79 1;
#X connect 85 0 86 0;
#X connect 86 0 14 0;
#X connect 86 0 15 0;
#X connect 86 0 7 0;
#X connect 86 0 5 0;
#X connect 87 0 88 0;
#X connect 88 0 86 1;
#X connect 106 0 107 0;
#X connect 107 0 114 0;
#X connect 107 0 118 0;
#X connect 108 0 115 0;
#X connect 108 0 119 0;
#X connect 109 0 108 0;
#X connect 110 0 116 0;
#X connect 110 0 120 0;
#X connect 111 0 110 0;
#X connect 112 0 117 0;
#X connect 112 0 121 0;
#X connect 113 0 112 0;
#X connect 118 0 38 0;
#X connect 119 0 38 0;
#X connect 120 0 38 0;
#X connect 121 0 38 0;
#X connect 122 0 123 0;
#X connect 123 0 124 0;
#X connect 124 0 38 0;
#X connect 125 0 38 0;
#X connect 128 0 131 0;
#X connect 129 0 132 0;
#X connect 130 0 144 0;
#X connect 130 0 135 0;
#X connect 131 0 141 0;
#X connect 131 0 149 0;
#X connect 132 0 137 0;
#X connect 132 0 143 0;
#X connect 132 0 146 0;
#X connect 132 0 150 0;
#X connect 133 0 132 1;
#X connect 134 0 131 1;
#X connect 136 0 145 0;
#X connect 136 0 148 0;
#X connect 138 0 130 0;
#X connect 139 0 129 0;
#X connect 140 0 128 0;
#X connect 140 0 147 0;
#X connect 144 0 136 0;
#X connect 145 0 142 0;
#X connect 148 0 38 0;
#X connect 149 0 38 0;
#X connect 150 0 38 0;
#X connect 151 0 165 0;
#X connect 151 1 165 1;
#X connect 151 2 165 2;
#X connect 152 0 57 0;
#X connect 153 0 67 0;
#X connect 154 0 63 0;
#X connect 155 0 60 0;
#X connect 156 0 87 0;
#X connect 157 0 10 0;
#X connect 158 0 54 0;
#X connect 158 0 56 0;
#X connect 158 0 71 0;
#X connect 159 0 77 0;
#X connect 159 0 76 0;
#X connect 159 0 78 0;
#X connect 159 0 80 0;
#X connect 161 0 134 0;
#X connect 161 0 133 0;
#X connect 161 0 160 0;
#X connect 162 0 163 0;
#X connect 163 0 164 0;
#X connect 164 0 38 0;
#X connect 165 0 170 0;
#X connect 166 0 167 0;
#X connect 166 1 168 0;
#X connect 166 2 169 0;
#X connect 170 0 166 0;
#X connect 171 0 170 1;
#X connect 172 0 105 0;
#X connect 173 0 172 0;
#X connect 174 0 177 0;
#X connect 175 0 183 2;
#X connect 176 0 183 1;
#X connect 177 0 178 0;
#X connect 177 1 179 0;
#X connect 177 2 180 0;
#X connect 181 0 174 1;
#X connect 182 0 183 0;
#X connect 183 0 174 0;
#X connect 184 0 45 0;
#X connect 185 0 25 0;
#X connect 186 0 26 0;
#X connect 187 0 188 0;
#X connect 188 0 66 1;
#X connect 188 0 65 1;
#X connect 189 0 187 0;
