#N canvas 10 55 1229 1013 12;
#X obj 159 376 dac~ 1 2 3 4 5 6 7 8 9 10;
#X text 344 356 last channel: subwoofer;
#X obj 159 346 crossover9.1~, f 22;
#X obj 159 312 dampcorrect9~, f 22;
#X obj 159 278 delaycorrect9~, f 22;
#X text 555 110 correction only;
#X obj 159 154 adc~ 1;
#X obj 209 154 adc~ 2;
#X obj 309 154 adc~ 4;
#X obj 259 154 adc~ 3;
#X obj 359 154 adc~ 5;
#X obj 409 154 adc~ 6;
#X obj 459 154 adc~ 7;
#X obj 509 154 adc~ 8;
#X obj 559 154 adc~ 9;
#X connect 2 0 0 0;
#X connect 2 1 0 1;
#X connect 2 2 0 2;
#X connect 2 3 0 3;
#X connect 2 4 0 4;
#X connect 2 5 0 5;
#X connect 2 6 0 6;
#X connect 2 7 0 7;
#X connect 2 8 0 8;
#X connect 2 9 0 9;
#X connect 3 0 2 0;
#X connect 3 1 2 1;
#X connect 3 2 2 2;
#X connect 3 3 2 3;
#X connect 3 4 2 4;
#X connect 3 5 2 5;
#X connect 3 6 2 6;
#X connect 3 7 2 7;
#X connect 3 8 2 8;
#X connect 4 0 3 0;
#X connect 4 1 3 1;
#X connect 4 2 3 2;
#X connect 4 3 3 3;
#X connect 4 4 3 4;
#X connect 4 5 3 5;
#X connect 4 6 3 6;
#X connect 4 7 3 7;
#X connect 4 8 3 8;
#X connect 6 0 4 0;
#X connect 7 0 4 1;
#X connect 8 0 4 3;
#X connect 9 0 4 2;
#X connect 10 0 4 4;
#X connect 11 0 4 5;
#X connect 12 0 4 6;
#X connect 13 0 4 7;
#X connect 14 0 4 8;
