#N canvas 0 28 1073 1050 12;
#X text 11 11 Crossover Basics: https://blog.fluance.com/set-phase-crossover-frequency-on-subwoofer/
, f 96;
#X obj 30 297 inlet~;
#X obj 291 83 vsl 15 128 0 1 0 1 empty empty level_low 0 -9 0 10 -262144
-1 -1 15800 1;
#X obj 399 82 vsl 15 128 0 1 0 1 empty empty level_high 0 -9 0 10 -262144
-1 -1 25400 1;
#X floatatom 291 219 5 0 0 0 - - -;
#X floatatom 399 218 5 0 0 0 - - -;
#X obj 33 434 outlet~;
#X obj 107 297 inlet~;
#X obj 110 434 outlet~;
#X obj 184 297 inlet~;
#X obj 187 434 outlet~;
#X obj 261 297 inlet~;
#X obj 264 434 outlet~;
#X obj 339 297 inlet~;
#X obj 342 434 outlet~;
#X obj 416 297 inlet~;
#X obj 419 434 outlet~;
#X obj 493 297 inlet~;
#X obj 496 434 outlet~;
#X obj 570 297 inlet~;
#X obj 573 434 outlet~;
#X obj 648 297 inlet~;
#X obj 651 434 outlet~;
#X obj 816 435 outlet~;
#X obj 167 468 env~;
#X floatatom 167 493 5 0 0 0 - - -;
#X obj 244 468 env~;
#X floatatom 244 493 5 0 0 0 - - -;
#X obj 321 468 env~;
#X floatatom 321 493 5 0 0 0 - - -;
#X obj 399 468 env~;
#X floatatom 399 493 5 0 0 0 - - -;
#X obj 476 468 env~;
#X floatatom 476 493 5 0 0 0 - - -;
#X obj 553 468 env~;
#X floatatom 553 493 5 0 0 0 - - -;
#X obj 630 468 env~;
#X floatatom 630 493 5 0 0 0 - - -;
#X obj 876 435 env~;
#X floatatom 876 460 5 0 0 0 - - -;
#X obj 709 468 env~;
#X floatatom 709 493 5 0 0 0 - - -;
#X obj 30 322 freqsplit;
#X obj 107 322 freqsplit;
#X obj 184 322 freqsplit;
#X obj 261 322 freqsplit;
#X obj 339 322 freqsplit;
#X obj 416 322 freqsplit;
#X obj 493 322 freqsplit;
#X obj 570 322 freqsplit;
#X obj 648 322 freqsplit;
#X obj 90 468 env~;
#X floatatom 90 493 5 0 0 0 - - -;
#X obj 770 13 cpole~;
#X connect 1 0 42 0;
#X connect 2 0 4 0;
#X connect 3 0 5 0;
#X connect 4 0 42 1;
#X connect 4 0 48 1;
#X connect 4 0 43 1;
#X connect 4 0 44 1;
#X connect 4 0 45 1;
#X connect 4 0 46 1;
#X connect 4 0 47 1;
#X connect 4 0 49 1;
#X connect 4 0 50 1;
#X connect 5 0 42 2;
#X connect 5 0 48 2;
#X connect 5 0 43 2;
#X connect 5 0 44 2;
#X connect 5 0 45 2;
#X connect 5 0 46 2;
#X connect 5 0 47 2;
#X connect 5 0 49 2;
#X connect 5 0 50 2;
#X connect 7 0 43 0;
#X connect 9 0 44 0;
#X connect 11 0 45 0;
#X connect 13 0 46 0;
#X connect 15 0 47 0;
#X connect 17 0 48 0;
#X connect 19 0 49 0;
#X connect 21 0 50 0;
#X connect 24 0 25 0;
#X connect 26 0 27 0;
#X connect 28 0 29 0;
#X connect 30 0 31 0;
#X connect 32 0 33 0;
#X connect 34 0 35 0;
#X connect 36 0 37 0;
#X connect 38 0 39 0;
#X connect 40 0 41 0;
#X connect 42 0 23 0;
#X connect 42 0 38 0;
#X connect 42 1 6 0;
#X connect 42 1 51 0;
#X connect 43 0 23 0;
#X connect 43 0 38 0;
#X connect 43 1 8 0;
#X connect 43 1 24 0;
#X connect 44 0 23 0;
#X connect 44 0 38 0;
#X connect 44 1 10 0;
#X connect 44 1 26 0;
#X connect 45 0 23 0;
#X connect 45 0 38 0;
#X connect 45 1 12 0;
#X connect 45 1 28 0;
#X connect 46 0 23 0;
#X connect 46 0 38 0;
#X connect 46 1 14 0;
#X connect 46 1 30 0;
#X connect 47 0 23 0;
#X connect 47 0 38 0;
#X connect 47 1 16 0;
#X connect 47 1 32 0;
#X connect 48 0 23 0;
#X connect 48 0 38 0;
#X connect 48 1 18 0;
#X connect 48 1 34 0;
#X connect 49 0 23 0;
#X connect 49 0 38 0;
#X connect 49 1 20 0;
#X connect 49 1 36 0;
#X connect 50 0 23 0;
#X connect 50 0 38 0;
#X connect 50 1 22 0;
#X connect 50 1 40 0;
#X connect 51 0 52 0;
