#N canvas 0 28 1073 1050 12;
#X obj 228 478 inlet~;
#X obj 306 478 inlet~;
#X obj 384 478 inlet~;
#X obj 228 615 outlet~;
#X obj 306 615 outlet~;
#X obj 384 615 outlet~;
#X obj 321 504 env~;
#X floatatom 321 527 5 0 0 0 - - -;
#X obj 399 505 env~;
#X floatatom 399 527 5 0 0 0 - - -;
#X obj 244 504 env~;
#X floatatom 244 527 5 0 0 0 - - -;
#X obj 412 194 loadbang;
#X obj 342 246 initpan9;
#X obj 488 282 unpack 1 2 3 4 5 6 7 8 9;
#X obj 342 280 maxdist;
#X obj 342 142 env~;
#X obj 342 168 > 0;
#X obj 342 194 sel 1;
#X obj 342 220 cyclone/onebang 1;
#X obj 306 573 dampcalc~;
#X obj 384 573 dampcalc~;
#X obj 462 478 inlet~;
#X obj 540 478 inlet~;
#X obj 618 478 inlet~;
#X obj 462 615 outlet~;
#X obj 540 615 outlet~;
#X obj 618 615 outlet~;
#X obj 555 504 env~;
#X floatatom 555 527 5 0 0 0 - - -;
#X obj 633 505 env~;
#X floatatom 633 527 5 0 0 0 - - -;
#X obj 478 504 env~;
#X floatatom 478 527 5 0 0 0 - - -;
#X obj 462 573 dampcalc~;
#X obj 540 573 dampcalc~;
#X obj 618 573 dampcalc~;
#X obj 697 478 inlet~;
#X obj 775 478 inlet~;
#X obj 853 478 inlet~;
#X obj 697 615 outlet~;
#X obj 775 615 outlet~;
#X obj 853 615 outlet~;
#X obj 790 504 env~;
#X floatatom 790 527 5 0 0 0 - - -;
#X obj 868 505 env~;
#X floatatom 868 527 5 0 0 0 - - -;
#X obj 713 504 env~;
#X floatatom 713 527 5 0 0 0 - - -;
#X obj 697 573 dampcalc~;
#X obj 775 573 dampcalc~;
#X obj 853 573 dampcalc~;
#X obj 321 641 env~;
#X floatatom 321 664 5 0 0 0 - - -;
#X obj 399 642 env~;
#X floatatom 399 664 5 0 0 0 - - -;
#X obj 244 641 env~;
#X floatatom 244 664 5 0 0 0 - - -;
#X obj 555 641 env~;
#X floatatom 555 664 5 0 0 0 - - -;
#X obj 633 642 env~;
#X floatatom 633 664 5 0 0 0 - - -;
#X obj 478 641 env~;
#X floatatom 478 664 5 0 0 0 - - -;
#X obj 790 641 env~;
#X floatatom 790 664 5 0 0 0 - - -;
#X obj 868 642 env~;
#X floatatom 868 664 5 0 0 0 - - -;
#X obj 713 641 env~;
#X floatatom 713 664 5 0 0 0 - - -;
#X msg 481 193 bang;
#X obj 228 573 dampcalc~;
#X connect 0 0 10 0;
#X connect 0 0 71 0;
#X connect 1 0 6 0;
#X connect 1 0 20 0;
#X connect 2 0 8 0;
#X connect 2 0 21 0;
#X connect 6 0 7 0;
#X connect 8 0 9 0;
#X connect 10 0 11 0;
#X connect 12 0 13 0;
#X connect 13 1 14 0;
#X connect 13 1 15 0;
#X connect 14 0 71 1;
#X connect 14 1 20 1;
#X connect 14 2 21 1;
#X connect 14 3 34 1;
#X connect 14 4 35 1;
#X connect 14 5 36 1;
#X connect 14 6 49 1;
#X connect 14 7 50 1;
#X connect 14 8 51 1;
#X connect 15 0 71 2;
#X connect 15 0 20 2;
#X connect 15 0 21 2;
#X connect 15 0 34 2;
#X connect 15 0 35 2;
#X connect 15 0 36 2;
#X connect 15 0 49 2;
#X connect 15 0 50 2;
#X connect 15 0 51 2;
#X connect 16 0 17 0;
#X connect 17 0 18 0;
#X connect 18 0 19 0;
#X connect 19 0 13 0;
#X connect 20 0 4 0;
#X connect 20 0 52 0;
#X connect 21 0 5 0;
#X connect 21 0 54 0;
#X connect 22 0 32 0;
#X connect 22 0 34 0;
#X connect 23 0 28 0;
#X connect 23 0 35 0;
#X connect 24 0 30 0;
#X connect 24 0 36 0;
#X connect 28 0 29 0;
#X connect 30 0 31 0;
#X connect 32 0 33 0;
#X connect 34 0 25 0;
#X connect 34 0 62 0;
#X connect 35 0 26 0;
#X connect 35 0 58 0;
#X connect 36 0 27 0;
#X connect 36 0 60 0;
#X connect 37 0 47 0;
#X connect 37 0 49 0;
#X connect 38 0 43 0;
#X connect 38 0 50 0;
#X connect 39 0 45 0;
#X connect 39 0 51 0;
#X connect 43 0 44 0;
#X connect 45 0 46 0;
#X connect 47 0 48 0;
#X connect 49 0 40 0;
#X connect 49 0 68 0;
#X connect 50 0 41 0;
#X connect 50 0 64 0;
#X connect 51 0 42 0;
#X connect 51 0 66 0;
#X connect 52 0 53 0;
#X connect 54 0 55 0;
#X connect 56 0 57 0;
#X connect 58 0 59 0;
#X connect 60 0 61 0;
#X connect 62 0 63 0;
#X connect 64 0 65 0;
#X connect 66 0 67 0;
#X connect 68 0 69 0;
#X connect 70 0 13 0;
#X connect 71 0 3 0;
#X connect 71 0 56 0;
