#N canvas 0 28 1073 1050 12;
#X floatatom 132 133 5 0 0 0 - - -;
#X obj 55 39 inlet~;
#X obj 55 368 outlet~;
#X obj 55 341 *~;
#X obj 132 39 inlet;
#X obj 283 39 inlet;
#X floatatom 132 62 5 0 0 0 - - -;
#X floatatom 283 64 5 0 0 0 - - -;
#X obj 132 182 t b f;
#X msg 132 204 100;
#X obj 132 248 dbtorms;
#X floatatom 132 270 5 0 0 0 - - -;
#X obj 132 226 -;
#X obj 132 112 expr 20*log10($f2/$f1);
#X text 208 224 change Volume dB: https://forum.pdpatchrepo.info/topic/9980/volume-control-db/11
;
#X text 305 114 formel: http://www.sengpielaudio.com/Rechner-entfernung.htm
;
#X connect 0 0 8 0;
#X connect 1 0 3 0;
#X connect 3 0 2 0;
#X connect 4 0 6 0;
#X connect 5 0 7 0;
#X connect 6 0 13 0;
#X connect 7 0 13 1;
#X connect 8 0 9 0;
#X connect 8 1 12 1;
#X connect 9 0 12 0;
#X connect 10 0 3 1;
#X connect 10 0 11 0;
#X connect 12 0 10 0;
#X connect 13 0 0 0;
