#N canvas 0 28 958 1050 12;
#X obj 233 187 inlet;
#X obj 251 234 inlet;
#X obj 233 288 -;
#X floatatom 233 210 5 0 0 0 - - -;
#X floatatom 251 257 5 0 0 0 - - -;
#X obj 233 311 / 100;
#X obj 233 334 / 343;
#X floatatom 233 357 5 0 0 0 - - -;
#X obj 233 379 * 44100;
#X obj 233 402 outlet;
#X text 178 357 delay/s;
#X text 164 334 343.5 m/s;
#X text 289 380 samplerate;
#X connect 0 0 3 0;
#X connect 1 0 4 0;
#X connect 2 0 5 0;
#X connect 3 0 2 0;
#X connect 4 0 2 1;
#X connect 5 0 6 0;
#X connect 6 0 7 0;
#X connect 7 0 8 0;
#X connect 8 0 9 0;
