#N canvas 0 28 1920 1052 12;
#X obj 32 496 inlet~;
#X obj 32 545 outlet~;
#X obj 321 31 loadbang;
#X obj 145 149 initpan9;
#X obj 216 177 unpack 1 2 3 4 5 6 7 8 9;
#X obj 32 521 cyclone/delay~;
#X obj 145 176 maxdist;
#X obj 204 496 inlet~;
#X obj 204 545 outlet~;
#X obj 204 521 cyclone/delay~;
#X obj 377 496 inlet~;
#X obj 377 545 outlet~;
#X obj 377 521 cyclone/delay~;
#X obj 549 496 inlet~;
#X obj 549 545 outlet~;
#X obj 549 521 cyclone/delay~;
#X obj 725 494 inlet~;
#X obj 725 543 outlet~;
#X obj 725 519 cyclone/delay~;
#X obj 897 494 inlet~;
#X obj 897 543 outlet~;
#X obj 897 519 cyclone/delay~;
#X obj 1070 494 inlet~;
#X obj 1070 543 outlet~;
#X obj 1070 519 cyclone/delay~;
#X obj 1242 494 inlet~;
#X obj 1242 543 outlet~;
#X obj 1242 519 cyclone/delay~;
#X obj 1414 493 inlet~;
#X obj 1414 542 outlet~;
#X obj 1414 518 cyclone/delay~;
#X obj 145 49 env~;
#X obj 145 74 > 0;
#X obj 145 99 sel 1;
#X obj 145 124 cyclone/onebang 1;
#X obj 54 572 env~;
#X floatatom 54 597 5 0 0 0 - - -;
#X obj 225 571 env~;
#X floatatom 225 596 5 0 0 0 - - -;
#X obj 399 571 env~;
#X floatatom 399 596 5 0 0 0 - - -;
#X obj 571 571 env~;
#X floatatom 571 596 5 0 0 0 - - -;
#X obj 747 569 env~;
#X floatatom 747 594 5 0 0 0 - - -;
#X obj 918 569 env~;
#X floatatom 918 594 5 0 0 0 - - -;
#X obj 1091 569 env~;
#X floatatom 1091 594 5 0 0 0 - - -;
#X obj 1264 568 env~;
#X floatatom 1264 593 5 0 0 0 - - -;
#X obj 1437 567 env~;
#X floatatom 1437 592 5 0 0 0 - - -;
#X obj 86 496 delaycalc;
#X obj 258 496 delaycalc;
#X obj 432 496 delaycalc;
#X obj 603 496 delaycalc;
#X obj 779 494 delaycalc;
#X obj 951 494 delaycalc;
#X obj 1124 494 delaycalc;
#X obj 1296 494 delaycalc;
#X obj 1468 493 delaycalc;
#X connect 0 0 5 0;
#X connect 0 0 31 0;
#X connect 2 0 3 0;
#X connect 3 1 4 0;
#X connect 3 1 6 0;
#X connect 4 0 53 1;
#X connect 4 1 54 1;
#X connect 4 2 55 1;
#X connect 4 3 56 1;
#X connect 4 4 57 1;
#X connect 4 5 58 1;
#X connect 4 6 59 1;
#X connect 4 7 60 1;
#X connect 4 8 61 1;
#X connect 5 0 1 0;
#X connect 5 0 35 0;
#X connect 6 0 53 0;
#X connect 6 0 54 0;
#X connect 6 0 55 0;
#X connect 6 0 56 0;
#X connect 6 0 57 0;
#X connect 6 0 58 0;
#X connect 6 0 59 0;
#X connect 6 0 60 0;
#X connect 6 0 61 0;
#X connect 7 0 9 0;
#X connect 9 0 8 0;
#X connect 9 0 37 0;
#X connect 10 0 12 0;
#X connect 12 0 11 0;
#X connect 12 0 39 0;
#X connect 13 0 15 0;
#X connect 15 0 14 0;
#X connect 15 0 41 0;
#X connect 16 0 18 0;
#X connect 18 0 17 0;
#X connect 18 0 43 0;
#X connect 19 0 21 0;
#X connect 21 0 20 0;
#X connect 21 0 45 0;
#X connect 22 0 24 0;
#X connect 24 0 23 0;
#X connect 24 0 47 0;
#X connect 25 0 27 0;
#X connect 27 0 26 0;
#X connect 27 0 49 0;
#X connect 28 0 30 0;
#X connect 30 0 29 0;
#X connect 30 0 51 0;
#X connect 31 0 32 0;
#X connect 32 0 33 0;
#X connect 33 0 34 0;
#X connect 34 0 3 0;
#X connect 35 0 36 0;
#X connect 37 0 38 0;
#X connect 39 0 40 0;
#X connect 41 0 42 0;
#X connect 43 0 44 0;
#X connect 45 0 46 0;
#X connect 47 0 48 0;
#X connect 49 0 50 0;
#X connect 51 0 52 0;
#X connect 53 0 5 1;
#X connect 54 0 9 1;
#X connect 55 0 12 1;
#X connect 56 0 15 1;
#X connect 57 0 18 1;
#X connect 58 0 21 1;
#X connect 59 0 24 1;
#X connect 60 0 27 1;
#X connect 61 0 30 1;
