#N canvas 0 45 1920 1035 12;
#X obj 287 335 *~, f 5;
#X obj 155 250 inlet~;
#X obj 241 246 inlet;
#X obj 369 241 inlet;
#X obj 156 336 *~, f 5;
#X obj 156 361 outlet~;
#X obj 287 360 outlet~;
#X msg 275 76 85;
#X obj 275 49 loadbang;
#X obj 503 285 iemlib/lp10_butt~;
#X text 638 277 Selection lowpass: https://forum.pdpatchrepo.info/topic/5819/can-pure-data-solve-my-problem/5
, f 75;
#X text 500 264 alternativ:;
#X text 310 76 split frequency: see subwoofer manual;
#X obj 209 150 f;
#X obj 342 149 f;
#X text 373 124 overlap;
#X obj 504 312 iemlib/hp10_bess~;
#X obj 504 340 iemlib/hp10_cheb~;
#X obj 504 365 cyclone/svf~;
#X obj 209 125 + 5;
#X obj 342 124 - 5;
#X obj 155 284 iemlib/lp10_butt~;
#X obj 288 283 iemlib/hp10_butt~;
#X msg 504 131 200;
#X obj 504 388 hip~;
#X obj 503 412 lop~;
#X text 606 104 iemlib filter : ms-zeit mit frequenz anpassen interpolationszeit?!
rauschen raus! alternative filter? data-plot fuer signal? wie stark
ist die daempfung? white noise spectrum nach crossover;
#X connect 0 0 6 0;
#X connect 1 0 21 0;
#X connect 1 0 22 0;
#X connect 2 0 4 1;
#X connect 3 0 0 1;
#X connect 4 0 5 0;
#X connect 7 0 19 0;
#X connect 7 0 20 0;
#X connect 7 0 23 0;
#X connect 8 0 7 0;
#X connect 13 0 21 1;
#X connect 14 0 22 1;
#X connect 19 0 13 0;
#X connect 20 0 14 0;
#X connect 21 0 4 0;
#X connect 22 0 0 0;
#X connect 23 0 22 2;
#X connect 23 0 21 2;
