#N canvas 0 46 956 850 12;
#X obj 419 548 *~, f 5;
#X obj 155 250 inlet~;
#X obj 253 249 inlet;
#X obj 522 260 inlet;
#X obj 156 536 *~, f 5;
#X obj 156 561 outlet~;
#X obj 419 573 outlet~;
#X msg 312 94 85;
#X obj 312 67 loadbang;
#X text 347 94 split frequency: see subwoofer manual;
#X obj 249 174 f;
#X obj 520 186 f;
#X text 551 161 overlap;
#X obj 155 284 lop~;
#X obj 418 296 hip~;
#X obj 249 149 + 5;
#X obj 520 161 - 5;
#X obj 155 309 lop~;
#X obj 155 334 lop~;
#X obj 155 359 lop~;
#X obj 155 384 lop~;
#X obj 418 321 hip~;
#X obj 418 346 hip~;
#X obj 418 371 hip~;
#X obj 418 396 hip~;
#X obj 155 410 lop~;
#X obj 418 422 hip~;
#X obj 155 435 lop~;
#X obj 155 460 lop~;
#X obj 155 485 lop~;
#X obj 155 510 lop~;
#X obj 418 447 hip~;
#X obj 418 472 hip~;
#X obj 418 497 hip~;
#X obj 418 522 hip~;
#X connect 0 0 6 0;
#X connect 1 0 13 0;
#X connect 1 0 14 0;
#X connect 2 0 4 1;
#X connect 3 0 0 1;
#X connect 4 0 5 0;
#X connect 7 0 15 0;
#X connect 7 0 16 0;
#X connect 8 0 7 0;
#X connect 10 0 13 1;
#X connect 10 0 17 1;
#X connect 10 0 18 1;
#X connect 10 0 19 1;
#X connect 10 0 20 1;
#X connect 10 0 25 1;
#X connect 10 0 27 1;
#X connect 10 0 28 1;
#X connect 10 0 29 1;
#X connect 10 0 30 1;
#X connect 11 0 14 1;
#X connect 11 0 21 1;
#X connect 11 0 22 1;
#X connect 11 0 23 1;
#X connect 11 0 24 1;
#X connect 11 0 26 1;
#X connect 11 0 31 1;
#X connect 11 0 32 1;
#X connect 11 0 33 1;
#X connect 11 0 34 1;
#X connect 13 0 17 0;
#X connect 14 0 21 0;
#X connect 15 0 10 0;
#X connect 16 0 11 0;
#X connect 17 0 18 0;
#X connect 18 0 19 0;
#X connect 19 0 20 0;
#X connect 20 0 25 0;
#X connect 21 0 22 0;
#X connect 22 0 23 0;
#X connect 23 0 24 0;
#X connect 24 0 26 0;
#X connect 25 0 27 0;
#X connect 26 0 31 0;
#X connect 27 0 28 0;
#X connect 28 0 29 0;
#X connect 29 0 30 0;
#X connect 30 0 4 0;
#X connect 31 0 32 0;
#X connect 32 0 33 0;
#X connect 33 0 34 0;
#X connect 34 0 0 0;
