#N canvas 0 46 956 850 12;
#X obj 52 26 inlet;
#X obj 52 167 outlet;
#X obj 676 27 loadbang;
#X msg 52 68 define_loudspeakers 3 0 0 32 0 -32 0 90 -30 -90 -30 140
-30 -140 -30 90 30 -90 30 \, bang, f 82;
#X msg 338 129 1950 2289 2289 2180 2180 2180 2180 918 918;
#X text 642 75 pairs of azimut \, elevation;
#X text 649 129 pairs of distance;
#X obj 338 172 outlet;
#X obj 136 27 bng 15 250 50 0 empty empty empty 17 7 0 10 -262144 -1
-1;
#X connect 0 0 3 0;
#X connect 0 0 4 0;
#X connect 2 0 3 0;
#X connect 2 0 4 0;
#X connect 3 0 1 0;
#X connect 4 0 7 0;
#X connect 8 0 3 0;
