#N canvas 0 46 956 850 12;
#X obj 37 40 inlet~;
#X obj 45 290 vu 15 120 o1 c1 -1 -8 0 10 -66577 -1 1 0;
#X obj 99 40 inlet~;
#X obj 107 290 vu 15 120 o2 c2 -1 -8 0 10 -66577 -1 1 0;
#X obj 161 40 inlet~;
#X obj 169 290 vu 15 120 o3 c3 -1 -8 0 10 -66577 -1 1 0;
#X obj 223 40 inlet~;
#X obj 231 290 vu 15 120 o4 c4 -1 -8 0 10 -66577 -1 1 0;
#X obj 284 40 inlet~;
#X obj 292 290 vu 15 120 o5 c5 -1 -8 0 10 -66577 -1 1 0;
#X obj 346 40 inlet~;
#X obj 354 290 vu 15 120 o6 c6 -1 -8 0 10 -66577 -1 1 0;
#X obj 408 40 inlet~;
#X obj 416 290 vu 15 120 o7 c7 -1 -8 0 10 -66577 -1 1 0;
#X obj 470 40 inlet~;
#X obj 478 290 vu 15 120 o8 c8 -1 -8 0 10 -66577 -1 1 0;
#X obj 532 40 inlet~;
#X obj 540 290 vu 15 120 o9 c9 -1 -8 0 10 -66577 -1 1 0;
#X obj 594 40 inlet~;
#X obj 602 290 vu 15 120 o10 c10 -1 -8 0 10 -66577 -1 1 0;
#X obj 37 65 env~;
#X obj 37 115 s o1;
#X obj 37 90 dbtopow;
#X connect 0 0 20 0;
#X connect 20 0 22 0;
#X connect 22 0 21 0;
