#N canvas 960 46 636 185 12;
#X obj 284 17 inlet;
#X obj 242 530 outlet;
#X obj 289 65 unpack 1 2 3 4 5 6 7 8 9;
#X obj 37 151 expr max($f1 \, $f2);
#X obj 170 151 expr max($f1 \, $f2);
#X obj 304 151 expr max($f1 \, $f2);
#X obj 437 151 expr max($f1 \, $f2);
#X obj 45 203 expr max($f1 \, $f2);
#X obj 317 200 expr max($f1 \, $f2);
#X obj 165 245 expr max($f1 \, $f2);
#X obj 242 308 expr max($f1 \, $f2);
#X connect 0 0 2 0;
#X connect 2 0 3 0;
#X connect 2 1 3 1;
#X connect 2 2 4 0;
#X connect 2 3 4 1;
#X connect 2 4 5 0;
#X connect 2 5 5 1;
#X connect 2 6 6 0;
#X connect 2 7 6 1;
#X connect 2 8 10 1;
#X connect 3 0 7 0;
#X connect 4 0 7 1;
#X connect 5 0 8 0;
#X connect 6 0 8 1;
#X connect 7 0 9 0;
#X connect 8 0 9 1;
#X connect 9 0 10 0;
#X connect 10 0 1 0;
