#N canvas 10 55 1172 1013 12;
#X obj 775 223 vbap 0 0;
#X obj 874 71 inlet;
#X text 869 44 spread;
#X text 611 201 ls directions;
#X obj 268 936 *~;
#X obj 324 935 *~;
#X obj 382 935 *~;
#X obj 438 935 *~;
#X obj 495 935 *~;
#X obj 552 935 *~;
#X obj 609 935 *~;
#X obj 666 935 *~;
#X obj 723 935 *~;
#X obj 736 36 inlet;
#X obj 800 72 inlet;
#X text 793 51 elevation;
#X text 734 16 azimuth;
#X text 263 156 the sgnal;
#X text 1093 159 master volume;
#X obj 267 960 outlet~;
#X obj 324 960 outlet~;
#X obj 381 960 outlet~;
#X obj 438 960 outlet~;
#X obj 495 960 outlet~;
#X obj 552 960 outlet~;
#X obj 609 960 outlet~;
#X obj 666 960 outlet~;
#X obj 723 960 outlet~;
#X obj 269 176 inlet~;
#X obj 739 156 t b f;
#X obj 800 98 t b f;
#X obj 874 98 t b f;
#X obj 1051 355 *, f 5;
#X obj 1069 328 t b f;
#X obj 1117 355 *, f 5;
#X obj 1140 328 t b f;
#X obj 1191 355 *, f 5;
#X obj 1209 328 t b f;
#X obj 1265 355 *, f 5;
#X obj 1283 328 t b f;
#X obj 1341 355 *, f 5;
#X obj 1359 328 t b f;
#X obj 1415 355 *, f 5;
#X obj 1433 328 t b f;
#X obj 1486 355 *, f 5;
#X obj 1504 328 t b f;
#X obj 1559 355 *, f 5;
#X obj 1577 328 t b f;
#X obj 1632 355 *, f 5;
#X obj 1650 328 t b f;
#X floatatom 1064 852 5 0 0 0 - - -;
#X floatatom 1135 852 5 0 0 0 - - -;
#X floatatom 1099 911 5 0 0 0 - - -;
#X floatatom 1185 910 5 0 0 0 - - -;
#X floatatom 1129 972 5 0 0 0 - - -;
#X floatatom 1001 975 5 0 0 0 - - -;
#X floatatom 944 913 5 0 0 0 - - -;
#X floatatom 996 852 5 0 0 0 - - -;
#X floatatom 1026 911 5 0 0 0 - - -;
#X floatatom 771 181 5 0 0 0 - - -;
#X floatatom 832 181 5 0 0 0 - - -;
#X floatatom 906 183 5 0 0 0 - - -;
#X obj 1064 827 r v1;
#X obj 1135 827 r v2;
#X obj 1026 886 r v9;
#X obj 1099 886 r v8;
#X floatatom 792 337 5 0 0 2 actual_azimuth - -;
#X floatatom 810 297 5 0 0 2 actual_elevation - -;
#X floatatom 828 261 5 0 0 2 actual_spreading - -;
#X obj 286 910 line;
#X obj 286 886 pack;
#X obj 391 195 loadbang;
#X obj 342 910 line;
#X obj 342 886 pack;
#X obj 400 910 line;
#X obj 400 886 pack;
#X obj 456 910 line;
#X obj 456 886 pack;
#X obj 513 909 line;
#X obj 513 885 pack;
#X obj 570 909 line;
#X obj 570 885 pack;
#X obj 627 909 line;
#X obj 627 885 pack;
#X obj 684 909 line;
#X obj 684 885 pack;
#X obj 741 909 line;
#X obj 741 885 pack;
#X msg 391 221 100;
#X obj 996 827 r v3;
#X obj 1185 885 r v4;
#X obj 944 888 r v5;
#X obj 1129 947 r v6;
#X obj 1001 950 r v7;
#X floatatom 1065 991 5 0 0 0 - - -;
#X obj 1065 966 r v10;
#X obj 652 356 route 0 1 2 3 4 5 6 7 8, f 28;
#X obj 491 246 initpan9;
#X obj 491 145 env~;
#X obj 491 170 > 0;
#X obj 491 195 sel 1;
#X obj 491 220 onebang 1;
#X obj 269 996 env~;
#X floatatom 269 1021 5 0 0 0 - - -;
#X obj 325 996 env~;
#X floatatom 325 1021 5 0 0 0 - - -;
#X obj 381 996 env~;
#X floatatom 381 1021 5 0 0 0 - - -;
#X obj 437 996 env~;
#X floatatom 437 1021 5 0 0 0 - - -;
#X obj 495 996 env~;
#X floatatom 495 1021 5 0 0 0 - - -;
#X obj 551 996 env~;
#X floatatom 551 1021 5 0 0 0 - - -;
#X obj 607 996 env~;
#X floatatom 607 1021 5 0 0 0 - - -;
#X obj 665 996 env~;
#X floatatom 665 1021 5 0 0 0 - - -;
#X obj 724 996 env~;
#X floatatom 724 1021 5 0 0 0 - - -;
#X obj 736 58 s \$1-az;
#X obj 739 98 r \$1-az;
#X obj 652 576 s \$1-v1;
#X obj 694 532 s \$1-v3;
#X obj 673 554 s \$1-v2;
#X obj 716 510 s \$1-v4;
#X obj 759 466 s \$1-v6;
#X obj 780 444 s \$1-v7;
#X obj 802 422 s \$1-v8;
#X obj 823 400 s \$1-v9;
#X obj 845 378 s \$1-v10;
#X obj 1051 298 r \$1-v1;
#X obj 1117 298 r \$1-v2;
#X obj 1191 299 r \$1-v3;
#X obj 1265 300 r \$1-v4;
#X obj 1341 301 r \$1-v5;
#X obj 1415 301 r \$1-v6;
#X obj 1486 302 r \$1-v7;
#X obj 1559 303 r \$1-v8;
#X obj 1632 302 r \$1-v9;
#X obj 1097 179 r \$1-vo;
#X obj 1096 71 inlet;
#X obj 1096 102 s \$1-vo;
#X obj 737 488 s \$1-v5;
#X connect 0 0 96 0;
#X connect 0 1 66 0;
#X connect 0 2 67 0;
#X connect 0 3 68 0;
#X connect 1 0 31 0;
#X connect 4 0 19 0;
#X connect 4 0 102 0;
#X connect 5 0 20 0;
#X connect 5 0 104 0;
#X connect 6 0 21 0;
#X connect 6 0 106 0;
#X connect 7 0 22 0;
#X connect 7 0 108 0;
#X connect 8 0 23 0;
#X connect 8 0 110 0;
#X connect 9 0 24 0;
#X connect 9 0 112 0;
#X connect 10 0 25 0;
#X connect 10 0 114 0;
#X connect 11 0 26 0;
#X connect 11 0 116 0;
#X connect 12 0 27 0;
#X connect 12 0 118 0;
#X connect 13 0 120 0;
#X connect 14 0 30 0;
#X connect 28 0 4 0;
#X connect 28 0 5 0;
#X connect 28 0 6 0;
#X connect 28 0 7 0;
#X connect 28 0 8 0;
#X connect 28 0 9 0;
#X connect 28 0 10 0;
#X connect 28 0 11 0;
#X connect 28 0 12 0;
#X connect 28 0 98 0;
#X connect 29 0 0 0;
#X connect 29 1 59 0;
#X connect 30 0 0 0;
#X connect 30 1 60 0;
#X connect 31 0 0 0;
#X connect 31 1 61 0;
#X connect 32 0 70 0;
#X connect 33 0 32 0;
#X connect 33 1 32 1;
#X connect 34 0 73 0;
#X connect 35 0 34 0;
#X connect 35 1 34 1;
#X connect 36 0 75 0;
#X connect 37 0 36 0;
#X connect 37 1 36 1;
#X connect 38 0 77 0;
#X connect 39 0 38 0;
#X connect 39 1 38 1;
#X connect 40 0 79 0;
#X connect 41 0 40 0;
#X connect 41 1 40 1;
#X connect 42 0 81 0;
#X connect 43 0 42 0;
#X connect 43 1 42 1;
#X connect 44 0 83 0;
#X connect 45 0 44 0;
#X connect 45 1 44 1;
#X connect 46 0 85 0;
#X connect 47 0 46 0;
#X connect 47 1 46 1;
#X connect 48 0 87 0;
#X connect 49 0 48 0;
#X connect 49 1 48 1;
#X connect 59 0 0 1;
#X connect 60 0 0 2;
#X connect 61 0 0 3;
#X connect 62 0 50 0;
#X connect 63 0 51 0;
#X connect 64 0 58 0;
#X connect 65 0 52 0;
#X connect 69 0 4 1;
#X connect 70 0 69 0;
#X connect 71 0 88 0;
#X connect 72 0 5 1;
#X connect 73 0 72 0;
#X connect 74 0 6 1;
#X connect 75 0 74 0;
#X connect 76 0 7 1;
#X connect 77 0 76 0;
#X connect 78 0 8 1;
#X connect 79 0 78 0;
#X connect 80 0 9 1;
#X connect 81 0 80 0;
#X connect 82 0 10 1;
#X connect 83 0 82 0;
#X connect 84 0 11 1;
#X connect 85 0 84 0;
#X connect 86 0 12 1;
#X connect 87 0 86 0;
#X connect 88 0 70 1;
#X connect 88 0 73 1;
#X connect 88 0 75 1;
#X connect 88 0 77 1;
#X connect 88 0 79 1;
#X connect 88 0 81 1;
#X connect 88 0 83 1;
#X connect 88 0 85 1;
#X connect 88 0 87 1;
#X connect 89 0 57 0;
#X connect 90 0 53 0;
#X connect 91 0 56 0;
#X connect 92 0 54 0;
#X connect 93 0 55 0;
#X connect 95 0 94 0;
#X connect 96 0 122 0;
#X connect 96 1 124 0;
#X connect 96 2 123 0;
#X connect 96 3 125 0;
#X connect 96 4 143 0;
#X connect 96 5 126 0;
#X connect 96 6 127 0;
#X connect 96 7 128 0;
#X connect 96 8 129 0;
#X connect 96 9 130 0;
#X connect 97 0 0 0;
#X connect 98 0 99 0;
#X connect 99 0 100 0;
#X connect 100 0 101 0;
#X connect 101 0 97 0;
#X connect 102 0 103 0;
#X connect 104 0 105 0;
#X connect 106 0 107 0;
#X connect 108 0 109 0;
#X connect 110 0 111 0;
#X connect 112 0 113 0;
#X connect 114 0 115 0;
#X connect 116 0 117 0;
#X connect 118 0 119 0;
#X connect 121 0 29 0;
#X connect 131 0 32 0;
#X connect 132 0 34 0;
#X connect 133 0 36 0;
#X connect 134 0 38 0;
#X connect 135 0 40 0;
#X connect 136 0 42 0;
#X connect 137 0 44 0;
#X connect 138 0 46 0;
#X connect 139 0 48 0;
#X connect 140 0 33 0;
#X connect 140 0 35 0;
#X connect 140 0 37 0;
#X connect 140 0 39 0;
#X connect 140 0 41 0;
#X connect 140 0 43 0;
#X connect 140 0 45 0;
#X connect 140 0 47 0;
#X connect 140 0 49 0;
#X connect 141 0 142 0;
