#N canvas 0 45 1920 1035 12;
#X obj 505 33 cnv 15 100 60 empty empty empty 20 12 0 14 -233017 -66577
0;
#X obj 374 45 loadbang;
#X msg 374 69 0.5;
#X text 107 124 azimut;
#X obj 232 124 hsl 128 15 0 360 0 0 empty empty empty -2 -8 0 10 -262144
-1 -1 0 1;
#X floatatom 370 123 5 0 0 0 - - -;
#X obj 232 144 hsl 128 15 -30 30 0 0 empty empty empty -2 -8 0 10 -262144
-1 -1 0 1;
#X floatatom 370 143 5 0 0 0 - - -;
#X obj 232 163 hsl 128 15 0 100 0 0 empty empty empty -2 -8 0 10 -262144
-1 -1 0 1;
#X floatatom 370 162 5 0 0 0 - - -;
#X obj 232 183 hsl 128 15 0 1 0 0 empty empty empty -2 -8 0 10 -262144
-1 -1 12700 1;
#X floatatom 370 182 5 0 0 0 - - -;
#X text 107 144 elevation;
#X text 107 163 spread;
#X text 107 183 volume;
#X obj 229 17 inlet;
#X obj 277 17 inlet;
#X obj 325 17 inlet;
#X obj 374 17 inlet;
#X obj 30 17 inlet~;
#X obj 30 383 outlet~;
#X obj 87 383 outlet~;
#X obj 144 383 outlet~;
#X obj 201 383 outlet~;
#X obj 258 383 outlet~;
#X obj 315 383 outlet~;
#X obj 372 383 outlet~;
#X obj 429 383 outlet~;
#X obj 486 383 outlet~;
#X floatatom 184 122 5 0 0 0 - - -;
#X floatatom 184 142 5 0 0 0 - - -;
#X floatatom 184 162 5 0 0 0 - - -;
#X floatatom 184 182 5 0 0 0 - - -;
#X text 487 135 control and pan with working instances;
#X obj 31 282 pan9v2~ \$1, f 34;
#X connect 1 0 2 0;
#X connect 2 0 10 0;
#X connect 4 0 5 0;
#X connect 5 0 34 1;
#X connect 6 0 7 0;
#X connect 7 0 34 2;
#X connect 8 0 9 0;
#X connect 9 0 34 3;
#X connect 10 0 11 0;
#X connect 11 0 34 4;
#X connect 15 0 4 0;
#X connect 16 0 6 0;
#X connect 17 0 8 0;
#X connect 18 0 10 0;
#X connect 19 0 34 0;
#X connect 29 0 4 0;
#X connect 30 0 6 0;
#X connect 31 0 8 0;
#X connect 32 0 10 0;
#X connect 34 0 20 0;
#X connect 34 1 21 0;
#X connect 34 2 22 0;
#X connect 34 3 23 0;
#X connect 34 4 24 0;
#X connect 34 5 25 0;
#X connect 34 6 26 0;
#X connect 34 7 27 0;
#X connect 34 8 28 0;
#X coords 0 -1 1 1 320 120 1 100 100;
