#N canvas 0 46 1600 854 12;
#X msg 322 77 open 1.wav;
#X obj 322 135 readsf~;
#X obj 322 161 *~ 0.1;
#X msg 337 106 1;
#X obj 98 515 pan9~, f 22;
#X obj 322 50 loadbang;
#X obj 138 326 hsl 128 15 0 360 0 0 empty empty azimut 135 7 0 10 -262144
-1 -1 0 1;
#X obj 176 376 hsl 128 15 -30 30 0 1 empty empty elevation 135 8 0
10 -262144 -1 -1 6350 1;
#X obj 214 422 hsl 128 15 0 100 0 0 empty empty spread 135 8 0 10 -262144
-1 -1 0 1;
#X obj 252 469 hsl 128 15 0 1 0 1 empty empty volume 135 8 0 10 -262144
-1 -1 12700 1;
#X floatatom 135 346 5 0 0 0 - - -;
#X floatatom 173 396 5 0 0 0 - - -;
#X floatatom 211 442 5 0 0 0 - - -;
#X floatatom 249 489 5 0 0 0 - - -;
#X msg 135 275 0;
#X msg 174 276 45;
#X msg 215 276 90;
#X msg 252 277 135;
#X msg 290 277 180;
#X msg 327 277 225;
#X msg 366 278 270;
#X msg 407 278 315;
#X msg 446 279 360;
#X msg 357 346 0;
#X obj 98 666 dac~ 1 2 3 4 5 6 7 8 9 10;
#X text 283 646 last channel: subwoofer;
#X obj 235 134 noise~;
#X floatatom 93 131 8 0 0 0 - - -;
#X obj 93 105 line;
#X obj 93 155 mtof;
#X obj 93 203 osc~;
#X floatatom 93 180 5 0 0 0 - - -;
#X msg 56 79 0;
#X msg 150 55 stop;
#X msg 163 143 85;
#X msg 163 113 45;
#X msg 93 80 0 \, 127 30000;
#X obj 357 321 loadbang;
#X obj 93 225 *~;
#X floatatom 145 205 5 0 0 0 - - -;
#X msg 163 172 2000;
#X obj 98 636 crossover9.1~, f 22;
#X msg 195 215 1;
#X obj 98 602 dampcorrect9~, f 22;
#X obj 17 191 osc~ 100;
#X obj 98 568 delaycorrect9~, f 22;
#X connect 0 0 1 0;
#X connect 0 0 3 0;
#X connect 1 0 2 0;
#X connect 1 1 0 0;
#X connect 3 0 1 0;
#X connect 4 0 45 0;
#X connect 4 1 45 1;
#X connect 4 2 45 2;
#X connect 4 3 45 3;
#X connect 4 4 45 4;
#X connect 4 5 45 5;
#X connect 4 6 45 6;
#X connect 4 7 45 7;
#X connect 4 8 45 8;
#X connect 5 0 0 0;
#X connect 6 0 10 0;
#X connect 7 0 11 0;
#X connect 8 0 12 0;
#X connect 9 0 13 0;
#X connect 10 0 4 1;
#X connect 11 0 4 2;
#X connect 12 0 4 3;
#X connect 13 0 4 4;
#X connect 14 0 6 0;
#X connect 15 0 6 0;
#X connect 16 0 6 0;
#X connect 17 0 6 0;
#X connect 18 0 6 0;
#X connect 19 0 6 0;
#X connect 20 0 6 0;
#X connect 21 0 6 0;
#X connect 22 0 6 0;
#X connect 23 0 7 0;
#X connect 27 0 29 0;
#X connect 28 0 27 0;
#X connect 29 0 31 0;
#X connect 30 0 38 0;
#X connect 31 0 30 0;
#X connect 32 0 27 0;
#X connect 33 0 28 0;
#X connect 34 0 31 0;
#X connect 35 0 31 0;
#X connect 36 0 28 0;
#X connect 37 0 23 0;
#X connect 39 0 38 1;
#X connect 40 0 31 0;
#X connect 41 0 24 0;
#X connect 41 1 24 1;
#X connect 41 2 24 2;
#X connect 41 3 24 3;
#X connect 41 4 24 4;
#X connect 41 5 24 5;
#X connect 41 6 24 6;
#X connect 41 7 24 7;
#X connect 41 8 24 8;
#X connect 41 9 24 9;
#X connect 42 0 38 1;
#X connect 43 0 41 0;
#X connect 43 1 41 1;
#X connect 43 2 41 2;
#X connect 43 3 41 3;
#X connect 43 4 41 4;
#X connect 43 5 41 5;
#X connect 43 6 41 6;
#X connect 43 7 41 7;
#X connect 43 8 41 8;
#X connect 45 0 43 0;
#X connect 45 1 43 1;
#X connect 45 2 43 2;
#X connect 45 3 43 3;
#X connect 45 4 43 4;
#X connect 45 5 43 5;
#X connect 45 6 43 6;
#X connect 45 7 43 7;
#X connect 45 8 43 8;
