#N canvas 1538 55 370 486 12;
#X obj 91 236 pad.vumeter~;
#X obj 130 236 pad.vumeter~;
#X obj 169 236 pad.vumeter~;
#X obj 208 236 pad.vumeter~;
#X obj 248 236 pad.vumeter~;
#X obj 287 236 pad.vumeter~;
#X obj 325 236 pad.vumeter~;
#X obj 364 236 pad.vumeter~;
#X obj 404 236 pad.vumeter~;
#X obj 91 100 panner 1;
#X obj 456 236 pad.vumeter~;
#X obj 495 236 pad.vumeter~;
#X obj 534 236 pad.vumeter~;
#X obj 573 236 pad.vumeter~;
#X obj 613 236 pad.vumeter~;
#X obj 652 236 pad.vumeter~;
#X obj 690 236 pad.vumeter~;
#X obj 729 236 pad.vumeter~;
#X obj 769 236 pad.vumeter~;
#X obj 456 100 panner 1;
#X msg 534 52 0 \, 360 10000;
#X obj 534 74 line;
#X obj 169 74 line;
#X obj 56 60 *~;
#X obj 168 29 bng 15 250 50 0 empty empty empty 17 7 0 10 -262144 -1
-1;
#X msg 168 52 0 \, 360 10000;
#X obj 136 409 dac~ 1 2 3 4 5 6 7 8 9;
#X msg 125 2 0;
#X obj 22 24 noise~;
#X msg 106 36 0.01;
#X obj 168 -33 tgl 15 0 empty empty empty 17 7 0 10 -262144 -1 -1 1
1;
#X obj 168 -13 metro 10000;
#X connect 9 0 0 0;
#X connect 9 0 26 0;
#X connect 9 1 1 0;
#X connect 9 1 26 1;
#X connect 9 2 2 0;
#X connect 9 2 26 2;
#X connect 9 3 3 0;
#X connect 9 3 26 3;
#X connect 9 4 4 0;
#X connect 9 4 26 4;
#X connect 9 5 5 0;
#X connect 9 5 26 5;
#X connect 9 6 6 0;
#X connect 9 6 26 6;
#X connect 9 7 7 0;
#X connect 9 7 26 7;
#X connect 9 8 8 0;
#X connect 9 8 26 8;
#X connect 19 0 10 0;
#X connect 19 1 11 0;
#X connect 19 2 12 0;
#X connect 19 3 13 0;
#X connect 19 4 14 0;
#X connect 19 5 15 0;
#X connect 19 6 16 0;
#X connect 19 7 17 0;
#X connect 19 8 18 0;
#X connect 20 0 21 0;
#X connect 21 0 19 1;
#X connect 22 0 9 1;
#X connect 23 0 9 0;
#X connect 24 0 25 0;
#X connect 25 0 22 0;
#X connect 27 0 23 1;
#X connect 28 0 23 0;
#X connect 29 0 23 1;
#X connect 30 0 31 0;
#X connect 31 0 24 0;
