#N canvas 0 0 1920 1052 12;
#X obj 652 160 freqshift~;
#X obj 42 105 *~;
#X obj 60 57 bng 15 250 50 0 empty empty empty 0 -8 0 12 #fcfcfc #000000 #000000;
#X floatatom 123 59 5 0 0 0 - - - 0;
#X obj 60 80 function~ 0 10;
#X obj 60 21 tgl 15 0 empty empty empty 0 -8 0 12 #fcfcfc #000000 #000000 0 1;
#X floatatom 79 170 5 0 0 0 - - - 0;
#X floatatom 220 169 5 0 0 0 - - - 0;
#X obj 157 169 osc~ 0.5;
#X obj 398 158 e560~, f 18;
#X obj 398 217 *~;
#X obj 419 197 hsl 128 15 0 1 0 0 empty empty empty -2 -8 0 12 #fcfcfc #000000 #000000 0 1;
#X obj 398 178 snake~ in 2;
#X obj 652 219 *~;
#X obj 652 180 snake~ in 2;
#X floatatom 84 59 5 0 0 0 - - - 0;
#X obj 178 60 tgl 15 0 empty empty empty 0 -8 0 12 #fcfcfc #000000 #000000 0 1;
#X floatatom 118 170 5 0 0 0 - - - 0;
#X obj 42 153 *~;
#X obj 460 98 phasor~ 0.2;
#X floatatom 460 80 5 0 0 0 - - - 0;
#X text 101 202 speed;
#X obj 460 116 cos~;
#X floatatom 521 121 5 0 0 0 - - - 0;
#X obj 460 135 abs~;
#X floatatom 157 150 4 0 0 0 - - - 0;
#X obj 42 187 florus~ 2 4 0.9, f 22;
#X obj 60 40 metro 3000;
#X obj 398 135 hip~ 20;
#X obj 11 341 poly 4 1;
#X obj 11 361 pack f f f;
#X obj 11 288 tgl 15 0 empty empty empty 0 -8 0 12 #fcfcfc #000000 #000000 0 1;
#X obj 11 485 clone -x -s 1 juju~ 5;
#X floatatom 131 428 5 0 0 1 q - - 16;
#X msg 339 461 all \$1;
#X msg 235 462 all \$1;
#X floatatom 235 428 5 0 0 1 att - - 16;
#X floatatom 339 428 5 0 0 1 dec - - 16;
#X msg 443 460 all \$1;
#X floatatom 443 428 5 0 0 1 fenv - - 16;
#X obj 145 380 sig~;
#X obj 248 381 sig~;
#X obj 248 349 tgl 15 0 empty empty sq 0 -8 0 12 #404040 #00ff04 #000000 0 1;
#X obj 145 349 tgl 15 0 empty empty saw 0 -8 0 12 #202020 #00ff04 #000000 0 1;
#X floatatom 27 429 5 0 0 1 frq - - 16;
#X floatatom 518 461 5 0 0 1 hpf - - 16;
#X msg 11 317 60 \$1;
#X msg 59 317 62 \$1;
#X msg 105 317 65 \$1;
#X msg 153 317 69 \$1;
#X obj 353 381 sig~;
#X floatatom 353 362 5 0 0 0 - - - 0;
#X obj 353 343 tgl 15 0 empty empty empty 0 -8 0 12 #404040 #00ff04 #000000 0 1;
#X obj 521 138 line~ 100;
#X obj 63 132 hsl 128 15 0 1 0 0 empty empty empty -2 -8 0 12 #fcfcfc #000000 #000000 0 1;
#X obj 673 198 hsl 128 15 0 1 0 0 empty empty empty -2 -8 0 12 #fcfcfc #000000 #000000 0 1;
#X connect 0 0 14 0;
#X connect 0 1 14 1;
#X connect 1 0 18 0;
#X connect 2 0 4 0;
#X connect 2 0 31 0;
#X connect 3 0 4 2;
#X connect 4 0 1 1;
#X connect 5 0 27 0;
#X connect 6 0 26 1;
#X connect 7 0 26 4;
#X connect 8 0 26 3;
#X connect 9 0 12 0;
#X connect 9 1 12 1;
#X connect 11 0 10 1;
#X connect 12 0 10 0;
#X connect 14 0 13 0;
#X connect 15 0 4 1;
#X connect 16 0 4 4;
#X connect 17 0 26 2;
#X connect 18 0 26 0;
#X connect 19 0 22 0;
#X connect 20 0 19 0;
#X connect 22 0 24 0;
#X connect 23 0 53 0;
#X connect 24 0 9 1;
#X connect 25 0 8 0;
#X connect 27 0 2 0;
#X connect 28 0 9 0;
#X connect 29 0 30 0;
#X connect 29 1 30 1;
#X connect 29 2 30 2;
#X connect 30 0 32 0;
#X connect 31 0 46 0;
#X connect 31 0 47 0;
#X connect 31 0 48 0;
#X connect 31 0 49 0;
#X connect 33 0 32 2;
#X connect 34 0 32 4;
#X connect 35 0 32 3;
#X connect 36 0 35 0;
#X connect 37 0 34 0;
#X connect 38 0 32 5;
#X connect 39 0 38 0;
#X connect 40 0 32 6;
#X connect 41 0 32 7;
#X connect 42 0 41 0;
#X connect 43 0 40 0;
#X connect 44 0 32 1;
#X connect 45 0 32 9;
#X connect 46 0 29 0;
#X connect 47 0 29 0;
#X connect 48 0 29 0;
#X connect 49 0 29 0;
#X connect 50 0 32 8;
#X connect 51 0 50 0;
#X connect 52 0 51 0;
#X connect 53 0 9 2;
#X connect 54 0 18 1;
#X connect 55 0 13 1;
