#N canvas 0 0 1920 1052 12;
#X obj 248 237 freqshift~;
#X obj 275 378 dac~;
#X obj 42 105 *~;
#X obj 60 57 bng 15 250 50 0 empty empty empty 0 -8 0 12 #fcfcfc #000000 #000000;
#X floatatom 123 59 5 0 0 0 - - - 0;
#X obj 60 80 function~ 0 10;
#X obj 99 10 tgl 15 0 empty empty empty 0 -8 0 12 #fcfcfc #000000 #000000 0 1;
#X floatatom 282 173 5 0 0 0 - - - 0;
#X floatatom 423 172 5 0 0 0 - - - 0;
#X obj 360 172 osc~ 0.5;
#X obj 248 219 *~ 0.5;
#X obj 36 257 e560~, f 25;
#X obj 36 296 *~;
#X obj 67 297 hsl 128 15 0 127 0 0 empty empty empty -2 -8 0 12 #fcfcfc #000000 #000000 0 1;
#X obj 64 317 / 127;
#X obj 36 277 snake~ in 2;
#X obj 248 283 *~;
#X obj 248 257 snake~ in 2;
#X obj 290 279 hsl 128 15 0 127 0 0 empty empty empty -2 -8 0 12 #fcfcfc #000000 #000000 0 1;
#X obj 287 299 / 127;
#X floatatom 76 367 5 0 0 0 - - - 0;
#X floatatom 106 386 5 0 0 0 - - - 0;
#X obj 46 403 bbd~, f 9;
#X floatatom 84 59 5 0 0 0 - - - 0;
#X obj 178 60 tgl 15 0 empty empty empty 0 -8 0 12 #fcfcfc #000000 #000000 0 1;
#X floatatom 321 173 5 0 0 0 - - - 0;
#X obj 105 158 *~;
#X obj 147 154 hsl 128 15 0 127 0 0 empty empty empty -2 -8 0 12 #fcfcfc #000000 #000000 0 1;
#X obj 144 174 / 127;
#X obj 259 75 phasor~ 0.2;
#X floatatom 258 57 5 0 0 0 - - - 0;
#X text 219 57 speed;
#X obj 260 99 cos~;
#X floatatom 401 66 5 0 0 0 - - - 0;
#X obj 260 118 abs~;
#X floatatom 336 153 19 0 0 0 - - - 0;
#X obj 248 200 florus~ 2 4 0.9;
#X obj 164 437 tgl 15 0 empty empty empty 0 -8 0 12 #fcfcfc #000000 #000000 0 1;
#X obj 185 437 tgl 15 0 empty empty empty 0 -8 0 12 #fcfcfc #000000 #000000 0 1;
#X obj 206 437 tgl 15 0 empty empty empty 0 -8 0 12 #fcfcfc #000000 #000000 0 1;
#X floatatom 165 404 5 0 0 0 - - - 0;
#X floatatom 126 405 5 0 0 0 - - - 0;
#X obj 99 29 metro 3000;
#X obj 385 355 hsl 128 15 0 0.8 0 0 empty empty empty -2 -8 0 12 #fcfcfc #000000 #000000 0 1;
#X floatatom 382 375 5 0 0 0 - - - 0;
#X obj 517 130 osc~ 55;
#X obj 36 234 hip~ 20;
#X obj 567 61 osc~ 55;
#X obj 517 112 +~;
#X obj 567 80 *~;
#X floatatom 502 18 5 0 0 0 - - - 0;
#X obj 567 42 * 8;
#X floatatom 632 88 5 0 0 0 - - - 0;
#X obj 275 337 *~ 0.33;
#X obj 275 356 snake~ out 2;
#X obj 448 441 tgl 15 0 empty empty empty 0 -8 0 12 #fcfcfc #000000 #000000 0 1;
#X obj 469 441 tgl 15 0 empty empty empty 0 -8 0 12 #fcfcfc #000000 #000000 0 1;
#X obj 490 441 tgl 15 0 empty empty empty 0 -8 0 12 #fcfcfc #000000 #000000 0 1;
#X floatatom 449 408 5 0 0 0 - - - 0;
#X floatatom 410 409 5 0 0 0 - - - 0;
#X obj 707 131 poly 4 1;
#X obj 707 151 pack f f f;
#X obj 849 81 tgl 19 0 empty empty empty 17 7 0 10 #dfdfdf #000000 #000000 0 64;
#X obj 707 81 tgl 19 0 empty empty empty 17 7 0 10 #dfdfdf #000000 #000000 0 64;
#X obj 754 81 tgl 19 0 empty empty empty 17 7 0 10 #dfdfdf #000000 #000000 0 64;
#X obj 801 81 tgl 19 0 empty empty empty 17 7 0 10 #dfdfdf #000000 #000000 0 64;
#X obj 680 38 tgl 15 0 empty empty empty 0 -8 0 12 #fcfcfc #000000 #000000 0 1;
#X obj 707 275 clone -x -s 1 juju~ 5;
#X floatatom 827 218 5 0 0 1 q - - 16;
#X msg 1035 251 all \$1;
#X msg 931 252 all \$1;
#X floatatom 931 218 5 0 0 1 att - - 16;
#X floatatom 1035 218 5 0 0 1 dec - - 16;
#X msg 1139 250 all \$1;
#X floatatom 1139 218 5 0 0 1 fenv - - 16;
#X obj 841 170 sig~;
#X obj 944 171 sig~;
#X obj 944 139 tgl 15 0 empty empty sq 0 -8 0 12 #404040 #00ff04 #000000 0 1;
#X obj 841 139 tgl 15 0 empty empty saw 0 -8 0 12 #202020 #00ff04 #000000 0 1;
#X floatatom 723 219 5 0 0 1 frq - - 16;
#X floatatom 1214 251 5 0 0 1 hpf - - 16;
#X msg 707 107 60 \$1;
#X msg 755 107 62 \$1;
#X msg 801 107 65 \$1;
#X msg 849 107 69 \$1;
#X obj 1049 171 sig~;
#X floatatom 1049 152 5 0 0 0 - - - 0;
#X obj 1049 133 tgl 15 0 empty empty empty 0 -8 0 12 #404040 #00ff04 #000000 0 1;
#X text 648 205 sub;
#X obj 409 98 line~ 100;
#X connect 0 0 17 0;
#X connect 0 1 17 1;
#X connect 2 0 26 0;
#X connect 3 0 5 0;
#X connect 3 0 66 0;
#X connect 4 0 5 2;
#X connect 5 0 2 1;
#X connect 6 0 42 0;
#X connect 7 0 36 1;
#X connect 8 0 36 4;
#X connect 9 0 36 3;
#X connect 10 0 0 0;
#X connect 11 0 15 0;
#X connect 11 1 15 1;
#X connect 12 0 53 0;
#X connect 13 0 14 0;
#X connect 14 0 12 1;
#X connect 15 0 12 0;
#X connect 16 0 53 0;
#X connect 17 0 16 0;
#X connect 18 0 19 0;
#X connect 19 0 16 1;
#X connect 20 0 22 1;
#X connect 21 0 22 2;
#X connect 23 0 5 1;
#X connect 24 0 5 4;
#X connect 25 0 36 2;
#X connect 26 0 36 0;
#X connect 27 0 28 0;
#X connect 28 0 26 1;
#X connect 29 0 32 0;
#X connect 30 0 29 0;
#X connect 32 0 34 0;
#X connect 33 0 89 0;
#X connect 34 0 11 1;
#X connect 35 0 9 0;
#X connect 36 0 10 0;
#X connect 42 0 3 0;
#X connect 43 0 44 0;
#X connect 44 0 40 0;
#X connect 44 0 58 0;
#X connect 45 0 2 0;
#X connect 46 0 11 0;
#X connect 47 0 49 0;
#X connect 48 0 45 0;
#X connect 49 0 48 1;
#X connect 50 0 51 0;
#X connect 50 0 48 0;
#X connect 51 0 47 0;
#X connect 52 0 49 1;
#X connect 53 0 54 0;
#X connect 54 0 1 0;
#X connect 54 1 1 1;
#X connect 60 0 61 0;
#X connect 60 1 61 1;
#X connect 60 2 61 2;
#X connect 61 0 67 0;
#X connect 62 0 84 0;
#X connect 63 0 81 0;
#X connect 64 0 82 0;
#X connect 65 0 83 0;
#X connect 66 0 63 0;
#X connect 66 0 64 0;
#X connect 66 0 65 0;
#X connect 66 0 62 0;
#X connect 67 0 11 0;
#X connect 68 0 67 2;
#X connect 69 0 67 4;
#X connect 70 0 67 3;
#X connect 71 0 70 0;
#X connect 72 0 69 0;
#X connect 73 0 67 5;
#X connect 74 0 73 0;
#X connect 75 0 67 6;
#X connect 76 0 67 7;
#X connect 77 0 76 0;
#X connect 78 0 75 0;
#X connect 79 0 67 1;
#X connect 80 0 67 9;
#X connect 81 0 60 0;
#X connect 82 0 60 0;
#X connect 83 0 60 0;
#X connect 84 0 60 0;
#X connect 85 0 67 8;
#X connect 86 0 85 0;
#X connect 87 0 86 0;
#X connect 89 0 11 2;
