#N canvas 0 0 958 1050 12;
#X obj 213 62 noise~;
#X obj 237 108 freqshift~;
#X obj 210 394 dac~;
#X obj 49 23 noise~;
#X obj 42 105 *~;
#X obj 107 23 bng 15 250 50 0 empty empty empty 0 -8 0 12 #fcfcfc #000000 #000000;
#X floatatom 136 43 5 0 0 0 - - - 0;
#X obj 60 80 function~ 0 10;
#X floatatom 87 122 5 0 0 0 - - - 0;
#X floatatom 127 135 5 0 0 0 - - - 0;
#X obj 391 140 *~ 1;
#X obj 391 159 svf~ 2000 0.1;
#X obj 160 20 metro 500;
#X obj 203 35 tgl 15 0 empty empty empty 0 -8 0 12 #fcfcfc #000000 #000000 0 1;
#X floatatom 246 177 5 0 0 0 - - - 0;
#X floatatom 348 185 5 0 0 0 - - - 0;
#X obj 321 166 osc~ 0.5;
#X obj 208 227 *~ 0.5;
#X obj 208 208 simpledelay~ 2 4 0.9;
#X obj 118 166 e560~;
#X obj 117 287 *~;
#X obj 48 219 hsl 128 15 0 127 0 0 empty empty empty -2 -8 0 12 #fcfcfc #000000 #000000 0 1;
#X obj 45 239 / 127;
#X obj 117 268 snake~ in 2;
#X obj 210 364 snake~ out 2;
#X obj 235 286 *~;
#X obj 235 267 snake~ in 2;
#X obj 349 226 hsl 128 15 0 127 0 0 empty empty empty -2 -8 0 12 #fcfcfc #000000 #000000 0 1;
#X obj 346 246 / 127;
#X connect 1 0 26 0;
#X connect 1 1 26 1;
#X connect 3 0 4 0;
#X connect 4 0 18 0;
#X connect 4 0 19 0;
#X connect 5 0 7 0;
#X connect 6 0 7 2;
#X connect 7 0 4 1;
#X connect 10 0 11 0;
#X connect 12 0 5 0;
#X connect 13 0 12 0;
#X connect 14 0 18 1;
#X connect 15 0 18 4;
#X connect 16 0 18 3;
#X connect 17 0 1 0;
#X connect 18 0 17 0;
#X connect 19 0 23 0;
#X connect 19 1 23 1;
#X connect 20 0 24 0;
#X connect 21 0 22 0;
#X connect 22 0 20 1;
#X connect 23 0 20 0;
#X connect 24 0 2 0;
#X connect 24 1 2 1;
#X connect 25 0 24 0;
#X connect 26 0 25 0;
#X connect 27 0 28 0;
#X connect 28 0 25 1;
