#N canvas 0 0 1140 1050 12;
#X obj 41 13 noise~;
#X obj 248 237 freqshift~;
#X obj 275 378 dac~;
#X obj 42 105 *~;
#X obj 60 57 bng 15 250 50 0 empty empty empty 0 -8 0 12 #fcfcfc #000000 #000000;
#X floatatom 123 59 5 0 0 0 - - - 0;
#X obj 60 80 function~ 0 10;
#X obj 99 10 tgl 15 0 empty empty empty 0 -8 0 12 #fcfcfc #000000 #000000 0 1;
#X floatatom 282 173 5 0 0 0 - - - 0;
#X floatatom 423 172 5 0 0 0 - - - 0;
#X obj 360 172 osc~ 0.5;
#X obj 248 219 *~ 0.5;
#X obj 36 257 e560~;
#X obj 36 296 *~;
#X obj 67 297 hsl 128 15 0 127 0 0 empty empty empty -2 -8 0 12 #fcfcfc #000000 #000000 0 1;
#X obj 64 317 / 127;
#X obj 36 277 snake~ in 2;
#X obj 248 283 *~;
#X obj 248 257 snake~ in 2;
#X obj 290 279 hsl 128 15 0 127 0 0 empty empty empty -2 -8 0 12 #fcfcfc #000000 #000000 0 1;
#X obj 287 299 / 127;
#X floatatom 76 367 5 0 0 0 - - - 0;
#X floatatom 106 386 5 0 0 0 - - - 0;
#X obj 46 403 bbd~, f 9;
#X floatatom 84 59 5 0 0 0 - - - 0;
#X obj 178 60 tgl 15 0 empty empty empty 0 -8 0 12 #fcfcfc #000000 #000000 0 1;
#X floatatom 321 173 5 0 0 0 - - - 0;
#X obj 105 158 *~;
#X obj 147 154 hsl 128 15 0 127 0 0 empty empty empty -2 -8 0 12 #fcfcfc #000000 #000000 0 1;
#X obj 144 174 / 127;
#X obj 259 75 phasor~ 0.2;
#X floatatom 258 57 5 0 0 0 - - - 0;
#X text 219 57 speed;
#X obj 260 99 cos~;
#X floatatom 324 104 5 0 0 0 - - - 0;
#X obj 260 118 abs~;
#X obj 148 344 pan~;
#X floatatom 336 153 19 0 0 0 - - - 0;
#X obj 248 200 florus~ 2 4 0.9;
#X obj 128 466 tapedelay~;
#X obj 164 437 tgl 15 0 empty empty empty 0 -8 0 12 #fcfcfc #000000 #000000 0 1;
#X obj 185 437 tgl 15 0 empty empty empty 0 -8 0 12 #fcfcfc #000000 #000000 0 1;
#X obj 206 437 tgl 15 0 empty empty empty 0 -8 0 12 #fcfcfc #000000 #000000 0 1;
#X floatatom 165 404 5 0 0 0 - - - 0;
#X floatatom 126 405 5 0 0 0 - - - 0;
#X obj 99 29 metro 3000;
#X obj 385 355 hsl 128 15 0 0.8 0 0 empty empty empty -2 -8 0 12 #fcfcfc #000000 #000000 0 1;
#X floatatom 382 375 5 0 0 0 - - - 0;
#X obj 517 130 osc~ 55;
#X obj 36 234 hip~ 20;
#X obj 567 61 osc~ 55;
#X obj 517 112 +~;
#X obj 567 80 *~;
#X floatatom 502 18 5 0 0 0 - - - 0;
#X obj 567 42 * 8;
#X floatatom 632 88 5 0 0 0 - - - 0;
#X obj 275 337 *~ 0.33;
#X obj 275 356 snake~ out 2;
#X obj 169 378 snake~ out 2;
#X obj 412 470 tapedelay~;
#X obj 448 441 tgl 15 0 empty empty empty 0 -8 0 12 #fcfcfc #000000 #000000 0 1;
#X obj 469 441 tgl 15 0 empty empty empty 0 -8 0 12 #fcfcfc #000000 #000000 0 1;
#X obj 490 441 tgl 15 0 empty empty empty 0 -8 0 12 #fcfcfc #000000 #000000 0 1;
#X floatatom 449 408 5 0 0 0 - - - 0;
#X floatatom 410 409 5 0 0 0 - - - 0;
#X obj 128 487 dac~ 1;
#X obj 412 492 dac~ 2;
#X connect 1 0 18 0;
#X connect 1 1 18 1;
#X connect 3 0 27 0;
#X connect 3 0 49 0;
#X connect 4 0 6 0;
#X connect 5 0 6 2;
#X connect 6 0 3 1;
#X connect 7 0 45 0;
#X connect 8 0 38 1;
#X connect 9 0 38 4;
#X connect 10 0 38 3;
#X connect 11 0 1 0;
#X connect 12 0 16 0;
#X connect 12 1 16 1;
#X connect 13 0 56 0;
#X connect 13 0 58 0;
#X connect 14 0 15 0;
#X connect 15 0 13 1;
#X connect 16 0 13 0;
#X connect 17 0 56 0;
#X connect 17 0 58 0;
#X connect 18 0 17 0;
#X connect 19 0 20 0;
#X connect 20 0 17 1;
#X connect 21 0 23 1;
#X connect 22 0 23 2;
#X connect 24 0 6 1;
#X connect 25 0 6 4;
#X connect 26 0 38 2;
#X connect 27 0 38 0;
#X connect 28 0 29 0;
#X connect 29 0 27 1;
#X connect 30 0 33 0;
#X connect 31 0 30 0;
#X connect 33 0 35 0;
#X connect 34 0 12 2;
#X connect 35 0 12 1;
#X connect 37 0 10 0;
#X connect 38 0 11 0;
#X connect 39 0 65 0;
#X connect 40 0 39 3;
#X connect 41 0 39 4;
#X connect 42 0 39 5;
#X connect 43 0 39 2;
#X connect 44 0 39 1;
#X connect 45 0 4 0;
#X connect 46 0 47 0;
#X connect 47 0 43 0;
#X connect 48 0 3 0;
#X connect 49 0 12 0;
#X connect 50 0 52 0;
#X connect 51 0 48 0;
#X connect 52 0 51 1;
#X connect 53 0 54 0;
#X connect 53 0 51 0;
#X connect 54 0 50 0;
#X connect 55 0 52 1;
#X connect 56 0 57 0;
#X connect 57 0 2 0;
#X connect 57 1 2 1;
#X connect 58 0 39 0;
#X connect 58 1 59 0;
#X connect 59 0 66 0;
#X connect 60 0 59 3;
#X connect 61 0 59 4;
#X connect 62 0 59 5;
#X connect 63 0 59 2;
#X connect 64 0 59 1;
