#N canvas 0 0 1028 1050 12;
#X obj 155 68 phasor~;
#X obj 97 321 cos~;
#X floatatom 155 49 5 0 0 0 - - - 0;
#X obj 97 271 +~;
#X obj 215 215 *~;
#X floatatom 251 196 5 0 0 0 - - - 0;
#X obj 215 233 /~ 6.28319;
#X msg 281 214 6.28319;
#X msg 250 214 1;
#X floatatom 353 50 5 0 0 0 - - - 0;
#X obj 353 219 *~;
#X floatatom 389 200 5 0 0 0 - - - 0;
#X obj 353 237 /~ 6.28319;
#X msg 479 212 6.28319;
#X msg 446 212 1;
#X obj 97 297 +~;
#X obj 427 68 osc~;
#X floatatom 427 49 5 0 0 0 - - - 0;
#X obj 427 127 *~;
#X floatatom 445 110 5 0 0 0 - - - 0;
#X obj 427 145 /~ 6.28319;
#X msg 554 123 6.28319;
#X msg 521 123 1;
#X obj 353 175 +~, f 11;
#X obj 353 68 phasor~;
#X obj 354 200 cos~;
#X floatatom 215 49 5 0 0 0 - - - 0;
#X obj 215 68 phasor~;
#X obj 215 167 +~;
#X obj 215 191 cos~;
#X obj 432 341 line~;
#X obj 279 423 dac~;
#X obj 432 292 metro 1000;
#X obj 432 266 tgl 15 0 empty empty empty 0 -8 0 12 #fcfcfc #000000 #000000 0 1;
#X obj 341 315 line~;
#X obj 320 346 *~;
#X obj 233 147 *~ 0.001;
#X msg 432 317 1 \, 0 200;
#X obj 353 257 *~;
#X obj 381 256 tgl 15 0 empty empty empty 0 -8 0 12 #fcfcfc #000000 #000000 0 1;
#X floatatom 284 105 5 0 0 0 - - - 0;
#X obj 279 350 *~;
#X msg 341 291 1 \, 0 300;
#X obj 279 381 *~ 0.2;
#X connect 0 0 3 0;
#X connect 1 0 41 0;
#X connect 2 0 0 0;
#X connect 3 0 15 0;
#X connect 4 0 6 0;
#X connect 5 0 4 1;
#X connect 6 0 3 1;
#X connect 7 0 6 1;
#X connect 8 0 6 1;
#X connect 9 0 24 0;
#X connect 10 0 12 0;
#X connect 11 0 10 1;
#X connect 12 0 38 0;
#X connect 13 0 12 1;
#X connect 14 0 12 1;
#X connect 15 0 1 0;
#X connect 16 0 18 0;
#X connect 16 0 36 0;
#X connect 17 0 16 0;
#X connect 18 0 20 0;
#X connect 19 0 18 1;
#X connect 20 0 23 1;
#X connect 21 0 20 1;
#X connect 22 0 20 1;
#X connect 23 0 25 0;
#X connect 24 0 23 0;
#X connect 25 0 10 0;
#X connect 25 0 35 0;
#X connect 26 0 27 0;
#X connect 27 0 28 0;
#X connect 28 0 29 0;
#X connect 29 0 4 0;
#X connect 29 0 41 0;
#X connect 30 0 41 1;
#X connect 32 0 37 0;
#X connect 32 0 42 0;
#X connect 33 0 32 0;
#X connect 34 0 35 1;
#X connect 35 0 43 0;
#X connect 36 0 28 1;
#X connect 37 0 30 0;
#X connect 38 0 15 1;
#X connect 39 0 38 1;
#X connect 40 0 36 1;
#X connect 41 0 43 0;
#X connect 42 0 34 0;
#X connect 43 0 31 0;
#X connect 43 0 31 1;
