#N canvas 0 0 1140 1050 12;
#X obj 30 101 phasor~;
#X obj 75 304 cos~;
#X floatatom 25 49 5 0 0 0 - - - 0;
#X obj 75 254 +~;
#X obj 93 215 *~;
#X floatatom 129 196 5 0 0 0 - - - 0;
#X obj 93 233 /~ 6.28319;
#X msg 159 214 6.28319;
#X msg 128 214 1;
#X floatatom 231 50 5 0 0 0 - - - 0;
#X obj 231 219 *~;
#X floatatom 267 200 5 0 0 0 - - - 0;
#X obj 231 237 /~ 6.28319;
#X msg 331 219 6.28319;
#X msg 298 219 1;
#X obj 75 280 +~;
#X obj 305 68 osc~;
#X floatatom 305 49 5 0 0 0 - - - 0;
#X obj 305 127 *~;
#X floatatom 323 110 5 0 0 0 - - - 0;
#X obj 305 145 /~ 6.28319;
#X msg 405 122 6.28319;
#X msg 372 122 1;
#X obj 231 175 +~, f 11;
#X obj 231 68 phasor~;
#X obj 232 200 cos~;
#X floatatom 93 49 5 0 0 0 - - - 0;
#X obj 93 68 phasor~;
#X obj 93 167 +~;
#X obj 93 191 cos~;
#X obj 111 147 *~ 0.001;
#X obj 231 257 *~;
#X obj 259 256 tgl 15 0 empty empty empty 0 -8 0 12 #fcfcfc #000000 #000000 0 1;
#X floatatom 164 102 5 0 0 0 - - - 0;
#X text 25 17 why 6.28319;
#X obj 143 411 outlet~;
#X obj 55 76 * 2;
#X obj 153 59 * 2;
#X obj 266 33 * 2;
#X obj 238 344 *~ 1;
#X connect 0 0 3 0;
#X connect 1 0 39 0;
#X connect 1 0 35 0;
#X connect 2 0 0 0;
#X connect 2 0 36 0;
#X connect 3 0 15 0;
#X connect 4 0 6 0;
#X connect 5 0 4 1;
#X connect 6 0 3 1;
#X connect 7 0 6 1;
#X connect 8 0 6 1;
#X connect 9 0 24 0;
#X connect 9 0 38 0;
#X connect 10 0 12 0;
#X connect 11 0 10 1;
#X connect 12 0 31 0;
#X connect 13 0 12 1;
#X connect 14 0 12 1;
#X connect 15 0 1 0;
#X connect 16 0 18 0;
#X connect 16 0 30 0;
#X connect 17 0 16 0;
#X connect 18 0 20 0;
#X connect 19 0 18 1;
#X connect 20 0 23 1;
#X connect 21 0 20 1;
#X connect 22 0 20 1;
#X connect 23 0 25 0;
#X connect 24 0 23 0;
#X connect 25 0 10 0;
#X connect 25 0 39 0;
#X connect 26 0 27 0;
#X connect 26 0 37 0;
#X connect 27 0 28 0;
#X connect 28 0 29 0;
#X connect 29 0 4 0;
#X connect 29 0 39 0;
#X connect 30 0 28 1;
#X connect 31 0 15 1;
#X connect 32 0 31 1;
#X connect 33 0 30 1;
#X connect 36 0 26 0;
#X connect 37 0 9 0;
#X connect 38 0 17 0;
