#N canvas 0 0 1074 1050 12;
#X obj 202 68 hsl 128 15 0 1 0 0 empty empty empty -2 -8 0 10 #fcfcfc #000000 #000000 0 1;
#X obj 199 147 +~;
#X obj 198 217 +~ 0.25;
#X obj 276 217 +~ 1;
#X obj 118 326 *~;
#X obj 137 219 +~ 0.1;
#X text 243 20 timbre 0 - 1;
#X text 54 223 amp offset;
#X obj 78 390 overdrive~ 1;
#X obj 78 367 cycle~;
#X msg 199 90 \$1 20;
#X obj 199 117 line~;
#X obj 136 195 *~ 3;
#X text 61 132 AALTO Prototype;
#X obj 58 289 inlet~;
#X obj 78 414 outlet~;
#X obj 199 17 inlet;
#X text 40 31 0 \, audio in \; 1 \, timbre \;;
#X connect 0 0 10 0;
#X connect 1 0 2 0;
#X connect 1 0 3 0;
#X connect 1 0 12 0;
#X connect 2 0 9 1;
#X connect 3 0 8 1;
#X connect 4 0 9 1;
#X connect 5 0 4 1;
#X connect 8 0 15 0;
#X connect 9 0 8 0;
#X connect 10 0 11 0;
#X connect 11 0 1 0;
#X connect 12 0 5 0;
#X connect 14 0 4 0;
#X connect 16 0 0 0;
