#N canvas 960 0 958 1050 12;
#X obj 111 202 osc~;
#X obj 87 125 osc~ 0.1;
#X obj 115 176 +~;
#X floatatom 215 146 5 0 0 0 - - - 0;
#X obj 87 145 scale~ -1 1 0 200;
#X floatatom 106 99 5 0 0 0 - - - 0;
#X obj 138 59 loadbang;
#X msg 138 78 1;
#X obj 111 221 *~ 0.1;
#X obj 111 240 dac~;
#X msg 172 76 2000;
#X connect 0 0 8 0;
#X connect 1 0 4 0;
#X connect 2 0 0 0;
#X connect 3 0 2 1;
#X connect 4 0 2 0;
#X connect 5 0 1 0;
#X connect 6 0 7 0;
#X connect 6 0 10 0;
#X connect 7 0 5 0;
#X connect 8 0 9 0;
#X connect 8 0 9 1;
#X connect 10 0 3 0;
