#N canvas 0 28 439 1050 12;
#X obj 53 104 adc~ 1 2;
#X obj 134 422 vu 100 400 empty empty -1 -8 0 10 -66577 -1 1 0;
#X obj 52 306 dac~;
#X obj 52 218 hip~ 120;
#X obj 134 50 loadbang;
#X obj 52 268 fx/ssl-comp~;
#X obj 53 243 hip~ 120;
#X obj 155 218 hip~ 120;
#X obj 155 268 fx/ssl-comp~;
#X obj 156 243 hip~ 120;
#X obj 237 422 vu 100 400 empty empty -1 -8 0 10 -66577 -1 1 0;
#X msg 133 74 threshold -50 \, ratio 2 \, attack 10 \, release 200
\, lookahead 0 \, makeup 1, f 33;
#X connect 0 0 3 0;
#X connect 0 1 7 0;
#X connect 3 0 6 0;
#X connect 4 0 11 0;
#X connect 5 0 2 0;
#X connect 5 1 1 0;
#X connect 6 0 5 0;
#X connect 7 0 9 0;
#X connect 8 0 2 1;
#X connect 8 1 10 0;
#X connect 9 0 8 0;
#X connect 11 0 5 1;
#X connect 11 0 8 1;
