#N canvas 0 0 958 1050 12;
#X obj 65 96 loadbang;
#X obj 65 118 f \$0;
#X obj 65 149 t f f;
#X text 123 100 SAW WAVE;
#X msg 64 253 \; \$1-saw normalize 1;
#X obj 62 293 table \$0-saw;
#X msg 92 176 \; \$1-saw sinesum 512 1 0.5 0.33 0.25 0.2 0.16 0.14 0.125 0.111111 0.1 0.090909 0.083333 0.076923 0.0714285 0.066666 0.0625 0.058823 0.055555 0.052631 0.05 0.047619 0.045454 0.043478 0.041666;
#X obj 355 945 switch~;
#X obj 307 936 *~;
#X obj 351 337 t f f;
#X obj 382 919 line~;
#X obj 737 304 inlet~;
#X obj 382 897 pack 0 100;
#X obj 307 630 tabosc4~ \$0-saw;
#X obj 351 315 r \$0-bwl-osc-saw-on/off;
#X obj 225 688 tabosc4~ \$0-saw;
#X obj 267 661 tabosc4~ \$0-saw;
#X obj 429 789 *~;
#X obj 307 787 *~ 0.33;
#X obj 445 591 r \$0-bwl-osc-pwidth-s;
#X obj 445 613 t f f;
#X msg 445 635 127 \$1;
#X obj 445 657 -;
#X obj 445 679 / 127;
#X obj 445 701 pack 0 50;
#X obj 445 723 line~;
#X obj 510 679 / 127;
#X obj 510 701 pack 0 50;
#X obj 511 727 line~;
#X obj 307 813 *~;
#X obj 423 376 r \$0-bwl-osc-pwidth-s;
#X obj 423 398 * 0.00787402;
#X obj 423 442 pack 0 50;
#X obj 423 464 line~;
#X obj 423 486 +~;
#X obj 268 630 +~;
#X text 735 283 WSHAPE CV;
#X obj 225 661 +~;
#X obj 423 537 *~ 0.5;
#X obj 737 354 *~;
#X obj 805 272 r \$0-bwl-osc-cv-att-s;
#X obj 805 294 / 127;
#X obj 805 316 pack 0 50;
#X obj 805 338 line~;
#X obj 445 745 +~;
#X obj 511 749 +~;
#X obj 736 729 *~ -1;
#X obj 423 420 * 5;
#X obj 558 468 *~ 5;
#X floatatom 227 242 5 0 0 0 - - - 0;
#X obj 307 961 dac~;
#X obj 162 744 env~;
#X floatatom 162 764 5 0 0 0 - - - 0;
#X obj 276 265 mtof~;
#X obj 219 289 sig~;
#X connect 0 0 1 0;
#X connect 1 0 2 0;
#X connect 2 0 4 0;
#X connect 2 1 6 0;
#X connect 8 0 50 0;
#X connect 8 0 50 1;
#X connect 9 0 7 0;
#X connect 9 1 12 0;
#X connect 10 0 8 1;
#X connect 11 0 39 0;
#X connect 12 0 10 0;
#X connect 13 0 17 0;
#X connect 13 0 18 0;
#X connect 14 0 9 0;
#X connect 15 0 18 0;
#X connect 16 0 18 0;
#X connect 17 0 8 0;
#X connect 18 0 29 0;
#X connect 19 0 20 0;
#X connect 20 0 21 0;
#X connect 20 1 26 0;
#X connect 21 0 22 0;
#X connect 22 0 23 0;
#X connect 23 0 24 0;
#X connect 24 0 25 0;
#X connect 25 0 44 0;
#X connect 26 0 27 0;
#X connect 27 0 28 0;
#X connect 28 0 45 0;
#X connect 29 0 8 0;
#X connect 30 0 31 0;
#X connect 31 0 47 0;
#X connect 32 0 33 0;
#X connect 33 0 34 0;
#X connect 34 0 35 1;
#X connect 34 0 38 0;
#X connect 35 0 16 0;
#X connect 37 0 15 0;
#X connect 38 0 37 1;
#X connect 39 0 45 1;
#X connect 39 0 46 0;
#X connect 39 0 48 0;
#X connect 40 0 41 0;
#X connect 41 0 42 0;
#X connect 42 0 43 0;
#X connect 43 0 39 1;
#X connect 44 0 17 1;
#X connect 45 0 29 1;
#X connect 46 0 44 1;
#X connect 47 0 32 0;
#X connect 48 0 34 1;
#X connect 49 0 54 0;
#X connect 51 0 52 0;
#X connect 53 0 37 0;
#X connect 53 0 35 0;
#X connect 53 0 13 0;
#X connect 53 0 51 0;
#X connect 54 0 53 0;
