#N canvas 0 0 958 1050 10;
#X obj 59 106 inlet~;
#X obj 260 115 phasor~ 0.2;
#X obj 64 163 allpass100ms~;
#X obj 64 213 allpass100ms~;
#X obj 64 263 allpass100ms~;
#X obj 64 313 allpass100ms~;
#X obj 64 363 allpass100ms~;
#X obj 64 413 allpass100ms~;
#X obj 64 463 allpass100ms~;
#X obj 64 514 allpass100ms~;
#X obj 35 590 outlet~;
#X obj 83 560 outlet~;
#X obj 169 201 +~ 0.125;
#X obj 211 241 +~ 0.25;
#X obj 251 277 +~ 0.375;
#X obj 298 325 +~ 0.5;
#X obj 320 363 +~ 0.625;
#X obj 382 417 +~ 0.75;
#X obj 440 470 +~ 0.875;
#X floatatom 268 91 5 0 0 0 - - - 0;
#X obj 152 124 loadbang;
#X msg 149 142 0.7;
#X obj 259 145 *~ 50;
#X text 229 142 wet;
#X text 229 91 speed;
#X obj 440 493 %~ 1;
#X obj 382 435 %~ 1;
#X obj 321 382 %~ 1;
#X obj 296 342 %~ 1;
#X obj 249 294 %~ 1;
#X obj 213 258 %~ 1;
#X obj 169 219 %~ 1;
#X floatatom 307 129 5 0 0 0 - - - 0;
#X connect 0 0 2 0;
#X connect 1 0 22 0;
#X connect 2 0 3 0;
#X connect 3 0 4 0;
#X connect 3 0 8 0;
#X connect 4 0 5 0;
#X connect 5 0 6 0;
#X connect 5 0 10 0;
#X connect 6 0 7 0;
#X connect 7 0 9 0;
#X connect 9 0 11 0;
#X connect 12 0 31 0;
#X connect 13 0 30 0;
#X connect 14 0 29 0;
#X connect 15 0 28 0;
#X connect 16 0 27 0;
#X connect 17 0 26 0;
#X connect 18 0 25 0;
#X connect 19 0 1 0;
#X connect 20 0 21 0;
#X connect 21 0 3 2;
#X connect 21 0 2 2;
#X connect 21 0 4 2;
#X connect 21 0 5 2;
#X connect 21 0 7 2;
#X connect 21 0 8 2;
#X connect 21 0 9 2;
#X connect 22 0 12 0;
#X connect 22 0 13 0;
#X connect 22 0 14 0;
#X connect 22 0 15 0;
#X connect 22 0 16 0;
#X connect 22 0 17 0;
#X connect 22 0 18 0;
#X connect 22 0 2 1;
#X connect 25 0 9 1;
#X connect 26 0 8 1;
#X connect 27 0 7 1;
#X connect 28 0 6 1;
#X connect 29 0 5 1;
#X connect 30 0 4 1;
#X connect 31 0 3 1;
#X connect 32 0 22 1;
