#N canvas 0 0 1920 1052 12;
#X obj 454 236 spigot;
#X obj 551 236 spigot;
#X text 74 105 inputs:;
#X text 137 24 outputs:;
#X obj 75 126 inlet;
#X obj 144 122 inlet;
#X obj 206 122 inlet;
#X obj 272 122 inlet;
#X obj 328 122 inlet;
#X obj 386 122 inlet;
#X obj 447 124 inlet;
#X obj 514 124 inlet;
#X obj 385 380 *~ 0.5;
#X obj 91 381 *~ 0.5;
#N canvas 0 0 1362 1050 ad 0;
#X obj 150 206 inlet;
#X obj 203 206 inlet;
#X msg 207 277 \$2;
#X obj 207 302 delay;
#X obj 150 343 outlet;
#X obj 207 343 outlet;
#X obj 252 206 inlet;
#X obj 301 206 inlet;
#X msg 150 277 \$4 \$2;
#X obj 150 232 pack f f f f, f 22;
#X connect 0 0 9 0;
#X connect 1 0 9 1;
#X connect 2 0 3 0;
#X connect 3 0 5 0;
#X connect 6 0 9 2;
#X connect 7 0 9 3;
#X connect 8 0 4 0;
#X connect 9 0 8 0;
#X connect 9 0 2 0;
#X restore 231 311 pd ad;
#X f 12;
#N canvas 0 0 1362 1050 ad 0;
#X obj 150 206 inlet;
#X obj 203 206 inlet;
#X msg 207 277 \$2;
#X obj 207 302 delay;
#X obj 150 343 outlet;
#X obj 207 343 outlet;
#X obj 252 206 inlet;
#X obj 301 206 inlet;
#X msg 150 277 \$4 \$2;
#X obj 150 232 pack f f f f, f 22;
#X connect 0 0 9 0;
#X connect 1 0 9 1;
#X connect 2 0 3 0;
#X connect 3 0 5 0;
#X connect 6 0 9 2;
#X connect 7 0 9 3;
#X connect 8 0 4 0;
#X connect 9 0 8 0;
#X connect 9 0 2 0;
#X restore 75 310 pd ad;
#X f 12;
#X obj 345 277 loadmess 0;
#N canvas 0 0 1920 1048 ad 0;
#X obj 150 206 inlet;
#X obj 203 206 inlet;
#X msg 207 277 \$2;
#X obj 207 302 delay;
#X obj 150 343 outlet;
#X obj 207 343 outlet;
#X obj 252 206 inlet;
#X obj 301 206 inlet;
#X msg 150 277 \$4 \$2;
#X obj 150 230 pack f f f f, f 22;
#X connect 0 0 9 0;
#X connect 1 0 9 1;
#X connect 2 0 3 0;
#X connect 3 0 5 0;
#X connect 6 0 9 2;
#X connect 7 0 9 3;
#X connect 8 0 4 0;
#X connect 9 0 8 0;
#X connect 9 0 2 0;
#X restore 203 255 pd ad;
#X f 12;
#N canvas 0 0 1333 1050 ad 0;
#X obj 150 206 inlet;
#X obj 203 206 inlet;
#X msg 207 277 \$2;
#X obj 207 302 delay;
#X obj 150 343 outlet;
#X obj 207 343 outlet;
#X obj 252 206 inlet;
#X obj 301 206 inlet;
#X msg 150 277 \$4 \$2;
#X obj 150 232 pack f f f f, f 22;
#X connect 0 0 9 0;
#X connect 1 0 9 1;
#X connect 2 0 3 0;
#X connect 3 0 5 0;
#X connect 6 0 9 2;
#X connect 7 0 9 3;
#X connect 8 0 4 0;
#X connect 9 0 8 0;
#X connect 9 0 2 0;
#X restore 75 255 pd ad;
#X f 12;
#X obj 365 214 loadmess 1;
#X obj 75 352 line~;
#X obj 239 347 line~;
#X obj 239 415 outlet~;
#X obj 79 415 outlet~;
#X obj 357 416 outlet~;
#X obj 357 400 +~;
#X obj 183 151 max 1;
#X text 8 7 0 trigger fg1 \; 1 attack fg1 \; 2 decay fg1 \; 3 loop fg1 \;;
#X text 6 48 4 trigger fg2 \; 5 attack fg2 \; 6 decay fg2 \; 7 loop fg2 \;;
#X text 208 25 0 env fg1 \; 1 env fg2 \; 2 env fg1+fg2 \;;
#X connect 0 0 18 0;
#X connect 1 0 17 0;
#X connect 4 0 18 0;
#X connect 5 0 18 1;
#X connect 6 0 26 0;
#X connect 7 0 0 1;
#X connect 8 0 17 0;
#X connect 9 0 17 1;
#X connect 10 0 14 1;
#X connect 11 0 1 1;
#X connect 12 0 25 1;
#X connect 13 0 25 0;
#X connect 14 0 21 0;
#X connect 14 1 1 0;
#X connect 15 0 20 0;
#X connect 15 1 14 0;
#X connect 15 1 0 0;
#X connect 16 0 15 3;
#X connect 16 0 14 3;
#X connect 17 0 21 0;
#X connect 17 1 14 0;
#X connect 18 0 20 0;
#X connect 18 1 15 0;
#X connect 18 1 17 0;
#X connect 19 0 17 3;
#X connect 19 0 18 3;
#X connect 20 0 13 0;
#X connect 20 0 23 0;
#X connect 21 0 12 0;
#X connect 21 0 22 0;
#X connect 25 0 24 0;
#X connect 26 0 18 2;
#X connect 26 0 15 1;
