#N canvas 0 0 1920 1052 12;
#X obj 39 228 curve~;
#X obj 78 254 spigot;
#X text 15 66 triples of: destination \, time \, curve factor;
#X obj 188 87 inlet;
#X obj 56 91 inlet;
#X obj 98 91 inlet;
#X obj 140 91 inlet;
#X obj 14 91 inlet;
#X msg 256 163 -0.5;
#X obj 256 101 loadbang;
#X obj 39 154 pack f f f f;
#X msg 39 173 1 \$2 \$4 0 \$3 \$4;
#X obj 39 277 outlet~;
#X text 24 18 0 \, bang \; 1 \, attack \; 2 \, release 3 \, curve factor -1 to 1 probably \; 4 \, loop (0 || 1) \;;
#X obj 253 129 f \$1;
#X obj 288 130 f \$2;
#X connect 0 0 12 0;
#X connect 0 1 1 0;
#X connect 1 0 10 0;
#X connect 3 0 1 1;
#X connect 4 0 10 1;
#X connect 5 0 10 2;
#X connect 6 0 10 3;
#X connect 7 0 10 0;
#X connect 8 0 10 3;
#X connect 9 0 10 0;
#X connect 9 0 15 0;
#X connect 9 0 14 0;
#X connect 10 0 11 0;
#X connect 11 0 0 0;
#X connect 14 0 10 1;
#X connect 15 0 10 2;
