#N canvas 1248 0 334 1050 12;
#X obj 210 91 +~ 1;
#X obj 210 115 *~ 0.5;
#X obj 210 159 *~;
#X obj 171 288 *~;
#X obj 113 311 outlet~;
#X obj 30 68 inlet~;
#X text 194 235 feedback;
#X obj 260 115 inlet;
#X obj 189 249 inlet;
#X text 211 181 offset to escape in-phase;
#X obj 350 62 loadbang;
#X obj 80 94 f \$1;
#X obj 260 134 f \$2;
#X obj 189 268 f \$3;
#X obj 210 68 inlet~;
#X obj 171 206 delread4~ \$0-buffer 2000;
#X obj 171 311 delwrite~ \$0-buffer 2000;
#X obj 80 68 inlet;
#X obj 171 185 +~;
#X obj 61 43 block~ 1;
#X text 1 4 0 input \; 1 \, time \; 2 \, feedback \; 3 lfo \; 4 \, depth \;;
#X connect 0 0 1 0;
#X connect 1 0 2 0;
#X connect 2 0 18 1;
#X connect 3 0 16 0;
#X connect 5 0 16 0;
#X connect 7 0 12 0;
#X connect 8 0 13 0;
#X connect 10 0 11 0;
#X connect 10 0 12 0;
#X connect 10 0 13 0;
#X connect 11 0 18 0;
#X connect 12 0 2 1;
#X connect 13 0 3 1;
#X connect 14 0 0 0;
#X connect 15 0 3 0;
#X connect 15 0 4 0;
#X connect 17 0 11 0;
#X connect 18 0 15 0;
