#N canvas 0 0 1182 1050 12;
#X obj 53 195 osc~;
#X obj 53 214 *~;
#X obj 91 195 line~;
#X obj 109 384 dac~;
#X floatatom 53 4 5 0 0 0 - - - 0;
#X obj 53 149 +~;
#X obj 233 102 * 8;
#X obj 233 195 osc~;
#X obj 233 214 *~;
#X obj 271 195 line~;
#X obj 233 149 +~;
#X msg 271 175 \$2 \, 0 \$3;
#X floatatom 305 119 5 0 0 0 - - - 0;
#X floatatom 338 134 5 0 0 0 - - - 0;
#X floatatom 123 113 5 0 0 0 - - - 0;
#X floatatom 156 128 5 0 0 0 - - - 0;
#X obj 130 23 bng 15 250 50 0 empty empty empty 0 -8 0 12 #fcfcfc #000000 #000000;
#X obj 90 148 pack s f f;
#X msg 91 175 \$2 \, 0 \$3;
#X obj 271 154 pack s f f;
#X obj 401 192 osc~;
#X obj 401 211 *~;
#X obj 439 192 line~;
#X obj 401 146 +~;
#X msg 439 172 \$2 \, 0 \$3;
#X floatatom 473 116 5 0 0 0 - - - 0;
#X floatatom 506 131 5 0 0 0 - - - 0;
#X obj 439 151 pack s f f;
#X obj 401 99 * 4;
#X obj 351 351 matrix~ 4 4 1;
#X msg 351 306 0 0 \$1;
#X msg 416 308 0 1 \$1;
#X connect 0 0 1 0;
#X connect 2 0 1 1;
#X connect 4 0 5 0;
#X connect 4 0 6 0;
#X connect 4 0 28 0;
#X connect 5 0 0 0;
#X connect 6 0 10 0;
#X connect 7 0 8 0;
#X connect 8 0 5 1;
#X connect 8 0 23 1;
#X connect 9 0 8 1;
#X connect 10 0 7 0;
#X connect 11 0 9 0;
#X connect 12 0 19 1;
#X connect 13 0 19 2;
#X connect 14 0 17 1;
#X connect 15 0 17 2;
#X connect 16 0 17 0;
#X connect 16 0 19 0;
#X connect 16 0 27 0;
#X connect 17 0 18 0;
#X connect 18 0 2 0;
#X connect 19 0 11 0;
#X connect 20 0 21 0;
#X connect 21 0 5 1;
#X connect 22 0 21 1;
#X connect 23 0 20 0;
#X connect 24 0 22 0;
#X connect 25 0 27 1;
#X connect 26 0 27 2;
#X connect 27 0 24 0;
#X connect 28 0 23 0;
#X connect 30 0 29 0;
#X connect 31 0 29 0;
