#N canvas 0 0 958 1050 12;
#X obj 39 228 curve~;
#X obj 78 254 spigot;
#X obj 126 226 tgl 15 0 empty empty empty 0 -8 0 12 #fcfcfc #000000 #000000 0 1;
#X text 15 66 triples of: destination \, time \, curve factor;
#X obj 188 87 inlet;
#X obj 56 91 inlet;
#X obj 98 91 inlet;
#X obj 140 91 inlet;
#X obj 14 91 inlet;
#X msg 256 125 0;
#X msg 256 144 100;
#X msg 256 163 -0.5;
#X obj 256 101 loadbang;
#X obj 39 154 pack f f f f;
#X msg 39 173 1 \$2 \$4 0 \$3 \$4;
#X obj 39 277 outlet~;
#X text 19 14 0 \, bang \; 1 \, attack \; 2 \, release 3 \, curve factor -1 to 1 probably \; 4 \, loop (0 || 1) \;;
#X connect 0 0 15 0;
#X connect 0 1 1 0;
#X connect 1 0 13 0;
#X connect 2 0 1 1;
#X connect 4 0 2 0;
#X connect 5 0 13 1;
#X connect 6 0 13 2;
#X connect 7 0 13 3;
#X connect 8 0 13 0;
#X connect 9 0 10 0;
#X connect 9 0 13 1;
#X connect 10 0 11 0;
#X connect 10 0 13 2;
#X connect 11 0 13 3;
#X connect 12 0 9 0;
#X connect 12 0 13 0;
#X connect 13 0 14 0;
#X connect 14 0 0 0;
