#N canvas 960 0 478 510 12;
#X obj 174 185 vstplugin~;
#X obj 174 142 inlet~;
#X obj 174 204 outlet~;
#X msg 83 157 param_list;
#X obj 256 223 print;
#X msg 100 95 param_set 0 \$1;
#X obj 367 219 scale 0 20000 0 1;
#X obj 192 50 scale 0 20000 0 1;
#X text 55 95 cutoff;
#X text 87 264 0 \, cutoff \; 1 \, reso lp;
#X obj 216 109 loadbang;
#X msg 216 130 open -e The\ Drop.vst3;
#X connect 0 0 2 0;
#X connect 0 2 4 0;
#X connect 1 0 0 0;
#X connect 3 0 0 0;
#X connect 5 0 0 0;
#X connect 7 0 5 0;
#X connect 10 0 11 0;
#X connect 11 0 0 0;
