#N canvas 0 0 1140 1050 10;
#X obj 88 52 inlet~;
#X text 275 57 wet;
#X obj 305 32 inlet~;
#X text 570 74 todo: clicks \; maybe bc of negative lfo input? how about audible waves?;
#X obj 88 109 rpole~;
#X obj 88 84 rzero_rev~;
#X obj 88 158 rpole~;
#X obj 88 133 rzero_rev~;
#X obj 88 206 rpole~;
#X obj 88 181 rzero_rev~;
#X obj 88 255 rpole~;
#X obj 88 230 rzero_rev~;
#X obj 88 305 rpole~;
#X obj 88 280 rzero_rev~;
#X obj 88 355 rpole~;
#X obj 88 330 rzero_rev~;
#X obj 88 405 rpole~;
#X obj 88 380 rzero_rev~;
#X obj 88 455 rpole~;
#X obj 88 430 rzero_rev~;
#X obj 137 491 outlet~;
#X obj 443 97 hsl 128 15 0 1 0 0 empty empty empty -2 -8 0 12 #fcfcfc #000000 #000000 0 1;
#X obj 356 129 delread4~ fb1 100;
#X obj 298 446 delwrite~ fb1 100;
#X obj 29 26 block~ 1;
#X obj 356 92 loadbang;
#X obj 440 73 inlet;
#X obj 356 148 *~;
#X obj 305 60 *~ 1;
#X msg 356 108 0;
#X obj 298 429 *~ 0.5;
#X obj 244 457 hilbert~;
#X obj 88 491 outlet~;
#X obj 157 133 delay~ 0.125;
#X obj 156 181 delay~ 0.25;
#X obj 156 230 delay~ 0.375;
#X obj 156 280 delay~ 0.5;
#X obj 156 330 delay~ 0.625;
#X obj 156 380 delay~ 0.75;
#X obj 156 430 delay~ 0.875;
#X connect 0 0 5 0;
#X connect 2 0 28 0;
#X connect 4 0 7 0;
#X connect 5 0 4 0;
#X connect 6 0 9 0;
#X connect 7 0 6 0;
#X connect 8 0 11 0;
#X connect 9 0 8 0;
#X connect 10 0 13 0;
#X connect 10 0 20 0;
#X connect 11 0 10 0;
#X connect 12 0 15 0;
#X connect 13 0 12 0;
#X connect 14 0 17 0;
#X connect 15 0 14 0;
#X connect 16 0 19 0;
#X connect 17 0 16 0;
#X connect 18 0 32 0;
#X connect 19 0 18 0;
#X connect 21 0 27 1;
#X connect 22 0 27 0;
#X connect 25 0 29 0;
#X connect 26 0 21 0;
#X connect 27 0 5 0;
#X connect 28 0 5 1;
#X connect 28 0 4 1;
#X connect 28 0 33 0;
#X connect 28 0 34 0;
#X connect 28 0 35 0;
#X connect 28 0 36 0;
#X connect 28 0 37 0;
#X connect 28 0 38 0;
#X connect 28 0 39 0;
#X connect 29 0 22 0;
#X connect 30 0 23 0;
#X connect 33 0 7 1;
#X connect 33 0 6 1;
#X connect 34 0 9 1;
#X connect 34 0 8 1;
#X connect 35 0 11 1;
#X connect 35 0 10 1;
#X connect 36 0 13 1;
#X connect 36 0 12 1;
#X connect 37 0 15 1;
#X connect 37 0 14 1;
#X connect 38 0 17 1;
#X connect 38 0 16 1;
#X connect 39 0 19 1;
#X connect 39 0 18 1;
