#N canvas 0 0 967 1050 12;
#X obj 189 123 cos~;
#X obj 46 245 *~;
#X obj 134 246 *~;
#X obj 46 291 -~;
#X obj 46 364 outlet~;
#X obj 116 365 outlet~;
#X obj 116 292 +~;
#X text 44 390 positive;
#X text 117 391 negative;
#X obj 189 104 phasor~;
#X obj 48 74 inlet~;
#X text 47 10 0 audio \; 1 lfo speed \; 2 time left \; 3 time rigth \; 4 feedback;
#X obj 320 86 inlet;
#X text 237 36 todo: block in subpatch \;;
#X obj 189 74 inlet~;
#X obj 47 120 hilbert~;
#X obj 521 266 *~;
#X obj 338 265 *~;
#X obj 487 177 hsl 128 15 0 1 0 0 empty empty empty -2 -8 0 10 #fcfcfc #000000 #000000 0 1;
#X obj 289 385 delwrite~ \$0-fbL 400;
#X obj 438 385 delwrite~ \$0-fbR 400;
#X obj 301 129 block~ 1;
#X obj 281 177 loadbang;
#X msg 281 196 0;
#X obj 521 242 delread~ \$0-fbR 40;
#X obj 337 241 delread~ \$0-fbL 40;
#X obj 307 304 *~ 0.5;
#X connect 0 0 1 1;
#X connect 0 0 2 1;
#X connect 1 0 3 0;
#X connect 1 0 6 0;
#X connect 2 0 3 1;
#X connect 2 0 6 1;
#X connect 3 0 4 0;
#X connect 3 0 19 0;
#X connect 6 0 5 0;
#X connect 6 0 20 0;
#X connect 9 0 0 0;
#X connect 10 0 15 0;
#X connect 12 0 18 0;
#X connect 14 0 9 0;
#X connect 15 0 1 0;
#X connect 15 1 2 0;
#X connect 16 0 26 0;
#X connect 17 0 26 0;
#X connect 18 0 17 1;
#X connect 18 0 16 1;
#X connect 22 0 23 0;
#X connect 23 0 24 0;
#X connect 23 0 25 0;
#X connect 24 0 16 0;
#X connect 25 0 17 0;
#X connect 26 0 15 0;
