#N canvas 0 0 1477 1050 12;
#X floatatom 189 99 5 0 0 0 - - - 0;
#X obj 64 209 cos~;
#X obj 189 184 +~ -0.25;
#X obj 189 206 cos~;
#X obj 46 245 *~;
#X obj 134 246 *~;
#X obj 46 291 -~;
#X obj 46 364 outlet~;
#X obj 116 365 outlet~;
#X obj 116 292 +~;
#X text 44 390 positive;
#X text 117 391 negative;
#X obj 189 144 phasor~;
#X floatatom 476 180 5 0 0 0 - - - 0;
#X obj 476 226 *~;
#X obj 519 232 hsl 128 15 0 1 0 0 empty empty empty -2 -8 0 10 #fcfcfc #000000 #000000 0 1;
#X floatatom 292 179 5 0 0 0 - - - 0;
#X obj 292 225 *~;
#X obj 335 231 hsl 128 15 0 1 0 0 empty empty empty -2 -8 0 10 #fcfcfc #000000 #000000 0 1;
#X obj 48 74 inlet~;
#X obj 189 74 inlet;
#X obj 292 74 inlet;
#X obj 292 201 delread4~ \$0-fbL 40;
#X obj 476 202 delread4~ \$0-fbR 40;
#X obj 244 345 delwrite~ \$0-fbL 400;
#X obj 393 345 delwrite~ \$0-fbR 400;
#X obj 47 120 *~ 1;
#X obj 266 276 block~ 1;
#X text 47 10 0 audio \; 1 lfo speed \; 2 time left \; 3 time rigth \; 4 feedback;
#X obj 352 74 inlet;
#X obj 409 75 inlet;
#X text 237 36 todo: block in subpatch \;;
#X connect 0 0 12 0;
#X connect 1 0 4 1;
#X connect 2 0 3 0;
#X connect 3 0 5 1;
#X connect 4 0 6 0;
#X connect 4 0 9 0;
#X connect 5 0 6 1;
#X connect 5 0 9 1;
#X connect 6 0 7 0;
#X connect 6 0 24 0;
#X connect 9 0 8 0;
#X connect 9 0 25 0;
#X connect 12 0 2 0;
#X connect 12 0 1 0;
#X connect 13 0 23 0;
#X connect 14 0 5 0;
#X connect 15 0 14 1;
#X connect 16 0 22 0;
#X connect 17 0 4 0;
#X connect 18 0 17 1;
#X connect 19 0 26 0;
#X connect 20 0 0 0;
#X connect 21 0 16 0;
#X connect 22 0 17 0;
#X connect 23 0 14 0;
#X connect 26 0 4 0;
#X connect 26 0 5 0;
#X connect 29 0 13 0;
#X connect 30 0 18 0;
#X connect 30 0 15 0;
