#N canvas 0 0 1920 1052 12;
#X obj 103 125 cos~;
#X obj 47 258 outlet~;
#X obj 135 259 outlet~;
#X text 45 276 positive;
#X text 133 273 negative;
#X obj 103 106 phasor~;
#X obj 47 74 inlet~;
#X text 47 10 0 audio \; 1 lfo speed \; 2 time left \; 3 time rigth \; 4 feedback;
#X obj 179 78 inlet;
#X text 237 36 todo: block in subpatch \;;
#X obj 103 76 inlet~;
#X obj 179 97 f;
#N canvas 0 0 1920 1052 d 1;
#X obj 216 315 outlet~;
#X obj 147 85 inlet~;
#X obj 84 23 block~ 1;
#X obj 21 61 delread4~ \$0-fb 1;
#X obj 275 315 delwrite~ \$0-fb 1;
#X obj 21 23 loadbang;
#X msg 21 42 0;
#X obj 146 234 *~;
#X obj 234 235 *~;
#X obj 146 260 -~;
#X obj 216 261 +~;
#X obj 147 109 hilbert~;
#X obj 146 315 outlet~;
#X obj 252 89 inlet~ lfo;
#X obj 336 89 inlet fb;
#X obj 21 80 *~;
#X connect 1 0 11 0;
#X connect 3 0 15 0;
#X connect 5 0 6 0;
#X connect 6 0 3 0;
#X connect 7 0 9 0;
#X connect 7 0 10 0;
#X connect 8 0 9 1;
#X connect 8 0 10 1;
#X connect 9 0 12 0;
#X connect 9 0 4 0;
#X connect 10 0 0 0;
#X connect 10 0 4 0;
#X connect 11 0 7 0;
#X connect 11 1 8 0;
#X connect 13 0 7 1;
#X connect 13 0 8 1;
#X connect 14 0 15 1;
#X connect 15 0 11 0;
#X restore 47 225 pd d;
#X f 13;
#X obj 179 166 * 0.5;
#X obj 179 116 min 1;
#X obj 179 135 max -1;
#X connect 0 0 12 1;
#X connect 5 0 0 0;
#X connect 6 0 12 0;
#X connect 8 0 11 0;
#X connect 10 0 5 0;
#X connect 11 0 14 0;
#X connect 12 0 1 0;
#X connect 12 1 2 0;
#X connect 13 0 12 2;
#X connect 14 0 15 0;
#X connect 15 0 13 0;
