#N canvas 0 0 958 1050 12;
#X obj 319 123 +~ 1;
#X obj 319 147 *~ 0.5;
#X obj 319 191 *~;
#X obj 139 293 outlet~;
#X obj 139 100 inlet~;
#X obj 369 147 inlet;
#X text 320 213 offset to escape in-phase;
#X obj 254 69 loadbang;
#X obj 189 126 f \$1;
#X obj 369 166 f \$2;
#X obj 319 100 inlet~;
#X obj 189 100 inlet;
#X obj 280 217 +~;
#X text 32 138 0 input \; 1 \, time \; 2 \, feedback \; 3 lfo \; 4 \, depth \;;
#N canvas 0 0 1920 1052 d 0;
#X obj 37 156 outlet~;
#X obj 44 29 inlet~;
#X obj 94 29 inlet~;
#X obj 94 132 *~;
#X text 117 79 feedback;
#X obj 145 29 inlet;
#X obj 94 50 delread4~ \$0-buffer 100;
#X obj 94 155 delwrite~ \$0-buffer 100;
#X obj 93 6 block~ 1;
#X connect 1 0 7 0;
#X connect 2 0 6 0;
#X connect 3 0 7 0;
#X connect 5 0 3 1;
#X connect 6 0 3 0;
#X connect 6 0 0 0;
#X restore 139 265 pd d;
#X f 17;
#X obj 440 177 inlet;
#X obj 440 196 f \$3;
#X connect 0 0 1 0;
#X connect 1 0 2 0;
#X connect 2 0 12 1;
#X connect 4 0 14 0;
#X connect 5 0 9 0;
#X connect 7 0 8 0;
#X connect 7 0 9 0;
#X connect 7 0 16 0;
#X connect 8 0 12 0;
#X connect 9 0 2 1;
#X connect 10 0 0 0;
#X connect 11 0 8 0;
#X connect 12 0 14 1;
#X connect 14 0 3 0;
#X connect 15 0 16 0;
#X connect 16 0 14 2;
