#N canvas 0 0 1140 1050 12;
#X obj 63 103 rpole~;
#X obj 63 78 rzero_rev~;
#X obj 63 152 rpole~;
#X obj 63 127 rzero_rev~;
#X obj 63 200 rpole~;
#X obj 63 175 rzero_rev~;
#X obj 63 249 rpole~;
#X obj 63 224 rzero_rev~;
#X obj 45 279 +~;
#X obj 219 134 phasor~ 0.3;
#X obj 57 -249 cnv 5 5 25 empty empty Phaser 15 13 0 16 #dfdfdf #202020 0;
#X obj 219 153 -~ 0.5;
#X obj 219 172 abs~;
#X obj 219 191 *~;
#X obj 164 32 delread4~ fb 100;
#X obj 209 337 delwrite~ fb 100;
#X obj 164 51 *~ 0.1;
#X msg 164 11 0;
#X obj 219 227 expr~ 0.95 - $v1;
#X obj 45 298 outlet~;
#X obj 46 39 inlet~;
#X connect 0 0 3 0;
#X connect 1 0 0 0;
#X connect 2 0 5 0;
#X connect 3 0 2 0;
#X connect 4 0 7 0;
#X connect 5 0 4 0;
#X connect 6 0 15 0;
#X connect 6 0 8 1;
#X connect 7 0 6 0;
#X connect 8 0 19 0;
#X connect 9 0 11 0;
#X connect 11 0 12 0;
#X connect 12 0 13 0;
#X connect 12 0 13 1;
#X connect 13 0 18 0;
#X connect 14 0 16 0;
#X connect 16 0 1 0;
#X connect 17 0 14 0;
#X connect 18 0 1 1;
#X connect 18 0 0 1;
#X connect 18 0 3 1;
#X connect 18 0 2 1;
#X connect 18 0 5 1;
#X connect 18 0 4 1;
#X connect 18 0 7 1;
#X connect 18 0 6 1;
#X connect 20 0 1 0;
#X connect 20 0 8 0;
