#N canvas 0 0 1920 1052 12;
#N canvas 0 0 958 1050 chord 0;
#X obj 82 99 -~ 0.5;
#X obj 82 153 clip~ -0.5 0.5;
#X obj 82 184 cos~;
#X obj 216 267 hip~ 5;
#X obj 216 330 outlet~;
#X obj 82 126 *~ 3;
#X obj 82 74 phasor~ 220;
#X obj 216 99 -~ 0.5;
#X obj 216 153 clip~ -0.5 0.5;
#X obj 216 184 cos~;
#X obj 216 126 *~ 3;
#X obj 351 102 -~ 0.5;
#X obj 351 156 clip~ -0.5 0.5;
#X obj 351 187 cos~;
#X obj 351 129 *~ 3;
#X obj 486 102 -~ 0.5;
#X obj 486 156 clip~ -0.5 0.5;
#X obj 486 187 cos~;
#X obj 486 129 *~ 3;
#X obj 216 74 phasor~ 251;
#X obj 351 77 phasor~ 281;
#X obj 486 77 phasor~ 311;
#X text 236 34 test sound for phaser;
#X obj 216 300 *~ 0.2;
#X connect 0 0 5 0;
#X connect 1 0 2 0;
#X connect 2 0 3 0;
#X connect 3 0 23 0;
#X connect 5 0 1 0;
#X connect 6 0 0 0;
#X connect 7 0 10 0;
#X connect 8 0 9 0;
#X connect 9 0 3 0;
#X connect 10 0 8 0;
#X connect 11 0 14 0;
#X connect 12 0 13 0;
#X connect 13 0 3 0;
#X connect 14 0 12 0;
#X connect 15 0 18 0;
#X connect 16 0 17 0;
#X connect 17 0 3 0;
#X connect 18 0 16 0;
#X connect 19 0 7 0;
#X connect 20 0 11 0;
#X connect 21 0 15 0;
#X connect 23 0 4 0;
#X restore 80 304 pd chord;
#X obj 79 576 output~;
#X obj 97 368 rpole~;
#X obj 97 343 rzero_rev~;
#X obj 97 417 rpole~;
#X obj 97 392 rzero_rev~;
#X obj 97 465 rpole~;
#X obj 97 440 rzero_rev~;
#X obj 97 514 rpole~;
#X obj 97 489 rzero_rev~;
#X obj 79 544 +~;
#X obj 253 399 phasor~ 0.3;
#X text 44 188 Many variations of this have been used. A more pronounced effect can be got by using 12 all-pass filters and adding the outputs of the 4th \, 8th \, and 12th one to the original. Various stereo configurations are possible. Some designers have used 6 instead of the 4 stages used here. Controls are often added to set the frequency of sweeping and the range of the all-pass coefficients., f 66;
#X text 36 78 The phaser ranks \, along with fuzz and wah-wah \, as one of the great guitar pedals. A phaser adds an all-pass filtered copy of a signal to the original \, causing phase reinforcement and cancellation at frequencies that depend on the all-pass coefficients. In this example the coefficients range from 0.88 to 0.98 \, controlled by a [phasor~] object (no relation). The [phasor~] is converted to a triangle wave (abs($v1-0.5)) and then nonlinearly mapped into a suitable range., f 66;
#X obj 91 16 cnv 5 5 25 empty empty Phaser 15 13 0 16 #dfdfdf #202020 0;
#X obj 253 418 -~ 0.5;
#X obj 253 437 abs~;
#X obj 253 456 *~;
#X obj 371 432 cyclone/snapshot~ 50;
#X floatatom 371 451 5 0 0 0 - - - 0;
#X obj 325 566 delread4~ fb 100;
#X obj 243 602 delwrite~ fb 100;
#X obj 325 585 *~ 0.1;
#X obj 411 534 hsl 128 15 0 1 0 0 empty empty empty -2 -8 0 12 #fcfcfc #000000 #000000 0 1;
#X msg 326 545 0;
#X floatatom 262 368 5 0 0 0 - - - 0;
#X obj 253 492 expr~ 0.95 - $v1;
#X obj 622 343 allpass100ms~;
#X obj 622 383 allpass100ms~;
#X obj 622 423 allpass100ms~;
#X obj 622 453 allpass100ms~;
#X obj 604 509 output~;
#X obj 604 485 +~;
#X obj 713 274 *~ 0.1;
#X obj 799 223 hsl 128 15 0 1 0 0 empty empty empty -2 -8 0 12 #fcfcfc #000000 #000000 0 1;
#X msg 714 234 0;
#X obj 713 255 delread4~ fb1 100;
#X obj 631 291 delwrite~ fb1 100;
#X obj 549 264 *~ 5;
#X msg 739 391 0.5;
#X connect 0 0 3 0;
#X connect 0 0 10 0;
#X connect 0 0 27 0;
#X connect 0 0 32 0;
#X connect 2 0 5 0;
#X connect 3 0 2 0;
#X connect 4 0 7 0;
#X connect 5 0 4 0;
#X connect 6 0 9 0;
#X connect 7 0 6 0;
#X connect 8 0 21 0;
#X connect 8 0 10 1;
#X connect 9 0 8 0;
#X connect 10 0 1 0;
#X connect 11 0 15 0;
#X connect 15 0 16 0;
#X connect 16 0 17 0;
#X connect 16 0 17 1;
#X connect 17 0 18 0;
#X connect 17 0 26 0;
#X connect 18 0 19 0;
#X connect 20 0 22 0;
#X connect 22 0 3 0;
#X connect 23 0 22 1;
#X connect 24 0 20 0;
#X connect 25 0 11 0;
#X connect 26 0 3 1;
#X connect 26 0 2 1;
#X connect 26 0 5 1;
#X connect 26 0 4 1;
#X connect 26 0 7 1;
#X connect 26 0 6 1;
#X connect 26 0 9 1;
#X connect 26 0 8 1;
#X connect 26 0 38 0;
#X connect 27 0 28 0;
#X connect 28 0 29 0;
#X connect 29 0 30 0;
#X connect 30 0 32 1;
#X connect 30 0 37 0;
#X connect 32 0 31 0;
#X connect 33 0 27 0;
#X connect 34 0 33 1;
#X connect 35 0 36 0;
#X connect 36 0 33 0;
#X connect 38 0 27 1;
#X connect 38 0 28 1;
#X connect 38 0 29 1;
#X connect 38 0 30 1;
#X connect 39 0 27 2;
#X connect 39 0 28 2;
#X connect 39 0 29 2;
#X connect 39 0 30 2;
