#N canvas 0 0 1477 1050 12;
#X obj 285 96 inlet~;
#X obj 352 92 inlet~;
#X obj 302 214 hilbert~;
#X obj 351 293 *~;
#X obj 391 293 *~;
#X obj 431 204 delread4~ \$0-rm 10;
#X obj 439 294 delwrite~ \$0-rm 10;
#X obj 402 317 *~ 0.5;
#X obj 431 223 *~;
#X obj 509 229 block~ 1;
#X obj 351 333 outlet~;
#X obj 419 344 outlet~;
#X text 173 36 0 \, signal \; 1 \, modulator \; 2 \, fb \;;
#X obj 412 148 loadbang;
#X obj 499 103 inlet;
#X msg 419 178 1;
#X connect 0 0 2 0;
#X connect 1 0 3 1;
#X connect 1 0 4 1;
#X connect 2 0 3 0;
#X connect 2 1 4 0;
#X connect 3 0 7 0;
#X connect 3 0 10 0;
#X connect 4 0 7 0;
#X connect 4 0 11 0;
#X connect 5 0 8 0;
#X connect 7 0 6 0;
#X connect 8 0 2 0;
#X connect 13 0 15 0;
#X connect 14 0 8 1;
#X connect 15 0 5 0;
