#N canvas 0 0 958 1050 12;
#X obj 294 56 inlet;
#X obj 516 554 line~;
#X obj 516 500 pack s f;
#X obj 367 495 line;
#X obj 367 547 +;
#X floatatom 367 571 10 0 0 0 - - - 0;
#X obj 768 247 * 0.4;
#X obj 367 447 pack s f f;
#X msg 367 470 \$2 \, 0 \$3;
#X msg 516 528 1 \, 0 \$2;
#X obj 699 879 outlet~;
#X obj 699 822 overdrive~ 5;
#X obj 608 879 outlet~;
#X obj 607 822 overdrive~ 5;
#X obj 515 829 outlet~;
#X obj 294 534 mscale;
#X msg 1219 243 2 4 5 7 9 11 12;
#X msg 1219 215 0 2 3 5 7 8 10;
#X text 1163 140 scales \;;
#X obj 1163 166 sel 0 1;
#X obj 1219 139 loadbang;
#X obj 926 217 bng 19 250 50 0 empty empty empty 0 -10 0 12 #fcfcfc #000000 #000000;
#X text 513 474 AMP ENV;
#X text 380 421 FILTER ENV;
#X text 463 830 center;
#X text 603 899 left out;
#X text 693 899 right out;
#X obj 926 166 > 0.5;
#X obj 926 190 change;
#N canvas 29 870 1920 989 oscillators 0;
#X obj 349 401 svf~ 4000 0.6;
#X obj 488 332 phasor~;
#X obj 418 332 phasor~;
#X obj 348 332 phasor~;
#X obj 417 309 *~ 1.01;
#X obj 487 309 *~ 1.02;
#X obj 347 309 *~ 0.99;
#X obj 349 364 *~ 0.2;
#X obj 136 404 svf~ 4000 0.6;
#X obj 276 332 phasor~;
#X obj 206 332 phasor~;
#X obj 136 332 phasor~;
#X obj 135 364 *~ 0.2;
#X obj 205 309 *~ 0.98;
#X obj 275 309 *~ 1.03;
#X obj 135 309 *~ 0.95;
#X text 52 316 left oscs;
#X text 341 254 right oscs;
#X obj 135 198 inlet;
#X obj 135 479 outlet~;
#X obj 350 479 outlet~;
#X obj 525 216 inlet;
#X obj 625 216 inlet;
#X obj 135 443 *~;
#X obj 350 443 *~;
#X obj 731 304 inlet~;
#X obj 842 326 - 12;
#X obj 842 350 mtof;
#X obj 842 374 osc~;
#X obj 842 432 *~;
#X text 492 198 cutoff;
#X text 616 196 q;
#X text 725 280 amp;
#X text 832 290 sub;
#X obj 842 486 outlet~;
#X obj 135 232 mtof;
#X obj 502 258 * 1.3;
#X obj 842 456 hip~ 30;
#X connect 0 0 24 0;
#X connect 1 0 7 0;
#X connect 2 0 7 0;
#X connect 3 0 7 0;
#X connect 4 0 2 0;
#X connect 5 0 1 0;
#X connect 6 0 3 0;
#X connect 7 0 0 0;
#X connect 8 0 23 0;
#X connect 9 0 12 0;
#X connect 10 0 12 0;
#X connect 11 0 12 0;
#X connect 12 0 8 0;
#X connect 13 0 10 0;
#X connect 14 0 9 0;
#X connect 15 0 11 0;
#X connect 18 0 35 0;
#X connect 18 0 26 0;
#X connect 21 0 8 1;
#X connect 21 0 36 0;
#X connect 22 0 0 2;
#X connect 22 0 8 2;
#X connect 23 0 19 0;
#X connect 24 0 20 0;
#X connect 25 0 24 1;
#X connect 25 0 23 1;
#X connect 25 0 29 1;
#X connect 26 0 27 0;
#X connect 27 0 28 0;
#X connect 28 0 29 0;
#X connect 29 0 37 0;
#X connect 35 0 15 0;
#X connect 35 0 13 0;
#X connect 35 0 14 0;
#X connect 35 0 6 0;
#X connect 35 0 4 0;
#X connect 35 0 5 0;
#X connect 36 0 0 1;
#X connect 37 0 34 0;
#X restore 294 671 pd oscillators;
#X f 32;
#X text 570 693 sub level;
#N canvas 824 158 958 980 delay 0;
#X obj 66 95 inlet~;
#X obj 222 97 inlet~;
#X obj 349 121 random 500;
#X obj 349 145 + 50;
#X obj 349 197 *~ 0.6;
#X obj 350 227 svf~ 3000 0.4;
#X text 39 70 left del;
#X obj 349 173 delread~ delayL 2000;
#X obj 66 349 delwrite~ delayL 2000;
#X obj 221 349 delwrite~ delayR 2000;
#X obj 579 133 random 500;
#X obj 579 157 + 50;
#X obj 579 209 *~ 0.6;
#X obj 768 160 osc~ 0.05;
#X obj 579 233 svf~ 3000 0.4;
#X obj 768 184 scale~ -1 1 500 6000;
#X text 769 136 filter lfo \;;
#X obj 579 185 delread~ delayR 2000;
#X obj 349 90 inlet;
#X obj 351 271 outlet~;
#X obj 580 271 outlet~;
#X text 205 70 right del;
#X obj 768 90 inlet;
#X connect 0 0 8 0;
#X connect 1 0 9 0;
#X connect 2 0 3 0;
#X connect 3 0 7 0;
#X connect 4 0 5 0;
#X connect 4 0 8 0;
#X connect 5 0 19 0;
#X connect 7 0 4 0;
#X connect 10 0 11 0;
#X connect 11 0 17 0;
#X connect 12 0 14 0;
#X connect 12 0 9 0;
#X connect 13 0 15 0;
#X connect 14 0 20 0;
#X connect 15 0 14 1;
#X connect 15 0 5 1;
#X connect 17 0 12 0;
#X connect 18 0 10 0;
#X connect 18 0 2 0;
#X connect 22 0 13 0;
#X restore 814 822 pd delay;
#N canvas 1141 402 1920 989 chorus 0;
#X obj 289 62 inlet;
#X obj 93 62 inlet~;
#X obj 289 329 outlet~;
#X obj 289 200 cyclone/snapshot~ 5;
#X text 293 123 chorus \;;
#X obj 289 254 *~ 0.6;
#X obj 289 146 osc~ 0.1;
#X obj 289 170 scale~ -1 1 5 50;
#X obj 289 229 delread~ chorusL 2000;
#X obj 464 200 cyclone/snapshot~ 5;
#X obj 464 254 *~ 0.6;
#X obj 464 170 scale~ -1 1 10 40;
#X obj 33 62 inlet~;
#X obj 33 368 delwrite~ chorusR 2000;
#X obj 92 329 delwrite~ chorusL 2000;
#X obj 464 229 delread~ chorusR 2000;
#X obj 464 117 * 1.2;
#X obj 464 329 outlet~;
#X obj 464 146 osc~ 0.12;
#X connect 0 0 6 0;
#X connect 0 0 16 0;
#X connect 1 0 14 0;
#X connect 3 0 8 0;
#X connect 5 0 2 0;
#X connect 5 0 14 0;
#X connect 6 0 7 0;
#X connect 7 0 3 0;
#X connect 8 0 5 0;
#X connect 9 0 15 0;
#X connect 10 0 17 0;
#X connect 10 0 13 0;
#X connect 11 0 9 0;
#X connect 12 0 13 0;
#X connect 15 0 10 0;
#X connect 16 0 18 0;
#X connect 18 0 11 0;
#X restore 924 822 pd chorus;
#X obj 1084 166 * 7;
#X floatatom 845 166 5 0 0 0 - - - 0;
#X floatatom 1005 166 5 0 0 0 - - - 0;
#X obj 610 138 scale 0 1 0 0.8;
#X obj 452 166 sel 127;
#X floatatom 531 166 5 0 0 0 - - - 0;
#X obj 531 190 * 120;
#X obj 531 274 *;
#X obj 541 223 t b f;
#X floatatom 531 250 5 0 0 0 - - - 0;
#X obj 768 190 pow 2;
#X obj 1347 92 loadmess 12;
#X obj 689 190 pow 2;
#X obj 689 166 * 125;
#X obj 1255 92 loadmess 0.4;
#X text 249 464 SOUND;
#X text 230 169 CONTROL;
#X obj 516 693 *~;
#X obj 294 91 route note rootNote velocity cutoff q filterenv decay bassLevel randomDelay delFiltLfo chorusSpeed scala, f 136;
#X floatatom 294 262 5 0 0 0 - - - 0;
#X obj 768 217 + 50;
#X obj 768 166 * 30;
#X obj 294 367 +;
#X obj 210 262 loadmess 40;
#X obj 1433 92 loadmess 0.5;
#X obj 1326 583 r pdOnlyBpm;
#X obj 1266 710 metro;
#X floatatom 1298 684 5 0 0 0 - - - 0;
#X obj 1266 773 spigot;
#X obj 1305 755 tgl 15 0 empty empty empty 17 7 0 10 #fcfcfc #000000 #000000 0 1;
#X obj 1190 710 loadmess 1;
#X floatatom 1284 509 5 0 0 0 - - - 0;
#X floatatom 1134 644 5 0 0 0 - - - 0;
#X obj 1134 667 t b f;
#X obj 1134 620 counter 12;
#X msg 1134 557 max \$1;
#X text 1229 359 arpeggio;
#X obj 1134 533 * 24;
#X obj 516 579 slide~ 20 20;
#X obj 1284 606 t b f;
#X obj 1298 659 /;
#X floatatom 1326 606 5 0 0 0 - - - 0;
#X obj 452 132 spigot;
#X obj 517 642 selector~ 2 1, f 17;
#X msg 1266 734 127;
#X msg 1499 260 1;
#X msg 1585 276 0;
#X msg 1667 256 1;
#X msg 1677 302 0;
#X msg 632 579 1 \, 1 1;
#X obj 632 603 line~;
#X floatatom 1557 348 5 0 0 0 - - - 0;
#X floatatom 1515 348 5 0 0 0 - - - 0;
#X obj 1284 454 int;
#X obj 1284 430 * 10;
#X obj 1284 478 min 9;
#X obj 1499 182 > 0.5;
#X obj 1499 206 change;
#X obj 1499 230 sel 1;
#X obj 1659 182 > 0.5;
#X obj 1659 206 change;
#X obj 1659 230 sel 1;
#X obj 1397 152 > 0.5;
#X obj 1397 176 change;
#X obj 1397 200 sel 1;
#X obj 1647 127 loadmess 1;
#X msg 1397 235 2;
#X obj 1150 590 loadmess 2;
#X obj 1169 533 loadmess 0;
#X obj 1206 389 loadmess 0;
#X obj 1403 549 text define -k divider;
#A set 1 \; 2 \; 3 \; 4 \; 6 \; 8 \; 12 \; 16 \; 24 \; 32 \;;
#X obj 1284 549 text get divider;
#X floatatom 1284 583 5 0 0 0 - - - 0;
#X floatatom 439 472 5 0 0 0 - - - 0;
#X floatatom 367 519 5 0 0 0 - - - 0;
#X obj 439 495 t b f;
#X obj 1284 389 r synthLeadArpSpeed;
#X obj 1066 497 r synthLeadArpMaxPitchShift;
#X obj 1659 158 r synthLeadEuclidOn;
#X obj 1499 158 r synthLeadArpOn;
#X obj 1397 128 r synthLeadHoldNote;
#X obj 1429 235 loadbang;
#X floatatom 241 566 5 0 0 0 - - - 0;
#X connect 0 0 51 0;
#X connect 1 0 71 0;
#X connect 2 0 9 0;
#X connect 3 0 107 0;
#X connect 4 0 5 0;
#X connect 5 0 29 1;
#X connect 6 0 7 2;
#X connect 7 0 8 0;
#X connect 8 0 3 0;
#X connect 9 0 1 0;
#X connect 11 0 10 0;
#X connect 13 0 12 0;
#X connect 15 0 29 0;
#X connect 15 0 115 0;
#X connect 16 0 15 2;
#X connect 17 0 15 2;
#X connect 19 0 17 0;
#X connect 19 1 16 0;
#X connect 20 0 17 0;
#X connect 21 0 31 2;
#X connect 27 0 28 0;
#X connect 28 0 21 0;
#X connect 29 0 14 0;
#X connect 29 0 13 0;
#X connect 29 0 31 0;
#X connect 29 0 32 0;
#X connect 29 1 14 0;
#X connect 29 1 11 0;
#X connect 29 1 31 1;
#X connect 29 1 32 1;
#X connect 29 2 50 0;
#X connect 31 0 12 0;
#X connect 31 1 10 0;
#X connect 32 0 12 0;
#X connect 32 1 10 0;
#X connect 33 0 32 2;
#X connect 34 0 50 1;
#X connect 35 0 31 3;
#X connect 36 0 29 2;
#X connect 37 0 2 0;
#X connect 37 0 7 0;
#X connect 38 0 39 0;
#X connect 39 0 42 0;
#X connect 39 0 41 0;
#X connect 40 0 106 0;
#X connect 41 0 42 0;
#X connect 41 1 40 1;
#X connect 42 0 40 0;
#X connect 43 0 53 0;
#X connect 44 0 43 0;
#X connect 45 0 7 1;
#X connect 46 0 45 0;
#X connect 47 0 46 0;
#X connect 50 0 14 0;
#X connect 51 0 52 0;
#X connect 51 1 15 1;
#X connect 51 2 75 0;
#X connect 51 3 38 0;
#X connect 51 4 36 0;
#X connect 51 5 46 0;
#X connect 51 6 54 0;
#X connect 51 7 34 0;
#X connect 51 8 27 0;
#X connect 51 9 35 0;
#X connect 51 10 33 0;
#X connect 51 11 19 0;
#X connect 52 0 55 0;
#X connect 53 0 2 1;
#X connect 53 0 6 0;
#X connect 54 0 43 0;
#X connect 55 0 15 0;
#X connect 56 0 52 0;
#X connect 57 0 54 0;
#X connect 57 0 38 0;
#X connect 58 0 74 0;
#X connect 59 0 77 0;
#X connect 60 0 59 1;
#X connect 61 0 67 0;
#X connect 61 0 37 0;
#X connect 62 0 61 1;
#X connect 63 0 59 0;
#X connect 64 0 104 0;
#X connect 65 0 66 0;
#X connect 66 0 52 0;
#X connect 66 1 55 1;
#X connect 67 0 65 0;
#X connect 68 0 67 0;
#X connect 70 0 68 0;
#X connect 71 0 76 1;
#X connect 72 0 74 0;
#X connect 72 1 73 1;
#X connect 73 0 60 0;
#X connect 74 0 73 0;
#X connect 75 0 37 0;
#X connect 76 0 29 3;
#X connect 77 0 61 0;
#X connect 78 0 79 0;
#X connect 78 0 84 0;
#X connect 78 0 76 0;
#X connect 79 0 85 0;
#X connect 80 0 81 0;
#X connect 80 0 85 0;
#X connect 80 0 76 0;
#X connect 81 0 84 0;
#X connect 82 0 83 0;
#X connect 83 0 76 2;
#X connect 84 0 62 0;
#X connect 85 0 75 1;
#X connect 86 0 88 0;
#X connect 87 0 86 0;
#X connect 88 0 64 0;
#X connect 89 0 90 0;
#X connect 90 0 91 0;
#X connect 91 0 78 0;
#X connect 92 0 93 0;
#X connect 93 0 94 0;
#X connect 94 0 80 0;
#X connect 95 0 96 0;
#X connect 96 0 97 0;
#X connect 97 0 99 0;
#X connect 98 0 92 0;
#X connect 99 0 79 0;
#X connect 99 0 81 0;
#X connect 99 0 76 0;
#X connect 99 0 82 0;
#X connect 100 0 67 1;
#X connect 101 0 68 0;
#X connect 102 0 64 0;
#X connect 104 0 105 0;
#X connect 105 0 72 0;
#X connect 106 0 108 0;
#X connect 107 0 4 0;
#X connect 108 0 107 0;
#X connect 108 1 4 1;
#X connect 109 0 87 0;
#X connect 110 0 70 0;
#X connect 111 0 92 0;
#X connect 112 0 89 0;
#X connect 113 0 95 0;
#X connect 114 0 99 0;
