#N canvas 0 0 1920 1052 12;
#X obj 215 292 vcf~, f 21;
#X obj 287 237 inlet;
#X obj 359 262 inlet;
#X obj 215 396 outlet~;
#X obj 287 262 sig~;
#X obj 93 179 inlet;
#X obj 93 257 line~;
#X text 27 231 Amp Env;
#X msg 93 231 1 \, 0 \$2;
#X obj 146 178 inlet;
#X obj 215 320 *~;
#X obj 215 358 hip~ 8000;
#X obj 215 378 hip~ 8000;
#X obj 216 162 +~;
#X obj 216 193 phasor~;
#X obj 277 167 noise~;
#X obj 277 192 *~ 0.4;
#X obj 215 339 degrade~;
#X obj 408 262 inlet;
#X obj 458 262 inlet;
#X obj 93 209 pack s f;
#X obj 307 47 phasor~ 12000;
#X obj 307 72 *~ 2000;
#X obj 216 76 loadbang;
#X msg 216 99 200;
#X text 88 77 0 bang \; 1 decay \; 2 cutoff \; 3 q \;;
#X connect 0 0 10 0;
#X connect 1 0 4 0;
#X connect 2 0 0 2;
#X connect 4 0 0 1;
#X connect 5 0 20 0;
#X connect 6 0 10 1;
#X connect 8 0 6 0;
#X connect 9 0 20 1;
#X connect 10 0 17 0;
#X connect 11 0 12 0;
#X connect 12 0 3 0;
#X connect 13 0 14 0;
#X connect 14 0 0 0;
#X connect 15 0 16 0;
#X connect 16 0 0 0;
#X connect 17 0 11 0;
#X connect 18 0 17 1;
#X connect 19 0 17 2;
#X connect 20 0 8 0;
#X connect 21 0 22 0;
#X connect 22 0 13 1;
#X connect 23 0 24 0;
#X connect 24 0 13 0;
