#N canvas 0 0 1140 1050 12;
#X obj 235 474 soundfiler;
#X symbolatom 367 510 10 0 0 0 - - - 0;
#N canvas 0 50 450 250 (subpatch) 0;
#X array array1 154631 float 2;
#X coords 0 1 154631 -1 200 140 1;
#X restore 317 26 graph;
#N canvas 0 50 450 250 (subpatch) 0;
#X array array2 154631 float 2;
#X coords 0 1 154631 -1 200 140 1;
#X restore 100 20 graph;
#X msg 235 449 read -resize \$1 array1 array2;
#X obj 511 528 tabread4~ array1;
#X obj 555 560 tabread4~ array2;
#X floatatom 235 494 10 0 0 0 - - - 0;
#X obj 511 602 dac~;
#X obj 235 426 openpanel;
#X obj 235 403 bng 15 250 50 0 empty empty empty 0 -8 0 12 #fcfcfc #000000 #000000;
#X obj 235 513 / 480000;
#X msg 364 597 0 \, \$2 \$1;
#X obj 551 428 cyclone/snapshot~ 50;
#X floatatom 551 447 5 0 0 0 - - - 0;
#X obj 364 578 pak f f;
#X obj 282 546 sampstoms~;
#X floatatom 290 584 5 0 0 0 - - - 0;
#X floatatom 366 555 5 0 0 0 - - - 0;
#X obj 613 308 r playing;
#X obj 546 395 spigot;
#X obj 613 327 change;
#X floatatom 613 346 5 0 0 0 - - - 0;
#X obj 506 481 cyclone/line~;
#X obj 688 324 r isplay;
#X obj 727 430 sel 1;
#X obj 688 362 change;
#X obj 651 382 == 0;
#X obj 697 392 &&;
#X connect 0 0 7 0;
#X connect 4 0 0 0;
#X connect 4 0 1 0;
#X connect 5 0 8 0;
#X connect 6 0 8 1;
#X connect 7 0 11 0;
#X connect 7 0 16 0;
#X connect 7 0 18 0;
#X connect 9 0 4 0;
#X connect 10 0 9 0;
#X connect 12 0 23 0;
#X connect 13 0 14 0;
#X connect 15 0 12 0;
#X connect 16 1 17 0;
#X connect 17 0 15 0;
#X connect 18 0 15 1;
#X connect 19 0 21 0;
#X connect 20 0 18 0;
#X connect 20 0 17 0;
#X connect 21 0 22 0;
#X connect 22 0 27 0;
#X connect 23 0 5 0;
#X connect 23 0 6 0;
#X connect 23 1 20 0;
#X connect 24 0 20 1;
#X connect 24 0 26 0;
#X connect 25 0 17 0;
#X connect 25 0 18 0;
#X connect 26 0 28 1;
#X connect 27 0 28 0;
#X connect 28 0 25 0;
