#N canvas 0 0 1477 1050 12;
#X declare -stdpath ./;
#X floatatom 306 395 5 0 0 0 - dur - 0;
#X floatatom 251 395 5 0 0 0 - pitch - 0;
#X text 208 396 pitch;
#X obj 197 507 output~;
#X obj 118 302 bng 19 250 50 0 empty empty empty 0 -6 0 8 #dfdfdf #000000 #000000;
#X obj 410 519 declare -stdpath ./;
#X msg 118 334 all bang;
#X obj 197 466 clone 11 partial;
#X msg 251 430 all \$1;
#X msg 306 430 all \$1;
#X obj 422 330 text define -k partials;
#A set 0 1 1 0.56 0 \; 1 0.67 0.9 0.56 1 \; 2 1 0.65 0.92 0 \; 3 1.8 0.55 0.92 1.7 \; 4 2.67 0.32 1.19 0 \; 5 1.67 0.35 1.7 0 \; 6 1.46 0.25 2 0 \; 7 1.33 0.2 2.74 0 \; 8 1.33 0.15 3 0 \; 9 1 0.1 3.76 0 \; 10 1.33 0.075 4.07 0;
#X obj 197 350 text sequence partials;
#X msg 197 314 line 0 \, bang;
#X text 53 302 play -->;
#X obj 306 250 loadbang;
#X text 36 75 This patch demonstrates using an abstraction \, [partial] \, to make a simple additive synthesis instrument originally from Jean-Claude Risset., f 78;
#X text 36 115 We use [clone] to create 11 copies of the abstraction and send list messages from a [text] object whose arguments are: instance number \, amplitude \, relative duration \, relative frequency and detuning frequency - click [text define] to see this. The usage of [text] is merely cosmetical as it's less polluted than using many messages in a message box. All the messages in [text define] are "dumped" with [text sequence]. You set absolute duration and pitch using the number box controls below. Click the bang to make sound., f 78;
#X text 446 306 click to open:;
#X obj 139 23 cnv 5 5 25 empty empty Additive\ Synthesis 15 13 0 16 #dfdfdf #202020 0;
#X text 351 395 duration (ms);
#X msg 306 286 \; pitch 72 \; dur 4000;
#X obj 649 203 osc~;
#X obj 701 218 osc~;
#X obj 741 218 osc~;
#X obj 781 218 osc~;
#X obj 821 218 osc~;
#X obj 861 218 osc~;
#X obj 901 218 osc~;
#X obj 941 218 osc~;
#X obj 659 241 *~;
#X obj 701 237 *~;
#X obj 741 237 *~;
#X obj 781 237 *~;
#X obj 821 237 *~;
#X obj 861 237 *~;
#X obj 901 237 *~;
#X obj 941 237 *~;
#N canvas 0 50 450 250 (subpatch) 0;
#X array freq 8 float 3;
#A 0 191.536 309.002 202.215 223.572 266.287 298.323 330.359 330.359;
#X coords 0 3000 8 10 200 140 1 0 0;
#X restore 1141 119 graph;
#X obj 685 169 bucket 8, f 43;
#X obj 752 76 bng 15 250 50 0 empty empty empty 0 -8 0 12 #fcfcfc #000000 #000000;
#X obj 790 77 uzi 8 0;
#X floatatom 685 188 5 0 0 0 - - - 0;
#X obj 895 124 tabread array1;
#X floatatom 894 100 5 0 0 0 - - - 0;
#X floatatom 895 143 5 0 0 0 - - - 0;
#X floatatom 739 194 5 0 0 0 - - - 0;
#X floatatom 787 190 5 0 0 0 - - - 0;
#X floatatom 834 193 5 0 0 0 - - - 0;
#X floatatom 878 195 5 0 0 0 - - - 0;
#X floatatom 940 186 5 0 0 0 - - - 0;
#X floatatom 993 194 5 0 0 0 - - - 0;
#N canvas 0 50 450 250 (subpatch) 0;
#X array vol 8 float 3;
#A 0 0.892856 0.90357 0.882142 0.832144 0.717858 0.514295 0.964283 0.800005;
#X coords 0 1 8 0 200 140 1 0 0;
#X restore 1128 303 graph;
#X obj 1016 123 bng 15 250 50 0 empty empty empty 0 -8 0 12 #fcfcfc #000000 #000000;
#X obj 1113 124 uzi 8 0;
#X obj 1014 153 tabread vol;
#X obj 997 220 bucket 8, f 43;
#X floatatom 1013 276 5 0 0 0 - - - 0;
#X obj 822 112 metro 100;
#X obj 848 92 tgl 15 0 empty empty empty 0 -8 0 12 #fcfcfc #000000 #000000 0 1;
#X obj 821 352 *~;
#X obj 821 371 outlet~;
#X obj 962 326 inlet~;
#X obj 692 106 tabread freq;
#X obj 959 351 rampsmooth~ 20 20;
#X obj 1123 77 bng 15 250 50 0 empty empty empty 0 -8 0 12 #fcfcfc #000000 #000000;
#X connect 0 0 9 0;
#X connect 1 0 8 0;
#X connect 4 0 6 0;
#X connect 6 0 7 0;
#X connect 7 0 3 0;
#X connect 8 0 7 1;
#X connect 9 0 7 2;
#X connect 11 0 7 0;
#X connect 12 0 11 0;
#X connect 14 0 12 0;
#X connect 14 0 20 0;
#X connect 21 0 29 0;
#X connect 22 0 30 0;
#X connect 23 0 31 0;
#X connect 24 0 32 0;
#X connect 25 0 33 0;
#X connect 26 0 34 0;
#X connect 27 0 35 0;
#X connect 28 0 36 0;
#X connect 29 0 59 0;
#X connect 30 0 59 0;
#X connect 31 0 59 0;
#X connect 32 0 59 0;
#X connect 33 0 59 0;
#X connect 34 0 59 0;
#X connect 35 0 59 0;
#X connect 36 0 59 0;
#X connect 38 0 21 0;
#X connect 38 0 41 0;
#X connect 38 1 22 0;
#X connect 38 1 45 0;
#X connect 38 2 23 0;
#X connect 38 2 46 0;
#X connect 38 3 24 0;
#X connect 38 3 47 0;
#X connect 38 4 25 0;
#X connect 38 4 48 0;
#X connect 38 5 26 0;
#X connect 38 6 27 0;
#X connect 38 6 49 0;
#X connect 38 7 28 0;
#X connect 38 7 50 0;
#X connect 39 0 40 0;
#X connect 40 2 62 0;
#X connect 42 0 44 0;
#X connect 43 0 42 0;
#X connect 52 0 53 0;
#X connect 53 2 54 0;
#X connect 54 0 55 0;
#X connect 55 0 29 1;
#X connect 55 0 56 0;
#X connect 55 1 30 1;
#X connect 55 2 31 1;
#X connect 55 3 32 1;
#X connect 55 4 33 1;
#X connect 55 5 34 1;
#X connect 55 6 35 1;
#X connect 55 7 36 1;
#X connect 57 0 39 0;
#X connect 57 0 52 0;
#X connect 58 0 57 0;
#X connect 59 0 60 0;
#X connect 61 0 63 0;
#X connect 62 0 38 0;
#X connect 63 0 59 1;
#X connect 64 0 39 0;
#X connect 64 0 52 0;
