#N canvas 0 0 967 1048 12;
#X obj 96 28 inlet;
#X obj 231 528 outlet~;
#X obj 265 220 curve~;
#X obj 202 423 svf~ 1000 0.2;
#X obj 202 449 svf~ 1000 0.2;
#X obj 231 502 *~;
#X obj 186 33 inlet~;
#X obj 305 51 inlet;
#X obj 196 102 sel 0;
#X text 185 16 cutoff;
#X obj 245 33 inlet~;
#X text 244 16 q;
#X obj 348 51 inlet;
#X obj 266 335 *~;
#X obj 266 368 +~;
#X obj 436 58 inlet;
#X obj 266 240 rampsmooth~ 20 20;
#X obj 265 169 pack f f f;
#X msg 265 145 1;
#X msg 265 194 1 \$2 -0.5 0 \$3 -0.5;
#N canvas 0 0 1920 1052 liraOSC 0;
#X obj 12 87 phasor~;
#X obj 195 67 *~;
#X obj 12 210 +~;
#N canvas 0 0 992 1050 1/Fs 0;
#X obj 12 54 samplerate~;
#X obj 12 12 loadbang;
#X msg 12 75 1 \$1;
#X obj 12 96 /;
#X msg 12 33 bang;
#X obj 12 117 outlet;
#X connect 0 0 2 0;
#X connect 1 0 4 0;
#X connect 2 0 3 0;
#X connect 3 0 5 0;
#X connect 4 0 0 0;
#X restore 210 41 pd 1/Fs;
#X text 12 422 http://www.martin-finke.de/blog/articles/audio-plugins-018-polyblep-oscillator/;
#X text 12 402 https://github.com/enzienaudio/heavylib/tree/master/hv.osc;
#N canvas 0 0 1920 1052 polyblep 0;
#X obj 167 225 -~;
#X obj 230 127 -~;
#X obj 230 12 sig~ 1;
#X obj 177 74 /~;
#X obj 167 252 outlet~;
#X obj 12 173 *~;
#X obj 162 173 *~;
#X obj 12 90 *~;
#X obj 162 147 -~;
#X obj 47 54 inlet~;
#X text 47 34 (I1) Phase;
#X obj 12 147 -~ 1;
#X obj 177 120 -~ 1;
#X text 245 38 (I2) Normalised Frequency;
#X obj 32 199 *~;
#X obj 182 199 *~;
#N canvas 1389 528 164 179 >=~ 0;
#X obj 47 64 -~;
#X obj 47 85 clip~ -1e-37 0;
#X obj 12 12 inlet~;
#X obj 62 12 inlet~;
#X obj 47 148 outlet~;
#X obj 47 127 *~ 1e+37;
#X obj 12 38 min~;
#X obj 47 106 +~ 1e-37;
#X connect 0 0 1 0;
#X connect 1 0 7 0;
#X connect 2 0 6 0;
#X connect 3 0 6 1;
#X connect 3 0 0 1;
#X connect 5 0 4 0;
#X connect 6 0 0 0;
#X connect 7 0 5 0;
#X restore 197 153 pd >=~;
#N canvas 0 0 960 1050 <=~ 0;
#X obj 41 60 -~;
#X obj 41 81 clip~ -1e-37 0;
#X obj 12 12 inlet~;
#X obj 62 12 inlet~;
#X obj 41 144 outlet~;
#X obj 41 123 *~ 1e+37;
#X obj 41 38 min~;
#X obj 41 102 +~ 1e-37;
#X connect 0 0 1 0;
#X connect 1 0 7 0;
#X connect 2 0 6 0;
#X connect 2 0 0 1;
#X connect 3 0 6 1;
#X connect 5 0 4 0;
#X connect 6 0 0 0;
#X connect 7 0 5 0;
#X restore 47 173 pd <=~;
#X obj 245 58 inlet~;
#X connect 0 0 4 0;
#X connect 1 0 16 1;
#X connect 2 0 3 0;
#X connect 2 0 1 0;
#X connect 3 0 7 1;
#X connect 3 0 12 0;
#X connect 5 0 14 0;
#X connect 6 0 15 0;
#X connect 7 0 8 0;
#X connect 7 0 11 0;
#X connect 8 0 6 0;
#X connect 8 0 6 1;
#X connect 9 0 7 0;
#X connect 9 0 17 0;
#X connect 9 0 16 0;
#X connect 11 0 5 0;
#X connect 11 0 5 1;
#X connect 12 0 8 1;
#X connect 14 0 0 0;
#X connect 15 0 0 1;
#X connect 16 0 15 1;
#X connect 17 0 14 1;
#X connect 18 0 1 1;
#X connect 18 0 3 1;
#X connect 18 0 17 1;
#X restore 132 149 pd polyblep;
#N canvas 0 0 1920 1052 normalize 0;
#X obj 12 75 outlet~;
#X obj 12 12 inlet~;
#X obj 12 54 -~ 1;
#X obj 12 33 *~ 2;
#X connect 1 0 3 0;
#X connect 2 0 0 0;
#X connect 3 0 2 0;
#X restore 12 149 pd normalize;
#X text 12 11 (I1) Frequency;
#X text 12 452 https://github.com/cfloisand/pd-externals;
#X obj 172 205 +~;
#X obj 157 310 outlet~;
#N canvas 0 0 1920 1052 polyblep 0;
#X obj 167 225 -~;
#X obj 230 127 -~;
#X obj 230 12 sig~ 1;
#X obj 177 74 /~;
#X obj 167 252 outlet~;
#X obj 12 173 *~;
#X obj 162 173 *~;
#X obj 12 90 *~;
#X obj 162 147 -~;
#X obj 47 54 inlet~;
#X text 47 34 (I1) Phase;
#X obj 12 147 -~ 1;
#X obj 177 120 -~ 1;
#X text 245 38 (I2) Normalised Frequency;
#X obj 32 199 *~;
#X obj 182 199 *~;
#N canvas 1389 528 164 179 >=~ 0;
#X obj 47 64 -~;
#X obj 47 85 clip~ -1e-37 0;
#X obj 12 12 inlet~;
#X obj 62 12 inlet~;
#X obj 47 148 outlet~;
#X obj 47 127 *~ 1e+37;
#X obj 12 38 min~;
#X obj 47 106 +~ 1e-37;
#X connect 0 0 1 0;
#X connect 1 0 7 0;
#X connect 2 0 6 0;
#X connect 3 0 6 1;
#X connect 3 0 0 1;
#X connect 5 0 4 0;
#X connect 6 0 0 0;
#X connect 7 0 5 0;
#X restore 197 153 pd >=~;
#N canvas 1221 655 166 185 <=~ 0;
#X obj 41 60 -~;
#X obj 41 81 clip~ -1e-37 0;
#X obj 12 12 inlet~;
#X obj 62 12 inlet~;
#X obj 41 144 outlet~;
#X obj 41 123 *~ 1e+37;
#X obj 41 38 min~;
#X obj 41 102 +~ 1e-37;
#X connect 0 0 1 0;
#X connect 1 0 7 0;
#X connect 2 0 6 0;
#X connect 2 0 0 1;
#X connect 3 0 6 1;
#X connect 5 0 4 0;
#X connect 6 0 0 0;
#X connect 7 0 5 0;
#X restore 47 173 pd <=~;
#X obj 245 58 inlet~;
#X connect 0 0 4 0;
#X connect 1 0 16 1;
#X connect 2 0 3 0;
#X connect 2 0 1 0;
#X connect 3 0 7 1;
#X connect 3 0 12 0;
#X connect 5 0 14 0;
#X connect 6 0 15 0;
#X connect 7 0 8 0;
#X connect 7 0 11 0;
#X connect 8 0 6 0;
#X connect 8 0 6 1;
#X connect 9 0 7 0;
#X connect 9 0 17 0;
#X connect 9 0 16 0;
#X connect 11 0 5 0;
#X connect 11 0 5 1;
#X connect 12 0 8 1;
#X connect 14 0 0 0;
#X connect 15 0 0 1;
#X connect 16 0 15 1;
#X connect 17 0 14 1;
#X connect 18 0 1 1;
#X connect 18 0 3 1;
#X connect 18 0 17 1;
#X restore 172 179 pd polyblep;
#N canvas 0 0 1920 1052 normalize 0;
#X obj 12 75 outlet~;
#X obj 12 12 inlet~;
#X obj 12 54 -~ 1;
#X obj 12 33 *~ 2;
#X connect 1 0 3 0;
#X connect 2 0 0 0;
#X connect 3 0 2 0;
#X restore 258 189 pd normalize;
#X obj 258 119 +~;
#X obj 258 145 wrap~;
#X obj 157 226 -~;
#X obj 157 247 +~;
#X obj 333 102 samphold~;
#X obj 335 38 clip~ 0 1;
#X obj 344 231 *~ 2;
#X msg 397 69 reset;
#X obj 157 268 -~ 1;
#X text 12 382 References:;
#X obj 12 30 inlet~;
#X obj 12 60 abs~;
#X text 157 330 (O1) Square;
#X obj 157 289 *~ 0.59;
#X obj 594 187 line~;
#X obj 544 182 osc~ 3;
#X obj 666 257 sig~ 0.53125;
#X obj 544 203 *~;
#X obj 594 145 r \$1-s-vibrato;
#X obj 570 35 r \$1-seed;
#X obj 570 56 +;
#X obj 544 -15 loadbang;
#X obj 638 40 f \$2;
#X obj 544 6 t b b;
#X msg 570 77 seed \$1;
#X obj 590 287 *~ 0.025;
#X obj 544 119 / 1000;
#X obj 544 98 random 1001;
#X obj 544 161 + 0.5;
#X obj 544 140 * 3;
#X msg 594 166 \$1 23.22;
#X obj 12 262 outlet~;
#X connect 0 0 7 0;
#X connect 0 0 6 0;
#X connect 0 0 14 0;
#X connect 0 0 18 1;
#X connect 1 0 6 1;
#X connect 1 0 12 1;
#X connect 2 0 16 0;
#X connect 2 0 45 0;
#X connect 3 0 1 1;
#X connect 6 0 2 1;
#X connect 7 0 2 0;
#X connect 10 0 16 1;
#X connect 12 0 10 0;
#X connect 13 0 10 1;
#X connect 14 0 15 0;
#X connect 15 0 13 0;
#X connect 15 0 12 0;
#X connect 16 0 17 0;
#X connect 17 0 22 0;
#X connect 18 0 14 1;
#X connect 18 0 20 0;
#X connect 19 0 18 0;
#X connect 20 0 17 1;
#X connect 21 0 18 0;
#X connect 22 0 27 0;
#X connect 24 0 25 0;
#X connect 25 0 1 0;
#X connect 25 0 0 0;
#X connect 27 0 11 0;
#X connect 28 0 31 1;
#X connect 29 0 31 0;
#X connect 30 0 19 0;
#X connect 31 0 39 0;
#X connect 32 0 44 0;
#X connect 33 0 34 0;
#X connect 34 0 38 0;
#X connect 35 0 37 0;
#X connect 36 0 34 1;
#X connect 37 0 41 0;
#X connect 37 1 36 0;
#X connect 38 0 41 0;
#X connect 39 0 19 0;
#X connect 40 0 43 0;
#X connect 41 0 40 0;
#X connect 42 0 29 0;
#X connect 43 0 42 0;
#X connect 44 0 28 0;
#X restore 88 141 pd liraOSC;
#X obj 88 117 mtof~;
#X obj 93 93 sig~;
#X text 289 34 attack;
#X text 351 33 decay;
#X text 430 39 filter env;
#X obj 146 273 *~;
#X obj 517 52 inlet~;
#X obj 184 276 *~;
#X obj 195 345 *~ 0.5;
#X obj 579 52 inlet~;
#N canvas 0 0 1920 1052 liraOSC 0;
#X obj 12 87 phasor~;
#X obj 195 67 *~;
#X obj 12 210 +~;
#N canvas 0 0 992 1050 1/Fs 0;
#X obj 12 54 samplerate~;
#X obj 12 12 loadbang;
#X msg 12 75 1 \$1;
#X obj 12 96 /;
#X msg 12 33 bang;
#X obj 12 117 outlet;
#X connect 0 0 2 0;
#X connect 1 0 4 0;
#X connect 2 0 3 0;
#X connect 3 0 5 0;
#X connect 4 0 0 0;
#X restore 210 41 pd 1/Fs;
#X text 12 422 http://www.martin-finke.de/blog/articles/audio-plugins-018-polyblep-oscillator/;
#X text 12 402 https://github.com/enzienaudio/heavylib/tree/master/hv.osc;
#N canvas 0 0 1920 1052 polyblep 0;
#X obj 167 225 -~;
#X obj 230 127 -~;
#X obj 230 12 sig~ 1;
#X obj 177 74 /~;
#X obj 167 252 outlet~;
#X obj 12 173 *~;
#X obj 162 173 *~;
#X obj 12 90 *~;
#X obj 162 147 -~;
#X obj 47 54 inlet~;
#X text 47 34 (I1) Phase;
#X obj 12 147 -~ 1;
#X obj 177 120 -~ 1;
#X text 245 38 (I2) Normalised Frequency;
#X obj 32 199 *~;
#X obj 182 199 *~;
#N canvas 1389 528 164 179 >=~ 0;
#X obj 47 64 -~;
#X obj 47 85 clip~ -1e-37 0;
#X obj 12 12 inlet~;
#X obj 62 12 inlet~;
#X obj 47 148 outlet~;
#X obj 47 127 *~ 1e+37;
#X obj 12 38 min~;
#X obj 47 106 +~ 1e-37;
#X connect 0 0 1 0;
#X connect 1 0 7 0;
#X connect 2 0 6 0;
#X connect 3 0 6 1;
#X connect 3 0 0 1;
#X connect 5 0 4 0;
#X connect 6 0 0 0;
#X connect 7 0 5 0;
#X restore 197 153 pd >=~;
#N canvas 0 0 960 1050 <=~ 0;
#X obj 41 60 -~;
#X obj 41 81 clip~ -1e-37 0;
#X obj 12 12 inlet~;
#X obj 62 12 inlet~;
#X obj 41 144 outlet~;
#X obj 41 123 *~ 1e+37;
#X obj 41 38 min~;
#X obj 41 102 +~ 1e-37;
#X connect 0 0 1 0;
#X connect 1 0 7 0;
#X connect 2 0 6 0;
#X connect 2 0 0 1;
#X connect 3 0 6 1;
#X connect 5 0 4 0;
#X connect 6 0 0 0;
#X connect 7 0 5 0;
#X restore 47 173 pd <=~;
#X obj 245 58 inlet~;
#X connect 0 0 4 0;
#X connect 1 0 16 1;
#X connect 2 0 3 0;
#X connect 2 0 1 0;
#X connect 3 0 7 1;
#X connect 3 0 12 0;
#X connect 5 0 14 0;
#X connect 6 0 15 0;
#X connect 7 0 8 0;
#X connect 7 0 11 0;
#X connect 8 0 6 0;
#X connect 8 0 6 1;
#X connect 9 0 7 0;
#X connect 9 0 17 0;
#X connect 9 0 16 0;
#X connect 11 0 5 0;
#X connect 11 0 5 1;
#X connect 12 0 8 1;
#X connect 14 0 0 0;
#X connect 15 0 0 1;
#X connect 16 0 15 1;
#X connect 17 0 14 1;
#X connect 18 0 1 1;
#X connect 18 0 3 1;
#X connect 18 0 17 1;
#X restore 132 149 pd polyblep;
#N canvas 0 0 1920 1052 normalize 0;
#X obj 12 75 outlet~;
#X obj 12 12 inlet~;
#X obj 12 54 -~ 1;
#X obj 12 33 *~ 2;
#X connect 1 0 3 0;
#X connect 2 0 0 0;
#X connect 3 0 2 0;
#X restore 12 149 pd normalize;
#X text 12 11 (I1) Frequency;
#X text 12 452 https://github.com/cfloisand/pd-externals;
#X obj 172 205 +~;
#X obj 157 310 outlet~;
#N canvas 0 0 1920 1052 polyblep 0;
#X obj 167 225 -~;
#X obj 230 127 -~;
#X obj 230 12 sig~ 1;
#X obj 177 74 /~;
#X obj 167 252 outlet~;
#X obj 12 173 *~;
#X obj 162 173 *~;
#X obj 12 90 *~;
#X obj 162 147 -~;
#X obj 47 54 inlet~;
#X text 47 34 (I1) Phase;
#X obj 12 147 -~ 1;
#X obj 177 120 -~ 1;
#X text 245 38 (I2) Normalised Frequency;
#X obj 32 199 *~;
#X obj 182 199 *~;
#N canvas 1389 528 164 179 >=~ 0;
#X obj 47 64 -~;
#X obj 47 85 clip~ -1e-37 0;
#X obj 12 12 inlet~;
#X obj 62 12 inlet~;
#X obj 47 148 outlet~;
#X obj 47 127 *~ 1e+37;
#X obj 12 38 min~;
#X obj 47 106 +~ 1e-37;
#X connect 0 0 1 0;
#X connect 1 0 7 0;
#X connect 2 0 6 0;
#X connect 3 0 6 1;
#X connect 3 0 0 1;
#X connect 5 0 4 0;
#X connect 6 0 0 0;
#X connect 7 0 5 0;
#X restore 197 153 pd >=~;
#N canvas 1221 655 166 185 <=~ 0;
#X obj 41 60 -~;
#X obj 41 81 clip~ -1e-37 0;
#X obj 12 12 inlet~;
#X obj 62 12 inlet~;
#X obj 41 144 outlet~;
#X obj 41 123 *~ 1e+37;
#X obj 41 38 min~;
#X obj 41 102 +~ 1e-37;
#X connect 0 0 1 0;
#X connect 1 0 7 0;
#X connect 2 0 6 0;
#X connect 2 0 0 1;
#X connect 3 0 6 1;
#X connect 5 0 4 0;
#X connect 6 0 0 0;
#X connect 7 0 5 0;
#X restore 47 173 pd <=~;
#X obj 245 58 inlet~;
#X connect 0 0 4 0;
#X connect 1 0 16 1;
#X connect 2 0 3 0;
#X connect 2 0 1 0;
#X connect 3 0 7 1;
#X connect 3 0 12 0;
#X connect 5 0 14 0;
#X connect 6 0 15 0;
#X connect 7 0 8 0;
#X connect 7 0 11 0;
#X connect 8 0 6 0;
#X connect 8 0 6 1;
#X connect 9 0 7 0;
#X connect 9 0 17 0;
#X connect 9 0 16 0;
#X connect 11 0 5 0;
#X connect 11 0 5 1;
#X connect 12 0 8 1;
#X connect 14 0 0 0;
#X connect 15 0 0 1;
#X connect 16 0 15 1;
#X connect 17 0 14 1;
#X connect 18 0 1 1;
#X connect 18 0 3 1;
#X connect 18 0 17 1;
#X restore 172 179 pd polyblep;
#N canvas 0 0 1920 1052 normalize 0;
#X obj 12 75 outlet~;
#X obj 12 12 inlet~;
#X obj 12 54 -~ 1;
#X obj 12 33 *~ 2;
#X connect 1 0 3 0;
#X connect 2 0 0 0;
#X connect 3 0 2 0;
#X restore 258 189 pd normalize;
#X obj 258 119 +~;
#X obj 258 145 wrap~;
#X obj 157 226 -~;
#X obj 157 247 +~;
#X obj 333 102 samphold~;
#X obj 335 38 clip~ 0 1;
#X obj 344 231 *~ 2;
#X msg 397 69 reset;
#X obj 157 268 -~ 1;
#X text 12 382 References:;
#X obj 12 30 inlet~;
#X obj 45 55 abs~;
#X text 157 330 (O1) Square;
#X obj 157 289 *~ 0.59;
#X obj 594 187 line~;
#X obj 544 182 osc~ 3;
#X obj 666 257 sig~ 0.53125;
#X obj 544 203 *~;
#X obj 594 145 r \$1-s-vibrato;
#X obj 570 35 r \$1-seed;
#X obj 570 56 +;
#X obj 544 -15 loadbang;
#X obj 638 40 f \$2;
#X obj 544 6 t b b;
#X msg 570 77 seed \$1;
#X obj 590 287 *~ 0.025;
#X obj 544 119 / 1000;
#X obj 544 98 random 1001;
#X obj 544 161 + 0.5;
#X obj 544 140 * 3;
#X msg 594 166 \$1 23.22;
#X obj 11 245 *~ 0.59;
#X obj 11 264 outlet~;
#X connect 0 0 7 0;
#X connect 0 0 6 0;
#X connect 0 0 14 0;
#X connect 0 0 18 1;
#X connect 1 0 6 1;
#X connect 1 0 12 1;
#X connect 2 0 16 0;
#X connect 2 0 45 0;
#X connect 3 0 1 1;
#X connect 6 0 2 1;
#X connect 7 0 2 0;
#X connect 10 0 16 1;
#X connect 12 0 10 0;
#X connect 13 0 10 1;
#X connect 14 0 15 0;
#X connect 15 0 13 0;
#X connect 15 0 12 0;
#X connect 16 0 17 0;
#X connect 17 0 22 0;
#X connect 18 0 14 1;
#X connect 18 0 20 0;
#X connect 19 0 18 0;
#X connect 20 0 17 1;
#X connect 21 0 18 0;
#X connect 22 0 27 0;
#X connect 24 0 25 0;
#X connect 25 0 0 0;
#X connect 25 0 1 0;
#X connect 27 0 11 0;
#X connect 28 0 31 1;
#X connect 29 0 31 0;
#X connect 30 0 19 0;
#X connect 31 0 39 0;
#X connect 32 0 44 0;
#X connect 33 0 34 0;
#X connect 34 0 38 0;
#X connect 35 0 37 0;
#X connect 36 0 34 1;
#X connect 37 0 41 0;
#X connect 37 1 36 0;
#X connect 38 0 41 0;
#X connect 39 0 19 0;
#X connect 40 0 43 0;
#X connect 41 0 40 0;
#X connect 42 0 29 0;
#X connect 43 0 42 0;
#X connect 44 0 28 0;
#X connect 45 0 46 0;
#X restore 6 152 pd liraOSC;
#X obj 26 92 - 12;
#X obj 26 111 sig~;
#X obj 26 130 mtof~;
#X obj 52 211 *~;
#X obj 638 53 inlet~;
#X obj 202 471 svf~ 1000 0;
#X obj 705 54 inlet~;
#X text 714 36 hpf;
#X text 635 30 sub on/off;
#X text 575 29 square togg;
#X text 514 31 saw toggle;
#X obj 95 56 unpack f f;
#X connect 0 0 43 0;
#X connect 2 0 16 0;
#X connect 3 0 4 0;
#X connect 4 0 37 0;
#X connect 5 0 1 0;
#X connect 6 0 14 1;
#X connect 7 0 17 1;
#X connect 8 1 18 0;
#X connect 10 0 3 2;
#X connect 10 0 4 2;
#X connect 12 0 17 2;
#X connect 13 0 14 0;
#X connect 14 0 3 1;
#X connect 14 0 4 1;
#X connect 15 0 13 1;
#X connect 16 0 13 0;
#X connect 16 0 5 1;
#X connect 17 0 19 0;
#X connect 18 0 17 0;
#X connect 19 0 2 0;
#X connect 20 0 26 0;
#X connect 20 1 28 0;
#X connect 21 0 20 0;
#X connect 22 0 21 0;
#X connect 26 0 29 0;
#X connect 27 0 26 1;
#X connect 28 0 29 0;
#X connect 29 0 3 0;
#X connect 30 0 28 1;
#X connect 31 1 35 0;
#X connect 32 0 33 0;
#X connect 33 0 34 0;
#X connect 34 0 31 0;
#X connect 35 0 29 0;
#X connect 36 0 35 1;
#X connect 37 1 5 0;
#X connect 38 0 37 1;
#X connect 43 0 22 0;
#X connect 43 0 32 0;
#X connect 43 1 8 0;
