#N canvas 0 0 1074 1050 12;
#X obj 52 776 outlet~;
#X obj 1258 112 r \$0-s-feedback;
#X obj 1259 149 / 127;
#X msg 1257 311 \$1 23.22;
#X obj 1257 332 line~;
#N canvas 0 0 1920 1052 hyper-lfo 0;
#X obj 12 179 phasor~;
#X obj 292 418 phasor~;
#X obj 197 339 *~;
#X obj 197 402 *~;
#X obj 212 381 r \$0-s-link;
#N canvas 0 28 960 1050 triangle-lfo 0;
#X obj 12 211 /~ 2;
#X obj 12 12 inlet~;
#X obj 33 38 loadbang;
#X msg 33 59 1;
#X obj 33 80 -~;
#X obj 12 101 min~;
#X obj 12 122 *~ 4;
#X obj 12 143 -~ 1;
#X obj 179 38 inlet~;
#X obj 200 64 loadbang;
#X msg 200 85 1;
#X obj 200 106 -~;
#X obj 179 127 min~;
#X obj 179 148 *~ 4;
#X obj 179 169 -~ 1;
#X obj 12 232 s~ \$0-del-tri 0;
#X connect 0 0 15 0;
#X connect 1 0 4 1;
#X connect 1 0 5 0;
#X connect 2 0 3 0;
#X connect 3 0 4 0;
#X connect 4 0 5 1;
#X connect 5 0 6 0;
#X connect 6 0 7 0;
#X connect 7 0 0 0;
#X connect 8 0 11 1;
#X connect 8 0 12 0;
#X connect 9 0 10 0;
#X connect 10 0 11 0;
#X connect 11 0 12 1;
#X connect 12 0 13 0;
#X connect 13 0 14 0;
#X connect 14 0 0 0;
#X restore 12 474 pd triangle-lfo;
#N canvas 994 28 924 540 square-lfo 0;
#X obj 179 74 *~ 1000;
#X obj 179 95 clip~ -1 1;
#X obj 12 111 *~;
#X obj 12 174 *~;
#X obj 27 132 r \$0-s-andor;
#X obj 27 153 == 0;
#X obj 179 179 *~;
#X obj 194 158 r \$0-s-andor;
#X obj 211 211 snapshot~;
#X obj 179 127 /~ 2;
#X obj 211 232 change;
#X obj 211 274 s \$0-r-led;
#X obj 12 195 +~;
#X obj 12 12 inlet~;
#X obj 179 32 inlet~;
#X obj 12 221 s~ \$0-sqr-lfo 0;
#X obj 280 143 s~ \$0-del-sqr 0;
#X obj 211 191 bang~;
#X obj 211 253 sel 1 -1;
#X obj 179 53 cos~;
#X connect 0 0 1 0;
#X connect 1 0 2 1;
#X connect 1 0 9 0;
#X connect 2 0 3 0;
#X connect 3 0 12 0;
#X connect 4 0 5 0;
#X connect 5 0 3 1;
#X connect 6 0 12 1;
#X connect 7 0 6 1;
#X connect 8 0 10 0;
#X connect 9 0 6 0;
#X connect 9 0 16 0;
#X connect 10 0 18 0;
#X connect 12 0 8 0;
#X connect 12 0 15 0;
#X connect 13 0 2 0;
#X connect 13 0 9 0;
#X connect 14 0 19 0;
#X connect 17 0 8 0;
#X connect 18 0 11 0;
#X connect 18 1 11 0;
#X connect 19 0 0 0;
#X restore 72 434 pd square-lfo;
#X obj 72 226 *~ 1000;
#X obj 72 247 clip~ -1 1;
#X obj 12 12 r \$0-s-f-a;
#X obj 12 33 / 127;
#X obj 12 95 - 75;
#X obj 12 116 mtof;
#X obj 12 158 line~;
#X obj 292 198 / 127;
#X obj 292 260 - 75;
#X obj 292 281 mtof;
#X obj 292 323 line~;
#X obj 292 177 r \$0-s-f-b;
#X obj 292 219 pow 2;
#X obj 292 239 * 127;
#X obj 12 54 pow 2;
#X obj 12 74 * 127;
#X obj 197 360 /~ 2;
#X obj 72 205 cos~;
#X msg 12 137 \$1 23.22;
#X msg 292 302 \$1 23.22;
#X connect 0 0 5 0;
#X connect 0 0 24 0;
#X connect 1 0 5 1;
#X connect 1 0 6 1;
#X connect 2 0 23 0;
#X connect 3 0 1 0;
#X connect 4 0 3 1;
#X connect 7 0 8 0;
#X connect 8 0 2 0;
#X connect 8 0 6 0;
#X connect 9 0 10 0;
#X connect 10 0 21 0;
#X connect 11 0 12 0;
#X connect 12 0 25 0;
#X connect 13 0 0 0;
#X connect 14 0 19 0;
#X connect 15 0 16 0;
#X connect 16 0 26 0;
#X connect 17 0 2 1;
#X connect 17 0 1 0;
#X connect 18 0 14 0;
#X connect 19 0 20 0;
#X connect 20 0 15 0;
#X connect 21 0 22 0;
#X connect 22 0 11 0;
#X connect 23 0 3 0;
#X connect 24 0 7 0;
#X connect 25 0 13 0;
#X connect 26 0 17 0;
#X restore 879 594 pd hyper-lfo;
#X obj 709 765 cnv 19 95 20 empty empty MOD-DELAY 12 11 0 14 #000000 #fcfcfc 0;
#X obj 674 740 hradio 19 1 0 2 \$0-s-lfo-wav \$0-r-lfo-wav TRI 0 -8 0 14 #000000 #fcfcfc #000000 0;
#X obj 674 704 hradio 19 1 0 3 \$0-s-del-mod \$0-r-del-mod SELF 0 -7 0 14 #000000 #fcfcfc #000000 0;
#X obj 742 666 hsl 95 19 0 127 0 0 \$0-s-time-2 \$0-r-time-2 TIME-2 23 -7 0 14 #000000 #fcfcfc #000000 0 1;
#X obj 677 666 hsl 54 19 0 127 0 0 \$0-s-mod-2 \$0-r-mod-2 MOD-2 6 -7 0 14 #000000 #fcfcfc #000000 0 1;
#X obj 742 630 hsl 95 19 0 127 0 0 \$0-s-time-1 \$0-r-time-1 TIME-1 23 -8 0 14 #000000 #fcfcfc #000000 0 1;
#X obj 677 630 hsl 54 19 0 127 0 0 \$0-s-mod-1 \$0-r-mod-1 MOD-1 6 -7 0 14 #000000 #fcfcfc #000000 0 1;
#X obj 721 724 cnv 3 3 24 empty empty empty 20 12 0 14 #000000 #404040 0;
#X obj 713 748 cnv 3 11 3 empty empty empty 20 12 0 14 #000000 #404040 0;
#X obj 742 740 hsl 95 19 0 127 0 0 \$0-s-del-mix \$0-r-del-mix MIX 35 -7 0 14 #000000 #fcfcfc #000000 0 1;
#X obj 742 704 hsl 95 19 0 127 0 0 \$0-s-feedback \$0-r-feedback FEEDBACK 16 -7 0 14 #000000 #fcfcfc #000000 0 1;
#X obj 1321 203 t f f;
#X obj 1321 224 * 2;
#X msg 1321 245 2 \$1;
#X obj 1321 266 pow;
#X obj 1321 287 *;
#X obj 1378 87 tgl 25 0 empty empty empty 17 7 0 10 #191919 #e1e1e1 #e1e1e1 0 1;
#X obj 1410 155 - 1;
#X obj 1410 181 abs;
#X obj 1258 197 spigot;
#X obj 1321 183 spigot;
#X obj 1378 120 t b f;
#X obj 1258 174 f;
#X obj 1327 526 tgl 19 0 empty empty empty 0 -6 0 8 #dfdfdf #000000 #000000 0 1;
#X obj 1327 554 switch~ 512 1 8;
#X text 1252 52 TODO: \; * optional distortion \; * feedback more linear;
#X obj 1258 216 * 2;
#X obj 1257 238 pow 1.5;
#X text 1262 129 feedback;
#X obj 1327 484 loadbang;
#X msg 1327 504 1;
#X obj 52 515 inlet~;
#X obj 217 128 / 127;
#X msg 217 170 2 \$1;
#X obj 217 191 pow;
#X obj 217 212 * 1.45125;
#X obj 217 254 line~;
#X msg 217 233 \$1 23.22;
#X obj 202 557 +~;
#X obj 217 108 r \$0-s-time-1;
#X obj 217 149 * 12;
#X obj 202 578 delwrite~ \$0-mod-delay-1 5944;
#X obj 232 359 loadbang;
#X obj 232 401 unpack f f f f;
#X obj 242 448 loadbang;
#X obj 242 490 unpack f f;
#X obj 132 541 +~;
#X obj 147 499 noise~;
#X obj 393 319 r \$0-s-feedback;
#X obj 393 340 / 127;
#X obj 393 361 t f f;
#X obj 393 382 * 2;
#X msg 393 403 2 \$1;
#X obj 393 424 pow;
#X obj 393 445 *;
#X msg 393 466 \$1 23.22;
#X obj 393 487 line~;
#X obj 217 537 *~;
#X obj 217 317 hip~ 1;
#X obj 217 338 lop~ 4000;
#X obj 377 123 r \$0-s-lfo-wav;
#X obj 362 165 *~;
#X obj 377 144 == 0;
#X obj 427 164 r \$0-s-lfo-wav;
#X obj 412 185 *~;
#X obj 309 118 *~;
#X obj 362 222 *~;
#X obj 442 185 r \$0-s-del-mod;
#X obj 442 206 == 2;
#X obj 324 76 r \$0-s-del-mod;
#X obj 324 97 == 0;
#X obj 309 238 +~;
#X obj 309 259 *~;
#X obj 540 138 r \$0-s-mod-1;
#X obj 540 159 / 127;
#X obj 540 180 pow 2;
#X obj 540 201 * 10;
#X msg 540 222 \$1 23.22;
#X obj 540 243 line~;
#X obj 217 275 +~;
#X obj 834 138 / 127;
#X msg 834 180 2 \$1;
#X obj 834 201 pow;
#X obj 834 222 * 1.45125;
#X obj 834 264 line~;
#X msg 834 243 \$1 23.22;
#X obj 581 557 +~;
#X obj 834 159 * 12;
#X obj 626 364 loadbang;
#X obj 626 406 unpack f f f f;
#X obj 636 453 loadbang;
#X obj 636 495 unpack f f;
#X obj 596 537 *~;
#X obj 611 322 hip~ 1;
#X obj 611 343 lop~ 4000;
#X obj 626 217 *~;
#X obj 641 175 r \$0-s-del-mod;
#X obj 641 196 == 0;
#X obj 611 238 +~;
#X obj 611 259 *~;
#X obj 748 159 / 127;
#X obj 748 180 pow 2;
#X obj 748 201 * 10;
#X msg 748 222 \$1 23.22;
#X obj 748 243 line~;
#X obj 611 280 +~;
#X obj 581 578 delwrite~ \$0-mod-delay-2 5944;
#X obj 748 138 r \$0-s-mod-2;
#X obj 834 118 r \$0-s-time-2;
#X obj 440 586 +~;
#X obj 67 678 sig~ 1;
#X obj 67 699 -~;
#X obj 52 720 *~;
#X obj 117 599 r \$0-s-del-mix;
#X obj 117 620 / 127;
#X msg 117 662 \$1 23.22;
#X obj 117 683 line~;
#X obj 216 743 *~;
#X obj 52 741 +~;
#X obj 626 124 /~ 2;
#X obj 309 46 /~ 2;
#X obj 626 145 lop~ 689;
#X obj 309 139 lop~ 689;
#X obj 440 607 /~ 2;
#X obj 362 102 r~ \$0-del-tri;
#X obj 412 143 r~ \$0-del-sqr;
#X obj 147 520 *~ 0.001;
#X msg 242 468 -60 5;
#X msg 636 473 -60 5;
#X obj 362 201 +~;
#X msg 232 380 2.5 2.5 -12 5;
#X msg 626 385 2.5 2.5 -12 5;
#X obj 478 591 sig~ 1;
#X obj 478 612 /~;
#X obj 440 628 *~;
#X obj 493 567 max~ 1.5;
#X obj 455 680 *~;
#X obj 455 756 /~;
#X obj 440 782 *~;
#X obj 495 706 *~ 9;
#X obj 455 706 +~ 27;
#X obj 495 732 +~ 27;
#X obj 440 654 clip~ -3 3;
#X text 373 654 ma.tanh~;
#X obj 217 297 delread4~ \$0-mod-delay-1;
#X obj 611 301 delread4~ \$0-mod-delay-2;
#X obj 98 407 tgl 25 0 empty empty empty 17 7 0 10 #191919 #e1e1e1 #e1e1e1 0 1;
#X text 141 406 noise on/off;
#X obj 98 443 sel 0 1;
#X msg 98 466 0;
#X msg 129 465 0.001;
#X obj 201 629 loadbang;
#X msg 201 649 127;
#X obj 309 25 delread4~ \$0-mod-delay-1;
#X obj 626 103 delread4~ \$0-mod-delay-2;
#X text 1233 26 modified feedback:;
#X text 613 694 self \, off \, lfo, f 7;
#X obj 871 766 cnv 19 95 20 empty empty HYPER-LFO 5 11 0 14 #000000 #fcfcfc 0;
#X obj 910 628 vsl 19 128 0 127 0 0 \$0-s-f-b \$0-r-f-b F-B -2 -9 0 14 #000000 #fcfcfc #000000 0 1;
#X obj 880 628 vsl 19 128 0 127 0 0 \$0-s-f-a \$0-r-f-a F-A -2 -9 0 14 #000000 #dcdcdc #000000 0 1;
#X obj 940 626 vradio 19 1 0 2 \$0-s-andor \$0-r-andor AND -2 -7 0 14 #000000 #fcfcfc #000000 0;
#X obj 940 675 bng 19 50 10 0 empty \$0-r-led empty 17 7 0 10 #000000 #00fc04 #000000;
#X obj 940 725 tgl 19 0 \$0-s-link \$0-r-link LINK -4 -8 0 14 #000000 #fcfcfc #000000 0 1;
#X obj 1233 478 *~ 0.125;
#X obj 1233 496 rzero~ -1;
#X obj 1233 513 rzero~ -1;
#X obj 1233 531 rzero~ -1;
#X text 1327 390 j07.oversampling, f 19;
#X obj 1233 438 cpole~ 0.912445 0.130435;
#X obj 1233 459 cpole~ 0.912445 -0.130435;
#X obj 1233 402 rpole~ 0.848508;
#X obj 1233 420 *~ 0.024679;
#X obj 1233 384 *~ 0.151492;
#X obj 217 427 lira/compressor~;
#X obj 217 511 lira/expander~;
#X obj 611 516 lira/expander~;
#X obj 611 432 lira/compressor~;
#X connect 1 0 2 0;
#X connect 2 0 28 0;
#X connect 3 0 4 0;
#X connect 17 0 18 0;
#X connect 17 1 21 1;
#X connect 18 0 19 0;
#X connect 19 0 20 0;
#X connect 20 0 21 0;
#X connect 21 0 3 0;
#X connect 22 0 27 0;
#X connect 23 0 24 0;
#X connect 24 0 26 1;
#X connect 25 0 32 0;
#X connect 26 0 17 0;
#X connect 27 0 28 0;
#X connect 27 1 23 0;
#X connect 27 1 25 1;
#X connect 28 0 25 0;
#X connect 28 0 26 0;
#X connect 29 0 30 0;
#X connect 32 0 33 0;
#X connect 33 0 3 0;
#X connect 35 0 36 0;
#X connect 36 0 29 0;
#X connect 37 0 52 0;
#X connect 37 0 118 0;
#X connect 38 0 46 0;
#X connect 39 0 40 0;
#X connect 40 0 41 0;
#X connect 41 0 43 0;
#X connect 42 0 85 0;
#X connect 43 0 42 0;
#X connect 44 0 47 0;
#X connect 45 0 38 0;
#X connect 46 0 39 0;
#X connect 48 0 136 0;
#X connect 49 0 179 1;
#X connect 49 1 179 2;
#X connect 49 2 179 3;
#X connect 49 3 179 4;
#X connect 50 0 133 0;
#X connect 51 0 180 1;
#X connect 51 1 180 2;
#X connect 52 0 44 0;
#X connect 52 0 92 0;
#X connect 53 0 132 0;
#X connect 54 0 55 0;
#X connect 55 0 56 0;
#X connect 56 0 57 0;
#X connect 56 1 60 1;
#X connect 57 0 58 0;
#X connect 58 0 59 0;
#X connect 59 0 60 0;
#X connect 60 0 61 0;
#X connect 61 0 62 0;
#X connect 62 0 63 1;
#X connect 62 0 98 0;
#X connect 62 0 141 0;
#X connect 63 0 44 1;
#X connect 64 0 65 0;
#X connect 65 0 179 0;
#X connect 66 0 68 0;
#X connect 67 0 135 0;
#X connect 68 0 67 1;
#X connect 69 0 70 1;
#X connect 70 0 135 1;
#X connect 71 0 128 0;
#X connect 72 0 77 1;
#X connect 72 0 104 0;
#X connect 73 0 74 0;
#X connect 74 0 72 1;
#X connect 75 0 76 0;
#X connect 76 0 71 1;
#X connect 77 0 78 0;
#X connect 78 0 85 1;
#X connect 79 0 80 0;
#X connect 80 0 81 0;
#X connect 81 0 82 0;
#X connect 82 0 83 0;
#X connect 83 0 84 0;
#X connect 84 0 78 1;
#X connect 85 0 150 0;
#X connect 86 0 93 0;
#X connect 87 0 88 0;
#X connect 88 0 89 0;
#X connect 89 0 91 0;
#X connect 90 0 111 1;
#X connect 91 0 90 0;
#X connect 92 0 112 0;
#X connect 93 0 87 0;
#X connect 94 0 137 0;
#X connect 95 0 182 1;
#X connect 95 1 182 2;
#X connect 95 2 182 3;
#X connect 95 3 182 4;
#X connect 96 0 134 0;
#X connect 97 0 181 1;
#X connect 97 1 181 2;
#X connect 98 0 92 1;
#X connect 99 0 100 0;
#X connect 100 0 182 0;
#X connect 101 0 104 1;
#X connect 102 0 103 0;
#X connect 103 0 101 1;
#X connect 104 0 105 0;
#X connect 105 0 111 0;
#X connect 106 0 107 0;
#X connect 107 0 108 0;
#X connect 108 0 109 0;
#X connect 109 0 110 0;
#X connect 110 0 105 1;
#X connect 111 0 151 0;
#X connect 113 0 106 0;
#X connect 114 0 86 0;
#X connect 115 0 129 0;
#X connect 116 0 117 0;
#X connect 117 0 118 1;
#X connect 118 0 124 0;
#X connect 119 0 120 0;
#X connect 120 0 121 0;
#X connect 121 0 122 0;
#X connect 122 0 123 0;
#X connect 122 0 117 1;
#X connect 123 0 124 1;
#X connect 124 0 0 0;
#X connect 125 0 127 0;
#X connect 126 0 71 0;
#X connect 127 0 101 0;
#X connect 128 0 77 0;
#X connect 129 0 140 0;
#X connect 130 0 67 0;
#X connect 131 0 70 0;
#X connect 132 0 52 1;
#X connect 133 0 51 0;
#X connect 134 0 97 0;
#X connect 135 0 72 0;
#X connect 136 0 49 0;
#X connect 137 0 95 0;
#X connect 138 0 139 0;
#X connect 139 0 140 1;
#X connect 140 0 148 0;
#X connect 141 0 139 1;
#X connect 142 0 146 0;
#X connect 142 0 145 0;
#X connect 143 0 144 1;
#X connect 144 0 123 1;
#X connect 145 0 147 0;
#X connect 146 0 143 0;
#X connect 147 0 143 1;
#X connect 148 0 142 0;
#X connect 148 0 142 1;
#X connect 148 0 144 0;
#X connect 150 0 64 0;
#X connect 151 0 99 0;
#X connect 152 0 154 0;
#X connect 154 0 155 0;
#X connect 154 1 156 0;
#X connect 155 0 132 1;
#X connect 156 0 132 1;
#X connect 157 0 158 0;
#X connect 158 0 120 0;
#X connect 159 0 126 0;
#X connect 160 0 125 0;
#X connect 169 0 170 0;
#X connect 170 0 171 0;
#X connect 171 0 172 0;
#X connect 174 0 175 0;
#X connect 174 1 175 1;
#X connect 175 0 169 0;
#X connect 176 0 177 0;
#X connect 177 0 174 0;
#X connect 178 0 176 0;
#X connect 179 0 180 0;
#X connect 180 0 63 0;
#X connect 180 0 115 0;
#X connect 181 0 98 1;
#X connect 181 0 115 1;
#X connect 182 0 181 0;
