#N canvas 0 0 1920 1052 12;
#X obj 273 71 tgl 30 0 empty empty fm 17 7 0 10 #fcfcfc #000000 #000000
0 1;
#X obj 232 22 hsl 128 30 -1000 1000 0 0 empty empty +-index -2 -8 0
10 #fcfcfc #000000 #000000 0 1;
#X obj 321 71 tgl 30 0 empty empty am 17 7 0 10 #fcfcfc #000000 #000000
0 1;
#X obj 367 71 tgl 30 0 empty empty shape 17 7 0 10 #fcfcfc #000000
#000000 0 1;
#X floatatom 137 83 5 0 0 2 freq - - 0;
#X obj 183 38 vsl 15 60 0 100 0 0 empty empty pwm 0 -9 0 10 #fcfcfc
#000000 #000000 0 1;
#X floatatom 45 83 5 0 0 0 - - - 0;
#X floatatom 1476 587 5 0 0 2 clock - - 0;
#X floatatom 1520 586 5 0 0 2 freq - - 0;
#X obj 2516 651 bng 15 250 50 0 empty empty trig1 17 7 0 10 #00fc04
#000000 #000000;
#X floatatom 2571 648 5 0 0 2 att1 - - 0;
#X floatatom 2627 648 5 0 0 2 dec1 - - 0;
#X obj 2682 651 tgl 15 0 empty empty loop1 17 7 0 10 #00fc04 #000000
#000000 0 1;
#X obj 2738 651 bng 15 250 50 0 empty empty trig2 17 7 0 10 #00fc04
#000000 #000000;
#X floatatom 2793 648 5 0 0 2 att2 - - 0;
#X floatatom 2849 648 5 0 0 2 dec2 - - 0;
#X obj 2905 654 tgl 15 0 empty empty loop2 17 7 0 10 #00fc04 #000000
#000000 0 1;
#X obj 555 523 vsl 16 60 0 1 0 0 empty empty dry 0 -9 0 10 #fcfcfc
#000000 #000000 0 1;
#X obj 351 524 vsl 15 60 0 1 0 0 empty empty fb 0 -9 0 10 #fcfcfc #000000
#000000 0 1;
#X obj 250 524 vsl 15 60 0 5 0 0 empty empty depth 0 -9 0 10 #fcfcfc
#000000 #000000 0 1;
#X obj 148 526 vsl 15 60 0.01 3 0 0 empty empty freq 0 -9 0 10 #fcfcfc
#000000 #000000 0 1;
#X obj 453 524 vsl 15 60 0 1 0 0 empty empty wet 0 -9 0 10 #fcfcfc
#000000 #000000 0 1;
#X obj 67 155 hsl 128 15 0 16000 0 0 empty empty empty -2 -8 0 10 #fcfcfc
#000000 #000000 0 1;
#X obj 125 175 hsl 128 15 0 1 0 0 empty empty empty -2 -8 0 10 #fcfcfc
#000000 #000000 0 1;
#X obj 183 195 hsl 128 15 0 0.1 0 0 empty empty empty -2 -8 0 10 #fcfcfc
#000000 #000000 0 1;
#X obj 100 673 vsl 15 128 30 120 0 0 empty empty lo_freq 0 -9 0 10
#fcfcfc #000000 #000000 0 1;
#X floatatom 100 809 5 0 0 0 - - - 0;
#X obj 152 673 vsl 15 128 -20 20 0 0 empty empty lo_gain 0 -9 0 10
#fcfcfc #000000 #000000 0 1;
#X floatatom 152 809 5 0 0 0 - - - 0;
#X obj 204 673 vsl 15 128 0.1 100 0 0 empty empty low_q 0 -9 0 10 #fcfcfc
#000000 #000000 0 1;
#X floatatom 204 809 5 0 0 0 - - - 0;
#X obj 256 673 vsl 15 128 8000 14000 0 0 empty empty hi_freq 0 -9 0
10 #fcfcfc #000000 #000000 0 1;
#X floatatom 256 809 6 0 0 0 - - - 0;
#X obj 308 673 vsl 15 128 -20 20 0 0 empty empty hi_gain 0 -9 0 10
#fcfcfc #000000 #000000 0 1;
#X floatatom 308 810 5 0 0 0 - - - 0;
#X obj 360 673 vsl 15 128 0.1 100 0 0 empty empty hi_q 0 -9 0 10 #fcfcfc
#000000 #000000 0 1;
#X floatatom 360 809 5 0 0 0 - - - 0;
#X obj 46 251 +~;
#X obj 47 307 overdrive~ 1;
#X obj 45 110 synth/complex-oscillator~, f 53;
#X obj 1476 615 modulation/source-of-uncertainty;
#X obj 2516 676 modulation/function-generator, f 56;
#X obj 47 597 fx/chorus-flanger~, f 73;
#X obj 48 837 fx/shelf-eq~, f 45;
#X obj 91 42 vradio 15 1 0 4 empty empty empty 0 -8 0 10 #fcfcfc #000000
#000000 0;
#X obj 416 32 hsl 128 30 0 1 0 0 empty empty wavefold -2 -8 0 10 #fcfcfc
#000000 #000000 0 1;
#N canvas 0 28 1920 1052 filterednoise~ 0;
#X obj 59 67 noise~;
#X obj 95 137 *~;
#X obj 135 67 inlet;
#X obj 185 67 inlet;
#X obj 235 67 inlet;
#X obj 59 112 svf~, f 8;
#X obj 95 162 outlet~;
#X connect 0 0 5 0;
#X connect 1 0 6 0;
#X connect 2 0 5 1;
#X connect 3 0 5 2;
#X connect 4 0 1 1;
#X connect 5 2 1 0;
#X restore 64 221 pd filterednoise~;
#X floatatom 1564 587 5 0 0 2 - - - 0;
#X floatatom 1608 588 5 0 0 2 - - - 0;
#X floatatom 1652 587 5 0 0 2 - - - 0;
#X floatatom 1697 588 5 0 0 2 - - - 0;
#X msg 235 78 0;
#X obj 131 287 hsl 128 15 0.1 10 0 0 empty empty empty -2 -8 0 10 #fcfcfc
#000000 #000000 0 1;
#X obj 47 865 fx/lyra-delay/lyra-delay~;
#X obj 1772 574 hsl 128 15 100 200 0 0 empty empty empty -2 -8 0 10
#fcfcfc #000000 #000000 0 1;
#X obj 1769 594 int;
#X floatatom 1769 618 5 0 0 0 - - - 0;
#X obj 1812 606 tgl 30 0 empty empty empty 17 7 0 10 #00fc04 #000000
#000000 0 1;
#X floatatom 235 57 5 0 0 0 - - - 0;
#X floatatom 1476 639 5 0 0 0 - - - 0;
#X floatatom 140 308 5 0 0 0 - - - 0;
#X floatatom 1697 640 5 0 0 0 - - - 0;
#X obj 85 469 fx/291~, f 50;
#X obj 174 384 hsl 128 15 0 8000 0 0 empty empty empty -2 -8 0 10 #fcfcfc
#000000 #000000 0 1;
#X obj 258 404 hradio 15 1 0 8 empty empty empty 0 -8 0 10 #fcfcfc
#000000 #000000 0;
#X obj 348 424 hsl 128 15 1 10 0 0 empty empty empty -2 -8 0 10 #fcfcfc
#000000 #000000 0 1;
#X obj 432 444 hradio 15 1 0 8 empty empty empty 0 -8 0 10 #fcfcfc
#000000 #000000 0;
#X obj 2862 84 synth/hat~, f 24;
#X obj 1472 101 synth/kick~, f 53;
#X obj 1942 99 synth/clap~, f 52;
#X floatatom 2972 60 5 0 0 0 - - - 0;
#X floatatom 3027 61 5 0 0 0 - - - 0;
#X floatatom 1524 75 5 0 0 0 - - - 0;
#X floatatom 1577 75 5 0 0 0 - - - 0;
#X floatatom 1629 75 5 0 0 0 - - - 0;
#X floatatom 1682 75 5 0 0 0 - - - 0;
#X floatatom 1734 75 5 0 0 0 - - - 0;
#X floatatom 1787 75 5 0 0 0 - - - 0;
#X floatatom 2022 74 5 0 0 0 - - - 0;
#X floatatom 2062 74 5 0 0 0 - - - 0;
#X floatatom 2102 74 5 0 0 0 - - - 0;
#X floatatom 2142 74 5 0 0 0 - - - 0;
#X floatatom 2182 74 5 0 0 0 - - - 0;
#X floatatom 2222 74 5 0 0 0 - - - 0;
#X floatatom 2262 74 5 0 0 0 - - - 0;
#X floatatom 2303 74 5 0 0 0 - - - 0;
#X floatatom 1982 74 5 0 0 0 - - - 0;
#N canvas 0 0 914 1050 mix 0;
#X obj 38 74 inlet~;
#X obj 138 74 inlet~;
#X obj 237 74 inlet~;
#X obj 337 74 inlet~;
#X obj 436 74 inlet~;
#X obj 536 74 inlet~;
#X obj 635 74 inlet~;
#X obj 735 74 inlet~;
#X obj 38 198 *~;
#X obj 138 198 *~;
#X obj 237 198 *~;
#X obj 337 198 *~;
#X obj 436 198 *~;
#X obj 536 198 *~;
#X obj 635 198 *~;
#X obj 735 198 *~;
#X obj 73 248 env~;
#X obj 173 248 env~;
#X obj 272 248 env~;
#X obj 372 248 env~;
#X obj 471 248 env~;
#X obj 571 248 env~;
#X obj 670 248 env~;
#X obj 770 248 env~;
#X obj 821 74 inlet;
#X obj 921 74 inlet;
#X obj 1020 74 inlet;
#X obj 1120 74 inlet;
#X obj 1219 74 inlet;
#X obj 1319 74 inlet;
#X obj 1418 74 inlet;
#X obj 1518 74 inlet;
#X obj 73 272 - 100;
#X obj 73 297 outlet;
#X obj 173 272 - 100;
#X obj 272 272 - 100;
#X obj 372 272 - 100;
#X obj 471 272 - 100;
#X obj 571 272 - 100;
#X obj 670 272 - 100;
#X obj 770 272 - 100;
#X obj 770 297 outlet;
#X obj 670 297 outlet;
#X obj 571 297 outlet;
#X obj 471 297 outlet;
#X obj 372 297 outlet;
#X obj 272 297 outlet;
#X obj 173 297 outlet;
#X obj 38 445 dac~ 3 4 5 6 7 8 9 10, f 100;
#X obj 1607 74 inlet;
#X obj 920 301 *~;
#X obj 920 326 dac~ 1 2;
#X obj 919 239 fx/ssl-comp~, f 18;
#X obj 1043 291 vu 45 240 empty empty -1 -8 0 10 #404040 #000000 1
0;
#X obj 919 264 overdrive~ 1;
#X msg 1652 74 threshold -15 \, ratio 1 \, attack 10 \, release 100
\, lookahead 0 \, makeup 1, f 33;
#X connect 0 0 8 0;
#X connect 1 0 9 0;
#X connect 2 0 10 0;
#X connect 3 0 11 0;
#X connect 4 0 12 0;
#X connect 5 0 13 0;
#X connect 6 0 14 0;
#X connect 7 0 15 0;
#X connect 8 0 16 0;
#X connect 8 0 48 0;
#X connect 8 0 52 0;
#X connect 9 0 17 0;
#X connect 9 0 48 1;
#X connect 9 0 52 0;
#X connect 10 0 18 0;
#X connect 10 0 48 2;
#X connect 10 0 52 0;
#X connect 11 0 19 0;
#X connect 11 0 48 3;
#X connect 11 0 52 0;
#X connect 12 0 20 0;
#X connect 12 0 48 4;
#X connect 12 0 52 0;
#X connect 13 0 21 0;
#X connect 13 0 48 5;
#X connect 13 0 52 0;
#X connect 14 0 22 0;
#X connect 14 0 48 6;
#X connect 14 0 52 0;
#X connect 15 0 23 0;
#X connect 15 0 48 7;
#X connect 15 0 52 0;
#X connect 16 0 32 0;
#X connect 17 0 34 0;
#X connect 18 0 35 0;
#X connect 19 0 36 0;
#X connect 20 0 37 0;
#X connect 21 0 38 0;
#X connect 22 0 39 0;
#X connect 23 0 40 0;
#X connect 24 0 8 1;
#X connect 25 0 9 1;
#X connect 26 0 10 1;
#X connect 27 0 11 1;
#X connect 28 0 12 1;
#X connect 29 0 13 1;
#X connect 30 0 14 1;
#X connect 31 0 15 1;
#X connect 32 0 33 0;
#X connect 34 0 47 0;
#X connect 35 0 46 0;
#X connect 36 0 45 0;
#X connect 37 0 44 0;
#X connect 38 0 43 0;
#X connect 39 0 42 0;
#X connect 40 0 41 0;
#X connect 49 0 50 1;
#X connect 50 0 51 0;
#X connect 50 0 51 1;
#X connect 52 0 50 0;
#X connect 52 1 53 0;
#X connect 55 0 52 1;
#X restore 972 864 pd mix;
#X f 122;
#X obj 1557 723 vsl 20 128 0 1 0 0 empty empty empty 0 -9 0 10 #fcfcfc
#000000 #000000 0 1;
#X obj 1610 723 vsl 20 128 0 1 0 0 empty empty empty 0 -9 0 10 #fcfcfc
#000000 #000000 0 1;
#X obj 1663 723 vsl 20 128 0 1 0 0 empty empty empty 0 -9 0 10 #fcfcfc
#000000 #000000 0 1;
#X obj 1716 723 vsl 20 128 0 1 0 0 empty empty empty 0 -9 0 10 #fcfcfc
#000000 #000000 0 1;
#X obj 1769 723 vsl 20 128 0 1 0 0 empty empty empty 0 -9 0 10 #fcfcfc
#000000 #000000 0 1;
#X obj 1503 723 vsl 20 128 0 1 0 0 empty empty empty 0 -9 0 15 #fcfcfc
#000000 #000000 0 1;
#X obj 1450 723 vsl 20 128 0 1 0 0 empty empty empty 0 -9 0 10 #fcfcfc
#000000 #000000 0 1;
#X obj 1397 723 vsl 20 128 0 1 0 0 empty empty empty 0 -9 0 10 #fcfcfc
#000000 #000000 0 1;
#X obj 973 834 r~ one;
#X obj 1026 834 r~ two;
#X obj 1079 834 r~ thr;
#X obj 1132 834 r~ fou;
#X obj 1185 834 r~ fiv;
#X obj 1238 834 r~ six;
#X obj 1291 834 r~ sev;
#X obj 1345 835 r~ eig;
#X obj 2864 272 s~ fou;
#X obj 1471 133 s~ eig;
#X obj 2270 541 synth/additive-poly~;
#X obj 973 894 vu 30 120 empty empty -1 -8 0 10 #404040 #000000 1 0
;
#X obj 1094 894 vu 30 120 empty empty -1 -8 0 10 #404040 #000000 1
0;
#X obj 1216 894 vu 30 120 empty empty -1 -8 0 10 #404040 #000000 1
0;
#X obj 1337 894 vu 30 120 empty empty -1 -8 0 10 #404040 #000000 1
0;
#X obj 1459 894 vu 30 120 empty empty -1 -8 0 10 #404040 #000000 1
0;
#X obj 1580 894 vu 30 120 empty empty -1 -8 0 10 #404040 #000000 1
0;
#X obj 1702 894 vu 30 120 empty empty -1 -8 0 10 #404040 #000000 1
0;
#X obj 1824 894 vu 30 120 empty empty -1 -8 0 10 #404040 #000000 1
0;
#X obj 2272 1162 s~ six;
#X msg 1769 691 1, f 4;
#X obj 1769 667 loadbang;
#X floatatom 2917 60 5 0 0 0 - - - 0;
#X obj 1769 642 s bpm;
#X obj 1812 642 s play;
#X obj 47 355 *~ 1;
#X obj 665 330 s~ sev;
#X obj 2631 253 s~ fiv;
#X obj 2630 97 synth/hat~, f 24;
#X floatatom 2740 72 5 0 0 0 - - - 0;
#X floatatom 2795 73 5 0 0 0 - - - 0;
#X floatatom 2685 72 5 0 0 0 - - - 0;
#X obj 1942 144 s~ two;
#X obj 2404 175 s~ thr;
#X obj 1823 724 vsl 20 128 0 1 0 0 empty empty empty 0 -9 0 10 #c4fcc4
#000000 #000000 0 1;
#X obj 718 973 modulation/orthoseq, f 32;
#X floatatom 791 997 5 0 0 0 - - - 0;
#X floatatom 718 950 5 0 0 0 - - - 0;
#X floatatom 791 950 5 0 0 0 - - - 0;
#X floatatom 718 997 5 0 0 0 - - - 0;
#X floatatom 865 997 5 0 0 0 - - - 0;
#N canvas 0 28 1920 1052 clock 0;
#X obj 36 183 metro;
#X msg 36 104 1;
#X msg 67 104 0;
#X obj 128 77 expr 60000/$f1;
#X obj 36 208 outlet;
#X obj 128 49 inlet;
#X obj 36 75 sel 1;
#X obj 36 49 inlet;
#X obj 86 209 outlet;
#X obj 258 78 inlet;
#X obj 128 102 *;
#X obj 258 103 t b f;
#X text 137 210 out 1 clock \, 2 reset;
#X connect 0 0 4 0;
#X connect 1 0 0 0;
#X connect 2 0 0 0;
#X connect 2 0 8 0;
#X connect 3 0 10 0;
#X connect 5 0 3 0;
#X connect 6 0 1 0;
#X connect 6 1 2 0;
#X connect 7 0 6 0;
#X connect 9 0 11 0;
#X connect 10 0 0 1;
#X connect 11 0 10 0;
#X connect 11 1 10 1;
#X restore 856 941 pd clock;
#X f 11;
#X obj 856 911 r play;
#X obj 905 911 r bpm;
#X obj 47 472 *~;
#X obj 65 392 vsl 15 64 0 1 0 0 empty empty empty 0 -9 0 10 #fcfcfc
#000000 #000000 0 1;
#X floatatom 171 404 5 0 0 0 - - - 0;
#X obj 47 649 *~ 1;
#X obj 2269 697 *~;
#X text 2435 651 notch;
#X obj 1472 23 r play;
#X obj 1537 23 r bpm;
#X obj 2630 46 modulation/trig-seq;
#X obj 1472 48 modulation/trig-seq;
#X obj 2630 19 r play;
#X obj 2679 19 r bpm;
#X obj 1942 47 modulation/trig-seq;
#X obj 1942 21 r play;
#X obj 2007 21 r bpm;
#X obj 1971 350 modulation/trig-seq;
#X obj 1971 322 r play;
#X obj 2036 322 r bpm;
#X obj 2862 36 modulation/trig-seq;
#X obj 2862 10 r play;
#X obj 2927 10 r bpm;
#X obj 2270 426 random 10;
#X obj 2270 460 sel 0;
#X obj 2315 460 sel 1;
#X obj 2361 460 sel 3;
#X obj 732 122 bng 15 250 50 0 empty empty trig1 17 7 0 10 #00fc04
#000000 #000000;
#X floatatom 787 119 5 0 0 2 att1 - - 0;
#X floatatom 843 119 5 0 0 2 dec1 - - 0;
#X obj 898 122 tgl 15 0 empty empty loop1 17 7 0 10 #00fc04 #000000
#000000 0 1;
#X obj 954 122 bng 15 250 50 0 empty empty trig2 17 7 0 10 #00fc04
#000000 #000000;
#X floatatom 1009 119 5 0 0 2 att2 - - 0;
#X floatatom 1065 119 5 0 0 2 dec2 - - 0;
#X obj 1121 125 tgl 15 0 empty empty loop2 17 7 0 10 #00fc04 #000000
#000000 0 1;
#X obj 732 147 modulation/function-generator, f 56;
#X obj 732 72 modulation/trig-seq;
#X obj 732 47 r play;
#X obj 798 47 r bpm;
#X obj 2072 22 bng 15 250 50 0 empty empty empty 17 7 0 10 #fcfcfc
#000000 #000000;
#X obj 2101 327 bng 15 250 50 0 empty empty empty 17 7 0 10 #fcfcfc
#000000 #000000;
#X obj 2992 11 bng 15 250 50 0 empty empty empty 17 7 0 10 #fcfcfc
#000000 #000000;
#X floatatom 1840 75 5 0 0 0 - - - 0;
#X obj 2270 984 overdrive~ 5;
#X floatatom 1334 127 5 0 0 0 - - - 0;
#X obj 666 156 random 4;
#X obj 666 181 sel 0;
#X obj 666 248 mtof;
#X obj 666 210 29;
#X obj 794 211 32;
#X obj 708 181 sel 1;
#X obj 750 181 sel 2;
#X obj 794 181 sel 3;
#X obj 2405 95 synth/snare~, f 21;
#X floatatom 2453 68 5 0 0 0 - - - 0;
#X floatatom 2549 68 5 0 0 0 - - - 0;
#X floatatom 2501 67 5 0 0 0 - - - 0;
#X obj 2405 41 modulation/trig-seq;
#X obj 2405 15 r play;
#X obj 2470 15 r bpm;
#X floatatom 666 281 5 0 0 0 - - - 0;
#X obj 666 304 synth/bass~, f 14;
#X obj 1265 313 synth/kick~, f 53;
#X floatatom 1275 290 5 0 0 0 - - - 0;
#X floatatom 1328 290 5 0 0 0 - - - 0;
#X floatatom 1380 290 5 0 0 0 - - - 0;
#X floatatom 1433 290 5 0 0 0 - - - 0;
#X floatatom 1485 290 5 0 0 0 - - - 0;
#X floatatom 1538 290 5 0 0 0 - - - 0;
#X obj 1266 366 s~ one;
#X obj 1265 238 r play;
#X obj 1330 238 r bpm;
#X obj 1265 263 modulation/trig-seq;
#X floatatom 1591 290 5 0 0 0 - - - 0;
#X obj 708 211 29;
#X floatatom 1635 279 5 0 0 0 - - - 0;
#X obj 1943 122 overdrive~ 5;
#X obj 2863 113 degrade~ 0.4 12;
#X obj 2864 248 hip~ 8000;
#X obj 754 796 random 4;
#X obj 754 821 sel 0;
#X obj 754 888 mtof;
#X floatatom 754 913 5 0 0 0 - - - 0;
#X obj 754 850 29;
#X obj 796 821 sel 1;
#X obj 838 821 sel 2;
#X obj 882 821 sel 3;
#X obj 796 851 29;
#X obj 1334 97 + 10;
#X obj 1334 72 drunk 50 5;
#X obj 838 851 28;
#X obj 882 851 30;
#X text 850 48 BASS;
#X obj 2627 583 random 150;
#X obj 2801 716 random 150;
#X obj 2269 808 *~;
#X obj 2524 765 bng 15 250 50 0 empty empty trig1 17 7 0 10 #00fc04
#000000 #000000;
#X floatatom 2579 762 5 0 0 2 att1 - - 0;
#X floatatom 2635 762 5 0 0 2 dec1 - - 0;
#X obj 2690 765 tgl 15 0 empty empty loop1 17 7 0 10 #00fc04 #000000
#000000 0 1;
#X obj 2746 765 bng 15 250 50 0 empty empty trig2 17 7 0 10 #00fc04
#000000 #000000;
#X floatatom 2801 762 5 0 0 2 att2 - - 0;
#X floatatom 2857 762 5 0 0 2 dec2 - - 0;
#X obj 2913 768 tgl 15 0 empty empty loop2 17 7 0 10 #00fc04 #000000
#000000 0 1;
#X obj 2524 790 modulation/function-generator, f 56;
#X obj 2910 552 random 2;
#X obj 2705 583 random 2;
#X obj 2627 608 + 1;
#X obj 1265 339 hip~ 20;
#X obj 2778 869 vsl 16 60 0 1 0 0 empty empty dry 0 -9 0 10 #fcfcfc
#000000 #000000 0 1;
#X obj 2574 870 vsl 15 60 0 1 0 0 empty empty fb 0 -9 0 10 #fcfcfc
#000000 #000000 0 1;
#X obj 2473 870 vsl 15 60 0 5 0 0 empty empty depth 0 -9 0 10 #fcfcfc
#000000 #000000 0 1;
#X obj 2371 872 vsl 15 60 0.01 3 0 0 empty empty freq 0 -9 0 10 #fcfcfc
#000000 #000000 0 1;
#X obj 2676 870 vsl 15 60 0 1 0 0 empty empty wet 0 -9 0 10 #fcfcfc
#000000 #000000 0 1;
#X obj 2270 943 fx/chorus-flanger~, f 73;
#X obj 2092 635 random 10;
#X obj 2092 660 * 0.1;
#X obj 2088 719 * 0.1;
#X obj 2088 694 random 50;
#X floatatom 2088 744 5 0 0 0 - - - 0;
#X obj 2088 795 * 0.1;
#X floatatom 2088 820 5 0 0 0 - - - 0;
#X obj 2092 565 *~;
#X obj 2088 770 random 10;
#X obj 2144 510 random 10;
#X obj 2144 535 * 0.1;
#X obj 2330 1035 /home/sss/.local/lib/pd/extra/freeverb~-1.2/freeverb~
;
#X msg 2087 915 wet \$1;
#X obj 2087 891 * 0.1;
#X obj 2270 1071 *~ 0.5;
#X obj 2087 866 random 6;
#X msg 2524 999 roomsize 0.01;
#X msg 2428 996 damping 1;
#X obj 2092 510 pink~;
#X obj 2271 1138 hip~ 200;
#X obj 2270 1107 *~;
#X obj 2568 1117 cyclone/snapshot~ 10;
#X obj 2568 1092 osc~ 200;
#X obj 2405 120 overdrive~ 10;
#X obj 2531 357 random 10;
#X obj 2531 391 sel 0;
#X obj 2576 391 sel 1;
#X obj 2622 391 sel 3;
#X obj 2531 416 0.25;
#X obj 2576 416 0.125;
#X obj 2622 416 0.5;
#X floatatom 2531 441 5 0 0 0 - - - 0;
#X obj 2411 455 random 10000;
#X obj 2409 487 + 8000;
#X floatatom 2475 487 5 0 0 0 - - - 0;
#X obj 2727 22 tgl 15 0 empty empty empty 17 7 0 10 #fcfcfc #000000
#000000 0 1;
#X obj 1373 240 tgl 15 0 empty empty empty 17 7 0 10 #fcfcfc #000000
#000000 0 1;
#X obj 2404 148 hip~ 400;
#X obj 2106 49 tgl 15 0 empty empty empty 17 7 0 10 #fcfcfc #000000
#000000 0 1;
#X obj 750 211 29;
#X obj 2864 200 fx/simple-del~;
#X floatatom 2911 163 5 0 0 0 - - - 0;
#X floatatom 2959 163 5 0 0 0 - - - 0;
#X obj 2631 206 fx/simple-del~;
#X floatatom 2678 169 5 0 0 0 - - - 0;
#X obj 2729 183 hsl 128 15 0 1 0 0 empty empty empty -2 -8 0 10 #fcfcfc
#000000 #000000 0 1;
#X obj 2630 133 degrade~ 0.4 12;
#X obj 2748 136 hsl 128 15 0 1 0 0 empty empty empty -2 -8 0 10 #fcfcfc
#000000 #000000 0 1;
#X obj 2631 230 hip~ 8000;
#X obj 2517 20 tgl 15 0 empty empty empty 17 7 0 10 #fcfcfc #000000
#000000 0 1;
#X obj 2560 133 random 10;
#X obj 2560 158 * 0.1;
#X msg 2535 -7 67 153 4000;
#X obj 2535 18 unpack f f f;
#X obj 2334 65 random 150;
#X obj 2334 90 + 20;
#X text 426 109 fm feedback?;
#X obj 691 796 allpass~;
#X connect 0 0 39 5;
#X connect 1 0 58 0;
#X connect 1 0 39 4;
#X connect 2 0 39 6;
#X connect 3 0 39 7;
#X connect 4 0 39 2;
#X connect 5 0 39 3;
#X connect 6 0 39 0;
#X connect 7 0 40 0;
#X connect 8 0 40 1;
#X connect 9 0 41 0;
#X connect 10 0 41 1;
#X connect 11 0 41 2;
#X connect 12 0 41 3;
#X connect 13 0 41 4;
#X connect 14 0 41 5;
#X connect 15 0 41 6;
#X connect 16 0 41 7;
#X connect 17 0 42 5;
#X connect 18 0 42 3;
#X connect 19 0 42 2;
#X connect 20 0 42 1;
#X connect 21 0 42 4;
#X connect 22 0 46 0;
#X connect 23 0 46 1;
#X connect 24 0 46 2;
#X connect 25 0 26 0;
#X connect 26 0 43 1;
#X connect 27 0 28 0;
#X connect 28 0 43 2;
#X connect 29 0 30 0;
#X connect 30 0 43 3;
#X connect 31 0 32 0;
#X connect 32 0 43 4;
#X connect 33 0 34 0;
#X connect 34 0 43 5;
#X connect 35 0 36 0;
#X connect 36 0 43 6;
#X connect 37 0 38 0;
#X connect 38 0 121 0;
#X connect 39 0 37 0;
#X connect 40 0 59 0;
#X connect 40 1 61 0;
#X connect 41 2 144 1;
#X connect 42 0 143 0;
#X connect 43 0 53 0;
#X connect 44 0 39 1;
#X connect 45 0 39 8;
#X connect 46 0 37 1;
#X connect 47 0 40 2;
#X connect 48 0 40 3;
#X connect 49 0 40 4;
#X connect 50 0 40 5;
#X connect 51 0 1 0;
#X connect 52 0 38 1;
#X connect 52 0 60 0;
#X connect 54 0 55 0;
#X connect 55 0 56 0;
#X connect 56 0 119 0;
#X connect 57 0 120 0;
#X connect 62 0 42 0;
#X connect 62 1 63 0;
#X connect 62 2 65 0;
#X connect 63 0 62 1;
#X connect 63 0 142 0;
#X connect 64 0 62 2;
#X connect 65 0 62 3;
#X connect 66 0 62 4;
#X connect 67 0 215 0;
#X connect 68 0 105 0;
#X connect 69 0 214 0;
#X connect 70 0 67 2;
#X connect 71 0 67 3;
#X connect 72 0 68 1;
#X connect 73 0 68 2;
#X connect 74 0 68 3;
#X connect 75 0 68 4;
#X connect 76 0 68 5;
#X connect 77 0 68 6;
#X connect 78 0 69 2;
#X connect 79 0 69 3;
#X connect 80 0 69 4;
#X connect 81 0 69 5;
#X connect 82 0 69 6;
#X connect 83 0 69 7;
#X connect 84 0 69 8;
#X connect 85 0 69 9;
#X connect 86 0 69 1;
#X connect 87 0 107 0;
#X connect 87 1 108 0;
#X connect 87 2 109 0;
#X connect 87 3 110 0;
#X connect 87 4 111 0;
#X connect 87 5 112 0;
#X connect 87 6 113 0;
#X connect 87 7 114 0;
#X connect 88 0 87 11;
#X connect 89 0 87 12;
#X connect 90 0 87 13;
#X connect 91 0 87 14;
#X connect 92 0 87 15;
#X connect 93 0 87 10;
#X connect 94 0 87 9;
#X connect 95 0 87 8;
#X connect 96 0 87 0;
#X connect 97 0 87 1;
#X connect 98 0 87 2;
#X connect 99 0 87 3;
#X connect 100 0 87 4;
#X connect 101 0 87 5;
#X connect 102 0 87 6;
#X connect 103 0 87 7;
#X connect 106 0 144 0;
#X connect 116 0 95 0;
#X connect 116 0 94 0;
#X connect 116 0 93 0;
#X connect 116 0 88 0;
#X connect 116 0 89 0;
#X connect 116 0 90 0;
#X connect 116 0 91 0;
#X connect 116 0 92 0;
#X connect 117 0 116 0;
#X connect 118 0 67 1;
#X connect 121 0 140 0;
#X connect 124 0 299 0;
#X connect 125 0 124 2;
#X connect 126 0 124 3;
#X connect 127 0 124 1;
#X connect 130 0 87 16;
#X connect 131 0 135 0;
#X connect 131 1 132 0;
#X connect 131 2 136 0;
#X connect 131 2 137 2;
#X connect 133 0 131 0;
#X connect 134 0 131 1;
#X connect 137 0 131 2;
#X connect 137 1 131 3;
#X connect 138 0 137 0;
#X connect 139 0 137 1;
#X connect 140 0 42 0;
#X connect 141 0 140 1;
#X connect 143 0 43 0;
#X connect 144 0 233 0;
#X connect 146 0 149 0;
#X connect 147 0 149 1;
#X connect 148 0 124 0;
#X connect 148 0 303 0;
#X connect 149 0 68 0;
#X connect 149 0 227 0;
#X connect 150 0 148 0;
#X connect 151 0 148 1;
#X connect 152 0 69 0;
#X connect 153 0 152 0;
#X connect 154 0 152 1;
#X connect 155 0 9 0;
#X connect 155 0 161 0;
#X connect 155 0 231 0;
#X connect 155 0 243 0;
#X connect 155 0 244 0;
#X connect 155 0 234 0;
#X connect 155 0 232 0;
#X connect 155 0 253 0;
#X connect 155 0 256 0;
#X connect 155 0 261 0;
#X connect 155 0 262 0;
#X connect 155 0 268 0;
#X connect 155 0 277 0;
#X connect 155 0 285 0;
#X connect 156 0 155 0;
#X connect 157 0 155 1;
#X connect 158 0 67 0;
#X connect 159 0 158 0;
#X connect 160 0 158 1;
#X connect 161 0 162 0;
#X connect 161 0 163 0;
#X connect 161 0 164 0;
#X connect 162 0 106 0;
#X connect 163 0 106 1;
#X connect 164 0 106 2;
#X connect 165 0 173 0;
#X connect 166 0 173 1;
#X connect 167 0 173 2;
#X connect 168 0 173 3;
#X connect 169 0 173 4;
#X connect 170 0 173 5;
#X connect 171 0 173 6;
#X connect 172 0 173 7;
#X connect 173 0 199 1;
#X connect 174 0 165 0;
#X connect 174 0 183 0;
#X connect 175 0 174 0;
#X connect 176 0 174 1;
#X connect 177 0 152 2;
#X connect 178 0 155 4;
#X connect 179 0 158 2;
#X connect 180 0 68 7;
#X connect 181 0 264 0;
#X connect 181 0 267 0;
#X connect 182 0 75 0;
#X connect 183 0 184 0;
#X connect 183 0 188 0;
#X connect 183 0 189 0;
#X connect 183 0 190 0;
#X connect 184 0 186 0;
#X connect 185 0 198 0;
#X connect 186 0 185 0;
#X connect 187 0 185 0;
#X connect 188 0 212 0;
#X connect 189 0 292 0;
#X connect 190 0 187 0;
#X connect 191 0 276 0;
#X connect 192 0 191 1;
#X connect 193 0 191 3;
#X connect 194 0 191 2;
#X connect 195 0 191 0;
#X connect 195 0 307 0;
#X connect 196 0 195 0;
#X connect 197 0 195 1;
#X connect 198 0 199 0;
#X connect 199 0 122 0;
#X connect 200 0 246 0;
#X connect 201 0 200 1;
#X connect 202 0 200 2;
#X connect 203 0 200 3;
#X connect 204 0 200 4;
#X connect 205 0 200 5;
#X connect 206 0 200 6;
#X connect 208 0 210 0;
#X connect 209 0 210 1;
#X connect 210 0 200 0;
#X connect 211 0 200 7;
#X connect 212 0 185 0;
#X connect 213 0 200 8;
#X connect 214 0 128 0;
#X connect 215 0 293 0;
#X connect 216 0 104 0;
#X connect 217 0 218 0;
#X connect 217 0 222 0;
#X connect 217 0 223 0;
#X connect 217 0 224 0;
#X connect 218 0 221 0;
#X connect 219 0 220 0;
#X connect 221 0 219 0;
#X connect 222 0 225 0;
#X connect 223 0 228 0;
#X connect 224 0 229 0;
#X connect 225 0 219 0;
#X connect 226 0 182 0;
#X connect 227 0 226 0;
#X connect 228 0 219 0;
#X connect 229 0 219 0;
#X connect 231 0 245 0;
#X connect 232 0 239 0;
#X connect 233 0 252 0;
#X connect 234 0 242 0;
#X connect 235 0 242 1;
#X connect 236 0 242 2;
#X connect 237 0 242 3;
#X connect 238 0 242 4;
#X connect 239 0 242 5;
#X connect 240 0 242 6;
#X connect 241 0 242 7;
#X connect 242 2 233 1;
#X connect 243 0 241 0;
#X connect 243 0 237 0;
#X connect 244 0 12 0;
#X connect 245 0 11 0;
#X connect 246 0 207 0;
#X connect 247 0 252 5;
#X connect 248 0 252 3;
#X connect 249 0 252 2;
#X connect 250 0 252 1;
#X connect 251 0 252 4;
#X connect 252 0 181 0;
#X connect 253 0 254 0;
#X connect 254 0 251 0;
#X connect 255 0 257 0;
#X connect 256 0 255 0;
#X connect 257 0 249 0;
#X connect 258 0 259 0;
#X connect 259 0 250 0;
#X connect 261 0 258 0;
#X connect 262 0 263 0;
#X connect 263 0 260 1;
#X connect 264 0 267 0;
#X connect 265 0 264 0;
#X connect 266 0 265 0;
#X connect 267 0 273 0;
#X connect 268 0 266 0;
#X connect 269 0 264 0;
#X connect 270 0 264 0;
#X connect 271 0 260 0;
#X connect 272 0 115 0;
#X connect 273 0 272 0;
#X connect 274 0 273 1;
#X connect 275 0 274 0;
#X connect 276 0 290 0;
#X connect 277 0 278 0;
#X connect 277 0 279 0;
#X connect 277 0 280 0;
#X connect 278 0 281 0;
#X connect 279 0 282 0;
#X connect 280 0 283 0;
#X connect 281 0 284 0;
#X connect 282 0 284 0;
#X connect 283 0 284 0;
#X connect 284 0 155 2;
#X connect 285 0 286 0;
#X connect 286 0 106 3;
#X connect 286 0 287 0;
#X connect 288 0 148 3;
#X connect 289 0 210 3;
#X connect 290 0 129 0;
#X connect 291 0 152 3;
#X connect 292 0 185 0;
#X connect 293 0 216 0;
#X connect 294 0 293 1;
#X connect 295 0 293 2;
#X connect 296 0 301 0;
#X connect 297 0 296 1;
#X connect 298 0 296 2;
#X connect 299 0 296 0;
#X connect 300 0 299 1;
#X connect 301 0 123 0;
#X connect 302 0 195 2;
#X connect 303 0 304 0;
#X connect 304 0 298 0;
#X connect 305 0 306 0;
#X connect 306 0 192 0;
#X connect 306 1 194 0;
#X connect 306 2 193 0;
#X connect 307 0 308 0;
#X connect 308 0 192 0;
