#N canvas 0 0 1920 1052 12;
#X obj 38 106 *~;
#X obj 56 58 bng 15 250 50 0 empty empty empty 0 -8 0 12 #fcfcfc #000000 #000000;
#X floatatom 119 60 5 0 0 0 - - - 0;
#X obj 56 22 tgl 15 0 empty empty empty 0 -8 0 12 #fcfcfc #000000 #000000 0 1;
#X floatatom 75 171 5 0 0 0 - - - 0;
#X floatatom 216 170 5 0 0 0 - - - 0;
#X obj 153 170 osc~ 0.5;
#X floatatom 80 60 5 0 0 0 - - - 0;
#X obj 174 61 tgl 15 0 empty empty empty 0 -8 0 12 #fcfcfc #000000 #000000 0 1;
#X floatatom 114 171 5 0 0 0 - - - 0;
#X obj 38 154 *~;
#X text 97 203 speed;
#X floatatom 153 151 4 0 0 0 - - - 0;
#X obj 56 41 metro 3000;
#X obj 7 342 poly 4 1;
#X obj 7 362 pack f f f;
#X obj 7 289 tgl 15 0 empty empty empty 0 -8 0 12 #fcfcfc #000000 #000000 0 1;
#X floatatom 127 429 5 0 0 1 q - - 16;
#X msg 335 462 all \$1;
#X msg 231 463 all \$1;
#X floatatom 231 429 5 0 0 1 att - - 16;
#X floatatom 335 429 5 0 0 1 dec - - 16;
#X msg 439 461 all \$1;
#X floatatom 439 429 5 0 0 1 fenv - - 16;
#X obj 141 381 sig~;
#X obj 244 382 sig~;
#X obj 244 350 tgl 15 0 empty empty sq 0 -8 0 12 #404040 #00ff04 #000000 0 1;
#X obj 141 350 tgl 15 0 empty empty saw 0 -8 0 12 #202020 #00ff04 #000000 0 1;
#X floatatom 28 422 5 0 0 1 frq - - 16;
#X floatatom 514 462 5 0 0 1 hpf - - 16;
#X obj 349 382 sig~;
#X floatatom 349 363 5 0 0 0 - - - 0;
#X obj 349 344 tgl 15 0 empty empty empty 0 -8 0 12 #404040 #00ff04 #000000 0 1;
#X obj 59 133 hsl 128 15 0 1 0 0 empty empty empty -2 -8 0 12 #fcfcfc #000000 #000000 0 1;
#X obj 733 78 wrap~;
#X obj 733 59 +~ 0.75;
#X obj 782 39 hsl 128 15 0 1 0 0 empty empty empty -2 -8 0 12 #fcfcfc #000000 #000000 0 1;
#X obj 698 22 phasor~ 100;
#X obj 698 103 cos~;
#X obj 733 103 cos~;
#X text 698 7 naive phase shift:;
#X obj 38 188 fx.florus~ 2 4 0.9, f 22;
#X obj 7 486 clone -x -s 1 in.juju~ 5;
#X obj 56 81 en.function~ 0 10;
#X obj 310 193 in.razor~;
#X obj 319 168 *~ 0.125;
#X obj 65 735 tgl 15 0 empty empty empty 0 -8 0 12 #fcfcfc #000000 #000000 0 1;
#X obj 58 590 vu 15 160 empty empty -1 -8 0 12 #404040 #000000 1 0;
#N canvas 0 0 1920 1052 vu 0;
#X obj 59 129 env~ 1024;
#X obj 161 111 abs~;
#X obj 161 213 snapshot~;
#X obj 161 256 rmstodb;
#X obj 161 21 inlet~;
#X obj 161 288 - 100;
#X obj 59 287 - 100;
#X obj 59 361 outlet;
#X obj 161 361 outlet;
#X text 344 307 Check the help file of env~ and slop~ for more details., f 31;
#X obj 239 89 expr 1000 / $f1;
#X floatatom 239 117 5 0 0 0 - - - 0;
#X obj 161 146 slop~ 0 0 0 0 1e+09;
#X obj 239 18 inlet;
#X floatatom 239 57 5 0 0 0 - - - 0;
#X text 359 89 convert to hz;
#X text 282 118 hz;
#X text 284 57 peak decay time in ms;
#X obj 59 171 t f b;
#X text 345 132 The env~ object is dedicated to RMS analysis. Its output is in dB (0-100 range \, pd style) but needs to be converted to dBFS (and we do that by simply subtracting 100)., f 31;
#X text 345 225 The slop~ object is used here for peak detection. We need to convert the output to dB with rmstodb and also subtract by 100 to convert it to dBFS., f 31;
#X connect 0 0 18 0;
#X connect 1 0 12 0;
#X connect 2 0 3 0;
#X connect 3 0 5 0;
#X connect 4 0 0 0;
#X connect 4 0 1 0;
#X connect 5 0 8 0;
#X connect 6 0 7 0;
#X connect 10 0 11 0;
#X connect 11 0 12 3;
#X connect 12 0 2 0;
#X connect 13 0 14 0;
#X connect 14 0 10 0;
#X connect 18 0 6 0;
#X connect 18 1 2 0;
#X restore 56 564 pd vu;
#X floatatom 67 763 8 0 0 0 - - - 0;
#X floatatom 57 782 8 0 0 0 - - - 0;
#X text 129 763 Peak;
#X text 119 783 RMS;
#X floatatom 70 545 6 0 1000 0 - decay - 0;
#X text 89 523 peak decay time in ms, f 10;
#X text 104 564 <-- open for analysis;
#X text 118 545 <--;
#X msg 11 87 1;
#X msg 7 318 50 \$1;
#X obj 137 299 + 1000;
#X obj 128 282 * 500;
#X obj 128 263 cyclone/snapshot~ 50;
#X obj 892 104 fx.erbeverb~;
#X obj 592 297 scale~ -1 1 200 700;
#X obj 592 316 cyclone/snapshot~ 50;
#X obj 592 278 osc~ 0.02;
#X msg 55 318 53 \$1;
#X msg 101 318 57 \$1;
#X obj 583 381 *~ 0.8;
#X obj 528 374 *~ 0.9;
#X floatatom 544 335 5 0 0 0 - - - 0;
#X obj 420 277 fx.rm~;
#X obj 444 254 osc~;
#X floatatom 442 240 5 0 0 0 - - - 0;
#X obj 549 236 hsl 128 15 0 1 0 0 empty empty empty -2 -8 0 12 #fcfcfc #000000 #000000 0 1;
#X obj 622 483 dac~, f 5;
#X floatatom 112 12 5 0 0 0 - - - 0;
#X obj 173 236 *~ 0.3;
#X obj 517 397 hip~ 120;
#X obj 627 406 hip~ 120;
#X obj 403 115 hsl 128 15 0 1 0 0 empty empty empty -2 -8 0 12 #fcfcfc #000000 #000000 0 1;
#X obj 331 276 *~ 0.4;
#X obj 331 295 env~;
#X floatatom 331 314 5 0 0 0 - - - 0;
#X obj 331 257 ws.shaper~;
#X floatatom 648 377 5 0 0 0 - - - 0;
#X obj 268 67 fx.freqshift~;
#X floatatom 302 45 5 0 0 0 - - - 0;
#X obj 320 229 svf~ 1000 0.5;
#X floatatom 356 213 5 0 0 0 - - - 0;
#X obj 451 290 svf~ 1000 0.5;
#X obj 491 263 svf~ 1000 0.5;
#X floatatom 518 229 5 0 0 0 - - - 0;
#X obj 356 47 hsl 128 15 0 1 0 0 empty empty empty -2 -8 0 12 #fcfcfc #000000 #000000 0 1;
#X floatatom 245 89 5 0 0 0 - - - 0;
#X floatatom 203 88 5 0 0 0 - - - 0;
#X obj 297 89 tgl 15 0 empty empty empty 0 -8 0 12 #fcfcfc #000000 #000000 0 1;
#X obj 179 109 en.function~ 0 10;
#X obj 198 44 bng 15 250 50 0 empty empty empty 0 -8 0 12 #fcfcfc #000000 #000000;
#X floatatom 133 153 5 0 0 0 - - - 0;
#X obj 238 209 osc~ 43;
#X obj 238 228 *~;
#X obj 230 3 bng 15 250 50 0 empty empty empty 0 -8 0 12 #fcfcfc #000000 #000000;
#X floatatom 293 5 5 0 0 0 - - - 0;
#X floatatom 254 5 5 0 0 0 - - - 0;
#X obj 230 26 en.function~ 0 10;
#X obj 238 247 ws.aalto~;
#X obj 355 95 hsl 128 15 0 1 0 0 empty empty empty -2 -8 0 12 #fcfcfc #000000 #000000 0 1;
#X obj 245 47 *~ 0.1;
#X obj 131 137 * 0.01;
#X obj 162 12 > 0.5;
#X obj 162 31 change;
#X obj 151 101 random 90;
#X obj 614 455 *~ 0.5;
#X obj 679 463 *~ 0.5;
#X floatatom 710 431 5 0 0 0 - - - 0;
#X obj 151 119 * 2;
#X obj 285 136 *~ 0.1;
#X floatatom 631 352 5 0 0 0 - - - 0;
#X floatatom 673 352 5 0 0 0 - - - 0;
#X obj 38 125;
#X floatatom 409 26 5 0 0 0 - - - 0;
#X floatatom 469 34 5 0 0 0 - - - 0;
#X obj 629 334 sq.tidal cp, f 24;
#X obj 409 7 sq.tidal bd;
#X obj 530 30 ../util/oscreceive;
#X obj 530 10 tgl 15 0 empty empty empty 0 -8 0 12 #fcfcfc #000000 #000000 0 1;
#X connect 0 0 10 0;
#X connect 0 0 120 0;
#X connect 1 0 57 0;
#X connect 1 0 102 0;
#X connect 1 0 112 0;
#X connect 1 0 43 0;
#X connect 2 0 43 2;
#X connect 3 0 13 0;
#X connect 4 0 41 1;
#X connect 5 0 41 4;
#X connect 6 0 41 3;
#X connect 6 0 61 0;
#X connect 7 0 43 1;
#X connect 8 0 43 4;
#X connect 9 0 41 2;
#X connect 10 0 41 0;
#X connect 12 0 6 0;
#X connect 13 0 1 0;
#X connect 14 0 15 0;
#X connect 14 1 15 1;
#X connect 14 2 15 2;
#X connect 15 0 42 0;
#X connect 16 0 58 0;
#X connect 16 0 66 0;
#X connect 16 0 67 0;
#X connect 17 0 42 2;
#X connect 18 0 42 4;
#X connect 19 0 42 3;
#X connect 20 0 19 0;
#X connect 21 0 18 0;
#X connect 22 0 42 5;
#X connect 23 0 22 0;
#X connect 24 0 42 6;
#X connect 25 0 42 7;
#X connect 26 0 25 0;
#X connect 27 0 24 0;
#X connect 28 0 42 1;
#X connect 29 0 42 9;
#X connect 30 0 42 8;
#X connect 31 0 30 0;
#X connect 32 0 31 0;
#X connect 33 0 10 1;
#X connect 34 0 39 0;
#X connect 35 0 34 0;
#X connect 36 0 35 1;
#X connect 37 0 35 0;
#X connect 37 0 38 0;
#X connect 41 0 77 0;
#X connect 43 0 0 1;
#X connect 43 0 45 0;
#X connect 44 0 41 0;
#X connect 44 0 88 0;
#X connect 45 0 44 0;
#X connect 47 0 50 0;
#X connect 47 1 49 0;
#X connect 48 0 47 0;
#X connect 48 1 47 1;
#X connect 53 0 48 1;
#X connect 57 0 16 0;
#X connect 58 0 14 0;
#X connect 59 0 28 0;
#X connect 60 0 59 0;
#X connect 61 0 60 0;
#X connect 62 0 69 0;
#X connect 62 1 68 0;
#X connect 63 0 64 0;
#X connect 65 0 63 0;
#X connect 66 0 14 0;
#X connect 67 0 14 0;
#X connect 68 0 79 0;
#X connect 69 0 78 0;
#X connect 70 0 69 1;
#X connect 70 0 68 1;
#X connect 71 0 90 0;
#X connect 71 1 91 0;
#X connect 72 0 71 1;
#X connect 72 0 86 1;
#X connect 73 0 72 0;
#X connect 74 0 71 2;
#X connect 76 0 13 1;
#X connect 77 0 114 0;
#X connect 77 0 113 0;
#X connect 78 0 113 0;
#X connect 79 0 114 0;
#X connect 80 0 84 1;
#X connect 81 0 82 0;
#X connect 81 0 86 0;
#X connect 82 0 83 0;
#X connect 84 0 81 0;
#X connect 84 0 71 0;
#X connect 85 0 79 1;
#X connect 85 0 78 1;
#X connect 86 0 113 0;
#X connect 86 1 114 0;
#X connect 88 1 84 0;
#X connect 89 0 88 1;
#X connect 90 1 113 0;
#X connect 90 2 62 0;
#X connect 91 1 114 0;
#X connect 91 2 62 0;
#X connect 92 0 91 1;
#X connect 92 0 90 1;
#X connect 94 0 97 2;
#X connect 95 0 97 1;
#X connect 96 0 97 4;
#X connect 97 0 117 0;
#X connect 98 0 97 0;
#X connect 98 0 96 0;
#X connect 99 0 9 0;
#X connect 99 0 110 0;
#X connect 100 0 101 0;
#X connect 101 0 106 0;
#X connect 102 0 105 0;
#X connect 103 0 105 2;
#X connect 104 0 105 1;
#X connect 105 0 108 0;
#X connect 106 0 86 0;
#X connect 106 0 41 0;
#X connect 107 0 106 1;
#X connect 108 0 101 1;
#X connect 109 0 99 0;
#X connect 110 0 111 0;
#X connect 111 0 98 0;
#X connect 112 0 109 0;
#X connect 112 0 116 0;
#X connect 113 0 75 0;
#X connect 114 0 75 1;
#X connect 115 0 114 1;
#X connect 115 0 113 1;
#X connect 116 0 94 0;
#X connect 117 0 45 0;
#X connect 123 0 118 0;
#X connect 123 1 119 0;
#X connect 124 0 121 0;
#X connect 124 1 122 0;
#X connect 125 0 123 0;
#X connect 125 0 124 0;
#X connect 126 0 125 0;
