#N canvas 0 0 958 1050 12;
#X obj 1162 180 tgl 30 0 empty empty fm 17 7 0 10 #fcfcfc #000000 #000000
0 1;
#X obj 1119 131 hsl 128 30 -1000 1000 0 0 empty empty +-index -2 -8
0 10 #fcfcfc #000000 #000000 0 1;
#X obj 1208 180 tgl 30 0 empty empty am 17 7 0 10 #fcfcfc #000000 #000000
0 1;
#X obj 1254 180 tgl 30 0 empty empty shape 17 7 0 10 #fcfcfc #000000
#000000 0 1;
#X floatatom 1024 192 5 0 0 2 freq - - 0;
#X obj 1070 147 vsl 15 60 0 100 0 0 empty empty pwm 0 -9 0 10 #fcfcfc
#000000 #000000 0 1;
#X floatatom 932 192 5 0 0 0 - - - 0;
#X obj 1442 562 vsl 16 60 0 1 0 0 empty empty dry 0 -9 0 10 #fcfcfc
#000000 #000000 0 1;
#X obj 1238 563 vsl 15 60 0 1 0 0 empty empty fb 0 -9 0 10 #fcfcfc
#000000 #000000 0 1;
#X obj 1137 563 vsl 15 60 0 5 0 0 empty empty depth 0 -9 0 10 #fcfcfc
#000000 #000000 0 1;
#X obj 1035 565 vsl 15 60 0.01 3 0 0 empty empty freq 0 -9 0 10 #fcfcfc
#000000 #000000 0 1;
#X obj 1340 563 vsl 15 60 0 1 0 0 empty empty wet 0 -9 0 10 #fcfcfc
#000000 #000000 0 1;
#X obj 954 254 hsl 128 15 0 16000 0 0 empty empty empty -2 -8 0 10
#fcfcfc #000000 #000000 0 1;
#X obj 1012 274 hsl 128 15 0 1 0 0 empty empty empty -2 -8 0 10 #fcfcfc
#000000 #000000 0 1;
#X obj 1070 294 hsl 128 15 0 0.1 0 0 empty empty empty -2 -8 0 10 #fcfcfc
#000000 #000000 0 1;
#X obj 933 350 +~;
#X obj 934 386 overdrive~ 1;
#X obj 932 219 synth/complex-oscillator~, f 53;
#X obj 934 636 fx/chorus-flanger~, f 73;
#X obj 978 151 vradio 15 1 0 4 empty empty empty 0 -8 0 10 #fcfcfc
#000000 #000000 0;
#X obj 1303 141 hsl 128 30 0 1 0 0 empty empty wavefold -2 -8 0 10
#fcfcfc #000000 #000000 0 1;
#N canvas 0 28 1920 1052 filterednoise~ 0;
#X obj 59 67 noise~;
#X obj 95 137 *~;
#X obj 135 67 inlet;
#X obj 185 67 inlet;
#X obj 235 67 inlet;
#X obj 59 112 svf~, f 8;
#X obj 95 162 outlet~;
#X connect 0 0 5 0;
#X connect 1 0 6 0;
#X connect 2 0 5 1;
#X connect 3 0 5 2;
#X connect 4 0 1 1;
#X connect 5 2 1 0;
#X restore 951 320 pd filterednoise~;
#X obj 1018 366 hsl 128 15 0.1 10 0 0 empty empty empty -2 -8 0 10
#fcfcfc #000000 #000000 0 1;
#X obj 935 664 fx/lyra-delay/lyra-delay~;
#X obj 21 755 hsl 128 15 100 200 0 0 empty empty empty -2 -8 0 10 #fcfcfc
#000000 #000000 0 1;
#X obj 18 775 int;
#X floatatom 18 799 5 0 0 0 - - - 0;
#X obj 61 787 tgl 30 0 empty empty empty 17 7 0 10 #00fc04 #000000
#000000 0 1;
#X floatatom 1122 166 5 0 0 0 - - - 0;
#X floatatom 1027 387 5 0 0 0 - - - 0;
#X obj 935 508 fx/291~, f 50;
#X obj 1024 423 hsl 128 15 0 8000 0 0 empty empty empty -2 -8 0 10
#fcfcfc #000000 #000000 0 1;
#X obj 1108 443 hradio 15 1 0 8 empty empty empty 0 -8 0 10 #fcfcfc
#000000 #000000 0;
#X obj 1198 463 hsl 128 15 1 10 0 0 empty empty empty -2 -8 0 10 #fcfcfc
#000000 #000000 0 1;
#X obj 1282 483 hradio 15 1 0 8 empty empty empty 0 -8 0 10 #fcfcfc
#000000 #000000 0;
#X obj 25 144 synth/kick~, f 53;
#X obj 25 306 synth/clap~, f 52;
#X floatatom 71 118 5 0 0 0 - - - 0;
#X floatatom 117 118 5 0 0 0 - - - 0;
#X floatatom 163 118 5 0 0 0 - - - 0;
#X floatatom 209 118 5 0 0 0 - - - 0;
#X floatatom 255 118 5 0 0 0 - - - 0;
#X floatatom 301 118 5 0 0 0 - - - 0;
#X floatatom 105 281 5 0 0 0 - - - 0;
#X floatatom 145 281 5 0 0 0 - - - 0;
#X floatatom 185 281 5 0 0 0 - - - 0;
#X floatatom 225 281 5 0 0 0 - - - 0;
#X floatatom 265 281 5 0 0 0 - - - 0;
#X floatatom 305 281 5 0 0 0 - - - 0;
#X floatatom 345 281 5 0 0 0 - - - 0;
#X floatatom 386 281 5 0 0 0 - - - 0;
#X floatatom 65 281 5 0 0 0 - - - 0;
#N canvas 0 0 1920 1052 mix 0;
#X obj 38 74 inlet~;
#X obj 138 74 inlet~;
#X obj 237 74 inlet~;
#X obj 337 74 inlet~;
#X obj 436 74 inlet~;
#X obj 536 74 inlet~;
#X obj 635 74 inlet~;
#X obj 735 74 inlet~;
#X obj 38 198 *~;
#X obj 138 198 *~;
#X obj 237 198 *~;
#X obj 337 198 *~;
#X obj 436 198 *~;
#X obj 536 198 *~;
#X obj 635 198 *~;
#X obj 735 198 *~;
#X obj 73 248 env~;
#X obj 173 248 env~;
#X obj 272 248 env~;
#X obj 372 248 env~;
#X obj 471 248 env~;
#X obj 571 248 env~;
#X obj 670 248 env~;
#X obj 770 248 env~;
#X obj 821 74 inlet;
#X obj 921 74 inlet;
#X obj 1020 74 inlet;
#X obj 1120 74 inlet;
#X obj 1219 74 inlet;
#X obj 1319 74 inlet;
#X obj 1418 74 inlet;
#X obj 1518 74 inlet;
#X obj 73 272 - 100;
#X obj 73 297 outlet;
#X obj 173 272 - 100;
#X obj 272 272 - 100;
#X obj 372 272 - 100;
#X obj 471 272 - 100;
#X obj 571 272 - 100;
#X obj 670 272 - 100;
#X obj 770 272 - 100;
#X obj 770 297 outlet;
#X obj 670 297 outlet;
#X obj 571 297 outlet;
#X obj 471 297 outlet;
#X obj 372 297 outlet;
#X obj 272 297 outlet;
#X obj 173 297 outlet;
#X obj 38 445 dac~ 3 4 5 6 7 8 9 10, f 100;
#X text 1051 240 MAIN OUT;
#X obj 1617 74 inlet;
#X obj 919 239 *~, f 18;
#X obj 919 274 dac~;
#X obj 956 275 env~;
#X floatatom 956 300 5 0 0 0 - - - 0;
#X connect 0 0 8 0;
#X connect 1 0 9 0;
#X connect 2 0 10 0;
#X connect 3 0 11 0;
#X connect 4 0 12 0;
#X connect 5 0 13 0;
#X connect 6 0 14 0;
#X connect 7 0 15 0;
#X connect 8 0 16 0;
#X connect 8 0 48 0;
#X connect 8 0 51 0;
#X connect 9 0 17 0;
#X connect 9 0 48 1;
#X connect 9 0 51 0;
#X connect 10 0 18 0;
#X connect 10 0 48 2;
#X connect 10 0 51 0;
#X connect 11 0 19 0;
#X connect 11 0 48 3;
#X connect 11 0 51 0;
#X connect 12 0 20 0;
#X connect 12 0 48 4;
#X connect 12 0 51 0;
#X connect 13 0 21 0;
#X connect 13 0 48 5;
#X connect 13 0 51 0;
#X connect 14 0 22 0;
#X connect 14 0 48 6;
#X connect 14 0 51 0;
#X connect 15 0 23 0;
#X connect 15 0 48 7;
#X connect 15 0 51 0;
#X connect 16 0 32 0;
#X connect 17 0 34 0;
#X connect 18 0 35 0;
#X connect 19 0 36 0;
#X connect 20 0 37 0;
#X connect 21 0 38 0;
#X connect 22 0 39 0;
#X connect 23 0 40 0;
#X connect 24 0 8 1;
#X connect 25 0 9 1;
#X connect 26 0 10 1;
#X connect 27 0 11 1;
#X connect 28 0 12 1;
#X connect 29 0 13 1;
#X connect 30 0 14 1;
#X connect 31 0 15 1;
#X connect 32 0 33 0;
#X connect 34 0 47 0;
#X connect 35 0 46 0;
#X connect 36 0 45 0;
#X connect 37 0 44 0;
#X connect 38 0 43 0;
#X connect 39 0 42 0;
#X connect 40 0 41 0;
#X connect 50 0 51 1;
#X connect 51 0 52 0;
#X connect 51 0 52 1;
#X connect 51 0 53 0;
#X connect 53 0 54 0;
#X restore 17 883 pd mix;
#X f 122;
#X obj 602 742 vsl 20 128 0 1 0 0 empty empty empty 0 -9 0 10 #fcfcfc
#000000 #000000 0 1;
#X obj 655 742 vsl 20 128 0 1 0 0 empty empty empty 0 -9 0 10 #fcfcfc
#000000 #000000 0 1;
#X obj 708 742 vsl 20 128 0 1 0 0 empty empty empty 0 -9 0 10 #fcfcfc
#000000 #000000 0 1;
#X obj 761 742 vsl 20 128 0 1 0 0 empty empty empty 0 -9 0 10 #fcfcfc
#000000 #000000 0 1;
#X obj 814 742 vsl 20 128 0 1 0 0 empty empty empty 0 -9 0 10 #fcfcfc
#000000 #000000 0 1;
#X obj 548 742 vsl 20 128 0 1 0 0 empty empty empty 0 -9 0 15 #fcfcfc
#000000 #000000 0 1;
#X obj 495 742 vsl 20 128 0 1 0 0 empty empty empty 0 -9 0 10 #fcfcfc
#000000 #000000 0 1;
#X obj 442 742 vsl 20 128 0 1 0 0 empty empty empty 0 -9 0 10 #fcfcfc
#000000 #000000 0 1;
#X obj 18 853 r~ one;
#X obj 71 853 r~ two;
#X obj 124 853 r~ thr;
#X obj 177 853 r~ fou;
#X obj 230 853 r~ fiv;
#X obj 283 853 r~ six;
#X obj 336 853 r~ sev;
#X obj 390 854 r~ eig;
#X obj 18 913 vu 30 120 empty empty -1 -8 0 10 #404040 #000000 1 0
;
#X obj 139 913 vu 30 120 empty empty -1 -8 0 10 #404040 #000000 1 0
;
#X obj 261 913 vu 30 120 empty empty -1 -8 0 10 #404040 #000000 1 0
;
#X obj 382 913 vu 30 120 empty empty -1 -8 0 10 #404040 #000000 1 0
;
#X obj 504 913 vu 30 120 empty empty -1 -8 0 10 #404040 #000000 1 0
;
#X obj 625 913 vu 30 120 empty empty -1 -8 0 10 #404040 #000000 1 0
;
#X obj 747 913 vu 30 120 empty empty -1 -8 0 10 #404040 #000000 1 0
;
#X obj 855 913 vu 30 120 empty empty -1 -8 0 10 #404040 #000000 1 0
;
#X obj 393 694 loadbang;
#X obj 18 823 s bpm;
#X obj 61 823 s play;
#X obj 524 128 synth/hat~, f 33;
#X floatatom 615 103 5 0 0 0 - - - 0;
#X floatatom 660 104 5 0 0 0 - - - 0;
#X floatatom 569 103 5 0 0 0 - - - 0;
#X obj 25 356 s~ two;
#X obj 23 550 s~ thr;
#X obj 868 743 vsl 20 128 0 1 0 0 empty empty empty 0 -9 0 10 #c4fcc4
#000000 #000000 0 1;
#X floatatom 1021 443 5 0 0 0 - - - 0;
#X obj 25 59 r play;
#X obj 76 59 r bpm;
#X obj 524 67 modulation/trig-seq;
#X obj 25 84 modulation/trig-seq;
#X obj 524 40 r play;
#X obj 573 40 r bpm;
#X obj 25 246 modulation/trig-seq;
#X obj 25 220 r play;
#X obj 81 220 r bpm;
#X obj 629 414 bng 15 250 50 0 empty empty trig1 17 7 0 10 #00fc04
#000000 #000000;
#X floatatom 684 411 5 0 0 2 att1 - - 0;
#X floatatom 740 411 5 0 0 2 dec1 - - 0;
#X obj 629 439 modulation/function-generator, f 30;
#X obj 563 367 modulation/trig-seq;
#X obj 563 342 r play;
#X obj 629 342 r bpm;
#X floatatom 347 118 5 0 0 0 - - - 0;
#X obj 563 448 random 4;
#X obj 563 473 sel 0;
#X obj 563 540 mtof;
#X obj 605 473 sel 1;
#X obj 647 473 sel 2;
#X obj 691 473 sel 3;
#X obj 24 482 synth/snare~, f 43;
#X floatatom 123 459 5 0 0 0 - - - 0;
#X floatatom 322 459 5 0 0 0 - - - 0;
#X floatatom 222 458 5 0 0 0 - - - 0;
#X obj 24 428 modulation/trig-seq;
#X obj 24 402 r play;
#X obj 75 402 r bpm;
#X obj 563 566 synth/bass~, f 14;
#X obj 25 331 overdrive~ 5;
#X text 543 432 BASS, f 1;
#X obj 24 507 overdrive~ 10;
#X obj 621 43 tgl 15 0 empty empty empty 17 7 0 10 #fcfcfc #000000
#000000 0 1;
#X obj 23 525 hip~ 400;
#X obj 122 225 tgl 15 0 empty empty empty 17 7 0 10 #fcfcfc #000000
#000000 0 1;
#X obj 525 187 fx/simple-del~;
#X floatatom 572 163 5 0 0 0 - - - 0;
#X obj 623 167 hsl 128 15 0 1 0 0 empty empty empty -2 -8 0 10 #fcfcfc
#000000 #000000 0 1;
#X obj 525 211 hip~ 8000;
#X obj 121 407 tgl 15 0 empty empty empty 17 7 0 10 #fcfcfc #000000
#000000 0 1;
#X msg 1122 187 0;
#X floatatom 1300 176 5 0 0 0 - - - 0;
#X obj 947 975 text define -k presets-complex;
#A set 8 2 8 50 464.5 0 1 0 0.03 deep-gurgel;
#X obj 932 53 text get presets-complex;
#X msg 932 25 0;
#X obj 932 78 unpack f f f f f f f f f s;
#X obj 947 995 text define -k presets-kick;
#A set 49 200 100 75 1 3 1500 0.1 g-standard \; 49 200 100 50 1 3 1500
0.1 standard-less-pitch \; 49 523 98 13 1 1 1084 0.1 long-deep \; 55
235 98 59 1 2 1000 0.6 resonant-a \; 43 235 98 59 1 2 1000 0.6 resonant-f
\; 43 86 127 19 1 4 506 0.2 holz \; 55 557 81 115 1 289 100 0.2 gabber-long
\; 43 355 155 88 81 364 701 0.5 gabber-reso \;;
#X f 30;
#X obj 249 63 text get presets-kick;
#X obj 249 88 unpack f f f f f f f f s;
#X symbolatom 421 89 10 0 0 0 - - - 0;
#X obj 947 1015 text define -k presets-clap;
#A set 8 15 -1 200 0.2 150 0.2 1200 3 short-punchy \; 8 2 -1 200 0.2
150 0.2 1200 3 shortest \; 12 20 -1 200 0.2 300 0.2 1800 2 long-smash
\; 12 9 -1 200 0.2 300 0.2 1800 2 short-smash \; 8 9 -1 644 0.2 1400
0.4 856 1 resonant-hi-snare \;;
#X f 30;
#X obj 227 251 unpack f f f f f f f f f s;
#X obj 227 228 text get presets-clap;
#X floatatom 393 118 5 0 0 0 - - - 0;
#X obj 25 169 s~ one;
#X text 96 794 PLAY/PAUSE;
#X obj 191 434 unpack f f f s;
#X obj 191 411 text get presets-snare;
#X symbolatom 293 435 10 0 0 0 - - - 0;
#X symbolatom 801 68 10 0 0 0 - - - 0;
#X floatatom 706 104 5 0 1 0 - - - 0;
#X floatatom 752 104 5 0 24 0 - - - 0;
#X obj 671 67 unpack f f f f f s;
#X obj 671 44 text get presets-hat;
#X obj 188 626 synth/hat~, f 33;
#X floatatom 279 601 5 0 0 0 - - - 0;
#X floatatom 324 602 5 0 0 0 - - - 0;
#X floatatom 233 601 5 0 0 0 - - - 0;
#X obj 188 565 modulation/trig-seq;
#X obj 188 538 r play;
#X obj 237 538 r bpm;
#X obj 285 541 tgl 15 0 empty empty empty 17 7 0 10 #fcfcfc #000000
#000000 0 1;
#X obj 189 685 fx/simple-del~;
#X floatatom 236 661 5 0 0 0 - - - 0;
#X obj 287 665 hsl 128 15 0 1 0 0 empty empty empty -2 -8 0 10 #fcfcfc
#000000 #000000 0 1;
#X obj 189 709 hip~ 8000;
#X symbolatom 465 566 10 0 0 0 - - - 0;
#X floatatom 370 602 5 0 0 0 - - - 0;
#X floatatom 416 602 5 0 0 0 - - - 0;
#X obj 335 565 unpack f f f f f s;
#X obj 335 542 text get presets-hat;
#X obj 189 734 s~ fou;
#X obj 562 592 s~ fiv;
#X obj 935 689 s~ six;
#X text 510 89 HAT 2, f 1;
#X text 170 602 HAT 1, f 1;
#X text 7 443 SNARE, f 1;
#X text 8 267 CLAP, f 1;
#X text 5 92 KICK, f 1;
#X msg 1478 76 next \$1;
#X obj 1522 131 hsl 128 15 100 2000 0 0 empty empty empty -2 -8 0 10
#fcfcfc #000000 #000000 0 1;
#X msg 1478 39 55;
#X msg 1509 39 57;
#X msg 1541 39 58;
#X msg 1574 39 62;
#X obj 1478 101 clone synth/saw-pol~ 8;
#X obj 1478 17 bng 15 250 50 0 empty empty empty 17 7 0 10 #fcfcfc
#000000 #000000;
#X text 1460 89 PAD, f 1;
#X obj 1479 281 fx/05dattorro/dattorrostereo;
#X obj 1478 214 fx/freqshift~;
#X floatatom 1522 185 5 0 0 0 - - - 0;
#X obj 965 25 loadmess 0;
#X msg 1628 39 53;
#X msg 1661 39 56;
#X msg 1694 39 60;
#X obj 1628 17 bng 15 250 50 0 empty empty empty 17 7 0 10 #fcfcfc
#000000 #000000;
#X obj 1744 17 bng 15 250 50 0 empty empty empty 17 7 0 10 #fcfcfc
#000000 #000000;
#X msg 1744 39 50;
#X msg 1775 39 52;
#X msg 1531 528 25.19 \, 0.338 \, 0.118 \, 0.85 \, 89.76;
#X obj 1479 152 svf~ 200 0.3;
#X obj 947 955 text define -k presets-snare;
#A set 70 98 56 g-snare \; 4 383 380 xtreme-short \; 128 0 54 noisy
\;;
#X f 30;
#X obj 947 935 text define -k presets-hat;
#A set 35 8000 7 0.5 24 classic \; 9 12000 11 0.1 24 lofi \; 95 4000
2 0.4 6 long-shaky \; 24 10000 6 1 24 classic2 \;;
#X f 30;
#X obj 947 915 text define -k presets-pad;
#A set;
#X f 30;
#X obj 947 895 text define -k presets-bass;
#A set;
#X f 30;
#X obj 563 502 31;
#X obj 691 503 34;
#X obj 122 64 tgl 15 0 empty empty empty 17 7 0 10 #fcfcfc #000000
#000000 0 1;
#X msg 393 720 0.5;
#X obj 1480 553 s~ eig;
#X obj 1480 528 *~ 3;
#X obj 674 24 hsl 128 15 0 5 0 0 empty empty empty -2 -8 0 10 #fcfcfc
#000000 #000000 0 1;
#X obj 338 522 hsl 128 15 0 5 0 0 empty empty empty -2 -8 0 10 #fcfcfc
#000000 #000000 0 1;
#X obj 252 43 hsl 128 15 0 7 0 0 empty empty empty -2 -8 0 10 #fcfcfc
#000000 #000000 0 1;
#X obj 194 391 hsl 128 15 0 2 0 0 empty empty empty -2 -8 0 10 #fcfcfc
#000000 #000000 0 1;
#X obj 230 208 hsl 128 15 0 4 0 0 empty empty empty -2 -8 0 10 #fcfcfc
#000000 #000000 0 1;
#X symbolatom 413 252 10 0 0 0 - - - 0;
#X obj 1579 183 modulation/lfo;
#X floatatom 1579 159 5 0 0 0 - - - 0;
#X floatatom 1626 159 5 0 0 0 - - - 0;
#X floatatom 1674 159 5 0 0 0 - - - 0;
#X obj 782 410 loadmess 1;
#N canvas 0 0 1920 1052 random-glitches 0;
#X obj 641 475 bng 15 250 50 0 empty empty trig1 17 7 0 10 #00fc04
#000000 #000000;
#X floatatom 696 472 5 0 0 2 att1 - - 0;
#X floatatom 752 472 5 0 0 2 dec1 - - 0;
#X obj 807 475 tgl 15 0 empty empty loop1 17 7 0 10 #00fc04 #000000
#000000 0 1;
#X obj 863 475 bng 15 250 50 0 empty empty trig2 17 7 0 10 #00fc04
#000000 #000000;
#X floatatom 918 472 5 0 0 2 att2 - - 0;
#X floatatom 974 472 5 0 0 2 dec2 - - 0;
#X obj 1030 478 tgl 15 0 empty empty loop2 17 7 0 10 #00fc04 #000000
#000000 0 1;
#X obj 641 500 modulation/function-generator, f 56;
#X obj 395 365 synth/additive-poly~;
#X obj 394 521 *~;
#X obj 96 174 modulation/trig-seq;
#X obj 486 254 random 10;
#X obj 395 284 sel 0;
#X obj 440 284 sel 1;
#X obj 486 284 sel 3;
#X obj 226 151 bng 15 250 50 0 empty empty empty 17 7 0 10 #fcfcfc
#000000 #000000;
#X obj 395 808 overdrive~ 5;
#X obj 186 316 random 150;
#X obj 194 406 random 150;
#X obj 394 632 *~;
#X obj 649 589 bng 15 250 50 0 empty empty trig1 17 7 0 10 #00fc04
#000000 #000000;
#X floatatom 704 586 5 0 0 2 att1 - - 0;
#X floatatom 760 586 5 0 0 2 dec1 - - 0;
#X obj 815 589 tgl 15 0 empty empty loop1 17 7 0 10 #00fc04 #000000
#000000 0 1;
#X obj 871 589 bng 15 250 50 0 empty empty trig2 17 7 0 10 #00fc04
#000000 #000000;
#X floatatom 926 586 5 0 0 2 att2 - - 0;
#X floatatom 982 586 5 0 0 2 dec2 - - 0;
#X obj 1038 592 tgl 15 0 empty empty loop2 17 7 0 10 #00fc04 #000000
#000000 0 1;
#X obj 649 614 modulation/function-generator, f 56;
#X obj 283 253 random 2;
#X obj 264 316 random 2;
#X obj 186 341 + 1;
#X obj 903 693 vsl 16 60 0 1 0 0 empty empty dry 0 -9 0 10 #fcfcfc
#000000 #000000 0 1;
#X obj 699 694 vsl 15 60 0 1 0 0 empty empty fb 0 -9 0 10 #fcfcfc #000000
#000000 0 1;
#X obj 598 694 vsl 15 60 0 5 0 0 empty empty depth 0 -9 0 10 #fcfcfc
#000000 #000000 0 1;
#X obj 496 696 vsl 15 60 0.01 3 0 0 empty empty freq 0 -9 0 10 #fcfcfc
#000000 #000000 0 1;
#X obj 801 694 vsl 15 60 0 1 0 0 empty empty wet 0 -9 0 10 #fcfcfc
#000000 #000000 0 1;
#X obj 395 767 fx/chorus-flanger~, f 73;
#X obj 217 459 random 10;
#X obj 217 484 * 0.1;
#X obj 213 543 * 0.1;
#X obj 213 518 random 50;
#X floatatom 213 568 5 0 0 0 - - - 0;
#X obj 213 619 * 0.1;
#X floatatom 213 644 5 0 0 0 - - - 0;
#X obj 213 594 random 10;
#X obj 395 845 *~ 0.5;
#X obj 396 912 hip~ 200;
#X obj 395 881 *~;
#X obj 444 846 osc~ 200;
#X obj 355 71 random 10;
#X obj 355 105 sel 0;
#X obj 400 105 sel 1;
#X obj 446 105 sel 3;
#X obj 355 130 0.25;
#X obj 400 130 0.125;
#X obj 446 130 0.5;
#X floatatom 355 155 5 0 0 0 - - - 0;
#X obj 357 189 random 10000;
#X obj 357 212 + 8000;
#X floatatom 441 213 5 0 0 0 - - - 0;
#X obj 807 400 loadmess 1;
#X obj 396 936 outlet~;
#X obj 96 146 inlet;
#X obj 138 145 inlet;
#X obj 193 81 loadmess 1;
#X text 352 47 random clock divide;
#X connect 0 0 8 0;
#X connect 1 0 8 1;
#X connect 2 0 8 2;
#X connect 3 0 8 3;
#X connect 4 0 8 4;
#X connect 5 0 8 5;
#X connect 6 0 8 6;
#X connect 7 0 8 7;
#X connect 8 2 10 1;
#X connect 9 0 10 0;
#X connect 10 0 20 0;
#X connect 11 0 0 0;
#X connect 11 0 12 0;
#X connect 11 0 18 0;
#X connect 11 0 30 0;
#X connect 11 0 31 0;
#X connect 11 0 21 0;
#X connect 11 0 19 0;
#X connect 11 0 39 0;
#X connect 11 0 42 0;
#X connect 11 0 46 0;
#X connect 11 0 51 0;
#X connect 11 0 59 0;
#X connect 12 0 13 0;
#X connect 12 0 14 0;
#X connect 12 0 15 0;
#X connect 13 0 9 0;
#X connect 14 0 9 1;
#X connect 15 0 9 2;
#X connect 16 0 11 4;
#X connect 17 0 47 0;
#X connect 18 0 32 0;
#X connect 19 0 26 0;
#X connect 20 0 38 0;
#X connect 21 0 29 0;
#X connect 22 0 29 1;
#X connect 23 0 29 2;
#X connect 24 0 29 3;
#X connect 25 0 29 4;
#X connect 26 0 29 5;
#X connect 27 0 29 6;
#X connect 28 0 29 7;
#X connect 29 2 20 1;
#X connect 30 0 28 0;
#X connect 30 0 24 0;
#X connect 31 0 3 0;
#X connect 32 0 2 0;
#X connect 33 0 38 5;
#X connect 34 0 38 3;
#X connect 35 0 38 2;
#X connect 36 0 38 1;
#X connect 37 0 38 4;
#X connect 38 0 17 0;
#X connect 39 0 40 0;
#X connect 40 0 37 0;
#X connect 41 0 43 0;
#X connect 42 0 41 0;
#X connect 43 0 35 0;
#X connect 44 0 45 0;
#X connect 45 0 36 0;
#X connect 46 0 44 0;
#X connect 47 0 49 0;
#X connect 48 0 63 0;
#X connect 49 0 48 0;
#X connect 50 0 49 1;
#X connect 51 0 52 0;
#X connect 51 0 53 0;
#X connect 51 0 54 0;
#X connect 52 0 55 0;
#X connect 53 0 56 0;
#X connect 54 0 57 0;
#X connect 55 0 58 0;
#X connect 56 0 58 0;
#X connect 57 0 58 0;
#X connect 58 0 11 2;
#X connect 59 0 60 0;
#X connect 60 0 9 3;
#X connect 60 0 61 0;
#X connect 62 0 6 0;
#X connect 62 0 27 0;
#X connect 62 0 2 0;
#X connect 62 0 23 0;
#X connect 64 0 11 0;
#X connect 65 0 11 1;
#X connect 66 0 11 3;
#X connect 66 0 16 0;
#X restore 1233 934 pd random-glitches;
#X text 944 876 PRESETS;
#X text 1194 889 OTHER INSTRUMENTS;
#X text 1181 939 CH. 7, f 1;
#N canvas 0 0 1920 1052 acid-melo 0;
#X floatatom 242 339 5 0 0 0 - - - 0;
#X obj 241 907 *~ 0.5;
#X obj 32 151 text define -k g-minor-scale;
#A set 43 \; 45 \; 46 \; 48 \; 50 \; 51 \; 53 \;;
#X obj 242 151 text get g-minor-scale;
#X obj 242 176 unpack f;
#X obj 242 91 random 6;
#X floatatom 242 116 5 0 0 0 - - - 0;
#X floatatom 242 201 5 0 0 0 - - - 0;
#X obj 242 309 mtof;
#X obj 242 363 phasor~;
#X obj 390 558 hsl 128 15 0 3000 0 0 empty empty empty -2 -8 0 10 #fcfcfc
#000000 #000000 0 1;
#X obj 327 547 line;
#X obj 327 577 +, f 9;
#X obj 432 612 hsl 128 15 0 1 0 0 empty empty empty -2 -8 0 10 #fcfcfc
#000000 #000000 0 1;
#X obj 242 280 + 12;
#X obj 267 229 sel 0 1, f 9;
#X msg 297 253 12;
#X msg 267 254 24;
#X obj 254 393 expr~ $v1 > 0.5;
#X floatatom 298 854 5 0 0 0 - - - 0;
#X floatatom 356 855 5 0 0.9 0 - - - 0;
#X floatatom 397 578 5 0 0 0 - - - 0;
#X obj 383 450 hsl 128 15 0 3000 0 0 empty empty empty -2 -8 0 10 #fcfcfc
#000000 #000000 0 1;
#X floatatom 407 471 5 0 0 0 - - - 0;
#X obj 242 428 *~ 0.5;
#X text 204 394 square;
#X text 162 245 octave switch;
#X obj 241 612 svf~, f 25;
#X floatatom 429 632 5 0 0 0 - - - 0;
#X obj 141 382 noise~;
#X obj 141 407 *~ 0.2;
#X obj 298 801 loadbang;
#X msg 298 826 201;
#X msg 332 827 0.5;
#X obj 240 882 fx/simple-del~;
#X obj 380 471 int;
#X obj 241 932 outlet~;
#X obj 327 496 pack s f;
#X text 195 880 DELAY;
#X text 303 463 FILTER ENV, f 1;
#X obj 540 745 modulation/complex-envelope~;
#X obj 652 716 unpack f f f;
#X obj 241 765 *~;
#X obj 480 71 modulation/euclidean-rhythm;
#X obj 480 42 inlet;
#X obj 573 42 inlet;
#X msg 666 42 7;
#X obj 666 18 loadbang;
#X msg 652 691 8 3.2 400;
#X text 516 448 FILTER ENV AMOUNT;
#X text 523 556 CUTOFF;
#X text 567 610 Q;
#X obj 727 690 loadbang;
#X msg 327 523 \$2 \, 0 75;
#X connect 0 0 9 0;
#X connect 1 0 36 0;
#X connect 3 0 4 0;
#X connect 4 0 7 0;
#X connect 5 0 6 0;
#X connect 6 0 3 0;
#X connect 6 0 15 0;
#X connect 7 0 14 0;
#X connect 8 0 0 0;
#X connect 9 0 18 0;
#X connect 9 0 24 0;
#X connect 10 0 12 1;
#X connect 10 0 21 0;
#X connect 11 0 12 0;
#X connect 12 0 27 1;
#X connect 13 0 28 0;
#X connect 13 0 27 2;
#X connect 14 0 8 0;
#X connect 15 0 17 0;
#X connect 15 1 16 0;
#X connect 16 0 14 1;
#X connect 17 0 14 1;
#X connect 18 0 24 0;
#X connect 19 0 34 1;
#X connect 20 0 34 2;
#X connect 22 0 23 0;
#X connect 22 0 35 0;
#X connect 24 0 27 0;
#X connect 27 0 42 0;
#X connect 29 0 30 0;
#X connect 30 0 24 0;
#X connect 31 0 32 0;
#X connect 31 0 33 0;
#X connect 32 0 19 0;
#X connect 33 0 20 0;
#X connect 34 0 1 0;
#X connect 35 0 37 1;
#X connect 37 0 53 0;
#X connect 40 0 42 1;
#X connect 41 0 40 0;
#X connect 41 1 40 1;
#X connect 41 2 40 3;
#X connect 42 0 34 0;
#X connect 43 0 40 2;
#X connect 43 0 22 0;
#X connect 43 0 37 0;
#X connect 43 0 5 0;
#X connect 44 0 43 0;
#X connect 45 0 43 1;
#X connect 46 0 43 2;
#X connect 47 0 46 0;
#X connect 48 0 41 0;
#X connect 52 0 48 0;
#X connect 53 0 11 0;
#X restore 1271 961 pd acid-melo;
#X obj 1197 986 selector~ 2;
#X obj 1197 913 hradio 15 1 0 3 empty empty empty 0 -8 0 10 #fcfcfc
#000000 #000000 0;
#X obj 1197 1011 s~ sev;
#X obj 1355 879 r play;
#X obj 1356 902 r bpm;
#X text 446 721 1;
#X text 498 721 2;
#X text 818 721 8;
#X text 765 721 7;
#X text 710 721 6;
#X text 658 721 5;
#X text 604 721 4;
#X text 552 721 3;
#X obj 18 728 loadmess 140;
#X connect 0 0 17 5;
#X connect 1 0 28 0;
#X connect 1 0 17 4;
#X connect 2 0 17 6;
#X connect 3 0 17 7;
#X connect 4 0 17 2;
#X connect 5 0 17 3;
#X connect 6 0 17 0;
#X connect 7 0 18 5;
#X connect 8 0 18 3;
#X connect 9 0 18 2;
#X connect 10 0 18 1;
#X connect 11 0 18 4;
#X connect 12 0 21 0;
#X connect 13 0 21 1;
#X connect 14 0 21 2;
#X connect 15 0 16 0;
#X connect 16 0 30 0;
#X connect 17 0 15 0;
#X connect 18 0 23 0;
#X connect 19 0 17 1;
#X connect 20 0 17 8;
#X connect 20 0 131 0;
#X connect 21 0 15 1;
#X connect 22 0 16 1;
#X connect 22 0 29 0;
#X connect 23 0 173 0;
#X connect 24 0 25 0;
#X connect 25 0 26 0;
#X connect 26 0 78 0;
#X connect 27 0 79 0;
#X connect 30 0 18 0;
#X connect 30 1 31 0;
#X connect 30 2 33 0;
#X connect 31 0 30 1;
#X connect 31 0 87 0;
#X connect 32 0 30 2;
#X connect 33 0 30 3;
#X connect 34 0 30 4;
#X connect 35 0 144 0;
#X connect 36 0 119 0;
#X connect 37 0 35 1;
#X connect 38 0 35 2;
#X connect 39 0 35 3;
#X connect 40 0 35 4;
#X connect 41 0 35 5;
#X connect 42 0 35 6;
#X connect 43 0 36 2;
#X connect 44 0 36 3;
#X connect 45 0 36 4;
#X connect 46 0 36 5;
#X connect 47 0 36 6;
#X connect 48 0 36 7;
#X connect 49 0 36 8;
#X connect 50 0 36 9;
#X connect 51 0 36 1;
#X connect 52 0 69 0;
#X connect 52 1 70 0;
#X connect 52 2 71 0;
#X connect 52 3 72 0;
#X connect 52 4 73 0;
#X connect 52 5 74 0;
#X connect 52 6 75 0;
#X connect 52 7 76 0;
#X connect 53 0 52 11;
#X connect 54 0 52 12;
#X connect 55 0 52 13;
#X connect 56 0 52 14;
#X connect 57 0 52 15;
#X connect 58 0 52 10;
#X connect 59 0 52 9;
#X connect 60 0 52 8;
#X connect 61 0 52 0;
#X connect 62 0 52 1;
#X connect 63 0 52 2;
#X connect 64 0 52 3;
#X connect 65 0 52 4;
#X connect 66 0 52 5;
#X connect 67 0 52 6;
#X connect 68 0 52 7;
#X connect 77 0 208 0;
#X connect 80 0 125 0;
#X connect 81 0 80 2;
#X connect 82 0 80 3;
#X connect 83 0 80 1;
#X connect 86 0 52 16;
#X connect 88 0 91 0;
#X connect 89 0 91 1;
#X connect 90 0 80 0;
#X connect 91 0 35 0;
#X connect 92 0 90 0;
#X connect 93 0 90 1;
#X connect 94 0 36 0;
#X connect 95 0 94 0;
#X connect 96 0 94 1;
#X connect 97 0 100 0;
#X connect 98 0 100 1;
#X connect 99 0 100 2;
#X connect 100 0 118 1;
#X connect 101 0 97 0;
#X connect 101 0 105 0;
#X connect 102 0 101 0;
#X connect 103 0 101 1;
#X connect 104 0 35 7;
#X connect 105 0 106 0;
#X connect 105 0 108 0;
#X connect 105 0 109 0;
#X connect 105 0 110 0;
#X connect 106 0 205 0;
#X connect 107 0 118 0;
#X connect 108 0 205 0;
#X connect 109 0 205 0;
#X connect 110 0 206 0;
#X connect 111 0 121 0;
#X connect 112 0 111 1;
#X connect 113 0 111 3;
#X connect 114 0 111 2;
#X connect 115 0 111 0;
#X connect 116 0 115 0;
#X connect 117 0 115 1;
#X connect 118 0 172 0;
#X connect 119 0 84 0;
#X connect 121 0 123 0;
#X connect 122 0 90 3;
#X connect 123 0 85 0;
#X connect 124 0 94 3;
#X connect 125 0 128 0;
#X connect 126 0 125 1;
#X connect 127 0 125 2;
#X connect 128 0 171 0;
#X connect 129 0 115 3;
#X connect 130 0 1 0;
#X connect 133 0 135 0;
#X connect 134 0 133 0;
#X connect 135 0 6 0;
#X connect 135 1 19 0;
#X connect 135 2 4 0;
#X connect 135 3 5 0;
#X connect 135 4 1 0;
#X connect 135 5 0 0;
#X connect 135 6 2 0;
#X connect 135 7 3 0;
#X connect 135 8 20 0;
#X connect 137 0 138 0;
#X connect 138 0 37 0;
#X connect 138 1 38 0;
#X connect 138 2 39 0;
#X connect 138 3 40 0;
#X connect 138 4 41 0;
#X connect 138 5 42 0;
#X connect 138 6 104 0;
#X connect 138 7 143 0;
#X connect 138 8 139 0;
#X connect 141 0 51 0;
#X connect 141 1 43 0;
#X connect 141 2 44 0;
#X connect 141 3 45 0;
#X connect 141 4 46 0;
#X connect 141 5 47 0;
#X connect 141 6 48 0;
#X connect 141 7 49 0;
#X connect 141 8 50 0;
#X connect 141 9 216 0;
#X connect 142 0 141 0;
#X connect 143 0 35 8;
#X connect 146 0 112 0;
#X connect 146 1 114 0;
#X connect 146 2 113 0;
#X connect 146 3 148 0;
#X connect 147 0 146 0;
#X connect 150 0 80 4;
#X connect 151 0 80 5;
#X connect 152 0 83 0;
#X connect 152 1 81 0;
#X connect 152 2 82 0;
#X connect 152 3 150 0;
#X connect 152 4 151 0;
#X connect 152 5 149 0;
#X connect 153 0 152 0;
#X connect 154 0 162 0;
#X connect 155 0 154 2;
#X connect 156 0 154 3;
#X connect 157 0 154 1;
#X connect 158 0 154 0;
#X connect 159 0 158 0;
#X connect 160 0 158 1;
#X connect 161 0 158 3;
#X connect 162 0 165 0;
#X connect 163 0 162 1;
#X connect 164 0 162 2;
#X connect 165 0 171 0;
#X connect 167 0 154 4;
#X connect 168 0 154 5;
#X connect 169 0 157 0;
#X connect 169 1 155 0;
#X connect 169 2 156 0;
#X connect 169 3 167 0;
#X connect 169 4 168 0;
#X connect 169 5 166 0;
#X connect 170 0 169 0;
#X connect 179 0 185 0;
#X connect 180 0 200 1;
#X connect 181 0 179 0;
#X connect 182 0 179 0;
#X connect 183 0 179 0;
#X connect 184 0 179 0;
#X connect 185 0 200 0;
#X connect 186 0 181 0;
#X connect 186 0 184 0;
#X connect 186 0 183 0;
#X connect 186 0 182 0;
#X connect 188 0 210 0;
#X connect 188 1 210 0;
#X connect 189 0 188 0;
#X connect 189 1 188 0;
#X connect 190 0 189 1;
#X connect 191 0 133 0;
#X connect 192 0 179 0;
#X connect 193 0 179 0;
#X connect 194 0 179 0;
#X connect 195 0 192 0;
#X connect 195 0 194 0;
#X connect 195 0 193 0;
#X connect 195 0 181 0;
#X connect 196 0 197 0;
#X connect 196 0 198 0;
#X connect 196 0 192 0;
#X connect 196 0 182 0;
#X connect 197 0 179 0;
#X connect 198 0 179 0;
#X connect 200 0 189 0;
#X connect 205 0 107 0;
#X connect 206 0 107 0;
#X connect 207 0 91 3;
#X connect 208 0 60 0;
#X connect 208 0 59 0;
#X connect 208 0 58 0;
#X connect 208 0 53 0;
#X connect 208 0 54 0;
#X connect 208 0 55 0;
#X connect 208 0 56 0;
#X connect 208 0 57 0;
#X connect 210 0 209 0;
#X connect 211 0 153 0;
#X connect 212 0 170 0;
#X connect 213 0 137 0;
#X connect 214 0 147 0;
#X connect 215 0 142 0;
#X connect 217 0 190 0;
#X connect 218 0 217 0;
#X connect 219 0 217 1;
#X connect 220 0 217 2;
#X connect 221 0 99 0;
#X connect 222 0 227 1;
#X connect 226 0 227 2;
#X connect 227 0 229 0;
#X connect 228 0 227 0;
#X connect 230 0 222 0;
#X connect 230 0 226 0;
#X connect 231 0 222 1;
#X connect 231 0 226 1;
#X connect 240 0 24 0;
