#N canvas 0 28 1361 1050 12;
#X obj 275 71 tgl 30 0 empty empty fm 17 7 0 10 -262144 -1 -1 1 1;
#X obj 232 22 hsl 128 30 -1000 1000 0 0 empty empty +-index -2 -8 0
10 -262144 -1 -1 7350 1;
#X obj 321 71 tgl 30 0 empty empty am 17 7 0 10 -262144 -1 -1 0 1;
#X obj 367 71 tgl 30 0 empty empty shape 17 7 0 10 -262144 -1 -1 1
1;
#X floatatom 137 83 5 0 0 2 freq - -;
#X obj 183 38 vsl 15 60 0 100 0 0 empty empty pwm 0 -9 0 10 -262144
-1 -1 2800 1;
#X floatatom 45 83 5 0 0 0 - - -;
#X floatatom 582 29 5 0 0 2 clock - -;
#X floatatom 626 30 5 0 0 2 freq - -;
#X obj 1288 44 bng 15 250 50 0 empty empty trig1 17 7 0 10 -4034 -1
-1;
#X floatatom 1343 41 5 0 0 2 att1 - -;
#X floatatom 1399 41 5 0 0 2 dec1 - -;
#X obj 1454 44 tgl 15 0 empty empty loop1 17 7 0 10 -4034 -1 -1 0 1
;
#X obj 1510 44 bng 15 250 50 0 empty empty trig2 17 7 0 10 -4034 -1
-1;
#X floatatom 1565 41 5 0 0 2 att2 - -;
#X floatatom 1621 41 5 0 0 2 dec2 - -;
#X obj 1677 44 tgl 15 0 empty empty loop2 17 7 0 10 -4034 -1 -1 0 1
;
#X obj 554 610 vsl 16 60 0 1 0 0 empty empty dry 0 -9 0 10 -262144
-1 -1 2800 1;
#X obj 350 611 vsl 15 60 0 1 0 0 empty empty fb 0 -9 0 10 -262144 -1
-1 0 1;
#X obj 249 611 vsl 15 60 0 5 0 0 empty empty depth 0 -9 0 10 -262144
-1 -1 3300 1;
#X obj 147 613 vsl 15 60 0.01 3 0 0 empty empty freq 0 -9 0 10 -262144
-1 -1 500 1;
#X obj 452 611 vsl 15 60 0 1 0 0 empty empty wet 0 -9 0 10 -262144
-1 -1 4200 1;
#X obj 67 155 hsl 128 15 0 16000 0 0 empty empty empty -2 -8 0 10 -262144
-1 -1 6300 1;
#X obj 125 175 hsl 128 15 0 1 0 0 empty empty empty -2 -8 0 10 -262144
-1 -1 4000 1;
#X obj 183 195 hsl 128 15 0 0.1 0 0 empty empty empty -2 -8 0 10 -262144
-1 -1 3600 1;
#X obj 97 732 vsl 15 128 30 120 0 0 empty empty lo_freq 0 -9 0 10 -262144
-1 -1 6700 1;
#X floatatom 97 868 5 0 0 0 - - -;
#X obj 149 732 vsl 15 128 -20 20 0 0 empty empty lo_gain 0 -9 0 10
-262144 -1 -1 11300 1;
#X floatatom 149 868 5 0 0 0 - - -;
#X obj 201 732 vsl 15 128 0.1 100 0 0 empty empty low_q 0 -9 0 10 -262144
-1 -1 700 1;
#X floatatom 201 868 5 0 0 0 - - -;
#X obj 253 732 vsl 15 128 8000 14000 0 0 empty empty hi_freq 0 -9 0
10 -262144 -1 -1 500 1;
#X floatatom 253 868 6 0 0 0 - - -;
#X obj 305 732 vsl 15 128 -20 20 0 0 empty empty hi_gain 0 -9 0 10
-262144 -1 -1 8200 1;
#X floatatom 305 869 5 0 0 0 - - -;
#X obj 357 732 vsl 15 128 0.1 100 0 0 empty empty hi_q 0 -9 0 10 -262144
-1 -1 0 1;
#X floatatom 357 868 5 0 0 0 - - -;
#X obj 47 331 clip~ 0 1;
#X obj 46 251 +~;
#X obj 47 307 overdrive~ 1;
#X obj 100 389 hsl 128 15 20 5000 0 0 empty empty empty -2 -8 0 10
-262144 -1 -1 1700 1;
#X obj 47 434 iemlib/bsq2~ 440 1 200;
#X obj 150 409 hsl 128 15 0.1 2 0 0 empty empty empty -2 -8 0 10 -262144
-1 -1 3300 1;
#X text 213 434 notch;
#X obj 45 110 synth/complex-oscillator~, f 53;
#X obj 582 57 modulation/source-of-uncertainty;
#X obj 1288 69 modulation/function-generator, f 56;
#X obj 46 684 fx/chorus-flanger~, f 73;
#X obj 45 896 fx/shelf-eq~, f 45;
#X obj 91 42 vradio 15 1 0 4 empty empty empty 0 -8 0 10 -262144 -1
-1 1;
#X obj 416 32 hsl 128 30 0 1 0 0 empty empty wavefold -2 -8 0 10 -262144
-1 -1 1400 1;
#N canvas 0 28 1920 1052 filterednoise~ 0;
#X obj 59 67 noise~;
#X obj 95 137 *~;
#X obj 135 67 inlet;
#X obj 185 67 inlet;
#X obj 235 67 inlet;
#X obj 59 112 svf~, f 8;
#X obj 95 162 outlet~;
#X connect 0 0 5 0;
#X connect 1 0 6 0;
#X connect 2 0 5 1;
#X connect 3 0 5 2;
#X connect 4 0 1 1;
#X connect 5 2 1 0;
#X restore 64 221 pd filterednoise~;
#X floatatom 670 29 5 0 0 2 - - -;
#X floatatom 714 30 5 0 0 2 - - -;
#X floatatom 758 29 5 0 0 2 - - -;
#X floatatom 803 30 5 0 0 2 - - -;
#X msg 235 78 0;
#X obj 131 287 hsl 128 15 0.1 10 0 0 empty empty empty -2 -8 0 10 -262144
-1 -1 1300 1;
#X obj 82 939 fx/lyra-delay/lyra-delay~;
#X obj 627 274 modulation/orthoseq, f 32;
#X obj 1752 569 hsl 128 15 130 200 0 0 empty empty empty -2 -8 0 10
-262144 -1 -1 2600 1;
#X obj 1749 589 int;
#X floatatom 1749 613 5 0 0 0 - - -;
#X floatatom 700 298 5 0 0 0 - - -;
#X floatatom 627 251 5 0 0 0 - - -;
#X floatatom 700 251 5 0 0 0 - - -;
#X floatatom 627 298 5 0 0 0 - - -;
#N canvas 0 28 1101 1050 clock 0;
#X obj 36 183 metro;
#X msg 36 104 1;
#X msg 67 104 0;
#X obj 128 77 expr 60000/$f1;
#X obj 36 208 outlet;
#X obj 128 49 inlet;
#X obj 36 75 sel 1;
#X obj 36 49 inlet;
#X obj 86 209 outlet;
#X obj 258 78 inlet;
#X obj 128 102 *;
#X obj 258 103 t b f;
#X text 137 210 out 1 clock \, 2 reset;
#X connect 0 0 4 0;
#X connect 1 0 0 0;
#X connect 2 0 0 0;
#X connect 2 0 8 0;
#X connect 3 0 10 0;
#X connect 5 0 3 0;
#X connect 6 0 1 0;
#X connect 6 1 2 0;
#X connect 7 0 6 0;
#X connect 9 0 11 0;
#X connect 10 0 0 1;
#X connect 11 0 10 0;
#X connect 11 1 10 1;
#X restore 774 230 pd clock;
#X f 11;
#X obj 1792 602 tgl 30 0 empty empty empty 17 7 0 10 -4034 -1 -1 0
1;
#X floatatom 774 298 5 0 0 0 - - -;
#X obj 45 963 iemlib/hp2_butt~ 25 1;
#X obj 45 988 iemlib/hp2_butt~ 25 1;
#X floatatom 235 57 5 0 0 0 - - -;
#X floatatom 582 81 5 0 0 0 - - -;
#X floatatom 140 308 5 0 0 0 - - -;
#X floatatom 97 409 5 0 0 0 - - -;
#X floatatom 803 82 5 0 0 0 - - -;
#X obj 45 939 *~ 1;
#X obj 47 562 fx/291~, f 50;
#X obj 136 477 hsl 128 15 0 12000 0 0 empty empty empty -2 -8 0 10
-262144 -1 -1 4200 1;
#X obj 220 497 hradio 15 1 0 8 empty empty empty 0 -8 0 10 -262144
-1 -1 1;
#X obj 310 517 hsl 128 15 1 10 0 0 empty empty empty -2 -8 0 10 -262144
-1 -1 2000 1;
#X obj 394 537 hradio 15 1 0 8 empty empty empty 0 -8 0 10 -262144
-1 -1 2;
#X floatatom 1618 138 5 0 0 1 note - -;
#X floatatom 1618 160 5 0 0 1 duration - -;
#X floatatom 1618 117 5 0 0 1 step - -;
#N canvas 1184 28 734 510 orthoseq-write 0;
#X obj 38 39 inlet;
#X obj 136 39 inlet;
#X obj 263 38 inlet;
#X obj 38 156 tabwrite note;
#X obj 351 37 inlet;
#X obj 136 156 tabwrite duration;
#X obj 263 156 tabwrite gate;
#X connect 0 0 3 0;
#X connect 1 0 5 0;
#X connect 2 0 6 0;
#X connect 4 0 3 1;
#X connect 4 0 5 1;
#X connect 4 0 6 1;
#X restore 1475 200 pd orthoseq-write;
#X floatatom 1618 181 5 0 0 1 gate - -;
#N canvas 1184 28 734 510 orthoseq-read 0;
#X obj 55 42 inlet;
#X obj 55 108 tabread note;
#X obj 153 109 tabread duration;
#X obj 280 109 tabread gate;
#X msg 55 133 set \$1;
#X obj 55 158 outlet;
#X msg 153 133 set \$1;
#X obj 153 158 outlet;
#X msg 280 133 set \$1;
#X obj 280 158 outlet;
#X connect 0 0 1 0;
#X connect 0 0 2 0;
#X connect 0 0 3 0;
#X connect 1 0 4 0;
#X connect 2 0 6 0;
#X connect 3 0 8 0;
#X connect 4 0 5 0;
#X connect 6 0 7 0;
#X connect 8 0 9 0;
#X restore 1349 200 pd orthoseq-read;
#X text 860 28 playback FR \, FL;
#X obj 895 680 synth/hat~, f 24;
#X obj 848 309 synth/kick~, f 53;
#X obj 1287 497 synth/clap~, f 52;
#X obj 680 916 modulation/line-alternative;
#X floatatom 680 886 5 0 0 0 - - -;
#X floatatom 680 941 5 0 0 0 - - -;
#X floatatom 1005 655 5 0 0 0 - - -;
#X floatatom 1060 656 5 0 0 0 - - -;
#X floatatom 909 286 5 0 0 0 - - -;
#X floatatom 970 286 5 0 0 0 - - -;
#X floatatom 1032 286 5 0 0 0 - - -;
#X floatatom 1093 286 5 0 0 0 - - -;
#X floatatom 1154 286 5 0 0 0 - - -;
#X floatatom 1216 286 5 0 0 0 - - -;
#N canvas 0 28 1920 1052 aed-pan 0;
#X obj 358 495 mrpeach/packOSC;
#X obj 358 520 mrpeach/udpsend;
#X msg 113 370 connect 149.222.206.225 9000;
#X msg 114 394 disconnect;
#X msg 358 465 send /dome/\$2 \$3 \$1;
#X obj 358 545 tgl 15 0 empty empty empty 17 7 0 10 -262144 -1 -1 0
1;
#X obj 358 436 pack f s f;
#X msg 358 350 \$1 azimuth;
#X msg 442 350 \$1 elevation;
#X msg 541 350 \$1 spread;
#X obj 358 321 inlet;
#X obj 442 321 inlet;
#X obj 541 321 inlet;
#X obj 685 325 inlet;
#X text 361 285 0 azimuth \, 1 elevation \, 2 spread \, 3 channel;
#X connect 0 0 1 0;
#X connect 1 0 5 0;
#X connect 2 0 1 0;
#X connect 3 0 1 0;
#X connect 4 0 0 0;
#X connect 6 0 4 0;
#X connect 7 0 6 0;
#X connect 8 0 6 0;
#X connect 9 0 6 0;
#X connect 10 0 7 0;
#X connect 11 0 8 0;
#X connect 12 0 9 0;
#X connect 13 0 6 2;
#X restore 680 998 pd aed-pan;
#X obj 747 942 loadbang;
#X floatatom 1367 471 5 0 0 0 - - -;
#X floatatom 1407 471 5 0 0 0 - - -;
#X floatatom 1447 471 5 0 0 0 - - -;
#X floatatom 1487 471 5 0 0 0 - - -;
#X floatatom 1527 471 5 0 0 0 - - -;
#X floatatom 1567 471 5 0 0 0 - - -;
#X floatatom 1607 471 5 0 0 0 - - -;
#X floatatom 1648 471 5 0 0 0 - - -;
#X floatatom 1327 471 5 0 0 0 - - -;
#N canvas 0 28 1920 1052 mix 0;
#X obj 38 74 inlet~;
#X obj 138 74 inlet~;
#X obj 237 74 inlet~;
#X obj 337 74 inlet~;
#X obj 436 74 inlet~;
#X obj 536 74 inlet~;
#X obj 635 74 inlet~;
#X obj 735 74 inlet~;
#X obj 38 445 dac~ 1 2 3 4 5 6 7 8, f 100;
#X obj 38 198 *~;
#X obj 138 198 *~;
#X obj 237 198 *~;
#X obj 337 198 *~;
#X obj 436 198 *~;
#X obj 536 198 *~;
#X obj 635 198 *~;
#X obj 735 198 *~;
#X obj 73 248 env~;
#X obj 173 248 env~;
#X obj 272 248 env~;
#X obj 372 248 env~;
#X obj 471 248 env~;
#X obj 571 248 env~;
#X obj 670 248 env~;
#X obj 770 248 env~;
#X obj 821 74 inlet;
#X obj 921 74 inlet;
#X obj 1020 74 inlet;
#X obj 1120 74 inlet;
#X obj 1219 74 inlet;
#X obj 1319 74 inlet;
#X obj 1418 74 inlet;
#X obj 1518 74 inlet;
#X obj 73 272 - 100;
#X obj 73 297 outlet;
#X obj 173 272 - 100;
#X obj 272 272 - 100;
#X obj 372 272 - 100;
#X obj 471 272 - 100;
#X obj 571 272 - 100;
#X obj 670 272 - 100;
#X obj 770 272 - 100;
#X obj 770 297 outlet;
#X obj 670 297 outlet;
#X obj 571 297 outlet;
#X obj 471 297 outlet;
#X obj 372 297 outlet;
#X obj 272 297 outlet;
#X obj 173 297 outlet;
#X connect 0 0 9 0;
#X connect 1 0 10 0;
#X connect 2 0 11 0;
#X connect 3 0 12 0;
#X connect 4 0 13 0;
#X connect 5 0 14 0;
#X connect 6 0 15 0;
#X connect 7 0 16 0;
#X connect 9 0 8 0;
#X connect 9 0 17 0;
#X connect 10 0 8 1;
#X connect 10 0 18 0;
#X connect 11 0 8 2;
#X connect 11 0 19 0;
#X connect 12 0 8 3;
#X connect 12 0 20 0;
#X connect 13 0 8 4;
#X connect 13 0 21 0;
#X connect 14 0 8 5;
#X connect 14 0 22 0;
#X connect 15 0 8 6;
#X connect 15 0 23 0;
#X connect 16 0 8 7;
#X connect 16 0 24 0;
#X connect 17 0 33 0;
#X connect 18 0 35 0;
#X connect 19 0 36 0;
#X connect 20 0 37 0;
#X connect 21 0 38 0;
#X connect 22 0 39 0;
#X connect 23 0 40 0;
#X connect 24 0 41 0;
#X connect 25 0 9 1;
#X connect 26 0 10 1;
#X connect 27 0 11 1;
#X connect 28 0 12 1;
#X connect 29 0 13 1;
#X connect 30 0 14 1;
#X connect 31 0 15 1;
#X connect 32 0 16 1;
#X connect 33 0 34 0;
#X connect 35 0 48 0;
#X connect 36 0 47 0;
#X connect 37 0 46 0;
#X connect 38 0 45 0;
#X connect 39 0 44 0;
#X connect 40 0 43 0;
#X connect 41 0 42 0;
#X restore 898 867 pd mix;
#X f 122;
#X obj 1522 726 vsl 20 128 0 1 0 0 empty empty empty 0 -9 0 10 -262144
-1 -1 12700 1;
#X obj 1578 726 vsl 20 128 0 1 0 0 empty empty empty 0 -9 0 10 -262144
-1 -1 12700 1;
#X obj 1635 726 vsl 20 128 0 1 0 0 empty empty empty 0 -9 0 10 -262144
-1 -1 12700 1;
#X obj 1692 726 vsl 20 128 0 1 0 0 empty empty empty 0 -9 0 10 -262144
-1 -1 12700 1;
#X obj 1749 726 vsl 20 128 0 1 0 0 empty empty empty 0 -9 0 10 -262144
-1 -1 12700 1;
#X obj 1465 726 vsl 20 128 0 1 0 0 empty empty empty 0 -9 0 15 -262144
-1 -1 12700 1;
#X obj 1408 726 vsl 20 128 0 1 0 0 empty empty empty 0 -9 0 10 -262144
-1 -1 12700 1;
#X obj 1351 726 vsl 20 128 0 1 0 0 empty empty empty 0 -9 0 10 -262144
-1 -1 12700 1;
#X obj 848 345 s~ one;
#X obj 898 837 r~ one;
#X obj 954 837 r~ two;
#X obj 1011 837 r~ thr;
#X obj 1068 837 r~ fou;
#X obj 1124 837 r~ fiv;
#X obj 1181 837 r~ six;
#X obj 1238 837 r~ sev;
#X obj 1295 838 r~ eig;
#X obj 1157 644 s~ fou;
#X obj 45 1013 s~ eig;
#X obj 565 769 synth/additive-poly~;
#X obj 899 897 vu 30 120 empty empty -1 -8 0 10 -66577 -1 1 0;
#X obj 1020 897 vu 30 120 empty empty -1 -8 0 10 -66577 -1 1 0;
#X obj 1142 897 vu 30 120 empty empty -1 -8 0 10 -66577 -1 1 0;
#X obj 1263 897 vu 30 120 empty empty -1 -8 0 10 -66577 -1 1 0;
#X obj 1385 897 vu 30 120 empty empty -1 -8 0 10 -66577 -1 1 0;
#X obj 1506 897 vu 30 120 empty empty -1 -8 0 10 -66577 -1 1 0;
#X obj 1628 897 vu 30 120 empty empty -1 -8 0 10 -66577 -1 1 0;
#X obj 1750 897 vu 30 120 empty empty -1 -8 0 10 -66577 -1 1 0;
#X obj 565 794 s~ six;
#X msg 1749 686 1, f 4;
#X obj 1749 662 loadbang;
#X msg 747 967 1;
#X obj 927 544 expr 60000/$f1;
#X floatatom 927 569 5 0 0 0 - - -;
#X obj 895 627 metro;
#X obj 895 656 bng 15 250 50 0 empty empty empty 17 7 0 10 -262144
-1 -1;
#X floatatom 950 655 5 0 0 0 - - -;
#X obj 1749 637 s bpm;
#X obj 1792 637 s play;
#X obj 774 200 r play;
#X obj 823 200 r bpm;
#X obj 895 511 r play;
#X obj 945 511 r bpm;
#X obj 1319 319 expr 60000/$f1;
#X floatatom 1319 344 5 0 0 0 - - -;
#X obj 1287 412 metro;
#X obj 1287 286 r play;
#X obj 1337 286 r bpm;
#X obj 1319 378 * 2;
#X obj 927 593 / 4;
#X obj 1287 440 del;
#X obj 47 355 *~ 1;
#X obj 827 974 s~ sev;
#X obj 827 1000 s~ fiv;
#X obj 1158 610 synth/hat~, f 24;
#X floatatom 1268 585 5 0 0 0 - - -;
#X floatatom 1323 586 5 0 0 0 - - -;
#X floatatom 1213 585 5 0 0 0 - - -;
#X obj 1287 522 s~ two;
#X obj 895 705 s~ thr;
#X connect 0 0 44 5;
#X connect 1 0 72 0;
#X connect 1 0 44 4;
#X connect 2 0 44 6;
#X connect 3 0 44 7;
#X connect 4 0 44 2;
#X connect 5 0 44 3;
#X connect 6 0 44 0;
#X connect 7 0 45 0;
#X connect 8 0 45 1;
#X connect 9 0 46 0;
#X connect 10 0 46 1;
#X connect 11 0 46 2;
#X connect 12 0 46 3;
#X connect 13 0 46 4;
#X connect 14 0 46 5;
#X connect 15 0 46 6;
#X connect 16 0 46 7;
#X connect 17 0 47 5;
#X connect 18 0 47 3;
#X connect 19 0 47 2;
#X connect 20 0 47 1;
#X connect 21 0 47 4;
#X connect 22 0 51 0;
#X connect 23 0 51 1;
#X connect 24 0 51 2;
#X connect 25 0 26 0;
#X connect 26 0 48 1;
#X connect 27 0 28 0;
#X connect 28 0 48 2;
#X connect 29 0 30 0;
#X connect 30 0 48 3;
#X connect 31 0 32 0;
#X connect 32 0 48 4;
#X connect 33 0 34 0;
#X connect 34 0 48 5;
#X connect 35 0 36 0;
#X connect 36 0 48 6;
#X connect 37 0 167 0;
#X connect 38 0 39 0;
#X connect 39 0 37 0;
#X connect 40 0 41 1;
#X connect 40 0 75 0;
#X connect 41 0 78 0;
#X connect 42 0 41 2;
#X connect 44 0 38 0;
#X connect 45 0 73 0;
#X connect 45 1 76 0;
#X connect 47 0 77 0;
#X connect 49 0 44 1;
#X connect 50 0 44 8;
#X connect 51 0 38 1;
#X connect 52 0 45 2;
#X connect 53 0 45 3;
#X connect 54 0 45 4;
#X connect 55 0 45 5;
#X connect 56 0 1 0;
#X connect 57 0 39 1;
#X connect 57 0 74 0;
#X connect 59 0 66 0;
#X connect 59 1 63 0;
#X connect 59 2 67 2;
#X connect 59 2 69 0;
#X connect 59 3 91 0;
#X connect 60 0 61 0;
#X connect 61 0 62 0;
#X connect 62 0 153 0;
#X connect 64 0 59 0;
#X connect 65 0 59 1;
#X connect 67 0 59 2;
#X connect 67 1 59 3;
#X connect 68 0 154 0;
#X connect 70 0 71 0;
#X connect 71 0 134 0;
#X connect 77 0 70 0;
#X connect 78 0 47 0;
#X connect 78 1 79 0;
#X connect 78 2 81 0;
#X connect 79 0 78 1;
#X connect 80 0 78 2;
#X connect 81 0 78 3;
#X connect 82 0 78 4;
#X connect 83 0 86 0;
#X connect 84 0 86 1;
#X connect 85 0 88 0;
#X connect 85 0 86 3;
#X connect 87 0 86 2;
#X connect 88 0 83 0;
#X connect 88 1 84 0;
#X connect 88 2 87 0;
#X connect 90 0 175 0;
#X connect 91 0 124 0;
#X connect 92 0 174 0;
#X connect 93 0 95 0;
#X connect 94 0 93 0;
#X connect 96 0 90 2;
#X connect 97 0 90 3;
#X connect 98 0 91 1;
#X connect 99 0 91 2;
#X connect 100 0 91 3;
#X connect 101 0 91 4;
#X connect 102 0 91 5;
#X connect 103 0 91 6;
#X connect 105 0 147 0;
#X connect 106 0 92 2;
#X connect 107 0 92 3;
#X connect 108 0 92 4;
#X connect 109 0 92 5;
#X connect 110 0 92 6;
#X connect 111 0 92 7;
#X connect 112 0 92 8;
#X connect 113 0 92 9;
#X connect 114 0 92 1;
#X connect 115 0 136 0;
#X connect 115 1 137 0;
#X connect 115 2 138 0;
#X connect 115 3 139 0;
#X connect 115 4 140 0;
#X connect 115 5 141 0;
#X connect 115 6 142 0;
#X connect 115 7 143 0;
#X connect 116 0 115 11;
#X connect 117 0 115 12;
#X connect 118 0 115 13;
#X connect 119 0 115 14;
#X connect 120 0 115 15;
#X connect 121 0 115 10;
#X connect 122 0 115 9;
#X connect 123 0 115 8;
#X connect 125 0 115 0;
#X connect 126 0 115 1;
#X connect 127 0 115 2;
#X connect 128 0 115 3;
#X connect 129 0 115 4;
#X connect 130 0 115 5;
#X connect 131 0 115 6;
#X connect 132 0 115 7;
#X connect 135 0 144 0;
#X connect 145 0 123 0;
#X connect 145 0 122 0;
#X connect 145 0 121 0;
#X connect 145 0 116 0;
#X connect 145 0 117 0;
#X connect 145 0 118 0;
#X connect 145 0 119 0;
#X connect 145 0 120 0;
#X connect 146 0 145 0;
#X connect 147 0 104 3;
#X connect 148 0 149 0;
#X connect 149 0 165 0;
#X connect 150 0 151 0;
#X connect 151 0 90 0;
#X connect 152 0 90 1;
#X connect 155 0 67 0;
#X connect 156 0 67 1;
#X connect 157 0 150 0;
#X connect 158 0 148 0;
#X connect 159 0 160 0;
#X connect 159 0 166 1;
#X connect 160 0 164 0;
#X connect 161 0 166 0;
#X connect 162 0 161 0;
#X connect 163 0 159 0;
#X connect 164 0 161 1;
#X connect 165 0 150 1;
#X connect 166 0 92 0;
#X connect 167 0 41 0;
#X connect 171 0 170 2;
#X connect 172 0 170 3;
#X connect 173 0 170 1;
