#N canvas 0 28 900 1050 12;
#X obj 285 104 tgl 30 0 empty empty fm 17 7 0 10 -262144 -1 -1 0 1
;
#X obj 242 65 hsl 128 30 -1000 1000 0 0 empty empty +-index -2 -8 0
10 -262144 -1 -1 6500 1;
#X text 44 16 modulator destination;
#X obj 331 104 tgl 30 0 empty empty am 17 7 0 10 -262144 -1 -1 0 1
;
#X obj 377 104 tgl 30 0 empty empty shape 17 7 0 10 -262144 -1 -1 0
1;
#X floatatom 147 116 5 0 0 2 freq - -;
#X obj 193 71 vsl 15 60 0 100 0 0 empty empty pwm 0 -9 0 10 -262144
-1 -1 700 1;
#X floatatom 55 116 5 0 0 0 - - -;
#X floatatom 703 197 5 0 0 2 clock - -;
#X floatatom 747 198 5 0 0 2 freq - -;
#X obj 531 312 bng 15 250 50 0 empty empty trig1 17 7 0 10 -4034 -1
-1;
#X floatatom 586 309 5 0 0 2 att1 - -;
#X floatatom 642 309 5 0 0 2 dec1 - -;
#X obj 697 312 tgl 15 0 empty empty loop1 17 7 0 10 -4034 -1 -1 0 1
;
#X obj 753 312 bng 15 250 50 0 empty empty trig2 17 7 0 10 -4034 -1
-1;
#X floatatom 808 309 5 0 0 2 att2 - -;
#X floatatom 864 309 5 0 0 2 dec2 - -;
#X obj 920 312 tgl 15 0 empty empty loop2 17 7 0 10 -4034 -1 -1 0 1
;
#X obj 564 569 vsl 16 60 0 1 0 0 empty empty dry 0 -9 0 10 -262144
-1 -1 5900 1;
#X obj 360 570 vsl 15 60 0 1 0 0 empty empty fb 0 -9 0 10 -262144 -1
-1 0 1;
#X obj 259 570 vsl 15 60 0 5 0 0 empty empty depth 0 -9 0 10 -262144
-1 -1 0 1;
#X obj 157 522 vsl 15 60 0 100 0 0 empty empty freq 0 -9 0 10 -262144
-1 -1 0 1;
#X floatatom 157 614 5 0 0 0 - - -;
#X msg 182 566 10;
#X msg 216 566 100;
#X obj 462 570 vsl 15 60 0 1 0 0 empty empty wet 0 -9 0 10 -262144
-1 -1 0 1;
#X obj 157 590 / 100;
#X obj 77 188 hsl 128 15 0 16000 0 0 empty empty empty -2 -8 0 10 -262144
-1 -1 10100 1;
#X obj 135 208 hsl 128 15 0 1 0 0 empty empty empty -2 -8 0 10 -262144
-1 -1 8000 1;
#X obj 193 228 hsl 128 15 0 0.1 0 0 empty empty empty -2 -8 0 10 -262144
-1 -1 11800 1;
#X obj 107 701 vsl 15 128 30 120 0 0 empty empty lo_freq 0 -9 0 10
-262144 -1 -1 0 1;
#X floatatom 107 837 5 0 0 0 - - -;
#X obj 160 701 vsl 15 128 -20 20 0 0 empty empty lo_gain 0 -9 0 10
-262144 -1 -1 0 1;
#X floatatom 160 837 5 0 0 0 - - -;
#X obj 212 701 vsl 15 128 0.1 100 0 0 empty empty low_q 0 -9 0 10 -262144
-1 -1 0 1;
#X floatatom 212 837 5 0 0 0 - - -;
#X obj 265 701 vsl 15 128 8000 14000 0 0 empty empty hi_freq 0 -9 0
10 -262144 -1 -1 0 1;
#X floatatom 265 837 6 0 0 0 - - -;
#X obj 318 701 vsl 15 128 -20 20 0 0 empty empty hi_gain 0 -9 0 10
-262144 -1 -1 0 1;
#X floatatom 318 837 5 0 0 0 - - -;
#X obj 370 701 vsl 15 128 0.1 100 0 0 empty empty hi_q 0 -9 0 10 -262144
-1 -1 0 1;
#X floatatom 370 837 5 0 0 0 - - -;
#X obj 54 898 *~ 1;
#X obj 54 946 dac~;
#X obj 54 922 hip~ 25;
#X floatatom 138 318 5 0 0 0 - - -;
#X obj 57 364 clip~ 0 1;
#X obj 57 388 *~ 0.5;
#X obj 56 284 +~;
#X obj 564 525 loadmess 1;
#X obj 57 340 overdrive~ 1;
#X obj 110 422 hsl 128 15 40 8000 0 0 empty empty empty -2 -8 0 10
-262144 -1 -1 0 1;
#X obj 57 467 iemlib/bsq2~ 440 1 200;
#X obj 160 442 hsl 128 15 0.1 2 0 0 empty empty empty -2 -8 0 10 -262144
-1 -1 0 1;
#X text 223 467 notch;
#X obj 55 143 synth/complex-oscillator~, f 53;
#X obj 703 225 modulation/source-of-uncertainty;
#X obj 531 337 modulation/function-generator, f 56;
#X obj 56 643 fx/chorus-flanger~, f 73;
#X obj 55 865 fx/shelf-eq~, f 45;
#X obj 101 75 vradio 15 1 0 4 empty empty empty 0 -8 0 10 -262144 -1
-1 1;
#X obj 426 65 hsl 128 30 0 1 0 0 empty empty wavefold -2 -8 0 10 -262144
-1 -1 4300 1;
#N canvas 0 28 900 1050 filterednoise~ 0;
#X obj 59 67 noise~;
#X obj 95 137 *~;
#X obj 135 67 inlet;
#X obj 185 67 inlet;
#X obj 235 67 inlet;
#X obj 59 112 svf~, f 8;
#X obj 95 162 outlet~;
#X connect 0 0 5 0;
#X connect 1 0 6 0;
#X connect 2 0 5 1;
#X connect 3 0 5 2;
#X connect 4 0 1 1;
#X connect 5 2 1 0;
#X restore 74 254 pd filterednoise~;
#X floatatom 793 197 5 0 0 2 - - -;
#X floatatom 837 198 5 0 0 2 - - -;
#X floatatom 883 197 5 0 0 2 - - -;
#X floatatom 927 198 5 0 0 2 - - -;
#X msg 240 111 0;
#X connect 0 0 55 5;
#X connect 1 0 55 4;
#X connect 3 0 55 6;
#X connect 4 0 55 7;
#X connect 5 0 55 2;
#X connect 6 0 55 3;
#X connect 7 0 55 0;
#X connect 8 0 56 0;
#X connect 9 0 56 1;
#X connect 10 0 57 0;
#X connect 11 0 57 1;
#X connect 12 0 57 2;
#X connect 13 0 57 3;
#X connect 14 0 57 4;
#X connect 15 0 57 5;
#X connect 16 0 57 6;
#X connect 17 0 57 7;
#X connect 18 0 58 5;
#X connect 19 0 58 3;
#X connect 20 0 58 2;
#X connect 21 0 26 0;
#X connect 22 0 58 1;
#X connect 23 0 26 1;
#X connect 24 0 26 1;
#X connect 25 0 58 4;
#X connect 26 0 22 0;
#X connect 27 0 62 0;
#X connect 28 0 62 1;
#X connect 29 0 62 2;
#X connect 30 0 31 0;
#X connect 31 0 59 1;
#X connect 32 0 33 0;
#X connect 33 0 59 2;
#X connect 34 0 35 0;
#X connect 35 0 59 3;
#X connect 36 0 37 0;
#X connect 37 0 59 4;
#X connect 38 0 39 0;
#X connect 39 0 59 5;
#X connect 40 0 41 0;
#X connect 41 0 59 6;
#X connect 42 0 44 0;
#X connect 44 0 43 0;
#X connect 44 0 43 1;
#X connect 45 0 50 1;
#X connect 46 0 47 0;
#X connect 47 0 52 0;
#X connect 48 0 50 0;
#X connect 49 0 18 0;
#X connect 50 0 46 0;
#X connect 51 0 52 1;
#X connect 52 0 58 0;
#X connect 53 0 52 2;
#X connect 55 0 48 0;
#X connect 58 0 59 0;
#X connect 59 0 42 0;
#X connect 60 0 55 1;
#X connect 61 0 55 8;
#X connect 62 0 48 1;
#X connect 63 0 56 2;
#X connect 64 0 56 3;
#X connect 65 0 56 4;
#X connect 66 0 56 5;
#X connect 67 0 55 4;
