#N canvas 0 28 1130 1050 12;
#X obj 285 84 tgl 30 0 empty empty fm 17 7 0 10 -262144 -1 -1 0 1;
#X obj 242 35 hsl 128 30 -1000 1000 0 0 empty empty +-index -2 -8 0
10 -262144 -1 -1 6350 1;
#X obj 331 84 tgl 30 0 empty empty am 17 7 0 10 -262144 -1 -1 0 1;
#X obj 377 84 tgl 30 0 empty empty shape 17 7 0 10 -262144 -1 -1 0
1;
#X floatatom 147 96 5 0 0 2 freq - -;
#X obj 193 51 vsl 15 60 0 100 0 0 empty empty pwm 0 -9 0 10 -262144
-1 -1 0 1;
#X floatatom 55 96 5 0 0 0 - - -;
#X floatatom 650 147 5 0 0 2 clock - -;
#X floatatom 694 148 5 0 0 2 freq - -;
#X obj 651 242 bng 15 250 50 0 empty empty trig1 17 7 0 10 -4034 -1
-1;
#X floatatom 706 239 5 0 0 2 att1 - -;
#X floatatom 762 239 5 0 0 2 dec1 - -;
#X obj 817 242 tgl 15 0 empty empty loop1 17 7 0 10 -4034 -1 -1 0 1
;
#X obj 873 242 bng 15 250 50 0 empty empty trig2 17 7 0 10 -4034 -1
-1;
#X floatatom 928 239 5 0 0 2 att2 - -;
#X floatatom 984 239 5 0 0 2 dec2 - -;
#X obj 1040 242 tgl 15 0 empty empty loop2 17 7 0 10 -4034 -1 -1 0
1;
#X obj 564 503 vsl 16 60 0 1 0 0 empty empty dry 0 -9 0 10 -262144
-1 -1 0 1;
#X obj 360 504 vsl 15 60 0 1 0 0 empty empty fb 0 -9 0 10 -262144 -1
-1 0 1;
#X obj 259 504 vsl 15 60 0 5 0 0 empty empty depth 0 -9 0 10 -262144
-1 -1 0 1;
#X obj 157 506 vsl 15 60 0 3 0 0 empty empty freq 0 -9 0 10 -262144
-1 -1 0 1;
#X obj 462 504 vsl 15 60 0 1 0 0 empty empty wet 0 -9 0 10 -262144
-1 -1 0 1;
#X obj 77 168 hsl 128 15 0 16000 0 0 empty empty empty -2 -8 0 10 -262144
-1 -1 0 1;
#X obj 135 188 hsl 128 15 0 1 0 0 empty empty empty -2 -8 0 10 -262144
-1 -1 0 1;
#X obj 193 208 hsl 128 15 0 0.1 0 0 empty empty empty -2 -8 0 10 -262144
-1 -1 0 1;
#X obj 107 635 vsl 15 128 30 120 0 0 empty empty lo_freq 0 -9 0 10
-262144 -1 -1 1200 1;
#X floatatom 107 771 5 0 0 0 - - -;
#X obj 159 635 vsl 15 128 -20 20 0 0 empty empty lo_gain 0 -9 0 10
-262144 -1 -1 4700 1;
#X floatatom 159 771 5 0 0 0 - - -;
#X obj 211 635 vsl 15 128 0.1 100 0 0 empty empty low_q 0 -9 0 10 -262144
-1 -1 3000 1;
#X floatatom 211 771 5 0 0 0 - - -;
#X obj 263 635 vsl 15 128 8000 14000 0 0 empty empty hi_freq 0 -9 0
10 -262144 -1 -1 100 1;
#X floatatom 263 771 6 0 0 0 - - -;
#X obj 316 635 vsl 15 128 -20 20 0 0 empty empty hi_gain 0 -9 0 10
-262144 -1 -1 6400 1;
#X floatatom 315 771 5 0 0 0 - - -;
#X obj 367 635 vsl 15 128 0.1 100 0 0 empty empty hi_q 0 -9 0 10 -262144
-1 -1 3200 1;
#X floatatom 367 771 5 0 0 0 - - -;
#X obj 55 862 *~ 1;
#X obj 55 940 dac~;
#X obj 57 344 clip~ 0 1;
#X obj 57 368 *~ 0.5;
#X obj 56 264 +~;
#X obj 57 320 overdrive~ 1;
#X obj 110 402 hsl 128 15 40 8000 0 0 empty empty empty -2 -8 0 10
-262144 -1 -1 0 1;
#X obj 57 447 iemlib/bsq2~ 440 1 200;
#X obj 160 422 hsl 128 15 0.1 2 0 0 empty empty empty -2 -8 0 10 -262144
-1 -1 0 1;
#X text 223 447 notch;
#X obj 55 123 synth/complex-oscillator~, f 53;
#X obj 650 175 modulation/source-of-uncertainty;
#X obj 651 267 modulation/function-generator, f 56;
#X obj 56 577 fx/chorus-flanger~, f 73;
#X obj 55 799 fx/shelf-eq~, f 45;
#X obj 101 55 vradio 15 1 0 4 empty empty empty 0 -8 0 10 -262144 -1
-1 1;
#X obj 426 45 hsl 128 30 0 1 0 0 empty empty wavefold -2 -8 0 10 -262144
-1 -1 0 1;
#N canvas 0 28 1130 1050 filterednoise~ 0;
#X obj 59 67 noise~;
#X obj 95 137 *~;
#X obj 135 67 inlet;
#X obj 185 67 inlet;
#X obj 235 67 inlet;
#X obj 59 112 svf~, f 8;
#X obj 95 162 outlet~;
#X connect 0 0 5 0;
#X connect 1 0 6 0;
#X connect 2 0 5 1;
#X connect 3 0 5 2;
#X connect 4 0 1 1;
#X connect 5 2 1 0;
#X restore 74 234 pd filterednoise~;
#X floatatom 740 147 5 0 0 2 - - -;
#X floatatom 784 148 5 0 0 2 - - -;
#X floatatom 830 147 5 0 0 2 - - -;
#X floatatom 874 148 5 0 0 2 - - -;
#X msg 240 91 0;
#X obj 141 300 hsl 128 15 0.1 20 0 0 empty empty empty -2 -8 0 10 -262144
-1 -1 0 1;
#X obj 56 833 fx/lyra-delay/lyra-delay~;
#X obj 655 425 modulation/orthoseq, f 32;
#X obj 695 334 hsl 128 15 60 200 0 0 empty empty empty -2 -8 0 10 -262144
-1 -1 5800 1;
#X obj 692 354 int;
#X floatatom 692 378 5 0 0 0 - - -;
#X floatatom 655 551 5 0 0 0 - - -;
#X floatatom 850 555 5 0 0 0 - - -;
#X obj 850 503 tabread duration;
#X obj 753 505 tabread gate;
#X obj 655 504 tabread note;
#X msg 850 529 set \$1;
#X msg 753 530 set \$1;
#X msg 655 529 set \$1;
#X obj 655 576 tabwrite note;
#X obj 753 577 tabwrite gate;
#X obj 850 577 tabwrite duration;
#X obj 753 555 tgl 15 0 empty empty empty 17 7 0 10 -262144 -1 -1 1
1;
#X floatatom 655 480 5 0 0 0 - - -;
#X floatatom 728 449 5 0 0 0 - - -;
#X floatatom 802 402 5 0 0 0 - - -;
#X floatatom 876 402 5 0 0 0 - - -;
#X floatatom 655 449 5 0 0 0 - - -;
#N canvas 0 28 1130 1050 clock 0;
#X obj 36 133 metro;
#X msg 36 104 1;
#X msg 67 104 0;
#X obj 128 73 expr 60000/$f1;
#X obj 36 158 outlet;
#X obj 128 48 inlet;
#X obj 36 75 sel 1;
#X obj 36 49 inlet;
#X obj 86 159 outlet;
#X obj 258 74 inlet;
#X obj 128 98 *;
#X obj 258 99 t b f;
#X connect 0 0 4 0;
#X connect 1 0 0 0;
#X connect 2 0 0 0;
#X connect 2 0 8 0;
#X connect 3 0 10 0;
#X connect 5 0 3 0;
#X connect 6 0 1 0;
#X connect 6 1 2 0;
#X connect 7 0 6 0;
#X connect 9 0 11 0;
#X connect 10 0 0 1;
#X connect 11 0 10 0;
#X connect 11 1 10 1;
#X restore 655 401 pd clock;
#X f 11;
#X obj 655 361 tgl 30 0 empty empty empty 17 7 0 10 -4034 -1 -1 0 1
;
#X floatatom 802 449 5 0 0 0 - - -;
#X obj 876 449 bng 15 250 50 0 empty empty empty 17 7 0 10 -204786
-4034 -1;
#X obj 55 886 iemlib/hp2_butt~ 25 1;
#X obj 55 911 iemlib/hp2_butt~ 25 1;
#X floatatom 239 70 5 0 0 0 - - -;
#X connect 0 0 47 5;
#X connect 1 0 89 0;
#X connect 1 0 47 4;
#X connect 2 0 47 6;
#X connect 3 0 47 7;
#X connect 4 0 47 2;
#X connect 5 0 47 3;
#X connect 6 0 47 0;
#X connect 7 0 48 0;
#X connect 8 0 48 1;
#X connect 9 0 49 0;
#X connect 10 0 49 1;
#X connect 11 0 49 2;
#X connect 12 0 49 3;
#X connect 13 0 49 4;
#X connect 14 0 49 5;
#X connect 15 0 49 6;
#X connect 16 0 49 7;
#X connect 17 0 50 5;
#X connect 18 0 50 3;
#X connect 19 0 50 2;
#X connect 20 0 50 1;
#X connect 21 0 50 4;
#X connect 22 0 54 0;
#X connect 23 0 54 1;
#X connect 24 0 54 2;
#X connect 25 0 26 0;
#X connect 26 0 51 1;
#X connect 27 0 28 0;
#X connect 28 0 51 2;
#X connect 29 0 30 0;
#X connect 30 0 51 3;
#X connect 31 0 32 0;
#X connect 32 0 51 4;
#X connect 33 0 34 0;
#X connect 34 0 51 5;
#X connect 35 0 36 0;
#X connect 36 0 51 6;
#X connect 37 0 87 0;
#X connect 39 0 40 0;
#X connect 40 0 44 0;
#X connect 41 0 42 0;
#X connect 42 0 39 0;
#X connect 43 0 44 1;
#X connect 44 0 50 0;
#X connect 45 0 44 2;
#X connect 47 0 41 0;
#X connect 50 0 51 0;
#X connect 51 0 61 0;
#X connect 52 0 47 1;
#X connect 53 0 47 8;
#X connect 54 0 41 1;
#X connect 55 0 48 2;
#X connect 56 0 48 3;
#X connect 57 0 48 4;
#X connect 58 0 48 5;
#X connect 59 0 1 0;
#X connect 60 0 42 1;
#X connect 61 0 37 0;
#X connect 62 0 82 0;
#X connect 62 1 79 0;
#X connect 62 2 83 2;
#X connect 62 2 85 0;
#X connect 62 3 86 0;
#X connect 63 0 64 0;
#X connect 64 0 65 0;
#X connect 65 0 83 1;
#X connect 66 0 74 0;
#X connect 67 0 76 0;
#X connect 68 0 71 0;
#X connect 69 0 72 0;
#X connect 70 0 73 0;
#X connect 71 0 67 0;
#X connect 72 0 77 0;
#X connect 73 0 66 0;
#X connect 77 0 75 0;
#X connect 78 0 74 1;
#X connect 78 0 75 1;
#X connect 78 0 76 1;
#X connect 78 0 70 0;
#X connect 78 0 69 0;
#X connect 78 0 68 0;
#X connect 80 0 62 2;
#X connect 81 0 62 3;
#X connect 83 0 62 0;
#X connect 83 1 62 1;
#X connect 84 0 83 0;
#X connect 87 0 88 0;
#X connect 88 0 38 0;
#X connect 88 0 38 1;
