#N canvas 0 0 958 1050 12;
#X obj 105 86 phasor~ 120;
#X obj 104 125 fx.freqshift~;
#X obj 86 176 dac~;
#X obj 105 105 *~ 0.01;
#X floatatom 216 93 5 0 0 0 - - - 0;
#X obj 225 124 hsl 128 15 0 1000 0 0 empty empty empty -2 -8 0 12 #fcfcfc #000000 #000000 0 1;
#X floatatom 222 163 5 0 0 0 - - - 0;
#X obj 222 144 * 0.001;
#X obj 79 43 mtof;
#X floatatom 77 25 5 0 0 0 - - - 0;
#X obj 149 42 mtof;
#X obj 165 66 phasor~ 120;
#X obj 250 76 phasor~ 120;
#X obj 123 25 + 3;
#X obj 251 32 + 7;
#X obj 251 51 mtof;
#X connect 0 0 3 0;
#X connect 1 0 2 0;
#X connect 1 1 2 1;
#X connect 3 0 1 0;
#X connect 4 0 1 1;
#X connect 5 0 7 0;
#X connect 6 0 1 2;
#X connect 7 0 6 0;
#X connect 8 0 0 0;
#X connect 9 0 8 0;
#X connect 9 0 13 0;
#X connect 9 0 14 0;
#X connect 10 0 11 0;
#X connect 11 0 3 0;
#X connect 12 0 3 0;
#X connect 13 0 10 0;
#X connect 14 0 15 0;
#X connect 15 0 12 0;
