#N canvas 0 0 1920 1052 12;
#X obj 105 86 phasor~ 120;
#X obj 104 125 fx.freqshift~;
#X obj 104 164 dac~;
#X obj 105 105 *~ 0.01;
#X floatatom 216 93 5 0 0 0 - - - 0;
#X obj 225 124 hsl 128 15 0 1000 0 0 empty empty empty -2 -8 0 12 #fcfcfc #000000 #000000 0 1;
#X floatatom 222 163 5 0 0 0 - - - 0;
#X obj 222 144 * 0.001;
#X obj 79 43 mtof;
#X floatatom 79 25 5 0 0 0 - - - 0;
#X obj 149 42 mtof;
#X obj 165 66 phasor~ 120;
#X obj 250 76 phasor~ 120;
#X obj 123 25 + 3;
#X obj 251 32 + 7;
#X obj 251 51 mtof;
#X obj 434 198 noise~;
#X obj 406 232 gate~ 2 1;
#X obj 341 162 hradio 15 1 0 3 empty empty empty 0 -8 0 12 #fcfcfc #000000 #000000 0;
#X obj 293 331 dac~;
#X obj 253 265 fx.freqshift~;
#X floatatom 285 215 5 0 0 0 - - - 0;
#X floatatom 222 215 5 0 0 0 - - - 0;
#X obj 376 290 fs~, f 12;
#X floatatom 477 252 5 0 0 0 - - - 0;
#X connect 0 0 3 0;
#X connect 3 0 1 0;
#X connect 4 0 1 1;
#X connect 5 0 7 0;
#X connect 6 0 1 2;
#X connect 7 0 6 0;
#X connect 8 0 0 0;
#X connect 9 0 8 0;
#X connect 9 0 13 0;
#X connect 9 0 14 0;
#X connect 10 0 11 0;
#X connect 11 0 3 0;
#X connect 12 0 3 0;
#X connect 13 0 10 0;
#X connect 14 0 15 0;
#X connect 15 0 12 0;
#X connect 16 0 17 1;
#X connect 16 0 19 0;
#X connect 16 0 19 1;
#X connect 16 0 20 0;
#X connect 17 1 23 0;
#X connect 18 0 17 0;
#X connect 20 0 19 0;
#X connect 20 1 19 1;
#X connect 21 0 20 2;
#X connect 22 0 20 1;
#X connect 22 0 23 1;
#X connect 23 0 19 0;
#X connect 23 1 19 1;
#X connect 24 0 23 2;
