#N canvas 0 0 1920 1052 12;
#X obj 1204 286 tgl 30 0 empty empty fm 17 7 0 10 #fcfcfc #000000 #000000
0 1;
#X obj 1161 237 hsl 128 30 -1000 1000 0 0 empty empty +-index -2 -8
0 10 #fcfcfc #000000 #000000 0 1;
#X obj 1250 286 tgl 30 0 empty empty am 17 7 0 10 #fcfcfc #000000 #000000
0 1;
#X obj 1296 286 tgl 30 0 empty empty shape 17 7 0 10 #fcfcfc #000000
#000000 0 1;
#X floatatom 1066 298 5 0 0 2 freq - - 0;
#X obj 1112 253 vsl 15 60 0 100 0 0 empty empty pwm 0 -9 0 10 #fcfcfc
#000000 #000000 0 1;
#X floatatom 974 298 5 0 0 0 - - - 0;
#X obj 1484 658 vsl 16 60 0 1 0 0 empty empty dry 0 -9 0 10 #fcfcfc
#000000 #000000 0 1;
#X obj 1280 659 vsl 15 60 0 1 0 0 empty empty fb 0 -9 0 10 #fcfcfc
#000000 #000000 0 1;
#X obj 1179 659 vsl 15 60 0 5 0 0 empty empty depth 0 -9 0 10 #fcfcfc
#000000 #000000 0 1;
#X obj 1077 661 vsl 15 60 0.01 3 0 0 empty empty freq 0 -9 0 10 #fcfcfc
#000000 #000000 0 1;
#X obj 1382 659 vsl 15 60 0 1 0 0 empty empty wet 0 -9 0 10 #fcfcfc
#000000 #000000 0 1;
#X obj 996 360 hsl 128 15 0 16000 0 0 empty empty empty -2 -8 0 10
#fcfcfc #000000 #000000 0 1;
#X obj 1054 380 hsl 128 15 0 1 0 0 empty empty empty -2 -8 0 10 #fcfcfc
#000000 #000000 0 1;
#X obj 1112 400 hsl 128 15 0 0.1 0 0 empty empty empty -2 -8 0 10 #fcfcfc
#000000 #000000 0 1;
#X obj 975 456 +~;
#X obj 976 492 overdrive~ 1;
#X obj 974 325 synth/complex-oscillator~, f 53;
#X obj 976 732 fx/chorus-flanger~, f 73;
#X obj 1020 257 vradio 15 1 0 4 empty empty empty 0 -8 0 10 #ffc7c6
#000000 #000000 0;
#X obj 1345 247 hsl 128 30 0 1 0 0 empty empty wavefold -2 -8 0 10
#fcfcfc #000000 #000000 0 1;
#N canvas 0 0 1920 1052 filterednoise~ 0;
#X obj 59 67 noise~;
#X obj 95 137 *~;
#X obj 135 67 inlet;
#X obj 185 67 inlet;
#X obj 235 67 inlet;
#X obj 59 112 svf~, f 8;
#X obj 95 162 outlet~;
#X text 324 72 0 freq \; 1 q \; 2 vol \;;
#X connect 0 0 5 0;
#X connect 1 0 6 0;
#X connect 2 0 5 1;
#X connect 3 0 5 2;
#X connect 4 0 1 1;
#X connect 5 2 1 0;
#X restore 993 426 pd filterednoise~;
#X obj 1060 472 hsl 128 15 0.1 10 0 0 empty empty empty -2 -8 0 10
#fcfcfc #000000 #000000 0 1;
#X obj 977 760 fx/lyra-delay/lyra-delay~;
#X obj 34 756 hsl 128 15 100 200 0 0 empty empty empty -2 -8 0 10 #fcfcfc
#000000 #000000 0 1;
#X obj 31 776 int;
#X floatatom 31 800 5 0 0 0 - - - 0;
#X obj 74 788 tgl 30 0 empty empty empty 17 7 0 10 #00fc04 #000000
#000000 0 1;
#X floatatom 1164 272 5 0 0 0 - - - 0;
#X floatatom 1069 493 5 0 0 0 - - - 0;
#X obj 1066 529 hsl 128 15 0 8000 0 0 empty empty empty -2 -8 0 10
#fcfcfc #000000 #000000 0 1;
#X obj 1150 549 hradio 15 1 0 8 empty empty empty 0 -8 0 10 #fcfcfc
#000000 #000000 0;
#X obj 1240 569 hsl 128 15 1 10 0 0 empty empty empty -2 -8 0 10 #fcfcfc
#000000 #000000 0 1;
#X obj 1324 589 hradio 15 1 0 8 empty empty empty 0 -8 0 10 #fcfcfc
#000000 #000000 0;
#X obj 38 145 synth/kick~, f 53;
#X obj 38 307 synth/clap~, f 52;
#X floatatom 84 119 5 0 0 0 - - - 0;
#X floatatom 130 119 5 0 0 0 - - - 0;
#X floatatom 176 119 5 0 0 0 - - - 0;
#X floatatom 222 119 5 0 0 0 - - - 0;
#X floatatom 268 119 5 0 0 0 - - - 0;
#X floatatom 314 119 5 0 0 0 - - - 0;
#X floatatom 118 282 5 0 0 0 - - - 0;
#X floatatom 158 282 5 0 0 0 - - - 0;
#X floatatom 198 282 5 0 0 0 - - - 0;
#X floatatom 238 282 5 0 0 0 - - - 0;
#X floatatom 278 282 5 0 0 0 - - - 0;
#X floatatom 318 282 5 0 0 0 - - - 0;
#X floatatom 358 282 5 0 0 0 - - - 0;
#X floatatom 399 282 5 0 0 0 - - - 0;
#X floatatom 78 282 5 0 0 0 - - - 0;
#N canvas 0 0 1920 1052 mix 0;
#X obj 38 74 inlet~;
#X obj 138 74 inlet~;
#X obj 237 74 inlet~;
#X obj 337 74 inlet~;
#X obj 436 74 inlet~;
#X obj 536 74 inlet~;
#X obj 635 74 inlet~;
#X obj 735 74 inlet~;
#X obj 38 198 *~;
#X obj 138 198 *~;
#X obj 237 198 *~;
#X obj 337 198 *~;
#X obj 436 198 *~;
#X obj 536 198 *~;
#X obj 635 198 *~;
#X obj 735 198 *~;
#X obj 73 248 env~;
#X obj 173 248 env~;
#X obj 272 248 env~;
#X obj 372 248 env~;
#X obj 471 248 env~;
#X obj 571 248 env~;
#X obj 670 248 env~;
#X obj 770 248 env~;
#X obj 821 74 inlet;
#X obj 921 74 inlet;
#X obj 1020 74 inlet;
#X obj 1120 74 inlet;
#X obj 1219 74 inlet;
#X obj 1319 74 inlet;
#X obj 1418 74 inlet;
#X obj 1518 74 inlet;
#X obj 73 272 - 100;
#X obj 73 297 outlet;
#X obj 173 272 - 100;
#X obj 272 272 - 100;
#X obj 372 272 - 100;
#X obj 471 272 - 100;
#X obj 571 272 - 100;
#X obj 670 272 - 100;
#X obj 770 272 - 100;
#X obj 770 297 outlet;
#X obj 670 297 outlet;
#X obj 571 297 outlet;
#X obj 471 297 outlet;
#X obj 372 297 outlet;
#X obj 272 297 outlet;
#X obj 173 297 outlet;
#X obj 38 445 dac~ 3 4 5 6 7 8 9 10, f 100;
#X text 1051 240 MAIN OUT;
#X obj 1617 74 inlet;
#X obj 919 239 *~, f 18;
#X obj 919 274 dac~;
#X obj 956 275 env~;
#X floatatom 956 300 5 0 0 0 - - - 0;
#X text 56 489 0 - 7 input \; 8 - 15 vol control \; 16 stereo vol \;
;
#X connect 0 0 8 0;
#X connect 1 0 9 0;
#X connect 2 0 10 0;
#X connect 3 0 11 0;
#X connect 4 0 12 0;
#X connect 5 0 13 0;
#X connect 6 0 14 0;
#X connect 7 0 15 0;
#X connect 8 0 16 0;
#X connect 8 0 48 0;
#X connect 8 0 51 0;
#X connect 9 0 17 0;
#X connect 9 0 48 1;
#X connect 9 0 51 0;
#X connect 10 0 18 0;
#X connect 10 0 48 2;
#X connect 10 0 51 0;
#X connect 11 0 19 0;
#X connect 11 0 48 3;
#X connect 11 0 51 0;
#X connect 12 0 20 0;
#X connect 12 0 48 4;
#X connect 12 0 51 0;
#X connect 13 0 21 0;
#X connect 13 0 48 5;
#X connect 13 0 51 0;
#X connect 14 0 22 0;
#X connect 14 0 48 6;
#X connect 14 0 51 0;
#X connect 15 0 23 0;
#X connect 15 0 48 7;
#X connect 15 0 51 0;
#X connect 16 0 32 0;
#X connect 17 0 34 0;
#X connect 18 0 35 0;
#X connect 19 0 36 0;
#X connect 20 0 37 0;
#X connect 21 0 38 0;
#X connect 22 0 39 0;
#X connect 23 0 40 0;
#X connect 24 0 8 1;
#X connect 25 0 9 1;
#X connect 26 0 10 1;
#X connect 27 0 11 1;
#X connect 28 0 12 1;
#X connect 29 0 13 1;
#X connect 30 0 14 1;
#X connect 31 0 15 1;
#X connect 32 0 33 0;
#X connect 34 0 47 0;
#X connect 35 0 46 0;
#X connect 36 0 45 0;
#X connect 37 0 44 0;
#X connect 38 0 43 0;
#X connect 39 0 42 0;
#X connect 40 0 41 0;
#X connect 50 0 51 1;
#X connect 51 0 52 0;
#X connect 51 0 52 1;
#X connect 51 0 53 0;
#X connect 53 0 54 0;
#X restore 30 884 pd mix;
#X f 122;
#X obj 615 743 vsl 20 128 0 1 0 0 empty empty empty 0 -9 0 10 #fcfcfc
#000000 #000000 0 1;
#X obj 668 743 vsl 20 128 0 1 0 0 empty empty empty 0 -9 0 10 #fcfcfc
#000000 #000000 0 1;
#X obj 721 743 vsl 20 128 0 1 0 0 empty empty empty 0 -9 0 10 #fcfcfc
#000000 #000000 0 1;
#X obj 774 743 vsl 20 128 0 1 0 0 empty empty empty 0 -9 0 10 #fcfcfc
#000000 #000000 0 1;
#X obj 827 743 vsl 20 128 0 1 0 0 empty empty empty 0 -9 0 10 #fcfcfc
#000000 #000000 0 1;
#X obj 561 743 vsl 20 128 0 1 0 0 empty empty empty 0 -9 0 15 #fcfcfc
#000000 #000000 0 1;
#X obj 508 743 vsl 20 128 0 1 0 0 empty empty empty 0 -9 0 10 #fcfcfc
#000000 #000000 0 1;
#X obj 455 743 vsl 20 128 0 1 0 0 empty empty empty 0 -9 0 10 #fcfcfc
#000000 #000000 0 1;
#X obj 31 854 r~ one;
#X obj 84 854 r~ two;
#X obj 137 854 r~ thr;
#X obj 190 854 r~ fou;
#X obj 243 854 r~ fiv;
#X obj 296 854 r~ six;
#X obj 349 854 r~ sev;
#X obj 403 855 r~ eig;
#X obj 31 914 vu 30 120 empty empty -1 -8 0 10 #404040 #000000 1 0
;
#X obj 152 914 vu 30 120 empty empty -1 -8 0 10 #404040 #000000 1 0
;
#X obj 274 914 vu 30 120 empty empty -1 -8 0 10 #404040 #000000 1 0
;
#X obj 395 914 vu 30 120 empty empty -1 -8 0 10 #404040 #000000 1 0
;
#X obj 517 914 vu 30 120 empty empty -1 -8 0 10 #404040 #000000 1 0
;
#X obj 638 914 vu 30 120 empty empty -1 -8 0 10 #404040 #000000 1 0
;
#X obj 760 914 vu 30 120 empty empty -1 -8 0 10 #404040 #000000 1 0
;
#X obj 868 914 vu 30 120 empty empty -1 -8 0 10 #404040 #000000 1 0
;
#X obj 881 695 loadbang;
#X obj 31 824 s bpm;
#X obj 74 824 s play;
#X obj 537 129 synth/hat~, f 33;
#X floatatom 628 104 5 0 0 0 - - - 0;
#X floatatom 673 105 5 0 0 0 - - - 0;
#X floatatom 582 104 5 0 0 0 - - - 0;
#X obj 38 357 s~ two;
#X obj 37 558 s~ thr;
#X obj 881 744 vsl 20 128 0 1 0 0 empty empty empty 0 -9 0 10 #c6ffc7
#000000 #000000 0 1;
#X floatatom 1063 549 5 0 0 0 - - - 0;
#X obj 38 60 r play;
#X obj 89 60 r bpm;
#X obj 537 41 r play;
#X obj 586 41 r bpm;
#X obj 38 212 r play;
#X obj 94 212 r bpm;
#X obj 311 604 bng 15 250 50 0 empty empty trig1 17 7 0 10 #00faff
#000000 #000000;
#X floatatom 366 601 5 0 0 2 att1 - - 0;
#X floatatom 422 601 5 0 0 2 dec1 - - 0;
#X obj 311 629 modulation/function-generator, f 30;
#X obj 245 532 r play;
#X obj 311 532 r bpm;
#X floatatom 360 119 5 0 0 0 - - - 0;
#X obj 245 638 random 4;
#X obj 245 663 sel 0;
#X obj 245 730 mtof;
#X obj 287 663 sel 1;
#X obj 329 663 sel 2;
#X obj 373 663 sel 3;
#X obj 37 483 synth/snare~, f 43;
#X floatatom 136 460 5 0 0 0 - - - 0;
#X floatatom 335 460 5 0 0 0 - - - 0;
#X floatatom 235 459 5 0 0 0 - - - 0;
#X obj 37 403 r play;
#X obj 88 403 r bpm;
#X obj 245 756 synth/bass~, f 14;
#X obj 38 332 overdrive~ 5;
#X text 225 622 BASS, f 1;
#X obj 37 508 overdrive~ 10;
#X obj 634 44 tgl 15 0 empty empty empty 17 7 0 10 #ff0400 #000000
#000000 0 1;
#X obj 37 533 hip~ 400;
#X obj 135 217 tgl 15 0 empty empty empty 17 7 0 10 #e3c6ff #000000
#000000 0 1;
#X obj 538 188 fx/simple-del~;
#X floatatom 585 164 5 0 0 0 - - - 0;
#X obj 636 168 hsl 128 15 0 1 0 0 empty empty empty -2 -8 0 10 #fcfcfc
#000000 #000000 0 1;
#X obj 538 212 hip~ 8000;
#X obj 134 408 tgl 15 0 empty empty empty 17 7 0 10 #ffe3c6 #000000
#000000 0 1;
#X msg 1164 293 0;
#X floatatom 1342 282 5 0 0 0 - - - 0;
#X obj 960 976 text define -k presets-complex;
#A set 8 2 3 50 464.5 0 1 0 0.03 deep-gurgel \; 64 2 2 25 417 0 1 0
0.07 noisy-pulse \; 287 0 500 50 637 1 0 0 0 slightly-off \; 43 3 204
25 511 0 0 1 0.275 low-shape-mod \; 210 0 77 0 511 1 0 0 0.07 bohrer
\;;
#X obj 974 159 text get presets-complex;
#X obj 974 184 unpack f f f f f f f f f s;
#X obj 960 996 text define -k presets-kick;
#A set 49 200 100 75 1 3 1500 0.1 g-standard \; 49 200 100 50 1 3 1500
0.1 standard-less-pitch \; 49 523 98 13 1 1 1084 0.1 long-deep \; 55
235 98 59 1 2 1000 0.6 resonant-a \; 43 235 98 59 1 2 1000 0.6 resonant-f
\; 43 86 127 19 1 4 506 0.2 holz \; 55 557 81 115 1 289 100 0.2 gabber-long
\; 43 355 155 88 81 364 701 0.5 gabber-reso \;;
#X f 30;
#X obj 262 89 unpack f f f f f f f f s;
#X symbolatom 434 90 10 0 0 0 - - - 0;
#X obj 960 1016 text define -k presets-clap;
#A set 8 15 -1 200 0.2 150 0.2 1200 3 short-punchy \; 8 2 -1 200 0.2
150 0.2 1200 3 shortest \; 12 20 -1 200 0.2 300 0.2 1800 2 long-smash
\; 12 3 -1 200 0.2 300 0.2 1800 2 short-smash \; 8 9 -1 644 0.2 1400
0.4 856 1 resonant-hi-snare \;;
#X f 30;
#X obj 240 252 unpack f f f f f f f f f s;
#X obj 240 229 text get presets-clap;
#X floatatom 406 119 5 0 0 0 - - - 0;
#X obj 38 170 s~ one;
#X text 110 795 PLAY/PAUSE;
#X obj 272 433 unpack f f f s;
#X obj 272 410 text get presets-snare;
#X symbolatom 374 434 10 0 0 0 - - - 0;
#X symbolatom 884 69 10 0 0 0 - - - 0;
#X floatatom 719 105 5 0 1 0 - - - 0;
#X floatatom 765 105 5 0 24 0 - - - 0;
#X obj 754 68 unpack f f f f f s;
#X obj 754 45 text get presets-hat;
#X obj 538 342 synth/hat~, f 33;
#X floatatom 629 317 5 0 0 0 - - - 0;
#X floatatom 674 318 5 0 0 0 - - - 0;
#X floatatom 583 317 5 0 0 0 - - - 0;
#X obj 538 254 r play;
#X obj 587 254 r bpm;
#X obj 635 257 tgl 15 0 empty empty empty 17 7 0 10 #ff0400 #000000
#000000 0 1;
#X obj 539 401 fx/simple-del~;
#X floatatom 586 377 5 0 0 0 - - - 0;
#X obj 539 425 hip~ 8000;
#X symbolatom 865 282 10 0 0 0 - - - 0;
#X floatatom 720 318 5 0 0 0 - - - 0;
#X floatatom 766 318 5 0 0 0 - - - 0;
#X obj 735 281 unpack f f f f f s;
#X obj 735 258 text get presets-hat;
#X obj 539 475 s~ fou;
#X obj 244 782 s~ fiv;
#X obj 976 807 s~ six;
#X text 20 444 SNARE, f 1;
#X text 21 259 CLAP, f 1;
#X text 18 93 KICK, f 1;
#X msg 1566 176 next \$1;
#X obj 1610 231 hsl 128 15 100 2000 0 0 empty empty empty -2 -8 0 10
#fcfcfc #000000 #000000 0 1;
#X msg 1566 56 55;
#X msg 1597 56 57;
#X msg 1629 56 58;
#X msg 1662 56 62;
#X obj 1566 34 bng 15 250 50 0 empty empty empty 17 7 0 10 #9c00ff
#faff00 #000000;
#X text 1548 189 PAD, f 1;
#X obj 1567 381 fx/05dattorro/dattorrostereo;
#X obj 1566 314 fx/freqshift~;
#X floatatom 1610 285 5 0 0 0 - - - 0;
#X msg 1716 56 53;
#X msg 1749 56 56;
#X msg 1782 56 60;
#X obj 1716 34 bng 15 250 50 0 empty empty empty 17 7 0 10 #fcfcfc
#000000 #000000;
#X obj 1832 34 bng 15 250 50 0 empty empty empty 17 7 0 10 #fcfcfc
#000000 #000000;
#X msg 1832 56 50;
#X msg 1863 56 52;
#X obj 960 956 text define -k presets-snare;
#A set 70 98 56 g-snare \; 4 383 380 xtreme-short \; 128 0 54 noisy
\; 128 87 54 woody \;;
#X f 30;
#X obj 960 936 text define -k presets-hat;
#A set 35 8000 7 0.5 24 classic \; 9 12000 11 0.1 24 lofi \; 95 4000
2 0.4 6 long-shaky \; 24 10000 6 1 24 classic2 \;;
#X f 30;
#X obj 960 916 text define -k presets-pad;
#A set;
#X f 30;
#X obj 960 896 text define -k presets-bass;
#A set;
#X f 30;
#X obj 245 692 31;
#X obj 373 693 34;
#X obj 135 65 tgl 15 0 empty empty empty 17 7 0 10 #0400ff #ffffff
#000000 0 1;
#X msg 881 721 0.5;
#X obj 1568 632 s~ eig;
#X obj 757 25 hsl 128 15 0 5 0 0 empty empty empty -2 -8 0 10 #fcfcfc
#000000 #000000 0 1;
#X obj 738 238 hsl 128 15 0 5 0 0 empty empty empty -2 -8 0 10 #fcfcfc
#000000 #000000 0 1;
#X obj 265 44 hsl 128 15 0 7 0 0 empty empty empty -2 -8 0 10 #fcfcfc
#000000 #000000 0 1;
#X obj 275 390 hsl 128 15 0 4 0 0 empty empty empty -2 -8 0 10 #fcfcfc
#000000 #000000 0 1;
#X obj 243 209 hsl 128 15 0 4 0 0 empty empty empty -2 -8 0 10 #fcfcfc
#000000 #000000 0 1;
#X symbolatom 426 253 10 0 0 0 - - - 0;
#X obj 1667 283 modulation/lfo;
#X floatatom 1667 259 5 0 0 0 - - - 0;
#X text 958 857 PRESETS;
#X text 622 518 OTHER INSTRUMENTS;
#N canvas 0 0 1016 1050 acid-melo 0;
#X obj 241 907 *~ 0.5;
#X obj 32 151 text define -k g-minor-scale;
#A set 43 \; 45 \; 46 \; 48 \; 50 \; 51 \; 53 \;;
#X obj 242 151 text get g-minor-scale;
#X obj 242 176 unpack f;
#X obj 242 121 random 6;
#X obj 242 289 mtof;
#X obj 242 323 phasor~;
#X obj 390 558 hsl 128 15 0 3000 0 0 empty empty empty -2 -8 0 10 #fcfcfc
#000000 #000000 0 1;
#X obj 327 547 line;
#X obj 327 577 +, f 9;
#X obj 432 612 hsl 128 15 0 1 0 0 empty empty empty -2 -8 0 10 #fcfcfc
#000000 #000000 0 1;
#X obj 242 260 + 12;
#X obj 267 209 sel 0 1, f 9;
#X msg 297 234 12;
#X msg 267 234 24;
#X obj 254 353 expr~ $v1 > 0.5;
#X floatatom 397 578 5 0 0 0 - - - 0;
#X obj 383 450 hsl 128 15 0 3000 0 0 empty empty empty -2 -8 0 10 #fcfcfc
#000000 #000000 0 1;
#X floatatom 407 471 5 0 0 0 - - - 0;
#X obj 242 388 *~ 0.5;
#X text 204 354 square;
#X text 123 245 octave switch;
#X floatatom 429 632 5 0 0 0 - - - 0;
#X obj 141 342 noise~;
#X obj 141 367 *~ 0.2;
#X obj 240 882 fx/simple-del~;
#X obj 380 471 int;
#X obj 241 957 outlet~;
#X obj 327 496 pack s f;
#X text 195 881 DELAY;
#X text 303 463 FILTER ENV, f 1;
#X obj 540 745 modulation/complex-envelope~;
#X obj 540 719 unpack f f f;
#X obj 241 765 *~;
#X obj 848 72 inlet;
#X obj 941 72 inlet;
#X msg 1034 72 7;
#X obj 1034 48 loadbang;
#X text 516 448 FILTER ENV AMOUNT;
#X text 523 556 CUTOFF;
#X text 567 610 Q;
#X obj 540 669 loadbang;
#X floatatom 1078 76 5 0 0 0 - - - 0;
#X obj 287 856 + 100;
#X msg 327 523 \$2 \, 0 100;
#X obj 335 857 loadmess 0.7;
#X msg 540 694 8.5 2 500;
#X floatatom 657 378 5 0 0 0 - - - 0;
#X obj 657 353 random 2;
#X obj 719 353 random 2;
#X obj 657 402 ==;
#X floatatom 657 427 5 0 0 0 - - - 0;
#X floatatom 719 378 5 0 0 0 - - - 0;
#X obj 657 451 sel 1;
#X obj 287 831 drunk 400 100;
#X obj 241 932 hip~ 200;
#X obj 1071 121 s melo;
#X obj 241 612 svf~ 300 0.4, f 25;
#X obj 380 414 loadmess 1000;
#X text 1125 121 into dome client;
#X text 518 711 ENV, f 1;
#X text 603 356 LOGIC Random, f 6;
#X obj 776 672 modulation/source-of-uncertainty;
#X floatatom 957 726 5 0 0 0 - - - 0;
#X floatatom 997 648 5 0 0 0 - - - 0;
#X floatatom 952 648 5 0 0 0 - - - 0;
#X floatatom 820 645 5 0 0 0 - - - 0;
#X msg 820 594 1 1 10;
#X obj 820 619 unpack f f f;
#X obj 820 567 loadbang;
#X obj 848 101 sequencer/euclidean-rhythm;
#X connect 0 0 55 0;
#X connect 2 0 3 0;
#X connect 3 0 11 0;
#X connect 4 0 2 0;
#X connect 5 0 6 0;
#X connect 6 0 15 0;
#X connect 6 0 19 0;
#X connect 7 0 9 1;
#X connect 7 0 16 0;
#X connect 8 0 9 0;
#X connect 9 0 57 1;
#X connect 10 0 22 0;
#X connect 10 0 57 2;
#X connect 11 0 5 0;
#X connect 12 0 14 0;
#X connect 12 1 13 0;
#X connect 13 0 11 1;
#X connect 14 0 11 1;
#X connect 15 0 19 0;
#X connect 17 0 18 0;
#X connect 17 0 26 0;
#X connect 19 0 57 0;
#X connect 23 0 24 0;
#X connect 24 0 19 0;
#X connect 25 0 0 0;
#X connect 26 0 28 1;
#X connect 28 0 44 0;
#X connect 31 0 33 1;
#X connect 32 0 31 0;
#X connect 32 1 31 1;
#X connect 32 2 31 3;
#X connect 33 0 25 0;
#X connect 34 0 70 0;
#X connect 35 0 70 1;
#X connect 36 0 70 2;
#X connect 37 0 36 0;
#X connect 41 0 46 0;
#X connect 42 0 70 2;
#X connect 43 0 25 1;
#X connect 44 0 8 0;
#X connect 45 0 25 2;
#X connect 46 0 32 0;
#X connect 47 0 50 0;
#X connect 48 0 47 0;
#X connect 49 0 50 1;
#X connect 49 0 52 0;
#X connect 50 0 51 0;
#X connect 51 0 53 0;
#X connect 51 0 12 0;
#X connect 53 0 54 0;
#X connect 54 0 43 0;
#X connect 55 0 27 0;
#X connect 57 0 33 0;
#X connect 58 0 17 0;
#X connect 62 1 63 0;
#X connect 63 0 31 0;
#X connect 64 0 62 5;
#X connect 65 0 62 4;
#X connect 66 0 62 1;
#X connect 67 0 68 0;
#X connect 68 0 66 0;
#X connect 68 1 65 0;
#X connect 68 2 64 0;
#X connect 69 0 67 0;
#X connect 70 0 31 2;
#X connect 70 0 17 0;
#X connect 70 0 28 0;
#X connect 70 0 4 0;
#X connect 70 0 48 0;
#X connect 70 0 49 0;
#X connect 70 0 56 0;
#X restore 662 585 pd acid-melo;
#X obj 625 618 selector~ 2;
#X obj 625 542 hradio 15 1 0 3 empty empty empty 0 -8 0 10 #e3c6ff
#000000 #000000 0;
#X obj 625 643 s~ sev;
#X obj 877 538 r play;
#X obj 878 561 r bpm;
#X text 459 722 1;
#X text 511 722 2;
#X text 831 722 8;
#X text 778 722 7;
#X text 723 722 6;
#X text 671 722 5;
#X text 617 722 4;
#X text 565 722 3;
#X obj 1182 1016 modulation/dome-client, f 32;
#X obj 1473 959 r bpm;
#X obj 1417 959 r play;
#X obj 1362 959 r snare;
#X obj 1307 959 r clap;
#X obj 1252 959 r kick;
#X text 958 277 COMPLEX OSCILLATOR, f 1;
#X text 523 90 HAT 1, f 1;
#X text 520 318 HAT 2, f 1;
#X obj 464 600 loadmess 100;
#X obj 1466 1016 utility/hochhaus-control;
#X obj 1088 135 hsl 128 15 0 4 0 0 empty empty empty -2 -8 0 10 #fcfcfc
#000000 #000000 0 1;
#X obj 539 450 *~ 2;
#X obj 1568 607 *~ 5;
#X obj 1783 228 modulation/lfo;
#X obj 1770 201 unpack f f f f f;
#X obj 1770 152 loadbang;
#X msg 1770 178 0 8 0.1 0 4;
#X obj 1271 9 loadbang;
#X obj 1085 38 r play;
#X obj 1178 38 r bpm;
#X msg 1271 33 6;
#X obj 1085 87 counter 4;
#X obj 807 111 drunk 7 2;
#X obj 807 136 * 0.1;
#X obj 809 318 drunk 20 5;
#X obj 809 343 + 15;
#X obj 1085 111 spigot;
#X obj 1142 116 tgl 15 0 empty empty empty 17 7 0 10 #fcfcfc #000000
#000000 0 1;
#X obj 1264 474 modulation/lfo;
#X obj 1264 400 loadbang;
#X obj 1264 449 unpack f f f;
#X obj 1264 499 spigot;
#X obj 1369 475 * -1;
#X obj 1369 500 + 1;
#X text 1364 445 LFO;
#X obj 1213 448 spigot;
#X obj 1213 473 + 5000;
#X msg 911 721 0;
#X obj 38 110 s kick;
#X obj 39 258 s clap;
#X obj 37 454 s snare;
#X obj 1450 148 random 3;
#X obj 1450 173 sel 0 1 2;
#X obj 1450 102 tgl 15 0 empty empty empty 17 7 0 10 #fcfcfc #000000
#000000 0 1;
#X obj 1450 123 metro 10000;
#X obj 1415 1016 r melo;
#X obj 634 377 loadmess 0.1;
#X msg 1264 426 0.2 1000 3000;
#X obj 211 18 loadmess 0;
#X obj 1007 131 loadmess 3;
#X msg 974 131 4;
#X obj 167 62 loadmess 0;
#X obj 164 214 loadmess 3;
#X obj 167 405 loadmess 4;
#X obj 667 43 loadmess 1;
#X obj 655 253 loadmess 2;
#X obj 31 729 loadmess 124;
#X obj 1567 252 svf~ 700 0.3;
#X text 1446 81 start pad!;
#X obj 976 784 *~;
#X obj 1006 789 tgl 15 0 empty empty empty 17 7 0 10 #fcfcfc #000000
#000000 0 1;
#X text 1025 787 unmute!;
#X text 107 18 load preset 0;
#X obj 262 64 text get presets-kick;
#X obj 977 614 fx/state-bandpass~, f 50;
#X obj 1566 204 clone synth/classic-poly~ 8;
#N canvas 1018 0 449 510 random-glitches 0;
#X obj 641 475 bng 15 250 50 0 empty empty trig1 17 7 0 10 #00fc04
#000000 #000000;
#X floatatom 696 472 5 0 0 2 att1 - - 0;
#X floatatom 752 472 5 0 0 2 dec1 - - 0;
#X obj 807 475 tgl 15 0 empty empty loop1 17 7 0 10 #00fc04 #000000
#000000 0 1;
#X obj 863 475 bng 15 250 50 0 empty empty trig2 17 7 0 10 #00fc04
#000000 #000000;
#X floatatom 918 472 5 0 0 2 att2 - - 0;
#X floatatom 974 472 5 0 0 2 dec2 - - 0;
#X obj 1030 478 tgl 15 0 empty empty loop2 17 7 0 10 #00fc04 #000000
#000000 0 1;
#X obj 641 500 modulation/function-generator, f 56;
#X obj 395 365 synth/additive-poly~;
#X obj 394 521 *~;
#X obj 486 254 random 10;
#X obj 395 284 sel 0;
#X obj 440 284 sel 1;
#X obj 486 284 sel 3;
#X obj 226 151 bng 15 250 50 0 empty empty empty 17 7 0 10 #fcfcfc
#000000 #000000;
#X obj 395 808 overdrive~ 5;
#X obj 186 316 random 150;
#X obj 194 406 random 150;
#X obj 394 632 *~;
#X obj 649 589 bng 15 250 50 0 empty empty trig1 17 7 0 10 #00fc04
#000000 #000000;
#X floatatom 704 586 5 0 0 2 att1 - - 0;
#X floatatom 760 586 5 0 0 2 dec1 - - 0;
#X obj 815 589 tgl 15 0 empty empty loop1 17 7 0 10 #00fc04 #000000
#000000 0 1;
#X obj 871 589 bng 15 250 50 0 empty empty trig2 17 7 0 10 #00fc04
#000000 #000000;
#X floatatom 926 586 5 0 0 2 att2 - - 0;
#X floatatom 982 586 5 0 0 2 dec2 - - 0;
#X obj 1038 592 tgl 15 0 empty empty loop2 17 7 0 10 #00fc04 #000000
#000000 0 1;
#X obj 649 614 modulation/function-generator, f 56;
#X obj 283 253 random 2;
#X obj 264 316 random 2;
#X obj 186 341 + 1;
#X obj 903 693 vsl 16 60 0 1 0 0 empty empty dry 0 -9 0 10 #fcfcfc
#000000 #000000 0 1;
#X obj 699 694 vsl 15 60 0 1 0 0 empty empty fb 0 -9 0 10 #fcfcfc #000000
#000000 0 1;
#X obj 598 694 vsl 15 60 0 5 0 0 empty empty depth 0 -9 0 10 #fcfcfc
#000000 #000000 0 1;
#X obj 496 696 vsl 15 60 0.01 3 0 0 empty empty freq 0 -9 0 10 #fcfcfc
#000000 #000000 0 1;
#X obj 801 694 vsl 15 60 0 1 0 0 empty empty wet 0 -9 0 10 #fcfcfc
#000000 #000000 0 1;
#X obj 395 767 fx/chorus-flanger~, f 73;
#X obj 217 459 random 10;
#X obj 217 484 * 0.1;
#X obj 213 543 * 0.1;
#X obj 213 518 random 50;
#X floatatom 213 568 5 0 0 0 - - - 0;
#X obj 213 619 * 0.1;
#X floatatom 213 644 5 0 0 0 - - - 0;
#X obj 213 594 random 10;
#X obj 395 845 *~ 0.5;
#X obj 396 912 hip~ 200;
#X obj 395 881 *~;
#X obj 444 846 osc~ 200;
#X obj 355 71 random 10;
#X obj 355 105 sel 0;
#X obj 400 105 sel 1;
#X obj 446 105 sel 3;
#X obj 355 130 0.25;
#X obj 400 130 0.125;
#X obj 446 130 0.5;
#X floatatom 355 155 5 0 0 0 - - - 0;
#X obj 357 189 random 10000;
#X obj 357 212 + 8000;
#X floatatom 441 213 5 0 0 0 - - - 0;
#X obj 807 400 loadmess 1;
#X obj 396 936 outlet~;
#X obj 96 146 inlet;
#X obj 138 145 inlet;
#X obj 193 81 loadmess 1;
#X text 352 47 random clock divide;
#X obj 96 174 sequencer/trig-seq;
#X connect 0 0 8 0;
#X connect 1 0 8 1;
#X connect 2 0 8 2;
#X connect 3 0 8 3;
#X connect 4 0 8 4;
#X connect 5 0 8 5;
#X connect 6 0 8 6;
#X connect 7 0 8 7;
#X connect 8 2 10 1;
#X connect 9 0 10 0;
#X connect 10 0 19 0;
#X connect 11 0 12 0;
#X connect 11 0 13 0;
#X connect 11 0 14 0;
#X connect 12 0 9 0;
#X connect 13 0 9 1;
#X connect 14 0 9 2;
#X connect 15 0 67 4;
#X connect 16 0 46 0;
#X connect 17 0 31 0;
#X connect 18 0 25 0;
#X connect 19 0 37 0;
#X connect 20 0 28 0;
#X connect 21 0 28 1;
#X connect 22 0 28 2;
#X connect 23 0 28 3;
#X connect 24 0 28 4;
#X connect 25 0 28 5;
#X connect 26 0 28 6;
#X connect 27 0 28 7;
#X connect 28 2 19 1;
#X connect 29 0 27 0;
#X connect 29 0 23 0;
#X connect 30 0 3 0;
#X connect 31 0 2 0;
#X connect 32 0 37 5;
#X connect 33 0 37 3;
#X connect 34 0 37 2;
#X connect 35 0 37 1;
#X connect 36 0 37 4;
#X connect 37 0 16 0;
#X connect 38 0 39 0;
#X connect 39 0 36 0;
#X connect 40 0 42 0;
#X connect 41 0 40 0;
#X connect 42 0 34 0;
#X connect 43 0 44 0;
#X connect 44 0 35 0;
#X connect 45 0 43 0;
#X connect 46 0 48 0;
#X connect 47 0 62 0;
#X connect 48 0 47 0;
#X connect 49 0 48 1;
#X connect 50 0 51 0;
#X connect 50 0 52 0;
#X connect 50 0 53 0;
#X connect 51 0 54 0;
#X connect 52 0 55 0;
#X connect 53 0 56 0;
#X connect 54 0 57 0;
#X connect 55 0 57 0;
#X connect 56 0 57 0;
#X connect 57 0 67 2;
#X connect 58 0 59 0;
#X connect 59 0 9 3;
#X connect 59 0 60 0;
#X connect 61 0 6 0;
#X connect 61 0 26 0;
#X connect 61 0 2 0;
#X connect 61 0 22 0;
#X connect 63 0 67 0;
#X connect 64 0 67 1;
#X connect 65 0 15 0;
#X connect 65 0 67 3;
#X connect 67 0 0 0;
#X connect 67 0 11 0;
#X connect 67 0 17 0;
#X connect 67 0 29 0;
#X connect 67 0 30 0;
#X connect 67 0 20 0;
#X connect 67 0 18 0;
#X connect 67 0 38 0;
#X connect 67 0 41 0;
#X connect 67 0 45 0;
#X connect 67 0 50 0;
#X connect 67 0 58 0;
#X restore 755 585 pd random-glitches;
#X obj 960 876 text define -k probability;
#A set 100 10 0 20 0 60 10 5 kick \; 70 30 75 40 60 80 70 42 hat \;
30 70 25 60 40 20 30 56 hat2 \; 0 20 12 20 60 10 20 12 clap \; 0 5
10 20 0 0 30 15 snare \;;
#X f 30;
#X obj 38 85 sequencer/trig-seq;
#X obj 38 238 sequencer/trig-seq;
#X obj 37 429 sequencer/trig-seq;
#X obj 538 281 sequencer/trig-seq;
#X obj 537 68 sequencer/trig-seq;
#X obj 1085 62 sequencer/euclidean-rhythm;
#X obj 245 557 sequencer/trig-seq;
#X connect 0 0 17 5;
#X connect 1 0 28 0;
#X connect 1 0 17 4;
#X connect 2 0 17 6;
#X connect 3 0 17 7;
#X connect 4 0 17 2;
#X connect 5 0 17 3;
#X connect 6 0 17 0;
#X connect 7 0 18 5;
#X connect 8 0 18 3;
#X connect 9 0 18 2;
#X connect 10 0 18 1;
#X connect 11 0 18 4;
#X connect 12 0 21 0;
#X connect 13 0 21 1;
#X connect 14 0 21 2;
#X connect 15 0 16 0;
#X connect 16 0 283 0;
#X connect 17 0 15 0;
#X connect 18 0 23 0;
#X connect 19 0 17 1;
#X connect 20 0 17 8;
#X connect 20 0 125 0;
#X connect 21 0 15 1;
#X connect 22 0 16 1;
#X connect 22 0 29 0;
#X connect 23 0 278 0;
#X connect 24 0 25 0;
#X connect 25 0 26 0;
#X connect 26 0 77 0;
#X connect 27 0 78 0;
#X connect 30 0 86 0;
#X connect 30 0 283 1;
#X connect 31 0 283 2;
#X connect 32 0 283 3;
#X connect 33 0 283 4;
#X connect 34 0 136 0;
#X connect 35 0 113 0;
#X connect 36 0 34 1;
#X connect 37 0 34 2;
#X connect 38 0 34 3;
#X connect 39 0 34 4;
#X connect 40 0 34 5;
#X connect 41 0 34 6;
#X connect 42 0 35 2;
#X connect 43 0 35 3;
#X connect 44 0 35 4;
#X connect 45 0 35 5;
#X connect 46 0 35 6;
#X connect 47 0 35 7;
#X connect 48 0 35 8;
#X connect 49 0 35 9;
#X connect 50 0 35 1;
#X connect 51 0 68 0;
#X connect 51 1 69 0;
#X connect 51 2 70 0;
#X connect 51 3 71 0;
#X connect 51 4 72 0;
#X connect 51 5 73 0;
#X connect 51 6 74 0;
#X connect 51 7 75 0;
#X connect 52 0 51 11;
#X connect 53 0 51 12;
#X connect 54 0 51 13;
#X connect 55 0 51 14;
#X connect 56 0 51 15;
#X connect 57 0 51 10;
#X connect 58 0 51 9;
#X connect 59 0 51 8;
#X connect 60 0 51 0;
#X connect 61 0 51 1;
#X connect 62 0 51 2;
#X connect 63 0 51 3;
#X connect 64 0 51 4;
#X connect 65 0 51 5;
#X connect 66 0 51 6;
#X connect 67 0 51 7;
#X connect 76 0 192 0;
#X connect 79 0 119 0;
#X connect 80 0 79 2;
#X connect 81 0 79 3;
#X connect 82 0 79 1;
#X connect 85 0 51 16;
#X connect 87 0 287 0;
#X connect 88 0 287 1;
#X connect 89 0 291 0;
#X connect 90 0 291 1;
#X connect 91 0 288 0;
#X connect 92 0 288 1;
#X connect 93 0 96 0;
#X connect 94 0 96 1;
#X connect 95 0 96 2;
#X connect 96 0 112 1;
#X connect 97 0 293 0;
#X connect 98 0 293 1;
#X connect 99 0 34 7;
#X connect 100 0 101 0;
#X connect 100 0 103 0;
#X connect 100 0 104 0;
#X connect 100 0 105 0;
#X connect 101 0 189 0;
#X connect 102 0 112 0;
#X connect 103 0 189 0;
#X connect 104 0 189 0;
#X connect 105 0 190 0;
#X connect 106 0 115 0;
#X connect 107 0 106 1;
#X connect 108 0 106 3;
#X connect 109 0 106 2;
#X connect 110 0 289 0;
#X connect 111 0 289 1;
#X connect 112 0 162 0;
#X connect 113 0 83 0;
#X connect 115 0 117 0;
#X connect 116 0 291 3;
#X connect 117 0 84 0;
#X connect 118 0 288 3;
#X connect 119 0 122 0;
#X connect 120 0 119 1;
#X connect 121 0 119 2;
#X connect 122 0 161 0;
#X connect 123 0 289 3;
#X connect 124 0 1 0;
#X connect 127 0 128 0;
#X connect 128 0 6 0;
#X connect 128 1 19 0;
#X connect 128 2 4 0;
#X connect 128 3 5 0;
#X connect 128 4 1 0;
#X connect 128 5 0 0;
#X connect 128 6 2 0;
#X connect 128 7 3 0;
#X connect 128 8 20 0;
#X connect 130 0 36 0;
#X connect 130 1 37 0;
#X connect 130 2 38 0;
#X connect 130 3 39 0;
#X connect 130 4 40 0;
#X connect 130 5 41 0;
#X connect 130 6 99 0;
#X connect 130 7 135 0;
#X connect 130 8 131 0;
#X connect 133 0 50 0;
#X connect 133 1 42 0;
#X connect 133 2 43 0;
#X connect 133 3 44 0;
#X connect 133 4 45 0;
#X connect 133 5 46 0;
#X connect 133 6 47 0;
#X connect 133 7 48 0;
#X connect 133 8 49 0;
#X connect 133 9 199 0;
#X connect 134 0 133 0;
#X connect 135 0 34 8;
#X connect 138 0 107 0;
#X connect 138 1 109 0;
#X connect 138 2 108 0;
#X connect 138 3 140 0;
#X connect 139 0 138 0;
#X connect 142 0 79 4;
#X connect 143 0 79 5;
#X connect 144 0 82 0;
#X connect 144 1 80 0;
#X connect 144 2 81 0;
#X connect 144 3 142 0;
#X connect 144 4 143 0;
#X connect 144 5 141 0;
#X connect 145 0 144 0;
#X connect 146 0 153 0;
#X connect 147 0 146 2;
#X connect 148 0 146 3;
#X connect 149 0 146 1;
#X connect 150 0 290 0;
#X connect 151 0 290 1;
#X connect 152 0 290 3;
#X connect 153 0 155 0;
#X connect 154 0 153 1;
#X connect 155 0 230 0;
#X connect 157 0 146 4;
#X connect 158 0 146 5;
#X connect 159 0 149 0;
#X connect 159 1 147 0;
#X connect 159 2 148 0;
#X connect 159 3 157 0;
#X connect 159 4 158 0;
#X connect 159 5 156 0;
#X connect 160 0 159 0;
#X connect 167 0 284 0;
#X connect 168 0 276 1;
#X connect 169 0 167 0;
#X connect 170 0 167 0;
#X connect 171 0 167 0;
#X connect 172 0 167 0;
#X connect 173 0 169 0;
#X connect 173 0 172 0;
#X connect 173 0 171 0;
#X connect 173 0 170 0;
#X connect 173 0 228 3;
#X connect 175 0 231 0;
#X connect 175 1 231 0;
#X connect 176 0 175 0;
#X connect 176 1 175 0;
#X connect 177 0 176 1;
#X connect 178 0 167 0;
#X connect 179 0 167 0;
#X connect 180 0 167 0;
#X connect 181 0 178 0;
#X connect 181 0 180 0;
#X connect 181 0 179 0;
#X connect 181 0 169 0;
#X connect 181 0 228 3;
#X connect 182 0 183 0;
#X connect 182 0 184 0;
#X connect 182 0 178 0;
#X connect 182 0 170 0;
#X connect 182 0 228 3;
#X connect 183 0 167 0;
#X connect 184 0 167 0;
#X connect 189 0 102 0;
#X connect 190 0 102 0;
#X connect 191 0 287 3;
#X connect 192 0 59 0;
#X connect 192 0 58 0;
#X connect 192 0 57 0;
#X connect 192 0 52 0;
#X connect 192 0 53 0;
#X connect 192 0 54 0;
#X connect 192 0 55 0;
#X connect 192 0 56 0;
#X connect 192 0 85 0;
#X connect 194 0 145 0;
#X connect 195 0 160 0;
#X connect 196 0 282 0;
#X connect 197 0 139 0;
#X connect 198 0 134 0;
#X connect 200 0 177 0;
#X connect 201 0 200 0;
#X connect 204 0 205 1;
#X connect 205 0 207 0;
#X connect 206 0 205 0;
#X connect 208 0 204 0;
#X connect 208 0 285 0;
#X connect 209 0 204 1;
#X connect 209 0 285 1;
#X connect 219 0 218 4;
#X connect 220 0 218 3;
#X connect 221 0 218 2;
#X connect 221 0 228 4;
#X connect 222 0 218 1;
#X connect 222 0 228 1;
#X connect 223 0 218 0;
#X connect 223 0 228 0;
#X connect 227 0 95 0;
#X connect 229 0 127 0;
#X connect 230 0 161 0;
#X connect 231 0 193 0;
#X connect 232 0 201 0;
#X connect 233 0 200 1;
#X connect 233 1 200 2;
#X connect 233 2 232 0;
#X connect 233 3 232 1;
#X connect 233 4 232 2;
#X connect 234 0 235 0;
#X connect 235 0 233 0;
#X connect 236 0 239 0;
#X connect 237 0 292 0;
#X connect 238 0 292 1;
#X connect 239 0 292 2;
#X connect 240 0 245 0;
#X connect 241 0 242 0;
#X connect 242 0 121 0;
#X connect 243 0 244 0;
#X connect 244 0 154 0;
#X connect 245 0 229 0;
#X connect 246 0 245 1;
#X connect 246 0 251 0;
#X connect 246 0 254 1;
#X connect 247 0 250 0;
#X connect 247 0 254 0;
#X connect 248 0 266 0;
#X connect 249 0 247 0;
#X connect 249 1 247 1;
#X connect 249 2 247 2;
#X connect 250 0 30 0;
#X connect 251 0 252 0;
#X connect 252 0 250 1;
#X connect 254 0 255 0;
#X connect 255 0 12 0;
#X connect 256 0 59 0;
#X connect 256 0 58 0;
#X connect 256 0 57 0;
#X connect 256 0 85 0;
#X connect 256 0 56 0;
#X connect 256 0 55 0;
#X connect 256 0 54 0;
#X connect 256 0 53 0;
#X connect 256 0 52 0;
#X connect 260 0 261 0;
#X connect 261 0 173 0;
#X connect 261 1 181 0;
#X connect 261 2 182 0;
#X connect 262 0 263 0;
#X connect 263 0 260 0;
#X connect 264 0 218 5;
#X connect 265 0 153 2;
#X connect 266 0 249 0;
#X connect 267 0 198 0;
#X connect 267 0 139 0;
#X connect 267 0 194 0;
#X connect 267 0 195 0;
#X connect 267 0 196 0;
#X connect 268 0 127 0;
#X connect 269 0 127 0;
#X connect 270 0 287 5;
#X connect 271 0 288 5;
#X connect 272 0 289 5;
#X connect 273 0 291 5;
#X connect 274 0 290 5;
#X connect 275 0 24 0;
#X connect 276 0 176 0;
#X connect 278 0 163 0;
#X connect 279 0 278 1;
#X connect 282 0 130 0;
#X connect 283 0 18 0;
#X connect 283 1 30 0;
#X connect 283 2 32 0;
#X connect 284 0 276 0;
#X connect 285 0 205 2;
#X connect 287 0 34 0;
#X connect 287 0 257 0;
#X connect 288 0 35 0;
#X connect 288 0 258 0;
#X connect 289 0 106 0;
#X connect 289 0 259 0;
#X connect 290 0 243 0;
#X connect 290 0 146 0;
#X connect 290 0 228 2;
#X connect 291 0 79 0;
#X connect 291 0 241 0;
#X connect 292 0 240 0;
#X connect 293 0 93 0;
#X connect 293 0 100 0;
