#N canvas 0 0 1920 1052 12;
#X obj 138 122 f;
#X obj 138 147 % 16;
#X obj 138 321 + 0;
#X obj 138 339 *;
#X obj 235 157 == 0;
#X obj 166 122 + 1;
#X obj 138 360 % 16;
#X obj 138 385 <;
#X obj 138 410 sel 1;
#X obj 198 196 == 0;
#X obj 198 221 sel 1;
#X obj 198 245 f;
#X obj 198 270 % 16;
#X obj 226 245 + 1;
#X text 183 191 OFFSET, f 1;
#X text 53 148 STEP NUMBER;
#X text 238 366 TRIG NUMBER;
#X obj 138 24 inlet;
#X text 15 122 EUCLIDEAN RHYTHM;
#X obj 138 83 metro 200;
#X obj 198 24 inlet;
#X obj 198 53 expr 0.5*(60000/$f1);
#X obj 245 24 inlet;
#X obj 138 431 outlet;
#X text 11 29 0 on/off \; 1 bpm \; 2 trig number;
#X obj 209 337 i;
#X connect 0 0 1 0;
#X connect 0 0 5 0;
#X connect 1 0 2 0;
#X connect 1 0 9 0;
#X connect 2 0 3 0;
#X connect 3 0 6 0;
#X connect 4 0 0 1;
#X connect 4 0 11 0;
#X connect 5 0 0 1;
#X connect 6 0 7 0;
#X connect 7 0 8 0;
#X connect 8 0 23 0;
#X connect 9 0 10 0;
#X connect 10 0 11 0;
#X connect 11 0 12 0;
#X connect 11 0 13 0;
#X connect 12 0 2 1;
#X connect 13 0 11 1;
#X connect 17 0 19 0;
#X connect 17 0 4 0;
#X connect 19 0 0 0;
#X connect 20 0 21 0;
#X connect 21 0 19 1;
#X connect 22 0 25 0;
#X connect 25 0 3 1;
#X connect 25 0 7 1;
