#N canvas 0 0 1920 1052 12;
#X obj 246 280 *~;
#X obj 211 280 *~;
#X obj 274 183 t b f, f 6;
#X msg 274 206 1;
#X obj 274 229 -;
#X obj 313 206 sqrt;
#X obj 356 206 sqrt;
#X msg 323 119 0.25;
#X obj 209 119 inlet~;
#X obj 211 313 outlet~;
#X obj 274 119 inlet;
#X obj 273 313 outlet~;
#X obj 323 96 inlet;
#X text 83 87 0 \, mono in \; 1 \, L/R \; 2 \, center bang \;;
#X obj 274 147 f;
#X connect 0 0 11 0;
#X connect 1 0 9 0;
#X connect 2 0 3 0;
#X connect 2 1 5 0;
#X connect 3 0 4 0;
#X connect 4 0 1 1;
#X connect 5 0 4 1;
#X connect 6 0 0 1;
#X connect 7 0 14 0;
#X connect 8 0 1 0;
#X connect 8 0 0 0;
#X connect 10 0 14 0;
#X connect 12 0 7 0;
#X connect 14 0 2 0;
#X connect 14 0 6 0;
