#N canvas 0 0 958 1050 12;
#X obj 259 137 osc~;
#X obj 259 161 +~ 1;
#X obj 259 185 *~ 0.5;
#X obj 259 209 *~;
#X obj 259 233 +~ 5;
#X obj 259 339 *~;
#X obj 258 452 delwrite~ \$0-buffer 100;
#X obj 400 396 outlet~;
#X obj 73 112 inlet~;
#X obj 259 257 delread4~ \$0-buffer 20;
#X obj 495 304 *~;
#X obj 516 278 inlet;
#X text 191 340 feedback;
#X obj 317 185 inlet;
#X obj 259 112 inlet;
#X obj 374 185 inlet;
#X obj 400 330 *~;
#X obj 421 302 inlet;
#X obj 525 304 loadmess 1;
#X text 374 83 0 input \; 1 lfo speed \; 2 depth \; 3 feedback \; 4 wet \; 5 dry;
#X text 385 224 offset to escape in-phase;
#X connect 0 0 1 0;
#X connect 1 0 2 0;
#X connect 2 0 3 0;
#X connect 3 0 4 0;
#X connect 4 0 9 0;
#X connect 5 0 6 0;
#X connect 8 0 6 0;
#X connect 8 0 10 0;
#X connect 9 0 5 0;
#X connect 9 0 16 0;
#X connect 10 0 7 0;
#X connect 11 0 10 1;
#X connect 13 0 3 1;
#X connect 14 0 0 0;
#X connect 15 0 5 1;
#X connect 16 0 7 0;
#X connect 17 0 16 1;
#X connect 18 0 10 1;
