#N canvas 0 0 1920 1052 12;
#X obj 372 36 +~ 1;
#X obj 372 60 *~ 0.5;
#X obj 372 84 *~;
#X obj 259 339 *~;
#X obj 161 457 outlet~;
#X obj 113 136 inlet~;
#X text 191 340 feedback;
#X obj 486 74 inlet;
#X obj 300 290 inlet;
#X text 407 131 offset to escape in-phase;
#X obj 225 12 loadbang;
#X obj 189 75 f \$1;
#X obj 441 90 f \$2;
#X obj 296 319 f \$3;
#X obj 372 13 inlet~;
#X obj 259 257 delread4~ \$0-buffer 2000;
#X obj 258 452 delwrite~ \$0-buffer 2000;
#X obj 171 33 inlet;
#X obj 296 112 t f f;
#X floatatom 297 140 5 0 0 0 - - - 0;
#X obj 404 200 cyclone/snapshot~ 50;
#X obj 404 219 print;
#X text 559 55 0 input \; 1 \, time \; 2 \, feedback 3 \, lfo \; 4 \, depth \;;
#X obj 303 186 +~;
#X connect 0 0 1 0;
#X connect 1 0 2 0;
#X connect 2 0 23 1;
#X connect 3 0 16 0;
#X connect 5 0 16 0;
#X connect 7 0 12 0;
#X connect 8 0 13 0;
#X connect 10 0 11 0;
#X connect 10 0 12 0;
#X connect 10 0 13 0;
#X connect 11 0 18 0;
#X connect 12 0 2 1;
#X connect 13 0 3 1;
#X connect 14 0 0 0;
#X connect 15 0 3 0;
#X connect 15 0 4 0;
#X connect 17 0 11 0;
#X connect 18 0 19 0;
#X connect 19 0 23 0;
#X connect 20 0 21 0;
#X connect 23 0 15 0;
#X connect 23 0 20 0;
