#N canvas 0 0 785 1050 12;
#X obj 193 150 osc~ 440;
#X floatatom 144 191 5 0 0 0 - - - 0;
#X obj 144 230 +~;
#X obj 193 190 *~;
#X floatatom 260 151 5 0 0 0 - - - 0;
#X obj 144 270 osc~;
#X obj 197 99 * 7;
#X floatatom 180 43 5 0 0 0 - - - 0;
#X floatatom 197 123 5 0 0 0 - - - 0;
#X floatatom 251 72 5 0 0 0 - - - 0;
#X obj 53 148 cyclone/pink~;
#X obj 72 273 *~ 0.4;
#X obj 262 110 * 7.7;
#X obj 145 307 overdrive~ 2;
#X obj 145 326 outlet~;
#X connect 0 0 3 0;
#X connect 1 0 2 0;
#X connect 2 0 5 0;
#X connect 3 0 2 1;
#X connect 4 0 3 1;
#X connect 5 0 13 0;
#X connect 6 0 8 0;
#X connect 7 0 6 0;
#X connect 7 0 1 0;
#X connect 7 0 12 0;
#X connect 8 0 0 0;
#X connect 9 0 12 0;
#X connect 10 0 11 0;
#X connect 11 0 13 0;
#X connect 12 0 4 0;
#X connect 13 0 14 0;
