#N canvas 0 0 1920 1052 12;
#X obj 262 349 samphold~;
#X obj 322 303 phasor~;
#X obj 96 58 noise~;
#X obj 22 201 min~;
#X obj 65 144 *~ -1;
#X obj 65 168 +~ 1;
#X obj 22 225 *~ 4;
#X obj 22 249 -~ 1;
#X text 13 32 triangle wave synced w/ noise;
#X obj 22 504 samphold~;
#X text 217 278 LFO into S&H;
#X obj 82 402 phasor~;
#X obj 82 426 expr~ $v1 > 0.5;
#X obj 82 450 *~ 2;
#X obj 82 474 -~ 1;
#X obj 22 108 phasor~ 100;
#X text 113 160 triangle;
#X obj 322 279 inlet;
#X obj 82 378 inlet;
#X text 57 353 clock pulse;
#X text 98 525 -1 to 1;
#X text 359 348 -1 to 1;
#X obj 96 83 cyclone/snapshot~ 50;
#X obj 262 372 outlet~;
#X obj 22 526 outlet~;
#X text 12 6 0 clock pulse \; 1 sample&hold freq \;;
#X connect 0 0 23 0;
#X connect 1 0 0 1;
#X connect 2 0 22 0;
#X connect 3 0 6 0;
#X connect 4 0 5 0;
#X connect 5 0 3 1;
#X connect 6 0 7 0;
#X connect 7 0 9 0;
#X connect 7 0 0 0;
#X connect 9 0 24 0;
#X connect 11 0 12 0;
#X connect 12 0 13 0;
#X connect 13 0 14 0;
#X connect 14 0 9 1;
#X connect 15 0 3 0;
#X connect 15 0 4 0;
#X connect 17 0 1 0;
#X connect 18 0 11 0;
#X connect 22 0 15 1;
#X coords 0 1052 1 1051 160 90 0;
