#N canvas 0 0 1920 1052 12;
#X obj 180 123 rfft~;
#X obj 105 194 tgl 15 0 empty empty empty 17 7 0 10 #fcfcfc #000000 #000000 0 1;
#N canvas 51 367 1153 478 (subpatch) 0;
#X array spectrum2 128 float 3;
#A 0 0 0 0 0 0 0 0 0 0 0 0 0 0 0 0 0 0 0 0 0 0 0 0 0 0 0 0 0 0 0 0 0 0 0 0 0 0 0 0 0 0 0 0 0 0 0 0 0 0 0 0 0 0 0 0 0 0 0 0 0 0 0 0 0 0 0 0 0 0 0 0 0 0 0 0 0 0 0 0 0 0 0 0 0 0 0 0 0 0 0 0 0 0 0 0 0 0 0 0 0 0 0 0 0 0 0 0 0 0 0 0 0 0 0 0 0 0 0 0 0 0 0 0 0 0 0 0 0;
#X coords 0 256 128 0 400 150 1;
#X restore 36 379 graph;
#X obj 180 150 *~;
#X obj 207 150 *~;
#X obj 180 201 biquad~ 0 0 0 0 1;
#X obj 105 216 metro 50;
#X obj 180 179 q8_sqrt~;
#X text 35 531 20Hz;
#X text 412 530 2KHz;
#X obj 59 127 block~ 4096;
#X obj 37 164 loadbang;
#X msg 37 220 \; pd dsp 1;
#X obj 155 254 tabwrite~ spectrum2;
#X obj 180 54 inlet~;
#X obj 472 262 f;
#X obj 607 262 samplerate~;
#X obj 472 292 expr $f1 * ($f2 / 4096);
#X obj 454 189 tabread spectrum2;
#X obj 455 145 until;
#X obj 453 212 t f b b;
#X obj 500 262 + 1;
#X obj 473 387 pack f f;
#X obj 518 360 f;
#X obj 473 316 t f b;
#X obj 473 412 print;
#X msg 455 90 256;
#X obj 455 168 f;
#X obj 483 168 + 1;
#X obj 455 113 t f b;
#X msg 539 127 0;
#X text 484 91 <- click on this to have freq and amp info printed;
#X obj 398 90 loadbang;
#X connect 0 0 3 0;
#X connect 0 0 3 1;
#X connect 0 1 4 0;
#X connect 0 1 4 1;
#X connect 1 0 6 0;
#X connect 3 0 7 0;
#X connect 4 0 7 0;
#X connect 5 0 13 0;
#X connect 6 0 13 0;
#X connect 7 0 5 0;
#X connect 11 0 1 0;
#X connect 11 0 12 0;
#X connect 14 0 0 0;
#X connect 15 0 17 0;
#X connect 15 0 21 0;
#X connect 16 0 17 1;
#X connect 17 0 24 0;
#X connect 18 0 20 0;
#X connect 19 0 27 0;
#X connect 20 0 23 1;
#X connect 20 1 15 0;
#X connect 20 2 16 0;
#X connect 21 0 15 1;
#X connect 22 0 25 0;
#X connect 23 0 22 1;
#X connect 24 0 22 0;
#X connect 24 1 23 0;
#X connect 26 0 29 0;
#X connect 27 0 28 0;
#X connect 27 0 18 0;
#X connect 28 0 27 1;
#X connect 29 0 19 0;
#X connect 29 1 30 0;
#X connect 30 0 27 1;
#X connect 30 0 15 1;
#X connect 32 0 26 0;
