#N canvas 0 0 1920 1052 12;
#X obj 35 50 route tidal;
#X obj 35 95 unpack f f f f f, f 29;
#X obj 35 69 route hi;
#X obj 126 50 symbol \$1;
#X obj 35 122 outlet;
#X obj 85 122 outlet;
#X obj 135 122 outlet;
#X obj 185 122 outlet;
#X obj 235 122 outlet;
#X obj 126 26 loadbang;
#X obj 35 26 inlet;
#X connect 0 0 2 0;
#X connect 1 0 4 0;
#X connect 1 1 5 0;
#X connect 1 2 6 0;
#X connect 1 3 7 0;
#X connect 1 4 8 0;
#X connect 2 0 1 0;
#X connect 3 0 2 1;
#X connect 9 0 3 0;
#X connect 10 0 0 0;
