#N canvas 0 0 1920 1052 12;
#X obj 83 153 vstplugin~;
#X msg 133 88 open -e TDR_Molot_GE.vst3 1;
#X obj 312 176 vstplugin~;
#X msg 312 151 open -e The_Drop.vst3 1;
#X msg 487 151 print;
#X obj 83 398 dac~;
#X msg 157 124 midi_note 1 60 127;
#X msg 161 156 midi_note 1 63 127;
#X obj 188 66 bng 13 250 50 0 empty empty empty 0 -6 0 12 #fcfcfc #000000 #000000;
#X msg 166 181 midi_note 1 67 127;
#X msg 204 271 midi_noteoff 1 60;
#X msg 200 293 midi_noteoff 1 63;
#X msg 200 314 midi_noteoff 1 67;
#X obj 287 40 metro 2000;
#X obj 287 21 tgl 13 0 empty empty empty 0 -6 0 12 #fcfcfc #000000 #000000 0 1;
#X msg 42 62 open -e Repro-5 2;
#X obj 406 316 osc~;
#X obj 398 275 mtof 40;
#X floatatom 462 321 5 0 0 0 - - - 0;
#X msg 397 248 30;
#X obj 497 266 line~;
#X obj 406 336 *~;
#X msg 497 245 0.3 \, 0 300;
#X obj 497 287 cyclone/slide~ 44 44;
#X obj 499 356 noise~;
#X obj 990 506 *~ 0.3;
#X obj 800 506 *~ 0.3;
#X msg 1220 486 0.1;
#X obj 800 526 dac~;
#X obj 800 336 ../erbeverbs/06erbe/gsp-fdnstereo;
#X obj 626 102 bng 15 250 50 0 empty empty empty 17 7 0 10 #fcfcfc #000000 #000000;
#X obj 713 164 tgl 15 0 empty empty empty 17 7 0 10 #fcfcfc #000000 #000000 0 1;
#X floatatom 759 157 5 0 0 0 - - - 0;
#N canvas 0 0 1920 1052 tr808-clap 0;
#X obj 79 265 inlet;
#X obj 70 121 noise~;
#X obj 210 257 inlet;
#X obj 79 385 outlet~;
#X obj 98 222 lop~;
#X floatatom 122 150 5 0 0 0 - - - 0;
#X obj 98 187 hip~;
#X obj 85 353 *~;
#X floatatom 184 128 5 0 0 0 - - - 0;
#X obj 184 148 t b f;
#X obj 161 184 + 500;
#N canvas 0 23 811 499 multi_env 0;
#X obj 127 101 inlet;
#X floatatom 427 320 5 0 0 1 Decay - - 0;
#N canvas 0 23 450 300 env2 0;
#X obj 37 37 inlet;
#X obj 38 155 line~;
#X obj 29 204 *~;
#X msg 37 105 0;
#X obj 37 126 pack 0 200;
#X obj 37 84 del 2;
#X obj 37 63 t b b, f 14;
#X obj 29 225 outlet~;
#X obj 187 61 inlet;
#X msg 121 127 1 0;
#X connect 0 0 6 0;
#X connect 1 0 2 0;
#X connect 1 0 2 1;
#X connect 2 0 7 0;
#X connect 3 0 4 0;
#X connect 4 0 1 0;
#X connect 5 0 3 0;
#X connect 6 0 5 0;
#X connect 6 1 9 0;
#X connect 8 0 4 1;
#X connect 9 0 1 0;
#X restore 123 355 pd env2;
#N canvas 0 23 450 300 env2 0;
#X obj 37 37 inlet;
#X obj 38 155 line~;
#X obj 29 204 *~;
#X msg 37 105 0;
#X obj 37 126 pack 0 200;
#X obj 37 84 del 2;
#X obj 37 63 t b b, f 14;
#X obj 29 225 outlet~;
#X obj 187 61 inlet;
#X msg 120 128 1 0;
#X connect 0 0 6 0;
#X connect 1 0 2 0;
#X connect 1 0 2 1;
#X connect 2 0 7 0;
#X connect 3 0 4 0;
#X connect 4 0 1 0;
#X connect 5 0 3 0;
#X connect 6 0 5 0;
#X connect 6 1 9 0;
#X connect 8 0 4 1;
#X connect 9 0 1 0;
#X restore 179 354 pd env2;
#N canvas 0 23 450 300 env2 0;
#X obj 37 37 inlet;
#X obj 38 155 line~;
#X obj 29 204 *~;
#X msg 37 105 0;
#X obj 37 126 pack 0 200;
#X obj 37 84 del 2;
#X obj 37 63 t b b, f 14;
#X obj 29 225 outlet~;
#X obj 187 61 inlet;
#X msg 120 128 1 0;
#X connect 0 0 6 0;
#X connect 1 0 2 0;
#X connect 1 0 2 1;
#X connect 2 0 7 0;
#X connect 3 0 4 0;
#X connect 4 0 1 0;
#X connect 5 0 3 0;
#X connect 6 0 5 0;
#X connect 6 1 9 0;
#X connect 8 0 4 1;
#X connect 9 0 1 0;
#X restore 235 355 pd env2;
#N canvas 0 23 450 300 env2 0;
#X obj 37 37 inlet;
#X obj 38 155 line~;
#X obj 29 204 *~;
#X msg 37 105 0;
#X obj 37 126 pack 0 200;
#X obj 37 84 del 2;
#X obj 37 63 t b b, f 14;
#X obj 29 225 outlet~;
#X obj 187 61 inlet;
#X msg 120 128 1 0;
#X connect 0 0 6 0;
#X connect 1 0 2 0;
#X connect 1 0 2 1;
#X connect 2 0 7 0;
#X connect 3 0 4 0;
#X connect 4 0 1 0;
#X connect 5 0 3 0;
#X connect 6 0 5 0;
#X connect 6 1 9 0;
#X connect 8 0 4 1;
#X connect 9 0 1 0;
#X restore 309 353 pd env2;
#X obj 182 220 del 40;
#X obj 238 277 del 40;
#X obj 308 320 del 40;
#X obj 120 417 *~ 0.25;
#X obj 125 377 *~;
#X obj 177 375 *~;
#X obj 430 349 * 5;
#X obj 524 323 t b f;
#X obj 235 378 *~;
#X obj 308 381 *~;
#X obj 372 78 * 5;
#X obj 120 438 outlet~;
#X obj 372 52 inlet;
#X obj 523 287 inlet;
#X text 378 30 delay;
#X text 562 304 decay;
#X text 428 370 final delay is stretched out by a factor of [decay];
#X connect 0 0 6 0;
#X connect 0 0 2 0;
#X connect 1 0 2 1;
#X connect 1 0 3 1;
#X connect 1 0 4 1;
#X connect 1 0 12 0;
#X connect 2 0 10 0;
#X connect 2 0 10 1;
#X connect 3 0 11 0;
#X connect 3 0 11 1;
#X connect 4 0 14 0;
#X connect 4 0 14 1;
#X connect 5 0 15 0;
#X connect 5 0 15 1;
#X connect 6 0 7 0;
#X connect 6 0 3 0;
#X connect 7 0 8 0;
#X connect 7 0 4 0;
#X connect 8 0 5 0;
#X connect 9 0 17 0;
#X connect 10 0 9 0;
#X connect 11 0 9 0;
#X connect 12 0 5 1;
#X connect 13 0 12 0;
#X connect 13 1 12 1;
#X connect 14 0 9 0;
#X connect 15 0 9 0;
#X connect 16 0 1 0;
#X connect 18 0 16 0;
#X connect 18 0 6 1;
#X connect 18 0 7 1;
#X connect 18 0 8 1;
#X connect 19 0 13 0;
#X restore 78 293 pd multi_env;
#X obj 259 259 inlet;
#X obj 120 80 inlet;
#X obj 169 104 inlet;
#X text 299 262 decay;
#X text 206 237 delay;
#X text 180 89 width;
#X text 119 57 cutoff;
#X text 43 262 trig;
#X connect 0 0 11 0;
#X connect 1 0 6 0;
#X connect 2 0 11 1;
#X connect 4 0 7 1;
#X connect 5 0 6 1;
#X connect 5 0 10 0;
#X connect 6 0 4 0;
#X connect 7 0 3 0;
#X connect 8 0 9 0;
#X connect 9 0 10 0;
#X connect 9 1 10 1;
#X connect 10 0 4 1;
#X connect 11 0 7 0;
#X connect 12 0 11 2;
#X connect 13 0 5 0;
#X connect 14 0 8 0;
#X restore 628 124 pd tr808-clap;
#X f 62;
#X obj 724 4 hsl 128 15 50 5000 1 0 empty tr808cp_cutoff empty -2 -8 0 10 #fcfcfc #000000 #000000 0 1;
#X obj 813 29 hsl 128 15 50 5000 1 0 empty tr808cp_width empty -2 -8 0 10 #fcfcfc #000000 #000000 0 1;
#X obj 1001 85 hsl 128 15 1 50 1 0 empty tr808cp_decay empty -2 -8 0 10 #fcfcfc #000000 #000000 0 1;
#X obj 908 53 hsl 128 15 2 40 1 0 empty tr808cp_delay empty -2 -8 0 10 #fcfcfc #000000 #000000 0 1;
#X floatatom 720 24 5 0 0 1 cutoff - - 0;
#X floatatom 810 49 5 0 0 1 width - - 0;
#X floatatom 905 73 5 0 0 1 delay - - 0;
#X floatatom 998 105 5 0 0 1 decay - - 0;
#X msg 824 149 \; tr808cp_cutoff 750 \; tr808cp_width 1000 \; tr808cp_delay 11 \; tr808cp_decay 3.5 \;;
#X msg 822 212 \; tr808cp_cutoff 800 \; tr808cp_width 1500 \; tr808cp_delay 8 \; tr808cp_decay 3.5 \;;
#X msg 956 213 \; tr808cp_cutoff 1600 \; tr808cp_width 600 \; tr808cp_delay 18 \; tr808cp_decay 5.5 \;;
#X msg 957 148 \; tr808cp_cutoff 1250 \; tr808cp_width 500 \; tr808cp_delay 14 \; tr808cp_decay 4.5 \;;
#X obj 626 79 r clap;
#X obj 712 245 s clap;
#X obj 629 184 dac~;
#X obj 713 185 metro 150;
#X obj 713 206 random 2;
#X obj 714 226 sel 1;
#X obj 629 164 *~ 1;
#X obj 1046 126 loadbang;
#X obj 374 86 del 200;
#X obj 475 562 *~ 0.3;
#X obj 285 562 *~ 0.3;
#X obj 285 392 ../erbeverbs/06erbe/gsp-fdnstereo;
#X connect 0 0 5 0;
#X connect 0 0 29 0;
#X connect 0 1 5 1;
#X connect 0 1 29 0;
#X connect 1 0 0 0;
#X connect 3 0 2 0;
#X connect 4 0 2 0;
#X connect 6 0 0 0;
#X connect 7 0 0 0;
#X connect 8 0 6 0;
#X connect 8 0 7 0;
#X connect 8 0 9 0;
#X connect 8 0 19 0;
#X connect 8 0 22 0;
#X connect 8 0 54 0;
#X connect 9 0 0 0;
#X connect 10 0 0 0;
#X connect 11 0 0 0;
#X connect 12 0 0 0;
#X connect 13 0 8 0;
#X connect 14 0 13 0;
#X connect 15 0 0 0;
#X connect 16 0 21 0;
#X connect 17 0 16 0;
#X connect 17 0 18 0;
#X connect 19 0 17 0;
#X connect 20 0 23 0;
#X connect 21 0 5 1;
#X connect 21 0 5 0;
#X connect 22 0 20 0;
#X connect 23 0 21 1;
#X connect 25 0 28 1;
#X connect 26 0 28 0;
#X connect 27 0 25 1;
#X connect 27 0 26 1;
#X connect 29 0 26 0;
#X connect 29 1 25 0;
#X connect 30 0 33 0;
#X connect 31 0 49 0;
#X connect 32 0 49 1;
#X connect 33 0 52 0;
#X connect 34 0 38 0;
#X connect 35 0 39 0;
#X connect 36 0 41 0;
#X connect 37 0 40 0;
#X connect 38 0 33 1;
#X connect 39 0 33 2;
#X connect 40 0 33 3;
#X connect 41 0 33 4;
#X connect 46 0 30 0;
#X connect 49 0 50 0;
#X connect 50 0 51 0;
#X connect 51 0 47 0;
#X connect 52 0 48 0;
#X connect 52 0 48 1;
#X connect 52 0 57 0;
#X connect 53 0 45 0;
#X connect 54 0 30 0;
#X connect 55 0 28 1;
#X connect 56 0 28 0;
#X connect 57 0 56 0;
#X connect 57 1 55 0;
