#N canvas 960 0 478 1050 24;
#X floatatom 117 646 5 0 0 0 - - - 0;
#X msg 304 645 all \$1;
#X msg 204 645 all \$1;
#X floatatom 204 623 5 0 0 0 - - - 0;
#X floatatom 304 623 5 0 0 0 - - - 0;
#X msg 477 629 all \$1;
#X floatatom 477 608 5 0 0 0 - - - 0;
#X obj 582 629 sig~;
#X obj 680 630 sig~;
#X obj 680 587 tgl 15 0 empty empty empty 0 -8 0 12 #404040 #00ff04 #000000 0 1;
#X obj 582 584 tgl 15 0 empty empty empty 0 -8 0 12 #202020 #00ff04 #000000 0 1;
#X obj 776 627 sig~;
#X obj 776 584 tgl 15 0 empty empty empty 0 -8 0 12 #404040 #00ff04 #000000 0 1;
#X text 463 584 fliter env;
#X text 197 601 attack;
#X text 313 598 decay;
#X text 569 566 saw;
#X text 666 568 pulse;
#X text 768 566 sub;
#X obj 7 679 clone -x -s 1 /home/sss/repositories/pdfiles/src/synth/juju~ 5, f 62;
#X obj 117 509 vsl 15 128 0 1 0 0 empty empty Q 0 -9 0 12 #202020 #00ff04 #00ff04 0 1;
#X obj 40 511 vsl 15 128 20 20000 1 0 empty empty Cutoff 0 -9 0 12 #202020 #00ff04 #00ff04 0 1;
#X floatatom 40 647 5 0 0 0 - - - 0;
#X obj 872 498 vsl 15 128 20 20000 1 0 empty empty hpf 0 -9 0 12 #202020 #00ff04 #00ff04 0 1;
#X floatatom 872 634 5 0 0 0 - - - 0;
#X obj 100 718 env~;
#X floatatom 165 719 5 0 0 0 - - - 0;
#N canvas 0 0 1079 1050 jujucontrol 0;
#X floatatom 357 134 5 0 0 0 - - - 0;
#X obj 357 171 scale 0 127 0 1;
#X obj 357 106 ctlin 1;
#X floatatom 589 138 5 0 0 0 - - - 0;
#X obj 589 170 scale 0 127 0 500;
#X obj 589 110 ctlin 2;
#X floatatom 852 137 5 0 0 0 - - - 0;
#X obj 852 109 ctlin 3;
#X floatatom 1133 135 5 0 0 0 - - - 0;
#X obj 1133 168 scale 0 127 0 4000;
#X obj 1133 107 ctlin 4;
#X floatatom 65 134 5 0 0 0 - - - 0;
#X obj 65 106 ctlin 0;
#X obj 65 211 outlet;
#X obj 357 211 outlet;
#X obj 589 211 outlet;
#X obj 852 211 outlet;
#X obj 1133 208 outlet;
#X obj 1431 214 outlet;
#X obj 1715 436 outlet;
#X obj 1587 434 outlet;
#X obj 1841 439 outlet;
#X floatatom 1431 147 5 0 0 0 - - - 0;
#X obj 1431 180 scale 0 127 0 4000;
#X obj 1431 117 ctlin 5;
#X obj 1587 379 ctlin 43;
#X obj 1715 379 ctlin 44;
#X obj 1841 378 ctlin 42;
#X obj 1587 407 / 127;
#X obj 1715 409 / 127;
#X obj 1841 409 / 127;
#X obj 852 170 scale 0 127 0 1500;
#X obj 65 171 scale 0 127 0 6000;
#X connect 0 0 1 0;
#X connect 1 0 14 0;
#X connect 2 0 0 0;
#X connect 3 0 4 0;
#X connect 4 0 15 0;
#X connect 5 0 3 0;
#X connect 6 0 31 0;
#X connect 7 0 6 0;
#X connect 8 0 9 0;
#X connect 9 0 17 0;
#X connect 10 0 8 0;
#X connect 11 0 32 0;
#X connect 12 0 11 0;
#X connect 22 0 23 0;
#X connect 23 0 18 0;
#X connect 24 0 22 0;
#X connect 25 0 28 0;
#X connect 26 0 29 0;
#X connect 27 0 30 0;
#X connect 28 0 20 0;
#X connect 29 0 19 0;
#X connect 30 0 21 0;
#X connect 31 0 16 0;
#X connect 32 0 13 0;
#X restore 41 468 pd jujucontrol;
#X f 47;
#X msg 378 544 all \$1;
#X floatatom 378 522 5 0 0 0 - - - 0;
#X text 379 503 release;
#X obj 44 176 click~;
#X obj 44 150 bng 20 250 50 0 empty empty empty 0 -8 0 12 #00ff04 #000000 #000000;
#X obj 7 399 poly 5 1, f 10;
#X obj 7 430 pack f f f;
#X obj 5 287 ~/repositories/pdfiles/src/utility/vcocal \$0, f 26;
#X floatatom 142 181 5 0 0 0 - - - 0;
#X obj 5 52 ~/repositories/pdfiles/src/Projects/tidalRoute;
#X obj 7 369 + 72;
#X obj 142 370 * 127;
#X obj 7 813 loadbang;
#X msg 7 841 \; pd dsp 1;
#X obj 391 288 ~/repositories/pdfiles/src/utility/vcocal \$0, f 26;
#X obj 280 176 click~;
#X obj 280 150 bng 20 250 50 0 empty empty empty 0 -8 0 12 #00ff04 #000000 #000000;
#X floatatom 378 181 5 0 0 0 - - - 0;
#X obj 682 182 adc~ 1 2;
#X obj 5 82 unpack f f;
#X obj 241 82 unpack f f;
#X obj 478 82 unpack f f;
#X text 400 259 FURTHRRRR;
#X text 728 145 calibration input;
#X obj 682 137 bng 40 250 50 0 empty empty empty 0 -12 0 24 #00ff04 #000000 #000000;
#X obj 682 97 hradio 30 1 0 4 empty empty empty 0 -12 0 24 #fcfcfc #000000 #000000 0;
#X text 813 55 0 off \; 1 sig \; 2 cal \; 3 play \;;
#X obj 683 241 *~;
#X obj 722 214 tgl 23 0 empty empty empty 0 -12 0 24 #fcfcfc #000000 #000000 0 1;
#X obj 753 241 *~;
#X obj 792 214 tgl 23 0 empty empty empty 0 -12 0 24 #fcfcfc #000000 #000000 0 1;
#X obj 802 182 loadmess 1;
#X text 28 255 PISTON HONDA;
#X obj 96 334 cnv 23 10 10 empty empty empty 20 12 0 24 #ff0400 #404040 0;
#X obj 344 149 cnv 23 10 10 empty empty empty 20 12 0 24 #ff0400 #404040 0;
#X obj 121 154 cnv 23 10 10 empty empty empty 20 12 0 24 #ff0400 #404040 0;
#X obj 482 334 cnv 23 10 10 empty empty empty 20 12 0 24 #ff0400 #404040 0;
#X obj 657 183 cnv 23 10 10 empty empty empty 20 12 0 24 #ff0400 #404040 0;
#X obj 302 659;
#X obj 5 333 dac~ 3;
#X obj 44 208 dac~ 4;
#X obj 142 208 dac~ 5;
#X obj 280 208 dac~ 7;
#X obj 378 208 dac~ 8;
#X obj 391 334 dac~ 6;
#X text 8 13 SOEREN LIVE;
#X obj 513 922 dac~;
#X obj 510 811 *~;
#X obj 635 842 line~;
#X obj 510 783 cos~;
#X msg 647 716 0;
#X msg 950 744 44;
#X obj 1050 737 line~;
#X msg 1107 666 0;
#X obj 1176 463 *~ 0.5;
#X floatatom 1232 408 5 0 0 0 - - - 0;
#X text 1177 361 SIMPLE DELAY;
#X obj 1232 428 delread4~ one 600;
#X obj 1076 498 delwrite~ one 600;
#X obj 1359 533 *~ 0.2;
#X msg 797 385 bang;
#X obj 634 870 rampsmooth~ 20 20;
#X obj 916 791 +~;
#X msg 1087 697 176 \, 0 50;
#X obj 511 744 phasor~ 49;
#X msg 635 813 1 \, 0 300;
#X obj 518 876 *~ 0.333;
#X obj 7 719 *~ 0.8;
#X connect 0 0 19 2;
#X connect 1 0 19 4;
#X connect 2 0 19 3;
#X connect 3 0 2 0;
#X connect 4 0 1 0;
#X connect 5 0 19 5;
#X connect 6 0 5 0;
#X connect 7 0 19 6;
#X connect 8 0 19 7;
#X connect 9 0 8 0;
#X connect 10 0 7 0;
#X connect 11 0 19 8;
#X connect 12 0 11 0;
#X connect 19 0 95 0;
#X connect 20 0 0 0;
#X connect 21 0 22 0;
#X connect 22 0 19 1;
#X connect 23 0 24 0;
#X connect 24 0 19 9;
#X connect 25 0 26 0;
#X connect 27 0 21 0;
#X connect 27 1 20 0;
#X connect 27 2 3 0;
#X connect 27 3 4 0;
#X connect 27 4 29 0;
#X connect 27 5 6 0;
#X connect 27 6 10 0;
#X connect 27 7 9 0;
#X connect 27 8 12 0;
#X connect 29 0 28 0;
#X connect 31 0 68 0;
#X connect 32 0 31 0;
#X connect 33 0 34 0;
#X connect 33 1 34 1;
#X connect 33 2 34 2;
#X connect 34 0 19 0;
#X connect 35 0 67 0;
#X connect 36 0 69 0;
#X connect 37 0 47 0;
#X connect 37 1 48 0;
#X connect 37 2 49 0;
#X connect 38 0 33 0;
#X connect 39 0 33 1;
#X connect 40 0 41 0;
#X connect 42 0 72 0;
#X connect 43 0 70 0;
#X connect 44 0 43 0;
#X connect 44 0 88 0;
#X connect 45 0 71 0;
#X connect 46 0 55 0;
#X connect 46 1 57 0;
#X connect 47 0 35 2;
#X connect 47 1 32 0;
#X connect 47 1 36 0;
#X connect 48 0 42 2;
#X connect 48 1 44 0;
#X connect 48 1 45 0;
#X connect 49 0 38 0;
#X connect 49 1 39 0;
#X connect 52 0 42 1;
#X connect 52 0 35 1;
#X connect 53 0 42 0;
#X connect 53 0 35 0;
#X connect 55 0 35 3;
#X connect 56 0 55 1;
#X connect 57 0 42 3;
#X connect 58 0 57 1;
#X connect 59 0 58 0;
#X connect 59 0 56 0;
#X connect 75 0 94 0;
#X connect 76 0 89 0;
#X connect 77 0 75 0;
#X connect 78 0 92 1;
#X connect 79 0 90 0;
#X connect 80 0 90 1;
#X connect 81 0 91 0;
#X connect 82 0 86 0;
#X connect 83 0 85 0;
#X connect 85 0 82 0;
#X connect 85 0 87 0;
#X connect 87 0 94 0;
#X connect 88 0 93 0;
#X connect 88 0 79 0;
#X connect 88 0 81 0;
#X connect 88 0 78 0;
#X connect 89 0 75 1;
#X connect 90 0 92 0;
#X connect 91 0 80 0;
#X connect 92 0 77 0;
#X connect 93 0 76 0;
#X connect 94 0 74 0;
#X connect 94 0 74 1;
#X connect 95 0 25 0;
#X connect 95 0 86 0;
#X connect 95 0 94 0;
