#N canvas 0 0 1920 1052 24;
#X floatatom 687 338 5 0 0 1 LFO - - 0;
#X obj 687 368 osc~ 0.2;
#X obj 690 308 hsl 128 15 0.1 2 0 0 empty empty empty -2 -8 0 12 #202020 #00ff04 #000000 0 1;
#X floatatom 166 886 5 0 0 0 - - - 0;
#X msg 343 872 all \$1;
#X msg 240 872 all \$1;
#X floatatom 240 850 5 0 0 0 - - - 0;
#X floatatom 343 850 5 0 0 0 - - - 0;
#X msg 516 869 all \$1;
#X floatatom 516 848 5 0 0 0 - - - 0;
#X obj 631 869 sig~;
#X floatatom 631 849 5 0 0 0 - - - 0;
#X obj 729 870 sig~;
#X floatatom 729 848 5 0 0 0 - - - 0;
#X obj 729 827 tgl 15 0 empty empty empty 0 -8 0 12 #404040 #00ff04 #000000 0 1;
#X obj 631 824 tgl 15 0 empty empty empty 0 -8 0 12 #202020 #00ff04 #000000 0 1;
#X obj 825 867 sig~;
#X floatatom 825 846 5 0 0 0 - - - 0;
#X obj 825 824 tgl 15 0 empty empty empty 0 -8 0 12 #404040 #00ff04 #000000 0 1;
#X text 502 824 fliter env;
#X text 233 828 attack;
#X text 352 825 decay;
#X text 618 806 saw;
#X text 715 808 pulse;
#X text 817 806 sub;
#X obj 56 919 clone -x -s 1 /home/sss/repositories/pdfiles/src/synth/juju~ 5, f 62;
#X obj 166 749 vsl 15 128 0 1 0 0 empty empty Q 0 -9 0 12 #202020 #00ff04 #00ff04 0 1;
#X obj 89 751 vsl 15 128 20 20000 1 0 empty empty Cutoff 0 -9 0 12 #202020 #00ff04 #00ff04 0 1;
#X floatatom 89 887 5 0 0 0 - - - 0;
#X obj 921 738 vsl 15 128 20 20000 1 0 empty empty hpf 0 -9 0 12 #202020 #00ff04 #00ff04 0 1;
#X floatatom 921 874 5 0 0 0 - - - 0;
#X obj 153 958 env~;
#X floatatom 153 989 5 0 0 0 - - - 0;
#N canvas 0 0 1920 1052 jujucontrol 0;
#X floatatom 357 134 5 0 0 0 - - - 0;
#X obj 357 171 scale 0 127 0 1;
#X obj 357 106 ctlin 1;
#X floatatom 589 138 5 0 0 0 - - - 0;
#X obj 589 170 scale 0 127 0 500;
#X obj 589 110 ctlin 2;
#X floatatom 852 137 5 0 0 0 - - - 0;
#X obj 852 109 ctlin 3;
#X floatatom 1133 135 5 0 0 0 - - - 0;
#X obj 1133 168 scale 0 127 0 4000;
#X obj 1133 107 ctlin 4;
#X floatatom 65 134 5 0 0 0 - - - 0;
#X obj 65 106 ctlin 0;
#X obj 65 211 outlet;
#X obj 357 211 outlet;
#X obj 589 211 outlet;
#X obj 852 211 outlet;
#X obj 1133 208 outlet;
#X obj 1431 214 outlet;
#X obj 1715 436 outlet;
#X obj 1587 473 outlet;
#X obj 1841 439 outlet;
#X floatatom 1431 147 5 0 0 0 - - - 0;
#X obj 1431 180 scale 0 127 0 4000;
#X obj 1431 117 ctlin 5;
#X obj 1587 379 ctlin 43;
#X obj 1715 379 ctlin 44;
#X obj 1841 378 ctlin 42;
#X obj 1582 417 / 127;
#X obj 1713 409 / 127;
#X obj 1845 409 / 127;
#X obj 852 170 scale 0 127 0 1500;
#X obj 65 171 scale 0 127 0 6000;
#X connect 0 0 1 0;
#X connect 1 0 14 0;
#X connect 2 0 0 0;
#X connect 3 0 4 0;
#X connect 4 0 15 0;
#X connect 5 0 3 0;
#X connect 6 0 31 0;
#X connect 7 0 6 0;
#X connect 8 0 9 0;
#X connect 9 0 17 0;
#X connect 10 0 8 0;
#X connect 11 0 32 0;
#X connect 12 0 11 0;
#X connect 22 0 23 0;
#X connect 23 0 18 0;
#X connect 24 0 22 0;
#X connect 25 0 28 0;
#X connect 26 0 29 0;
#X connect 27 0 30 0;
#X connect 28 0 20 0;
#X connect 29 0 19 0;
#X connect 30 0 21 0;
#X connect 31 0 16 0;
#X connect 32 0 13 0;
#X restore 90 708 pd jujucontrol;
#X f 27;
#X msg 427 784 all \$1;
#X floatatom 427 762 5 0 0 0 - - - 0;
#X text 428 743 release;
#X text 54 14 FURTHRRRR;
#X text 663 269 MODULATION;
#X obj 224 346 click~;
#X obj 224 320 bng 20 250 50 0 empty empty empty 0 -8 0 12 #00ff04 #000000 #000000;
#X obj 130 255 ~/repositories/pdfiles/src/utility/vcocal, f 26;
#X obj 273 70 / 127;
#X obj 433 346 random 1000;
#X floatatom 433 424 5 0 0 1 RND - - 0;
#X obj 433 393 * 0.001;
#X obj 433 456 dac~ 7;
#X obj 56 990 dac~ 5;
#X obj 688 456 dac~ 6;
#X obj 433 315 bng 23 250 50 0 empty empty empty 0 -12 0 24 #fcfcfc #000000 #000000;
#X floatatom 57 89 5 0 0 0 - - - 0;
#X obj 57 127 - 12;
#X obj 56 639 poly 5 1, f 10;
#X obj 56 670 pack f f f;
#X obj 273 181 dac~ 3;
#X obj 129 378 dac~ 1;
#X obj 224 378 dac~ 2;
#X obj 57 505 dac~ 4;
#X obj 57 437 ~/repositories/pdfiles/src/utility/vcocal \$0, f 26;
#X obj 176 88 == 0;
#X floatatom 176 146 5 0 0 0 - - - 0;
#X obj 176 117 sel 0;
#X floatatom 273 154 5 0 0 0 - - - 0;
#X obj 273 98 max 0.1;
#X obj 273 125 min 1;
#X obj 56 958 *~ 0.1;
#X obj 688 411 *~ 0.3;
#X text 673 73 c5 = 0 in tidal;
#X obj 57 41 notein 1;
#X text 676 108 print: list dirt play _id_ 1 cps 0.5625 cycle 3.5 delta 0.444444 midichan 1 n -3 orbit 0 s mydevice;
#X obj 439 9 ~/repositories/pdfiles/src/Projects/tidalRoute, f 23;
#X obj 56 582 unpack f f;
#X obj 401 576 dac~;
#X obj 56 610 + 72;
#X obj 193 611 * 127;
#X connect 0 0 1 0;
#X connect 1 0 66 0;
#X connect 2 0 0 0;
#X connect 3 0 25 2;
#X connect 4 0 25 4;
#X connect 5 0 25 3;
#X connect 6 0 5 0;
#X connect 7 0 4 0;
#X connect 8 0 25 5;
#X connect 9 0 8 0;
#X connect 10 0 25 6;
#X connect 11 0 10 0;
#X connect 12 0 25 7;
#X connect 13 0 12 0;
#X connect 14 0 13 0;
#X connect 15 0 11 0;
#X connect 16 0 25 8;
#X connect 17 0 16 0;
#X connect 18 0 17 0;
#X connect 25 0 65 0;
#X connect 26 0 3 0;
#X connect 27 0 28 0;
#X connect 28 0 25 1;
#X connect 29 0 30 0;
#X connect 30 0 25 9;
#X connect 31 0 32 0;
#X connect 33 0 27 0;
#X connect 33 1 26 0;
#X connect 33 2 6 0;
#X connect 33 3 7 0;
#X connect 33 4 35 0;
#X connect 33 5 9 0;
#X connect 33 6 15 0;
#X connect 33 7 14 0;
#X connect 33 8 18 0;
#X connect 35 0 34 0;
#X connect 39 0 56 0;
#X connect 40 0 39 0;
#X connect 40 0 49 0;
#X connect 41 0 55 0;
#X connect 42 0 63 0;
#X connect 43 0 45 0;
#X connect 44 0 46 0;
#X connect 45 0 44 0;
#X connect 49 0 43 0;
#X connect 50 0 51 0;
#X connect 51 0 41 0;
#X connect 51 0 58 0;
#X connect 52 0 53 0;
#X connect 52 1 53 1;
#X connect 52 2 53 2;
#X connect 53 0 25 0;
#X connect 58 0 57 0;
#X connect 59 0 61 0;
#X connect 60 0 40 0;
#X connect 61 0 60 0;
#X connect 62 0 54 0;
#X connect 63 0 64 0;
#X connect 64 0 62 0;
#X connect 65 0 31 0;
#X connect 65 0 47 0;
#X connect 65 0 72 0;
#X connect 65 0 72 1;
#X connect 66 0 48 0;
#X connect 68 0 50 0;
#X connect 68 1 59 0;
#X connect 68 1 42 0;
#X connect 70 1 71 0;
#X connect 71 0 73 0;
#X connect 71 1 74 0;
#X connect 73 0 52 0;
#X connect 74 0 52 1;
