#N canvas 0 0 1920 1052 24;
#X floatatom 1033 46 3 0 0 1 %\ CPU - - 36;
#X text 1338 1445 major I \, ii° \, iii \, IV \, V \, vi \, vii \; natural minor i \, ii° \, III \, iv \, v \, VI \, VII \;;
#X text 1339 1480 ° = diminished;
#X obj 1334 1398 text define -k degrees;
#A set 1 5 0 1 1 0 0 natural_minor \;;
#X obj 1444 1039 text get degrees;
#X floatatom 1444 1012 5 0 0 0 - - - 0;
#X floatatom 1497 961 5 0 0 0 - - - 0;
#X obj 1497 989 t b f;
#X obj 1497 904 uzi 4 0;
#X obj 1497 933 random 7;
#X obj 1497 871 bng 15 250 50 0 empty empty empty 17 7 0 10 #00ff04 #000000 #000000;
#X floatatom 1261 1188 5 0 0 0 - - - 0;
#X obj 1375 1101 zl lookup;
#X obj 1313 1220 +;
#X obj 1297 1156 t b f;
#X obj 1332 860 tgl 15 0 empty empty empty 17 7 0 10 #00ff04 #000000 #000000 0 1;
#X obj 1297 934 counter 3;
#X floatatom 1297 963 5 0 0 0 - - - 0;
#X floatatom 1313 1249 5 0 0 0 - - - 0;
#X text 1195 1167 root note;
#X obj 1444 1072 zl group 4;
#X obj 1366 983 zl group 4;
#X obj 1297 1018 zl lookup;
#X floatatom 1375 1130 5 0 0 0 - - - 0;
#X floatatom 1297 1047 5 0 0 0 - - - 0;
#X obj 1332 909 bng 15 250 50 0 empty empty empty 17 7 0 10 #00ff04 #000000 #000000;
#X obj 1468 1210 text get combinations;
#X obj 1468 1239 unpack s f f f f f, f 32;
#X obj 1497 1306 +;
#X obj 1549 1306 +;
#X obj 1600 1306 +;
#X obj 1333 1328 makenote, f 11;
#X obj 1650 1306 +;
#X obj 1702 1306 +;
#X msg 1376 1164 100;
#X text 1176 800 random 4 chord progression, f 11;
#X obj 1332 887 change;
#X floatatom 1497 1335 5 0 0 0 - - - 0;
#X floatatom 1549 1335 5 0 0 0 - - - 0;
#X floatatom 1600 1335 5 0 0 0 - - - 0;
#X floatatom 1650 1335 5 0 0 0 - - - 0;
#X floatatom 1702 1335 5 0 0 0 - - - 0;
#X msg 1418 1164 3000;
#X text 1337 801 random progression based on music theory;
#X obj 1665 1106 random 10;
#X msg 1665 1210 1500;
#X msg 1711 1210 3000;
#X floatatom 1665 1139 5 0 0 0 - - - 0;
#X obj 1665 1169 sel 9;
#X text 1664 1084 one faster, f 11;
#X obj 1333 1369 noteout 2, f 23;
#X obj 1664 938 tgl 30 0 empty empty empty 17 7 0 10 #00ff04 #000000 #000000 0 1;
#X floatatom 1725 966 5 0 0 0 - - - 0;
#X obj 1664 898 bng 30 250 50 0 empty empty empty 17 7 0 10 #00ff04 #000000 #000000;
#N canvas 0 0 1920 1052 clock 0;
#X obj 37 186 i;
#X obj 73 186 + 1;
#X obj 37 38 tgl 15 0 empty empty empty 17 7 0 10 #fcfcfc #000000 #000000 0 1;
#X msg 150 152 0;
#X obj 106 306 + 1;
#X obj 150 123 sel 0;
#X text 201 125 reset;
#X floatatom 647 38 5 0 0 0 - - - 0;
#X obj 37 123 metro, f 12;
#X obj 106 278 i;
#X obj 106 334 %;
#X obj 37 229 %;
#X floatatom 106 362 5 0 0 0 - - - 0;
#X obj 106 251 sel;
#X obj 142 251 - 1;
#X obj 37 258 s pos;
#X obj 261 206 r steps;
#X obj 546 154 tgl 15 0 empty empty empty 17 7 0 10 #fcfcfc #000000 #000000 0 1;
#X obj 546 246 midiout;
#X obj 421 184 select 0 1;
#X msg 421 224 252;
#X msg 462 224 250;
#X msg 546 215 248;
#X obj 546 181 metro 20.8333;
#X obj 647 66 expr (60000/$f1);
#X obj 647 144 / 24;
#X obj 601 102 / 4;
#X obj 37 13 inlet;
#X obj 647 10 inlet;
#X obj 658 182 s clock;
#X obj 106 390 + 1;
#X obj 106 417 s pattern_start;
#X text 427 260 MIDI OUT SYNC;
#X text 75 301 STEP COUNTER, f 1;
#X text 699 38 BPM CALCULATOR;
#X connect 0 0 1 0;
#X connect 0 0 11 0;
#X connect 1 0 0 1;
#X connect 2 0 5 0;
#X connect 2 0 8 0;
#X connect 2 0 17 0;
#X connect 3 0 0 1;
#X connect 3 0 9 1;
#X connect 3 0 10 0;
#X connect 4 0 9 1;
#X connect 4 0 10 0;
#X connect 5 0 3 0;
#X connect 7 0 24 0;
#X connect 8 0 0 0;
#X connect 9 0 4 0;
#X connect 10 0 12 0;
#X connect 11 0 13 0;
#X connect 11 0 15 0;
#X connect 12 0 30 0;
#X connect 13 0 9 0;
#X connect 14 0 13 1;
#X connect 16 0 10 1;
#X connect 16 0 14 0;
#X connect 16 0 11 1;
#X connect 17 0 19 0;
#X connect 17 0 23 0;
#X connect 19 0 20 0;
#X connect 19 1 21 0;
#X connect 20 0 18 0;
#X connect 21 0 18 0;
#X connect 22 0 18 0;
#X connect 23 0 22 0;
#X connect 24 0 26 0;
#X connect 24 0 25 0;
#X connect 25 0 23 1;
#X connect 25 0 29 0;
#X connect 26 0 8 1;
#X connect 27 0 2 0;
#X connect 28 0 7 0;
#X connect 30 0 31 0;
#X restore 1664 997 pd clock;
#X obj 1725 938 loadmess 128;
#X obj 1664 874 r pattern_start;
#X text 1651 842 synth on midi ch. 1 \;;
#X obj 1664 1019 loadmess 16;
#X obj 1664 1048 s steps;
#N canvas 0 0 1920 1052 eu 0;
#X obj 355 388 f;
#X obj 355 418 % 16;
#X obj 355 676 *;
#X floatatom 420 712 5 0 16 0 - - - 0;
#X obj 439 311 == 0;
#X obj 388 388 + 1;
#X obj 355 705 % 16;
#X obj 355 734 <;
#X obj 355 764 sel 1;
#X obj 426 475 == 0;
#X obj 426 505 sel 1;
#X obj 426 533 bng 15 250 50 0 empty empty empty 17 7 0 10 #fcfcfc #000000 #000000;
#X obj 426 556 f;
#X obj 426 586 % 16;
#X obj 458 556 + 1;
#X floatatom 426 615 5 0 0 0 - - - 0;
#X text 408 493 OFFSET, f 1;
#X text 256 419 STEP NUMBER;
#X text 473 711 TRIG NUMBER;
#X obj 420 682 loadmess 7;
#X obj 355 250 inlet;
#X text 211 388 EUCLIDEAN RHYTHM;
#X obj 694 250 inlet;
#X obj 355 793 outlet;
#X text 191 132 0 on/off \; 1 bpm \; 2 trig number;
#X msg 446 258 0;
#X obj 445 235 inlet;
#X obj 594 269 inlet;
#X obj 356 646 + 0;
#X connect 0 0 1 0;
#X connect 0 0 5 0;
#X connect 1 0 9 0;
#X connect 1 0 28 0;
#X connect 2 0 6 0;
#X connect 3 0 2 1;
#X connect 3 0 7 1;
#X connect 4 0 0 1;
#X connect 4 0 12 0;
#X connect 5 0 0 1;
#X connect 6 0 7 0;
#X connect 7 0 8 0;
#X connect 8 0 23 0;
#X connect 9 0 10 0;
#X connect 10 0 11 0;
#X connect 11 0 12 0;
#X connect 12 0 13 0;
#X connect 12 0 14 0;
#X connect 13 0 15 0;
#X connect 14 0 12 1;
#X connect 19 0 3 0;
#X connect 20 0 0 0;
#X connect 22 0 3 0;
#X connect 25 0 4 0;
#X connect 26 0 25 0;
#X connect 27 0 1 1;
#X connect 28 0 2 0;
#X restore 1349 766 pd eu;
#X f 15;
#X obj 1418 730 bng 15 250 50 0 empty empty empty 0 -8 0 12 #00ff04 #000000 #000000;
#X msg 1487 728 16;
#X floatatom 1556 728 5 0 0 0 - - - 0;
#X obj 212 299 ~/repositories/pdfiles/src/sequencer/viseq_gen, f 49;
#X obj 235 330 click~;
#X obj 212 331 bng 20 250 50 0 empty empty empty 0 -8 0 12 #00ff04 #000000 #000000;
#X obj 213 465 ~/repositories/pdfiles/src/sequencer/viseq_gen, f 48;
#X floatatom 172 128 5 0 0 1 step - - 0;
#X floatatom 435 102 5 0 0 1 Peers - - 0;
#X obj 172 101 abl_link~ 1 0 4;
#X obj 236 492 click~;
#X obj 213 491 bng 20 250 50 0 empty empty empty 0 -8 0 12 #00ff04 #000000 #000000;
#X obj 808 146 dac~ 8;
#X floatatom 808 84 5 0 0 1 LFO - - 0;
#X floatatom 348 272 5 0 0 2 length - - 0;
#X floatatom 485 271 5 0 0 2 offset - - 0;
#X floatatom 621 272 5 0 0 2 pulse - - 0;
#X floatatom 758 262 5 0 0 2 snd - - 0;
#X obj 895 234 tgl 50 0 empty empty empty 0 -8 0 12 #00ff04 #000000 #000000 0 1;
#X floatatom 347 433 5 0 0 2 length - - 0;
#X floatatom 480 433 5 0 0 2 offset - - 0;
#X floatatom 614 433 5 0 0 2 pulse - - 0;
#X floatatom 749 433 5 0 0 2 snd - - 0;
#X obj 882 401 tgl 50 0 empty empty empty 0 -8 0 12 #00ff04 #000000 #000000 0 1;
#N canvas 0 0 958 1050 cpu 0;
#X obj 23 126 cputime;
#X obj 23 27 loadbang;
#X obj 23 76 metro 1000;
#X obj 23 101 t b b;
#X obj 23 176 * 0.1;
#X obj 23 151 int;
#X msg 23 52 1;
#X obj 23 197 outlet;
#X connect 0 0 5 0;
#X connect 1 0 6 0;
#X connect 2 0 3 0;
#X connect 3 0 0 0;
#X connect 3 1 0 1;
#X connect 4 0 7 0;
#X connect 5 0 4 0;
#X connect 6 0 2 0;
#X restore 1033 23 pd cpu;
#X obj 352 238 hsl 128 15 0 127 0 0 empty empty empty -2 -8 0 12 #202020 #00ff04 #000000 0 1;
#X obj 351 401 hsl 128 15 0 127 0 0 empty empty empty -2 -8 0 12 #202020 #00ff04 #000000 0 1;
#X obj 618 396 hsl 128 15 0 127 0 0 empty empty empty -2 -8 0 12 #202020 #00ff04 #000000 0 1;
#X obj 625 238 hsl 128 15 0 127 0 0 empty empty empty -2 -8 0 12 #202020 #00ff04 #000000 0 1;
#X obj 808 114 osc~ 0.2;
#X obj 811 54 hsl 128 15 0.1 2 0 0 empty empty empty -2 -8 0 12 #202020 #00ff04 #000000 0 1;
#X obj 635 57 random 1000;
#X floatatom 635 124 5 0 0 1 RND - - 0;
#X obj 635 93 * 0.001;
#X obj 635 156 dac~ 7;
#X obj 1183 768 pack f f f, f 15;
#X obj 1183 624 bng 30 250 50 0 empty empty empty 0 -8 0 12 #202020 #00ff04 #000000;
#X obj 1183 707 makenote 55 100;
#X obj 1183 740 poly 5 1, f 15;
#X floatatom 164 936 5 0 0 0 - - - 0;
#X msg 341 922 all \$1;
#X msg 238 922 all \$1;
#X floatatom 238 900 5 0 0 0 - - - 0;
#X floatatom 341 900 5 0 0 0 - - - 0;
#X msg 514 919 all \$1;
#X floatatom 514 898 5 0 0 0 - - - 0;
#X obj 629 919 sig~;
#X floatatom 629 899 5 0 0 0 - - - 0;
#X obj 727 920 sig~;
#X floatatom 727 898 5 0 0 0 - - - 0;
#X obj 727 877 tgl 15 0 empty empty empty 0 -8 0 12 #404040 #00ff04 #000000 0 1;
#X obj 629 874 tgl 15 0 empty empty empty 0 -8 0 12 #202020 #00ff04 #000000 0 1;
#X obj 823 917 sig~;
#X floatatom 823 896 5 0 0 0 - - - 0;
#X obj 823 874 tgl 15 0 empty empty empty 0 -8 0 12 #404040 #00ff04 #000000 0 1;
#X text 500 874 fliter env;
#X text 231 878 attack;
#X text 350 875 decay;
#X text 616 856 saw;
#X text 713 858 pulse;
#X text 815 856 sub;
#X obj 54 969 clone -x -s 1 /home/sss/repositories/pdfiles/src/synth/juju~ 5, f 62;
#X obj 212 703 ~/repositories/pdfiles/src/sequencer/viseq_gen, f 48;
#X floatatom 345 671 5 0 0 2 length - - 0;
#X floatatom 479 671 5 0 0 2 offset - - 0;
#X floatatom 613 671 5 0 0 2 pulse - - 0;
#X floatatom 747 671 5 0 0 2 snd - - 0;
#X obj 881 639 tgl 50 0 empty empty empty 0 -8 0 12 #00ff04 #000000 #000000 0 1;
#X obj 349 636 hsl 128 15 0 127 0 0 empty empty empty -2 -8 0 12 #202020 #00ff04 #000000 0 1;
#X obj 617 631 hsl 128 15 0 127 0 0 empty empty empty -2 -8 0 12 #202020 #00ff04 #000000 0 1;
#X obj 164 799 vsl 15 128 0 1 0 0 empty empty Q 0 -9 0 12 #202020 #00ff04 #00ff04 0 1;
#X obj 87 801 vsl 15 128 20 20000 1 0 empty empty Cutoff 0 -9 0 12 #202020 #00ff04 #00ff04 0 1;
#X floatatom 87 937 5 0 0 0 - - - 0;
#X obj 54 1008 *~ 0.5;
#X obj 919 788 vsl 15 128 20 20000 1 0 empty empty hpf 0 -9 0 12 #202020 #00ff04 #00ff04 0 1;
#X floatatom 919 924 5 0 0 0 - - - 0;
#X obj 151 1008 env~;
#X floatatom 151 1039 5 0 0 0 - - - 0;
#N canvas 0 0 1920 1052 jujucontrol 0;
#X floatatom 357 134 5 0 0 0 - - - 0;
#X obj 357 171 scale 0 127 0 1;
#X obj 357 106 ctlin 1;
#X floatatom 589 138 5 0 0 0 - - - 0;
#X obj 589 170 scale 0 127 0 500;
#X obj 589 110 ctlin 2;
#X floatatom 852 137 5 0 0 0 - - - 0;
#X obj 852 109 ctlin 3;
#X floatatom 1133 135 5 0 0 0 - - - 0;
#X obj 1133 168 scale 0 127 0 4000;
#X obj 1133 107 ctlin 4;
#X floatatom 65 134 5 0 0 0 - - - 0;
#X obj 65 106 ctlin 0;
#X obj 65 171 scale 0 127 0 12000;
#X obj 65 211 outlet;
#X obj 357 211 outlet;
#X obj 589 211 outlet;
#X obj 852 211 outlet;
#X obj 1133 208 outlet;
#X obj 1431 214 outlet;
#X obj 1715 436 outlet;
#X obj 1587 473 outlet;
#X obj 1841 439 outlet;
#X floatatom 1431 147 5 0 0 0 - - - 0;
#X obj 1431 180 scale 0 127 0 4000;
#X obj 1431 117 ctlin 5;
#X obj 1587 379 ctlin 43;
#X obj 1715 379 ctlin 44;
#X obj 1841 378 ctlin 42;
#X obj 1582 417 / 127;
#X obj 1713 409 / 127;
#X obj 1845 409 / 127;
#X obj 852 170 scale 0 127 0 1500;
#X connect 0 0 1 0;
#X connect 1 0 15 0;
#X connect 2 0 0 0;
#X connect 3 0 4 0;
#X connect 4 0 16 0;
#X connect 5 0 3 0;
#X connect 6 0 32 0;
#X connect 7 0 6 0;
#X connect 8 0 9 0;
#X connect 9 0 18 0;
#X connect 10 0 8 0;
#X connect 11 0 13 0;
#X connect 12 0 11 0;
#X connect 13 0 14 0;
#X connect 23 0 24 0;
#X connect 24 0 19 0;
#X connect 25 0 23 0;
#X connect 26 0 29 0;
#X connect 27 0 30 0;
#X connect 28 0 31 0;
#X connect 29 0 21 0;
#X connect 30 0 20 0;
#X connect 31 0 22 0;
#X connect 32 0 17 0;
#X restore 88 758 pd jujucontrol;
#X f 27;
#X msg 425 834 all \$1;
#X floatatom 425 812 5 0 0 0 - - - 0;
#X text 426 793 release;
#X text 98 68 LINK;
#X text 34 298 PISTON HONDA;
#X text 55 465 FURTHRRRR;
#X text 129 703 POLY;
#X msg 172 153 bang;
#N canvas 0 0 728 1050 link 0;
#X obj 586 37 r #abl_link_num_peers;
#X obj 49 233 tgl 15 0 empty empty empty 17 7 0 10 #00ff04 #000000 #000000 0 1;
#X msg 49 256 connect \$1;
#X obj 207 233 tgl 15 0 empty empty empty 17 7 0 10 #00ff04 #000000 #000000 0 1;
#X msg 207 256 play \$1;
#X obj 180 159 s reset;
#X obj 180 134 bng 15 250 50 0 empty empty empty 0 -8 0 12 #00ff04 #000000 #000000;
#X msg 382 291 resolution 4;
#X obj 47 28 loadbang;
#X msg 350 257 tempo 128;
#X obj 180 28 ctlin 41;
#X obj 180 56 change;
#X text 302 26 PLAY button;
#X obj 586 65 outlet;
#X obj 350 370 outlet;
#X msg 47 175 1;
#X connect 0 0 13 0;
#X connect 1 0 2 0;
#X connect 2 0 14 0;
#X connect 3 0 4 0;
#X connect 4 0 14 0;
#X connect 6 0 5 0;
#X connect 7 0 14 0;
#X connect 8 0 6 0;
#X connect 8 0 15 0;
#X connect 8 0 9 0;
#X connect 9 0 14 0;
#X connect 9 0 7 0;
#X connect 10 0 11 0;
#X connect 11 0 3 0;
#X connect 11 0 6 0;
#X connect 15 0 1 0;
#X connect 15 0 3 0;
#X restore 172 68 pd link;
#X f 19;
#X text 691 24 MODULATION;
#N canvas 1142 0 776 510 randomizer 0;
#X obj 101 219 outlet;
#X obj 182 219 outlet;
#X obj 115 36 inlet;
#X obj 101 147 random 32;
#X obj 182 149 random 31;
#X connect 2 0 3 0;
#X connect 2 0 4 0;
#X connect 3 0 0 0;
#X connect 4 0 1 0;
#X restore 968 197 pd randomizer;
#X obj 1279 509 mscale1;
#X msg 1464 452 2 4 5 7 9 11 12;
#X msg 1463 481 0 2 3 5 7 8 10;
#X obj 1379 195 bng 30 250 50 0 empty empty empty 17 7 0 10 #fcfcfc #000000 #000000;
#X text 1402 225 random list;
#X obj 1379 251 cyclone/uzi 6;
#X obj 1144 355 cyclone/zl lookup;
#X floatatom 1144 387 5 0 0 0 - - - 0;
#X obj 1144 420 +;
#X floatatom 1200 422 5 0 0 0 - - - 0;
#X obj 1379 285 random 36;
#X obj 1302 143 bng 30 250 50 0 empty empty empty 0 -8 0 12 #fcfcfc #000000 #000000;
#X text 1322 440 f = 53;
#X obj 1144 278 counter;
#X obj 1144 314 mod 15;
#X floatatom 1237 316 5 0 0 0 - - - 0;
#X floatatom 1513 284 5 0 0 0 - - - 0;
#X obj 1379 319 cyclone/zl group 4;
#X obj 1464 424 loadbang;
#X obj 1706 551 sig~;
#X text 1459 361 0.8 max out 6;
#X text 1459 382 c0 - c7 = 84 halbtoene;
#X obj 1701 469 / 84;
#X obj 1701 497 * 0.705;
#X floatatom 1701 525 5 0 0 0 - - - 0;
#X floatatom 1701 418 5 0 0 0 - - - 0;
#X msg 1326 462 53;
#X obj 962 720 osc~;
#X obj 962 748 scale~ -1 1 0 2000;
#X floatatom 962 688 5 0 0 0 - - - 0;
#X obj 962 776 cyclone/snapshot~ 50;
#X text 1463 342 0.109 = 1 Okt 0.096?;
#X obj 1317 623 + 3;
#X obj 1381 628 + 7;
#X msg 1183 671 51;
#X obj 330 330 dac~ 2;
#X obj 327 491 dac~ 4;
#X obj 11 215 sel 0;
#X obj 11 243 counter;
#X obj 11 270 % 2;
#X obj 213 427 spigot;
#X floatatom 11 335 5 0 0 0 - - - 0;
#X floatatom 221 221 5 0 0 0 - - - 0;
#X obj 11 362 - 1;
#X obj 11 390 abs;
#X floatatom 11 418 5 0 0 0 - - - 0;
#X obj 193 189 spigot;
#X obj 1707 590 dac~ 3;
#X msg 1468 532 0 3 7 10;
#X obj 54 1040 dac~ 6;
#X obj 11 155 counter;
#X obj 11 184 % 32;
#X connect 4 0 20 0;
#X connect 5 0 4 0;
#X connect 6 0 7 0;
#X connect 6 0 21 0;
#X connect 7 0 5 0;
#X connect 7 1 4 1;
#X connect 8 0 9 0;
#X connect 9 0 6 0;
#X connect 10 0 8 0;
#X connect 11 0 13 0;
#X connect 12 0 23 0;
#X connect 13 0 18 0;
#X connect 14 0 11 0;
#X connect 14 1 13 1;
#X connect 15 0 36 0;
#X connect 16 0 17 0;
#X connect 17 0 22 0;
#X connect 17 0 12 0;
#X connect 18 0 28 0;
#X connect 18 0 29 0;
#X connect 18 0 30 0;
#X connect 18 0 32 0;
#X connect 18 0 33 0;
#X connect 20 0 12 1;
#X connect 21 0 22 1;
#X connect 22 0 24 0;
#X connect 23 0 26 0;
#X connect 24 0 14 0;
#X connect 25 0 16 2;
#X connect 26 0 27 0;
#X connect 27 1 28 1;
#X connect 27 2 29 1;
#X connect 27 3 30 1;
#X connect 27 4 32 1;
#X connect 27 5 33 1;
#X connect 28 0 37 0;
#X connect 28 0 31 0;
#X connect 29 0 38 0;
#X connect 29 0 31 0;
#X connect 30 0 39 0;
#X connect 30 0 31 0;
#X connect 31 0 50 0;
#X connect 31 1 50 1;
#X connect 32 0 40 0;
#X connect 32 0 31 0;
#X connect 33 0 41 0;
#X connect 33 0 31 0;
#X connect 34 0 31 1;
#X connect 36 0 25 0;
#X connect 42 0 31 2;
#X connect 44 0 47 0;
#X connect 47 0 48 0;
#X connect 48 0 45 0;
#X connect 48 1 46 0;
#X connect 51 0 54 0;
#X connect 52 0 54 1;
#X connect 55 0 52 0;
#X connect 56 0 53 0;
#X connect 58 0 59 0;
#X connect 61 0 60 1;
#X connect 62 0 60 2;
#X connect 63 0 60 3;
#X connect 64 0 66 0;
#X connect 65 0 186 0;
#X connect 66 0 65 0;
#X connect 67 0 72 0;
#X connect 68 0 147 0;
#X connect 70 0 68 0;
#X connect 71 0 187 0;
#X connect 72 0 71 0;
#X connect 72 0 164 0;
#X connect 74 0 90 0;
#X connect 75 0 64 1;
#X connect 76 0 64 2;
#X connect 77 0 64 3;
#X connect 78 0 64 4;
#X connect 79 0 64 5;
#X connect 80 0 67 1;
#X connect 81 0 67 2;
#X connect 82 0 67 3;
#X connect 83 0 67 4;
#X connect 84 0 67 5;
#X connect 85 0 0 0;
#X connect 86 0 75 0;
#X connect 87 0 80 0;
#X connect 88 0 82 0;
#X connect 89 0 77 0;
#X connect 90 0 73 0;
#X connect 91 0 74 0;
#X connect 92 0 94 0;
#X connect 93 0 95 0;
#X connect 94 0 93 0;
#X connect 96 0 122 0;
#X connect 97 0 185 0;
#X connect 98 0 99 0;
#X connect 98 1 99 1;
#X connect 99 0 96 0;
#X connect 99 1 96 1;
#X connect 99 2 96 2;
#X connect 100 0 122 2;
#X connect 101 0 122 4;
#X connect 102 0 122 3;
#X connect 103 0 102 0;
#X connect 104 0 101 0;
#X connect 105 0 122 5;
#X connect 106 0 105 0;
#X connect 107 0 122 6;
#X connect 108 0 107 0;
#X connect 109 0 122 7;
#X connect 110 0 109 0;
#X connect 111 0 110 0;
#X connect 112 0 108 0;
#X connect 113 0 122 8;
#X connect 114 0 113 0;
#X connect 115 0 114 0;
#X connect 122 0 134 0;
#X connect 123 0 97 0;
#X connect 124 0 123 1;
#X connect 125 0 123 2;
#X connect 126 0 123 3;
#X connect 127 0 123 4;
#X connect 128 0 123 5;
#X connect 129 0 124 0;
#X connect 130 0 126 0;
#X connect 131 0 100 0;
#X connect 132 0 133 0;
#X connect 133 0 122 1;
#X connect 134 0 137 0;
#X connect 134 0 200 0;
#X connect 135 0 136 0;
#X connect 136 0 122 9;
#X connect 137 0 138 0;
#X connect 139 0 132 0;
#X connect 139 1 131 0;
#X connect 139 2 103 0;
#X connect 139 3 104 0;
#X connect 139 4 141 0;
#X connect 139 5 106 0;
#X connect 139 6 112 0;
#X connect 139 7 111 0;
#X connect 139 8 115 0;
#X connect 141 0 140 0;
#X connect 147 0 92 0;
#X connect 147 0 123 0;
#X connect 147 0 191 0;
#X connect 147 0 197 0;
#X connect 147 0 201 0;
#X connect 148 0 70 0;
#X connect 148 1 69 0;
#X connect 150 0 86 0;
#X connect 150 1 89 0;
#X connect 151 0 176 0;
#X connect 152 0 151 2;
#X connect 153 0 151 2;
#X connect 154 0 156 0;
#X connect 156 0 161 0;
#X connect 157 0 158 0;
#X connect 158 0 159 0;
#X connect 159 0 151 0;
#X connect 160 0 159 1;
#X connect 161 0 168 0;
#X connect 162 0 156 0;
#X connect 162 0 150 0;
#X connect 164 0 165 0;
#X connect 165 0 157 0;
#X connect 166 0 165 1;
#X connect 167 0 161 1;
#X connect 168 0 157 1;
#X connect 169 0 177 0;
#X connect 169 0 152 0;
#X connect 170 0 198 0;
#X connect 173 0 174 0;
#X connect 174 0 175 0;
#X connect 175 0 170 0;
#X connect 176 0 173 0;
#X connect 177 0 151 1;
#X connect 178 0 179 0;
#X connect 179 0 181 0;
#X connect 180 0 178 0;
#X connect 183 0 98 0;
#X connect 184 0 98 0;
#X connect 185 0 98 0;
#X connect 185 0 183 0;
#X connect 185 0 184 0;
#X connect 188 0 189 0;
#X connect 189 0 190 0;
#X connect 190 0 192 0;
#X connect 191 0 67 0;
#X connect 192 0 191 1;
#X connect 192 0 194 0;
#X connect 194 0 195 0;
#X connect 195 0 196 0;
#X connect 196 0 197 1;
#X connect 197 0 64 0;
#X connect 199 0 151 2;
#X connect 201 0 202 0;
#X connect 202 0 188 0;
