#N canvas 0 0 1920 1052 12;
#X obj 135 78 tgl 15 0 empty empty empty 17 7 0 10 #fcfcfc #000000 #000000 0 1;
#N canvas 0 0 958 1050 euclid 0;
#X obj 338 301 loadbang;
#X obj 279 545 sel 1;
#X obj 279 302 f;
#X obj 279 421 *;
#X floatatom 350 497 5 0 16 0 - - - 0;
#X obj 307 302 + 1;
#X obj 279 516 <;
#X floatatom 350 357 5 0 0 0 - - - 0;
#X obj 279 332 % 16;
#X obj 279 466 % 16;
#X obj 350 441 bng 15 250 50 0 empty empty empty 17 7 0 10 #fcfcfc #000000 #000000;
#X obj 279 376 + 0;
#X obj 375 412 del 1;
#X text 394 357 offset;
#X text 395 497 pulses no;
#X obj 279 253 inlet;
#X obj 279 570 outlet;
#X obj 507 253 inlet;
#X obj 557 253 inlet;
#X msg 338 325 32;
#X connect 0 0 19 0;
#X connect 1 0 16 0;
#X connect 2 0 5 0;
#X connect 2 0 8 0;
#X connect 3 0 9 0;
#X connect 4 0 3 1;
#X connect 4 0 6 1;
#X connect 5 0 2 1;
#X connect 6 0 1 0;
#X connect 7 0 10 0;
#X connect 7 0 11 1;
#X connect 7 0 12 0;
#X connect 8 0 11 0;
#X connect 9 0 6 0;
#X connect 10 0 4 0;
#X connect 11 0 3 0;
#X connect 12 0 10 0;
#X connect 15 0 2 0;
#X connect 17 0 4 0;
#X connect 18 0 7 0;
#X connect 19 0 8 1;
#X connect 19 0 9 1;
#X restore 135 144 pd euclid;
#N canvas 1142 0 776 510 randomizer 0;
#X obj 101 219 outlet;
#X obj 182 219 outlet;
#X obj 115 36 inlet;
#X obj 101 147 random 32;
#X obj 182 149 random 31;
#X connect 2 0 3 0;
#X connect 2 0 4 0;
#X connect 3 0 0 0;
#X connect 4 0 1 0;
#X restore 210 102 pd randomizer;
#X obj 135 103 metro 200;
#X floatatom 212 281 5 0 0 0 - - - 0;
#X obj 189 306 mscale1;
#X obj 189 325 mtof;
#X obj 189 345 phasor~;
#X msg 277 296 2 4 5 7 9 11 12;
#X msg 276 275 0 2 3 5 7 8 10;
#X obj 257 362 hsl 128 15 0 127 0 0 empty empty empty -2 -8 0 12 #fcfcfc #000000 #000000 0 1;
#X obj 254 382 / 127;
#X obj 186 400 *~;
#X obj 186 423 dac~;
#X obj 189 372 *~;
#X msg 94 273 1 \, 0 200;
#X obj 94 292 line~;
#X obj 426 99 bng 15 250 50 0 empty empty empty 17 7 0 10 #fcfcfc #000000 #000000;
#X text 449 92 random list;
#X obj 426 118 cyclone/uzi 6;
#X obj 310 195 cyclone/zl lookup;
#X floatatom 310 214 5 0 0 0 - - - 0;
#X obj 310 247 +;
#X floatatom 352 228 5 0 0 0 - - - 0;
#X obj 426 142 random 36;
#X obj 324 35 bng 15 250 50 0 empty empty empty 0 -8 0 12 #fcfcfc #000000 #000000;
#X text 192 257 f = 53;
#X obj 310 123 counter;
#X obj 310 142 mod 15;
#X floatatom 369 153 5 0 0 0 - - - 0;
#X floatatom 323 173 5 0 0 0 - - - 0;
#X floatatom 521 142 5 0 0 0 - - - 0;
#X obj 426 166 cyclone/zl group 4;
#X connect 0 0 3 0;
#X connect 1 0 15 0;
#X connect 1 0 27 0;
#X connect 2 0 1 1;
#X connect 2 1 1 2;
#X connect 3 0 1 0;
#X connect 4 0 5 1;
#X connect 5 0 6 0;
#X connect 6 0 7 0;
#X connect 7 0 14 0;
#X connect 8 0 5 2;
#X connect 9 0 5 2;
#X connect 10 0 11 0;
#X connect 11 0 12 1;
#X connect 12 0 13 0;
#X connect 12 0 13 1;
#X connect 14 0 12 0;
#X connect 15 0 16 0;
#X connect 16 0 14 1;
#X connect 17 0 19 0;
#X connect 19 0 24 0;
#X connect 20 0 21 0;
#X connect 21 0 22 0;
#X connect 22 0 5 0;
#X connect 23 0 22 1;
#X connect 24 0 32 0;
#X connect 25 0 19 0;
#X connect 25 0 2 0;
#X connect 27 0 28 0;
#X connect 28 0 20 0;
#X connect 28 0 30 0;
#X connect 29 0 28 1;
#X connect 31 0 24 1;
#X connect 32 0 20 1;
