#N canvas 0 0 967 1050 12;
#X obj 14 78 oscparse;
#X obj 14 53 netreceive -u -b;
#X obj 14 11 loadbang;
#X obj 14 104 list split 3;
#X obj 54 125 list trim;
#X obj 54 235 list;
#X obj 54 252 zl delace 2;
#X obj 128 275 unpack f f f f f f s;
#X floatatom 219 298 5 0 0 0 - - - 0;
#X floatatom 128 296 5 0 0 0 - - - 0;
#X obj 280 238 list;
#X obj 280 255 zl delace 2;
#X obj 354 278 unpack f f f f f f s;
#X floatatom 445 301 5 0 0 0 - - - 0;
#X floatatom 354 299 5 0 0 0 - - - 0;
#X obj 128 355 outlet;
#X obj 354 358 outlet;
#X obj 354 339 pack f f;
#X obj 128 336 pack f f;
#X obj 114 196 l2s;
#X msg 14 33 listen 9003;
#X msg 114 178 1;
#X obj 54 213 route pd1;
#X obj 280 213 route pd1;
#X obj 504 213 route pd1;
#X obj 340 196 l2s;
#X obj 564 196 l2s;
#X msg 340 178 2;
#X msg 564 178 3;
#X obj 504 235 list;
#X obj 504 252 zl delace 2;
#X obj 578 275 unpack f f f f f f s;
#X floatatom 669 298 5 0 0 0 - - - 0;
#X floatatom 578 296 5 0 0 0 - - - 0;
#X obj 578 355 outlet;
#X obj 578 336 pack f f;
#X text 155 10 ist dirt play _id_ 3 cps 0.5625 cycle 213.625 delta 0.111111 n 8 orbit 2 s ch;
#X obj 639 413 route pd1;
#X obj 699 396 l2s;
#X obj 639 435 list;
#X obj 639 452 zl delace 2;
#X obj 713 475 unpack f f f f f f s;
#X floatatom 804 498 5 0 0 0 - - - 0;
#X floatatom 713 496 5 0 0 0 - - - 0;
#X obj 713 555 outlet;
#X obj 713 536 pack f f;
#X msg 699 378 4;
#X obj 871 377 route pd1;
#X obj 931 360 l2s;
#X obj 871 399 list;
#X obj 871 416 zl delace 2;
#X obj 945 439 unpack f f f f f f s;
#X floatatom 1036 462 5 0 0 0 - - - 0;
#X floatatom 945 460 5 0 0 0 - - - 0;
#X obj 945 519 outlet;
#X obj 945 500 pack f f;
#X obj 1182 398 route pd1;
#X obj 1242 381 l2s;
#X obj 1182 420 list;
#X obj 1182 437 zl delace 2;
#X obj 1256 460 unpack f f f f f f s;
#X floatatom 1347 483 5 0 0 0 - - - 0;
#X floatatom 1256 481 5 0 0 0 - - - 0;
#X obj 1256 540 outlet;
#X obj 1256 521 pack f f;
#X msg 927 342 5;
#X msg 1242 363 6, f 2;
#X connect 0 0 3 0;
#X connect 1 0 0 0;
#X connect 2 0 20 0;
#X connect 2 0 21 0;
#X connect 2 0 27 0;
#X connect 2 0 28 0;
#X connect 2 0 46 0;
#X connect 2 0 65 0;
#X connect 2 0 66 0;
#X connect 3 1 4 0;
#X connect 4 0 22 0;
#X connect 4 0 23 0;
#X connect 4 0 24 0;
#X connect 4 0 37 0;
#X connect 4 0 47 0;
#X connect 4 0 56 0;
#X connect 5 0 6 0;
#X connect 6 1 7 0;
#X connect 7 0 9 0;
#X connect 7 4 8 0;
#X connect 8 0 18 0;
#X connect 9 0 18 1;
#X connect 10 0 11 0;
#X connect 11 1 12 0;
#X connect 12 0 14 0;
#X connect 12 4 13 0;
#X connect 13 0 17 0;
#X connect 14 0 17 1;
#X connect 17 0 16 0;
#X connect 18 0 15 0;
#X connect 19 0 22 1;
#X connect 20 0 1 0;
#X connect 21 0 19 0;
#X connect 22 0 5 0;
#X connect 23 0 10 0;
#X connect 24 0 29 0;
#X connect 25 0 23 1;
#X connect 26 0 24 1;
#X connect 27 0 25 0;
#X connect 28 0 26 0;
#X connect 29 0 30 0;
#X connect 30 1 31 0;
#X connect 31 0 33 0;
#X connect 31 4 32 0;
#X connect 32 0 35 0;
#X connect 33 0 35 1;
#X connect 35 0 34 0;
#X connect 37 0 39 0;
#X connect 38 0 37 1;
#X connect 39 0 40 0;
#X connect 40 1 41 0;
#X connect 41 0 43 0;
#X connect 41 4 42 0;
#X connect 42 0 45 0;
#X connect 43 0 45 1;
#X connect 45 0 44 0;
#X connect 46 0 38 0;
#X connect 47 0 49 0;
#X connect 48 0 47 1;
#X connect 49 0 50 0;
#X connect 50 1 51 0;
#X connect 51 0 53 0;
#X connect 51 4 52 0;
#X connect 52 0 55 0;
#X connect 53 0 55 1;
#X connect 55 0 54 0;
#X connect 56 0 58 0;
#X connect 57 0 56 1;
#X connect 58 0 59 0;
#X connect 59 1 60 0;
#X connect 60 0 62 0;
#X connect 60 4 61 0;
#X connect 61 0 64 0;
#X connect 62 0 64 1;
#X connect 64 0 63 0;
#X connect 65 0 48 0;
#X connect 66 0 57 0;
