#N canvas 0 0 958 1050 12;
#X obj 83 153 vstplugin~;
#X obj 176 462 dac~;
#X msg 151 81 midi_note 1 60 127;
#X msg 155 113 midi_note 1 63 127;
#X obj 186 43 bng 13 250 50 0 empty empty empty 0 -6 0 12 #fcfcfc #000000 #000000;
#X msg 166 132 midi_note 1 67 127;
#X obj 186 24 metro 2000;
#X obj 186 5 tgl 13 0 empty empty empty 0 -6 0 12 #fcfcfc #000000 #000000 0 1;
#X obj 406 316 osc~;
#X obj 398 275 mtof 40;
#X floatatom 462 321 5 0 0 0 - - - 0;
#X msg 397 248 30;
#X obj 497 266 line~;
#X obj 406 336 *~;
#X obj 502 291 cyclone/slide~ 44 44;
#X obj 990 506 *~ 0.3;
#X obj 800 506 *~ 0.3;
#X obj 801 570 dac~;
#X obj 800 336 ../erbeverbs/06erbe/gsp-fdnstereo;
#X obj 374 86 del 300;
#X obj 319 108 cyclone/counter;
#X obj 319 153 sel 0;
#X obj 386 38 metro 200;
#X obj 319 131 % 5;
#X msg 496 245 0.3 \, 0 500;
#X floatatom 173 244 5 0 0 0 - - - 0;
#X floatatom 324 252 5 0 0 0 - - - 0;
#X floatatom 276 257 5 0 0 0 - - - 0;
#X obj 712 307 cyclone/svf~ 120 0.3;
#X floatatom 501 531 5 0 0 0 - - - 0;
#X msg 501 550 param_set 62 \$1;
#X obj 501 511 cyclone/snapshot~ 50;
#X obj 501 491 cyclone/scale~ -1 1 0.23 0.5;
#X obj 501 471 osc~ 0.12;
#X obj 296 382 cyclone/svf~ 1000 0.3;
#X obj 112 196 vstplugin~;
#X msg 252 177 print;
#X obj 159 285 ../fx/lyra-delay/lyraDelay082024~;
#X msg 1220 486 0.5;
#X obj 289 497 vstplugin~;
#X msg 254 478 open -e The_Drop.vst3 1;
#X msg 178 152 midi_note 1 70 127;
#X obj 525 157 vstplugin~;
#X msg 490 138 open -e -b CHOWTapeModel.vst3;
#X msg 81 617 open -e -t -p The_Drop.vst3 1;
#X msg 29 83 open -e OB-Xd;
#X connect 0 0 35 0;
#X connect 0 1 35 1;
#X connect 2 0 0 0;
#X connect 3 0 0 0;
#X connect 4 0 2 0;
#X connect 4 0 3 0;
#X connect 4 0 5 0;
#X connect 4 0 11 0;
#X connect 4 0 19 0;
#X connect 4 0 41 0;
#X connect 5 0 0 0;
#X connect 6 0 4 0;
#X connect 7 0 6 0;
#X connect 7 0 22 0;
#X connect 8 0 13 0;
#X connect 9 0 8 0;
#X connect 9 0 10 0;
#X connect 11 0 9 0;
#X connect 12 0 14 0;
#X connect 13 0 1 1;
#X connect 13 0 1 0;
#X connect 14 0 13 1;
#X connect 15 0 17 1;
#X connect 16 0 17 0;
#X connect 18 0 16 0;
#X connect 18 1 15 0;
#X connect 20 0 23 0;
#X connect 21 0 24 0;
#X connect 22 0 20 0;
#X connect 23 0 21 0;
#X connect 24 0 12 0;
#X connect 28 1 18 0;
#X connect 29 0 30 0;
#X connect 31 0 29 0;
#X connect 32 0 31 0;
#X connect 33 0 32 0;
#X connect 34 1 1 0;
#X connect 35 0 1 0;
#X connect 35 0 37 0;
#X connect 35 0 28 0;
#X connect 35 1 1 1;
#X connect 35 1 37 0;
#X connect 35 1 28 0;
#X connect 36 0 35 0;
#X connect 37 0 39 0;
#X connect 38 0 15 1;
#X connect 38 0 16 1;
#X connect 39 0 1 1;
#X connect 39 0 28 0;
#X connect 40 0 39 0;
#X connect 41 0 0 0;
#X connect 43 0 42 0;
#X connect 44 0 35 0;
#X connect 45 0 0 0;
