#N canvas 0 0 1140 1050 12;
#X obj 176 462 dac~;
#X obj 186 43 bng 13 250 50 0 empty empty empty 0 -6 0 12 #fcfcfc #000000 #000000;
#X obj 186 24 metro 2000;
#X obj 186 5 tgl 13 0 empty empty empty 0 -6 0 12 #fcfcfc #000000 #000000 0 1;
#X obj 81 214 vstplugin~;
#X msg 10 114 open -e -b CHOWTapeModel.vst3;
#X obj 211 137 noise~;
#X obj 295 139 noise~;
#X obj 235 231 *~;
#X obj 296 205 *~;
#X obj 297 96 line~;
#X obj 96 267 vstplugin~;
#X obj 106 304 vstplugin~;
#X msg 297 76 1 \, 0 1;
#X connect 1 0 13 0;
#X connect 2 0 1 0;
#X connect 3 0 2 0;
#X connect 4 0 11 0;
#X connect 5 0 4 0;
#X connect 5 0 11 0;
#X connect 5 0 12 0;
#X connect 6 0 8 0;
#X connect 7 0 9 0;
#X connect 8 0 4 1;
#X connect 8 0 4 0;
#X connect 9 0 0 1;
#X connect 10 0 8 1;
#X connect 10 0 9 1;
#X connect 11 0 12 0;
#X connect 12 0 0 0;
#X connect 13 0 10 0;
