#N canvas 1142 0 776 510 12;
#X obj 81 244 dac~;
#X obj 373 147 bng 13 250 50 0 empty empty empty 0 -6 0 12 #fcfcfc #000000 #000000;
#X obj 373 128 metro 2000;
#X obj 373 109 tgl 13 0 empty empty empty 0 -6 0 12 #fcfcfc #000000 #000000 0 1;
#X obj 81 219 vstplugin~;
#X obj 235 181 noise~;
#X obj 296 182 noise~;
#X obj 235 205 *~;
#X obj 296 205 *~;
#X obj 373 183 line~;
#X msg 373 163 1 \, 0 1;
#X obj 148 298 print;
#X msg 81 138 open -e The_Drop.vst3 1;
#X obj 178 278 sampstoms~;
#X obj 178 260 route latency;
#X floatatom 245 298 5 0 0 0 - - - 0;
#X msg 28 75 open -e -p TDR_Kotelnikov_GE.vst3;
#X connect 1 0 10 0;
#X connect 2 0 1 0;
#X connect 3 0 2 0;
#X connect 4 0 0 0;
#X connect 4 2 11 0;
#X connect 4 2 14 0;
#X connect 5 0 7 0;
#X connect 6 0 8 0;
#X connect 7 0 4 1;
#X connect 7 0 4 0;
#X connect 8 0 0 1;
#X connect 9 0 7 1;
#X connect 9 0 8 1;
#X connect 10 0 9 0;
#X connect 12 0 4 0;
#X connect 13 1 15 0;
#X connect 14 0 13 0;
#X connect 16 0 4 0;
